<?xml version="1.0" encoding="UTF-8" standalone="no"?>
<!DOCTYPE svg PUBLIC "-//W3C//DTD SVG 1.1//EN"
 "http://www.w3.org/Graphics/SVG/1.1/DTD/svg11.dtd">
<!-- Generated by graphviz version 2.42.3 (20191010.1750)
 -->
<!-- Title: %3 Pages: 1 -->
<svg width="607pt" height="382pt"
 viewBox="0.00 0.00 607.00 381.86" xmlns="http://www.w3.org/2000/svg" xmlns:xlink="http://www.w3.org/1999/xlink">
<g id="graph0" class="graph" transform="scale(1 1) rotate(0) translate(4 377.86)">
<title>%3</title>
<polygon fill="white" stroke="transparent" points="-4,4 -4,-377.86 603,-377.86 603,4 -4,4"/>
<g id="clust1" class="cluster">
<title>clusterfloor_dim (2)</title>
<path fill="none" stroke="black" d="M20,-129.95C20,-129.95 96,-129.95 96,-129.95 102,-129.95 108,-135.95 108,-141.95 108,-141.95 108,-231.91 108,-231.91 108,-237.91 102,-243.91 96,-243.91 96,-243.91 20,-243.91 20,-243.91 14,-243.91 8,-237.91 8,-231.91 8,-231.91 8,-141.95 8,-141.95 8,-135.95 14,-129.95 20,-129.95"/>
<text text-anchor="middle" x="62.5" y="-137.75" font-family="Times,serif" font-size="14.00">floor_dim (2)</text>
</g>
<g id="clust2" class="cluster">
<title>clusterfloor__expr_dim (2)</title>
<path fill="none" stroke="black" d="M415,-251.91C415,-251.91 579,-251.91 579,-251.91 585,-251.91 591,-257.91 591,-263.91 591,-263.91 591,-353.86 591,-353.86 591,-359.86 585,-365.86 579,-365.86 579,-365.86 415,-365.86 415,-365.86 409,-365.86 403,-359.86 403,-353.86 403,-353.86 403,-263.91 403,-263.91 403,-257.91 409,-251.91 415,-251.91"/>
<text text-anchor="middle" x="527" y="-259.71" font-family="Times,serif" font-size="14.00">floor__expr_dim (2)</text>
</g>
<g id="clust3" class="cluster">
<title>clustercounty__factor_dim (85) x floor__expr_dim (2)</title>
<path fill="none" stroke="black" d="M128,-140.93C128,-140.93 383,-140.93 383,-140.93 389,-140.93 395,-146.93 395,-152.93 395,-152.93 395,-353.86 395,-353.86 395,-359.86 389,-365.86 383,-365.86 383,-365.86 128,-365.86 128,-365.86 122,-365.86 116,-359.86 116,-353.86 116,-353.86 116,-152.93 116,-152.93 116,-146.93 122,-140.93 128,-140.93"/>
<text text-anchor="middle" x="255.5" y="-148.73" font-family="Times,serif" font-size="14.00">county__factor_dim (85) x floor__expr_dim (2)</text>
</g>
<g id="clust4" class="cluster">
<title>cluster919</title>
<path fill="none" stroke="black" d="M274,-8C274,-8 366,-8 366,-8 372,-8 378,-14 378,-20 378,-20 378,-109.95 378,-109.95 378,-115.95 372,-121.95 366,-121.95 366,-121.95 274,-121.95 274,-121.95 268,-121.95 262,-115.95 262,-109.95 262,-109.95 262,-20 262,-20 262,-14 268,-8 274,-8"/>
<text text-anchor="middle" x="359.5" y="-15.8" font-family="Times,serif" font-size="14.00">919</text>
</g>
<!-- floor -->
<g id="node1" class="node">
<title>floor</title>
<ellipse fill="none" stroke="black" cx="58" cy="-198.43" rx="41.94" ry="37.45"/>
<text text-anchor="middle" x="58" y="-209.73" font-family="Times,serif" font-size="14.00">floor</text>
<text text-anchor="middle" x="58" y="-194.73" font-family="Times,serif" font-size="14.00">~</text>
<text text-anchor="middle" x="58" y="-179.73" font-family="Times,serif" font-size="14.00">Normal</text>
</g>
<!-- log_radon -->
<g id="node6" class="node">
<title>log_radon</title>
<ellipse fill="lightgrey" stroke="black" cx="320" cy="-76.48" rx="50.41" ry="37.45"/>
<text text-anchor="middle" x="320" y="-87.78" font-family="Times,serif" font-size="14.00">log_radon</text>
<text text-anchor="middle" x="320" y="-72.78" font-family="Times,serif" font-size="14.00">~</text>
<text text-anchor="middle" x="320" y="-57.78" font-family="Times,serif" font-size="14.00">Normal</text>
</g>
<!-- floor&#45;&gt;log_radon -->
<g id="edge4" class="edge">
<title>floor&#45;&gt;log_radon</title>
<path fill="none" stroke="black" d="M77.36,-164.99C86.41,-152.35 98.24,-138.8 112,-129.95 156.61,-101.27 215.95,-88.26 259.83,-82.36"/>
<polygon fill="black" stroke="black" points="260.31,-85.83 269.79,-81.11 259.43,-78.88 260.31,-85.83"/>
</g>
<!-- floor|county_sigma -->
<g id="node2" class="node">
<title>floor|county_sigma</title>
<ellipse fill="none" stroke="black" cx="497" cy="-320.38" rx="86.03" ry="37.45"/>
<text text-anchor="middle" x="497" y="-331.68" font-family="Times,serif" font-size="14.00">floor|county_sigma</text>
<text text-anchor="middle" x="497" y="-316.68" font-family="Times,serif" font-size="14.00">~</text>
<text text-anchor="middle" x="497" y="-301.68" font-family="Times,serif" font-size="14.00">Exponential</text>
</g>
<!-- floor|county -->
<g id="node3" class="node">
<title>floor|county</title>
<polygon fill="none" stroke="black" points="365.5,-224.93 274.5,-224.93 274.5,-171.93 365.5,-171.93 365.5,-224.93"/>
<text text-anchor="middle" x="320" y="-209.73" font-family="Times,serif" font-size="14.00">floor|county</text>
<text text-anchor="middle" x="320" y="-194.73" font-family="Times,serif" font-size="14.00">~</text>
<text text-anchor="middle" x="320" y="-179.73" font-family="Times,serif" font-size="14.00">Deterministic</text>
</g>
<!-- floor|county_sigma&#45;&gt;floor|county -->
<g id="edge1" class="edge">
<title>floor|county_sigma&#45;&gt;floor|county</title>
<path fill="none" stroke="black" d="M452.22,-288.32C435.56,-276.82 416.45,-263.71 399,-251.91 388.88,-245.06 377.98,-237.77 367.62,-230.88"/>
<polygon fill="black" stroke="black" points="369.33,-227.81 359.06,-225.19 365.46,-233.64 369.33,-227.81"/>
</g>
<!-- floor|county&#45;&gt;log_radon -->
<g id="edge3" class="edge">
<title>floor|county&#45;&gt;log_radon</title>
<path fill="none" stroke="black" d="M320,-171.7C320,-157.92 320,-140.51 320,-124.42"/>
<polygon fill="black" stroke="black" points="323.5,-124.09 320,-114.09 316.5,-124.09 323.5,-124.09"/>
</g>
<!-- floor|county_offset -->
<g id="node4" class="node">
<title>floor|county_offset</title>
<ellipse fill="none" stroke="black" cx="302" cy="-320.38" rx="84.71" ry="37.45"/>
<text text-anchor="middle" x="302" y="-331.68" font-family="Times,serif" font-size="14.00">floor|county_offset</text>
<text text-anchor="middle" x="302" y="-316.68" font-family="Times,serif" font-size="14.00">~</text>
<text text-anchor="middle" x="302" y="-301.68" font-family="Times,serif" font-size="14.00">Normal</text>
</g>
<!-- floor|county_offset&#45;&gt;floor|county -->
<g id="edge2" class="edge">
<title>floor|county_offset&#45;&gt;floor|county</title>
<path fill="none" stroke="black" d="M307.5,-282.74C309.77,-267.63 312.39,-250.17 314.64,-235.15"/>
<polygon fill="black" stroke="black" points="318.11,-235.61 316.13,-225.2 311.19,-234.57 318.11,-235.61"/>
</g>
<!-- log_radon_sigma -->
<g id="node5" class="node">
<title>log_radon_sigma</title>
<ellipse fill="none" stroke="black" cx="481" cy="-198.43" rx="78.48" ry="37.45"/>
<text text-anchor="middle" x="481" y="-209.73" font-family="Times,serif" font-size="14.00">log_radon_sigma</text>
<text text-anchor="middle" x="481" y="-194.73" font-family="Times,serif" font-size="14.00">~</text>
<text text-anchor="middle" x="481" y="-179.73" font-family="Times,serif" font-size="14.00">Exponential</text>
</g>
<!-- log_radon_sigma&#45;&gt;log_radon -->
<g id="edge5" class="edge">
<title>log_radon_sigma&#45;&gt;log_radon</title>
<path fill="none" stroke="black" d="M443.68,-165.36C429.88,-153.88 413.96,-141.04 399,-129.95 388.66,-122.3 377.28,-114.43 366.45,-107.19"/>
<polygon fill="black" stroke="black" points="368.18,-104.14 357.91,-101.53 364.32,-109.97 368.18,-104.14"/>
</g>
</g>
</svg>
