<?xml version="1.0" encoding="UTF-8" standalone="no"?>
<!DOCTYPE svg PUBLIC "-//W3C//DTD SVG 1.1//EN"
 "http://www.w3.org/Graphics/SVG/1.1/DTD/svg11.dtd">
<!-- Generated by graphviz version 2.43.0 (0)
 -->
<!-- Title: %3 Pages: 1 -->
<svg width="907pt" height="371pt"
 viewBox="0.00 0.00 906.77 370.86" xmlns="http://www.w3.org/2000/svg" xmlns:xlink="http://www.w3.org/1999/xlink">
<g id="graph0" class="graph" transform="scale(1 1) rotate(0) translate(4 366.86)">
<title>%3</title>
<polygon fill="white" stroke="transparent" points="-4,4 -4,-366.86 902.77,-366.86 902.77,4 -4,4"/>
<g id="clust1" class="cluster">
<title>cluster2</title>
<path fill="none" stroke="black" d="M20,-129.95C20,-129.95 110,-129.95 110,-129.95 116,-129.95 122,-135.95 122,-141.95 122,-141.95 122,-231.91 122,-231.91 122,-237.91 116,-243.91 110,-243.91 110,-243.91 20,-243.91 20,-243.91 14,-243.91 8,-237.91 8,-231.91 8,-231.91 8,-141.95 8,-141.95 8,-135.95 14,-129.95 20,-129.95"/>
<text text-anchor="middle" x="109" y="-137.75" font-family="Times,serif" font-size="14.00">2</text>
</g>
<g id="clust2" class="cluster">
<title>cluster85 x 2</title>
<path fill="none" stroke="black" d="M462,-140.93C462,-140.93 664,-140.93 664,-140.93 670,-140.93 676,-146.93 676,-152.93 676,-152.93 676,-342.86 676,-342.86 676,-348.86 670,-354.86 664,-354.86 664,-354.86 462,-354.86 462,-354.86 456,-354.86 450,-348.86 450,-342.86 450,-342.86 450,-152.93 450,-152.93 450,-146.93 456,-140.93 462,-140.93"/>
<text text-anchor="middle" x="645.5" y="-148.73" font-family="Times,serif" font-size="14.00">85 x 2</text>
</g>
<g id="clust3" class="cluster">
<title>cluster919</title>
<path fill="none" stroke="black" d="M207,-8C207,-8 321,-8 321,-8 327,-8 333,-14 333,-20 333,-20 333,-109.95 333,-109.95 333,-115.95 327,-121.95 321,-121.95 321,-121.95 207,-121.95 207,-121.95 201,-121.95 195,-115.95 195,-109.95 195,-109.95 195,-20 195,-20 195,-14 201,-8 207,-8"/>
<text text-anchor="middle" x="311" y="-15.8" font-family="Times,serif" font-size="14.00">919</text>
</g>
<!-- floor -->
<g id="node1" class="node">
<title>floor</title>
<ellipse fill="none" stroke="black" cx="65" cy="-198.43" rx="49.49" ry="37.45"/>
<text text-anchor="middle" x="65" y="-209.73" font-family="Times,serif" font-size="14.00">floor</text>
<text text-anchor="middle" x="65" y="-194.73" font-family="Times,serif" font-size="14.00">~</text>
<text text-anchor="middle" x="65" y="-179.73" font-family="Times,serif" font-size="14.00">Normal</text>
</g>
<!-- log_radon -->
<g id="node7" class="node">
<title>log_radon</title>
<ellipse fill="lightgrey" stroke="black" cx="264" cy="-76.48" rx="60.62" ry="37.45"/>
<text text-anchor="middle" x="264" y="-87.78" font-family="Times,serif" font-size="14.00">log_radon</text>
<text text-anchor="middle" x="264" y="-72.78" font-family="Times,serif" font-size="14.00">~</text>
<text text-anchor="middle" x="264" y="-57.78" font-family="Times,serif" font-size="14.00">Normal</text>
</g>
<!-- floor&#45;&gt;log_radon -->
<g id="edge3" class="edge">
<title>floor&#45;&gt;log_radon</title>
<path fill="none" stroke="black" d="M87.78,-165.09C97.76,-152.77 110.31,-139.43 124,-129.95 146.33,-114.5 173.79,-102.91 198.45,-94.61"/>
<polygon fill="black" stroke="black" points="199.68,-97.89 208.11,-91.48 197.52,-91.24 199.68,-97.89"/>
</g>
<!-- log_u -->
<g id="node2" class="node">
<title>log_u</title>
<ellipse fill="none" stroke="black" cx="182" cy="-198.43" rx="49.49" ry="37.45"/>
<text text-anchor="middle" x="182" y="-209.73" font-family="Times,serif" font-size="14.00">log_u</text>
<text text-anchor="middle" x="182" y="-194.73" font-family="Times,serif" font-size="14.00">~</text>
<text text-anchor="middle" x="182" y="-179.73" font-family="Times,serif" font-size="14.00">Normal</text>
</g>
<!-- log_u&#45;&gt;log_radon -->
<g id="edge5" class="edge">
<title>log_u&#45;&gt;log_radon</title>
<path fill="none" stroke="black" d="M204.41,-164.65C213.84,-150.85 224.94,-134.61 234.99,-119.92"/>
<polygon fill="black" stroke="black" points="238.01,-121.7 240.76,-111.47 232.23,-117.75 238.01,-121.7"/>
</g>
<!-- log_radon_sigma -->
<g id="node3" class="node">
<title>log_radon_sigma</title>
<ellipse fill="none" stroke="black" cx="346" cy="-198.43" rx="96.33" ry="37.45"/>
<text text-anchor="middle" x="346" y="-209.73" font-family="Times,serif" font-size="14.00">log_radon_sigma</text>
<text text-anchor="middle" x="346" y="-194.73" font-family="Times,serif" font-size="14.00">~</text>
<text text-anchor="middle" x="346" y="-179.73" font-family="Times,serif" font-size="14.00">Exponential</text>
</g>
<!-- log_radon_sigma&#45;&gt;log_radon -->
<g id="edge6" class="edge">
<title>log_radon_sigma&#45;&gt;log_radon</title>
<path fill="none" stroke="black" d="M321.84,-162.09C312.76,-148.81 302.36,-133.58 292.89,-119.74"/>
<polygon fill="black" stroke="black" points="295.67,-117.61 287.14,-111.33 289.9,-121.56 295.67,-117.61"/>
</g>
<!-- floor|county_sigma -->
<g id="node4" class="node">
<title>floor|county_sigma</title>
<ellipse fill="none" stroke="black" cx="792" cy="-309.38" rx="106.55" ry="37.45"/>
<text text-anchor="middle" x="792" y="-320.68" font-family="Times,serif" font-size="14.00">floor|county_sigma</text>
<text text-anchor="middle" x="792" y="-305.68" font-family="Times,serif" font-size="14.00">~</text>
<text text-anchor="middle" x="792" y="-290.68" font-family="Times,serif" font-size="14.00">Exponential</text>
</g>
<!-- floor|county -->
<g id="node5" class="node">
<title>floor|county</title>
<polygon fill="none" stroke="black" points="620,-224.93 506,-224.93 506,-171.93 620,-171.93 620,-224.93"/>
<text text-anchor="middle" x="563" y="-209.73" font-family="Times,serif" font-size="14.00">floor|county</text>
<text text-anchor="middle" x="563" y="-194.73" font-family="Times,serif" font-size="14.00">~</text>
<text text-anchor="middle" x="563" y="-179.73" font-family="Times,serif" font-size="14.00">Deterministic</text>
</g>
<!-- floor|county_sigma&#45;&gt;floor|county -->
<g id="edge2" class="edge">
<title>floor|county_sigma&#45;&gt;floor|county</title>
<path fill="none" stroke="black" d="M729.73,-278.76C697.54,-263.44 658.35,-244.8 626.05,-229.43"/>
<polygon fill="black" stroke="black" points="627.24,-226.12 616.7,-224.98 624.23,-232.44 627.24,-226.12"/>
</g>
<!-- floor|county&#45;&gt;log_radon -->
<g id="edge4" class="edge">
<title>floor|county&#45;&gt;log_radon</title>
<path fill="none" stroke="black" d="M526.25,-171.84C505.02,-157.95 477.36,-141.34 451,-129.95 412.66,-113.39 367.65,-100.57 331.39,-91.75"/>
<polygon fill="black" stroke="black" points="331.95,-88.28 321.41,-89.36 330.33,-95.09 331.95,-88.28"/>
</g>
<!-- floor|county_offset -->
<g id="node6" class="node">
<title>floor|county_offset</title>
<ellipse fill="none" stroke="black" cx="563" cy="-309.38" rx="104.8" ry="37.45"/>
<text text-anchor="middle" x="563" y="-320.68" font-family="Times,serif" font-size="14.00">floor|county_offset</text>
<text text-anchor="middle" x="563" y="-305.68" font-family="Times,serif" font-size="14.00">~</text>
<text text-anchor="middle" x="563" y="-290.68" font-family="Times,serif" font-size="14.00">Normal</text>
</g>
<!-- floor|county_offset&#45;&gt;floor|county -->
<g id="edge1" class="edge">
<title>floor|county_offset&#45;&gt;floor|county</title>
<path fill="none" stroke="black" d="M563,-271.8C563,-260.06 563,-247.08 563,-235.38"/>
<polygon fill="black" stroke="black" points="566.5,-235.08 563,-225.08 559.5,-235.08 566.5,-235.08"/>
</g>
</g>
</svg>
