<?xml version="1.0" encoding="UTF-8" standalone="no"?>
<!DOCTYPE svg PUBLIC "-//W3C//DTD SVG 1.1//EN"
 "http://www.w3.org/Graphics/SVG/1.1/DTD/svg11.dtd">
<!-- Generated by graphviz version 2.43.0 (0)
 -->
<!-- Title: %3 Pages: 1 -->
<svg width="377pt" height="260pt"
 viewBox="0.00 0.00 377.17 259.91" xmlns="http://www.w3.org/2000/svg" xmlns:xlink="http://www.w3.org/1999/xlink">
<g id="graph0" class="graph" transform="scale(1 1) rotate(0) translate(4 255.91)">
<title>%3</title>
<polygon fill="white" stroke="transparent" points="-4,4 -4,-255.91 373.17,-255.91 373.17,4 -4,4"/>
<g id="clust1" class="cluster">
<title>cluster170</title>
<path fill="none" stroke="black" d="M20,-129.95C20,-129.95 154,-129.95 154,-129.95 160,-129.95 166,-135.95 166,-141.95 166,-141.95 166,-231.91 166,-231.91 166,-237.91 160,-243.91 154,-243.91 154,-243.91 20,-243.91 20,-243.91 14,-243.91 8,-237.91 8,-231.91 8,-231.91 8,-141.95 8,-141.95 8,-135.95 14,-129.95 20,-129.95"/>
<text text-anchor="middle" x="144" y="-137.75" font-family="Times,serif" font-size="14.00">170</text>
</g>
<g id="clust2" class="cluster">
<title>cluster919</title>
<path fill="none" stroke="black" d="M35,-8C35,-8 149,-8 149,-8 155,-8 161,-14 161,-20 161,-20 161,-109.95 161,-109.95 161,-115.95 155,-121.95 149,-121.95 149,-121.95 35,-121.95 35,-121.95 29,-121.95 23,-115.95 23,-109.95 23,-109.95 23,-20 23,-20 23,-14 29,-8 35,-8"/>
<text text-anchor="middle" x="139" y="-15.8" font-family="Times,serif" font-size="14.00">919</text>
</g>
<!-- county&amp;floor -->
<g id="node1" class="node">
<title>county&amp;floor</title>
<ellipse fill="none" stroke="black" cx="87" cy="-198.43" rx="71.34" ry="37.45"/>
<text text-anchor="middle" x="87" y="-209.73" font-family="Times,serif" font-size="14.00">county:floor</text>
<text text-anchor="middle" x="87" y="-194.73" font-family="Times,serif" font-size="14.00">~</text>
<text text-anchor="middle" x="87" y="-179.73" font-family="Times,serif" font-size="14.00">Normal</text>
</g>
<!-- log_radon -->
<g id="node3" class="node">
<title>log_radon</title>
<ellipse fill="lightgrey" stroke="black" cx="92" cy="-76.48" rx="60.62" ry="37.45"/>
<text text-anchor="middle" x="92" y="-87.78" font-family="Times,serif" font-size="14.00">log_radon</text>
<text text-anchor="middle" x="92" y="-72.78" font-family="Times,serif" font-size="14.00">~</text>
<text text-anchor="middle" x="92" y="-57.78" font-family="Times,serif" font-size="14.00">Normal</text>
</g>
<!-- county&amp;floor&#45;&gt;log_radon -->
<g id="edge1" class="edge">
<title>county&amp;floor&#45;&gt;log_radon</title>
<path fill="none" stroke="black" d="M88.53,-160.79C89,-149.38 89.53,-136.65 90.03,-124.63"/>
<polygon fill="black" stroke="black" points="93.55,-124.44 90.46,-114.31 86.55,-124.15 93.55,-124.44"/>
</g>
<!-- log_radon_sigma -->
<g id="node2" class="node">
<title>log_radon_sigma</title>
<ellipse fill="none" stroke="black" cx="273" cy="-198.43" rx="96.33" ry="37.45"/>
<text text-anchor="middle" x="273" y="-209.73" font-family="Times,serif" font-size="14.00">log_radon_sigma</text>
<text text-anchor="middle" x="273" y="-194.73" font-family="Times,serif" font-size="14.00">~</text>
<text text-anchor="middle" x="273" y="-179.73" font-family="Times,serif" font-size="14.00">Exponential</text>
</g>
<!-- log_radon_sigma&#45;&gt;log_radon -->
<g id="edge2" class="edge">
<title>log_radon_sigma&#45;&gt;log_radon</title>
<path fill="none" stroke="black" d="M224.97,-165.6C199.19,-148.51 167.46,-127.49 141.46,-110.26"/>
<polygon fill="black" stroke="black" points="143.15,-107.18 132.88,-104.57 139.28,-113.01 143.15,-107.18"/>
</g>
</g>
</svg>
