<?xml version="1.0" encoding="UTF-8" standalone="no"?>
<!DOCTYPE svg PUBLIC "-//W3C//DTD SVG 1.1//EN"
 "http://www.w3.org/Graphics/SVG/1.1/DTD/svg11.dtd">
<!-- Generated by graphviz version 2.49.0 (20210829.0051)
 -->
<!-- Pages: 1 -->
<svg width="698pt" height="471pt"
 viewBox="0.00 0.00 697.54 470.81" xmlns="http://www.w3.org/2000/svg" xmlns:xlink="http://www.w3.org/1999/xlink">
<g id="graph0" class="graph" transform="scale(1 1) rotate(0) translate(4 466.81)">
<polygon fill="white" stroke="transparent" points="-4,4 -4,-466.81 693.54,-466.81 693.54,4 -4,4"/>
<g id="clust1" class="cluster">
<title>clusterpredictors_dim (50)</title>
<path fill="none" stroke="black" d="M191.85,-240.88C191.85,-240.88 551.85,-240.88 551.85,-240.88 557.85,-240.88 563.85,-246.88 563.85,-252.88 563.85,-252.88 563.85,-442.81 563.85,-442.81 563.85,-448.81 557.85,-454.81 551.85,-454.81 551.85,-454.81 191.85,-454.81 191.85,-454.81 185.85,-454.81 179.85,-448.81 179.85,-442.81 179.85,-442.81 179.85,-252.88 179.85,-252.88 179.85,-246.88 185.85,-240.88 191.85,-240.88"/>
<text text-anchor="middle" x="485.35" y="-248.68" font-family="Times,serif" font-size="14.00">predictors_dim (50)</text>
</g>
<g id="clust2" class="cluster">
<title>cluster__obs__ (100)</title>
<path fill="none" stroke="black" d="M389.85,-8C389.85,-8 495.85,-8 495.85,-8 501.85,-8 507.85,-14 507.85,-20 507.85,-20 507.85,-209.93 507.85,-209.93 507.85,-215.93 501.85,-221.93 495.85,-221.93 495.85,-221.93 389.85,-221.93 389.85,-221.93 383.85,-221.93 377.85,-215.93 377.85,-209.93 377.85,-209.93 377.85,-20 377.85,-20 377.85,-14 383.85,-8 389.85,-8"/>
<text text-anchor="middle" x="452.85" y="-15.8" font-family="Times,serif" font-size="14.00">__obs__ (100)</text>
</g>
<!-- predictors_tau -->
<g id="node1" class="node">
<title>predictors_tau</title>
<ellipse fill="none" stroke="black" cx="84.85" cy="-409.34" rx="84.71" ry="37.45"/>
<text text-anchor="middle" x="84.85" y="-420.64" font-family="Times,serif" font-size="14.00">predictors_tau</text>
<text text-anchor="middle" x="84.85" y="-405.64" font-family="Times,serif" font-size="14.00">~</text>
<text text-anchor="middle" x="84.85" y="-390.64" font-family="Times,serif" font-size="14.00">HalfStudentT</text>
</g>
<!-- predictors -->
<g id="node4" class="node">
<title>predictors</title>
<polygon fill="none" stroke="black" points="388.85,-324.88 274.85,-324.88 274.85,-271.88 388.85,-271.88 388.85,-324.88"/>
<text text-anchor="middle" x="331.85" y="-309.68" font-family="Times,serif" font-size="14.00">predictors</text>
<text text-anchor="middle" x="331.85" y="-294.68" font-family="Times,serif" font-size="14.00">~</text>
<text text-anchor="middle" x="331.85" y="-279.68" font-family="Times,serif" font-size="14.00">Deterministic</text>
</g>
<!-- predictors_tau&#45;&gt;predictors -->
<g id="edge3" class="edge">
<title>predictors_tau&#45;&gt;predictors</title>
<path fill="none" stroke="black" d="M144.02,-382.24C180.46,-366.16 227.28,-345.51 265.05,-328.85"/>
<polygon fill="black" stroke="black" points="266.71,-331.94 274.45,-324.7 263.89,-325.54 266.71,-331.94"/>
</g>
<!-- Intercept -->
<g id="node2" class="node">
<title>Intercept</title>
<ellipse fill="none" stroke="black" cx="630.85" cy="-298.38" rx="58.88" ry="37.45"/>
<text text-anchor="middle" x="630.85" y="-309.68" font-family="Times,serif" font-size="14.00">Intercept</text>
<text text-anchor="middle" x="630.85" y="-294.68" font-family="Times,serif" font-size="14.00">~</text>
<text text-anchor="middle" x="630.85" y="-279.68" font-family="Times,serif" font-size="14.00">Normal</text>
</g>
<!-- mu -->
<g id="node7" class="node">
<title>mu</title>
<polygon fill="none" stroke="black" points="499.85,-213.93 385.85,-213.93 385.85,-160.93 499.85,-160.93 499.85,-213.93"/>
<text text-anchor="middle" x="442.85" y="-198.73" font-family="Times,serif" font-size="14.00">mu</text>
<text text-anchor="middle" x="442.85" y="-183.73" font-family="Times,serif" font-size="14.00">~</text>
<text text-anchor="middle" x="442.85" y="-168.73" font-family="Times,serif" font-size="14.00">Deterministic</text>
</g>
<!-- Intercept&#45;&gt;mu -->
<g id="edge5" class="edge">
<title>Intercept&#45;&gt;mu</title>
<path fill="none" stroke="black" d="M601.36,-265.77C591.46,-256.65 579.86,-247.41 567.85,-240.88 543.98,-227.91 534.03,-235.1 508.85,-224.91 504.19,-223.02 499.45,-220.88 494.75,-218.6"/>
<polygon fill="black" stroke="black" points="496.3,-215.47 485.79,-214.09 493.15,-221.72 496.3,-215.47"/>
</g>
<!-- sigma -->
<g id="node3" class="node">
<title>sigma</title>
<ellipse fill="none" stroke="black" cx="597.85" cy="-187.43" rx="79.81" ry="37.45"/>
<text text-anchor="middle" x="597.85" y="-198.73" font-family="Times,serif" font-size="14.00">sigma</text>
<text text-anchor="middle" x="597.85" y="-183.73" font-family="Times,serif" font-size="14.00">~</text>
<text text-anchor="middle" x="597.85" y="-168.73" font-family="Times,serif" font-size="14.00">HalfStudentT</text>
</g>
<!-- y -->
<g id="node8" class="node">
<title>y</title>
<ellipse fill="lightgrey" stroke="black" cx="446.85" cy="-76.48" rx="49.49" ry="37.45"/>
<text text-anchor="middle" x="446.85" y="-87.78" font-family="Times,serif" font-size="14.00">y</text>
<text text-anchor="middle" x="446.85" y="-72.78" font-family="Times,serif" font-size="14.00">~</text>
<text text-anchor="middle" x="446.85" y="-57.78" font-family="Times,serif" font-size="14.00">Normal</text>
</g>
<!-- sigma&#45;&gt;y -->
<g id="edge7" class="edge">
<title>sigma&#45;&gt;y</title>
<path fill="none" stroke="black" d="M554.99,-155.5C534.75,-140.9 510.65,-123.51 490.34,-108.86"/>
<polygon fill="black" stroke="black" points="492.34,-105.98 482.18,-102.97 488.25,-111.66 492.34,-105.98"/>
</g>
<!-- predictors&#45;&gt;mu -->
<g id="edge4" class="edge">
<title>predictors&#45;&gt;mu</title>
<path fill="none" stroke="black" d="M357.88,-271.84C373.21,-256.78 392.78,-237.58 409.27,-221.39"/>
<polygon fill="black" stroke="black" points="411.92,-223.69 416.61,-214.19 407.02,-218.7 411.92,-223.69"/>
</g>
<!-- predictors_lam -->
<g id="node5" class="node">
<title>predictors_lam</title>
<ellipse fill="none" stroke="black" cx="468.85" cy="-409.34" rx="86.95" ry="37.45"/>
<text text-anchor="middle" x="468.85" y="-420.64" font-family="Times,serif" font-size="14.00">predictors_lam</text>
<text text-anchor="middle" x="468.85" y="-405.64" font-family="Times,serif" font-size="14.00">~</text>
<text text-anchor="middle" x="468.85" y="-390.64" font-family="Times,serif" font-size="14.00">HalfStudentT</text>
</g>
<!-- predictors_lam&#45;&gt;predictors -->
<g id="edge1" class="edge">
<title>predictors_lam&#45;&gt;predictors</title>
<path fill="none" stroke="black" d="M428.12,-375.94C410.34,-361.8 389.55,-345.27 371.85,-331.19"/>
<polygon fill="black" stroke="black" points="373.96,-328.4 363.95,-324.91 369.6,-333.88 373.96,-328.4"/>
</g>
<!-- predictors_raw -->
<g id="node6" class="node">
<title>predictors_raw</title>
<ellipse fill="none" stroke="black" cx="275.85" cy="-409.34" rx="87.86" ry="37.45"/>
<text text-anchor="middle" x="275.85" y="-420.64" font-family="Times,serif" font-size="14.00">predictors_raw</text>
<text text-anchor="middle" x="275.85" y="-405.64" font-family="Times,serif" font-size="14.00">~</text>
<text text-anchor="middle" x="275.85" y="-390.64" font-family="Times,serif" font-size="14.00">Normal</text>
</g>
<!-- predictors_raw&#45;&gt;predictors -->
<g id="edge2" class="edge">
<title>predictors_raw&#45;&gt;predictors</title>
<path fill="none" stroke="black" d="M294.19,-372.66C300.54,-360.3 307.66,-346.46 313.97,-334.17"/>
<polygon fill="black" stroke="black" points="317.17,-335.62 318.62,-325.12 310.94,-332.42 317.17,-335.62"/>
</g>
<!-- mu&#45;&gt;y -->
<g id="edge6" class="edge">
<title>mu&#45;&gt;y</title>
<path fill="none" stroke="black" d="M443.79,-160.89C444.19,-149.98 444.67,-136.89 445.13,-124.35"/>
<polygon fill="black" stroke="black" points="448.64,-124.12 445.51,-114 441.65,-123.87 448.64,-124.12"/>
</g>
</g>
</svg>
