<?xml version="1.0" encoding="UTF-8" standalone="no"?>
<!DOCTYPE svg PUBLIC "-//W3C//DTD SVG 1.1//EN"
 "http://www.w3.org/Graphics/SVG/1.1/DTD/svg11.dtd">
<!-- Generated by graphviz version 13.1.2 (20250809.0930)
 -->
<!-- Pages: 1 -->
<svg width="558pt" height="498pt"
 viewBox="0.00 0.00 558.00 498.00" xmlns="http://www.w3.org/2000/svg" xmlns:xlink="http://www.w3.org/1999/xlink">
<g id="graph0" class="graph" transform="scale(1 1) rotate(0) translate(4 493.77)">
<polygon fill="white" stroke="none" points="-4,4 -4,-493.77 554.19,-493.77 554.19,4 -4,4"/>
<g id="clust1" class="cluster">
<title>clusterpredictors_dim (50)</title>
<path fill="none" stroke="black" d="M153.94,-254.54C153.94,-254.54 439.94,-254.54 439.94,-254.54 445.94,-254.54 451.94,-260.54 451.94,-266.54 451.94,-266.54 451.94,-469.77 451.94,-469.77 451.94,-475.77 445.94,-481.77 439.94,-481.77 439.94,-481.77 153.94,-481.77 153.94,-481.77 147.94,-481.77 141.94,-475.77 141.94,-469.77 141.94,-469.77 141.94,-266.54 141.94,-266.54 141.94,-260.54 147.94,-254.54 153.94,-254.54"/>
<text xml:space="preserve" text-anchor="middle" x="389.56" y="-261.74" font-family="Times,serif" font-size="14.00">predictors_dim (50)</text>
</g>
<g id="clust2" class="cluster">
<title>cluster__obs__ (100)</title>
<path fill="none" stroke="black" d="M312.94,-8C312.94,-8 394.94,-8 394.94,-8 400.94,-8 406.94,-14 406.94,-20 406.94,-20 406.94,-223.23 406.94,-223.23 406.94,-229.23 400.94,-235.23 394.94,-235.23 394.94,-235.23 312.94,-235.23 312.94,-235.23 306.94,-235.23 300.94,-229.23 300.94,-223.23 300.94,-223.23 300.94,-20 300.94,-20 300.94,-14 306.94,-8 312.94,-8"/>
<text xml:space="preserve" text-anchor="middle" x="359.56" y="-15.2" font-family="Times,serif" font-size="14.00">__obs__ (100)</text>
</g>
<!-- predictors_tau -->
<g id="node1" class="node">
<title>predictors_tau</title>
<ellipse fill="none" stroke="black" cx="65.94" cy="-433.11" rx="65.94" ry="40.66"/>
<text xml:space="preserve" text-anchor="middle" x="65.94" y="-444.56" font-family="Times,serif" font-size="14.00">predictors_tau</text>
<text xml:space="preserve" text-anchor="middle" x="65.94" y="-428.06" font-family="Times,serif" font-size="14.00">~</text>
<text xml:space="preserve" text-anchor="middle" x="65.94" y="-411.56" font-family="Times,serif" font-size="14.00">Halfstudentt</text>
</g>
<!-- predictors -->
<g id="node6" class="node">
<title>predictors</title>
<polygon fill="none" stroke="black" points="309.06,-344.54 218.81,-344.54 218.81,-287.04 309.06,-287.04 309.06,-344.54"/>
<text xml:space="preserve" text-anchor="middle" x="263.94" y="-327.24" font-family="Times,serif" font-size="14.00">predictors</text>
<text xml:space="preserve" text-anchor="middle" x="263.94" y="-310.74" font-family="Times,serif" font-size="14.00">~</text>
<text xml:space="preserve" text-anchor="middle" x="263.94" y="-294.24" font-family="Times,serif" font-size="14.00">Deterministic</text>
</g>
<!-- predictors_tau&#45;&gt;predictors -->
<g id="edge1" class="edge">
<title>predictors_tau&#45;&gt;predictors</title>
<path fill="none" stroke="black" d="M113.36,-404.49C142.04,-387.79 178.73,-366.42 208.71,-348.96"/>
<polygon fill="black" stroke="black" points="210.41,-352.02 217.29,-343.96 206.89,-345.97 210.41,-352.02"/>
</g>
<!-- sigma -->
<g id="node2" class="node">
<title>sigma</title>
<ellipse fill="none" stroke="black" cx="475.94" cy="-198.48" rx="58.51" ry="40.66"/>
<text xml:space="preserve" text-anchor="middle" x="475.94" y="-209.93" font-family="Times,serif" font-size="14.00">sigma</text>
<text xml:space="preserve" text-anchor="middle" x="475.94" y="-193.43" font-family="Times,serif" font-size="14.00">~</text>
<text xml:space="preserve" text-anchor="middle" x="475.94" y="-176.93" font-family="Times,serif" font-size="14.00">Halfstudentt</text>
</g>
<!-- y -->
<g id="node7" class="node">
<title>y</title>
<ellipse fill="lightgrey" stroke="black" cx="355.94" cy="-81.16" rx="41.01" ry="40.66"/>
<text xml:space="preserve" text-anchor="middle" x="355.94" y="-92.61" font-family="Times,serif" font-size="14.00">y</text>
<text xml:space="preserve" text-anchor="middle" x="355.94" y="-76.11" font-family="Times,serif" font-size="14.00">~</text>
<text xml:space="preserve" text-anchor="middle" x="355.94" y="-59.61" font-family="Times,serif" font-size="14.00">Normal</text>
</g>
<!-- sigma&#45;&gt;y -->
<g id="edge6" class="edge">
<title>sigma&#45;&gt;y</title>
<path fill="none" stroke="black" d="M442.19,-165.05C426.84,-150.3 408.64,-132.8 392.92,-117.7"/>
<polygon fill="black" stroke="black" points="395.68,-115.5 386.05,-111.09 390.83,-120.55 395.68,-115.5"/>
</g>
<!-- Intercept -->
<g id="node3" class="node">
<title>Intercept</title>
<ellipse fill="none" stroke="black" cx="504.94" cy="-315.79" rx="45.25" ry="40.66"/>
<text xml:space="preserve" text-anchor="middle" x="504.94" y="-327.24" font-family="Times,serif" font-size="14.00">Intercept</text>
<text xml:space="preserve" text-anchor="middle" x="504.94" y="-310.74" font-family="Times,serif" font-size="14.00">~</text>
<text xml:space="preserve" text-anchor="middle" x="504.94" y="-294.24" font-family="Times,serif" font-size="14.00">Normal</text>
</g>
<!-- mu -->
<g id="node8" class="node">
<title>mu</title>
<polygon fill="none" stroke="black" points="399.06,-227.23 308.81,-227.23 308.81,-169.73 399.06,-169.73 399.06,-227.23"/>
<text xml:space="preserve" text-anchor="middle" x="353.94" y="-209.93" font-family="Times,serif" font-size="14.00">mu</text>
<text xml:space="preserve" text-anchor="middle" x="353.94" y="-193.43" font-family="Times,serif" font-size="14.00">~</text>
<text xml:space="preserve" text-anchor="middle" x="353.94" y="-176.93" font-family="Times,serif" font-size="14.00">Deterministic</text>
</g>
<!-- Intercept&#45;&gt;mu -->
<g id="edge4" class="edge">
<title>Intercept&#45;&gt;mu</title>
<path fill="none" stroke="black" d="M482.49,-280.28C474.99,-270.87 465.96,-261.39 455.94,-254.54 437.44,-241.9 427.89,-249.32 407.94,-239.13 404.73,-237.49 401.5,-235.67 398.31,-233.73"/>
<polygon fill="black" stroke="black" points="400.47,-230.96 390.17,-228.46 396.66,-236.83 400.47,-230.96"/>
</g>
<!-- predictors_raw -->
<g id="node4" class="node">
<title>predictors_raw</title>
<ellipse fill="none" stroke="black" cx="218.94" cy="-433.11" rx="68.59" ry="40.66"/>
<text xml:space="preserve" text-anchor="middle" x="218.94" y="-444.56" font-family="Times,serif" font-size="14.00">predictors_raw</text>
<text xml:space="preserve" text-anchor="middle" x="218.94" y="-428.06" font-family="Times,serif" font-size="14.00">~</text>
<text xml:space="preserve" text-anchor="middle" x="218.94" y="-411.56" font-family="Times,serif" font-size="14.00">Normal</text>
</g>
<!-- predictors_raw&#45;&gt;predictors -->
<g id="edge2" class="edge">
<title>predictors_raw&#45;&gt;predictors</title>
<path fill="none" stroke="black" d="M234.17,-393.07C238.9,-380.96 244.1,-367.63 248.82,-355.54"/>
<polygon fill="black" stroke="black" points="252.06,-356.86 252.43,-346.27 245.54,-354.32 252.06,-356.86"/>
</g>
<!-- predictors_lam -->
<g id="node5" class="node">
<title>predictors_lam</title>
<ellipse fill="none" stroke="black" cx="374.94" cy="-433.11" rx="69.12" ry="40.66"/>
<text xml:space="preserve" text-anchor="middle" x="374.94" y="-444.56" font-family="Times,serif" font-size="14.00">predictors_lam</text>
<text xml:space="preserve" text-anchor="middle" x="374.94" y="-428.06" font-family="Times,serif" font-size="14.00">~</text>
<text xml:space="preserve" text-anchor="middle" x="374.94" y="-411.56" font-family="Times,serif" font-size="14.00">Halfstudentt</text>
</g>
<!-- predictors_lam&#45;&gt;predictors -->
<g id="edge3" class="edge">
<title>predictors_lam&#45;&gt;predictors</title>
<path fill="none" stroke="black" d="M341.33,-397.2C327.89,-383.23 312.41,-367.15 298.84,-353.05"/>
<polygon fill="black" stroke="black" points="301.61,-350.88 292.15,-346.1 296.57,-355.74 301.61,-350.88"/>
</g>
<!-- predictors&#45;&gt;mu -->
<g id="edge5" class="edge">
<title>predictors&#45;&gt;mu</title>
<path fill="none" stroke="black" d="M285.95,-286.58C297.81,-271.39 312.57,-252.48 325.31,-236.15"/>
<polygon fill="black" stroke="black" points="327.82,-238.62 331.22,-228.59 322.31,-234.32 327.82,-238.62"/>
</g>
<!-- mu&#45;&gt;y -->
<g id="edge7" class="edge">
<title>mu&#45;&gt;y</title>
<path fill="none" stroke="black" d="M354.43,-169.27C354.61,-158.44 354.84,-145.73 355.05,-133.41"/>
<polygon fill="black" stroke="black" points="358.54,-133.84 355.22,-123.78 351.54,-133.72 358.54,-133.84"/>
</g>
</g>
</svg>
