<?xml version="1.0" encoding="UTF-8" standalone="no"?>
<!DOCTYPE svg PUBLIC "-//W3C//DTD SVG 1.1//EN"
 "http://www.w3.org/Graphics/SVG/1.1/DTD/svg11.dtd">
<!-- Generated by graphviz version 2.43.0 (0)
 -->
<!-- Title: %3 Pages: 1 -->
<svg width="698pt" height="471pt"
 viewBox="0.00 0.00 697.54 470.81" xmlns="http://www.w3.org/2000/svg" xmlns:xlink="http://www.w3.org/1999/xlink">
<g id="graph0" class="graph" transform="scale(1 1) rotate(0) translate(4 466.81)">
<title>%3</title>
<polygon fill="white" stroke="transparent" points="-4,4 -4,-466.81 693.54,-466.81 693.54,4 -4,4"/>
<g id="clust1" class="cluster">
<title>clusterpredictors_dim (50)</title>
<path fill="none" stroke="black" d="M137.69,-240.88C137.69,-240.88 497.69,-240.88 497.69,-240.88 503.69,-240.88 509.69,-246.88 509.69,-252.88 509.69,-252.88 509.69,-442.81 509.69,-442.81 509.69,-448.81 503.69,-454.81 497.69,-454.81 497.69,-454.81 137.69,-454.81 137.69,-454.81 131.69,-454.81 125.69,-448.81 125.69,-442.81 125.69,-442.81 125.69,-252.88 125.69,-252.88 125.69,-246.88 131.69,-240.88 137.69,-240.88"/>
<text text-anchor="middle" x="431.19" y="-248.68" font-family="Times,serif" font-size="14.00">predictors_dim (50)</text>
</g>
<g id="clust2" class="cluster">
<title>cluster__obs__ (100)</title>
<path fill="none" stroke="black" d="M79.69,-8C79.69,-8 185.69,-8 185.69,-8 191.69,-8 197.69,-14 197.69,-20 197.69,-20 197.69,-209.93 197.69,-209.93 197.69,-215.93 191.69,-221.93 185.69,-221.93 185.69,-221.93 79.69,-221.93 79.69,-221.93 73.69,-221.93 67.69,-215.93 67.69,-209.93 67.69,-209.93 67.69,-20 67.69,-20 67.69,-14 73.69,-8 79.69,-8"/>
<text text-anchor="middle" x="142.69" y="-15.8" font-family="Times,serif" font-size="14.00">__obs__ (100)</text>
</g>
<!-- Intercept -->
<g id="node1" class="node">
<title>Intercept</title>
<ellipse fill="none" stroke="black" cx="58.69" cy="-298.38" rx="58.88" ry="37.45"/>
<text text-anchor="middle" x="58.69" y="-309.68" font-family="Times,serif" font-size="14.00">Intercept</text>
<text text-anchor="middle" x="58.69" y="-294.68" font-family="Times,serif" font-size="14.00">~</text>
<text text-anchor="middle" x="58.69" y="-279.68" font-family="Times,serif" font-size="14.00">Normal</text>
</g>
<!-- mu -->
<g id="node8" class="node">
<title>mu</title>
<polygon fill="none" stroke="black" points="189.69,-213.93 75.69,-213.93 75.69,-160.93 189.69,-160.93 189.69,-213.93"/>
<text text-anchor="middle" x="132.69" y="-198.73" font-family="Times,serif" font-size="14.00">mu</text>
<text text-anchor="middle" x="132.69" y="-183.73" font-family="Times,serif" font-size="14.00">~</text>
<text text-anchor="middle" x="132.69" y="-168.73" font-family="Times,serif" font-size="14.00">Deterministic</text>
</g>
<!-- Intercept&#45;&gt;mu -->
<g id="edge4" class="edge">
<title>Intercept&#45;&gt;mu</title>
<path fill="none" stroke="black" d="M81.5,-263.8C90.41,-250.67 100.63,-235.63 109.58,-222.46"/>
<polygon fill="black" stroke="black" points="112.52,-224.35 115.25,-214.11 106.73,-220.42 112.52,-224.35"/>
</g>
<!-- predictors_tau -->
<g id="node2" class="node">
<title>predictors_tau</title>
<ellipse fill="none" stroke="black" cx="604.69" cy="-409.34" rx="84.71" ry="37.45"/>
<text text-anchor="middle" x="604.69" y="-420.64" font-family="Times,serif" font-size="14.00">predictors_tau</text>
<text text-anchor="middle" x="604.69" y="-405.64" font-family="Times,serif" font-size="14.00">~</text>
<text text-anchor="middle" x="604.69" y="-390.64" font-family="Times,serif" font-size="14.00">Halfstudentt</text>
</g>
<!-- predictors -->
<g id="node6" class="node">
<title>predictors</title>
<polygon fill="none" stroke="black" points="373.69,-324.88 259.69,-324.88 259.69,-271.88 373.69,-271.88 373.69,-324.88"/>
<text text-anchor="middle" x="316.69" y="-309.68" font-family="Times,serif" font-size="14.00">predictors</text>
<text text-anchor="middle" x="316.69" y="-294.68" font-family="Times,serif" font-size="14.00">~</text>
<text text-anchor="middle" x="316.69" y="-279.68" font-family="Times,serif" font-size="14.00">Deterministic</text>
</g>
<!-- predictors_tau&#45;&gt;predictors -->
<g id="edge3" class="edge">
<title>predictors_tau&#45;&gt;predictors</title>
<path fill="none" stroke="black" d="M543.11,-383.37C533.29,-379.47 523.22,-375.52 513.69,-371.86 470.41,-355.23 421.5,-337.23 383.24,-323.33"/>
<polygon fill="black" stroke="black" points="384.34,-320.01 373.75,-319.89 381.96,-326.59 384.34,-320.01"/>
</g>
<!-- sigma -->
<g id="node3" class="node">
<title>sigma</title>
<ellipse fill="none" stroke="black" cx="283.69" cy="-187.43" rx="75.82" ry="37.45"/>
<text text-anchor="middle" x="283.69" y="-198.73" font-family="Times,serif" font-size="14.00">sigma</text>
<text text-anchor="middle" x="283.69" y="-183.73" font-family="Times,serif" font-size="14.00">~</text>
<text text-anchor="middle" x="283.69" y="-168.73" font-family="Times,serif" font-size="14.00">Halfstudentt</text>
</g>
<!-- y -->
<g id="node7" class="node">
<title>y</title>
<ellipse fill="lightgrey" stroke="black" cx="136.69" cy="-76.48" rx="49.49" ry="37.45"/>
<text text-anchor="middle" x="136.69" y="-87.78" font-family="Times,serif" font-size="14.00">y</text>
<text text-anchor="middle" x="136.69" y="-72.78" font-family="Times,serif" font-size="14.00">~</text>
<text text-anchor="middle" x="136.69" y="-57.78" font-family="Times,serif" font-size="14.00">Normal</text>
</g>
<!-- sigma&#45;&gt;y -->
<g id="edge6" class="edge">
<title>sigma&#45;&gt;y</title>
<path fill="none" stroke="black" d="M242.35,-155.79C222.88,-141.36 199.67,-124.15 179.96,-109.55"/>
<polygon fill="black" stroke="black" points="181.87,-106.61 171.75,-103.46 177.7,-112.23 181.87,-106.61"/>
</g>
<!-- predictors_raw -->
<g id="node4" class="node">
<title>predictors_raw</title>
<ellipse fill="none" stroke="black" cx="413.69" cy="-409.34" rx="87.86" ry="37.45"/>
<text text-anchor="middle" x="413.69" y="-420.64" font-family="Times,serif" font-size="14.00">predictors_raw</text>
<text text-anchor="middle" x="413.69" y="-405.64" font-family="Times,serif" font-size="14.00">~</text>
<text text-anchor="middle" x="413.69" y="-390.64" font-family="Times,serif" font-size="14.00">Normal</text>
</g>
<!-- predictors_raw&#45;&gt;predictors -->
<g id="edge1" class="edge">
<title>predictors_raw&#45;&gt;predictors</title>
<path fill="none" stroke="black" d="M383.26,-374.16C371.47,-360.91 358.01,-345.79 346.29,-332.63"/>
<polygon fill="black" stroke="black" points="348.88,-330.28 339.62,-325.14 343.65,-334.93 348.88,-330.28"/>
</g>
<!-- predictors_lam -->
<g id="node5" class="node">
<title>predictors_lam</title>
<ellipse fill="none" stroke="black" cx="220.69" cy="-409.34" rx="86.95" ry="37.45"/>
<text text-anchor="middle" x="220.69" y="-420.64" font-family="Times,serif" font-size="14.00">predictors_lam</text>
<text text-anchor="middle" x="220.69" y="-405.64" font-family="Times,serif" font-size="14.00">~</text>
<text text-anchor="middle" x="220.69" y="-390.64" font-family="Times,serif" font-size="14.00">Halfstudentt</text>
</g>
<!-- predictors_lam&#45;&gt;predictors -->
<g id="edge2" class="edge">
<title>predictors_lam&#45;&gt;predictors</title>
<path fill="none" stroke="black" d="M250.8,-374.16C262.37,-361.04 275.55,-346.07 287.07,-333"/>
<polygon fill="black" stroke="black" points="290.01,-334.95 294,-325.14 284.76,-330.32 290.01,-334.95"/>
</g>
<!-- predictors&#45;&gt;mu -->
<g id="edge5" class="edge">
<title>predictors&#45;&gt;mu</title>
<path fill="none" stroke="black" d="M273.55,-271.84C247,-256.12 212.8,-235.87 184.75,-219.26"/>
<polygon fill="black" stroke="black" points="186.27,-216.09 175.88,-214 182.7,-222.11 186.27,-216.09"/>
</g>
<!-- mu&#45;&gt;y -->
<g id="edge7" class="edge">
<title>mu&#45;&gt;y</title>
<path fill="none" stroke="black" d="M133.63,-160.89C134.03,-149.98 134.51,-136.89 134.97,-124.35"/>
<polygon fill="black" stroke="black" points="138.48,-124.12 135.35,-114 131.48,-123.87 138.48,-124.12"/>
</g>
</g>
</svg>
