<?xml version="1.0" encoding="UTF-8" standalone="no"?>
<!DOCTYPE svg PUBLIC "-//W3C//DTD SVG 1.1//EN"
 "http://www.w3.org/Graphics/SVG/1.1/DTD/svg11.dtd">
<!-- Generated by graphviz version 8.0.5 (0)
 -->
<!-- Pages: 1 -->
<svg width="806pt" height="393pt"
 viewBox="0.00 0.00 806.39 392.95" xmlns="http://www.w3.org/2000/svg" xmlns:xlink="http://www.w3.org/1999/xlink">
<g id="graph0" class="graph" transform="scale(1 1) rotate(0) translate(4 388.95)">
<polygon fill="white" stroke="none" points="-4,4 -4,-388.95 802.39,-388.95 802.39,4 -4,4"/>
<g id="clust1" class="cluster">
<title>clustersmoking_status_dim (3)</title>
<path fill="none" stroke="black" d="M644.39,-137.82C644.39,-137.82 778.39,-137.82 778.39,-137.82 784.39,-137.82 790.39,-143.82 790.39,-149.82 790.39,-149.82 790.39,-247.63 790.39,-247.63 790.39,-253.63 784.39,-259.63 778.39,-259.63 778.39,-259.63 644.39,-259.63 644.39,-259.63 638.39,-259.63 632.39,-253.63 632.39,-247.63 632.39,-247.63 632.39,-149.82 632.39,-149.82 632.39,-143.82 638.39,-137.82 644.39,-137.82"/>
<text text-anchor="middle" x="716.02" y="-145.02" font-family="Times,serif" font-size="14.00">smoking_status_dim (3)</text>
</g>
<g id="clust2" class="cluster">
<title>clusterpatient__factor_dim (176)</title>
<path fill="none" stroke="black" d="M204.39,-149.73C204.39,-149.73 376.39,-149.73 376.39,-149.73 382.39,-149.73 388.39,-155.73 388.39,-161.73 388.39,-161.73 388.39,-364.95 388.39,-364.95 388.39,-370.95 382.39,-376.95 376.39,-376.95 376.39,-376.95 204.39,-376.95 204.39,-376.95 198.39,-376.95 192.39,-370.95 192.39,-364.95 192.39,-364.95 192.39,-161.73 192.39,-161.73 192.39,-155.73 198.39,-149.73 204.39,-149.73"/>
<text text-anchor="middle" x="308.77" y="-156.93" font-family="Times,serif" font-size="14.00">patient__factor_dim (176)</text>
</g>
<g id="clust3" class="cluster">
<title>clusterfvc_obs (1549)</title>
<path fill="none" stroke="black" d="M483.39,-8C483.39,-8 557.39,-8 557.39,-8 563.39,-8 569.39,-14 569.39,-20 569.39,-20 569.39,-117.82 569.39,-117.82 569.39,-123.82 563.39,-129.82 557.39,-129.82 557.39,-129.82 483.39,-129.82 483.39,-129.82 477.39,-129.82 471.39,-123.82 471.39,-117.82 471.39,-117.82 471.39,-20 471.39,-20 471.39,-14 477.39,-8 483.39,-8"/>
<text text-anchor="middle" x="520.14" y="-15.2" font-family="Times,serif" font-size="14.00">fvc_obs (1549)</text>
</g>
<!-- weeks|patient_sigma -->
<g id="node1" class="node">
<title>weeks|patient_sigma</title>
<ellipse fill="none" stroke="black" cx="91.39" cy="-328.29" rx="91.39" ry="40.66"/>
<text text-anchor="middle" x="91.39" y="-339.74" font-family="Times,serif" font-size="14.00">weeks|patient_sigma</text>
<text text-anchor="middle" x="91.39" y="-323.24" font-family="Times,serif" font-size="14.00">~</text>
<text text-anchor="middle" x="91.39" y="-306.74" font-family="Times,serif" font-size="14.00">Gamma</text>
</g>
<!-- weeks|patient -->
<g id="node6" class="node">
<title>weeks|patient</title>
<polygon fill="none" stroke="black" points="335.52,-239.73 245.27,-239.73 245.27,-182.23 335.52,-182.23 335.52,-239.73"/>
<text text-anchor="middle" x="290.39" y="-222.43" font-family="Times,serif" font-size="14.00">weeks|patient</text>
<text text-anchor="middle" x="290.39" y="-205.93" font-family="Times,serif" font-size="14.00">~</text>
<text text-anchor="middle" x="290.39" y="-189.43" font-family="Times,serif" font-size="14.00">Deterministic</text>
</g>
<!-- weeks|patient_sigma&#45;&gt;weeks|patient -->
<g id="edge2" class="edge">
<title>weeks|patient_sigma&#45;&gt;weeks|patient</title>
<path fill="none" stroke="black" d="M146.3,-295.48C174.21,-279.31 208.01,-259.71 235.87,-243.57"/>
<polygon fill="black" stroke="black" points="237.17,-246.28 244.07,-238.24 233.66,-240.23 237.17,-246.28"/>
</g>
<!-- fvc_sigma -->
<g id="node2" class="node">
<title>fvc_sigma</title>
<ellipse fill="none" stroke="black" cx="459.39" cy="-210.98" rx="63.29" ry="40.66"/>
<text text-anchor="middle" x="459.39" y="-222.43" font-family="Times,serif" font-size="14.00">fvc_sigma</text>
<text text-anchor="middle" x="459.39" y="-205.93" font-family="Times,serif" font-size="14.00">~</text>
<text text-anchor="middle" x="459.39" y="-189.43" font-family="Times,serif" font-size="14.00">HalfStudentT</text>
</g>
<!-- fvc -->
<g id="node7" class="node">
<title>fvc</title>
<ellipse fill="lightgrey" stroke="black" cx="520.39" cy="-81.16" rx="41.01" ry="40.66"/>
<text text-anchor="middle" x="520.39" y="-92.61" font-family="Times,serif" font-size="14.00">fvc</text>
<text text-anchor="middle" x="520.39" y="-76.11" font-family="Times,serif" font-size="14.00">~</text>
<text text-anchor="middle" x="520.39" y="-59.61" font-family="Times,serif" font-size="14.00">Normal</text>
</g>
<!-- fvc_sigma&#45;&gt;fvc -->
<g id="edge4" class="edge">
<title>fvc_sigma&#45;&gt;fvc</title>
<path fill="none" stroke="black" d="M477.7,-171.63C484.25,-157.88 491.71,-142.26 498.54,-127.95"/>
<polygon fill="black" stroke="black" points="502,-129.82 503.15,-119.29 495.68,-126.81 502,-129.82"/>
</g>
<!-- weeks -->
<g id="node3" class="node">
<title>weeks</title>
<ellipse fill="none" stroke="black" cx="581.39" cy="-210.98" rx="41.01" ry="40.66"/>
<text text-anchor="middle" x="581.39" y="-222.43" font-family="Times,serif" font-size="14.00">weeks</text>
<text text-anchor="middle" x="581.39" y="-205.93" font-family="Times,serif" font-size="14.00">~</text>
<text text-anchor="middle" x="581.39" y="-189.43" font-family="Times,serif" font-size="14.00">Normal</text>
</g>
<!-- weeks&#45;&gt;fvc -->
<g id="edge5" class="edge">
<title>weeks&#45;&gt;fvc</title>
<path fill="none" stroke="black" d="M564.08,-173.69C557.32,-159.52 549.48,-143.11 542.34,-128.13"/>
<polygon fill="black" stroke="black" points="545.22,-127.05 537.75,-119.53 538.9,-130.07 545.22,-127.05"/>
</g>
<!-- smoking_status -->
<g id="node4" class="node">
<title>smoking_status</title>
<ellipse fill="none" stroke="black" cx="711.39" cy="-210.98" rx="71.24" ry="40.66"/>
<text text-anchor="middle" x="711.39" y="-222.43" font-family="Times,serif" font-size="14.00">smoking_status</text>
<text text-anchor="middle" x="711.39" y="-205.93" font-family="Times,serif" font-size="14.00">~</text>
<text text-anchor="middle" x="711.39" y="-189.43" font-family="Times,serif" font-size="14.00">Normal</text>
</g>
<!-- smoking_status&#45;&gt;fvc -->
<g id="edge3" class="edge">
<title>smoking_status&#45;&gt;fvc</title>
<path fill="none" stroke="black" d="M676.87,-175.11C663.36,-162.49 647.3,-148.68 631.39,-137.82 611.67,-124.35 588.23,-112.11 567.99,-102.56"/>
<polygon fill="black" stroke="black" points="569.58,-98.98 559.03,-97.96 566.64,-105.34 569.58,-98.98"/>
</g>
<!-- weeks|patient_offset -->
<g id="node5" class="node">
<title>weeks|patient_offset</title>
<ellipse fill="none" stroke="black" cx="290.39" cy="-328.29" rx="89.8" ry="40.66"/>
<text text-anchor="middle" x="290.39" y="-339.74" font-family="Times,serif" font-size="14.00">weeks|patient_offset</text>
<text text-anchor="middle" x="290.39" y="-323.24" font-family="Times,serif" font-size="14.00">~</text>
<text text-anchor="middle" x="290.39" y="-306.74" font-family="Times,serif" font-size="14.00">Normal</text>
</g>
<!-- weeks|patient_offset&#45;&gt;weeks|patient -->
<g id="edge1" class="edge">
<title>weeks|patient_offset&#45;&gt;weeks|patient</title>
<path fill="none" stroke="black" d="M290.39,-287.28C290.39,-275.45 290.39,-262.52 290.39,-250.77"/>
<polygon fill="black" stroke="black" points="293.89,-250.94 290.39,-240.94 286.89,-250.94 293.89,-250.94"/>
</g>
<!-- weeks|patient&#45;&gt;fvc -->
<g id="edge6" class="edge">
<title>weeks|patient&#45;&gt;fvc</title>
<path fill="none" stroke="black" d="M324.01,-181.78C342.07,-167.48 365.15,-150.5 387.39,-137.82 414.06,-122.62 445.69,-109.22 471.41,-99.37"/>
<polygon fill="black" stroke="black" points="472.55,-102.3 480.68,-95.51 470.09,-95.75 472.55,-102.3"/>
</g>
</g>
</svg>
