<?xml version="1.0" encoding="UTF-8" standalone="no"?>
<!DOCTYPE svg PUBLIC "-//W3C//DTD SVG 1.1//EN"
 "http://www.w3.org/Graphics/SVG/1.1/DTD/svg11.dtd">
<!-- Generated by graphviz version 2.50.0 (0)
 -->
<!-- Pages: 1 -->
<svg width="821pt" height="474pt"
 viewBox="0.00 0.00 821.38 473.81" xmlns="http://www.w3.org/2000/svg" xmlns:xlink="http://www.w3.org/1999/xlink">
<g id="graph0" class="graph" transform="scale(1 1) rotate(0) translate(4 469.81)">
<polygon fill="white" stroke="transparent" points="-4,4 -4,-469.81 817.38,-469.81 817.38,4 -4,4"/>
<g id="clust1" class="cluster">
<title>clustersmoking_status_dim (3)</title>
<path fill="none" stroke="black" d="M619.38,-232.91C619.38,-232.91 793.38,-232.91 793.38,-232.91 799.38,-232.91 805.38,-238.91 805.38,-244.91 805.38,-244.91 805.38,-334.86 805.38,-334.86 805.38,-340.86 799.38,-346.86 793.38,-346.86 793.38,-346.86 619.38,-346.86 619.38,-346.86 613.38,-346.86 607.38,-340.86 607.38,-334.86 607.38,-334.86 607.38,-244.91 607.38,-244.91 607.38,-238.91 613.38,-232.91 619.38,-232.91"/>
<text text-anchor="middle" x="712.88" y="-240.71" font-family="Times,serif" font-size="14.00">smoking_status_dim (3)</text>
</g>
<g id="clust2" class="cluster">
<title>clusterpatient__factor_dim (176)</title>
<path fill="none" stroke="black" d="M257.38,-243.88C257.38,-243.88 479.38,-243.88 479.38,-243.88 485.38,-243.88 491.38,-249.88 491.38,-255.88 491.38,-255.88 491.38,-445.81 491.38,-445.81 491.38,-451.81 485.38,-457.81 479.38,-457.81 479.38,-457.81 257.38,-457.81 257.38,-457.81 251.38,-457.81 245.38,-451.81 245.38,-445.81 245.38,-445.81 245.38,-255.88 245.38,-255.88 245.38,-249.88 251.38,-243.88 257.38,-243.88"/>
<text text-anchor="middle" x="391.88" y="-251.68" font-family="Times,serif" font-size="14.00">patient__factor_dim (176)</text>
</g>
<g id="clust3" class="cluster">
<title>cluster__obs__ (1549)</title>
<path fill="none" stroke="black" d="M495.38,-8C495.38,-8 601.38,-8 601.38,-8 607.38,-8 613.38,-14 613.38,-20 613.38,-20 613.38,-209.93 613.38,-209.93 613.38,-215.93 607.38,-221.93 601.38,-221.93 601.38,-221.93 495.38,-221.93 495.38,-221.93 489.38,-221.93 483.38,-215.93 483.38,-209.93 483.38,-209.93 483.38,-20 483.38,-20 483.38,-14 489.38,-8 495.38,-8"/>
<text text-anchor="middle" x="553.88" y="-15.8" font-family="Times,serif" font-size="14.00">__obs__ (1549)</text>
</g>
<!-- weeks|patient_sigma -->
<g id="node1" class="node">
<title>weeks|patient_sigma</title>
<ellipse fill="none" stroke="black" cx="117.38" cy="-412.34" rx="117.26" ry="37.45"/>
<text text-anchor="middle" x="117.38" y="-423.64" font-family="Times,serif" font-size="14.00">weeks|patient_sigma</text>
<text text-anchor="middle" x="117.38" y="-408.64" font-family="Times,serif" font-size="14.00">~</text>
<text text-anchor="middle" x="117.38" y="-393.64" font-family="Times,serif" font-size="14.00">Gamma</text>
</g>
<!-- weeks|patient -->
<g id="node6" class="node">
<title>weeks|patient</title>
<polygon fill="none" stroke="black" points="426.38,-327.88 310.38,-327.88 310.38,-274.88 426.38,-274.88 426.38,-327.88"/>
<text text-anchor="middle" x="368.38" y="-312.68" font-family="Times,serif" font-size="14.00">weeks|patient</text>
<text text-anchor="middle" x="368.38" y="-297.68" font-family="Times,serif" font-size="14.00">~</text>
<text text-anchor="middle" x="368.38" y="-282.68" font-family="Times,serif" font-size="14.00">Deterministic</text>
</g>
<!-- weeks|patient_sigma&#45;&gt;weeks|patient -->
<g id="edge2" class="edge">
<title>weeks|patient_sigma&#45;&gt;weeks|patient</title>
<path fill="none" stroke="black" d="M185.64,-381.71C221.48,-366.15 265.26,-347.15 300.98,-331.64"/>
<polygon fill="black" stroke="black" points="302.57,-334.77 310.35,-327.57 299.78,-328.34 302.57,-334.77"/>
</g>
<!-- sigma -->
<g id="node2" class="node">
<title>sigma</title>
<ellipse fill="none" stroke="black" cx="703.38" cy="-187.43" rx="79.81" ry="37.45"/>
<text text-anchor="middle" x="703.38" y="-198.73" font-family="Times,serif" font-size="14.00">sigma</text>
<text text-anchor="middle" x="703.38" y="-183.73" font-family="Times,serif" font-size="14.00">~</text>
<text text-anchor="middle" x="703.38" y="-168.73" font-family="Times,serif" font-size="14.00">HalfStudentT</text>
</g>
<!-- fvc -->
<g id="node8" class="node">
<title>fvc</title>
<ellipse fill="lightgrey" stroke="black" cx="552.38" cy="-76.48" rx="49.49" ry="37.45"/>
<text text-anchor="middle" x="552.38" y="-87.78" font-family="Times,serif" font-size="14.00">fvc</text>
<text text-anchor="middle" x="552.38" y="-72.78" font-family="Times,serif" font-size="14.00">~</text>
<text text-anchor="middle" x="552.38" y="-57.78" font-family="Times,serif" font-size="14.00">Normal</text>
</g>
<!-- sigma&#45;&gt;fvc -->
<g id="edge7" class="edge">
<title>sigma&#45;&gt;fvc</title>
<path fill="none" stroke="black" d="M660.51,-155.5C640.28,-140.9 616.18,-123.51 595.87,-108.86"/>
<polygon fill="black" stroke="black" points="597.87,-105.98 587.71,-102.97 593.77,-111.66 597.87,-105.98"/>
</g>
<!-- weeks -->
<g id="node3" class="node">
<title>weeks</title>
<ellipse fill="none" stroke="black" cx="548.38" cy="-301.38" rx="49.49" ry="37.45"/>
<text text-anchor="middle" x="548.38" y="-312.68" font-family="Times,serif" font-size="14.00">weeks</text>
<text text-anchor="middle" x="548.38" y="-297.68" font-family="Times,serif" font-size="14.00">~</text>
<text text-anchor="middle" x="548.38" y="-282.68" font-family="Times,serif" font-size="14.00">Normal</text>
</g>
<!-- mu -->
<g id="node7" class="node">
<title>mu</title>
<polygon fill="none" stroke="black" points="605.38,-213.93 491.38,-213.93 491.38,-160.93 605.38,-160.93 605.38,-213.93"/>
<text text-anchor="middle" x="548.38" y="-198.73" font-family="Times,serif" font-size="14.00">mu</text>
<text text-anchor="middle" x="548.38" y="-183.73" font-family="Times,serif" font-size="14.00">~</text>
<text text-anchor="middle" x="548.38" y="-168.73" font-family="Times,serif" font-size="14.00">Deterministic</text>
</g>
<!-- weeks&#45;&gt;mu -->
<g id="edge5" class="edge">
<title>weeks&#45;&gt;mu</title>
<path fill="none" stroke="black" d="M548.38,-263.73C548.38,-251.07 548.38,-236.92 548.38,-224.32"/>
<polygon fill="black" stroke="black" points="551.88,-224.18 548.38,-214.18 544.88,-224.18 551.88,-224.18"/>
</g>
<!-- smoking_status -->
<g id="node4" class="node">
<title>smoking_status</title>
<ellipse fill="none" stroke="black" cx="706.38" cy="-301.38" rx="90.52" ry="37.45"/>
<text text-anchor="middle" x="706.38" y="-312.68" font-family="Times,serif" font-size="14.00">smoking_status</text>
<text text-anchor="middle" x="706.38" y="-297.68" font-family="Times,serif" font-size="14.00">~</text>
<text text-anchor="middle" x="706.38" y="-282.68" font-family="Times,serif" font-size="14.00">Normal</text>
</g>
<!-- smoking_status&#45;&gt;mu -->
<g id="edge4" class="edge">
<title>smoking_status&#45;&gt;mu</title>
<path fill="none" stroke="black" d="M661.53,-268.6C640.02,-253.36 614.34,-235.16 592.88,-219.96"/>
<polygon fill="black" stroke="black" points="594.76,-217 584.58,-214.08 590.71,-222.71 594.76,-217"/>
</g>
<!-- weeks|patient_offset -->
<g id="node5" class="node">
<title>weeks|patient_offset</title>
<ellipse fill="none" stroke="black" cx="368.38" cy="-412.34" rx="115.02" ry="37.45"/>
<text text-anchor="middle" x="368.38" y="-423.64" font-family="Times,serif" font-size="14.00">weeks|patient_offset</text>
<text text-anchor="middle" x="368.38" y="-408.64" font-family="Times,serif" font-size="14.00">~</text>
<text text-anchor="middle" x="368.38" y="-393.64" font-family="Times,serif" font-size="14.00">Normal</text>
</g>
<!-- weeks|patient_offset&#45;&gt;weeks|patient -->
<g id="edge1" class="edge">
<title>weeks|patient_offset&#45;&gt;weeks|patient</title>
<path fill="none" stroke="black" d="M368.38,-374.75C368.38,-363.02 368.38,-350.03 368.38,-338.34"/>
<polygon fill="black" stroke="black" points="371.88,-338.04 368.38,-328.04 364.88,-338.04 371.88,-338.04"/>
</g>
<!-- weeks|patient&#45;&gt;mu -->
<g id="edge3" class="edge">
<title>weeks|patient&#45;&gt;mu</title>
<path fill="none" stroke="black" d="M409.68,-274.7C436.09,-258.27 470.51,-236.86 498.45,-219.48"/>
<polygon fill="black" stroke="black" points="500.63,-222.25 507.28,-213.99 496.94,-216.3 500.63,-222.25"/>
</g>
<!-- mu&#45;&gt;fvc -->
<g id="edge6" class="edge">
<title>mu&#45;&gt;fvc</title>
<path fill="none" stroke="black" d="M549.32,-160.89C549.72,-149.98 550.2,-136.89 550.66,-124.35"/>
<polygon fill="black" stroke="black" points="554.17,-124.12 551.04,-114 547.17,-123.87 554.17,-124.12"/>
</g>
</g>
</svg>
