<?xml version="1.0" encoding="UTF-8" standalone="no"?>
<!DOCTYPE svg PUBLIC "-//W3C//DTD SVG 1.1//EN"
 "http://www.w3.org/Graphics/SVG/1.1/DTD/svg11.dtd">
<!-- Generated by graphviz version 2.43.0 (0)
 -->
<!-- Title: %3 Pages: 1 -->
<svg width="814pt" height="474pt"
 viewBox="0.00 0.00 813.88 473.81" xmlns="http://www.w3.org/2000/svg" xmlns:xlink="http://www.w3.org/1999/xlink">
<g id="graph0" class="graph" transform="scale(1 1) rotate(0) translate(4 469.81)">
<title>%3</title>
<polygon fill="white" stroke="transparent" points="-4,4 -4,-469.81 809.88,-469.81 809.88,4 -4,4"/>
<g id="clust1" class="cluster">
<title>clustersmoking_status_dim (3)</title>
<path fill="none" stroke="black" d="M120.5,-232.91C120.5,-232.91 294.5,-232.91 294.5,-232.91 300.5,-232.91 306.5,-238.91 306.5,-244.91 306.5,-244.91 306.5,-334.86 306.5,-334.86 306.5,-340.86 300.5,-346.86 294.5,-346.86 294.5,-346.86 120.5,-346.86 120.5,-346.86 114.5,-346.86 108.5,-340.86 108.5,-334.86 108.5,-334.86 108.5,-244.91 108.5,-244.91 108.5,-238.91 114.5,-232.91 120.5,-232.91"/>
<text text-anchor="middle" x="214" y="-240.71" font-family="Times,serif" font-size="14.00">smoking_status_dim (3)</text>
</g>
<g id="clust2" class="cluster">
<title>clusterpatient__factor_dim (176)</title>
<path fill="none" stroke="black" d="M326.5,-243.88C326.5,-243.88 548.5,-243.88 548.5,-243.88 554.5,-243.88 560.5,-249.88 560.5,-255.88 560.5,-255.88 560.5,-445.81 560.5,-445.81 560.5,-451.81 554.5,-457.81 548.5,-457.81 548.5,-457.81 326.5,-457.81 326.5,-457.81 320.5,-457.81 314.5,-451.81 314.5,-445.81 314.5,-445.81 314.5,-255.88 314.5,-255.88 314.5,-249.88 320.5,-243.88 326.5,-243.88"/>
<text text-anchor="middle" x="461" y="-251.68" font-family="Times,serif" font-size="14.00">patient__factor_dim (176)</text>
</g>
<g id="clust3" class="cluster">
<title>cluster__obs__ (1549)</title>
<path fill="none" stroke="black" d="M154.5,-8C154.5,-8 260.5,-8 260.5,-8 266.5,-8 272.5,-14 272.5,-20 272.5,-20 272.5,-209.93 272.5,-209.93 272.5,-215.93 266.5,-221.93 260.5,-221.93 260.5,-221.93 154.5,-221.93 154.5,-221.93 148.5,-221.93 142.5,-215.93 142.5,-209.93 142.5,-209.93 142.5,-20 142.5,-20 142.5,-14 148.5,-8 154.5,-8"/>
<text text-anchor="middle" x="213" y="-15.8" font-family="Times,serif" font-size="14.00">__obs__ (1549)</text>
</g>
<!-- weeks -->
<g id="node1" class="node">
<title>weeks</title>
<ellipse fill="none" stroke="black" cx="49.5" cy="-301.38" rx="49.49" ry="37.45"/>
<text text-anchor="middle" x="49.5" y="-312.68" font-family="Times,serif" font-size="14.00">weeks</text>
<text text-anchor="middle" x="49.5" y="-297.68" font-family="Times,serif" font-size="14.00">~</text>
<text text-anchor="middle" x="49.5" y="-282.68" font-family="Times,serif" font-size="14.00">Normal</text>
</g>
<!-- mu -->
<g id="node7" class="node">
<title>mu</title>
<polygon fill="none" stroke="black" points="264.5,-213.93 150.5,-213.93 150.5,-160.93 264.5,-160.93 264.5,-213.93"/>
<text text-anchor="middle" x="207.5" y="-198.73" font-family="Times,serif" font-size="14.00">mu</text>
<text text-anchor="middle" x="207.5" y="-183.73" font-family="Times,serif" font-size="14.00">~</text>
<text text-anchor="middle" x="207.5" y="-168.73" font-family="Times,serif" font-size="14.00">Deterministic</text>
</g>
<!-- weeks&#45;&gt;mu -->
<g id="edge3" class="edge">
<title>weeks&#45;&gt;mu</title>
<path fill="none" stroke="black" d="M71.12,-267.64C80.31,-255.55 91.84,-242.48 104.5,-232.91 115.5,-224.59 128.3,-217.47 141.05,-211.52"/>
<polygon fill="black" stroke="black" points="142.6,-214.67 150.31,-207.4 139.75,-208.27 142.6,-214.67"/>
</g>
<!-- sigma -->
<g id="node2" class="node">
<title>sigma</title>
<ellipse fill="none" stroke="black" cx="358.5" cy="-187.43" rx="75.82" ry="37.45"/>
<text text-anchor="middle" x="358.5" y="-198.73" font-family="Times,serif" font-size="14.00">sigma</text>
<text text-anchor="middle" x="358.5" y="-183.73" font-family="Times,serif" font-size="14.00">~</text>
<text text-anchor="middle" x="358.5" y="-168.73" font-family="Times,serif" font-size="14.00">Halfstudentt</text>
</g>
<!-- fvc -->
<g id="node8" class="node">
<title>fvc</title>
<ellipse fill="lightgrey" stroke="black" cx="211.5" cy="-76.48" rx="49.49" ry="37.45"/>
<text text-anchor="middle" x="211.5" y="-87.78" font-family="Times,serif" font-size="14.00">fvc</text>
<text text-anchor="middle" x="211.5" y="-72.78" font-family="Times,serif" font-size="14.00">~</text>
<text text-anchor="middle" x="211.5" y="-57.78" font-family="Times,serif" font-size="14.00">Normal</text>
</g>
<!-- sigma&#45;&gt;fvc -->
<g id="edge7" class="edge">
<title>sigma&#45;&gt;fvc</title>
<path fill="none" stroke="black" d="M317.16,-155.79C297.69,-141.36 274.47,-124.15 254.77,-109.55"/>
<polygon fill="black" stroke="black" points="256.68,-106.61 246.56,-103.46 252.51,-112.23 256.68,-106.61"/>
</g>
<!-- weeks|patient_sigma -->
<g id="node3" class="node">
<title>weeks|patient_sigma</title>
<ellipse fill="none" stroke="black" cx="688.5" cy="-412.34" rx="117.26" ry="37.45"/>
<text text-anchor="middle" x="688.5" y="-423.64" font-family="Times,serif" font-size="14.00">weeks|patient_sigma</text>
<text text-anchor="middle" x="688.5" y="-408.64" font-family="Times,serif" font-size="14.00">~</text>
<text text-anchor="middle" x="688.5" y="-393.64" font-family="Times,serif" font-size="14.00">Gamma</text>
</g>
<!-- weeks|patient -->
<g id="node5" class="node">
<title>weeks|patient</title>
<polygon fill="none" stroke="black" points="495.5,-327.88 379.5,-327.88 379.5,-274.88 495.5,-274.88 495.5,-327.88"/>
<text text-anchor="middle" x="437.5" y="-312.68" font-family="Times,serif" font-size="14.00">weeks|patient</text>
<text text-anchor="middle" x="437.5" y="-297.68" font-family="Times,serif" font-size="14.00">~</text>
<text text-anchor="middle" x="437.5" y="-282.68" font-family="Times,serif" font-size="14.00">Deterministic</text>
</g>
<!-- weeks|patient_sigma&#45;&gt;weeks|patient -->
<g id="edge2" class="edge">
<title>weeks|patient_sigma&#45;&gt;weeks|patient</title>
<path fill="none" stroke="black" d="M620.24,-381.71C584.4,-366.15 540.62,-347.15 504.9,-331.64"/>
<polygon fill="black" stroke="black" points="506.09,-328.34 495.53,-327.57 503.31,-334.77 506.09,-328.34"/>
</g>
<!-- smoking_status -->
<g id="node4" class="node">
<title>smoking_status</title>
<ellipse fill="none" stroke="black" cx="207.5" cy="-301.38" rx="90.52" ry="37.45"/>
<text text-anchor="middle" x="207.5" y="-312.68" font-family="Times,serif" font-size="14.00">smoking_status</text>
<text text-anchor="middle" x="207.5" y="-297.68" font-family="Times,serif" font-size="14.00">~</text>
<text text-anchor="middle" x="207.5" y="-282.68" font-family="Times,serif" font-size="14.00">Normal</text>
</g>
<!-- smoking_status&#45;&gt;mu -->
<g id="edge5" class="edge">
<title>smoking_status&#45;&gt;mu</title>
<path fill="none" stroke="black" d="M207.5,-263.73C207.5,-251.07 207.5,-236.92 207.5,-224.32"/>
<polygon fill="black" stroke="black" points="211,-224.18 207.5,-214.18 204,-224.18 211,-224.18"/>
</g>
<!-- weeks|patient&#45;&gt;mu -->
<g id="edge4" class="edge">
<title>weeks|patient&#45;&gt;mu</title>
<path fill="none" stroke="black" d="M396.51,-274.88C372.26,-260.75 340.51,-243.88 310.5,-232.91 294.7,-227.13 289.25,-230.82 273.5,-224.91 268.64,-223.09 263.71,-220.95 258.84,-218.65"/>
<polygon fill="black" stroke="black" points="260.1,-215.37 249.59,-214.05 256.98,-221.64 260.1,-215.37"/>
</g>
<!-- weeks|patient_offset -->
<g id="node6" class="node">
<title>weeks|patient_offset</title>
<ellipse fill="none" stroke="black" cx="437.5" cy="-412.34" rx="115.02" ry="37.45"/>
<text text-anchor="middle" x="437.5" y="-423.64" font-family="Times,serif" font-size="14.00">weeks|patient_offset</text>
<text text-anchor="middle" x="437.5" y="-408.64" font-family="Times,serif" font-size="14.00">~</text>
<text text-anchor="middle" x="437.5" y="-393.64" font-family="Times,serif" font-size="14.00">Normal</text>
</g>
<!-- weeks|patient_offset&#45;&gt;weeks|patient -->
<g id="edge1" class="edge">
<title>weeks|patient_offset&#45;&gt;weeks|patient</title>
<path fill="none" stroke="black" d="M437.5,-374.75C437.5,-363.02 437.5,-350.03 437.5,-338.34"/>
<polygon fill="black" stroke="black" points="441,-338.04 437.5,-328.04 434,-338.04 441,-338.04"/>
</g>
<!-- mu&#45;&gt;fvc -->
<g id="edge6" class="edge">
<title>mu&#45;&gt;fvc</title>
<path fill="none" stroke="black" d="M208.44,-160.89C208.84,-149.98 209.32,-136.89 209.78,-124.35"/>
<polygon fill="black" stroke="black" points="213.29,-124.12 210.16,-114 206.29,-123.87 213.29,-124.12"/>
</g>
</g>
</svg>
