<?xml version="1.0" encoding="UTF-8" standalone="no"?>
<!DOCTYPE svg PUBLIC "-//W3C//DTD SVG 1.1//EN"
 "http://www.w3.org/Graphics/SVG/1.1/DTD/svg11.dtd">
<!-- Generated by graphviz version 13.1.2 (20250809.0930)
 -->
<!-- Pages: 1 -->
<svg width="519pt" height="584pt"
 viewBox="0.00 0.00 519.00 584.00" xmlns="http://www.w3.org/2000/svg" xmlns:xlink="http://www.w3.org/1999/xlink">
<g id="graph0" class="graph" transform="scale(1 1) rotate(0) translate(4 580.45)">
<polygon fill="white" stroke="none" points="-4,4 -4,-580.45 515,-580.45 515,4 -4,4"/>
<g id="clust1" class="cluster">
<title>clusterhsgp_by (3)</title>
<path fill="none" stroke="black" d="M252,-446.63C252,-446.63 491,-446.63 491,-446.63 497,-446.63 503,-452.63 503,-458.63 503,-458.63 503,-556.45 503,-556.45 503,-562.45 497,-568.45 491,-568.45 491,-568.45 252,-568.45 252,-568.45 246,-568.45 240,-562.45 240,-556.45 240,-556.45 240,-458.63 240,-458.63 240,-452.63 246,-446.63 252,-446.63"/>
<text xml:space="preserve" text-anchor="middle" x="462.38" y="-453.83" font-family="Times,serif" font-size="14.00">hsgp_by (3)</text>
</g>
<g id="clust2" class="cluster">
<title>clusterhsgp_weights_dim (12) x hsgp_by (3)</title>
<path fill="none" stroke="black" d="M20,-348.63C20,-348.63 220,-348.63 220,-348.63 226,-348.63 232,-354.63 232,-360.63 232,-360.63 232,-556.45 232,-556.45 232,-562.45 226,-568.45 220,-568.45 220,-568.45 20,-568.45 20,-568.45 14,-568.45 8,-562.45 8,-556.45 8,-556.45 8,-360.63 8,-360.63 8,-354.63 14,-348.63 20,-348.63"/>
<text xml:space="preserve" text-anchor="middle" x="119.75" y="-355.83" font-family="Times,serif" font-size="14.00">hsgp_weights_dim (12) x hsgp_by (3)</text>
</g>
<g id="clust3" class="cluster">
<title>cluster__obs__ (300)</title>
<path fill="none" stroke="black" d="M138,-8C138,-8 220,-8 220,-8 226,-8 232,-14 232,-20 232,-20 232,-328.63 232,-328.63 232,-334.63 226,-340.63 220,-340.63 220,-340.63 138,-340.63 138,-340.63 132,-340.63 126,-334.63 126,-328.63 126,-328.63 126,-20 126,-20 126,-14 132,-8 138,-8"/>
<text xml:space="preserve" text-anchor="middle" x="184.62" y="-15.2" font-family="Times,serif" font-size="14.00">__obs__ (300)</text>
</g>
<!-- sigma -->
<g id="node1" class="node">
<title>sigma</title>
<ellipse fill="none" stroke="black" cx="60" cy="-198.48" rx="55.86" ry="40.66"/>
<text xml:space="preserve" text-anchor="middle" x="60" y="-209.93" font-family="Times,serif" font-size="14.00">sigma</text>
<text xml:space="preserve" text-anchor="middle" x="60" y="-193.43" font-family="Times,serif" font-size="14.00">~</text>
<text xml:space="preserve" text-anchor="middle" x="60" y="-176.93" font-family="Times,serif" font-size="14.00">Halfnormal</text>
</g>
<!-- y -->
<g id="node6" class="node">
<title>y</title>
<ellipse fill="lightgrey" stroke="black" cx="177" cy="-81.16" rx="41.01" ry="40.66"/>
<text xml:space="preserve" text-anchor="middle" x="177" y="-92.61" font-family="Times,serif" font-size="14.00">y</text>
<text xml:space="preserve" text-anchor="middle" x="177" y="-76.11" font-family="Times,serif" font-size="14.00">~</text>
<text xml:space="preserve" text-anchor="middle" x="177" y="-59.61" font-family="Times,serif" font-size="14.00">Normal</text>
</g>
<!-- sigma&#45;&gt;y -->
<g id="edge7" class="edge">
<title>sigma&#45;&gt;y</title>
<path fill="none" stroke="black" d="M92.59,-165.35C107.31,-150.85 124.77,-133.64 139.98,-118.64"/>
<polygon fill="black" stroke="black" points="142.43,-121.15 147.09,-111.64 137.51,-116.16 142.43,-121.15"/>
</g>
<!-- hsgp_ell -->
<g id="node2" class="node">
<title>hsgp_ell</title>
<ellipse fill="none" stroke="black" cx="305" cy="-519.79" rx="57.45" ry="40.66"/>
<text xml:space="preserve" text-anchor="middle" x="305" y="-531.24" font-family="Times,serif" font-size="14.00">hsgp_ell</text>
<text xml:space="preserve" text-anchor="middle" x="305" y="-514.74" font-family="Times,serif" font-size="14.00">~</text>
<text xml:space="preserve" text-anchor="middle" x="305" y="-498.24" font-family="Times,serif" font-size="14.00">Exponential</text>
</g>
<!-- hsgp_weights -->
<g id="node4" class="node">
<title>hsgp_weights</title>
<polygon fill="none" stroke="black" points="224.12,-438.63 133.88,-438.63 133.88,-381.13 224.12,-381.13 224.12,-438.63"/>
<text xml:space="preserve" text-anchor="middle" x="179" y="-421.33" font-family="Times,serif" font-size="14.00">hsgp_weights</text>
<text xml:space="preserve" text-anchor="middle" x="179" y="-404.83" font-family="Times,serif" font-size="14.00">~</text>
<text xml:space="preserve" text-anchor="middle" x="179" y="-388.33" font-family="Times,serif" font-size="14.00">Deterministic</text>
</g>
<!-- hsgp_ell&#45;&gt;hsgp_weights -->
<g id="edge1" class="edge">
<title>hsgp_ell&#45;&gt;hsgp_weights</title>
<path fill="none" stroke="black" d="M275.69,-484.73C263.98,-472.07 249.97,-458.03 236,-446.63 235.21,-445.99 234.4,-445.35 233.59,-444.7"/>
<polygon fill="black" stroke="black" points="235.86,-442.03 225.74,-438.88 231.69,-447.65 235.86,-442.03"/>
</g>
<!-- hsgp_sigma -->
<g id="node3" class="node">
<title>hsgp_sigma</title>
<ellipse fill="none" stroke="black" cx="438" cy="-519.79" rx="57.45" ry="40.66"/>
<text xml:space="preserve" text-anchor="middle" x="438" y="-531.24" font-family="Times,serif" font-size="14.00">hsgp_sigma</text>
<text xml:space="preserve" text-anchor="middle" x="438" y="-514.74" font-family="Times,serif" font-size="14.00">~</text>
<text xml:space="preserve" text-anchor="middle" x="438" y="-498.24" font-family="Times,serif" font-size="14.00">Exponential</text>
</g>
<!-- hsgp_sigma&#45;&gt;hsgp_weights -->
<g id="edge2" class="edge">
<title>hsgp_sigma&#45;&gt;hsgp_weights</title>
<path fill="none" stroke="black" d="M412.61,-482.88C401.36,-469.51 387.02,-455.46 371,-446.63 329.37,-423.71 275.77,-415.18 235.79,-412.14"/>
<polygon fill="black" stroke="black" points="236.08,-408.65 225.88,-411.49 235.63,-415.64 236.08,-408.65"/>
</g>
<!-- hsgp -->
<g id="node8" class="node">
<title>hsgp</title>
<polygon fill="none" stroke="black" points="224.12,-332.63 133.88,-332.63 133.88,-275.13 224.12,-275.13 224.12,-332.63"/>
<text xml:space="preserve" text-anchor="middle" x="179" y="-315.33" font-family="Times,serif" font-size="14.00">hsgp</text>
<text xml:space="preserve" text-anchor="middle" x="179" y="-298.83" font-family="Times,serif" font-size="14.00">~</text>
<text xml:space="preserve" text-anchor="middle" x="179" y="-282.33" font-family="Times,serif" font-size="14.00">Deterministic</text>
</g>
<!-- hsgp_weights&#45;&gt;hsgp -->
<g id="edge4" class="edge">
<title>hsgp_weights&#45;&gt;hsgp</title>
<path fill="none" stroke="black" d="M179,-380.74C179,-369.53 179,-356.42 179,-344.29"/>
<polygon fill="black" stroke="black" points="182.5,-344.56 179,-334.56 175.5,-344.56 182.5,-344.56"/>
</g>
<!-- hsgp_weights_raw -->
<g id="node5" class="node">
<title>hsgp_weights_raw</title>
<ellipse fill="none" stroke="black" cx="141" cy="-519.79" rx="82.91" ry="40.66"/>
<text xml:space="preserve" text-anchor="middle" x="141" y="-531.24" font-family="Times,serif" font-size="14.00">hsgp_weights_raw</text>
<text xml:space="preserve" text-anchor="middle" x="141" y="-514.74" font-family="Times,serif" font-size="14.00">~</text>
<text xml:space="preserve" text-anchor="middle" x="141" y="-498.24" font-family="Times,serif" font-size="14.00">Normal</text>
</g>
<!-- hsgp_weights_raw&#45;&gt;hsgp_weights -->
<g id="edge3" class="edge">
<title>hsgp_weights_raw&#45;&gt;hsgp_weights</title>
<path fill="none" stroke="black" d="M154.93,-479.22C158.31,-469.63 161.92,-459.37 165.29,-449.81"/>
<polygon fill="black" stroke="black" points="168.59,-450.99 168.61,-440.4 161.98,-448.67 168.59,-450.99"/>
</g>
<!-- mu -->
<g id="node7" class="node">
<title>mu</title>
<polygon fill="none" stroke="black" points="224.12,-227.23 133.88,-227.23 133.88,-169.73 224.12,-169.73 224.12,-227.23"/>
<text xml:space="preserve" text-anchor="middle" x="179" y="-209.93" font-family="Times,serif" font-size="14.00">mu</text>
<text xml:space="preserve" text-anchor="middle" x="179" y="-193.43" font-family="Times,serif" font-size="14.00">~</text>
<text xml:space="preserve" text-anchor="middle" x="179" y="-176.93" font-family="Times,serif" font-size="14.00">Deterministic</text>
</g>
<!-- mu&#45;&gt;y -->
<g id="edge6" class="edge">
<title>mu&#45;&gt;y</title>
<path fill="none" stroke="black" d="M178.51,-169.27C178.32,-158.44 178.1,-145.73 177.89,-133.41"/>
<polygon fill="black" stroke="black" points="181.39,-133.72 177.72,-123.78 174.4,-133.84 181.39,-133.72"/>
</g>
<!-- hsgp&#45;&gt;mu -->
<g id="edge5" class="edge">
<title>hsgp&#45;&gt;mu</title>
<path fill="none" stroke="black" d="M179,-274.9C179,-263.75 179,-250.72 179,-238.66"/>
<polygon fill="black" stroke="black" points="182.5,-239 179,-229 175.5,-239 182.5,-239"/>
</g>
</g>
</svg>
