<?xml version="1.0" encoding="UTF-8" standalone="no"?>
<!DOCTYPE svg PUBLIC "-//W3C//DTD SVG 1.1//EN"
 "http://www.w3.org/Graphics/SVG/1.1/DTD/svg11.dtd">
<!-- Generated by graphviz version 2.43.0 (0)
 -->
<!-- Title: %3 Pages: 1 -->
<svg width="593pt" height="549pt"
 viewBox="0.00 0.00 593.25 548.86" xmlns="http://www.w3.org/2000/svg" xmlns:xlink="http://www.w3.org/1999/xlink">
<g id="graph0" class="graph" transform="scale(1 1) rotate(0) translate(4 544.86)">
<title>%3</title>
<polygon fill="white" stroke="transparent" points="-4,4 -4,-544.86 589.25,-544.86 589.25,4 -4,4"/>
<g id="clust1" class="cluster">
<title>clusterhsgp_weights_dim (12) x hsgp_by (3)</title>
<path fill="none" stroke="black" d="M164.12,-329.91C164.12,-329.91 421.12,-329.91 421.12,-329.91 427.12,-329.91 433.12,-335.91 433.12,-341.91 433.12,-341.91 433.12,-520.86 433.12,-520.86 433.12,-526.86 427.12,-532.86 421.12,-532.86 421.12,-532.86 164.12,-532.86 164.12,-532.86 158.12,-532.86 152.12,-526.86 152.12,-520.86 152.12,-520.86 152.12,-341.91 152.12,-341.91 152.12,-335.91 158.12,-329.91 164.12,-329.91"/>
<text text-anchor="middle" x="292.62" y="-337.71" font-family="Times,serif" font-size="14.00">hsgp_weights_dim (12) x hsgp_by (3)</text>
</g>
<g id="clust2" class="cluster">
<title>cluster__obs__ (300)</title>
<path fill="none" stroke="black" d="M239.12,-8C239.12,-8 345.12,-8 345.12,-8 351.12,-8 357.12,-14 357.12,-20 357.12,-20 357.12,-309.91 357.12,-309.91 357.12,-315.91 351.12,-321.91 345.12,-321.91 345.12,-321.91 239.12,-321.91 239.12,-321.91 233.12,-321.91 227.12,-315.91 227.12,-309.91 227.12,-309.91 227.12,-20 227.12,-20 227.12,-14 233.12,-8 239.12,-8"/>
<text text-anchor="middle" x="302.12" y="-15.8" font-family="Times,serif" font-size="14.00">__obs__ (300)</text>
</g>
<!-- hsgp_sigma -->
<g id="node1" class="node">
<title>hsgp_sigma</title>
<ellipse fill="none" stroke="black" cx="72.12" cy="-487.38" rx="72.25" ry="37.45"/>
<text text-anchor="middle" x="72.12" y="-498.68" font-family="Times,serif" font-size="14.00">hsgp_sigma</text>
<text text-anchor="middle" x="72.12" y="-483.68" font-family="Times,serif" font-size="14.00">~</text>
<text text-anchor="middle" x="72.12" y="-468.68" font-family="Times,serif" font-size="14.00">Exponential</text>
</g>
<!-- hsgp_weights -->
<g id="node4" class="node">
<title>hsgp_weights</title>
<polygon fill="none" stroke="black" points="349.12,-413.91 235.12,-413.91 235.12,-360.91 349.12,-360.91 349.12,-413.91"/>
<text text-anchor="middle" x="292.12" y="-398.71" font-family="Times,serif" font-size="14.00">hsgp_weights</text>
<text text-anchor="middle" x="292.12" y="-383.71" font-family="Times,serif" font-size="14.00">~</text>
<text text-anchor="middle" x="292.12" y="-368.71" font-family="Times,serif" font-size="14.00">Deterministic</text>
</g>
<!-- hsgp_sigma&#45;&gt;hsgp_weights -->
<g id="edge1" class="edge">
<title>hsgp_sigma&#45;&gt;hsgp_weights</title>
<path fill="none" stroke="black" d="M123.9,-461.16C131.98,-457.33 140.26,-453.47 148.12,-449.91 173.37,-438.46 201.36,-426.38 225.89,-415.98"/>
<polygon fill="black" stroke="black" points="227.26,-419.2 235.11,-412.08 224.53,-412.75 227.26,-419.2"/>
</g>
<!-- hsgp_ell -->
<g id="node2" class="node">
<title>hsgp_ell</title>
<ellipse fill="none" stroke="black" cx="513.12" cy="-487.38" rx="72.25" ry="37.45"/>
<text text-anchor="middle" x="513.12" y="-498.68" font-family="Times,serif" font-size="14.00">hsgp_ell</text>
<text text-anchor="middle" x="513.12" y="-483.68" font-family="Times,serif" font-size="14.00">~</text>
<text text-anchor="middle" x="513.12" y="-468.68" font-family="Times,serif" font-size="14.00">Exponential</text>
</g>
<!-- hsgp_ell&#45;&gt;hsgp_weights -->
<g id="edge2" class="edge">
<title>hsgp_ell&#45;&gt;hsgp_weights</title>
<path fill="none" stroke="black" d="M461.35,-461.14C453.27,-457.32 444.99,-453.46 437.12,-449.91 411.6,-438.38 383.29,-426.23 358.51,-415.8"/>
<polygon fill="black" stroke="black" points="359.78,-412.54 349.2,-411.9 357.07,-418.99 359.78,-412.54"/>
</g>
<!-- sigma -->
<g id="node3" class="node">
<title>sigma</title>
<ellipse fill="none" stroke="black" cx="436.12" cy="-187.43" rx="68.68" ry="37.45"/>
<text text-anchor="middle" x="436.12" y="-198.73" font-family="Times,serif" font-size="14.00">sigma</text>
<text text-anchor="middle" x="436.12" y="-183.73" font-family="Times,serif" font-size="14.00">~</text>
<text text-anchor="middle" x="436.12" y="-168.73" font-family="Times,serif" font-size="14.00">Halfnormal</text>
</g>
<!-- y -->
<g id="node8" class="node">
<title>y</title>
<ellipse fill="lightgrey" stroke="black" cx="296.12" cy="-76.48" rx="49.49" ry="37.45"/>
<text text-anchor="middle" x="296.12" y="-87.78" font-family="Times,serif" font-size="14.00">y</text>
<text text-anchor="middle" x="296.12" y="-72.78" font-family="Times,serif" font-size="14.00">~</text>
<text text-anchor="middle" x="296.12" y="-57.78" font-family="Times,serif" font-size="14.00">Normal</text>
</g>
<!-- sigma&#45;&gt;y -->
<g id="edge7" class="edge">
<title>sigma&#45;&gt;y</title>
<path fill="none" stroke="black" d="M397.5,-156.37C379.17,-142.1 357.22,-125.02 338.44,-110.41"/>
<polygon fill="black" stroke="black" points="340.37,-107.48 330.33,-104.1 336.07,-113 340.37,-107.48"/>
</g>
<!-- hsgp -->
<g id="node6" class="node">
<title>hsgp</title>
<polygon fill="none" stroke="black" points="349.12,-313.91 235.12,-313.91 235.12,-260.91 349.12,-260.91 349.12,-313.91"/>
<text text-anchor="middle" x="292.12" y="-298.71" font-family="Times,serif" font-size="14.00">hsgp</text>
<text text-anchor="middle" x="292.12" y="-283.71" font-family="Times,serif" font-size="14.00">~</text>
<text text-anchor="middle" x="292.12" y="-268.71" font-family="Times,serif" font-size="14.00">Deterministic</text>
</g>
<!-- hsgp_weights&#45;&gt;hsgp -->
<g id="edge4" class="edge">
<title>hsgp_weights&#45;&gt;hsgp</title>
<path fill="none" stroke="black" d="M292.12,-360.66C292.12,-349.52 292.12,-336.29 292.12,-324.21"/>
<polygon fill="black" stroke="black" points="295.62,-323.98 292.12,-313.98 288.62,-323.98 295.62,-323.98"/>
</g>
<!-- hsgp_weights_raw -->
<g id="node5" class="node">
<title>hsgp_weights_raw</title>
<ellipse fill="none" stroke="black" cx="292.12" cy="-487.38" rx="104.8" ry="37.45"/>
<text text-anchor="middle" x="292.12" y="-498.68" font-family="Times,serif" font-size="14.00">hsgp_weights_raw</text>
<text text-anchor="middle" x="292.12" y="-483.68" font-family="Times,serif" font-size="14.00">~</text>
<text text-anchor="middle" x="292.12" y="-468.68" font-family="Times,serif" font-size="14.00">Normal</text>
</g>
<!-- hsgp_weights_raw&#45;&gt;hsgp_weights -->
<g id="edge3" class="edge">
<title>hsgp_weights_raw&#45;&gt;hsgp_weights</title>
<path fill="none" stroke="black" d="M292.12,-449.9C292.12,-441.48 292.12,-432.54 292.12,-424.16"/>
<polygon fill="black" stroke="black" points="295.62,-423.92 292.12,-413.92 288.62,-423.92 295.62,-423.92"/>
</g>
<!-- mu -->
<g id="node7" class="node">
<title>mu</title>
<polygon fill="none" stroke="black" points="349.12,-213.93 235.12,-213.93 235.12,-160.93 349.12,-160.93 349.12,-213.93"/>
<text text-anchor="middle" x="292.12" y="-198.73" font-family="Times,serif" font-size="14.00">mu</text>
<text text-anchor="middle" x="292.12" y="-183.73" font-family="Times,serif" font-size="14.00">~</text>
<text text-anchor="middle" x="292.12" y="-168.73" font-family="Times,serif" font-size="14.00">Deterministic</text>
</g>
<!-- hsgp&#45;&gt;mu -->
<g id="edge5" class="edge">
<title>hsgp&#45;&gt;mu</title>
<path fill="none" stroke="black" d="M292.12,-260.66C292.12,-249.53 292.12,-236.3 292.12,-224.23"/>
<polygon fill="black" stroke="black" points="295.62,-224 292.12,-214 288.62,-224 295.62,-224"/>
</g>
<!-- mu&#45;&gt;y -->
<g id="edge6" class="edge">
<title>mu&#45;&gt;y</title>
<path fill="none" stroke="black" d="M293.06,-160.89C293.46,-149.98 293.94,-136.89 294.4,-124.35"/>
<polygon fill="black" stroke="black" points="297.91,-124.12 294.78,-114 290.92,-123.87 297.91,-124.12"/>
</g>
</g>
</svg>
