<?xml version="1.0" encoding="UTF-8" standalone="no"?>
<!DOCTYPE svg PUBLIC "-//W3C//DTD SVG 1.1//EN"
 "http://www.w3.org/Graphics/SVG/1.1/DTD/svg11.dtd">
<!-- Generated by graphviz version 2.50.0 (0)
 -->
<!-- Pages: 1 -->
<svg width="481pt" height="452pt"
 viewBox="0.00 0.00 480.97 451.86" xmlns="http://www.w3.org/2000/svg" xmlns:xlink="http://www.w3.org/1999/xlink">
<g id="graph0" class="graph" transform="scale(1 1) rotate(0) translate(4 447.86)">
<polygon fill="white" stroke="transparent" points="-4,4 -4,-447.86 476.97,-447.86 476.97,4 -4,4"/>
<g id="clust1" class="cluster">
<title>clusterhsgp_weights_dim (12) x hsgp_by (3)</title>
<path fill="none" stroke="black" d="M135.98,-232.91C135.98,-232.91 336.98,-232.91 336.98,-232.91 342.98,-232.91 348.98,-238.91 348.98,-244.91 348.98,-244.91 348.98,-423.86 348.98,-423.86 348.98,-429.86 342.98,-435.86 336.98,-435.86 336.98,-435.86 135.98,-435.86 135.98,-435.86 129.98,-435.86 123.98,-429.86 123.98,-423.86 123.98,-423.86 123.98,-244.91 123.98,-244.91 123.98,-238.91 129.98,-232.91 135.98,-232.91"/>
<text text-anchor="middle" x="236.48" y="-240.71" font-family="Times,serif" font-size="14.00">hsgp_weights_dim (12) x hsgp_by (3)</text>
</g>
<g id="clust2" class="cluster">
<title>clustery_obs (300)</title>
<path fill="none" stroke="black" d="M193.98,-8C193.98,-8 277.98,-8 277.98,-8 283.98,-8 289.98,-14 289.98,-20 289.98,-20 289.98,-209.93 289.98,-209.93 289.98,-215.93 283.98,-221.93 277.98,-221.93 277.98,-221.93 193.98,-221.93 193.98,-221.93 187.98,-221.93 181.98,-215.93 181.98,-209.93 181.98,-209.93 181.98,-20 181.98,-20 181.98,-14 187.98,-8 193.98,-8"/>
<text text-anchor="middle" x="248.98" y="-15.8" font-family="Times,serif" font-size="14.00">y_obs (300)</text>
</g>
<!-- hsgp_sigma -->
<g id="node1" class="node">
<title>hsgp_sigma</title>
<ellipse fill="none" stroke="black" cx="57.98" cy="-390.38" rx="57.97" ry="37.45"/>
<text text-anchor="middle" x="57.98" y="-401.68" font-family="Times,serif" font-size="14.00">hsgp_sigma</text>
<text text-anchor="middle" x="57.98" y="-386.68" font-family="Times,serif" font-size="14.00">~</text>
<text text-anchor="middle" x="57.98" y="-371.68" font-family="Times,serif" font-size="14.00">Exponential</text>
</g>
<!-- hsgp_weights -->
<g id="node5" class="node">
<title>hsgp_weights</title>
<polygon fill="none" stroke="black" points="281.48,-316.91 190.48,-316.91 190.48,-263.91 281.48,-263.91 281.48,-316.91"/>
<text text-anchor="middle" x="235.98" y="-301.71" font-family="Times,serif" font-size="14.00">hsgp_weights</text>
<text text-anchor="middle" x="235.98" y="-286.71" font-family="Times,serif" font-size="14.00">~</text>
<text text-anchor="middle" x="235.98" y="-271.71" font-family="Times,serif" font-size="14.00">Deterministic</text>
</g>
<!-- hsgp_sigma&#45;&gt;hsgp_weights -->
<g id="edge1" class="edge">
<title>hsgp_sigma&#45;&gt;hsgp_weights</title>
<path fill="none" stroke="black" d="M99.86,-364.41C106.56,-360.51 113.44,-356.56 119.98,-352.91 139.82,-341.82 161.8,-330.04 181.25,-319.79"/>
<polygon fill="black" stroke="black" points="183.06,-322.79 190.28,-315.04 179.8,-316.6 183.06,-322.79"/>
</g>
<!-- y_sigma -->
<g id="node2" class="node">
<title>y_sigma</title>
<ellipse fill="none" stroke="black" cx="357.98" cy="-187.43" rx="58.88" ry="37.45"/>
<text text-anchor="middle" x="357.98" y="-198.73" font-family="Times,serif" font-size="14.00">y_sigma</text>
<text text-anchor="middle" x="357.98" y="-183.73" font-family="Times,serif" font-size="14.00">~</text>
<text text-anchor="middle" x="357.98" y="-168.73" font-family="Times,serif" font-size="14.00">HalfNormal</text>
</g>
<!-- y -->
<g id="node6" class="node">
<title>y</title>
<ellipse fill="lightgrey" stroke="black" cx="237.98" cy="-76.48" rx="41.94" ry="37.45"/>
<text text-anchor="middle" x="237.98" y="-87.78" font-family="Times,serif" font-size="14.00">y</text>
<text text-anchor="middle" x="237.98" y="-72.78" font-family="Times,serif" font-size="14.00">~</text>
<text text-anchor="middle" x="237.98" y="-57.78" font-family="Times,serif" font-size="14.00">Normal</text>
</g>
<!-- y_sigma&#45;&gt;y -->
<g id="edge5" class="edge">
<title>y_sigma&#45;&gt;y</title>
<path fill="none" stroke="black" d="M324.87,-156.37C309.25,-142.19 290.57,-125.22 274.53,-110.66"/>
<polygon fill="black" stroke="black" points="276.66,-107.86 266.9,-103.73 271.95,-113.05 276.66,-107.86"/>
</g>
<!-- hsgp_ell -->
<g id="node3" class="node">
<title>hsgp_ell</title>
<ellipse fill="none" stroke="black" cx="414.98" cy="-390.38" rx="57.97" ry="37.45"/>
<text text-anchor="middle" x="414.98" y="-401.68" font-family="Times,serif" font-size="14.00">hsgp_ell</text>
<text text-anchor="middle" x="414.98" y="-386.68" font-family="Times,serif" font-size="14.00">~</text>
<text text-anchor="middle" x="414.98" y="-371.68" font-family="Times,serif" font-size="14.00">Exponential</text>
</g>
<!-- hsgp_ell&#45;&gt;hsgp_weights -->
<g id="edge3" class="edge">
<title>hsgp_ell&#45;&gt;hsgp_weights</title>
<path fill="none" stroke="black" d="M373.12,-364.39C366.41,-360.49 359.53,-356.55 352.98,-352.91 332.73,-341.63 310.24,-329.68 290.43,-319.34"/>
<polygon fill="black" stroke="black" points="292.02,-316.22 281.54,-314.71 288.79,-322.43 292.02,-316.22"/>
</g>
<!-- hsgp_weights_raw -->
<g id="node4" class="node">
<title>hsgp_weights_raw</title>
<ellipse fill="none" stroke="black" cx="235.98" cy="-390.38" rx="83.38" ry="37.45"/>
<text text-anchor="middle" x="235.98" y="-401.68" font-family="Times,serif" font-size="14.00">hsgp_weights_raw</text>
<text text-anchor="middle" x="235.98" y="-386.68" font-family="Times,serif" font-size="14.00">~</text>
<text text-anchor="middle" x="235.98" y="-371.68" font-family="Times,serif" font-size="14.00">Normal</text>
</g>
<!-- hsgp_weights_raw&#45;&gt;hsgp_weights -->
<g id="edge2" class="edge">
<title>hsgp_weights_raw&#45;&gt;hsgp_weights</title>
<path fill="none" stroke="black" d="M235.98,-352.9C235.98,-344.48 235.98,-335.54 235.98,-327.16"/>
<polygon fill="black" stroke="black" points="239.48,-326.92 235.98,-316.92 232.48,-326.92 239.48,-326.92"/>
</g>
<!-- hsgp -->
<g id="node7" class="node">
<title>hsgp</title>
<polygon fill="none" stroke="black" points="281.48,-213.93 190.48,-213.93 190.48,-160.93 281.48,-160.93 281.48,-213.93"/>
<text text-anchor="middle" x="235.98" y="-198.73" font-family="Times,serif" font-size="14.00">hsgp</text>
<text text-anchor="middle" x="235.98" y="-183.73" font-family="Times,serif" font-size="14.00">~</text>
<text text-anchor="middle" x="235.98" y="-168.73" font-family="Times,serif" font-size="14.00">Deterministic</text>
</g>
<!-- hsgp_weights&#45;&gt;hsgp -->
<g id="edge4" class="edge">
<title>hsgp_weights&#45;&gt;hsgp</title>
<path fill="none" stroke="black" d="M235.98,-263.66C235.98,-251.68 235.98,-237.22 235.98,-224.19"/>
<polygon fill="black" stroke="black" points="239.48,-224.12 235.98,-214.12 232.48,-224.12 239.48,-224.12"/>
</g>
<!-- hsgp&#45;&gt;y -->
<g id="edge6" class="edge">
<title>hsgp&#45;&gt;y</title>
<path fill="none" stroke="black" d="M236.45,-160.89C236.65,-149.98 236.89,-136.89 237.12,-124.35"/>
<polygon fill="black" stroke="black" points="240.63,-124.06 237.31,-114 233.63,-123.94 240.63,-124.06"/>
</g>
</g>
</svg>
