<?xml version="1.0" encoding="UTF-8" standalone="no"?>
<!DOCTYPE svg PUBLIC "-//W3C//DTD SVG 1.1//EN"
 "http://www.w3.org/Graphics/SVG/1.1/DTD/svg11.dtd">
<!-- Generated by graphviz version 13.1.2 (20250809.0930)
 -->
<!-- Pages: 1 -->
<svg width="477pt" height="580pt"
 viewBox="0.00 0.00 477.00 580.00" xmlns="http://www.w3.org/2000/svg" xmlns:xlink="http://www.w3.org/1999/xlink">
<g id="graph0" class="graph" transform="scale(1 1) rotate(0) translate(4 575.95)">
<polygon fill="white" stroke="none" points="-4,4 -4,-575.95 472.9,-575.95 472.9,4 -4,4"/>
<g id="clust1" class="cluster">
<title>clusterhsgp_weights_dim (12) x hsgp_by (3)</title>
<path fill="none" stroke="black" d="M134.45,-348.63C134.45,-348.63 334.45,-348.63 334.45,-348.63 340.45,-348.63 346.45,-354.63 346.45,-360.63 346.45,-360.63 346.45,-551.95 346.45,-551.95 346.45,-557.95 340.45,-563.95 334.45,-563.95 334.45,-563.95 134.45,-563.95 134.45,-563.95 128.45,-563.95 122.45,-557.95 122.45,-551.95 122.45,-551.95 122.45,-360.63 122.45,-360.63 122.45,-354.63 128.45,-348.63 134.45,-348.63"/>
<text xml:space="preserve" text-anchor="middle" x="234.2" y="-355.83" font-family="Times,serif" font-size="14.00">hsgp_weights_dim (12) x hsgp_by (3)</text>
</g>
<g id="clust2" class="cluster">
<title>cluster__obs__ (300)</title>
<path fill="none" stroke="black" d="M193.45,-8C193.45,-8 275.45,-8 275.45,-8 281.45,-8 287.45,-14 287.45,-20 287.45,-20 287.45,-328.63 287.45,-328.63 287.45,-334.63 281.45,-340.63 275.45,-340.63 275.45,-340.63 193.45,-340.63 193.45,-340.63 187.45,-340.63 181.45,-334.63 181.45,-328.63 181.45,-328.63 181.45,-20 181.45,-20 181.45,-14 187.45,-8 193.45,-8"/>
<text xml:space="preserve" text-anchor="middle" x="240.08" y="-15.2" font-family="Times,serif" font-size="14.00">__obs__ (300)</text>
</g>
<!-- hsgp_ell -->
<g id="node1" class="node">
<title>hsgp_ell</title>
<ellipse fill="none" stroke="black" cx="57.45" cy="-515.29" rx="57.45" ry="40.66"/>
<text xml:space="preserve" text-anchor="middle" x="57.45" y="-526.74" font-family="Times,serif" font-size="14.00">hsgp_ell</text>
<text xml:space="preserve" text-anchor="middle" x="57.45" y="-510.24" font-family="Times,serif" font-size="14.00">~</text>
<text xml:space="preserve" text-anchor="middle" x="57.45" y="-493.74" font-family="Times,serif" font-size="14.00">Exponential</text>
</g>
<!-- hsgp_weights -->
<g id="node4" class="node">
<title>hsgp_weights</title>
<polygon fill="none" stroke="black" points="279.58,-438.63 189.33,-438.63 189.33,-381.13 279.58,-381.13 279.58,-438.63"/>
<text xml:space="preserve" text-anchor="middle" x="234.45" y="-421.33" font-family="Times,serif" font-size="14.00">hsgp_weights</text>
<text xml:space="preserve" text-anchor="middle" x="234.45" y="-404.83" font-family="Times,serif" font-size="14.00">~</text>
<text xml:space="preserve" text-anchor="middle" x="234.45" y="-388.33" font-family="Times,serif" font-size="14.00">Deterministic</text>
</g>
<!-- hsgp_ell&#45;&gt;hsgp_weights -->
<g id="edge1" class="edge">
<title>hsgp_ell&#45;&gt;hsgp_weights</title>
<path fill="none" stroke="black" d="M98.87,-486.78C105.37,-482.63 112.06,-478.46 118.45,-474.63 137.93,-462.97 159.65,-450.82 178.97,-440.29"/>
<polygon fill="black" stroke="black" points="180.39,-443.51 187.51,-435.66 177.05,-437.35 180.39,-443.51"/>
</g>
<!-- sigma -->
<g id="node2" class="node">
<title>sigma</title>
<ellipse fill="none" stroke="black" cx="353.45" cy="-198.48" rx="55.86" ry="40.66"/>
<text xml:space="preserve" text-anchor="middle" x="353.45" y="-209.93" font-family="Times,serif" font-size="14.00">sigma</text>
<text xml:space="preserve" text-anchor="middle" x="353.45" y="-193.43" font-family="Times,serif" font-size="14.00">~</text>
<text xml:space="preserve" text-anchor="middle" x="353.45" y="-176.93" font-family="Times,serif" font-size="14.00">Halfnormal</text>
</g>
<!-- y -->
<g id="node6" class="node">
<title>y</title>
<ellipse fill="lightgrey" stroke="black" cx="236.45" cy="-81.16" rx="41.01" ry="40.66"/>
<text xml:space="preserve" text-anchor="middle" x="236.45" y="-92.61" font-family="Times,serif" font-size="14.00">y</text>
<text xml:space="preserve" text-anchor="middle" x="236.45" y="-76.11" font-family="Times,serif" font-size="14.00">~</text>
<text xml:space="preserve" text-anchor="middle" x="236.45" y="-59.61" font-family="Times,serif" font-size="14.00">Normal</text>
</g>
<!-- sigma&#45;&gt;y -->
<g id="edge7" class="edge">
<title>sigma&#45;&gt;y</title>
<path fill="none" stroke="black" d="M320.86,-165.35C306.14,-150.85 288.68,-133.64 273.47,-118.64"/>
<polygon fill="black" stroke="black" points="275.94,-116.16 266.36,-111.64 271.03,-121.15 275.94,-116.16"/>
</g>
<!-- hsgp_sigma -->
<g id="node3" class="node">
<title>hsgp_sigma</title>
<ellipse fill="none" stroke="black" cx="411.45" cy="-515.29" rx="57.45" ry="40.66"/>
<text xml:space="preserve" text-anchor="middle" x="411.45" y="-526.74" font-family="Times,serif" font-size="14.00">hsgp_sigma</text>
<text xml:space="preserve" text-anchor="middle" x="411.45" y="-510.24" font-family="Times,serif" font-size="14.00">~</text>
<text xml:space="preserve" text-anchor="middle" x="411.45" y="-493.74" font-family="Times,serif" font-size="14.00">Exponential</text>
</g>
<!-- hsgp_sigma&#45;&gt;hsgp_weights -->
<g id="edge2" class="edge">
<title>hsgp_sigma&#45;&gt;hsgp_weights</title>
<path fill="none" stroke="black" d="M370.04,-486.78C363.53,-482.63 356.85,-478.46 350.45,-474.63 330.98,-462.97 309.26,-450.82 289.93,-440.29"/>
<polygon fill="black" stroke="black" points="291.86,-437.35 281.4,-435.66 288.52,-443.51 291.86,-437.35"/>
</g>
<!-- hsgp -->
<g id="node8" class="node">
<title>hsgp</title>
<polygon fill="none" stroke="black" points="279.58,-332.63 189.33,-332.63 189.33,-275.13 279.58,-275.13 279.58,-332.63"/>
<text xml:space="preserve" text-anchor="middle" x="234.45" y="-315.33" font-family="Times,serif" font-size="14.00">hsgp</text>
<text xml:space="preserve" text-anchor="middle" x="234.45" y="-298.83" font-family="Times,serif" font-size="14.00">~</text>
<text xml:space="preserve" text-anchor="middle" x="234.45" y="-282.33" font-family="Times,serif" font-size="14.00">Deterministic</text>
</g>
<!-- hsgp_weights&#45;&gt;hsgp -->
<g id="edge4" class="edge">
<title>hsgp_weights&#45;&gt;hsgp</title>
<path fill="none" stroke="black" d="M234.45,-380.74C234.45,-369.53 234.45,-356.42 234.45,-344.29"/>
<polygon fill="black" stroke="black" points="237.95,-344.56 234.45,-334.56 230.95,-344.56 237.95,-344.56"/>
</g>
<!-- hsgp_weights_raw -->
<g id="node5" class="node">
<title>hsgp_weights_raw</title>
<ellipse fill="none" stroke="black" cx="234.45" cy="-515.29" rx="82.91" ry="40.66"/>
<text xml:space="preserve" text-anchor="middle" x="234.45" y="-526.74" font-family="Times,serif" font-size="14.00">hsgp_weights_raw</text>
<text xml:space="preserve" text-anchor="middle" x="234.45" y="-510.24" font-family="Times,serif" font-size="14.00">~</text>
<text xml:space="preserve" text-anchor="middle" x="234.45" y="-493.74" font-family="Times,serif" font-size="14.00">Normal</text>
</g>
<!-- hsgp_weights_raw&#45;&gt;hsgp_weights -->
<g id="edge3" class="edge">
<title>hsgp_weights_raw&#45;&gt;hsgp_weights</title>
<path fill="none" stroke="black" d="M234.45,-474.31C234.45,-466.46 234.45,-458.23 234.45,-450.4"/>
<polygon fill="black" stroke="black" points="237.95,-450.42 234.45,-440.42 230.95,-450.42 237.95,-450.42"/>
</g>
<!-- mu -->
<g id="node7" class="node">
<title>mu</title>
<polygon fill="none" stroke="black" points="279.58,-227.23 189.33,-227.23 189.33,-169.73 279.58,-169.73 279.58,-227.23"/>
<text xml:space="preserve" text-anchor="middle" x="234.45" y="-209.93" font-family="Times,serif" font-size="14.00">mu</text>
<text xml:space="preserve" text-anchor="middle" x="234.45" y="-193.43" font-family="Times,serif" font-size="14.00">~</text>
<text xml:space="preserve" text-anchor="middle" x="234.45" y="-176.93" font-family="Times,serif" font-size="14.00">Deterministic</text>
</g>
<!-- mu&#45;&gt;y -->
<g id="edge6" class="edge">
<title>mu&#45;&gt;y</title>
<path fill="none" stroke="black" d="M234.94,-169.27C235.13,-158.44 235.35,-145.73 235.56,-133.41"/>
<polygon fill="black" stroke="black" points="239.06,-133.84 235.73,-123.78 232.06,-133.72 239.06,-133.84"/>
</g>
<!-- hsgp&#45;&gt;mu -->
<g id="edge5" class="edge">
<title>hsgp&#45;&gt;mu</title>
<path fill="none" stroke="black" d="M234.45,-274.9C234.45,-263.75 234.45,-250.72 234.45,-238.66"/>
<polygon fill="black" stroke="black" points="237.95,-239 234.45,-229 230.95,-239 237.95,-239"/>
</g>
</g>
</svg>
