<?xml version="1.0" encoding="UTF-8" standalone="no"?>
<!DOCTYPE svg PUBLIC "-//W3C//DTD SVG 1.1//EN"
 "http://www.w3.org/Graphics/SVG/1.1/DTD/svg11.dtd">
<!-- Generated by graphviz version 2.50.0 (0)
 -->
<!-- Pages: 1 -->
<svg width="525pt" height="455pt"
 viewBox="0.00 0.00 524.69 454.86" xmlns="http://www.w3.org/2000/svg" xmlns:xlink="http://www.w3.org/1999/xlink">
<g id="graph0" class="graph" transform="scale(1 1) rotate(0) translate(4 450.86)">
<polygon fill="white" stroke="transparent" points="-4,4 -4,-450.86 520.69,-450.86 520.69,4 -4,4"/>
<g id="clust1" class="cluster">
<title>clusterhsgp_by (3)</title>
<path fill="none" stroke="black" d="M254.69,-324.91C254.69,-324.91 496.69,-324.91 496.69,-324.91 502.69,-324.91 508.69,-330.91 508.69,-336.91 508.69,-336.91 508.69,-426.86 508.69,-426.86 508.69,-432.86 502.69,-438.86 496.69,-438.86 496.69,-438.86 254.69,-438.86 254.69,-438.86 248.69,-438.86 242.69,-432.86 242.69,-426.86 242.69,-426.86 242.69,-336.91 242.69,-336.91 242.69,-330.91 248.69,-324.91 254.69,-324.91"/>
<text text-anchor="middle" x="467.69" y="-332.71" font-family="Times,serif" font-size="14.00">hsgp_by (3)</text>
</g>
<g id="clust2" class="cluster">
<title>clusterhsgp_weights_dim (12) x hsgp_by (3)</title>
<path fill="none" stroke="black" d="M21.69,-232.91C21.69,-232.91 222.69,-232.91 222.69,-232.91 228.69,-232.91 234.69,-238.91 234.69,-244.91 234.69,-244.91 234.69,-426.86 234.69,-426.86 234.69,-432.86 228.69,-438.86 222.69,-438.86 222.69,-438.86 21.69,-438.86 21.69,-438.86 15.69,-438.86 9.69,-432.86 9.69,-426.86 9.69,-426.86 9.69,-244.91 9.69,-244.91 9.69,-238.91 15.69,-232.91 21.69,-232.91"/>
<text text-anchor="middle" x="122.19" y="-240.71" font-family="Times,serif" font-size="14.00">hsgp_weights_dim (12) x hsgp_by (3)</text>
</g>
<g id="clust3" class="cluster">
<title>clustery_obs (300)</title>
<path fill="none" stroke="black" d="M138.69,-8C138.69,-8 222.69,-8 222.69,-8 228.69,-8 234.69,-14 234.69,-20 234.69,-20 234.69,-209.93 234.69,-209.93 234.69,-215.93 228.69,-221.93 222.69,-221.93 222.69,-221.93 138.69,-221.93 138.69,-221.93 132.69,-221.93 126.69,-215.93 126.69,-209.93 126.69,-209.93 126.69,-20 126.69,-20 126.69,-14 132.69,-8 138.69,-8"/>
<text text-anchor="middle" x="193.69" y="-15.8" font-family="Times,serif" font-size="14.00">y_obs (300)</text>
</g>
<!-- y_sigma -->
<g id="node1" class="node">
<title>y_sigma</title>
<ellipse fill="none" stroke="black" cx="58.69" cy="-187.43" rx="58.88" ry="37.45"/>
<text text-anchor="middle" x="58.69" y="-198.73" font-family="Times,serif" font-size="14.00">y_sigma</text>
<text text-anchor="middle" x="58.69" y="-183.73" font-family="Times,serif" font-size="14.00">~</text>
<text text-anchor="middle" x="58.69" y="-168.73" font-family="Times,serif" font-size="14.00">HalfNormal</text>
</g>
<!-- y -->
<g id="node6" class="node">
<title>y</title>
<ellipse fill="lightgrey" stroke="black" cx="178.69" cy="-76.48" rx="41.94" ry="37.45"/>
<text text-anchor="middle" x="178.69" y="-87.78" font-family="Times,serif" font-size="14.00">y</text>
<text text-anchor="middle" x="178.69" y="-72.78" font-family="Times,serif" font-size="14.00">~</text>
<text text-anchor="middle" x="178.69" y="-57.78" font-family="Times,serif" font-size="14.00">Normal</text>
</g>
<!-- y_sigma&#45;&gt;y -->
<g id="edge5" class="edge">
<title>y_sigma&#45;&gt;y</title>
<path fill="none" stroke="black" d="M91.8,-156.37C107.42,-142.19 126.1,-125.22 142.14,-110.66"/>
<polygon fill="black" stroke="black" points="144.72,-113.05 149.77,-103.73 140.02,-107.86 144.72,-113.05"/>
</g>
<!-- hsgp_sigma -->
<g id="node2" class="node">
<title>hsgp_sigma</title>
<ellipse fill="none" stroke="black" cx="442.69" cy="-393.38" rx="57.97" ry="37.45"/>
<text text-anchor="middle" x="442.69" y="-404.68" font-family="Times,serif" font-size="14.00">hsgp_sigma</text>
<text text-anchor="middle" x="442.69" y="-389.68" font-family="Times,serif" font-size="14.00">~</text>
<text text-anchor="middle" x="442.69" y="-374.68" font-family="Times,serif" font-size="14.00">Exponential</text>
</g>
<!-- hsgp_weights -->
<g id="node5" class="node">
<title>hsgp_weights</title>
<polygon fill="none" stroke="black" points="226.19,-316.91 135.19,-316.91 135.19,-263.91 226.19,-263.91 226.19,-316.91"/>
<text text-anchor="middle" x="180.69" y="-301.71" font-family="Times,serif" font-size="14.00">hsgp_weights</text>
<text text-anchor="middle" x="180.69" y="-286.71" font-family="Times,serif" font-size="14.00">~</text>
<text text-anchor="middle" x="180.69" y="-271.71" font-family="Times,serif" font-size="14.00">Deterministic</text>
</g>
<!-- hsgp_sigma&#45;&gt;hsgp_weights -->
<g id="edge1" class="edge">
<title>hsgp_sigma&#45;&gt;hsgp_weights</title>
<path fill="none" stroke="black" d="M417.58,-359.4C406.17,-346.67 391.65,-333.21 375.69,-324.91 332.42,-302.41 277.17,-294.56 236.54,-292.03"/>
<polygon fill="black" stroke="black" points="236.71,-288.54 226.54,-291.5 236.34,-295.53 236.71,-288.54"/>
</g>
<!-- hsgp_ell -->
<g id="node3" class="node">
<title>hsgp_ell</title>
<ellipse fill="none" stroke="black" cx="308.69" cy="-393.38" rx="57.97" ry="37.45"/>
<text text-anchor="middle" x="308.69" y="-404.68" font-family="Times,serif" font-size="14.00">hsgp_ell</text>
<text text-anchor="middle" x="308.69" y="-389.68" font-family="Times,serif" font-size="14.00">~</text>
<text text-anchor="middle" x="308.69" y="-374.68" font-family="Times,serif" font-size="14.00">Exponential</text>
</g>
<!-- hsgp_ell&#45;&gt;hsgp_weights -->
<g id="edge3" class="edge">
<title>hsgp_ell&#45;&gt;hsgp_weights</title>
<path fill="none" stroke="black" d="M279.14,-360.78C267.17,-348.84 252.85,-335.57 238.69,-324.91 237.47,-323.99 236.22,-323.08 234.96,-322.17"/>
<polygon fill="black" stroke="black" points="236.58,-319.05 226.34,-316.34 232.66,-324.84 236.58,-319.05"/>
</g>
<!-- hsgp_weights_raw -->
<g id="node4" class="node">
<title>hsgp_weights_raw</title>
<ellipse fill="none" stroke="black" cx="143.69" cy="-393.38" rx="83.38" ry="37.45"/>
<text text-anchor="middle" x="143.69" y="-404.68" font-family="Times,serif" font-size="14.00">hsgp_weights_raw</text>
<text text-anchor="middle" x="143.69" y="-389.68" font-family="Times,serif" font-size="14.00">~</text>
<text text-anchor="middle" x="143.69" y="-374.68" font-family="Times,serif" font-size="14.00">Normal</text>
</g>
<!-- hsgp_weights_raw&#45;&gt;hsgp_weights -->
<g id="edge2" class="edge">
<title>hsgp_weights_raw&#45;&gt;hsgp_weights</title>
<path fill="none" stroke="black" d="M156.94,-356.21C160.45,-346.64 164.24,-336.31 167.73,-326.78"/>
<polygon fill="black" stroke="black" points="171.09,-327.79 171.24,-317.2 164.51,-325.38 171.09,-327.79"/>
</g>
<!-- hsgp -->
<g id="node7" class="node">
<title>hsgp</title>
<polygon fill="none" stroke="black" points="226.19,-213.93 135.19,-213.93 135.19,-160.93 226.19,-160.93 226.19,-213.93"/>
<text text-anchor="middle" x="180.69" y="-198.73" font-family="Times,serif" font-size="14.00">hsgp</text>
<text text-anchor="middle" x="180.69" y="-183.73" font-family="Times,serif" font-size="14.00">~</text>
<text text-anchor="middle" x="180.69" y="-168.73" font-family="Times,serif" font-size="14.00">Deterministic</text>
</g>
<!-- hsgp_weights&#45;&gt;hsgp -->
<g id="edge4" class="edge">
<title>hsgp_weights&#45;&gt;hsgp</title>
<path fill="none" stroke="black" d="M180.69,-263.66C180.69,-251.68 180.69,-237.22 180.69,-224.19"/>
<polygon fill="black" stroke="black" points="184.19,-224.12 180.69,-214.12 177.19,-224.12 184.19,-224.12"/>
</g>
<!-- hsgp&#45;&gt;y -->
<g id="edge6" class="edge">
<title>hsgp&#45;&gt;y</title>
<path fill="none" stroke="black" d="M180.22,-160.89C180.02,-149.98 179.78,-136.89 179.55,-124.35"/>
<polygon fill="black" stroke="black" points="183.04,-123.94 179.36,-114 176.04,-124.06 183.04,-123.94"/>
</g>
</g>
</svg>
