<?xml version="1.0" encoding="UTF-8" standalone="no"?>
<!DOCTYPE svg PUBLIC "-//W3C//DTD SVG 1.1//EN"
 "http://www.w3.org/Graphics/SVG/1.1/DTD/svg11.dtd">
<!-- Generated by graphviz version 2.50.0 (0)
 -->
<!-- Pages: 1 -->
<svg width="525pt" height="552pt"
 viewBox="0.00 0.00 524.69 551.86" xmlns="http://www.w3.org/2000/svg" xmlns:xlink="http://www.w3.org/1999/xlink">
<g id="graph0" class="graph" transform="scale(1 1) rotate(0) translate(4 547.86)">
<polygon fill="white" stroke="transparent" points="-4,4 -4,-547.86 520.69,-547.86 520.69,4 -4,4"/>
<g id="clust1" class="cluster">
<title>clusterhsgp_by (3)</title>
<path fill="none" stroke="black" d="M254.69,-421.91C254.69,-421.91 496.69,-421.91 496.69,-421.91 502.69,-421.91 508.69,-427.91 508.69,-433.91 508.69,-433.91 508.69,-523.86 508.69,-523.86 508.69,-529.86 502.69,-535.86 496.69,-535.86 496.69,-535.86 254.69,-535.86 254.69,-535.86 248.69,-535.86 242.69,-529.86 242.69,-523.86 242.69,-523.86 242.69,-433.91 242.69,-433.91 242.69,-427.91 248.69,-421.91 254.69,-421.91"/>
<text text-anchor="middle" x="467.69" y="-429.71" font-family="Times,serif" font-size="14.00">hsgp_by (3)</text>
</g>
<g id="clust2" class="cluster">
<title>clusterhsgp_weights_dim (12) x hsgp_by (3)</title>
<path fill="none" stroke="black" d="M21.69,-329.91C21.69,-329.91 222.69,-329.91 222.69,-329.91 228.69,-329.91 234.69,-335.91 234.69,-341.91 234.69,-341.91 234.69,-523.86 234.69,-523.86 234.69,-529.86 228.69,-535.86 222.69,-535.86 222.69,-535.86 21.69,-535.86 21.69,-535.86 15.69,-535.86 9.69,-529.86 9.69,-523.86 9.69,-523.86 9.69,-341.91 9.69,-341.91 9.69,-335.91 15.69,-329.91 21.69,-329.91"/>
<text text-anchor="middle" x="122.19" y="-337.71" font-family="Times,serif" font-size="14.00">hsgp_weights_dim (12) x hsgp_by (3)</text>
</g>
<g id="clust3" class="cluster">
<title>cluster__obs__ (300)</title>
<path fill="none" stroke="black" d="M138.69,-8C138.69,-8 222.69,-8 222.69,-8 228.69,-8 234.69,-14 234.69,-20 234.69,-20 234.69,-309.91 234.69,-309.91 234.69,-315.91 228.69,-321.91 222.69,-321.91 222.69,-321.91 138.69,-321.91 138.69,-321.91 132.69,-321.91 126.69,-315.91 126.69,-309.91 126.69,-309.91 126.69,-20 126.69,-20 126.69,-14 132.69,-8 138.69,-8"/>
<text text-anchor="middle" x="187.19" y="-15.8" font-family="Times,serif" font-size="14.00">__obs__ (300)</text>
</g>
<!-- sigma -->
<g id="node1" class="node">
<title>sigma</title>
<ellipse fill="none" stroke="black" cx="58.69" cy="-187.43" rx="58.88" ry="37.45"/>
<text text-anchor="middle" x="58.69" y="-198.73" font-family="Times,serif" font-size="14.00">sigma</text>
<text text-anchor="middle" x="58.69" y="-183.73" font-family="Times,serif" font-size="14.00">~</text>
<text text-anchor="middle" x="58.69" y="-168.73" font-family="Times,serif" font-size="14.00">HalfNormal</text>
</g>
<!-- y -->
<g id="node7" class="node">
<title>y</title>
<ellipse fill="lightgrey" stroke="black" cx="178.69" cy="-76.48" rx="41.94" ry="37.45"/>
<text text-anchor="middle" x="178.69" y="-87.78" font-family="Times,serif" font-size="14.00">y</text>
<text text-anchor="middle" x="178.69" y="-72.78" font-family="Times,serif" font-size="14.00">~</text>
<text text-anchor="middle" x="178.69" y="-57.78" font-family="Times,serif" font-size="14.00">Normal</text>
</g>
<!-- sigma&#45;&gt;y -->
<g id="edge7" class="edge">
<title>sigma&#45;&gt;y</title>
<path fill="none" stroke="black" d="M91.8,-156.37C107.42,-142.19 126.1,-125.22 142.14,-110.66"/>
<polygon fill="black" stroke="black" points="144.72,-113.05 149.77,-103.73 140.02,-107.86 144.72,-113.05"/>
</g>
<!-- hsgp_sigma -->
<g id="node2" class="node">
<title>hsgp_sigma</title>
<ellipse fill="none" stroke="black" cx="442.69" cy="-490.38" rx="57.97" ry="37.45"/>
<text text-anchor="middle" x="442.69" y="-501.68" font-family="Times,serif" font-size="14.00">hsgp_sigma</text>
<text text-anchor="middle" x="442.69" y="-486.68" font-family="Times,serif" font-size="14.00">~</text>
<text text-anchor="middle" x="442.69" y="-471.68" font-family="Times,serif" font-size="14.00">Exponential</text>
</g>
<!-- hsgp_weights -->
<g id="node5" class="node">
<title>hsgp_weights</title>
<polygon fill="none" stroke="black" points="226.19,-413.91 135.19,-413.91 135.19,-360.91 226.19,-360.91 226.19,-413.91"/>
<text text-anchor="middle" x="180.69" y="-398.71" font-family="Times,serif" font-size="14.00">hsgp_weights</text>
<text text-anchor="middle" x="180.69" y="-383.71" font-family="Times,serif" font-size="14.00">~</text>
<text text-anchor="middle" x="180.69" y="-368.71" font-family="Times,serif" font-size="14.00">Deterministic</text>
</g>
<!-- hsgp_sigma&#45;&gt;hsgp_weights -->
<g id="edge1" class="edge">
<title>hsgp_sigma&#45;&gt;hsgp_weights</title>
<path fill="none" stroke="black" d="M417.58,-456.4C406.17,-443.67 391.65,-430.21 375.69,-421.91 332.42,-399.41 277.17,-391.56 236.54,-389.03"/>
<polygon fill="black" stroke="black" points="236.71,-385.54 226.54,-388.5 236.34,-392.53 236.71,-385.54"/>
</g>
<!-- hsgp_ell -->
<g id="node3" class="node">
<title>hsgp_ell</title>
<ellipse fill="none" stroke="black" cx="308.69" cy="-490.38" rx="57.97" ry="37.45"/>
<text text-anchor="middle" x="308.69" y="-501.68" font-family="Times,serif" font-size="14.00">hsgp_ell</text>
<text text-anchor="middle" x="308.69" y="-486.68" font-family="Times,serif" font-size="14.00">~</text>
<text text-anchor="middle" x="308.69" y="-471.68" font-family="Times,serif" font-size="14.00">Exponential</text>
</g>
<!-- hsgp_ell&#45;&gt;hsgp_weights -->
<g id="edge2" class="edge">
<title>hsgp_ell&#45;&gt;hsgp_weights</title>
<path fill="none" stroke="black" d="M279.14,-457.78C267.17,-445.84 252.85,-432.57 238.69,-421.91 237.47,-420.99 236.22,-420.08 234.96,-419.17"/>
<polygon fill="black" stroke="black" points="236.58,-416.05 226.34,-413.34 232.66,-421.84 236.58,-416.05"/>
</g>
<!-- hsgp_weights_raw -->
<g id="node4" class="node">
<title>hsgp_weights_raw</title>
<ellipse fill="none" stroke="black" cx="143.69" cy="-490.38" rx="83.38" ry="37.45"/>
<text text-anchor="middle" x="143.69" y="-501.68" font-family="Times,serif" font-size="14.00">hsgp_weights_raw</text>
<text text-anchor="middle" x="143.69" y="-486.68" font-family="Times,serif" font-size="14.00">~</text>
<text text-anchor="middle" x="143.69" y="-471.68" font-family="Times,serif" font-size="14.00">Normal</text>
</g>
<!-- hsgp_weights_raw&#45;&gt;hsgp_weights -->
<g id="edge3" class="edge">
<title>hsgp_weights_raw&#45;&gt;hsgp_weights</title>
<path fill="none" stroke="black" d="M156.94,-453.21C160.45,-443.64 164.24,-433.31 167.73,-423.78"/>
<polygon fill="black" stroke="black" points="171.09,-424.79 171.24,-414.2 164.51,-422.38 171.09,-424.79"/>
</g>
<!-- hsgp -->
<g id="node6" class="node">
<title>hsgp</title>
<polygon fill="none" stroke="black" points="226.19,-313.91 135.19,-313.91 135.19,-260.91 226.19,-260.91 226.19,-313.91"/>
<text text-anchor="middle" x="180.69" y="-298.71" font-family="Times,serif" font-size="14.00">hsgp</text>
<text text-anchor="middle" x="180.69" y="-283.71" font-family="Times,serif" font-size="14.00">~</text>
<text text-anchor="middle" x="180.69" y="-268.71" font-family="Times,serif" font-size="14.00">Deterministic</text>
</g>
<!-- hsgp_weights&#45;&gt;hsgp -->
<g id="edge4" class="edge">
<title>hsgp_weights&#45;&gt;hsgp</title>
<path fill="none" stroke="black" d="M180.69,-360.66C180.69,-349.52 180.69,-336.29 180.69,-324.21"/>
<polygon fill="black" stroke="black" points="184.19,-323.98 180.69,-313.98 177.19,-323.98 184.19,-323.98"/>
</g>
<!-- mu -->
<g id="node8" class="node">
<title>mu</title>
<polygon fill="none" stroke="black" points="226.19,-213.93 135.19,-213.93 135.19,-160.93 226.19,-160.93 226.19,-213.93"/>
<text text-anchor="middle" x="180.69" y="-198.73" font-family="Times,serif" font-size="14.00">mu</text>
<text text-anchor="middle" x="180.69" y="-183.73" font-family="Times,serif" font-size="14.00">~</text>
<text text-anchor="middle" x="180.69" y="-168.73" font-family="Times,serif" font-size="14.00">Deterministic</text>
</g>
<!-- hsgp&#45;&gt;mu -->
<g id="edge5" class="edge">
<title>hsgp&#45;&gt;mu</title>
<path fill="none" stroke="black" d="M180.69,-260.66C180.69,-249.53 180.69,-236.3 180.69,-224.23"/>
<polygon fill="black" stroke="black" points="184.19,-224 180.69,-214 177.19,-224 184.19,-224"/>
</g>
<!-- mu&#45;&gt;y -->
<g id="edge6" class="edge">
<title>mu&#45;&gt;y</title>
<path fill="none" stroke="black" d="M180.22,-160.89C180.02,-149.98 179.78,-136.89 179.55,-124.35"/>
<polygon fill="black" stroke="black" points="183.04,-123.94 179.36,-114 176.04,-124.06 183.04,-123.94"/>
</g>
</g>
</svg>
