<?xml version="1.0" encoding="UTF-8" standalone="no"?>
<!DOCTYPE svg PUBLIC "-//W3C//DTD SVG 1.1//EN"
 "http://www.w3.org/Graphics/SVG/1.1/DTD/svg11.dtd">
<!-- Generated by graphviz version 2.43.0 (0)
 -->
<!-- Title: %3 Pages: 1 -->
<svg width="635pt" height="552pt"
 viewBox="0.00 0.00 635.00 551.86" xmlns="http://www.w3.org/2000/svg" xmlns:xlink="http://www.w3.org/1999/xlink">
<g id="graph0" class="graph" transform="scale(1 1) rotate(0) translate(4 547.86)">
<title>%3</title>
<polygon fill="white" stroke="transparent" points="-4,4 -4,-547.86 631,-547.86 631,4 -4,4"/>
<g id="clust1" class="cluster">
<title>clusterhsgp_by (3)</title>
<path fill="none" stroke="black" d="M309,-421.91C309,-421.91 607,-421.91 607,-421.91 613,-421.91 619,-427.91 619,-433.91 619,-433.91 619,-523.86 619,-523.86 619,-529.86 613,-535.86 607,-535.86 607,-535.86 309,-535.86 309,-535.86 303,-535.86 297,-529.86 297,-523.86 297,-523.86 297,-433.91 297,-433.91 297,-427.91 303,-421.91 309,-421.91"/>
<text text-anchor="middle" x="569.5" y="-429.71" font-family="Times,serif" font-size="14.00">hsgp_by (3)</text>
</g>
<g id="clust2" class="cluster">
<title>clusterhsgp_weights_dim (12) x hsgp_by (3)</title>
<path fill="none" stroke="black" d="M20,-329.91C20,-329.91 277,-329.91 277,-329.91 283,-329.91 289,-335.91 289,-341.91 289,-341.91 289,-523.86 289,-523.86 289,-529.86 283,-535.86 277,-535.86 277,-535.86 20,-535.86 20,-535.86 14,-535.86 8,-529.86 8,-523.86 8,-523.86 8,-341.91 8,-341.91 8,-335.91 14,-329.91 20,-329.91"/>
<text text-anchor="middle" x="148.5" y="-337.71" font-family="Times,serif" font-size="14.00">hsgp_weights_dim (12) x hsgp_by (3)</text>
</g>
<g id="clust3" class="cluster">
<title>cluster__obs__ (300)</title>
<path fill="none" stroke="black" d="M171,-8C171,-8 277,-8 277,-8 283,-8 289,-14 289,-20 289,-20 289,-309.91 289,-309.91 289,-315.91 283,-321.91 277,-321.91 277,-321.91 171,-321.91 171,-321.91 165,-321.91 159,-315.91 159,-309.91 159,-309.91 159,-20 159,-20 159,-14 165,-8 171,-8"/>
<text text-anchor="middle" x="234" y="-15.8" font-family="Times,serif" font-size="14.00">__obs__ (300)</text>
</g>
<!-- sigma -->
<g id="node1" class="node">
<title>sigma</title>
<ellipse fill="none" stroke="black" cx="80" cy="-187.43" rx="68.68" ry="37.45"/>
<text text-anchor="middle" x="80" y="-198.73" font-family="Times,serif" font-size="14.00">sigma</text>
<text text-anchor="middle" x="80" y="-183.73" font-family="Times,serif" font-size="14.00">~</text>
<text text-anchor="middle" x="80" y="-168.73" font-family="Times,serif" font-size="14.00">Halfnormal</text>
</g>
<!-- y -->
<g id="node8" class="node">
<title>y</title>
<ellipse fill="lightgrey" stroke="black" cx="220" cy="-76.48" rx="49.49" ry="37.45"/>
<text text-anchor="middle" x="220" y="-87.78" font-family="Times,serif" font-size="14.00">y</text>
<text text-anchor="middle" x="220" y="-72.78" font-family="Times,serif" font-size="14.00">~</text>
<text text-anchor="middle" x="220" y="-57.78" font-family="Times,serif" font-size="14.00">Normal</text>
</g>
<!-- sigma&#45;&gt;y -->
<g id="edge7" class="edge">
<title>sigma&#45;&gt;y</title>
<path fill="none" stroke="black" d="M118.63,-156.37C136.96,-142.1 158.91,-125.02 177.69,-110.41"/>
<polygon fill="black" stroke="black" points="180.05,-113 185.79,-104.1 175.75,-107.48 180.05,-113"/>
</g>
<!-- hsgp_sigma -->
<g id="node2" class="node">
<title>hsgp_sigma</title>
<ellipse fill="none" stroke="black" cx="539" cy="-490.38" rx="72.25" ry="37.45"/>
<text text-anchor="middle" x="539" y="-501.68" font-family="Times,serif" font-size="14.00">hsgp_sigma</text>
<text text-anchor="middle" x="539" y="-486.68" font-family="Times,serif" font-size="14.00">~</text>
<text text-anchor="middle" x="539" y="-471.68" font-family="Times,serif" font-size="14.00">Exponential</text>
</g>
<!-- hsgp_weights -->
<g id="node4" class="node">
<title>hsgp_weights</title>
<polygon fill="none" stroke="black" points="281,-413.91 167,-413.91 167,-360.91 281,-360.91 281,-413.91"/>
<text text-anchor="middle" x="224" y="-398.71" font-family="Times,serif" font-size="14.00">hsgp_weights</text>
<text text-anchor="middle" x="224" y="-383.71" font-family="Times,serif" font-size="14.00">~</text>
<text text-anchor="middle" x="224" y="-368.71" font-family="Times,serif" font-size="14.00">Deterministic</text>
</g>
<!-- hsgp_sigma&#45;&gt;hsgp_weights -->
<g id="edge1" class="edge">
<title>hsgp_sigma&#45;&gt;hsgp_weights</title>
<path fill="none" stroke="black" d="M507.58,-456.21C493.62,-443.45 476.23,-430.01 458,-421.91 405.14,-398.4 339.54,-390.63 291.26,-388.38"/>
<polygon fill="black" stroke="black" points="291.36,-384.88 281.23,-387.98 291.08,-391.88 291.36,-384.88"/>
</g>
<!-- hsgp_ell -->
<g id="node3" class="node">
<title>hsgp_ell</title>
<ellipse fill="none" stroke="black" cx="377" cy="-490.38" rx="72.25" ry="37.45"/>
<text text-anchor="middle" x="377" y="-501.68" font-family="Times,serif" font-size="14.00">hsgp_ell</text>
<text text-anchor="middle" x="377" y="-486.68" font-family="Times,serif" font-size="14.00">~</text>
<text text-anchor="middle" x="377" y="-471.68" font-family="Times,serif" font-size="14.00">Exponential</text>
</g>
<!-- hsgp_ell&#45;&gt;hsgp_weights -->
<g id="edge2" class="edge">
<title>hsgp_ell&#45;&gt;hsgp_weights</title>
<path fill="none" stroke="black" d="M341.12,-457.61C326.71,-445.65 309.6,-432.41 293,-421.91 291.53,-420.98 290.03,-420.05 288.51,-419.14"/>
<polygon fill="black" stroke="black" points="290,-415.96 279.59,-414.02 286.52,-422.04 290,-415.96"/>
</g>
<!-- hsgp -->
<g id="node6" class="node">
<title>hsgp</title>
<polygon fill="none" stroke="black" points="281,-313.91 167,-313.91 167,-260.91 281,-260.91 281,-313.91"/>
<text text-anchor="middle" x="224" y="-298.71" font-family="Times,serif" font-size="14.00">hsgp</text>
<text text-anchor="middle" x="224" y="-283.71" font-family="Times,serif" font-size="14.00">~</text>
<text text-anchor="middle" x="224" y="-268.71" font-family="Times,serif" font-size="14.00">Deterministic</text>
</g>
<!-- hsgp_weights&#45;&gt;hsgp -->
<g id="edge4" class="edge">
<title>hsgp_weights&#45;&gt;hsgp</title>
<path fill="none" stroke="black" d="M224,-360.66C224,-349.52 224,-336.29 224,-324.21"/>
<polygon fill="black" stroke="black" points="227.5,-323.98 224,-313.98 220.5,-323.98 227.5,-323.98"/>
</g>
<!-- hsgp_weights_raw -->
<g id="node5" class="node">
<title>hsgp_weights_raw</title>
<ellipse fill="none" stroke="black" cx="176" cy="-490.38" rx="104.8" ry="37.45"/>
<text text-anchor="middle" x="176" y="-501.68" font-family="Times,serif" font-size="14.00">hsgp_weights_raw</text>
<text text-anchor="middle" x="176" y="-486.68" font-family="Times,serif" font-size="14.00">~</text>
<text text-anchor="middle" x="176" y="-471.68" font-family="Times,serif" font-size="14.00">Normal</text>
</g>
<!-- hsgp_weights_raw&#45;&gt;hsgp_weights -->
<g id="edge3" class="edge">
<title>hsgp_weights_raw&#45;&gt;hsgp_weights</title>
<path fill="none" stroke="black" d="M193.19,-453.21C197.79,-443.54 202.76,-433.09 207.33,-423.48"/>
<polygon fill="black" stroke="black" points="210.61,-424.73 211.74,-414.2 204.29,-421.72 210.61,-424.73"/>
</g>
<!-- mu -->
<g id="node7" class="node">
<title>mu</title>
<polygon fill="none" stroke="black" points="281,-213.93 167,-213.93 167,-160.93 281,-160.93 281,-213.93"/>
<text text-anchor="middle" x="224" y="-198.73" font-family="Times,serif" font-size="14.00">mu</text>
<text text-anchor="middle" x="224" y="-183.73" font-family="Times,serif" font-size="14.00">~</text>
<text text-anchor="middle" x="224" y="-168.73" font-family="Times,serif" font-size="14.00">Deterministic</text>
</g>
<!-- hsgp&#45;&gt;mu -->
<g id="edge5" class="edge">
<title>hsgp&#45;&gt;mu</title>
<path fill="none" stroke="black" d="M224,-260.66C224,-249.53 224,-236.3 224,-224.23"/>
<polygon fill="black" stroke="black" points="227.5,-224 224,-214 220.5,-224 227.5,-224"/>
</g>
<!-- mu&#45;&gt;y -->
<g id="edge6" class="edge">
<title>mu&#45;&gt;y</title>
<path fill="none" stroke="black" d="M223.06,-160.89C222.66,-149.98 222.18,-136.89 221.72,-124.35"/>
<polygon fill="black" stroke="black" points="225.21,-123.87 221.34,-114 218.21,-124.12 225.21,-123.87"/>
</g>
</g>
</svg>
