<?xml version="1.0" encoding="UTF-8" standalone="no"?>
<!DOCTYPE svg PUBLIC "-//W3C//DTD SVG 1.1//EN"
 "http://www.w3.org/Graphics/SVG/1.1/DTD/svg11.dtd">
<!-- Generated by graphviz version 2.50.0 (0)
 -->
<!-- Pages: 1 -->
<svg width="481pt" height="549pt"
 viewBox="0.00 0.00 480.97 548.86" xmlns="http://www.w3.org/2000/svg" xmlns:xlink="http://www.w3.org/1999/xlink">
<g id="graph0" class="graph" transform="scale(1 1) rotate(0) translate(4 544.86)">
<polygon fill="white" stroke="transparent" points="-4,4 -4,-544.86 476.97,-544.86 476.97,4 -4,4"/>
<g id="clust1" class="cluster">
<title>clusterhsgp_weights_dim (12) x hsgp_by (3)</title>
<path fill="none" stroke="black" d="M135.98,-329.91C135.98,-329.91 336.98,-329.91 336.98,-329.91 342.98,-329.91 348.98,-335.91 348.98,-341.91 348.98,-341.91 348.98,-520.86 348.98,-520.86 348.98,-526.86 342.98,-532.86 336.98,-532.86 336.98,-532.86 135.98,-532.86 135.98,-532.86 129.98,-532.86 123.98,-526.86 123.98,-520.86 123.98,-520.86 123.98,-341.91 123.98,-341.91 123.98,-335.91 129.98,-329.91 135.98,-329.91"/>
<text text-anchor="middle" x="236.48" y="-337.71" font-family="Times,serif" font-size="14.00">hsgp_weights_dim (12) x hsgp_by (3)</text>
</g>
<g id="clust2" class="cluster">
<title>cluster__obs__ (300)</title>
<path fill="none" stroke="black" d="M193.98,-8C193.98,-8 277.98,-8 277.98,-8 283.98,-8 289.98,-14 289.98,-20 289.98,-20 289.98,-309.91 289.98,-309.91 289.98,-315.91 283.98,-321.91 277.98,-321.91 277.98,-321.91 193.98,-321.91 193.98,-321.91 187.98,-321.91 181.98,-315.91 181.98,-309.91 181.98,-309.91 181.98,-20 181.98,-20 181.98,-14 187.98,-8 193.98,-8"/>
<text text-anchor="middle" x="242.48" y="-15.8" font-family="Times,serif" font-size="14.00">__obs__ (300)</text>
</g>
<!-- hsgp_sigma -->
<g id="node1" class="node">
<title>hsgp_sigma</title>
<ellipse fill="none" stroke="black" cx="57.98" cy="-487.38" rx="57.97" ry="37.45"/>
<text text-anchor="middle" x="57.98" y="-498.68" font-family="Times,serif" font-size="14.00">hsgp_sigma</text>
<text text-anchor="middle" x="57.98" y="-483.68" font-family="Times,serif" font-size="14.00">~</text>
<text text-anchor="middle" x="57.98" y="-468.68" font-family="Times,serif" font-size="14.00">Exponential</text>
</g>
<!-- hsgp_weights -->
<g id="node5" class="node">
<title>hsgp_weights</title>
<polygon fill="none" stroke="black" points="281.48,-413.91 190.48,-413.91 190.48,-360.91 281.48,-360.91 281.48,-413.91"/>
<text text-anchor="middle" x="235.98" y="-398.71" font-family="Times,serif" font-size="14.00">hsgp_weights</text>
<text text-anchor="middle" x="235.98" y="-383.71" font-family="Times,serif" font-size="14.00">~</text>
<text text-anchor="middle" x="235.98" y="-368.71" font-family="Times,serif" font-size="14.00">Deterministic</text>
</g>
<!-- hsgp_sigma&#45;&gt;hsgp_weights -->
<g id="edge1" class="edge">
<title>hsgp_sigma&#45;&gt;hsgp_weights</title>
<path fill="none" stroke="black" d="M99.86,-461.41C106.56,-457.51 113.44,-453.56 119.98,-449.91 139.82,-438.82 161.8,-427.04 181.25,-416.79"/>
<polygon fill="black" stroke="black" points="183.06,-419.79 190.28,-412.04 179.8,-413.6 183.06,-419.79"/>
</g>
<!-- hsgp_ell -->
<g id="node2" class="node">
<title>hsgp_ell</title>
<ellipse fill="none" stroke="black" cx="414.98" cy="-487.38" rx="57.97" ry="37.45"/>
<text text-anchor="middle" x="414.98" y="-498.68" font-family="Times,serif" font-size="14.00">hsgp_ell</text>
<text text-anchor="middle" x="414.98" y="-483.68" font-family="Times,serif" font-size="14.00">~</text>
<text text-anchor="middle" x="414.98" y="-468.68" font-family="Times,serif" font-size="14.00">Exponential</text>
</g>
<!-- hsgp_ell&#45;&gt;hsgp_weights -->
<g id="edge2" class="edge">
<title>hsgp_ell&#45;&gt;hsgp_weights</title>
<path fill="none" stroke="black" d="M373.12,-461.39C366.41,-457.49 359.53,-453.55 352.98,-449.91 332.73,-438.63 310.24,-426.68 290.43,-416.34"/>
<polygon fill="black" stroke="black" points="292.02,-413.22 281.54,-411.71 288.79,-419.43 292.02,-413.22"/>
</g>
<!-- sigma -->
<g id="node3" class="node">
<title>sigma</title>
<ellipse fill="none" stroke="black" cx="357.98" cy="-187.43" rx="58.88" ry="37.45"/>
<text text-anchor="middle" x="357.98" y="-198.73" font-family="Times,serif" font-size="14.00">sigma</text>
<text text-anchor="middle" x="357.98" y="-183.73" font-family="Times,serif" font-size="14.00">~</text>
<text text-anchor="middle" x="357.98" y="-168.73" font-family="Times,serif" font-size="14.00">HalfNormal</text>
</g>
<!-- y -->
<g id="node7" class="node">
<title>y</title>
<ellipse fill="lightgrey" stroke="black" cx="237.98" cy="-76.48" rx="41.94" ry="37.45"/>
<text text-anchor="middle" x="237.98" y="-87.78" font-family="Times,serif" font-size="14.00">y</text>
<text text-anchor="middle" x="237.98" y="-72.78" font-family="Times,serif" font-size="14.00">~</text>
<text text-anchor="middle" x="237.98" y="-57.78" font-family="Times,serif" font-size="14.00">Normal</text>
</g>
<!-- sigma&#45;&gt;y -->
<g id="edge7" class="edge">
<title>sigma&#45;&gt;y</title>
<path fill="none" stroke="black" d="M324.87,-156.37C309.25,-142.19 290.57,-125.22 274.53,-110.66"/>
<polygon fill="black" stroke="black" points="276.66,-107.86 266.9,-103.73 271.95,-113.05 276.66,-107.86"/>
</g>
<!-- hsgp_weights_raw -->
<g id="node4" class="node">
<title>hsgp_weights_raw</title>
<ellipse fill="none" stroke="black" cx="235.98" cy="-487.38" rx="83.38" ry="37.45"/>
<text text-anchor="middle" x="235.98" y="-498.68" font-family="Times,serif" font-size="14.00">hsgp_weights_raw</text>
<text text-anchor="middle" x="235.98" y="-483.68" font-family="Times,serif" font-size="14.00">~</text>
<text text-anchor="middle" x="235.98" y="-468.68" font-family="Times,serif" font-size="14.00">Normal</text>
</g>
<!-- hsgp_weights_raw&#45;&gt;hsgp_weights -->
<g id="edge3" class="edge">
<title>hsgp_weights_raw&#45;&gt;hsgp_weights</title>
<path fill="none" stroke="black" d="M235.98,-449.9C235.98,-441.48 235.98,-432.54 235.98,-424.16"/>
<polygon fill="black" stroke="black" points="239.48,-423.92 235.98,-413.92 232.48,-423.92 239.48,-423.92"/>
</g>
<!-- hsgp -->
<g id="node6" class="node">
<title>hsgp</title>
<polygon fill="none" stroke="black" points="281.48,-313.91 190.48,-313.91 190.48,-260.91 281.48,-260.91 281.48,-313.91"/>
<text text-anchor="middle" x="235.98" y="-298.71" font-family="Times,serif" font-size="14.00">hsgp</text>
<text text-anchor="middle" x="235.98" y="-283.71" font-family="Times,serif" font-size="14.00">~</text>
<text text-anchor="middle" x="235.98" y="-268.71" font-family="Times,serif" font-size="14.00">Deterministic</text>
</g>
<!-- hsgp_weights&#45;&gt;hsgp -->
<g id="edge4" class="edge">
<title>hsgp_weights&#45;&gt;hsgp</title>
<path fill="none" stroke="black" d="M235.98,-360.66C235.98,-349.52 235.98,-336.29 235.98,-324.21"/>
<polygon fill="black" stroke="black" points="239.48,-323.98 235.98,-313.98 232.48,-323.98 239.48,-323.98"/>
</g>
<!-- mu -->
<g id="node8" class="node">
<title>mu</title>
<polygon fill="none" stroke="black" points="281.48,-213.93 190.48,-213.93 190.48,-160.93 281.48,-160.93 281.48,-213.93"/>
<text text-anchor="middle" x="235.98" y="-198.73" font-family="Times,serif" font-size="14.00">mu</text>
<text text-anchor="middle" x="235.98" y="-183.73" font-family="Times,serif" font-size="14.00">~</text>
<text text-anchor="middle" x="235.98" y="-168.73" font-family="Times,serif" font-size="14.00">Deterministic</text>
</g>
<!-- hsgp&#45;&gt;mu -->
<g id="edge5" class="edge">
<title>hsgp&#45;&gt;mu</title>
<path fill="none" stroke="black" d="M235.98,-260.66C235.98,-249.53 235.98,-236.3 235.98,-224.23"/>
<polygon fill="black" stroke="black" points="239.48,-224 235.98,-214 232.48,-224 239.48,-224"/>
</g>
<!-- mu&#45;&gt;y -->
<g id="edge6" class="edge">
<title>mu&#45;&gt;y</title>
<path fill="none" stroke="black" d="M236.45,-160.89C236.65,-149.98 236.89,-136.89 237.12,-124.35"/>
<polygon fill="black" stroke="black" points="240.63,-124.06 237.31,-114 233.63,-123.94 240.63,-124.06"/>
</g>
</g>
</svg>
