<?xml version="1.0" encoding="UTF-8" standalone="no"?>
<!DOCTYPE svg PUBLIC "-//W3C//DTD SVG 1.1//EN"
 "http://www.w3.org/Graphics/SVG/1.1/DTD/svg11.dtd">
<!-- Generated by graphviz version 13.1.2 (20250809.0930)
 -->
<!-- Pages: 1 -->
<svg width="495pt" height="580pt"
 viewBox="0.00 0.00 495.00 580.00" xmlns="http://www.w3.org/2000/svg" xmlns:xlink="http://www.w3.org/1999/xlink">
<g id="graph0" class="graph" transform="scale(1 1) rotate(0) translate(4 575.95)">
<polygon fill="white" stroke="none" points="-4,4 -4,-575.95 491.45,-575.95 491.45,4 -4,4"/>
<g id="clust1" class="cluster">
<title>clusterhsgp_weights_dim (12) x hsgp_by (3)</title>
<path fill="none" stroke="black" d="M20,-348.63C20,-348.63 220,-348.63 220,-348.63 226,-348.63 232,-354.63 232,-360.63 232,-360.63 232,-551.95 232,-551.95 232,-557.95 226,-563.95 220,-563.95 220,-563.95 20,-563.95 20,-563.95 14,-563.95 8,-557.95 8,-551.95 8,-551.95 8,-360.63 8,-360.63 8,-354.63 14,-348.63 20,-348.63"/>
<text xml:space="preserve" text-anchor="middle" x="119.75" y="-355.83" font-family="Times,serif" font-size="14.00">hsgp_weights_dim (12) x hsgp_by (3)</text>
</g>
<g id="clust2" class="cluster">
<title>cluster__obs__ (300)</title>
<path fill="none" stroke="black" d="M138,-8C138,-8 220,-8 220,-8 226,-8 232,-14 232,-20 232,-20 232,-328.63 232,-328.63 232,-334.63 226,-340.63 220,-340.63 220,-340.63 138,-340.63 138,-340.63 132,-340.63 126,-334.63 126,-328.63 126,-328.63 126,-20 126,-20 126,-14 132,-8 138,-8"/>
<text xml:space="preserve" text-anchor="middle" x="184.62" y="-15.2" font-family="Times,serif" font-size="14.00">__obs__ (300)</text>
</g>
<!-- sigma -->
<g id="node1" class="node">
<title>sigma</title>
<ellipse fill="none" stroke="black" cx="60" cy="-198.48" rx="55.86" ry="40.66"/>
<text xml:space="preserve" text-anchor="middle" x="60" y="-209.93" font-family="Times,serif" font-size="14.00">sigma</text>
<text xml:space="preserve" text-anchor="middle" x="60" y="-193.43" font-family="Times,serif" font-size="14.00">~</text>
<text xml:space="preserve" text-anchor="middle" x="60" y="-176.93" font-family="Times,serif" font-size="14.00">Halfnormal</text>
</g>
<!-- y -->
<g id="node7" class="node">
<title>y</title>
<ellipse fill="lightgrey" stroke="black" cx="177" cy="-81.16" rx="41.01" ry="40.66"/>
<text xml:space="preserve" text-anchor="middle" x="177" y="-92.61" font-family="Times,serif" font-size="14.00">y</text>
<text xml:space="preserve" text-anchor="middle" x="177" y="-76.11" font-family="Times,serif" font-size="14.00">~</text>
<text xml:space="preserve" text-anchor="middle" x="177" y="-59.61" font-family="Times,serif" font-size="14.00">Normal</text>
</g>
<!-- sigma&#45;&gt;y -->
<g id="edge6" class="edge">
<title>sigma&#45;&gt;y</title>
<path fill="none" stroke="black" d="M92.59,-165.35C107.31,-150.85 124.77,-133.64 139.98,-118.64"/>
<polygon fill="black" stroke="black" points="142.43,-121.15 147.09,-111.64 137.51,-116.16 142.43,-121.15"/>
</g>
<!-- hsgp_ell -->
<g id="node2" class="node">
<title>hsgp_ell</title>
<ellipse fill="none" stroke="black" cx="297" cy="-515.29" rx="57.45" ry="40.66"/>
<text xml:space="preserve" text-anchor="middle" x="297" y="-526.74" font-family="Times,serif" font-size="14.00">hsgp_ell</text>
<text xml:space="preserve" text-anchor="middle" x="297" y="-510.24" font-family="Times,serif" font-size="14.00">~</text>
<text xml:space="preserve" text-anchor="middle" x="297" y="-493.74" font-family="Times,serif" font-size="14.00">Exponential</text>
</g>
<!-- hsgp_weights -->
<g id="node4" class="node">
<title>hsgp_weights</title>
<polygon fill="none" stroke="black" points="224.12,-438.63 133.88,-438.63 133.88,-381.13 224.12,-381.13 224.12,-438.63"/>
<text xml:space="preserve" text-anchor="middle" x="179" y="-421.33" font-family="Times,serif" font-size="14.00">hsgp_weights</text>
<text xml:space="preserve" text-anchor="middle" x="179" y="-404.83" font-family="Times,serif" font-size="14.00">~</text>
<text xml:space="preserve" text-anchor="middle" x="179" y="-388.33" font-family="Times,serif" font-size="14.00">Deterministic</text>
</g>
<!-- hsgp_ell&#45;&gt;hsgp_weights -->
<g id="edge1" class="edge">
<title>hsgp_ell&#45;&gt;hsgp_weights</title>
<path fill="none" stroke="black" d="M261.28,-482.99C248.14,-471.48 233.18,-458.36 219.65,-446.5"/>
<polygon fill="black" stroke="black" points="221.96,-443.88 212.13,-439.92 217.35,-449.14 221.96,-443.88"/>
</g>
<!-- hsgp_sigma -->
<g id="node3" class="node">
<title>hsgp_sigma</title>
<ellipse fill="none" stroke="black" cx="430" cy="-515.29" rx="57.45" ry="40.66"/>
<text xml:space="preserve" text-anchor="middle" x="430" y="-526.74" font-family="Times,serif" font-size="14.00">hsgp_sigma</text>
<text xml:space="preserve" text-anchor="middle" x="430" y="-510.24" font-family="Times,serif" font-size="14.00">~</text>
<text xml:space="preserve" text-anchor="middle" x="430" y="-493.74" font-family="Times,serif" font-size="14.00">Exponential</text>
</g>
<!-- hsgp_sigma&#45;&gt;hsgp_weights -->
<g id="edge3" class="edge">
<title>hsgp_sigma&#45;&gt;hsgp_weights</title>
<path fill="none" stroke="black" d="M387.44,-487.38C379.47,-482.84 371.09,-478.39 363,-474.63 321.4,-455.36 272.24,-438.61 235.2,-427.13"/>
<polygon fill="black" stroke="black" points="236.64,-423.91 226.06,-424.33 234.59,-430.6 236.64,-423.91"/>
</g>
<!-- hsgp -->
<g id="node6" class="node">
<title>hsgp</title>
<polygon fill="none" stroke="black" points="224.12,-332.63 133.88,-332.63 133.88,-275.13 224.12,-275.13 224.12,-332.63"/>
<text xml:space="preserve" text-anchor="middle" x="179" y="-315.33" font-family="Times,serif" font-size="14.00">hsgp</text>
<text xml:space="preserve" text-anchor="middle" x="179" y="-298.83" font-family="Times,serif" font-size="14.00">~</text>
<text xml:space="preserve" text-anchor="middle" x="179" y="-282.33" font-family="Times,serif" font-size="14.00">Deterministic</text>
</g>
<!-- hsgp_weights&#45;&gt;hsgp -->
<g id="edge4" class="edge">
<title>hsgp_weights&#45;&gt;hsgp</title>
<path fill="none" stroke="black" d="M179,-380.74C179,-369.53 179,-356.42 179,-344.29"/>
<polygon fill="black" stroke="black" points="182.5,-344.56 179,-334.56 175.5,-344.56 182.5,-344.56"/>
</g>
<!-- hsgp_weights_raw -->
<g id="node5" class="node">
<title>hsgp_weights_raw</title>
<ellipse fill="none" stroke="black" cx="139" cy="-515.29" rx="82.91" ry="40.66"/>
<text xml:space="preserve" text-anchor="middle" x="139" y="-526.74" font-family="Times,serif" font-size="14.00">hsgp_weights_raw</text>
<text xml:space="preserve" text-anchor="middle" x="139" y="-510.24" font-family="Times,serif" font-size="14.00">~</text>
<text xml:space="preserve" text-anchor="middle" x="139" y="-493.74" font-family="Times,serif" font-size="14.00">Normal</text>
</g>
<!-- hsgp_weights_raw&#45;&gt;hsgp_weights -->
<g id="edge2" class="edge">
<title>hsgp_weights_raw&#45;&gt;hsgp_weights</title>
<path fill="none" stroke="black" d="M154.24,-474.9C157.46,-466.57 160.86,-457.78 164.07,-449.48"/>
<polygon fill="black" stroke="black" points="167.27,-450.92 167.61,-440.33 160.74,-448.39 167.27,-450.92"/>
</g>
<!-- mu -->
<g id="node8" class="node">
<title>mu</title>
<polygon fill="none" stroke="black" points="224.12,-227.23 133.88,-227.23 133.88,-169.73 224.12,-169.73 224.12,-227.23"/>
<text xml:space="preserve" text-anchor="middle" x="179" y="-209.93" font-family="Times,serif" font-size="14.00">mu</text>
<text xml:space="preserve" text-anchor="middle" x="179" y="-193.43" font-family="Times,serif" font-size="14.00">~</text>
<text xml:space="preserve" text-anchor="middle" x="179" y="-176.93" font-family="Times,serif" font-size="14.00">Deterministic</text>
</g>
<!-- hsgp&#45;&gt;mu -->
<g id="edge5" class="edge">
<title>hsgp&#45;&gt;mu</title>
<path fill="none" stroke="black" d="M179,-274.9C179,-263.75 179,-250.72 179,-238.66"/>
<polygon fill="black" stroke="black" points="182.5,-239 179,-229 175.5,-239 182.5,-239"/>
</g>
<!-- mu&#45;&gt;y -->
<g id="edge7" class="edge">
<title>mu&#45;&gt;y</title>
<path fill="none" stroke="black" d="M178.51,-169.27C178.32,-158.44 178.1,-145.73 177.89,-133.41"/>
<polygon fill="black" stroke="black" points="181.39,-133.72 177.72,-123.78 174.4,-133.84 181.39,-133.72"/>
</g>
</g>
</svg>
