<?xml version="1.0" encoding="UTF-8" standalone="no"?>
<!DOCTYPE svg PUBLIC "-//W3C//DTD SVG 1.1//EN"
 "http://www.w3.org/Graphics/SVG/1.1/DTD/svg11.dtd">
<!-- Generated by graphviz version 2.47.0 (20210327.0129)
 -->
<!-- Pages: 1 -->
<svg width="804pt" height="363pt"
 viewBox="0.00 0.00 804.29 362.88" xmlns="http://www.w3.org/2000/svg" xmlns:xlink="http://www.w3.org/1999/xlink">
<g id="graph0" class="graph" transform="scale(1 1) rotate(0) translate(4 358.88)">
<polygon fill="white" stroke="transparent" points="-4,4 -4,-358.88 800.29,-358.88 800.29,4 -4,4"/>
<g id="clust1" class="cluster">
<title>cluster2</title>
<path fill="none" stroke="black" d="M20,-232.93C20,-232.93 344,-232.93 344,-232.93 350,-232.93 356,-238.93 356,-244.93 356,-244.93 356,-334.88 356,-334.88 356,-340.88 350,-346.88 344,-346.88 344,-346.88 20,-346.88 20,-346.88 14,-346.88 8,-340.88 8,-334.88 8,-334.88 8,-244.93 8,-244.93 8,-238.93 14,-232.93 20,-232.93"/>
<text text-anchor="middle" x="343" y="-240.73" font-family="Times-Roman" font-size="14.00">2</text>
</g>
<g id="clust2" class="cluster">
<title>cluster85 x 2</title>
<path fill="none" stroke="black" d="M376,-129.95C376,-129.95 580,-129.95 580,-129.95 586,-129.95 592,-135.95 592,-141.95 592,-141.95 592,-334.88 592,-334.88 592,-340.88 586,-346.88 580,-346.88 580,-346.88 376,-346.88 376,-346.88 370,-346.88 364,-340.88 364,-334.88 364,-334.88 364,-141.95 364,-141.95 364,-135.95 370,-129.95 376,-129.95"/>
<text text-anchor="middle" x="561.5" y="-137.75" font-family="Times-Roman" font-size="14.00">85 x 2</text>
</g>
<g id="clust3" class="cluster">
<title>cluster919</title>
<path fill="none" stroke="black" d="M395,-8C395,-8 511,-8 511,-8 517,-8 523,-14 523,-20 523,-20 523,-109.95 523,-109.95 523,-115.95 517,-121.95 511,-121.95 511,-121.95 395,-121.95 395,-121.95 389,-121.95 383,-115.95 383,-109.95 383,-109.95 383,-20 383,-20 383,-14 389,-8 395,-8"/>
<text text-anchor="middle" x="501" y="-15.8" font-family="Times-Roman" font-size="14.00">919</text>
</g>
<!-- floor -->
<g id="node1" class="node">
<title>floor</title>
<ellipse fill="none" stroke="black" cx="65" cy="-301.41" rx="48.58" ry="37.45"/>
<text text-anchor="middle" x="65" y="-312.71" font-family="Times-Roman" font-size="14.00">floor</text>
<text text-anchor="middle" x="65" y="-297.71" font-family="Times-Roman" font-size="14.00">~</text>
<text text-anchor="middle" x="65" y="-282.71" font-family="Times-Roman" font-size="14.00">Normal</text>
</g>
<!-- log_radon -->
<g id="node6" class="node">
<title>log_radon</title>
<ellipse fill="lightgrey" stroke="black" cx="453" cy="-76.48" rx="62.45" ry="37.45"/>
<text text-anchor="middle" x="453" y="-87.78" font-family="Times-Roman" font-size="14.00">log_radon</text>
<text text-anchor="middle" x="453" y="-72.78" font-family="Times-Roman" font-size="14.00">~</text>
<text text-anchor="middle" x="453" y="-57.78" font-family="Times-Roman" font-size="14.00">Normal</text>
</g>
<!-- floor&#45;&gt;log_radon -->
<g id="edge3" class="edge">
<title>floor&#45;&gt;log_radon</title>
<path fill="none" stroke="black" d="M87.98,-268.27C97.79,-256.12 109.97,-242.85 123,-232.93 206.15,-169.65 319.19,-123.37 389.06,-98.46"/>
<polygon fill="black" stroke="black" points="390.36,-101.71 398.62,-95.08 388.03,-95.11 390.36,-101.71"/>
</g>
<!-- floor|county_sigma -->
<g id="node2" class="node">
<title>floor|county_sigma</title>
<ellipse fill="none" stroke="black" cx="240" cy="-301.41" rx="108.38" ry="37.45"/>
<text text-anchor="middle" x="240" y="-312.71" font-family="Times-Roman" font-size="14.00">floor|county_sigma</text>
<text text-anchor="middle" x="240" y="-297.71" font-family="Times-Roman" font-size="14.00">~</text>
<text text-anchor="middle" x="240" y="-282.71" font-family="Times-Roman" font-size="14.00">Exponential</text>
</g>
<!-- floor|county -->
<g id="node3" class="node">
<title>floor|county</title>
<polygon fill="none" stroke="black" points="509,-213.95 397,-213.95 397,-160.95 509,-160.95 509,-213.95"/>
<text text-anchor="middle" x="453" y="-198.75" font-family="Times-Roman" font-size="14.00">floor|county</text>
<text text-anchor="middle" x="453" y="-183.75" font-family="Times-Roman" font-size="14.00">~</text>
<text text-anchor="middle" x="453" y="-168.75" font-family="Times-Roman" font-size="14.00">Deterministic</text>
</g>
<!-- floor|county_sigma&#45;&gt;floor|county -->
<g id="edge1" class="edge">
<title>floor|county_sigma&#45;&gt;floor|county</title>
<path fill="none" stroke="black" d="M294.24,-268.9C314.69,-257.29 338.26,-244.22 360,-232.93 369.27,-228.12 379.14,-223.18 388.86,-218.44"/>
<polygon fill="black" stroke="black" points="390.64,-221.47 398.12,-213.96 387.59,-215.17 390.64,-221.47"/>
</g>
<!-- floor|county&#45;&gt;log_radon -->
<g id="edge4" class="edge">
<title>floor|county&#45;&gt;log_radon</title>
<path fill="none" stroke="black" d="M453,-160.9C453,-149.99 453,-136.9 453,-124.36"/>
<polygon fill="black" stroke="black" points="456.5,-124.01 453,-114.01 449.5,-124.01 456.5,-124.01"/>
</g>
<!-- floor|county_offset -->
<g id="node4" class="node">
<title>floor|county_offset</title>
<ellipse fill="none" stroke="black" cx="478" cy="-301.41" rx="106.13" ry="37.45"/>
<text text-anchor="middle" x="478" y="-312.71" font-family="Times-Roman" font-size="14.00">floor|county_offset</text>
<text text-anchor="middle" x="478" y="-297.71" font-family="Times-Roman" font-size="14.00">~</text>
<text text-anchor="middle" x="478" y="-282.71" font-family="Times-Roman" font-size="14.00">Normal</text>
</g>
<!-- floor|county_offset&#45;&gt;floor|county -->
<g id="edge2" class="edge">
<title>floor|county_offset&#45;&gt;floor|county</title>
<path fill="none" stroke="black" d="M469.81,-263.75C466.96,-250.97 463.76,-236.66 460.93,-223.97"/>
<polygon fill="black" stroke="black" points="464.35,-223.2 458.75,-214.2 457.51,-224.73 464.35,-223.2"/>
</g>
<!-- log_radon_sigma -->
<g id="node5" class="node">
<title>log_radon_sigma</title>
<ellipse fill="none" stroke="black" cx="698" cy="-187.45" rx="98.08" ry="37.45"/>
<text text-anchor="middle" x="698" y="-198.75" font-family="Times-Roman" font-size="14.00">log_radon_sigma</text>
<text text-anchor="middle" x="698" y="-183.75" font-family="Times-Roman" font-size="14.00">~</text>
<text text-anchor="middle" x="698" y="-168.75" font-family="Times-Roman" font-size="14.00">Exponential</text>
</g>
<!-- log_radon_sigma&#45;&gt;log_radon -->
<g id="edge5" class="edge">
<title>log_radon_sigma&#45;&gt;log_radon</title>
<path fill="none" stroke="black" d="M645.86,-155.55C630.1,-146.76 612.57,-137.53 596,-129.95 570.63,-118.35 541.88,-107.4 516.85,-98.54"/>
<polygon fill="black" stroke="black" points="517.69,-95.12 507.1,-95.12 515.38,-101.73 517.69,-95.12"/>
</g>
</g>
</svg>
