<?xml version="1.0" encoding="UTF-8" standalone="no"?>
<!DOCTYPE svg PUBLIC "-//W3C//DTD SVG 1.1//EN"
 "http://www.w3.org/Graphics/SVG/1.1/DTD/svg11.dtd">
<!-- Generated by graphviz version 2.47.0 (20210327.0129)
 -->
<!-- Pages: 1 -->
<svg width="920pt" height="363pt"
 viewBox="0.00 0.00 919.79 362.88" xmlns="http://www.w3.org/2000/svg" xmlns:xlink="http://www.w3.org/1999/xlink">
<g id="graph0" class="graph" transform="scale(1 1) rotate(0) translate(4 358.88)">
<polygon fill="white" stroke="transparent" points="-4,4 -4,-358.88 915.79,-358.88 915.79,4 -4,4"/>
<g id="clust1" class="cluster">
<title>cluster2</title>
<path fill="none" stroke="black" d="M20,-232.93C20,-232.93 344,-232.93 344,-232.93 350,-232.93 356,-238.93 356,-244.93 356,-244.93 356,-334.88 356,-334.88 356,-340.88 350,-346.88 344,-346.88 344,-346.88 20,-346.88 20,-346.88 14,-346.88 8,-340.88 8,-334.88 8,-334.88 8,-244.93 8,-244.93 8,-238.93 14,-232.93 20,-232.93"/>
<text text-anchor="middle" x="343" y="-240.73" font-family="Times-Roman" font-size="14.00">2</text>
</g>
<g id="clust2" class="cluster">
<title>cluster85 x 2</title>
<path fill="none" stroke="black" d="M376,-129.95C376,-129.95 580,-129.95 580,-129.95 586,-129.95 592,-135.95 592,-141.95 592,-141.95 592,-334.88 592,-334.88 592,-340.88 586,-346.88 580,-346.88 580,-346.88 376,-346.88 376,-346.88 370,-346.88 364,-340.88 364,-334.88 364,-334.88 364,-141.95 364,-141.95 364,-135.95 370,-129.95 376,-129.95"/>
<text text-anchor="middle" x="561.5" y="-137.75" font-family="Times-Roman" font-size="14.00">85 x 2</text>
</g>
<g id="clust3" class="cluster">
<title>cluster919</title>
<path fill="none" stroke="black" d="M442,-8C442,-8 558,-8 558,-8 564,-8 570,-14 570,-20 570,-20 570,-109.95 570,-109.95 570,-115.95 564,-121.95 558,-121.95 558,-121.95 442,-121.95 442,-121.95 436,-121.95 430,-115.95 430,-109.95 430,-109.95 430,-20 430,-20 430,-14 436,-8 442,-8"/>
<text text-anchor="middle" x="548" y="-15.8" font-family="Times-Roman" font-size="14.00">919</text>
</g>
<!-- floor -->
<g id="node1" class="node">
<title>floor</title>
<ellipse fill="none" stroke="black" cx="65" cy="-301.41" rx="48.58" ry="37.45"/>
<text text-anchor="middle" x="65" y="-312.71" font-family="Times-Roman" font-size="14.00">floor</text>
<text text-anchor="middle" x="65" y="-297.71" font-family="Times-Roman" font-size="14.00">~</text>
<text text-anchor="middle" x="65" y="-282.71" font-family="Times-Roman" font-size="14.00">Normal</text>
</g>
<!-- log_radon -->
<g id="node7" class="node">
<title>log_radon</title>
<ellipse fill="lightgrey" stroke="black" cx="500" cy="-76.48" rx="62.45" ry="37.45"/>
<text text-anchor="middle" x="500" y="-87.78" font-family="Times-Roman" font-size="14.00">log_radon</text>
<text text-anchor="middle" x="500" y="-72.78" font-family="Times-Roman" font-size="14.00">~</text>
<text text-anchor="middle" x="500" y="-57.78" font-family="Times-Roman" font-size="14.00">Normal</text>
</g>
<!-- floor&#45;&gt;log_radon -->
<g id="edge3" class="edge">
<title>floor&#45;&gt;log_radon</title>
<path fill="none" stroke="black" d="M87.83,-268.06C97.61,-255.89 109.82,-242.65 123,-232.93 219.59,-161.72 353.54,-116.66 433.04,-94.34"/>
<polygon fill="black" stroke="black" points="434.23,-97.64 442.94,-91.6 432.37,-90.89 434.23,-97.64"/>
</g>
<!-- floor|county_sigma -->
<g id="node2" class="node">
<title>floor|county_sigma</title>
<ellipse fill="none" stroke="black" cx="240" cy="-301.41" rx="108.38" ry="37.45"/>
<text text-anchor="middle" x="240" y="-312.71" font-family="Times-Roman" font-size="14.00">floor|county_sigma</text>
<text text-anchor="middle" x="240" y="-297.71" font-family="Times-Roman" font-size="14.00">~</text>
<text text-anchor="middle" x="240" y="-282.71" font-family="Times-Roman" font-size="14.00">Exponential</text>
</g>
<!-- floor|county -->
<g id="node5" class="node">
<title>floor|county</title>
<polygon fill="none" stroke="black" points="534,-213.95 422,-213.95 422,-160.95 534,-160.95 534,-213.95"/>
<text text-anchor="middle" x="478" y="-198.75" font-family="Times-Roman" font-size="14.00">floor|county</text>
<text text-anchor="middle" x="478" y="-183.75" font-family="Times-Roman" font-size="14.00">~</text>
<text text-anchor="middle" x="478" y="-168.75" font-family="Times-Roman" font-size="14.00">Deterministic</text>
</g>
<!-- floor|county_sigma&#45;&gt;floor|county -->
<g id="edge1" class="edge">
<title>floor|county_sigma&#45;&gt;floor|county</title>
<path fill="none" stroke="black" d="M292.55,-268.57C313.21,-256.67 337.36,-243.49 360,-232.93 376.66,-225.16 395.08,-217.71 412.32,-211.19"/>
<polygon fill="black" stroke="black" points="413.61,-214.45 421.76,-207.67 411.16,-207.89 413.61,-214.45"/>
</g>
<!-- log_radon_sigma -->
<g id="node3" class="node">
<title>log_radon_sigma</title>
<ellipse fill="none" stroke="black" cx="698" cy="-187.45" rx="98.08" ry="37.45"/>
<text text-anchor="middle" x="698" y="-198.75" font-family="Times-Roman" font-size="14.00">log_radon_sigma</text>
<text text-anchor="middle" x="698" y="-183.75" font-family="Times-Roman" font-size="14.00">~</text>
<text text-anchor="middle" x="698" y="-168.75" font-family="Times-Roman" font-size="14.00">Exponential</text>
</g>
<!-- log_radon_sigma&#45;&gt;log_radon -->
<g id="edge6" class="edge">
<title>log_radon_sigma&#45;&gt;log_radon</title>
<path fill="none" stroke="black" d="M643.51,-156.2C628.15,-147.69 611.43,-138.44 596,-129.95 582.49,-122.52 567.88,-114.52 554.25,-107.06"/>
<polygon fill="black" stroke="black" points="555.9,-103.97 545.44,-102.25 552.54,-110.12 555.9,-103.97"/>
</g>
<!-- log_u -->
<g id="node4" class="node">
<title>log_u</title>
<ellipse fill="none" stroke="black" cx="863" cy="-187.45" rx="48.58" ry="37.45"/>
<text text-anchor="middle" x="863" y="-198.75" font-family="Times-Roman" font-size="14.00">log_u</text>
<text text-anchor="middle" x="863" y="-183.75" font-family="Times-Roman" font-size="14.00">~</text>
<text text-anchor="middle" x="863" y="-168.75" font-family="Times-Roman" font-size="14.00">Normal</text>
</g>
<!-- log_u&#45;&gt;log_radon -->
<g id="edge5" class="edge">
<title>log_u&#45;&gt;log_radon</title>
<path fill="none" stroke="black" d="M837.73,-155.31C828.42,-145.76 817.15,-136.15 805,-129.95 731.61,-92.55 636.75,-81.13 572.44,-77.98"/>
<polygon fill="black" stroke="black" points="572.54,-74.48 562.39,-77.54 572.23,-81.47 572.54,-74.48"/>
</g>
<!-- floor|county&#45;&gt;log_radon -->
<g id="edge4" class="edge">
<title>floor|county&#45;&gt;log_radon</title>
<path fill="none" stroke="black" d="M483.16,-160.9C485.38,-149.88 488.06,-136.64 490.61,-123.98"/>
<polygon fill="black" stroke="black" points="494.08,-124.5 492.62,-114.01 487.22,-123.12 494.08,-124.5"/>
</g>
<!-- floor|county_offset -->
<g id="node6" class="node">
<title>floor|county_offset</title>
<ellipse fill="none" stroke="black" cx="478" cy="-301.41" rx="106.13" ry="37.45"/>
<text text-anchor="middle" x="478" y="-312.71" font-family="Times-Roman" font-size="14.00">floor|county_offset</text>
<text text-anchor="middle" x="478" y="-297.71" font-family="Times-Roman" font-size="14.00">~</text>
<text text-anchor="middle" x="478" y="-282.71" font-family="Times-Roman" font-size="14.00">Normal</text>
</g>
<!-- floor|county_offset&#45;&gt;floor|county -->
<g id="edge2" class="edge">
<title>floor|county_offset&#45;&gt;floor|county</title>
<path fill="none" stroke="black" d="M478,-263.75C478,-251.09 478,-236.94 478,-224.35"/>
<polygon fill="black" stroke="black" points="481.5,-224.2 478,-214.2 474.5,-224.2 481.5,-224.2"/>
</g>
</g>
</svg>
