<?xml version="1.0" encoding="UTF-8" standalone="no"?>
<!DOCTYPE svg PUBLIC "-//W3C//DTD SVG 1.1//EN"
 "http://www.w3.org/Graphics/SVG/1.1/DTD/svg11.dtd">
<!-- Generated by graphviz version 14.1.2 (0)
 -->
<!-- Pages: 1 -->
<svg width="335pt" height="392pt"
 viewBox="0.00 0.00 335.00 392.00" xmlns="http://www.w3.org/2000/svg" xmlns:xlink="http://www.w3.org/1999/xlink">
<g id="graph0" class="graph" transform="scale(2.08333 2.08333) rotate(0) translate(4 184)">
<polygon fill="white" stroke="none" points="-4,4 -4,-184 157,-184 157,4 -4,4"/>
<!-- Z -->
<g id="node1" class="node">
<title>Z</title>
<ellipse fill="none" stroke="black" cx="27" cy="-90" rx="27" ry="18"/>
<text xml:space="preserve" text-anchor="middle" x="27" y="-84.95" font-family="Times,serif" font-size="14.00">Z</text>
</g>
<!-- Y -->
<g id="node4" class="node">
<title>Y</title>
<ellipse fill="#328c06" fill-opacity="0.501961" stroke="#328c06" stroke-opacity="0.501961" cx="99" cy="-18" rx="27" ry="18"/>
<text xml:space="preserve" text-anchor="middle" x="99" y="-12.95" font-family="Times,serif" font-size="14.00">Y</text>
</g>
<!-- Z&#45;&gt;Y -->
<g id="edge2" class="edge">
<title>Z&#45;&gt;Y</title>
<path fill="none" stroke="black" d="M41.92,-74.5C51.77,-64.92 64.86,-52.19 76.03,-41.34"/>
<polygon fill="black" stroke="black" points="78.29,-44.02 83.02,-34.54 73.41,-39 78.29,-44.02"/>
</g>
<!-- G -->
<g id="node2" class="node">
<title>G</title>
<ellipse fill="lightgray" stroke="lightgray" cx="126" cy="-162" rx="27" ry="18"/>
<text xml:space="preserve" text-anchor="middle" x="126" y="-156.95" font-family="Times,serif" font-size="14.00">G</text>
</g>
<!-- X -->
<g id="node3" class="node">
<title>X</title>
<ellipse fill="#2a2eec" fill-opacity="0.501961" stroke="#2a2eec" stroke-opacity="0.501961" cx="99" cy="-90" rx="27" ry="18"/>
<text xml:space="preserve" text-anchor="middle" x="99" y="-84.95" font-family="Times,serif" font-size="14.00">X</text>
</g>
<!-- G&#45;&gt;X -->
<g id="edge3" class="edge">
<title>G&#45;&gt;X</title>
<path fill="none" stroke="black" d="M119.46,-144.05C116.48,-136.32 112.87,-126.96 109.52,-118.27"/>
<polygon fill="black" stroke="black" points="112.88,-117.27 106.02,-109.2 106.35,-119.79 112.88,-117.27"/>
</g>
<!-- G&#45;&gt;Y -->
<g id="edge4" class="edge">
<title>G&#45;&gt;Y</title>
<path fill="none" stroke="black" d="M131.55,-144.21C136.69,-126.02 142.49,-96.34 135,-72 131.82,-61.65 125.85,-51.51 119.67,-42.91"/>
<polygon fill="black" stroke="black" points="122.55,-40.91 113.67,-35.13 117.01,-45.19 122.55,-40.91"/>
</g>
<!-- X&#45;&gt;Y -->
<g id="edge1" class="edge">
<title>X&#45;&gt;Y</title>
<path fill="none" stroke="black" d="M99,-71.7C99,-64.41 99,-55.73 99,-47.54"/>
<polygon fill="black" stroke="black" points="102.5,-47.62 99,-37.62 95.5,-47.62 102.5,-47.62"/>
</g>
</g>
</svg>
