<?xml version="1.0" encoding="UTF-8" standalone="no"?>
<!DOCTYPE svg PUBLIC "-//W3C//DTD SVG 1.1//EN"
 "http://www.w3.org/Graphics/SVG/1.1/DTD/svg11.dtd">
<!-- Generated by graphviz version 14.1.2 (0)
 -->
<!-- Pages: 1 -->
<svg width="298pt" height="341pt"
 viewBox="0.00 0.00 298.00 341.00" xmlns="http://www.w3.org/2000/svg" xmlns:xlink="http://www.w3.org/1999/xlink">
<g id="graph0" class="graph" transform="scale(1 1) rotate(0) translate(4 336.63)">
<polygon fill="white" stroke="none" points="-4,4 -4,-336.63 294.02,-336.63 294.02,4 -4,4"/>
<g id="clust1" class="cluster">
<title>cluster__obs__ (2000)</title>
<path fill="none" stroke="black" d="M102.01,-8C102.01,-8 188.01,-8 188.01,-8 194.01,-8 200.01,-14 200.01,-20 200.01,-20 200.01,-211.32 200.01,-211.32 200.01,-217.32 194.01,-223.32 188.01,-223.32 188.01,-223.32 102.01,-223.32 102.01,-223.32 96.01,-223.32 90.01,-217.32 90.01,-211.32 90.01,-211.32 90.01,-20 90.01,-20 90.01,-14 96.01,-8 102.01,-8"/>
<text xml:space="preserve" text-anchor="middle" x="149.26" y="-15.2" font-family="Times,serif" font-size="14.00">__obs__ (2000)</text>
</g>
<!-- x -->
<g id="node1" class="node">
<title>x</title>
<ellipse fill="none" stroke="black" cx="41.01" cy="-291.98" rx="41.01" ry="40.66"/>
<text xml:space="preserve" text-anchor="middle" x="41.01" y="-303.43" font-family="Times,serif" font-size="14.00">x</text>
<text xml:space="preserve" text-anchor="middle" x="41.01" y="-286.93" font-family="Times,serif" font-size="14.00">~</text>
<text xml:space="preserve" text-anchor="middle" x="41.01" y="-270.43" font-family="Times,serif" font-size="14.00">Normal</text>
</g>
<!-- p -->
<g id="node4" class="node">
<title>p</title>
<polygon fill="none" stroke="black" points="190.14,-215.32 99.89,-215.32 99.89,-157.82 190.14,-157.82 190.14,-215.32"/>
<text xml:space="preserve" text-anchor="middle" x="145.01" y="-198.02" font-family="Times,serif" font-size="14.00">p</text>
<text xml:space="preserve" text-anchor="middle" x="145.01" y="-181.52" font-family="Times,serif" font-size="14.00">~</text>
<text xml:space="preserve" text-anchor="middle" x="145.01" y="-165.02" font-family="Times,serif" font-size="14.00">Deterministic</text>
</g>
<!-- x&#45;&gt;p -->
<g id="edge1" class="edge">
<title>x&#45;&gt;p</title>
<path fill="none" stroke="black" d="M69.71,-262.45C81.74,-250.48 95.87,-236.43 108.63,-223.75"/>
<polygon fill="black" stroke="black" points="111.08,-226.25 115.7,-216.71 106.14,-221.28 111.08,-226.25"/>
</g>
<!-- Intercept -->
<g id="node2" class="node">
<title>Intercept</title>
<ellipse fill="none" stroke="black" cx="145.01" cy="-291.98" rx="45.25" ry="40.66"/>
<text xml:space="preserve" text-anchor="middle" x="145.01" y="-303.43" font-family="Times,serif" font-size="14.00">Intercept</text>
<text xml:space="preserve" text-anchor="middle" x="145.01" y="-286.93" font-family="Times,serif" font-size="14.00">~</text>
<text xml:space="preserve" text-anchor="middle" x="145.01" y="-270.43" font-family="Times,serif" font-size="14.00">Normal</text>
</g>
<!-- Intercept&#45;&gt;p -->
<g id="edge2" class="edge">
<title>Intercept&#45;&gt;p</title>
<path fill="none" stroke="black" d="M145.01,-251C145.01,-243.15 145.01,-234.91 145.01,-227.08"/>
<polygon fill="black" stroke="black" points="148.51,-227.11 145.01,-217.11 141.51,-227.11 148.51,-227.11"/>
</g>
<!-- z -->
<g id="node3" class="node">
<title>z</title>
<ellipse fill="none" stroke="black" cx="249.01" cy="-291.98" rx="41.01" ry="40.66"/>
<text xml:space="preserve" text-anchor="middle" x="249.01" y="-303.43" font-family="Times,serif" font-size="14.00">z</text>
<text xml:space="preserve" text-anchor="middle" x="249.01" y="-286.93" font-family="Times,serif" font-size="14.00">~</text>
<text xml:space="preserve" text-anchor="middle" x="249.01" y="-270.43" font-family="Times,serif" font-size="14.00">Normal</text>
</g>
<!-- z&#45;&gt;p -->
<g id="edge3" class="edge">
<title>z&#45;&gt;p</title>
<path fill="none" stroke="black" d="M220.32,-262.45C208.28,-250.48 194.15,-236.43 181.4,-223.75"/>
<polygon fill="black" stroke="black" points="183.88,-221.28 174.33,-216.71 178.95,-226.25 183.88,-221.28"/>
</g>
<!-- y -->
<g id="node5" class="node">
<title>y</title>
<ellipse fill="lightgrey" stroke="black" cx="145.01" cy="-81.16" rx="47.38" ry="40.66"/>
<text xml:space="preserve" text-anchor="middle" x="145.01" y="-92.61" font-family="Times,serif" font-size="14.00">y</text>
<text xml:space="preserve" text-anchor="middle" x="145.01" y="-76.11" font-family="Times,serif" font-size="14.00">~</text>
<text xml:space="preserve" text-anchor="middle" x="145.01" y="-59.61" font-family="Times,serif" font-size="14.00">Bernoulli</text>
</g>
<!-- p&#45;&gt;y -->
<g id="edge4" class="edge">
<title>p&#45;&gt;y</title>
<path fill="none" stroke="black" d="M145.01,-157.58C145.01,-150.1 145.01,-141.77 145.01,-133.45"/>
<polygon fill="black" stroke="black" points="148.51,-133.71 145.01,-123.71 141.51,-133.71 148.51,-133.71"/>
</g>
</g>
</svg>
