<?xml version="1.0" encoding="UTF-8" standalone="no"?>
<!DOCTYPE svg PUBLIC "-//W3C//DTD SVG 1.1//EN"
 "http://www.w3.org/Graphics/SVG/1.1/DTD/svg11.dtd">
<!-- Generated by graphviz version 14.1.2 (0)
 -->
<!-- Pages: 1 -->
<svg width="429pt" height="486pt"
 viewBox="0.00 0.00 429.00 486.00" xmlns="http://www.w3.org/2000/svg" xmlns:xlink="http://www.w3.org/1999/xlink">
<g id="graph0" class="graph" transform="scale(1 1) rotate(0) translate(4 482.45)">
<polygon fill="white" stroke="none" points="-4,4 -4,-482.45 425,-482.45 425,4 -4,4"/>
<g id="clust1" class="cluster">
<title>clustergroup (30)</title>
<path fill="none" stroke="black" d="M20,-348.63C20,-348.63 194,-348.63 194,-348.63 200,-348.63 206,-354.63 206,-360.63 206,-360.63 206,-458.45 206,-458.45 206,-464.45 200,-470.45 194,-470.45 194,-470.45 20,-470.45 20,-470.45 14,-470.45 8,-464.45 8,-458.45 8,-458.45 8,-360.63 8,-360.63 8,-354.63 14,-348.63 20,-348.63"/>
<text xml:space="preserve" text-anchor="middle" x="169.12" y="-355.83" font-family="Times,serif" font-size="14.00">group (30)</text>
</g>
<g id="clust2" class="cluster">
<title>clusterid (2000)</title>
<path fill="none" stroke="black" d="M89,-8C89,-8 175,-8 175,-8 181,-8 187,-14 187,-20 187,-20 187,-328.63 187,-328.63 187,-334.63 181,-340.63 175,-340.63 175,-340.63 89,-340.63 89,-340.63 83,-340.63 77,-334.63 77,-328.63 77,-328.63 77,-20 77,-20 77,-14 83,-8 89,-8"/>
<text xml:space="preserve" text-anchor="middle" x="153.88" y="-15.2" font-family="Times,serif" font-size="14.00">id (2000)</text>
</g>
<!-- z -->
<g id="node1" class="node">
<title>z</title>
<ellipse fill="none" stroke="black" cx="57" cy="-421.79" rx="41.01" ry="40.66"/>
<text xml:space="preserve" text-anchor="middle" x="57" y="-433.24" font-family="Times,serif" font-size="14.00">z</text>
<text xml:space="preserve" text-anchor="middle" x="57" y="-416.74" font-family="Times,serif" font-size="14.00">~</text>
<text xml:space="preserve" text-anchor="middle" x="57" y="-400.24" font-family="Times,serif" font-size="14.00">Normal</text>
</g>
<!-- p -->
<g id="node7" class="node">
<title>p</title>
<polygon fill="none" stroke="black" points="179.12,-215.32 88.88,-215.32 88.88,-157.82 179.12,-157.82 179.12,-215.32"/>
<text xml:space="preserve" text-anchor="middle" x="134" y="-198.02" font-family="Times,serif" font-size="14.00">p</text>
<text xml:space="preserve" text-anchor="middle" x="134" y="-181.52" font-family="Times,serif" font-size="14.00">~</text>
<text xml:space="preserve" text-anchor="middle" x="134" y="-165.02" font-family="Times,serif" font-size="14.00">Deterministic</text>
</g>
<!-- z&#45;&gt;p -->
<g id="edge6" class="edge">
<title>z&#45;&gt;p</title>
<path fill="none" stroke="black" d="M54.69,-380.96C54.17,-345.41 57.26,-292.72 76,-251.32 80.35,-241.71 86.7,-232.55 93.62,-224.34"/>
<polygon fill="black" stroke="black" points="96.2,-226.71 100.28,-216.94 90.99,-222.03 96.2,-226.71"/>
</g>
<!-- ug -->
<g id="node2" class="node">
<title>ug</title>
<ellipse fill="none" stroke="black" cx="157" cy="-421.79" rx="41.01" ry="40.66"/>
<text xml:space="preserve" text-anchor="middle" x="157" y="-433.24" font-family="Times,serif" font-size="14.00">ug</text>
<text xml:space="preserve" text-anchor="middle" x="157" y="-416.74" font-family="Times,serif" font-size="14.00">~</text>
<text xml:space="preserve" text-anchor="middle" x="157" y="-400.24" font-family="Times,serif" font-size="14.00">Normal</text>
</g>
<!-- x -->
<g id="node6" class="node">
<title>x</title>
<ellipse fill="none" stroke="black" cx="126" cy="-291.98" rx="41.01" ry="40.66"/>
<text xml:space="preserve" text-anchor="middle" x="126" y="-303.43" font-family="Times,serif" font-size="14.00">x</text>
<text xml:space="preserve" text-anchor="middle" x="126" y="-286.93" font-family="Times,serif" font-size="14.00">~</text>
<text xml:space="preserve" text-anchor="middle" x="126" y="-270.43" font-family="Times,serif" font-size="14.00">Normal</text>
</g>
<!-- ug&#45;&gt;x -->
<g id="edge1" class="edge">
<title>ug&#45;&gt;x</title>
<path fill="none" stroke="black" d="M147.53,-381.75C144.56,-369.48 141.23,-355.77 138.1,-342.86"/>
<polygon fill="black" stroke="black" points="141.53,-342.14 135.77,-333.25 134.72,-343.79 141.53,-342.14"/>
</g>
<!-- ug&#45;&gt;p -->
<g id="edge5" class="edge">
<title>ug&#45;&gt;p</title>
<path fill="none" stroke="black" d="M169.79,-382.66C179.5,-347.79 189.14,-295.13 176,-251.32 173.29,-242.29 168.85,-233.36 163.85,-225.17"/>
<polygon fill="black" stroke="black" points="166.79,-223.28 158.37,-216.86 160.95,-227.13 166.79,-223.28"/>
</g>
<!-- bxy -->
<g id="node3" class="node">
<title>bxy</title>
<path fill="lightgrey" stroke="black" d="M265,-320.73C265,-320.73 235,-320.73 235,-320.73 229,-320.73 223,-314.73 223,-308.73 223,-308.73 223,-275.23 223,-275.23 223,-269.23 229,-263.23 235,-263.23 235,-263.23 265,-263.23 265,-263.23 271,-263.23 277,-269.23 277,-275.23 277,-275.23 277,-308.73 277,-308.73 277,-314.73 271,-320.73 265,-320.73"/>
<text xml:space="preserve" text-anchor="middle" x="250" y="-303.43" font-family="Times,serif" font-size="14.00">bxy</text>
<text xml:space="preserve" text-anchor="middle" x="250" y="-286.93" font-family="Times,serif" font-size="14.00">~</text>
<text xml:space="preserve" text-anchor="middle" x="250" y="-270.43" font-family="Times,serif" font-size="14.00">Data</text>
</g>
<!-- bxy&#45;&gt;p -->
<g id="edge4" class="edge">
<title>bxy&#45;&gt;p</title>
<path fill="none" stroke="black" d="M222.89,-264.28C218.3,-259.9 213.55,-255.44 209,-251.32 198.71,-241.99 187.4,-232.16 176.75,-223.09"/>
<polygon fill="black" stroke="black" points="179.05,-220.45 169.15,-216.65 174.52,-225.79 179.05,-220.45"/>
</g>
<!-- a0 -->
<g id="node4" class="node">
<title>a0</title>
<path fill="lightgrey" stroke="black" d="M337,-320.73C337,-320.73 307,-320.73 307,-320.73 301,-320.73 295,-314.73 295,-308.73 295,-308.73 295,-275.23 295,-275.23 295,-269.23 301,-263.23 307,-263.23 307,-263.23 337,-263.23 337,-263.23 343,-263.23 349,-269.23 349,-275.23 349,-275.23 349,-308.73 349,-308.73 349,-314.73 343,-320.73 337,-320.73"/>
<text xml:space="preserve" text-anchor="middle" x="322" y="-303.43" font-family="Times,serif" font-size="14.00">a0</text>
<text xml:space="preserve" text-anchor="middle" x="322" y="-286.93" font-family="Times,serif" font-size="14.00">~</text>
<text xml:space="preserve" text-anchor="middle" x="322" y="-270.43" font-family="Times,serif" font-size="14.00">Data</text>
</g>
<!-- a0&#45;&gt;p -->
<g id="edge3" class="edge">
<title>a0&#45;&gt;p</title>
<path fill="none" stroke="black" d="M299.42,-262.9C295.25,-258.69 290.71,-254.65 286,-251.32 256.97,-230.79 220.32,-215.17 190.28,-204.53"/>
<polygon fill="black" stroke="black" points="191.56,-201.28 180.97,-201.33 189.28,-207.89 191.56,-201.28"/>
</g>
<!-- bzy -->
<g id="node5" class="node">
<title>bzy</title>
<path fill="lightgrey" stroke="black" d="M409,-320.73C409,-320.73 379,-320.73 379,-320.73 373,-320.73 367,-314.73 367,-308.73 367,-308.73 367,-275.23 367,-275.23 367,-269.23 373,-263.23 379,-263.23 379,-263.23 409,-263.23 409,-263.23 415,-263.23 421,-269.23 421,-275.23 421,-275.23 421,-308.73 421,-308.73 421,-314.73 415,-320.73 409,-320.73"/>
<text xml:space="preserve" text-anchor="middle" x="394" y="-303.43" font-family="Times,serif" font-size="14.00">bzy</text>
<text xml:space="preserve" text-anchor="middle" x="394" y="-286.93" font-family="Times,serif" font-size="14.00">~</text>
<text xml:space="preserve" text-anchor="middle" x="394" y="-270.43" font-family="Times,serif" font-size="14.00">Data</text>
</g>
<!-- bzy&#45;&gt;p -->
<g id="edge7" class="edge">
<title>bzy&#45;&gt;p</title>
<path fill="none" stroke="black" d="M372.16,-262.81C367.83,-258.5 363.06,-254.46 358,-251.32 306.43,-219.31 238.31,-202.92 190.79,-194.83"/>
<polygon fill="black" stroke="black" points="191.4,-191.39 180.97,-193.24 190.28,-198.3 191.4,-191.39"/>
</g>
<!-- x&#45;&gt;p -->
<g id="edge2" class="edge">
<title>x&#45;&gt;p</title>
<path fill="none" stroke="black" d="M129.09,-251C129.71,-243.05 130.35,-234.72 130.96,-226.8"/>
<polygon fill="black" stroke="black" points="134.43,-227.34 131.72,-217.1 127.45,-226.8 134.43,-227.34"/>
</g>
<!-- y -->
<g id="node8" class="node">
<title>y</title>
<ellipse fill="none" stroke="black" cx="132" cy="-81.16" rx="47.38" ry="40.66"/>
<text xml:space="preserve" text-anchor="middle" x="132" y="-92.61" font-family="Times,serif" font-size="14.00">y</text>
<text xml:space="preserve" text-anchor="middle" x="132" y="-76.11" font-family="Times,serif" font-size="14.00">~</text>
<text xml:space="preserve" text-anchor="middle" x="132" y="-59.61" font-family="Times,serif" font-size="14.00">Bernoulli</text>
</g>
<!-- p&#45;&gt;y -->
<g id="edge8" class="edge">
<title>p&#45;&gt;y</title>
<path fill="none" stroke="black" d="M133.46,-157.58C133.31,-150.1 133.15,-141.77 132.99,-133.45"/>
<polygon fill="black" stroke="black" points="136.5,-133.64 132.8,-123.71 129.5,-133.78 136.5,-133.64"/>
</g>
</g>
</svg>
