<?xml version="1.0" encoding="UTF-8" standalone="no"?>
<!DOCTYPE svg PUBLIC "-//W3C//DTD SVG 1.1//EN"
 "http://www.w3.org/Graphics/SVG/1.1/DTD/svg11.dtd">
<!-- Generated by graphviz version 14.1.2 (0)
 -->
<!-- Pages: 1 -->
<svg width="704pt" height="475pt"
 viewBox="0.00 0.00 704.00 475.00" xmlns="http://www.w3.org/2000/svg" xmlns:xlink="http://www.w3.org/1999/xlink">
<g id="graph0" class="graph" transform="scale(1 1) rotate(0) translate(4 470.54)">
<polygon fill="white" stroke="none" points="-4,4 -4,-470.54 699.84,-470.54 699.84,4 -4,4"/>
<g id="clust1" class="cluster">
<title>clustergroup__factor_dim (30)</title>
<path fill="none" stroke="black" d="M410.25,-231.32C410.25,-231.32 536.25,-231.32 536.25,-231.32 542.25,-231.32 548.25,-237.32 548.25,-243.32 548.25,-243.32 548.25,-446.54 548.25,-446.54 548.25,-452.54 542.25,-458.54 536.25,-458.54 536.25,-458.54 410.25,-458.54 410.25,-458.54 404.25,-458.54 398.25,-452.54 398.25,-446.54 398.25,-446.54 398.25,-243.32 398.25,-243.32 398.25,-237.32 404.25,-231.32 410.25,-231.32"/>
<text xml:space="preserve" text-anchor="middle" x="474.63" y="-238.52" font-family="Times,serif" font-size="14.00">group__factor_dim (30)</text>
</g>
<g id="clust2" class="cluster">
<title>cluster__obs__ (2000)</title>
<path fill="none" stroke="black" d="M206.25,-8C206.25,-8 292.25,-8 292.25,-8 298.25,-8 304.25,-14 304.25,-20 304.25,-20 304.25,-211.32 304.25,-211.32 304.25,-217.32 298.25,-223.32 292.25,-223.32 292.25,-223.32 206.25,-223.32 206.25,-223.32 200.25,-223.32 194.25,-217.32 194.25,-211.32 194.25,-211.32 194.25,-20 194.25,-20 194.25,-14 200.25,-8 206.25,-8"/>
<text xml:space="preserve" text-anchor="middle" x="253.5" y="-15.2" font-family="Times,serif" font-size="14.00">__obs__ (2000)</text>
</g>
<!-- Intercept -->
<g id="node1" class="node">
<title>Intercept</title>
<ellipse fill="none" stroke="black" cx="45.25" cy="-292.57" rx="45.25" ry="40.66"/>
<text xml:space="preserve" text-anchor="middle" x="45.25" y="-304.02" font-family="Times,serif" font-size="14.00">Intercept</text>
<text xml:space="preserve" text-anchor="middle" x="45.25" y="-287.52" font-family="Times,serif" font-size="14.00">~</text>
<text xml:space="preserve" text-anchor="middle" x="45.25" y="-271.02" font-family="Times,serif" font-size="14.00">Normal</text>
</g>
<!-- p -->
<g id="node8" class="node">
<title>p</title>
<polygon fill="none" stroke="black" points="294.38,-215.32 204.13,-215.32 204.13,-157.82 294.38,-157.82 294.38,-215.32"/>
<text xml:space="preserve" text-anchor="middle" x="249.25" y="-198.02" font-family="Times,serif" font-size="14.00">p</text>
<text xml:space="preserve" text-anchor="middle" x="249.25" y="-181.52" font-family="Times,serif" font-size="14.00">~</text>
<text xml:space="preserve" text-anchor="middle" x="249.25" y="-165.02" font-family="Times,serif" font-size="14.00">Deterministic</text>
</g>
<!-- Intercept&#45;&gt;p -->
<g id="edge5" class="edge">
<title>Intercept&#45;&gt;p</title>
<path fill="none" stroke="black" d="M69.61,-257.86C78.05,-248.13 88.2,-238.28 99.25,-231.32 127.55,-213.5 163.37,-202.7 192.91,-196.29"/>
<polygon fill="black" stroke="black" points="193.32,-199.78 202.41,-194.34 191.91,-192.92 193.32,-199.78"/>
</g>
<!-- 1|group_sigma -->
<g id="node2" class="node">
<title>1|group_sigma</title>
<ellipse fill="none" stroke="black" cx="627.25" cy="-409.88" rx="68.59" ry="40.66"/>
<text xml:space="preserve" text-anchor="middle" x="627.25" y="-421.33" font-family="Times,serif" font-size="14.00">1|group_sigma</text>
<text xml:space="preserve" text-anchor="middle" x="627.25" y="-404.83" font-family="Times,serif" font-size="14.00">~</text>
<text xml:space="preserve" text-anchor="middle" x="627.25" y="-388.33" font-family="Times,serif" font-size="14.00">Exponential</text>
</g>
<!-- 1|group -->
<g id="node7" class="node">
<title>1|group</title>
<polygon fill="none" stroke="black" points="518.38,-321.32 428.13,-321.32 428.13,-263.82 518.38,-263.82 518.38,-321.32"/>
<text xml:space="preserve" text-anchor="middle" x="473.25" y="-304.02" font-family="Times,serif" font-size="14.00">1|group</text>
<text xml:space="preserve" text-anchor="middle" x="473.25" y="-287.52" font-family="Times,serif" font-size="14.00">~</text>
<text xml:space="preserve" text-anchor="middle" x="473.25" y="-271.02" font-family="Times,serif" font-size="14.00">Deterministic</text>
</g>
<!-- 1|group_sigma&#45;&gt;1|group -->
<g id="edge2" class="edge">
<title>1|group_sigma&#45;&gt;1|group</title>
<path fill="none" stroke="black" d="M585.17,-377.37C564.93,-362.21 540.59,-343.99 519.79,-328.42"/>
<polygon fill="black" stroke="black" points="522.13,-325.79 512.03,-322.6 517.93,-331.4 522.13,-325.79"/>
</g>
<!-- x -->
<g id="node3" class="node">
<title>x</title>
<ellipse fill="none" stroke="black" cx="149.25" cy="-292.57" rx="41.01" ry="40.66"/>
<text xml:space="preserve" text-anchor="middle" x="149.25" y="-304.02" font-family="Times,serif" font-size="14.00">x</text>
<text xml:space="preserve" text-anchor="middle" x="149.25" y="-287.52" font-family="Times,serif" font-size="14.00">~</text>
<text xml:space="preserve" text-anchor="middle" x="149.25" y="-271.02" font-family="Times,serif" font-size="14.00">Normal</text>
</g>
<!-- x&#45;&gt;p -->
<g id="edge3" class="edge">
<title>x&#45;&gt;p</title>
<path fill="none" stroke="black" d="M174.04,-259.79C181.81,-250.35 190.62,-240.18 199.25,-231.32 201.79,-228.71 204.46,-226.09 207.19,-223.49"/>
<polygon fill="black" stroke="black" points="209.43,-226.19 214.38,-216.83 204.67,-221.05 209.43,-226.19"/>
</g>
<!-- z -->
<g id="node4" class="node">
<title>z</title>
<ellipse fill="none" stroke="black" cx="249.25" cy="-292.57" rx="41.01" ry="40.66"/>
<text xml:space="preserve" text-anchor="middle" x="249.25" y="-304.02" font-family="Times,serif" font-size="14.00">z</text>
<text xml:space="preserve" text-anchor="middle" x="249.25" y="-287.52" font-family="Times,serif" font-size="14.00">~</text>
<text xml:space="preserve" text-anchor="middle" x="249.25" y="-271.02" font-family="Times,serif" font-size="14.00">Normal</text>
</g>
<!-- z&#45;&gt;p -->
<g id="edge6" class="edge">
<title>z&#45;&gt;p</title>
<path fill="none" stroke="black" d="M249.25,-251.66C249.25,-243.57 249.25,-235.08 249.25,-227.01"/>
<polygon fill="black" stroke="black" points="252.75,-227.11 249.25,-217.11 245.75,-227.11 252.75,-227.11"/>
</g>
<!-- xbar -->
<g id="node5" class="node">
<title>xbar</title>
<ellipse fill="none" stroke="black" cx="349.25" cy="-292.57" rx="41.01" ry="40.66"/>
<text xml:space="preserve" text-anchor="middle" x="349.25" y="-304.02" font-family="Times,serif" font-size="14.00">xbar</text>
<text xml:space="preserve" text-anchor="middle" x="349.25" y="-287.52" font-family="Times,serif" font-size="14.00">~</text>
<text xml:space="preserve" text-anchor="middle" x="349.25" y="-271.02" font-family="Times,serif" font-size="14.00">Normal</text>
</g>
<!-- xbar&#45;&gt;p -->
<g id="edge7" class="edge">
<title>xbar&#45;&gt;p</title>
<path fill="none" stroke="black" d="M324.47,-259.79C316.7,-250.35 307.89,-240.18 299.25,-231.32 296.72,-228.71 294.05,-226.09 291.32,-223.49"/>
<polygon fill="black" stroke="black" points="293.84,-221.05 284.13,-216.83 289.08,-226.19 293.84,-221.05"/>
</g>
<!-- 1|group_offset -->
<g id="node6" class="node">
<title>1|group_offset</title>
<ellipse fill="none" stroke="black" cx="473.25" cy="-409.88" rx="67" ry="40.66"/>
<text xml:space="preserve" text-anchor="middle" x="473.25" y="-421.33" font-family="Times,serif" font-size="14.00">1|group_offset</text>
<text xml:space="preserve" text-anchor="middle" x="473.25" y="-404.83" font-family="Times,serif" font-size="14.00">~</text>
<text xml:space="preserve" text-anchor="middle" x="473.25" y="-388.33" font-family="Times,serif" font-size="14.00">Normal</text>
</g>
<!-- 1|group_offset&#45;&gt;1|group -->
<g id="edge1" class="edge">
<title>1|group_offset&#45;&gt;1|group</title>
<path fill="none" stroke="black" d="M473.25,-368.88C473.25,-357.17 473.25,-344.38 473.25,-332.73"/>
<polygon fill="black" stroke="black" points="476.75,-333.04 473.25,-323.04 469.75,-333.04 476.75,-333.04"/>
</g>
<!-- 1|group&#45;&gt;p -->
<g id="edge4" class="edge">
<title>1|group&#45;&gt;p</title>
<path fill="none" stroke="black" d="M444.24,-263.4C431.32,-252.11 415.39,-239.79 399.25,-231.32 370.1,-216.01 334.87,-205.38 305.88,-198.44"/>
<polygon fill="black" stroke="black" points="306.7,-195.03 296.17,-196.2 305.13,-201.86 306.7,-195.03"/>
</g>
<!-- y -->
<g id="node9" class="node">
<title>y</title>
<ellipse fill="lightgrey" stroke="black" cx="249.25" cy="-81.16" rx="47.38" ry="40.66"/>
<text xml:space="preserve" text-anchor="middle" x="249.25" y="-92.61" font-family="Times,serif" font-size="14.00">y</text>
<text xml:space="preserve" text-anchor="middle" x="249.25" y="-76.11" font-family="Times,serif" font-size="14.00">~</text>
<text xml:space="preserve" text-anchor="middle" x="249.25" y="-59.61" font-family="Times,serif" font-size="14.00">Bernoulli</text>
</g>
<!-- p&#45;&gt;y -->
<g id="edge8" class="edge">
<title>p&#45;&gt;y</title>
<path fill="none" stroke="black" d="M249.25,-157.58C249.25,-150.1 249.25,-141.77 249.25,-133.45"/>
<polygon fill="black" stroke="black" points="252.75,-133.71 249.25,-123.71 245.75,-133.71 252.75,-133.71"/>
</g>
</g>
</svg>
