<?xml version="1.0" encoding="UTF-8" standalone="no"?>
<!DOCTYPE svg PUBLIC "-//W3C//DTD SVG 1.1//EN"
 "http://www.w3.org/Graphics/SVG/1.1/DTD/svg11.dtd">
<!-- Generated by graphviz version 14.1.2 (0)
 -->
<!-- Pages: 1 -->
<svg width="604pt" height="475pt"
 viewBox="0.00 0.00 604.00 475.00" xmlns="http://www.w3.org/2000/svg" xmlns:xlink="http://www.w3.org/1999/xlink">
<g id="graph0" class="graph" transform="scale(1 1) rotate(0) translate(4 470.54)">
<polygon fill="white" stroke="none" points="-4,4 -4,-470.54 599.6,-470.54 599.6,4 -4,4"/>
<g id="clust1" class="cluster">
<title>clustergroup__factor_dim (30)</title>
<path fill="none" stroke="black" d="M310.01,-231.32C310.01,-231.32 436.01,-231.32 436.01,-231.32 442.01,-231.32 448.01,-237.32 448.01,-243.32 448.01,-243.32 448.01,-446.54 448.01,-446.54 448.01,-452.54 442.01,-458.54 436.01,-458.54 436.01,-458.54 310.01,-458.54 310.01,-458.54 304.01,-458.54 298.01,-452.54 298.01,-446.54 298.01,-446.54 298.01,-243.32 298.01,-243.32 298.01,-237.32 304.01,-231.32 310.01,-231.32"/>
<text xml:space="preserve" text-anchor="middle" x="374.39" y="-238.52" font-family="Times,serif" font-size="14.00">group__factor_dim (30)</text>
</g>
<g id="clust2" class="cluster">
<title>cluster__obs__ (2000)</title>
<path fill="none" stroke="black" d="M154.01,-8C154.01,-8 240.01,-8 240.01,-8 246.01,-8 252.01,-14 252.01,-20 252.01,-20 252.01,-211.32 252.01,-211.32 252.01,-217.32 246.01,-223.32 240.01,-223.32 240.01,-223.32 154.01,-223.32 154.01,-223.32 148.01,-223.32 142.01,-217.32 142.01,-211.32 142.01,-211.32 142.01,-20 142.01,-20 142.01,-14 148.01,-8 154.01,-8"/>
<text xml:space="preserve" text-anchor="middle" x="201.26" y="-15.2" font-family="Times,serif" font-size="14.00">__obs__ (2000)</text>
</g>
<!-- x -->
<g id="node1" class="node">
<title>x</title>
<ellipse fill="none" stroke="black" cx="41.01" cy="-292.57" rx="41.01" ry="40.66"/>
<text xml:space="preserve" text-anchor="middle" x="41.01" y="-304.02" font-family="Times,serif" font-size="14.00">x</text>
<text xml:space="preserve" text-anchor="middle" x="41.01" y="-287.52" font-family="Times,serif" font-size="14.00">~</text>
<text xml:space="preserve" text-anchor="middle" x="41.01" y="-271.02" font-family="Times,serif" font-size="14.00">Normal</text>
</g>
<!-- p -->
<g id="node7" class="node">
<title>p</title>
<polygon fill="none" stroke="black" points="242.14,-215.32 151.89,-215.32 151.89,-157.82 242.14,-157.82 242.14,-215.32"/>
<text xml:space="preserve" text-anchor="middle" x="197.01" y="-198.02" font-family="Times,serif" font-size="14.00">p</text>
<text xml:space="preserve" text-anchor="middle" x="197.01" y="-181.52" font-family="Times,serif" font-size="14.00">~</text>
<text xml:space="preserve" text-anchor="middle" x="197.01" y="-165.02" font-family="Times,serif" font-size="14.00">Deterministic</text>
</g>
<!-- x&#45;&gt;p -->
<g id="edge3" class="edge">
<title>x&#45;&gt;p</title>
<path fill="none" stroke="black" d="M63.63,-258.51C71.45,-248.81 80.83,-238.81 91.01,-231.32 105.95,-220.32 124.05,-211.53 141.04,-204.8"/>
<polygon fill="black" stroke="black" points="141.9,-208.22 150.02,-201.41 139.42,-201.67 141.9,-208.22"/>
</g>
<!-- Intercept -->
<g id="node2" class="node">
<title>Intercept</title>
<ellipse fill="none" stroke="black" cx="145.01" cy="-292.57" rx="45.25" ry="40.66"/>
<text xml:space="preserve" text-anchor="middle" x="145.01" y="-304.02" font-family="Times,serif" font-size="14.00">Intercept</text>
<text xml:space="preserve" text-anchor="middle" x="145.01" y="-287.52" font-family="Times,serif" font-size="14.00">~</text>
<text xml:space="preserve" text-anchor="middle" x="145.01" y="-271.02" font-family="Times,serif" font-size="14.00">Normal</text>
</g>
<!-- Intercept&#45;&gt;p -->
<g id="edge5" class="edge">
<title>Intercept&#45;&gt;p</title>
<path fill="none" stroke="black" d="M163.35,-254.9C168.07,-245.45 173.16,-235.26 177.93,-225.74"/>
<polygon fill="black" stroke="black" points="180.91,-227.6 182.25,-217.09 174.65,-224.47 180.91,-227.6"/>
</g>
<!-- z -->
<g id="node3" class="node">
<title>z</title>
<ellipse fill="none" stroke="black" cx="249.01" cy="-292.57" rx="41.01" ry="40.66"/>
<text xml:space="preserve" text-anchor="middle" x="249.01" y="-304.02" font-family="Times,serif" font-size="14.00">z</text>
<text xml:space="preserve" text-anchor="middle" x="249.01" y="-287.52" font-family="Times,serif" font-size="14.00">~</text>
<text xml:space="preserve" text-anchor="middle" x="249.01" y="-271.02" font-family="Times,serif" font-size="14.00">Normal</text>
</g>
<!-- z&#45;&gt;p -->
<g id="edge6" class="edge">
<title>z&#45;&gt;p</title>
<path fill="none" stroke="black" d="M231.12,-255.78C226.28,-246.11 221.04,-235.62 216.14,-225.82"/>
<polygon fill="black" stroke="black" points="219.28,-224.27 211.68,-216.89 213.02,-227.4 219.28,-224.27"/>
</g>
<!-- 1|group_sigma -->
<g id="node4" class="node">
<title>1|group_sigma</title>
<ellipse fill="none" stroke="black" cx="527.01" cy="-409.88" rx="68.59" ry="40.66"/>
<text xml:space="preserve" text-anchor="middle" x="527.01" y="-421.33" font-family="Times,serif" font-size="14.00">1|group_sigma</text>
<text xml:space="preserve" text-anchor="middle" x="527.01" y="-404.83" font-family="Times,serif" font-size="14.00">~</text>
<text xml:space="preserve" text-anchor="middle" x="527.01" y="-388.33" font-family="Times,serif" font-size="14.00">Exponential</text>
</g>
<!-- 1|group -->
<g id="node6" class="node">
<title>1|group</title>
<polygon fill="none" stroke="black" points="418.14,-321.32 327.89,-321.32 327.89,-263.82 418.14,-263.82 418.14,-321.32"/>
<text xml:space="preserve" text-anchor="middle" x="373.01" y="-304.02" font-family="Times,serif" font-size="14.00">1|group</text>
<text xml:space="preserve" text-anchor="middle" x="373.01" y="-287.52" font-family="Times,serif" font-size="14.00">~</text>
<text xml:space="preserve" text-anchor="middle" x="373.01" y="-271.02" font-family="Times,serif" font-size="14.00">Deterministic</text>
</g>
<!-- 1|group_sigma&#45;&gt;1|group -->
<g id="edge2" class="edge">
<title>1|group_sigma&#45;&gt;1|group</title>
<path fill="none" stroke="black" d="M484.93,-377.37C464.68,-362.21 440.35,-343.99 419.55,-328.42"/>
<polygon fill="black" stroke="black" points="421.89,-325.79 411.79,-322.6 417.69,-331.4 421.89,-325.79"/>
</g>
<!-- 1|group_offset -->
<g id="node5" class="node">
<title>1|group_offset</title>
<ellipse fill="none" stroke="black" cx="373.01" cy="-409.88" rx="67" ry="40.66"/>
<text xml:space="preserve" text-anchor="middle" x="373.01" y="-421.33" font-family="Times,serif" font-size="14.00">1|group_offset</text>
<text xml:space="preserve" text-anchor="middle" x="373.01" y="-404.83" font-family="Times,serif" font-size="14.00">~</text>
<text xml:space="preserve" text-anchor="middle" x="373.01" y="-388.33" font-family="Times,serif" font-size="14.00">Normal</text>
</g>
<!-- 1|group_offset&#45;&gt;1|group -->
<g id="edge1" class="edge">
<title>1|group_offset&#45;&gt;1|group</title>
<path fill="none" stroke="black" d="M373.01,-368.88C373.01,-357.17 373.01,-344.38 373.01,-332.73"/>
<polygon fill="black" stroke="black" points="376.51,-333.04 373.01,-323.04 369.51,-333.04 376.51,-333.04"/>
</g>
<!-- 1|group&#45;&gt;p -->
<g id="edge4" class="edge">
<title>1|group&#45;&gt;p</title>
<path fill="none" stroke="black" d="M342.4,-263.42C329.59,-252.53 314.18,-240.5 299.01,-231.32 284.68,-222.64 268.32,-214.82 252.96,-208.26"/>
<polygon fill="black" stroke="black" points="254.5,-205.11 243.92,-204.51 251.82,-211.57 254.5,-205.11"/>
</g>
<!-- y -->
<g id="node8" class="node">
<title>y</title>
<ellipse fill="lightgrey" stroke="black" cx="197.01" cy="-81.16" rx="47.38" ry="40.66"/>
<text xml:space="preserve" text-anchor="middle" x="197.01" y="-92.61" font-family="Times,serif" font-size="14.00">y</text>
<text xml:space="preserve" text-anchor="middle" x="197.01" y="-76.11" font-family="Times,serif" font-size="14.00">~</text>
<text xml:space="preserve" text-anchor="middle" x="197.01" y="-59.61" font-family="Times,serif" font-size="14.00">Bernoulli</text>
</g>
<!-- p&#45;&gt;y -->
<g id="edge7" class="edge">
<title>p&#45;&gt;y</title>
<path fill="none" stroke="black" d="M197.01,-157.58C197.01,-150.1 197.01,-141.77 197.01,-133.45"/>
<polygon fill="black" stroke="black" points="200.51,-133.71 197.01,-123.71 193.51,-133.71 200.51,-133.71"/>
</g>
</g>
</svg>
