<?xml version="1.0" encoding="UTF-8" standalone="no"?>
<!DOCTYPE svg PUBLIC "-//W3C//DTD SVG 1.1//EN"
 "http://www.w3.org/Graphics/SVG/1.1/DTD/svg11.dtd">
<!-- Generated by graphviz version 14.1.2 (0)
 -->
<!-- Pages: 1 -->
<svg width="521pt" height="486pt"
 viewBox="0.00 0.00 521.00 486.00" xmlns="http://www.w3.org/2000/svg" xmlns:xlink="http://www.w3.org/1999/xlink">
<g id="graph0" class="graph" transform="scale(1 1) rotate(0) translate(4 482.45)">
<polygon fill="white" stroke="none" points="-4,4 -4,-482.45 517.01,-482.45 517.01,4 -4,4"/>
<g id="clust1" class="cluster">
<title>clustergroup (30)</title>
<path fill="none" stroke="black" d="M319.01,-348.63C319.01,-348.63 493.01,-348.63 493.01,-348.63 499.01,-348.63 505.01,-354.63 505.01,-360.63 505.01,-360.63 505.01,-458.45 505.01,-458.45 505.01,-464.45 499.01,-470.45 493.01,-470.45 493.01,-470.45 319.01,-470.45 319.01,-470.45 313.01,-470.45 307.01,-464.45 307.01,-458.45 307.01,-458.45 307.01,-360.63 307.01,-360.63 307.01,-354.63 313.01,-348.63 319.01,-348.63"/>
<text xml:space="preserve" text-anchor="middle" x="468.14" y="-355.83" font-family="Times,serif" font-size="14.00">group (30)</text>
</g>
<g id="clust2" class="cluster">
<title>clusterid (2000)</title>
<path fill="none" stroke="black" d="M102.01,-8C102.01,-8 188.01,-8 188.01,-8 194.01,-8 200.01,-14 200.01,-20 200.01,-20 200.01,-328.63 200.01,-328.63 200.01,-334.63 194.01,-340.63 188.01,-340.63 188.01,-340.63 102.01,-340.63 102.01,-340.63 96.01,-340.63 90.01,-334.63 90.01,-328.63 90.01,-328.63 90.01,-20 90.01,-20 90.01,-14 96.01,-8 102.01,-8"/>
<text xml:space="preserve" text-anchor="middle" x="166.89" y="-15.2" font-family="Times,serif" font-size="14.00">id (2000)</text>
</g>
<!-- bxy -->
<g id="node1" class="node">
<title>bxy</title>
<ellipse fill="none" stroke="black" cx="41.01" cy="-291.98" rx="41.01" ry="40.66"/>
<text xml:space="preserve" text-anchor="middle" x="41.01" y="-303.43" font-family="Times,serif" font-size="14.00">bxy</text>
<text xml:space="preserve" text-anchor="middle" x="41.01" y="-286.93" font-family="Times,serif" font-size="14.00">~</text>
<text xml:space="preserve" text-anchor="middle" x="41.01" y="-270.43" font-family="Times,serif" font-size="14.00">Normal</text>
</g>
<!-- p -->
<g id="node7" class="node">
<title>p</title>
<polygon fill="none" stroke="black" points="192.14,-215.32 101.89,-215.32 101.89,-157.82 192.14,-157.82 192.14,-215.32"/>
<text xml:space="preserve" text-anchor="middle" x="147.01" y="-198.02" font-family="Times,serif" font-size="14.00">p</text>
<text xml:space="preserve" text-anchor="middle" x="147.01" y="-181.52" font-family="Times,serif" font-size="14.00">~</text>
<text xml:space="preserve" text-anchor="middle" x="147.01" y="-165.02" font-family="Times,serif" font-size="14.00">Deterministic</text>
</g>
<!-- bxy&#45;&gt;p -->
<g id="edge4" class="edge">
<title>bxy&#45;&gt;p</title>
<path fill="none" stroke="black" d="M69.98,-262.72C82.36,-250.64 96.97,-236.38 110.12,-223.56"/>
<polygon fill="black" stroke="black" points="112.28,-226.34 117,-216.85 107.4,-221.32 112.28,-226.34"/>
</g>
<!-- a0 -->
<g id="node2" class="node">
<title>a0</title>
<ellipse fill="none" stroke="black" cx="249.01" cy="-291.98" rx="41.01" ry="40.66"/>
<text xml:space="preserve" text-anchor="middle" x="249.01" y="-303.43" font-family="Times,serif" font-size="14.00">a0</text>
<text xml:space="preserve" text-anchor="middle" x="249.01" y="-286.93" font-family="Times,serif" font-size="14.00">~</text>
<text xml:space="preserve" text-anchor="middle" x="249.01" y="-270.43" font-family="Times,serif" font-size="14.00">Normal</text>
</g>
<!-- a0&#45;&gt;p -->
<g id="edge3" class="edge">
<title>a0&#45;&gt;p</title>
<path fill="none" stroke="black" d="M220.6,-262.17C208.8,-250.21 194.98,-236.2 182.52,-223.57"/>
<polygon fill="black" stroke="black" points="185.15,-221.24 175.63,-216.58 180.16,-226.16 185.15,-221.24"/>
</g>
<!-- bzy -->
<g id="node3" class="node">
<title>bzy</title>
<ellipse fill="none" stroke="black" cx="349.01" cy="-291.98" rx="41.01" ry="40.66"/>
<text xml:space="preserve" text-anchor="middle" x="349.01" y="-303.43" font-family="Times,serif" font-size="14.00">bzy</text>
<text xml:space="preserve" text-anchor="middle" x="349.01" y="-286.93" font-family="Times,serif" font-size="14.00">~</text>
<text xml:space="preserve" text-anchor="middle" x="349.01" y="-270.43" font-family="Times,serif" font-size="14.00">Normal</text>
</g>
<!-- bzy&#45;&gt;p -->
<g id="edge7" class="edge">
<title>bzy&#45;&gt;p</title>
<path fill="none" stroke="black" d="M318.22,-264.43C312.07,-259.75 305.5,-255.15 299.01,-251.32 268.74,-233.42 232.49,-218.01 203,-206.83"/>
<polygon fill="black" stroke="black" points="204.47,-203.65 193.87,-203.43 202.02,-210.21 204.47,-203.65"/>
</g>
<!-- z -->
<g id="node4" class="node">
<title>z</title>
<ellipse fill="none" stroke="black" cx="456.01" cy="-421.79" rx="41.01" ry="40.66"/>
<text xml:space="preserve" text-anchor="middle" x="456.01" y="-433.24" font-family="Times,serif" font-size="14.00">z</text>
<text xml:space="preserve" text-anchor="middle" x="456.01" y="-416.74" font-family="Times,serif" font-size="14.00">~</text>
<text xml:space="preserve" text-anchor="middle" x="456.01" y="-400.24" font-family="Times,serif" font-size="14.00">Normal</text>
</g>
<!-- z&#45;&gt;p -->
<g id="edge6" class="edge">
<title>z&#45;&gt;p</title>
<path fill="none" stroke="black" d="M458.84,-380.95C459.27,-342.58 453.49,-285.47 420.01,-251.32 390.36,-221.07 274.83,-202.48 203.9,-193.68"/>
<polygon fill="black" stroke="black" points="204.34,-190.21 194,-192.48 203.5,-197.16 204.34,-190.21"/>
</g>
<!-- ug -->
<g id="node5" class="node">
<title>ug</title>
<ellipse fill="none" stroke="black" cx="356.01" cy="-421.79" rx="41.01" ry="40.66"/>
<text xml:space="preserve" text-anchor="middle" x="356.01" y="-433.24" font-family="Times,serif" font-size="14.00">ug</text>
<text xml:space="preserve" text-anchor="middle" x="356.01" y="-416.74" font-family="Times,serif" font-size="14.00">~</text>
<text xml:space="preserve" text-anchor="middle" x="356.01" y="-400.24" font-family="Times,serif" font-size="14.00">Normal</text>
</g>
<!-- x -->
<g id="node6" class="node">
<title>x</title>
<ellipse fill="none" stroke="black" cx="148.01" cy="-291.98" rx="41.01" ry="40.66"/>
<text xml:space="preserve" text-anchor="middle" x="148.01" y="-303.43" font-family="Times,serif" font-size="14.00">x</text>
<text xml:space="preserve" text-anchor="middle" x="148.01" y="-286.93" font-family="Times,serif" font-size="14.00">~</text>
<text xml:space="preserve" text-anchor="middle" x="148.01" y="-270.43" font-family="Times,serif" font-size="14.00">Normal</text>
</g>
<!-- ug&#45;&gt;x -->
<g id="edge1" class="edge">
<title>ug&#45;&gt;x</title>
<path fill="none" stroke="black" d="M318.19,-405.08C285.3,-390.6 237.09,-367.35 199.01,-340.63 194.11,-337.2 189.21,-333.31 184.48,-329.28"/>
<polygon fill="black" stroke="black" points="187.13,-326.96 177.33,-322.94 182.49,-332.2 187.13,-326.96"/>
</g>
<!-- ug&#45;&gt;p -->
<g id="edge5" class="edge">
<title>ug&#45;&gt;p</title>
<path fill="none" stroke="black" d="M379.28,-388.09C402.37,-351.25 430.15,-291.32 399.01,-251.32 375.26,-220.81 270.42,-202.58 203.67,-193.86"/>
<polygon fill="black" stroke="black" points="204.36,-190.42 194,-192.64 203.48,-197.37 204.36,-190.42"/>
</g>
<!-- x&#45;&gt;p -->
<g id="edge2" class="edge">
<title>x&#45;&gt;p</title>
<path fill="none" stroke="black" d="M147.63,-251C147.55,-243.15 147.47,-234.91 147.39,-227.08"/>
<polygon fill="black" stroke="black" points="150.89,-227.07 147.3,-217.11 143.89,-227.14 150.89,-227.07"/>
</g>
<!-- y -->
<g id="node8" class="node">
<title>y</title>
<ellipse fill="none" stroke="black" cx="145.01" cy="-81.16" rx="47.38" ry="40.66"/>
<text xml:space="preserve" text-anchor="middle" x="145.01" y="-92.61" font-family="Times,serif" font-size="14.00">y</text>
<text xml:space="preserve" text-anchor="middle" x="145.01" y="-76.11" font-family="Times,serif" font-size="14.00">~</text>
<text xml:space="preserve" text-anchor="middle" x="145.01" y="-59.61" font-family="Times,serif" font-size="14.00">Bernoulli</text>
</g>
<!-- p&#45;&gt;y -->
<g id="edge8" class="edge">
<title>p&#45;&gt;y</title>
<path fill="none" stroke="black" d="M146.47,-157.58C146.33,-150.1 146.17,-141.77 146,-133.45"/>
<polygon fill="black" stroke="black" points="149.51,-133.64 145.82,-123.71 142.51,-133.78 149.51,-133.64"/>
</g>
</g>
</svg>
