<?xml version="1.0" encoding="UTF-8" standalone="no"?>
<!DOCTYPE svg PUBLIC "-//W3C//DTD SVG 1.1//EN"
 "http://www.w3.org/Graphics/SVG/1.1/DTD/svg11.dtd">
<!-- Generated by graphviz version 14.1.2 (0)
 -->
<!-- Pages: 1 -->
<svg width="327pt" height="369pt"
 viewBox="0.00 0.00 327.00 369.00" xmlns="http://www.w3.org/2000/svg" xmlns:xlink="http://www.w3.org/1999/xlink">
<g id="graph0" class="graph" transform="scale(1 1) rotate(0) translate(4 365.13)">
<polygon fill="white" stroke="none" points="-4,4 -4,-365.13 323.01,-365.13 323.01,4 -4,4"/>
<g id="clust1" class="cluster">
<title>clusterC(group)_dim (30)</title>
<path fill="none" stroke="black" d="M20,-231.32C20,-231.32 116,-231.32 116,-231.32 122,-231.32 128,-237.32 128,-243.32 128,-243.32 128,-341.13 128,-341.13 128,-347.13 122,-353.13 116,-353.13 116,-353.13 20,-353.13 20,-353.13 14,-353.13 8,-347.13 8,-341.13 8,-341.13 8,-243.32 8,-243.32 8,-237.32 14,-231.32 20,-231.32"/>
<text xml:space="preserve" text-anchor="middle" x="67.88" y="-238.52" font-family="Times,serif" font-size="14.00">C(group)_dim (30)</text>
</g>
<g id="clust2" class="cluster">
<title>cluster__obs__ (2000)</title>
<path fill="none" stroke="black" d="M135,-8C135,-8 221,-8 221,-8 227,-8 233,-14 233,-20 233,-20 233,-211.32 233,-211.32 233,-217.32 227,-223.32 221,-223.32 221,-223.32 135,-223.32 135,-223.32 129,-223.32 123,-217.32 123,-211.32 123,-211.32 123,-20 123,-20 123,-14 129,-8 135,-8"/>
<text xml:space="preserve" text-anchor="middle" x="182.25" y="-15.2" font-family="Times,serif" font-size="14.00">__obs__ (2000)</text>
</g>
<!-- C(group) -->
<g id="node1" class="node">
<title>C(group)</title>
<ellipse fill="none" stroke="black" cx="73" cy="-304.48" rx="46.32" ry="40.66"/>
<text xml:space="preserve" text-anchor="middle" x="73" y="-315.93" font-family="Times,serif" font-size="14.00">C(group)</text>
<text xml:space="preserve" text-anchor="middle" x="73" y="-299.43" font-family="Times,serif" font-size="14.00">~</text>
<text xml:space="preserve" text-anchor="middle" x="73" y="-282.93" font-family="Times,serif" font-size="14.00">Normal</text>
</g>
<!-- p -->
<g id="node4" class="node">
<title>p</title>
<polygon fill="none" stroke="black" points="223.12,-215.32 132.88,-215.32 132.88,-157.82 223.12,-157.82 223.12,-215.32"/>
<text xml:space="preserve" text-anchor="middle" x="178" y="-198.02" font-family="Times,serif" font-size="14.00">p</text>
<text xml:space="preserve" text-anchor="middle" x="178" y="-181.52" font-family="Times,serif" font-size="14.00">~</text>
<text xml:space="preserve" text-anchor="middle" x="178" y="-165.02" font-family="Times,serif" font-size="14.00">Deterministic</text>
</g>
<!-- C(group)&#45;&gt;p -->
<g id="edge3" class="edge">
<title>C(group)&#45;&gt;p</title>
<path fill="none" stroke="black" d="M96.85,-269.3C106.07,-256.9 117.03,-243.06 128,-231.32 130.48,-228.66 133.11,-226 135.81,-223.37"/>
<polygon fill="black" stroke="black" points="138.06,-226.06 142.95,-216.66 133.27,-220.95 138.06,-226.06"/>
</g>
<!-- x -->
<g id="node2" class="node">
<title>x</title>
<ellipse fill="none" stroke="black" cx="178" cy="-304.48" rx="41.01" ry="40.66"/>
<text xml:space="preserve" text-anchor="middle" x="178" y="-315.93" font-family="Times,serif" font-size="14.00">x</text>
<text xml:space="preserve" text-anchor="middle" x="178" y="-299.43" font-family="Times,serif" font-size="14.00">~</text>
<text xml:space="preserve" text-anchor="middle" x="178" y="-282.93" font-family="Times,serif" font-size="14.00">Normal</text>
</g>
<!-- x&#45;&gt;p -->
<g id="edge1" class="edge">
<title>x&#45;&gt;p</title>
<path fill="none" stroke="black" d="M178,-263.59C178,-251.7 178,-238.69 178,-226.84"/>
<polygon fill="black" stroke="black" points="181.5,-226.98 178,-216.98 174.5,-226.98 181.5,-226.98"/>
</g>
<!-- z -->
<g id="node3" class="node">
<title>z</title>
<ellipse fill="none" stroke="black" cx="278" cy="-304.48" rx="41.01" ry="40.66"/>
<text xml:space="preserve" text-anchor="middle" x="278" y="-315.93" font-family="Times,serif" font-size="14.00">z</text>
<text xml:space="preserve" text-anchor="middle" x="278" y="-299.43" font-family="Times,serif" font-size="14.00">~</text>
<text xml:space="preserve" text-anchor="middle" x="278" y="-282.93" font-family="Times,serif" font-size="14.00">Normal</text>
</g>
<!-- z&#45;&gt;p -->
<g id="edge2" class="edge">
<title>z&#45;&gt;p</title>
<path fill="none" stroke="black" d="M256.73,-269.14C248.4,-256.72 238.36,-242.91 228,-231.32 225.62,-228.65 223.08,-225.99 220.46,-223.37"/>
<polygon fill="black" stroke="black" points="223.15,-221.1 213.51,-216.72 218.32,-226.16 223.15,-221.1"/>
</g>
<!-- y -->
<g id="node5" class="node">
<title>y</title>
<ellipse fill="lightgrey" stroke="black" cx="178" cy="-81.16" rx="47.38" ry="40.66"/>
<text xml:space="preserve" text-anchor="middle" x="178" y="-92.61" font-family="Times,serif" font-size="14.00">y</text>
<text xml:space="preserve" text-anchor="middle" x="178" y="-76.11" font-family="Times,serif" font-size="14.00">~</text>
<text xml:space="preserve" text-anchor="middle" x="178" y="-59.61" font-family="Times,serif" font-size="14.00">Bernoulli</text>
</g>
<!-- p&#45;&gt;y -->
<g id="edge4" class="edge">
<title>p&#45;&gt;y</title>
<path fill="none" stroke="black" d="M178,-157.58C178,-150.1 178,-141.77 178,-133.45"/>
<polygon fill="black" stroke="black" points="181.5,-133.71 178,-123.71 174.5,-133.71 181.5,-133.71"/>
</g>
</g>
</svg>
