<?xml version="1.0" encoding="UTF-8" standalone="no"?>
<!DOCTYPE svg PUBLIC "-//W3C//DTD SVG 1.1//EN"
 "http://www.w3.org/Graphics/SVG/1.1/DTD/svg11.dtd">
<!-- Generated by graphviz version 12.2.1 (20250203.1708)
 -->
<!-- Pages: 1 -->
<svg width="414pt" height="341pt"
 viewBox="0.00 0.00 413.98 340.63" xmlns="http://www.w3.org/2000/svg" xmlns:xlink="http://www.w3.org/1999/xlink">
<g id="graph0" class="graph" transform="scale(1 1) rotate(0) translate(4 336.63)">
<polygon fill="white" stroke="none" points="-4,4 -4,-336.63 409.98,-336.63 409.98,4 -4,4"/>
<g id="clust1" class="cluster">
<title>cluster__obs__ (400)</title>
<path fill="none" stroke="black" d="M169.97,-8C169.97,-8 255.97,-8 255.97,-8 261.97,-8 267.97,-14 267.97,-20 267.97,-20 267.97,-211.32 267.97,-211.32 267.97,-217.32 261.97,-223.32 255.97,-223.32 255.97,-223.32 169.97,-223.32 169.97,-223.32 163.97,-223.32 157.97,-217.32 157.97,-211.32 157.97,-211.32 157.97,-20 157.97,-20 157.97,-14 163.97,-8 169.97,-8"/>
<text text-anchor="middle" x="220.59" y="-15.2" font-family="Times,serif" font-size="14.00">__obs__ (400)</text>
</g>
<!-- scale(gre) -->
<g id="node1" class="node">
<title>scale(gre)</title>
<ellipse fill="none" stroke="black" cx="48.97" cy="-291.98" rx="48.97" ry="40.66"/>
<text text-anchor="middle" x="48.97" y="-303.43" font-family="Times,serif" font-size="14.00">scale(gre)</text>
<text text-anchor="middle" x="48.97" y="-286.93" font-family="Times,serif" font-size="14.00">~</text>
<text text-anchor="middle" x="48.97" y="-270.43" font-family="Times,serif" font-size="14.00">Normal</text>
</g>
<!-- p -->
<g id="node6" class="node">
<title>p</title>
<polygon fill="none" stroke="black" points="258.09,-215.32 167.84,-215.32 167.84,-157.82 258.09,-157.82 258.09,-215.32"/>
<text text-anchor="middle" x="212.97" y="-198.02" font-family="Times,serif" font-size="14.00">p</text>
<text text-anchor="middle" x="212.97" y="-181.52" font-family="Times,serif" font-size="14.00">~</text>
<text text-anchor="middle" x="212.97" y="-165.02" font-family="Times,serif" font-size="14.00">Deterministic</text>
</g>
<!-- scale(gre)&#45;&gt;p -->
<g id="edge1" class="edge">
<title>scale(gre)&#45;&gt;p</title>
<path fill="none" stroke="black" d="M86.19,-265.05C93.05,-260.41 100.19,-255.67 106.97,-251.32 123.36,-240.8 141.44,-229.73 157.96,-219.82"/>
<polygon fill="black" stroke="black" points="159.39,-223.04 166.18,-214.91 155.8,-217.04 159.39,-223.04"/>
</g>
<!-- Intercept -->
<g id="node2" class="node">
<title>Intercept</title>
<ellipse fill="none" stroke="black" cx="160.97" cy="-291.98" rx="45.25" ry="40.66"/>
<text text-anchor="middle" x="160.97" y="-303.43" font-family="Times,serif" font-size="14.00">Intercept</text>
<text text-anchor="middle" x="160.97" y="-286.93" font-family="Times,serif" font-size="14.00">~</text>
<text text-anchor="middle" x="160.97" y="-270.43" font-family="Times,serif" font-size="14.00">Normal</text>
</g>
<!-- Intercept&#45;&gt;p -->
<g id="edge2" class="edge">
<title>Intercept&#45;&gt;p</title>
<path fill="none" stroke="black" d="M179.3,-254.52C183.97,-245.22 189.01,-235.21 193.73,-225.82"/>
<polygon fill="black" stroke="black" points="196.84,-227.43 198.2,-216.93 190.58,-224.29 196.84,-227.43"/>
</g>
<!-- rank -->
<g id="node3" class="node">
<title>rank</title>
<ellipse fill="none" stroke="black" cx="264.97" cy="-291.98" rx="41.01" ry="40.66"/>
<text text-anchor="middle" x="264.97" y="-303.43" font-family="Times,serif" font-size="14.00">rank</text>
<text text-anchor="middle" x="264.97" y="-286.93" font-family="Times,serif" font-size="14.00">~</text>
<text text-anchor="middle" x="264.97" y="-270.43" font-family="Times,serif" font-size="14.00">Normal</text>
</g>
<!-- rank&#45;&gt;p -->
<g id="edge3" class="edge">
<title>rank&#45;&gt;p</title>
<path fill="none" stroke="black" d="M246.93,-255.1C242.14,-245.59 236.96,-235.29 232.12,-225.66"/>
<polygon fill="black" stroke="black" points="235.34,-224.27 227.72,-216.91 229.09,-227.42 235.34,-224.27"/>
</g>
<!-- gpa -->
<g id="node4" class="node">
<title>gpa</title>
<ellipse fill="none" stroke="black" cx="364.97" cy="-291.98" rx="41.01" ry="40.66"/>
<text text-anchor="middle" x="364.97" y="-303.43" font-family="Times,serif" font-size="14.00">gpa</text>
<text text-anchor="middle" x="364.97" y="-286.93" font-family="Times,serif" font-size="14.00">~</text>
<text text-anchor="middle" x="364.97" y="-270.43" font-family="Times,serif" font-size="14.00">Normal</text>
</g>
<!-- gpa&#45;&gt;p -->
<g id="edge4" class="edge">
<title>gpa&#45;&gt;p</title>
<path fill="none" stroke="black" d="M333.64,-265.25C327.54,-260.5 321.12,-255.66 314.97,-251.32 299.99,-240.75 283.29,-229.93 267.81,-220.28"/>
<polygon fill="black" stroke="black" points="269.99,-217.51 259.65,-215.23 266.31,-223.47 269.99,-217.51"/>
</g>
<!-- admit -->
<g id="node5" class="node">
<title>admit</title>
<ellipse fill="lightgrey" stroke="black" cx="212.97" cy="-81.16" rx="47.38" ry="40.66"/>
<text text-anchor="middle" x="212.97" y="-92.61" font-family="Times,serif" font-size="14.00">admit</text>
<text text-anchor="middle" x="212.97" y="-76.11" font-family="Times,serif" font-size="14.00">~</text>
<text text-anchor="middle" x="212.97" y="-59.61" font-family="Times,serif" font-size="14.00">Bernoulli</text>
</g>
<!-- p&#45;&gt;admit -->
<g id="edge5" class="edge">
<title>p&#45;&gt;admit</title>
<path fill="none" stroke="black" d="M212.97,-157.58C212.97,-150.1 212.97,-141.77 212.97,-133.45"/>
<polygon fill="black" stroke="black" points="216.47,-133.71 212.97,-123.71 209.47,-133.71 216.47,-133.71"/>
</g>
</g>
</svg>
