<?xml version="1.0" encoding="UTF-8" standalone="no"?>
<!DOCTYPE svg PUBLIC "-//W3C//DTD SVG 1.1//EN"
 "http://www.w3.org/Graphics/SVG/1.1/DTD/svg11.dtd">
<!-- Generated by graphviz version 2.50.0 (0)
 -->
<!-- Pages: 1 -->
<svg width="500pt" height="322pt"
 viewBox="0.00 0.00 500.21 321.91" xmlns="http://www.w3.org/2000/svg" xmlns:xlink="http://www.w3.org/1999/xlink">
<g id="graph0" class="graph" transform="scale(1 1) rotate(0) translate(4 317.91)">
<polygon fill="white" stroke="transparent" points="-4,4 -4,-317.91 496.21,-317.91 496.21,4 -4,4"/>
<g id="clust1" class="cluster">
<title>cluster__obs__ (400)</title>
<path fill="none" stroke="black" d="M188.69,-8C188.69,-8 296.69,-8 296.69,-8 302.69,-8 308.69,-14 308.69,-20 308.69,-20 308.69,-198.95 308.69,-198.95 308.69,-204.95 302.69,-210.95 296.69,-210.95 296.69,-210.95 188.69,-210.95 188.69,-210.95 182.69,-210.95 176.69,-204.95 176.69,-198.95 176.69,-198.95 176.69,-20 176.69,-20 176.69,-14 182.69,-8 188.69,-8"/>
<text text-anchor="middle" x="253.69" y="-15.8" font-family="Times,serif" font-size="14.00">__obs__ (400)</text>
</g>
<!-- Intercept -->
<g id="node1" class="node">
<title>Intercept</title>
<ellipse fill="none" stroke="black" cx="58.69" cy="-276.43" rx="58.88" ry="37.45"/>
<text text-anchor="middle" x="58.69" y="-287.73" font-family="Times,serif" font-size="14.00">Intercept</text>
<text text-anchor="middle" x="58.69" y="-272.73" font-family="Times,serif" font-size="14.00">~</text>
<text text-anchor="middle" x="58.69" y="-257.73" font-family="Times,serif" font-size="14.00">Normal</text>
</g>
<!-- p -->
<g id="node5" class="node">
<title>p</title>
<polygon fill="none" stroke="black" points="299.69,-202.95 185.69,-202.95 185.69,-149.95 299.69,-149.95 299.69,-202.95"/>
<text text-anchor="middle" x="242.69" y="-187.75" font-family="Times,serif" font-size="14.00">p</text>
<text text-anchor="middle" x="242.69" y="-172.75" font-family="Times,serif" font-size="14.00">~</text>
<text text-anchor="middle" x="242.69" y="-157.75" font-family="Times,serif" font-size="14.00">Deterministic</text>
</g>
<!-- Intercept&#45;&gt;p -->
<g id="edge3" class="edge">
<title>Intercept&#45;&gt;p</title>
<path fill="none" stroke="black" d="M102.93,-251.66C110.84,-247.42 119.01,-243.05 126.69,-238.95 145.79,-228.77 166.68,-217.68 185.41,-207.75"/>
<polygon fill="black" stroke="black" points="187.21,-210.76 194.41,-202.98 183.93,-204.57 187.21,-210.76"/>
</g>
<!-- rank -->
<g id="node2" class="node">
<title>rank</title>
<ellipse fill="none" stroke="black" cx="184.69" cy="-276.43" rx="49.49" ry="37.45"/>
<text text-anchor="middle" x="184.69" y="-287.73" font-family="Times,serif" font-size="14.00">rank</text>
<text text-anchor="middle" x="184.69" y="-272.73" font-family="Times,serif" font-size="14.00">~</text>
<text text-anchor="middle" x="184.69" y="-257.73" font-family="Times,serif" font-size="14.00">Normal</text>
</g>
<!-- rank&#45;&gt;p -->
<g id="edge2" class="edge">
<title>rank&#45;&gt;p</title>
<path fill="none" stroke="black" d="M204.49,-241.99C210.27,-232.22 216.59,-221.54 222.4,-211.73"/>
<polygon fill="black" stroke="black" points="225.48,-213.4 227.56,-203.01 219.45,-209.84 225.48,-213.4"/>
</g>
<!-- gpa -->
<g id="node3" class="node">
<title>gpa</title>
<ellipse fill="none" stroke="black" cx="301.69" cy="-276.43" rx="49.49" ry="37.45"/>
<text text-anchor="middle" x="301.69" y="-287.73" font-family="Times,serif" font-size="14.00">gpa</text>
<text text-anchor="middle" x="301.69" y="-272.73" font-family="Times,serif" font-size="14.00">~</text>
<text text-anchor="middle" x="301.69" y="-257.73" font-family="Times,serif" font-size="14.00">Normal</text>
</g>
<!-- gpa&#45;&gt;p -->
<g id="edge1" class="edge">
<title>gpa&#45;&gt;p</title>
<path fill="none" stroke="black" d="M281.55,-241.99C275.67,-232.22 269.24,-221.54 263.33,-211.73"/>
<polygon fill="black" stroke="black" points="266.24,-209.78 258.08,-203.01 260.24,-213.39 266.24,-209.78"/>
</g>
<!-- scale(gre) -->
<g id="node4" class="node">
<title>scale(gre)</title>
<ellipse fill="none" stroke="black" cx="430.69" cy="-276.43" rx="61.54" ry="37.45"/>
<text text-anchor="middle" x="430.69" y="-287.73" font-family="Times,serif" font-size="14.00">scale(gre)</text>
<text text-anchor="middle" x="430.69" y="-272.73" font-family="Times,serif" font-size="14.00">~</text>
<text text-anchor="middle" x="430.69" y="-257.73" font-family="Times,serif" font-size="14.00">Normal</text>
</g>
<!-- scale(gre)&#45;&gt;p -->
<g id="edge4" class="edge">
<title>scale(gre)&#45;&gt;p</title>
<path fill="none" stroke="black" d="M384.7,-251.46C359.4,-238.28 327.77,-221.79 300.78,-207.73"/>
<polygon fill="black" stroke="black" points="302.31,-204.58 291.82,-203.06 299.07,-210.78 302.31,-204.58"/>
</g>
<!-- admit -->
<g id="node6" class="node">
<title>admit</title>
<ellipse fill="lightgrey" stroke="black" cx="242.69" cy="-76.48" rx="57.97" ry="37.45"/>
<text text-anchor="middle" x="242.69" y="-87.78" font-family="Times,serif" font-size="14.00">admit</text>
<text text-anchor="middle" x="242.69" y="-72.78" font-family="Times,serif" font-size="14.00">~</text>
<text text-anchor="middle" x="242.69" y="-57.78" font-family="Times,serif" font-size="14.00">Bernoulli</text>
</g>
<!-- p&#45;&gt;admit -->
<g id="edge5" class="edge">
<title>p&#45;&gt;admit</title>
<path fill="none" stroke="black" d="M242.69,-149.71C242.69,-141.89 242.69,-133.03 242.69,-124.27"/>
<polygon fill="black" stroke="black" points="246.19,-124.1 242.69,-114.1 239.19,-124.1 246.19,-124.1"/>
</g>
</g>
</svg>
