<?xml version="1.0" encoding="UTF-8" standalone="no"?>
<!DOCTYPE svg PUBLIC "-//W3C//DTD SVG 1.1//EN"
 "http://www.w3.org/Graphics/SVG/1.1/DTD/svg11.dtd">
<!-- Generated by graphviz version 2.43.0 (0)
 -->
<!-- Title: %3 Pages: 1 -->
<svg width="500pt" height="322pt"
 viewBox="0.00 0.00 500.21 321.91" xmlns="http://www.w3.org/2000/svg" xmlns:xlink="http://www.w3.org/1999/xlink">
<g id="graph0" class="graph" transform="scale(1 1) rotate(0) translate(4 317.91)">
<title>%3</title>
<polygon fill="white" stroke="transparent" points="-4,4 -4,-317.91 496.21,-317.91 496.21,4 -4,4"/>
<g id="clust1" class="cluster">
<title>cluster__obs__ (400)</title>
<path fill="none" stroke="black" d="M194.52,-8C194.52,-8 302.52,-8 302.52,-8 308.52,-8 314.52,-14 314.52,-20 314.52,-20 314.52,-198.95 314.52,-198.95 314.52,-204.95 308.52,-210.95 302.52,-210.95 302.52,-210.95 194.52,-210.95 194.52,-210.95 188.52,-210.95 182.52,-204.95 182.52,-198.95 182.52,-198.95 182.52,-20 182.52,-20 182.52,-14 188.52,-8 194.52,-8"/>
<text text-anchor="middle" x="259.52" y="-15.8" font-family="Times,serif" font-size="14.00">__obs__ (400)</text>
</g>
<!-- scale(gre) -->
<g id="node1" class="node">
<title>scale(gre)</title>
<ellipse fill="none" stroke="black" cx="61.52" cy="-276.43" rx="61.54" ry="37.45"/>
<text text-anchor="middle" x="61.52" y="-287.73" font-family="Times,serif" font-size="14.00">scale(gre)</text>
<text text-anchor="middle" x="61.52" y="-272.73" font-family="Times,serif" font-size="14.00">~</text>
<text text-anchor="middle" x="61.52" y="-257.73" font-family="Times,serif" font-size="14.00">Normal</text>
</g>
<!-- p -->
<g id="node6" class="node">
<title>p</title>
<polygon fill="none" stroke="black" points="305.52,-202.95 191.52,-202.95 191.52,-149.95 305.52,-149.95 305.52,-202.95"/>
<text text-anchor="middle" x="248.52" y="-187.75" font-family="Times,serif" font-size="14.00">p</text>
<text text-anchor="middle" x="248.52" y="-172.75" font-family="Times,serif" font-size="14.00">~</text>
<text text-anchor="middle" x="248.52" y="-157.75" font-family="Times,serif" font-size="14.00">Deterministic</text>
</g>
<!-- scale(gre)&#45;&gt;p -->
<g id="edge1" class="edge">
<title>scale(gre)&#45;&gt;p</title>
<path fill="none" stroke="black" d="M107.74,-251.21C132.7,-238.13 163.77,-221.86 190.36,-207.93"/>
<polygon fill="black" stroke="black" points="192.32,-210.85 199.56,-203.11 189.08,-204.65 192.32,-210.85"/>
</g>
<!-- rank -->
<g id="node2" class="node">
<title>rank</title>
<ellipse fill="none" stroke="black" cx="190.52" cy="-276.43" rx="49.49" ry="37.45"/>
<text text-anchor="middle" x="190.52" y="-287.73" font-family="Times,serif" font-size="14.00">rank</text>
<text text-anchor="middle" x="190.52" y="-272.73" font-family="Times,serif" font-size="14.00">~</text>
<text text-anchor="middle" x="190.52" y="-257.73" font-family="Times,serif" font-size="14.00">Normal</text>
</g>
<!-- rank&#45;&gt;p -->
<g id="edge2" class="edge">
<title>rank&#45;&gt;p</title>
<path fill="none" stroke="black" d="M210.32,-241.99C216.1,-232.22 222.42,-221.54 228.23,-211.73"/>
<polygon fill="black" stroke="black" points="231.3,-213.4 233.39,-203.01 225.28,-209.84 231.3,-213.4"/>
</g>
<!-- gpa -->
<g id="node3" class="node">
<title>gpa</title>
<ellipse fill="none" stroke="black" cx="307.52" cy="-276.43" rx="49.49" ry="37.45"/>
<text text-anchor="middle" x="307.52" y="-287.73" font-family="Times,serif" font-size="14.00">gpa</text>
<text text-anchor="middle" x="307.52" y="-272.73" font-family="Times,serif" font-size="14.00">~</text>
<text text-anchor="middle" x="307.52" y="-257.73" font-family="Times,serif" font-size="14.00">Normal</text>
</g>
<!-- gpa&#45;&gt;p -->
<g id="edge3" class="edge">
<title>gpa&#45;&gt;p</title>
<path fill="none" stroke="black" d="M287.38,-241.99C281.5,-232.22 275.07,-221.54 269.16,-211.73"/>
<polygon fill="black" stroke="black" points="272.07,-209.78 263.91,-203.01 266.07,-213.39 272.07,-209.78"/>
</g>
<!-- Intercept -->
<g id="node4" class="node">
<title>Intercept</title>
<ellipse fill="none" stroke="black" cx="433.52" cy="-276.43" rx="58.88" ry="37.45"/>
<text text-anchor="middle" x="433.52" y="-287.73" font-family="Times,serif" font-size="14.00">Intercept</text>
<text text-anchor="middle" x="433.52" y="-272.73" font-family="Times,serif" font-size="14.00">~</text>
<text text-anchor="middle" x="433.52" y="-257.73" font-family="Times,serif" font-size="14.00">Normal</text>
</g>
<!-- Intercept&#45;&gt;p -->
<g id="edge4" class="edge">
<title>Intercept&#45;&gt;p</title>
<path fill="none" stroke="black" d="M389.29,-251.63C381.38,-247.4 373.21,-243.04 365.52,-238.95 346.36,-228.78 325.4,-217.73 306.57,-207.85"/>
<polygon fill="black" stroke="black" points="308,-204.64 297.52,-203.1 304.75,-210.84 308,-204.64"/>
</g>
<!-- admit -->
<g id="node5" class="node">
<title>admit</title>
<ellipse fill="lightgrey" stroke="black" cx="248.52" cy="-76.48" rx="57.97" ry="37.45"/>
<text text-anchor="middle" x="248.52" y="-87.78" font-family="Times,serif" font-size="14.00">admit</text>
<text text-anchor="middle" x="248.52" y="-72.78" font-family="Times,serif" font-size="14.00">~</text>
<text text-anchor="middle" x="248.52" y="-57.78" font-family="Times,serif" font-size="14.00">Bernoulli</text>
</g>
<!-- p&#45;&gt;admit -->
<g id="edge5" class="edge">
<title>p&#45;&gt;admit</title>
<path fill="none" stroke="black" d="M248.52,-149.71C248.52,-141.89 248.52,-133.03 248.52,-124.27"/>
<polygon fill="black" stroke="black" points="252.02,-124.1 248.52,-114.1 245.02,-124.1 252.02,-124.1"/>
</g>
</g>
</svg>
