<?xml version="1.0" encoding="UTF-8" standalone="no"?>
<!DOCTYPE svg PUBLIC "-//W3C//DTD SVG 1.1//EN"
 "http://www.w3.org/Graphics/SVG/1.1/DTD/svg11.dtd">
<!-- Generated by graphviz version 2.50.0 (0)
 -->
<!-- Pages: 1 -->
<svg width="500pt" height="233pt"
 viewBox="0.00 0.00 499.99 232.91" xmlns="http://www.w3.org/2000/svg" xmlns:xlink="http://www.w3.org/1999/xlink">
<g id="graph0" class="graph" transform="scale(1 1) rotate(0) translate(4 228.91)">
<polygon fill="white" stroke="transparent" points="-4,4 -4,-228.91 495.99,-228.91 495.99,4 -4,4"/>
<g id="clust1" class="cluster">
<title>clusteradmit_obs (400)</title>
<path fill="none" stroke="black" d="M190.5,-8C190.5,-8 298.5,-8 298.5,-8 304.5,-8 310.5,-14 310.5,-20 310.5,-20 310.5,-109.95 310.5,-109.95 310.5,-115.95 304.5,-121.95 298.5,-121.95 298.5,-121.95 190.5,-121.95 190.5,-121.95 184.5,-121.95 178.5,-115.95 178.5,-109.95 178.5,-109.95 178.5,-20 178.5,-20 178.5,-14 184.5,-8 190.5,-8"/>
<text text-anchor="middle" x="245" y="-15.8" font-family="Times,serif" font-size="14.00">admit_obs (400)</text>
</g>
<!-- rank -->
<g id="node1" class="node">
<title>rank</title>
<ellipse fill="none" stroke="black" cx="49.5" cy="-187.43" rx="49.49" ry="37.45"/>
<text text-anchor="middle" x="49.5" y="-198.73" font-family="Times,serif" font-size="14.00">rank</text>
<text text-anchor="middle" x="49.5" y="-183.73" font-family="Times,serif" font-size="14.00">~</text>
<text text-anchor="middle" x="49.5" y="-168.73" font-family="Times,serif" font-size="14.00">Normal</text>
</g>
<!-- admit -->
<g id="node5" class="node">
<title>admit</title>
<ellipse fill="lightgrey" stroke="black" cx="244.5" cy="-76.48" rx="57.97" ry="37.45"/>
<text text-anchor="middle" x="244.5" y="-87.78" font-family="Times,serif" font-size="14.00">admit</text>
<text text-anchor="middle" x="244.5" y="-72.78" font-family="Times,serif" font-size="14.00">~</text>
<text text-anchor="middle" x="244.5" y="-57.78" font-family="Times,serif" font-size="14.00">Bernoulli</text>
</g>
<!-- rank&#45;&gt;admit -->
<g id="edge1" class="edge">
<title>rank&#45;&gt;admit</title>
<path fill="none" stroke="black" d="M86.69,-162.47C93.55,-158.21 100.7,-153.88 107.5,-149.95 134.37,-134.43 164.83,-118.18 190.2,-105.01"/>
<polygon fill="black" stroke="black" points="192.03,-108.01 199.3,-100.31 188.81,-101.79 192.03,-108.01"/>
</g>
<!-- Intercept -->
<g id="node2" class="node">
<title>Intercept</title>
<ellipse fill="none" stroke="black" cx="175.5" cy="-187.43" rx="58.88" ry="37.45"/>
<text text-anchor="middle" x="175.5" y="-198.73" font-family="Times,serif" font-size="14.00">Intercept</text>
<text text-anchor="middle" x="175.5" y="-183.73" font-family="Times,serif" font-size="14.00">~</text>
<text text-anchor="middle" x="175.5" y="-168.73" font-family="Times,serif" font-size="14.00">Normal</text>
</g>
<!-- Intercept&#45;&gt;admit -->
<g id="edge2" class="edge">
<title>Intercept&#45;&gt;admit</title>
<path fill="none" stroke="black" d="M197.14,-152.26C203.56,-142.11 210.68,-130.88 217.4,-120.26"/>
<polygon fill="black" stroke="black" points="220.54,-121.85 222.93,-111.53 214.62,-118.11 220.54,-121.85"/>
</g>
<!-- scale(gre) -->
<g id="node3" class="node">
<title>scale(gre)</title>
<ellipse fill="none" stroke="black" cx="313.5" cy="-187.43" rx="61.54" ry="37.45"/>
<text text-anchor="middle" x="313.5" y="-198.73" font-family="Times,serif" font-size="14.00">scale(gre)</text>
<text text-anchor="middle" x="313.5" y="-183.73" font-family="Times,serif" font-size="14.00">~</text>
<text text-anchor="middle" x="313.5" y="-168.73" font-family="Times,serif" font-size="14.00">Normal</text>
</g>
<!-- scale(gre)&#45;&gt;admit -->
<g id="edge4" class="edge">
<title>scale(gre)&#45;&gt;admit</title>
<path fill="none" stroke="black" d="M291.85,-152.26C285.43,-142.11 278.32,-130.88 271.59,-120.26"/>
<polygon fill="black" stroke="black" points="274.37,-118.11 266.06,-111.53 268.46,-121.85 274.37,-118.11"/>
</g>
<!-- gpa -->
<g id="node4" class="node">
<title>gpa</title>
<ellipse fill="none" stroke="black" cx="442.5" cy="-187.43" rx="49.49" ry="37.45"/>
<text text-anchor="middle" x="442.5" y="-198.73" font-family="Times,serif" font-size="14.00">gpa</text>
<text text-anchor="middle" x="442.5" y="-183.73" font-family="Times,serif" font-size="14.00">~</text>
<text text-anchor="middle" x="442.5" y="-168.73" font-family="Times,serif" font-size="14.00">Normal</text>
</g>
<!-- gpa&#45;&gt;admit -->
<g id="edge3" class="edge">
<title>gpa&#45;&gt;admit</title>
<path fill="none" stroke="black" d="M405.34,-162.42C398.47,-158.16 391.31,-153.85 384.5,-149.95 356.76,-134.09 325.21,-117.62 299.09,-104.4"/>
<polygon fill="black" stroke="black" points="300.6,-101.24 290.09,-99.87 297.45,-107.49 300.6,-101.24"/>
</g>
</g>
</svg>
