<?xml version="1.0" encoding="UTF-8" standalone="no"?>
<!DOCTYPE svg PUBLIC "-//W3C//DTD SVG 1.1//EN"
 "http://www.w3.org/Graphics/SVG/1.1/DTD/svg11.dtd">
<!-- Generated by graphviz version 13.1.2 (20250809.0930)
 -->
<!-- Pages: 1 -->
<svg width="414pt" height="341pt"
 viewBox="0.00 0.00 414.00 341.00" xmlns="http://www.w3.org/2000/svg" xmlns:xlink="http://www.w3.org/1999/xlink">
<g id="graph0" class="graph" transform="scale(1 1) rotate(0) translate(4 336.63)">
<polygon fill="white" stroke="none" points="-4,4 -4,-336.63 409.98,-336.63 409.98,4 -4,4"/>
<g id="clust1" class="cluster">
<title>cluster__obs__ (400)</title>
<path fill="none" stroke="black" d="M150.01,-8C150.01,-8 236.01,-8 236.01,-8 242.01,-8 248.01,-14 248.01,-20 248.01,-20 248.01,-211.32 248.01,-211.32 248.01,-217.32 242.01,-223.32 236.01,-223.32 236.01,-223.32 150.01,-223.32 150.01,-223.32 144.01,-223.32 138.01,-217.32 138.01,-211.32 138.01,-211.32 138.01,-20 138.01,-20 138.01,-14 144.01,-8 150.01,-8"/>
<text xml:space="preserve" text-anchor="middle" x="200.64" y="-15.2" font-family="Times,serif" font-size="14.00">__obs__ (400)</text>
</g>
<!-- gpa -->
<g id="node1" class="node">
<title>gpa</title>
<ellipse fill="none" stroke="black" cx="41.01" cy="-291.98" rx="41.01" ry="40.66"/>
<text xml:space="preserve" text-anchor="middle" x="41.01" y="-303.43" font-family="Times,serif" font-size="14.00">gpa</text>
<text xml:space="preserve" text-anchor="middle" x="41.01" y="-286.93" font-family="Times,serif" font-size="14.00">~</text>
<text xml:space="preserve" text-anchor="middle" x="41.01" y="-270.43" font-family="Times,serif" font-size="14.00">Normal</text>
</g>
<!-- p -->
<g id="node6" class="node">
<title>p</title>
<polygon fill="none" stroke="black" points="238.14,-215.32 147.89,-215.32 147.89,-157.82 238.14,-157.82 238.14,-215.32"/>
<text xml:space="preserve" text-anchor="middle" x="193.01" y="-198.02" font-family="Times,serif" font-size="14.00">p</text>
<text xml:space="preserve" text-anchor="middle" x="193.01" y="-181.52" font-family="Times,serif" font-size="14.00">~</text>
<text xml:space="preserve" text-anchor="middle" x="193.01" y="-165.02" font-family="Times,serif" font-size="14.00">Deterministic</text>
</g>
<!-- gpa&#45;&gt;p -->
<g id="edge1" class="edge">
<title>gpa&#45;&gt;p</title>
<path fill="none" stroke="black" d="M72.34,-265.25C78.44,-260.5 84.86,-255.66 91.01,-251.32 105.99,-240.75 122.69,-229.93 138.17,-220.28"/>
<polygon fill="black" stroke="black" points="139.67,-223.47 146.33,-215.23 135.99,-217.51 139.67,-223.47"/>
</g>
<!-- rank -->
<g id="node2" class="node">
<title>rank</title>
<ellipse fill="none" stroke="black" cx="141.01" cy="-291.98" rx="41.01" ry="40.66"/>
<text xml:space="preserve" text-anchor="middle" x="141.01" y="-303.43" font-family="Times,serif" font-size="14.00">rank</text>
<text xml:space="preserve" text-anchor="middle" x="141.01" y="-286.93" font-family="Times,serif" font-size="14.00">~</text>
<text xml:space="preserve" text-anchor="middle" x="141.01" y="-270.43" font-family="Times,serif" font-size="14.00">Normal</text>
</g>
<!-- rank&#45;&gt;p -->
<g id="edge2" class="edge">
<title>rank&#45;&gt;p</title>
<path fill="none" stroke="black" d="M159.05,-255.1C163.84,-245.59 169.02,-235.29 173.85,-225.66"/>
<polygon fill="black" stroke="black" points="176.89,-227.42 178.26,-216.91 170.64,-224.27 176.89,-227.42"/>
</g>
<!-- Intercept -->
<g id="node3" class="node">
<title>Intercept</title>
<ellipse fill="none" stroke="black" cx="245.01" cy="-291.98" rx="45.25" ry="40.66"/>
<text xml:space="preserve" text-anchor="middle" x="245.01" y="-303.43" font-family="Times,serif" font-size="14.00">Intercept</text>
<text xml:space="preserve" text-anchor="middle" x="245.01" y="-286.93" font-family="Times,serif" font-size="14.00">~</text>
<text xml:space="preserve" text-anchor="middle" x="245.01" y="-270.43" font-family="Times,serif" font-size="14.00">Normal</text>
</g>
<!-- Intercept&#45;&gt;p -->
<g id="edge3" class="edge">
<title>Intercept&#45;&gt;p</title>
<path fill="none" stroke="black" d="M226.68,-254.52C222.01,-245.22 216.97,-235.21 212.25,-225.82"/>
<polygon fill="black" stroke="black" points="215.4,-224.29 207.78,-216.93 209.14,-227.43 215.4,-224.29"/>
</g>
<!-- scale(gre) -->
<g id="node4" class="node">
<title>scale(gre)</title>
<ellipse fill="none" stroke="black" cx="357.01" cy="-291.98" rx="48.97" ry="40.66"/>
<text xml:space="preserve" text-anchor="middle" x="357.01" y="-303.43" font-family="Times,serif" font-size="14.00">scale(gre)</text>
<text xml:space="preserve" text-anchor="middle" x="357.01" y="-286.93" font-family="Times,serif" font-size="14.00">~</text>
<text xml:space="preserve" text-anchor="middle" x="357.01" y="-270.43" font-family="Times,serif" font-size="14.00">Normal</text>
</g>
<!-- scale(gre)&#45;&gt;p -->
<g id="edge4" class="edge">
<title>scale(gre)&#45;&gt;p</title>
<path fill="none" stroke="black" d="M319.79,-265.05C312.92,-260.41 305.79,-255.67 299.01,-251.32 282.62,-240.8 264.54,-229.73 248.02,-219.82"/>
<polygon fill="black" stroke="black" points="250.18,-217.04 239.8,-214.91 246.59,-223.04 250.18,-217.04"/>
</g>
<!-- admit -->
<g id="node5" class="node">
<title>admit</title>
<ellipse fill="lightgrey" stroke="black" cx="193.01" cy="-81.16" rx="47.38" ry="40.66"/>
<text xml:space="preserve" text-anchor="middle" x="193.01" y="-92.61" font-family="Times,serif" font-size="14.00">admit</text>
<text xml:space="preserve" text-anchor="middle" x="193.01" y="-76.11" font-family="Times,serif" font-size="14.00">~</text>
<text xml:space="preserve" text-anchor="middle" x="193.01" y="-59.61" font-family="Times,serif" font-size="14.00">Bernoulli</text>
</g>
<!-- p&#45;&gt;admit -->
<g id="edge5" class="edge">
<title>p&#45;&gt;admit</title>
<path fill="none" stroke="black" d="M193.01,-157.58C193.01,-150.1 193.01,-141.77 193.01,-133.45"/>
<polygon fill="black" stroke="black" points="196.51,-133.71 193.01,-123.71 189.51,-133.71 196.51,-133.71"/>
</g>
</g>
</svg>
