<?xml version="1.0" encoding="UTF-8" standalone="no"?>
<!DOCTYPE svg PUBLIC "-//W3C//DTD SVG 1.1//EN"
 "http://www.w3.org/Graphics/SVG/1.1/DTD/svg11.dtd">
<!-- Generated by graphviz version 2.43.0 (0)
 -->
<!-- Title: %3 Pages: 1 -->
<svg width="499pt" height="355pt"
 viewBox="0.00 0.00 499.20 354.86" xmlns="http://www.w3.org/2000/svg" xmlns:xlink="http://www.w3.org/1999/xlink">
<g id="graph0" class="graph" transform="scale(1 1) rotate(0) translate(4 350.86)">
<title>%3</title>
<polygon fill="white" stroke="transparent" points="-4,4 -4,-350.86 495.2,-350.86 495.2,4 -4,4"/>
<g id="clust1" class="cluster">
<title>cluster85</title>
<path fill="none" stroke="black" d="M39.51,-129.95C39.51,-129.95 141.51,-129.95 141.51,-129.95 147.51,-129.95 153.51,-135.95 153.51,-141.95 153.51,-141.95 153.51,-231.91 153.51,-231.91 153.51,-237.91 147.51,-243.91 141.51,-243.91 141.51,-243.91 39.51,-243.91 39.51,-243.91 33.51,-243.91 27.51,-237.91 27.51,-231.91 27.51,-231.91 27.51,-141.95 27.51,-141.95 27.51,-135.95 33.51,-129.95 39.51,-129.95"/>
<text text-anchor="middle" x="136.01" y="-137.75" font-family="Times,serif" font-size="14.00">85</text>
</g>
<g id="clust2" class="cluster">
<title>cluster919</title>
<path fill="none" stroke="black" d="M202.51,-8C202.51,-8 316.51,-8 316.51,-8 322.51,-8 328.51,-14 328.51,-20 328.51,-20 328.51,-109.95 328.51,-109.95 328.51,-115.95 322.51,-121.95 316.51,-121.95 316.51,-121.95 202.51,-121.95 202.51,-121.95 196.51,-121.95 190.51,-115.95 190.51,-109.95 190.51,-109.95 190.51,-20 190.51,-20 190.51,-14 196.51,-8 202.51,-8"/>
<text text-anchor="middle" x="306.51" y="-15.8" font-family="Times,serif" font-size="14.00">919</text>
</g>
<!-- 1|county_sigma -->
<g id="node1" class="node">
<title>1|county_sigma</title>
<ellipse fill="none" stroke="black" cx="90.51" cy="-309.38" rx="90.52" ry="37.45"/>
<text text-anchor="middle" x="90.51" y="-320.68" font-family="Times,serif" font-size="14.00">1|county_sigma</text>
<text text-anchor="middle" x="90.51" y="-305.68" font-family="Times,serif" font-size="14.00">~</text>
<text text-anchor="middle" x="90.51" y="-290.68" font-family="Times,serif" font-size="14.00">Exponential</text>
</g>
<!-- 1|county -->
<g id="node4" class="node">
<title>1|county</title>
<ellipse fill="none" stroke="black" cx="90.51" cy="-198.43" rx="55.31" ry="37.45"/>
<text text-anchor="middle" x="90.51" y="-209.73" font-family="Times,serif" font-size="14.00">1|county</text>
<text text-anchor="middle" x="90.51" y="-194.73" font-family="Times,serif" font-size="14.00">~</text>
<text text-anchor="middle" x="90.51" y="-179.73" font-family="Times,serif" font-size="14.00">Normal</text>
</g>
<!-- 1|county_sigma&#45;&gt;1|county -->
<g id="edge1" class="edge">
<title>1|county_sigma&#45;&gt;1|county</title>
<path fill="none" stroke="black" d="M90.51,-271.8C90.51,-263.63 90.51,-254.85 90.51,-246.32"/>
<polygon fill="black" stroke="black" points="94.01,-246.1 90.51,-236.1 87.01,-246.1 94.01,-246.1"/>
</g>
<!-- log_radon_sigma -->
<g id="node2" class="node">
<title>log_radon_sigma</title>
<ellipse fill="none" stroke="black" cx="259.51" cy="-198.43" rx="96.33" ry="37.45"/>
<text text-anchor="middle" x="259.51" y="-209.73" font-family="Times,serif" font-size="14.00">log_radon_sigma</text>
<text text-anchor="middle" x="259.51" y="-194.73" font-family="Times,serif" font-size="14.00">~</text>
<text text-anchor="middle" x="259.51" y="-179.73" font-family="Times,serif" font-size="14.00">Exponential</text>
</g>
<!-- log_radon -->
<g id="node5" class="node">
<title>log_radon</title>
<ellipse fill="lightgrey" stroke="black" cx="259.51" cy="-76.48" rx="60.62" ry="37.45"/>
<text text-anchor="middle" x="259.51" y="-87.78" font-family="Times,serif" font-size="14.00">log_radon</text>
<text text-anchor="middle" x="259.51" y="-72.78" font-family="Times,serif" font-size="14.00">~</text>
<text text-anchor="middle" x="259.51" y="-57.78" font-family="Times,serif" font-size="14.00">Normal</text>
</g>
<!-- log_radon_sigma&#45;&gt;log_radon -->
<g id="edge3" class="edge">
<title>log_radon_sigma&#45;&gt;log_radon</title>
<path fill="none" stroke="black" d="M259.51,-160.79C259.51,-149.38 259.51,-136.65 259.51,-124.63"/>
<polygon fill="black" stroke="black" points="263.01,-124.31 259.51,-114.31 256.01,-124.31 263.01,-124.31"/>
</g>
<!-- Intercept -->
<g id="node3" class="node">
<title>Intercept</title>
<ellipse fill="none" stroke="black" cx="432.51" cy="-198.43" rx="58.88" ry="37.45"/>
<text text-anchor="middle" x="432.51" y="-209.73" font-family="Times,serif" font-size="14.00">Intercept</text>
<text text-anchor="middle" x="432.51" y="-194.73" font-family="Times,serif" font-size="14.00">~</text>
<text text-anchor="middle" x="432.51" y="-179.73" font-family="Times,serif" font-size="14.00">Normal</text>
</g>
<!-- Intercept&#45;&gt;log_radon -->
<g id="edge4" class="edge">
<title>Intercept&#45;&gt;log_radon</title>
<path fill="none" stroke="black" d="M404.25,-165.32C392.69,-153.32 378.7,-140.14 364.51,-129.95 350.32,-119.77 333.87,-110.53 318.26,-102.73"/>
<polygon fill="black" stroke="black" points="319.71,-99.55 309.19,-98.32 316.64,-105.84 319.71,-99.55"/>
</g>
<!-- 1|county&#45;&gt;log_radon -->
<g id="edge2" class="edge">
<title>1|county&#45;&gt;log_radon</title>
<path fill="none" stroke="black" d="M116.82,-165.23C127.67,-153.21 140.89,-140.05 154.51,-129.95 168.54,-119.56 184.94,-110.24 200.55,-102.45"/>
<polygon fill="black" stroke="black" points="202.17,-105.56 209.63,-98.04 199.11,-99.26 202.17,-105.56"/>
</g>
</g>
</svg>
