<?xml version="1.0" encoding="UTF-8" standalone="no"?>
<!DOCTYPE svg PUBLIC "-//W3C//DTD SVG 1.1//EN"
 "http://www.w3.org/Graphics/SVG/1.1/DTD/svg11.dtd">
<!-- Generated by graphviz version 2.43.0 (0)
 -->
<!-- Title: %3 Pages: 1 -->
<svg width="497pt" height="355pt"
 viewBox="0.00 0.00 496.51 354.86" xmlns="http://www.w3.org/2000/svg" xmlns:xlink="http://www.w3.org/1999/xlink">
<g id="graph0" class="graph" transform="scale(1 1) rotate(0) translate(4 350.86)">
<title>%3</title>
<polygon fill="white" stroke="transparent" points="-4,4 -4,-350.86 492.51,-350.86 492.51,4 -4,4"/>
<g id="clust1" class="cluster">
<title>cluster2</title>
<path fill="none" stroke="black" d="M20,-129.95C20,-129.95 110,-129.95 110,-129.95 116,-129.95 122,-135.95 122,-141.95 122,-141.95 122,-231.91 122,-231.91 122,-237.91 116,-243.91 110,-243.91 110,-243.91 20,-243.91 20,-243.91 14,-243.91 8,-237.91 8,-231.91 8,-231.91 8,-141.95 8,-141.95 8,-135.95 14,-129.95 20,-129.95"/>
<text text-anchor="middle" x="109" y="-137.75" font-family="Times,serif" font-size="14.00">2</text>
</g>
<g id="clust2" class="cluster">
<title>cluster85</title>
<path fill="none" stroke="black" d="M347,-129.95C347,-129.95 449,-129.95 449,-129.95 455,-129.95 461,-135.95 461,-141.95 461,-141.95 461,-231.91 461,-231.91 461,-237.91 455,-243.91 449,-243.91 449,-243.91 347,-243.91 347,-243.91 341,-243.91 335,-237.91 335,-231.91 335,-231.91 335,-141.95 335,-141.95 335,-135.95 341,-129.95 347,-129.95"/>
<text text-anchor="middle" x="443.5" y="-137.75" font-family="Times,serif" font-size="14.00">85</text>
</g>
<g id="clust3" class="cluster">
<title>cluster919</title>
<path fill="none" stroke="black" d="M172,-8C172,-8 286,-8 286,-8 292,-8 298,-14 298,-20 298,-20 298,-109.95 298,-109.95 298,-115.95 292,-121.95 286,-121.95 286,-121.95 172,-121.95 172,-121.95 166,-121.95 160,-115.95 160,-109.95 160,-109.95 160,-20 160,-20 160,-14 166,-8 172,-8"/>
<text text-anchor="middle" x="276" y="-15.8" font-family="Times,serif" font-size="14.00">919</text>
</g>
<!-- floor -->
<g id="node1" class="node">
<title>floor</title>
<ellipse fill="none" stroke="black" cx="65" cy="-198.43" rx="49.49" ry="37.45"/>
<text text-anchor="middle" x="65" y="-209.73" font-family="Times,serif" font-size="14.00">floor</text>
<text text-anchor="middle" x="65" y="-194.73" font-family="Times,serif" font-size="14.00">~</text>
<text text-anchor="middle" x="65" y="-179.73" font-family="Times,serif" font-size="14.00">Normal</text>
</g>
<!-- log_radon -->
<g id="node5" class="node">
<title>log_radon</title>
<ellipse fill="lightgrey" stroke="black" cx="229" cy="-76.48" rx="60.62" ry="37.45"/>
<text text-anchor="middle" x="229" y="-87.78" font-family="Times,serif" font-size="14.00">log_radon</text>
<text text-anchor="middle" x="229" y="-72.78" font-family="Times,serif" font-size="14.00">~</text>
<text text-anchor="middle" x="229" y="-57.78" font-family="Times,serif" font-size="14.00">Normal</text>
</g>
<!-- floor&#45;&gt;log_radon -->
<g id="edge2" class="edge">
<title>floor&#45;&gt;log_radon</title>
<path fill="none" stroke="black" d="M88.59,-165.47C98.59,-153.34 110.95,-140.04 124,-129.95 137.82,-119.28 154.15,-109.87 169.76,-102.07"/>
<polygon fill="black" stroke="black" points="171.37,-105.18 178.85,-97.68 168.32,-98.88 171.37,-105.18"/>
</g>
<!-- 1|county_sigma -->
<g id="node2" class="node">
<title>1|county_sigma</title>
<ellipse fill="none" stroke="black" cx="398" cy="-309.38" rx="90.52" ry="37.45"/>
<text text-anchor="middle" x="398" y="-320.68" font-family="Times,serif" font-size="14.00">1|county_sigma</text>
<text text-anchor="middle" x="398" y="-305.68" font-family="Times,serif" font-size="14.00">~</text>
<text text-anchor="middle" x="398" y="-290.68" font-family="Times,serif" font-size="14.00">Exponential</text>
</g>
<!-- 1|county -->
<g id="node4" class="node">
<title>1|county</title>
<ellipse fill="none" stroke="black" cx="398" cy="-198.43" rx="55.31" ry="37.45"/>
<text text-anchor="middle" x="398" y="-209.73" font-family="Times,serif" font-size="14.00">1|county</text>
<text text-anchor="middle" x="398" y="-194.73" font-family="Times,serif" font-size="14.00">~</text>
<text text-anchor="middle" x="398" y="-179.73" font-family="Times,serif" font-size="14.00">Normal</text>
</g>
<!-- 1|county_sigma&#45;&gt;1|county -->
<g id="edge1" class="edge">
<title>1|county_sigma&#45;&gt;1|county</title>
<path fill="none" stroke="black" d="M398,-271.8C398,-263.63 398,-254.85 398,-246.32"/>
<polygon fill="black" stroke="black" points="401.5,-246.1 398,-236.1 394.5,-246.1 401.5,-246.1"/>
</g>
<!-- log_radon_sigma -->
<g id="node3" class="node">
<title>log_radon_sigma</title>
<ellipse fill="none" stroke="black" cx="229" cy="-198.43" rx="96.33" ry="37.45"/>
<text text-anchor="middle" x="229" y="-209.73" font-family="Times,serif" font-size="14.00">log_radon_sigma</text>
<text text-anchor="middle" x="229" y="-194.73" font-family="Times,serif" font-size="14.00">~</text>
<text text-anchor="middle" x="229" y="-179.73" font-family="Times,serif" font-size="14.00">Exponential</text>
</g>
<!-- log_radon_sigma&#45;&gt;log_radon -->
<g id="edge4" class="edge">
<title>log_radon_sigma&#45;&gt;log_radon</title>
<path fill="none" stroke="black" d="M229,-160.79C229,-149.38 229,-136.65 229,-124.63"/>
<polygon fill="black" stroke="black" points="232.5,-124.31 229,-114.31 225.5,-124.31 232.5,-124.31"/>
</g>
<!-- 1|county&#45;&gt;log_radon -->
<g id="edge3" class="edge">
<title>1|county&#45;&gt;log_radon</title>
<path fill="none" stroke="black" d="M371.69,-165.23C360.84,-153.21 347.62,-140.05 334,-129.95 319.97,-119.56 303.57,-110.24 287.96,-102.45"/>
<polygon fill="black" stroke="black" points="289.4,-99.26 278.88,-98.04 286.34,-105.56 289.4,-99.26"/>
</g>
</g>
</svg>
