<?xml version="1.0" encoding="UTF-8" standalone="no"?>
<!DOCTYPE svg PUBLIC "-//W3C//DTD SVG 1.1//EN"
 "http://www.w3.org/Graphics/SVG/1.1/DTD/svg11.dtd">
<!-- Generated by graphviz version 2.43.0 (0)
 -->
<!-- Title: %3 Pages: 1 -->
<svg width="333pt" height="260pt"
 viewBox="0.00 0.00 333.17 259.91" xmlns="http://www.w3.org/2000/svg" xmlns:xlink="http://www.w3.org/1999/xlink">
<g id="graph0" class="graph" transform="scale(1 1) rotate(0) translate(4 255.91)">
<title>%3</title>
<polygon fill="white" stroke="transparent" points="-4,4 -4,-255.91 329.17,-255.91 329.17,4 -4,4"/>
<g id="clust1" class="cluster">
<title>cluster2</title>
<path fill="none" stroke="black" d="M20,-129.95C20,-129.95 110,-129.95 110,-129.95 116,-129.95 122,-135.95 122,-141.95 122,-141.95 122,-231.91 122,-231.91 122,-237.91 116,-243.91 110,-243.91 110,-243.91 20,-243.91 20,-243.91 14,-243.91 8,-237.91 8,-231.91 8,-231.91 8,-141.95 8,-141.95 8,-135.95 14,-129.95 20,-129.95"/>
<text text-anchor="middle" x="109" y="-137.75" font-family="Times,serif" font-size="14.00">2</text>
</g>
<g id="clust2" class="cluster">
<title>cluster919</title>
<path fill="none" stroke="black" d="M52,-8C52,-8 166,-8 166,-8 172,-8 178,-14 178,-20 178,-20 178,-109.95 178,-109.95 178,-115.95 172,-121.95 166,-121.95 166,-121.95 52,-121.95 52,-121.95 46,-121.95 40,-115.95 40,-109.95 40,-109.95 40,-20 40,-20 40,-14 46,-8 52,-8"/>
<text text-anchor="middle" x="156" y="-15.8" font-family="Times,serif" font-size="14.00">919</text>
</g>
<!-- floor -->
<g id="node1" class="node">
<title>floor</title>
<ellipse fill="none" stroke="black" cx="65" cy="-198.43" rx="49.49" ry="37.45"/>
<text text-anchor="middle" x="65" y="-209.73" font-family="Times,serif" font-size="14.00">floor</text>
<text text-anchor="middle" x="65" y="-194.73" font-family="Times,serif" font-size="14.00">~</text>
<text text-anchor="middle" x="65" y="-179.73" font-family="Times,serif" font-size="14.00">Normal</text>
</g>
<!-- log_radon -->
<g id="node3" class="node">
<title>log_radon</title>
<ellipse fill="lightgrey" stroke="black" cx="109" cy="-76.48" rx="60.62" ry="37.45"/>
<text text-anchor="middle" x="109" y="-87.78" font-family="Times,serif" font-size="14.00">log_radon</text>
<text text-anchor="middle" x="109" y="-72.78" font-family="Times,serif" font-size="14.00">~</text>
<text text-anchor="middle" x="109" y="-57.78" font-family="Times,serif" font-size="14.00">Normal</text>
</g>
<!-- floor&#45;&gt;log_radon -->
<g id="edge1" class="edge">
<title>floor&#45;&gt;log_radon</title>
<path fill="none" stroke="black" d="M77.96,-162.09C82.45,-149.86 87.54,-135.98 92.28,-123.05"/>
<polygon fill="black" stroke="black" points="95.67,-123.99 95.82,-113.4 89.09,-121.58 95.67,-123.99"/>
</g>
<!-- log_radon_sigma -->
<g id="node2" class="node">
<title>log_radon_sigma</title>
<ellipse fill="none" stroke="black" cx="229" cy="-198.43" rx="96.33" ry="37.45"/>
<text text-anchor="middle" x="229" y="-209.73" font-family="Times,serif" font-size="14.00">log_radon_sigma</text>
<text text-anchor="middle" x="229" y="-194.73" font-family="Times,serif" font-size="14.00">~</text>
<text text-anchor="middle" x="229" y="-179.73" font-family="Times,serif" font-size="14.00">Exponential</text>
</g>
<!-- log_radon_sigma&#45;&gt;log_radon -->
<g id="edge2" class="edge">
<title>log_radon_sigma&#45;&gt;log_radon</title>
<path fill="none" stroke="black" d="M194.93,-163.38C180.17,-148.62 162.8,-131.26 147.56,-116.03"/>
<polygon fill="black" stroke="black" points="149.82,-113.33 140.27,-108.74 144.87,-118.28 149.82,-113.33"/>
</g>
</g>
</svg>
