<?xml version="1.0" encoding="UTF-8" standalone="no"?>
<!DOCTYPE svg PUBLIC "-//W3C//DTD SVG 1.1//EN"
 "http://www.w3.org/Graphics/SVG/1.1/DTD/svg11.dtd">
<!-- Generated by graphviz version 2.43.0 (0)
 -->
<!-- Title: %3 Pages: 1 -->
<svg width="380pt" height="363pt"
 viewBox="0.00 0.00 379.66 362.86" xmlns="http://www.w3.org/2000/svg" xmlns:xlink="http://www.w3.org/1999/xlink">
<g id="graph0" class="graph" transform="scale(1 1) rotate(0) translate(4 358.86)">
<title>%3</title>
<polygon fill="white" stroke="transparent" points="-4,4 -4,-358.86 375.66,-358.86 375.66,4 -4,4"/>
<g id="clust1" class="cluster">
<title>clusterI(Time ** 2):Planet_dim (3)</title>
<path fill="none" stroke="black" d="M149.66,-232.91C149.66,-232.91 351.66,-232.91 351.66,-232.91 357.66,-232.91 363.66,-238.91 363.66,-244.91 363.66,-244.91 363.66,-334.86 363.66,-334.86 363.66,-340.86 357.66,-346.86 351.66,-346.86 351.66,-346.86 149.66,-346.86 149.66,-346.86 143.66,-346.86 137.66,-340.86 137.66,-334.86 137.66,-334.86 137.66,-244.91 137.66,-244.91 137.66,-238.91 143.66,-232.91 149.66,-232.91"/>
<text text-anchor="middle" x="260.16" y="-240.71" font-family="Times,serif" font-size="14.00">I(Time ** 2):Planet_dim (3)</text>
</g>
<g id="clust2" class="cluster">
<title>cluster__obs__ (81)</title>
<path fill="none" stroke="black" d="M173.66,-8C173.66,-8 279.66,-8 279.66,-8 285.66,-8 291.66,-14 291.66,-20 291.66,-20 291.66,-209.93 291.66,-209.93 291.66,-215.93 285.66,-221.93 279.66,-221.93 279.66,-221.93 173.66,-221.93 173.66,-221.93 167.66,-221.93 161.66,-215.93 161.66,-209.93 161.66,-209.93 161.66,-20 161.66,-20 161.66,-14 167.66,-8 173.66,-8"/>
<text text-anchor="middle" x="241.16" y="-15.8" font-family="Times,serif" font-size="14.00">__obs__ (81)</text>
</g>
<!-- sigma -->
<g id="node1" class="node">
<title>sigma</title>
<ellipse fill="none" stroke="black" cx="75.66" cy="-187.43" rx="75.82" ry="37.45"/>
<text text-anchor="middle" x="75.66" y="-198.73" font-family="Times,serif" font-size="14.00">sigma</text>
<text text-anchor="middle" x="75.66" y="-183.73" font-family="Times,serif" font-size="14.00">~</text>
<text text-anchor="middle" x="75.66" y="-168.73" font-family="Times,serif" font-size="14.00">Halfstudentt</text>
</g>
<!-- Height -->
<g id="node5" class="node">
<title>Height</title>
<ellipse fill="lightgrey" stroke="black" cx="222.66" cy="-76.48" rx="49.49" ry="37.45"/>
<text text-anchor="middle" x="222.66" y="-87.78" font-family="Times,serif" font-size="14.00">Height</text>
<text text-anchor="middle" x="222.66" y="-72.78" font-family="Times,serif" font-size="14.00">~</text>
<text text-anchor="middle" x="222.66" y="-57.78" font-family="Times,serif" font-size="14.00">Normal</text>
</g>
<!-- sigma&#45;&gt;Height -->
<g id="edge3" class="edge">
<title>sigma&#45;&gt;Height</title>
<path fill="none" stroke="black" d="M117,-155.79C136.47,-141.36 159.68,-124.15 179.39,-109.55"/>
<polygon fill="black" stroke="black" points="181.65,-112.23 187.6,-103.46 177.48,-106.61 181.65,-112.23"/>
</g>
<!-- Time -->
<g id="node2" class="node">
<title>Time</title>
<ellipse fill="none" stroke="black" cx="77.66" cy="-301.38" rx="49.49" ry="37.45"/>
<text text-anchor="middle" x="77.66" y="-312.68" font-family="Times,serif" font-size="14.00">Time</text>
<text text-anchor="middle" x="77.66" y="-297.68" font-family="Times,serif" font-size="14.00">~</text>
<text text-anchor="middle" x="77.66" y="-282.68" font-family="Times,serif" font-size="14.00">Normal</text>
</g>
<!-- mu -->
<g id="node4" class="node">
<title>mu</title>
<polygon fill="none" stroke="black" points="283.66,-213.93 169.66,-213.93 169.66,-160.93 283.66,-160.93 283.66,-213.93"/>
<text text-anchor="middle" x="226.66" y="-198.73" font-family="Times,serif" font-size="14.00">mu</text>
<text text-anchor="middle" x="226.66" y="-183.73" font-family="Times,serif" font-size="14.00">~</text>
<text text-anchor="middle" x="226.66" y="-168.73" font-family="Times,serif" font-size="14.00">Deterministic</text>
</g>
<!-- Time&#45;&gt;mu -->
<g id="edge1" class="edge">
<title>Time&#45;&gt;mu</title>
<path fill="none" stroke="black" d="M98.93,-267.18C108.27,-254.89 120.19,-241.79 133.66,-232.91 144.11,-226.02 149.12,-229.74 160.66,-224.91 165.3,-222.97 170.03,-220.79 174.72,-218.48"/>
<polygon fill="black" stroke="black" points="176.33,-221.59 183.66,-213.94 173.16,-215.35 176.33,-221.59"/>
</g>
<!-- I(Time ** 2)&amp;Planet -->
<g id="node3" class="node">
<title>I(Time ** 2)&amp;Planet</title>
<ellipse fill="none" stroke="black" cx="250.66" cy="-301.38" rx="105.22" ry="37.45"/>
<text text-anchor="middle" x="250.66" y="-312.68" font-family="Times,serif" font-size="14.00">I(Time ** 2):Planet</text>
<text text-anchor="middle" x="250.66" y="-297.68" font-family="Times,serif" font-size="14.00">~</text>
<text text-anchor="middle" x="250.66" y="-282.68" font-family="Times,serif" font-size="14.00">Normal</text>
</g>
<!-- I(Time ** 2)&amp;Planet&#45;&gt;mu -->
<g id="edge2" class="edge">
<title>I(Time ** 2)&amp;Planet&#45;&gt;mu</title>
<path fill="none" stroke="black" d="M242.8,-263.73C240.09,-251.07 237.05,-236.92 234.35,-224.32"/>
<polygon fill="black" stroke="black" points="237.7,-223.22 232.18,-214.18 230.85,-224.69 237.7,-223.22"/>
</g>
<!-- mu&#45;&gt;Height -->
<g id="edge4" class="edge">
<title>mu&#45;&gt;Height</title>
<path fill="none" stroke="black" d="M225.72,-160.89C225.32,-149.98 224.84,-136.89 224.38,-124.35"/>
<polygon fill="black" stroke="black" points="227.87,-123.87 224,-114 220.87,-124.12 227.87,-123.87"/>
</g>
</g>
</svg>
