<?xml version="1.0" encoding="UTF-8" standalone="no"?>
<!DOCTYPE svg PUBLIC "-//W3C//DTD SVG 1.1//EN"
 "http://www.w3.org/Graphics/SVG/1.1/DTD/svg11.dtd">
<!-- Generated by graphviz version 2.50.0 (0)
 -->
<!-- Pages: 1 -->
<svg width="388pt" height="363pt"
 viewBox="0.00 0.00 387.90 362.86" xmlns="http://www.w3.org/2000/svg" xmlns:xlink="http://www.w3.org/1999/xlink">
<g id="graph0" class="graph" transform="scale(1 1) rotate(0) translate(4 358.86)">
<polygon fill="white" stroke="transparent" points="-4,4 -4,-358.86 383.9,-358.86 383.9,4 -4,4"/>
<g id="clust1" class="cluster">
<title>clusterI(Time ** 2):Planet_dim (3)</title>
<path fill="none" stroke="black" d="M157.9,-232.91C157.9,-232.91 359.9,-232.91 359.9,-232.91 365.9,-232.91 371.9,-238.91 371.9,-244.91 371.9,-244.91 371.9,-334.86 371.9,-334.86 371.9,-340.86 365.9,-346.86 359.9,-346.86 359.9,-346.86 157.9,-346.86 157.9,-346.86 151.9,-346.86 145.9,-340.86 145.9,-334.86 145.9,-334.86 145.9,-244.91 145.9,-244.91 145.9,-238.91 151.9,-232.91 157.9,-232.91"/>
<text text-anchor="middle" x="268.4" y="-240.71" font-family="Times,serif" font-size="14.00">I(Time ** 2):Planet_dim (3)</text>
</g>
<g id="clust2" class="cluster">
<title>cluster__obs__ (81)</title>
<path fill="none" stroke="black" d="M181.9,-8C181.9,-8 287.9,-8 287.9,-8 293.9,-8 299.9,-14 299.9,-20 299.9,-20 299.9,-209.93 299.9,-209.93 299.9,-215.93 293.9,-221.93 287.9,-221.93 287.9,-221.93 181.9,-221.93 181.9,-221.93 175.9,-221.93 169.9,-215.93 169.9,-209.93 169.9,-209.93 169.9,-20 169.9,-20 169.9,-14 175.9,-8 181.9,-8"/>
<text text-anchor="middle" x="249.4" y="-15.8" font-family="Times,serif" font-size="14.00">__obs__ (81)</text>
</g>
<!-- sigma -->
<g id="node1" class="node">
<title>sigma</title>
<ellipse fill="none" stroke="black" cx="79.9" cy="-187.43" rx="79.81" ry="37.45"/>
<text text-anchor="middle" x="79.9" y="-198.73" font-family="Times,serif" font-size="14.00">sigma</text>
<text text-anchor="middle" x="79.9" y="-183.73" font-family="Times,serif" font-size="14.00">~</text>
<text text-anchor="middle" x="79.9" y="-168.73" font-family="Times,serif" font-size="14.00">HalfStudentT</text>
</g>
<!-- Height -->
<g id="node4" class="node">
<title>Height</title>
<ellipse fill="lightgrey" stroke="black" cx="230.9" cy="-76.48" rx="49.49" ry="37.45"/>
<text text-anchor="middle" x="230.9" y="-87.78" font-family="Times,serif" font-size="14.00">Height</text>
<text text-anchor="middle" x="230.9" y="-72.78" font-family="Times,serif" font-size="14.00">~</text>
<text text-anchor="middle" x="230.9" y="-57.78" font-family="Times,serif" font-size="14.00">Normal</text>
</g>
<!-- sigma&#45;&gt;Height -->
<g id="edge3" class="edge">
<title>sigma&#45;&gt;Height</title>
<path fill="none" stroke="black" d="M122.77,-155.5C143,-140.9 167.1,-123.51 187.41,-108.86"/>
<polygon fill="black" stroke="black" points="189.51,-111.66 195.57,-102.97 185.41,-105.98 189.51,-111.66"/>
</g>
<!-- Time -->
<g id="node2" class="node">
<title>Time</title>
<ellipse fill="none" stroke="black" cx="85.9" cy="-301.38" rx="49.49" ry="37.45"/>
<text text-anchor="middle" x="85.9" y="-312.68" font-family="Times,serif" font-size="14.00">Time</text>
<text text-anchor="middle" x="85.9" y="-297.68" font-family="Times,serif" font-size="14.00">~</text>
<text text-anchor="middle" x="85.9" y="-282.68" font-family="Times,serif" font-size="14.00">Normal</text>
</g>
<!-- mu -->
<g id="node5" class="node">
<title>mu</title>
<polygon fill="none" stroke="black" points="291.9,-213.93 177.9,-213.93 177.9,-160.93 291.9,-160.93 291.9,-213.93"/>
<text text-anchor="middle" x="234.9" y="-198.73" font-family="Times,serif" font-size="14.00">mu</text>
<text text-anchor="middle" x="234.9" y="-183.73" font-family="Times,serif" font-size="14.00">~</text>
<text text-anchor="middle" x="234.9" y="-168.73" font-family="Times,serif" font-size="14.00">Deterministic</text>
</g>
<!-- Time&#45;&gt;mu -->
<g id="edge2" class="edge">
<title>Time&#45;&gt;mu</title>
<path fill="none" stroke="black" d="M107.18,-267.18C116.52,-254.89 128.43,-241.79 141.9,-232.91 152.35,-226.02 157.36,-229.74 168.9,-224.91 173.54,-222.97 178.27,-220.79 182.96,-218.48"/>
<polygon fill="black" stroke="black" points="184.57,-221.59 191.9,-213.94 181.4,-215.35 184.57,-221.59"/>
</g>
<!-- I(Time ** 2)&amp;Planet -->
<g id="node3" class="node">
<title>I(Time ** 2)&amp;Planet</title>
<ellipse fill="none" stroke="black" cx="258.9" cy="-301.38" rx="105.22" ry="37.45"/>
<text text-anchor="middle" x="258.9" y="-312.68" font-family="Times,serif" font-size="14.00">I(Time ** 2):Planet</text>
<text text-anchor="middle" x="258.9" y="-297.68" font-family="Times,serif" font-size="14.00">~</text>
<text text-anchor="middle" x="258.9" y="-282.68" font-family="Times,serif" font-size="14.00">Normal</text>
</g>
<!-- I(Time ** 2)&amp;Planet&#45;&gt;mu -->
<g id="edge1" class="edge">
<title>I(Time ** 2)&amp;Planet&#45;&gt;mu</title>
<path fill="none" stroke="black" d="M251.04,-263.73C248.33,-251.07 245.3,-236.92 242.6,-224.32"/>
<polygon fill="black" stroke="black" points="245.94,-223.22 240.42,-214.18 239.1,-224.69 245.94,-223.22"/>
</g>
<!-- mu&#45;&gt;Height -->
<g id="edge4" class="edge">
<title>mu&#45;&gt;Height</title>
<path fill="none" stroke="black" d="M233.97,-160.89C233.56,-149.98 233.08,-136.89 232.62,-124.35"/>
<polygon fill="black" stroke="black" points="236.11,-123.87 232.24,-114 229.11,-124.12 236.11,-123.87"/>
</g>
</g>
</svg>
