<?xml version="1.0" encoding="UTF-8" standalone="no"?>
<!DOCTYPE svg PUBLIC "-//W3C//DTD SVG 1.1//EN"
 "http://www.w3.org/Graphics/SVG/1.1/DTD/svg11.dtd">
<!-- Generated by graphviz version 2.50.0 (0)
 -->
<!-- Pages: 1 -->
<svg width="451pt" height="260pt"
 viewBox="0.00 0.00 450.76 259.91" xmlns="http://www.w3.org/2000/svg" xmlns:xlink="http://www.w3.org/1999/xlink">
<g id="graph0" class="graph" transform="scale(1 1) rotate(0) translate(4 255.91)">
<polygon fill="white" stroke="transparent" points="-4,4 -4,-255.91 446.76,-255.91 446.76,4 -4,4"/>
<g id="clust1" class="cluster">
<title>clusterI(Time ** 2):Planet_dim (3)</title>
<path fill="none" stroke="black" d="M254.76,-129.95C254.76,-129.95 422.76,-129.95 422.76,-129.95 428.76,-129.95 434.76,-135.95 434.76,-141.95 434.76,-141.95 434.76,-231.91 434.76,-231.91 434.76,-237.91 428.76,-243.91 422.76,-243.91 422.76,-243.91 254.76,-243.91 254.76,-243.91 248.76,-243.91 242.76,-237.91 242.76,-231.91 242.76,-231.91 242.76,-141.95 242.76,-141.95 242.76,-135.95 248.76,-129.95 254.76,-129.95"/>
<text text-anchor="middle" x="348.26" y="-137.75" font-family="Times,serif" font-size="14.00">I(Time ** 2):Planet_dim (3)</text>
</g>
<g id="clust2" class="cluster">
<title>clusterHeight_obs (81)</title>
<path fill="none" stroke="black" d="M150.76,-8C150.76,-8 231.76,-8 231.76,-8 237.76,-8 243.76,-14 243.76,-20 243.76,-20 243.76,-109.95 243.76,-109.95 243.76,-115.95 237.76,-121.95 231.76,-121.95 231.76,-121.95 150.76,-121.95 150.76,-121.95 144.76,-121.95 138.76,-115.95 138.76,-109.95 138.76,-109.95 138.76,-20 138.76,-20 138.76,-14 144.76,-8 150.76,-8"/>
<text text-anchor="middle" x="191.26" y="-15.8" font-family="Times,serif" font-size="14.00">Height_obs (81)</text>
</g>
<!-- Height_sigma -->
<g id="node1" class="node">
<title>Height_sigma</title>
<ellipse fill="none" stroke="black" cx="65.76" cy="-198.43" rx="65.52" ry="37.45"/>
<text text-anchor="middle" x="65.76" y="-209.73" font-family="Times,serif" font-size="14.00">Height_sigma</text>
<text text-anchor="middle" x="65.76" y="-194.73" font-family="Times,serif" font-size="14.00">~</text>
<text text-anchor="middle" x="65.76" y="-179.73" font-family="Times,serif" font-size="14.00">HalfStudentT</text>
</g>
<!-- Height -->
<g id="node4" class="node">
<title>Height</title>
<ellipse fill="lightgrey" stroke="black" cx="190.76" cy="-76.48" rx="41.94" ry="37.45"/>
<text text-anchor="middle" x="190.76" y="-87.78" font-family="Times,serif" font-size="14.00">Height</text>
<text text-anchor="middle" x="190.76" y="-72.78" font-family="Times,serif" font-size="14.00">~</text>
<text text-anchor="middle" x="190.76" y="-57.78" font-family="Times,serif" font-size="14.00">Normal</text>
</g>
<!-- Height_sigma&#45;&gt;Height -->
<g id="edge1" class="edge">
<title>Height_sigma&#45;&gt;Height</title>
<path fill="none" stroke="black" d="M98.6,-165.91C116.07,-149.15 137.56,-128.52 155.4,-111.41"/>
<polygon fill="black" stroke="black" points="158,-113.76 162.8,-104.31 153.16,-108.71 158,-113.76"/>
</g>
<!-- Time -->
<g id="node2" class="node">
<title>Time</title>
<ellipse fill="none" stroke="black" cx="190.76" cy="-198.43" rx="41.94" ry="37.45"/>
<text text-anchor="middle" x="190.76" y="-209.73" font-family="Times,serif" font-size="14.00">Time</text>
<text text-anchor="middle" x="190.76" y="-194.73" font-family="Times,serif" font-size="14.00">~</text>
<text text-anchor="middle" x="190.76" y="-179.73" font-family="Times,serif" font-size="14.00">Normal</text>
</g>
<!-- Time&#45;&gt;Height -->
<g id="edge3" class="edge">
<title>Time&#45;&gt;Height</title>
<path fill="none" stroke="black" d="M190.76,-160.79C190.76,-149.38 190.76,-136.65 190.76,-124.63"/>
<polygon fill="black" stroke="black" points="194.26,-124.31 190.76,-114.31 187.26,-124.31 194.26,-124.31"/>
</g>
<!-- I(Time ** 2)&amp;Planet -->
<g id="node3" class="node">
<title>I(Time ** 2)&amp;Planet</title>
<ellipse fill="none" stroke="black" cx="338.76" cy="-198.43" rx="88.28" ry="37.45"/>
<text text-anchor="middle" x="338.76" y="-209.73" font-family="Times,serif" font-size="14.00">I(Time ** 2):Planet</text>
<text text-anchor="middle" x="338.76" y="-194.73" font-family="Times,serif" font-size="14.00">~</text>
<text text-anchor="middle" x="338.76" y="-179.73" font-family="Times,serif" font-size="14.00">Normal</text>
</g>
<!-- I(Time ** 2)&amp;Planet&#45;&gt;Height -->
<g id="edge2" class="edge">
<title>I(Time ** 2)&amp;Planet&#45;&gt;Height</title>
<path fill="none" stroke="black" d="M298.71,-164.97C277.15,-147.5 250.69,-126.05 229.35,-108.76"/>
<polygon fill="black" stroke="black" points="231.42,-105.93 221.45,-102.35 227.02,-111.37 231.42,-105.93"/>
</g>
</g>
</svg>
