<?xml version="1.0" encoding="UTF-8" standalone="no"?>
<!DOCTYPE svg PUBLIC "-//W3C//DTD SVG 1.1//EN"
 "http://www.w3.org/Graphics/SVG/1.1/DTD/svg11.dtd">
<!-- Generated by graphviz version 2.43.0 (0)
 -->
<!-- Title: %3 Pages: 1 -->
<svg width="567pt" height="322pt"
 viewBox="0.00 0.00 567.20 321.91" xmlns="http://www.w3.org/2000/svg" xmlns:xlink="http://www.w3.org/1999/xlink">
<g id="graph0" class="graph" transform="scale(1 1) rotate(0) translate(4 317.91)">
<title>%3</title>
<polygon fill="white" stroke="transparent" points="-4,4 -4,-317.91 563.2,-317.91 563.2,4 -4,4"/>
<g id="clust1" class="cluster">
<title>cluster__obs__ (200)</title>
<path fill="none" stroke="black" d="M192.51,-8C192.51,-8 430.51,-8 430.51,-8 436.51,-8 442.51,-14 442.51,-20 442.51,-20 442.51,-198.95 442.51,-198.95 442.51,-204.95 436.51,-210.95 430.51,-210.95 430.51,-210.95 192.51,-210.95 192.51,-210.95 186.51,-210.95 180.51,-204.95 180.51,-198.95 180.51,-198.95 180.51,-20 180.51,-20 180.51,-14 186.51,-8 192.51,-8"/>
<text text-anchor="middle" x="387.51" y="-15.8" font-family="Times,serif" font-size="14.00">__obs__ (200)</text>
</g>
<!-- alpha_Intercept -->
<g id="node1" class="node">
<title>alpha_Intercept</title>
<ellipse fill="none" stroke="black" cx="90.51" cy="-276.43" rx="90.52" ry="37.45"/>
<text text-anchor="middle" x="90.51" y="-287.73" font-family="Times,serif" font-size="14.00">alpha_Intercept</text>
<text text-anchor="middle" x="90.51" y="-272.73" font-family="Times,serif" font-size="14.00">~</text>
<text text-anchor="middle" x="90.51" y="-257.73" font-family="Times,serif" font-size="14.00">Normal</text>
</g>
<!-- alpha -->
<g id="node5" class="node">
<title>alpha</title>
<polygon fill="none" stroke="black" points="302.51,-202.95 188.51,-202.95 188.51,-149.95 302.51,-149.95 302.51,-202.95"/>
<text text-anchor="middle" x="245.51" y="-187.75" font-family="Times,serif" font-size="14.00">alpha</text>
<text text-anchor="middle" x="245.51" y="-172.75" font-family="Times,serif" font-size="14.00">~</text>
<text text-anchor="middle" x="245.51" y="-157.75" font-family="Times,serif" font-size="14.00">Deterministic</text>
</g>
<!-- alpha_Intercept&#45;&gt;alpha -->
<g id="edge3" class="edge">
<title>alpha_Intercept&#45;&gt;alpha</title>
<path fill="none" stroke="black" d="M139.13,-244.7C157.36,-233.17 178.09,-220.07 196.37,-208.52"/>
<polygon fill="black" stroke="black" points="198.54,-211.28 205.13,-202.98 194.8,-205.36 198.54,-211.28"/>
</g>
<!-- alpha_x -->
<g id="node2" class="node">
<title>alpha_x</title>
<ellipse fill="none" stroke="black" cx="249.51" cy="-276.43" rx="50.41" ry="37.45"/>
<text text-anchor="middle" x="249.51" y="-287.73" font-family="Times,serif" font-size="14.00">alpha_x</text>
<text text-anchor="middle" x="249.51" y="-272.73" font-family="Times,serif" font-size="14.00">~</text>
<text text-anchor="middle" x="249.51" y="-257.73" font-family="Times,serif" font-size="14.00">Normal</text>
</g>
<!-- alpha_x&#45;&gt;alpha -->
<g id="edge4" class="edge">
<title>alpha_x&#45;&gt;alpha</title>
<path fill="none" stroke="black" d="M248.02,-238.95C247.68,-230.53 247.31,-221.59 246.97,-213.2"/>
<polygon fill="black" stroke="black" points="250.46,-212.81 246.55,-202.96 243.46,-213.1 250.46,-212.81"/>
</g>
<!-- x -->
<g id="node3" class="node">
<title>x</title>
<ellipse fill="none" stroke="black" cx="374.51" cy="-276.43" rx="49.49" ry="37.45"/>
<text text-anchor="middle" x="374.51" y="-287.73" font-family="Times,serif" font-size="14.00">x</text>
<text text-anchor="middle" x="374.51" y="-272.73" font-family="Times,serif" font-size="14.00">~</text>
<text text-anchor="middle" x="374.51" y="-257.73" font-family="Times,serif" font-size="14.00">Normal</text>
</g>
<!-- mu -->
<g id="node7" class="node">
<title>mu</title>
<polygon fill="none" stroke="black" points="434.51,-202.95 320.51,-202.95 320.51,-149.95 434.51,-149.95 434.51,-202.95"/>
<text text-anchor="middle" x="377.51" y="-187.75" font-family="Times,serif" font-size="14.00">mu</text>
<text text-anchor="middle" x="377.51" y="-172.75" font-family="Times,serif" font-size="14.00">~</text>
<text text-anchor="middle" x="377.51" y="-157.75" font-family="Times,serif" font-size="14.00">Deterministic</text>
</g>
<!-- x&#45;&gt;mu -->
<g id="edge1" class="edge">
<title>x&#45;&gt;mu</title>
<path fill="none" stroke="black" d="M375.63,-238.95C375.88,-230.53 376.16,-221.59 376.42,-213.2"/>
<polygon fill="black" stroke="black" points="379.92,-213.07 376.73,-202.96 372.92,-212.85 379.92,-213.07"/>
</g>
<!-- Intercept -->
<g id="node4" class="node">
<title>Intercept</title>
<ellipse fill="none" stroke="black" cx="500.51" cy="-276.43" rx="58.88" ry="37.45"/>
<text text-anchor="middle" x="500.51" y="-287.73" font-family="Times,serif" font-size="14.00">Intercept</text>
<text text-anchor="middle" x="500.51" y="-272.73" font-family="Times,serif" font-size="14.00">~</text>
<text text-anchor="middle" x="500.51" y="-257.73" font-family="Times,serif" font-size="14.00">Normal</text>
</g>
<!-- Intercept&#45;&gt;mu -->
<g id="edge2" class="edge">
<title>Intercept&#45;&gt;mu</title>
<path fill="none" stroke="black" d="M464.27,-246.56C449.68,-234.94 432.8,-221.49 417.82,-209.56"/>
<polygon fill="black" stroke="black" points="419.73,-206.61 409.73,-203.12 415.37,-212.08 419.73,-206.61"/>
</g>
<!-- y -->
<g id="node6" class="node">
<title>y</title>
<ellipse fill="lightgrey" stroke="black" cx="311.51" cy="-76.48" rx="50.41" ry="37.45"/>
<text text-anchor="middle" x="311.51" y="-87.78" font-family="Times,serif" font-size="14.00">y</text>
<text text-anchor="middle" x="311.51" y="-72.78" font-family="Times,serif" font-size="14.00">~</text>
<text text-anchor="middle" x="311.51" y="-57.78" font-family="Times,serif" font-size="14.00">Gamma</text>
</g>
<!-- alpha&#45;&gt;y -->
<g id="edge5" class="edge">
<title>alpha&#45;&gt;y</title>
<path fill="none" stroke="black" d="M262.85,-149.71C269.18,-140.32 276.5,-129.45 283.52,-119.03"/>
<polygon fill="black" stroke="black" points="286.62,-120.68 289.31,-110.43 280.82,-116.77 286.62,-120.68"/>
</g>
<!-- mu&#45;&gt;y -->
<g id="edge6" class="edge">
<title>mu&#45;&gt;y</title>
<path fill="none" stroke="black" d="M360.17,-149.71C353.84,-140.32 346.52,-129.45 339.5,-119.03"/>
<polygon fill="black" stroke="black" points="342.2,-116.77 333.71,-110.43 336.39,-120.68 342.2,-116.77"/>
</g>
</g>
</svg>
