<?xml version="1.0" encoding="UTF-8" standalone="no"?>
<!DOCTYPE svg PUBLIC "-//W3C//DTD SVG 1.1//EN"
 "http://www.w3.org/Graphics/SVG/1.1/DTD/svg11.dtd">
<!-- Generated by graphviz version 2.50.0 (0)
 -->
<!-- Pages: 1 -->
<svg width="560pt" height="322pt"
 viewBox="0.00 0.00 559.70 321.91" xmlns="http://www.w3.org/2000/svg" xmlns:xlink="http://www.w3.org/1999/xlink">
<g id="graph0" class="graph" transform="scale(1 1) rotate(0) translate(4 317.91)">
<polygon fill="white" stroke="transparent" points="-4,4 -4,-317.91 555.7,-317.91 555.7,4 -4,4"/>
<g id="clust1" class="cluster">
<title>cluster__obs__ (200)</title>
<path fill="none" stroke="black" d="M139.5,-8C139.5,-8 377.5,-8 377.5,-8 383.5,-8 389.5,-14 389.5,-20 389.5,-20 389.5,-198.95 389.5,-198.95 389.5,-204.95 383.5,-210.95 377.5,-210.95 377.5,-210.95 139.5,-210.95 139.5,-210.95 133.5,-210.95 127.5,-204.95 127.5,-198.95 127.5,-198.95 127.5,-20 127.5,-20 127.5,-14 133.5,-8 139.5,-8"/>
<text text-anchor="middle" x="334.5" y="-15.8" font-family="Times,serif" font-size="14.00">__obs__ (200)</text>
</g>
<!-- x -->
<g id="node1" class="node">
<title>x</title>
<ellipse fill="none" stroke="black" cx="49.5" cy="-276.43" rx="49.49" ry="37.45"/>
<text text-anchor="middle" x="49.5" y="-287.73" font-family="Times,serif" font-size="14.00">x</text>
<text text-anchor="middle" x="49.5" y="-272.73" font-family="Times,serif" font-size="14.00">~</text>
<text text-anchor="middle" x="49.5" y="-257.73" font-family="Times,serif" font-size="14.00">Normal</text>
</g>
<!-- mu -->
<g id="node5" class="node">
<title>mu</title>
<polygon fill="none" stroke="black" points="249.5,-202.95 135.5,-202.95 135.5,-149.95 249.5,-149.95 249.5,-202.95"/>
<text text-anchor="middle" x="192.5" y="-187.75" font-family="Times,serif" font-size="14.00">mu</text>
<text text-anchor="middle" x="192.5" y="-172.75" font-family="Times,serif" font-size="14.00">~</text>
<text text-anchor="middle" x="192.5" y="-157.75" font-family="Times,serif" font-size="14.00">Deterministic</text>
</g>
<!-- x&#45;&gt;mu -->
<g id="edge1" class="edge">
<title>x&#45;&gt;mu</title>
<path fill="none" stroke="black" d="M85.58,-250.71C104.12,-238.01 126.9,-222.4 146.66,-208.86"/>
<polygon fill="black" stroke="black" points="148.65,-211.74 154.93,-203.2 144.7,-205.96 148.65,-211.74"/>
</g>
<!-- alpha_Intercept -->
<g id="node2" class="node">
<title>alpha_Intercept</title>
<ellipse fill="none" stroke="black" cx="342.5" cy="-276.43" rx="90.52" ry="37.45"/>
<text text-anchor="middle" x="342.5" y="-287.73" font-family="Times,serif" font-size="14.00">alpha_Intercept</text>
<text text-anchor="middle" x="342.5" y="-272.73" font-family="Times,serif" font-size="14.00">~</text>
<text text-anchor="middle" x="342.5" y="-257.73" font-family="Times,serif" font-size="14.00">Normal</text>
</g>
<!-- alpha -->
<g id="node7" class="node">
<title>alpha</title>
<polygon fill="none" stroke="black" points="381.5,-202.95 267.5,-202.95 267.5,-149.95 381.5,-149.95 381.5,-202.95"/>
<text text-anchor="middle" x="324.5" y="-187.75" font-family="Times,serif" font-size="14.00">alpha</text>
<text text-anchor="middle" x="324.5" y="-172.75" font-family="Times,serif" font-size="14.00">~</text>
<text text-anchor="middle" x="324.5" y="-157.75" font-family="Times,serif" font-size="14.00">Deterministic</text>
</g>
<!-- alpha_Intercept&#45;&gt;alpha -->
<g id="edge4" class="edge">
<title>alpha_Intercept&#45;&gt;alpha</title>
<path fill="none" stroke="black" d="M335.79,-238.95C334.23,-230.44 332.57,-221.39 331.01,-212.92"/>
<polygon fill="black" stroke="black" points="334.43,-212.17 329.18,-202.96 327.55,-213.43 334.43,-212.17"/>
</g>
<!-- Intercept -->
<g id="node3" class="node">
<title>Intercept</title>
<ellipse fill="none" stroke="black" cx="175.5" cy="-276.43" rx="58.88" ry="37.45"/>
<text text-anchor="middle" x="175.5" y="-287.73" font-family="Times,serif" font-size="14.00">Intercept</text>
<text text-anchor="middle" x="175.5" y="-272.73" font-family="Times,serif" font-size="14.00">~</text>
<text text-anchor="middle" x="175.5" y="-257.73" font-family="Times,serif" font-size="14.00">Normal</text>
</g>
<!-- Intercept&#45;&gt;mu -->
<g id="edge2" class="edge">
<title>Intercept&#45;&gt;mu</title>
<path fill="none" stroke="black" d="M181.83,-238.95C183.3,-230.44 184.87,-221.39 186.34,-212.92"/>
<polygon fill="black" stroke="black" points="189.81,-213.41 188.07,-202.96 182.91,-212.22 189.81,-213.41"/>
</g>
<!-- alpha_x -->
<g id="node4" class="node">
<title>alpha_x</title>
<ellipse fill="none" stroke="black" cx="501.5" cy="-276.43" rx="50.41" ry="37.45"/>
<text text-anchor="middle" x="501.5" y="-287.73" font-family="Times,serif" font-size="14.00">alpha_x</text>
<text text-anchor="middle" x="501.5" y="-272.73" font-family="Times,serif" font-size="14.00">~</text>
<text text-anchor="middle" x="501.5" y="-257.73" font-family="Times,serif" font-size="14.00">Normal</text>
</g>
<!-- alpha_x&#45;&gt;alpha -->
<g id="edge3" class="edge">
<title>alpha_x&#45;&gt;alpha</title>
<path fill="none" stroke="black" d="M463.66,-251.47C456.67,-247.21 449.41,-242.88 442.5,-238.95 423.86,-228.35 403.23,-217.36 384.49,-207.64"/>
<polygon fill="black" stroke="black" points="385.96,-204.46 375.47,-202.98 382.75,-210.68 385.96,-204.46"/>
</g>
<!-- y -->
<g id="node6" class="node">
<title>y</title>
<ellipse fill="lightgrey" stroke="black" cx="258.5" cy="-76.48" rx="50.41" ry="37.45"/>
<text text-anchor="middle" x="258.5" y="-87.78" font-family="Times,serif" font-size="14.00">y</text>
<text text-anchor="middle" x="258.5" y="-72.78" font-family="Times,serif" font-size="14.00">~</text>
<text text-anchor="middle" x="258.5" y="-57.78" font-family="Times,serif" font-size="14.00">Gamma</text>
</g>
<!-- mu&#45;&gt;y -->
<g id="edge5" class="edge">
<title>mu&#45;&gt;y</title>
<path fill="none" stroke="black" d="M209.84,-149.71C216.16,-140.32 223.49,-129.45 230.5,-119.03"/>
<polygon fill="black" stroke="black" points="233.61,-120.68 236.3,-110.43 227.81,-116.77 233.61,-120.68"/>
</g>
<!-- alpha&#45;&gt;y -->
<g id="edge6" class="edge">
<title>alpha&#45;&gt;y</title>
<path fill="none" stroke="black" d="M307.16,-149.71C300.83,-140.32 293.51,-129.45 286.49,-119.03"/>
<polygon fill="black" stroke="black" points="289.19,-116.77 280.7,-110.43 283.38,-120.68 289.19,-116.77"/>
</g>
</g>
</svg>
