<?xml version="1.0" encoding="UTF-8" standalone="no"?>
<!DOCTYPE svg PUBLIC "-//W3C//DTD SVG 1.1//EN"
 "http://www.w3.org/Graphics/SVG/1.1/DTD/svg11.dtd">
<!-- Generated by graphviz version 2.43.0 (0)
 -->
<!-- Title: %3 Pages: 1 -->
<svg width="341pt" height="344pt"
 viewBox="0.00 0.00 340.57 343.86" xmlns="http://www.w3.org/2000/svg" xmlns:xlink="http://www.w3.org/1999/xlink">
<g id="graph0" class="graph" transform="scale(1 1) rotate(0) translate(4 339.86)">
<title>%3</title>
<polygon fill="white" stroke="transparent" points="-4,4 -4,-339.86 336.57,-339.86 336.57,4 -4,4"/>
<g id="clust1" class="cluster">
<title>cluster__obs__ (200)</title>
<path fill="none" stroke="black" d="M157.88,-8C157.88,-8 263.88,-8 263.88,-8 269.88,-8 275.88,-14 275.88,-20 275.88,-20 275.88,-209.93 275.88,-209.93 275.88,-215.93 269.88,-221.93 263.88,-221.93 263.88,-221.93 157.88,-221.93 157.88,-221.93 151.88,-221.93 145.88,-215.93 145.88,-209.93 145.88,-209.93 145.88,-20 145.88,-20 145.88,-14 151.88,-8 157.88,-8"/>
<text text-anchor="middle" x="220.88" y="-15.8" font-family="Times,serif" font-size="14.00">__obs__ (200)</text>
</g>
<!-- alpha -->
<g id="node1" class="node">
<title>alpha</title>
<ellipse fill="none" stroke="black" cx="67.88" cy="-187.43" rx="67.76" ry="37.45"/>
<text text-anchor="middle" x="67.88" y="-198.73" font-family="Times,serif" font-size="14.00">alpha</text>
<text text-anchor="middle" x="67.88" y="-183.73" font-family="Times,serif" font-size="14.00">~</text>
<text text-anchor="middle" x="67.88" y="-168.73" font-family="Times,serif" font-size="14.00">Halfcauchy</text>
</g>
<!-- y -->
<g id="node4" class="node">
<title>y</title>
<ellipse fill="lightgrey" stroke="black" cx="206.88" cy="-76.48" rx="50.41" ry="37.45"/>
<text text-anchor="middle" x="206.88" y="-87.78" font-family="Times,serif" font-size="14.00">y</text>
<text text-anchor="middle" x="206.88" y="-72.78" font-family="Times,serif" font-size="14.00">~</text>
<text text-anchor="middle" x="206.88" y="-57.78" font-family="Times,serif" font-size="14.00">Gamma</text>
</g>
<!-- alpha&#45;&gt;y -->
<g id="edge3" class="edge">
<title>alpha&#45;&gt;y</title>
<path fill="none" stroke="black" d="M106.23,-156.37C124.43,-142.1 146.23,-125.02 164.87,-110.41"/>
<polygon fill="black" stroke="black" points="167.21,-113.02 172.92,-104.1 162.89,-107.51 167.21,-113.02"/>
</g>
<!-- x -->
<g id="node2" class="node">
<title>x</title>
<ellipse fill="none" stroke="black" cx="147.88" cy="-298.38" rx="49.49" ry="37.45"/>
<text text-anchor="middle" x="147.88" y="-309.68" font-family="Times,serif" font-size="14.00">x</text>
<text text-anchor="middle" x="147.88" y="-294.68" font-family="Times,serif" font-size="14.00">~</text>
<text text-anchor="middle" x="147.88" y="-279.68" font-family="Times,serif" font-size="14.00">Normal</text>
</g>
<!-- mu -->
<g id="node5" class="node">
<title>mu</title>
<polygon fill="none" stroke="black" points="267.88,-213.93 153.88,-213.93 153.88,-160.93 267.88,-160.93 267.88,-213.93"/>
<text text-anchor="middle" x="210.88" y="-198.73" font-family="Times,serif" font-size="14.00">mu</text>
<text text-anchor="middle" x="210.88" y="-183.73" font-family="Times,serif" font-size="14.00">~</text>
<text text-anchor="middle" x="210.88" y="-168.73" font-family="Times,serif" font-size="14.00">Deterministic</text>
</g>
<!-- x&#45;&gt;mu -->
<g id="edge1" class="edge">
<title>x&#45;&gt;mu</title>
<path fill="none" stroke="black" d="M167.3,-263.8C174.82,-250.8 183.42,-235.92 190.99,-222.84"/>
<polygon fill="black" stroke="black" points="194.06,-224.52 196.03,-214.11 188,-221.02 194.06,-224.52"/>
</g>
<!-- Intercept -->
<g id="node3" class="node">
<title>Intercept</title>
<ellipse fill="none" stroke="black" cx="273.88" cy="-298.38" rx="58.88" ry="37.45"/>
<text text-anchor="middle" x="273.88" y="-309.68" font-family="Times,serif" font-size="14.00">Intercept</text>
<text text-anchor="middle" x="273.88" y="-294.68" font-family="Times,serif" font-size="14.00">~</text>
<text text-anchor="middle" x="273.88" y="-279.68" font-family="Times,serif" font-size="14.00">Normal</text>
</g>
<!-- Intercept&#45;&gt;mu -->
<g id="edge2" class="edge">
<title>Intercept&#45;&gt;mu</title>
<path fill="none" stroke="black" d="M253.95,-262.91C246.58,-250.17 238.23,-235.73 230.86,-222.98"/>
<polygon fill="black" stroke="black" points="233.73,-220.95 225.69,-214.04 227.67,-224.45 233.73,-220.95"/>
</g>
<!-- mu&#45;&gt;y -->
<g id="edge4" class="edge">
<title>mu&#45;&gt;y</title>
<path fill="none" stroke="black" d="M209.94,-160.89C209.54,-149.98 209.06,-136.89 208.6,-124.35"/>
<polygon fill="black" stroke="black" points="212.09,-123.87 208.22,-114 205.09,-124.12 212.09,-123.87"/>
</g>
</g>
</svg>
