<?xml version="1.0" encoding="UTF-8" standalone="no"?>
<!DOCTYPE svg PUBLIC "-//W3C//DTD SVG 1.1//EN"
 "http://www.w3.org/Graphics/SVG/1.1/DTD/svg11.dtd">
<!-- Generated by graphviz version 2.50.0 (0)
 -->
<!-- Pages: 1 -->
<svg width="336pt" height="344pt"
 viewBox="0.00 0.00 335.50 343.86" xmlns="http://www.w3.org/2000/svg" xmlns:xlink="http://www.w3.org/1999/xlink">
<g id="graph0" class="graph" transform="scale(1 1) rotate(0) translate(4 339.86)">
<polygon fill="white" stroke="transparent" points="-4,4 -4,-339.86 331.5,-339.86 331.5,4 -4,4"/>
<g id="clust1" class="cluster">
<title>cluster__obs__ (200)</title>
<path fill="none" stroke="black" d="M59.5,-8C59.5,-8 165.5,-8 165.5,-8 171.5,-8 177.5,-14 177.5,-20 177.5,-20 177.5,-209.93 177.5,-209.93 177.5,-215.93 171.5,-221.93 165.5,-221.93 165.5,-221.93 59.5,-221.93 59.5,-221.93 53.5,-221.93 47.5,-215.93 47.5,-209.93 47.5,-209.93 47.5,-20 47.5,-20 47.5,-14 53.5,-8 59.5,-8"/>
<text text-anchor="middle" x="122.5" y="-15.8" font-family="Times,serif" font-size="14.00">__obs__ (200)</text>
</g>
<!-- x -->
<g id="node1" class="node">
<title>x</title>
<ellipse fill="none" stroke="black" cx="49.5" cy="-298.38" rx="49.49" ry="37.45"/>
<text text-anchor="middle" x="49.5" y="-309.68" font-family="Times,serif" font-size="14.00">x</text>
<text text-anchor="middle" x="49.5" y="-294.68" font-family="Times,serif" font-size="14.00">~</text>
<text text-anchor="middle" x="49.5" y="-279.68" font-family="Times,serif" font-size="14.00">Normal</text>
</g>
<!-- mu -->
<g id="node4" class="node">
<title>mu</title>
<polygon fill="none" stroke="black" points="169.5,-213.93 55.5,-213.93 55.5,-160.93 169.5,-160.93 169.5,-213.93"/>
<text text-anchor="middle" x="112.5" y="-198.73" font-family="Times,serif" font-size="14.00">mu</text>
<text text-anchor="middle" x="112.5" y="-183.73" font-family="Times,serif" font-size="14.00">~</text>
<text text-anchor="middle" x="112.5" y="-168.73" font-family="Times,serif" font-size="14.00">Deterministic</text>
</g>
<!-- x&#45;&gt;mu -->
<g id="edge1" class="edge">
<title>x&#45;&gt;mu</title>
<path fill="none" stroke="black" d="M68.91,-263.8C76.43,-250.8 85.04,-235.92 92.6,-222.84"/>
<polygon fill="black" stroke="black" points="95.67,-224.52 97.65,-214.11 89.61,-221.02 95.67,-224.52"/>
</g>
<!-- Intercept -->
<g id="node2" class="node">
<title>Intercept</title>
<ellipse fill="none" stroke="black" cx="175.5" cy="-298.38" rx="58.88" ry="37.45"/>
<text text-anchor="middle" x="175.5" y="-309.68" font-family="Times,serif" font-size="14.00">Intercept</text>
<text text-anchor="middle" x="175.5" y="-294.68" font-family="Times,serif" font-size="14.00">~</text>
<text text-anchor="middle" x="175.5" y="-279.68" font-family="Times,serif" font-size="14.00">Normal</text>
</g>
<!-- Intercept&#45;&gt;mu -->
<g id="edge2" class="edge">
<title>Intercept&#45;&gt;mu</title>
<path fill="none" stroke="black" d="M155.56,-262.91C148.2,-250.17 139.85,-235.73 132.48,-222.98"/>
<polygon fill="black" stroke="black" points="135.34,-220.95 127.31,-214.04 129.28,-224.45 135.34,-220.95"/>
</g>
<!-- alpha -->
<g id="node3" class="node">
<title>alpha</title>
<ellipse fill="none" stroke="black" cx="257.5" cy="-187.43" rx="70.01" ry="37.45"/>
<text text-anchor="middle" x="257.5" y="-198.73" font-family="Times,serif" font-size="14.00">alpha</text>
<text text-anchor="middle" x="257.5" y="-183.73" font-family="Times,serif" font-size="14.00">~</text>
<text text-anchor="middle" x="257.5" y="-168.73" font-family="Times,serif" font-size="14.00">HalfCauchy</text>
</g>
<!-- y -->
<g id="node5" class="node">
<title>y</title>
<ellipse fill="lightgrey" stroke="black" cx="115.5" cy="-76.48" rx="50.41" ry="37.45"/>
<text text-anchor="middle" x="115.5" y="-87.78" font-family="Times,serif" font-size="14.00">y</text>
<text text-anchor="middle" x="115.5" y="-72.78" font-family="Times,serif" font-size="14.00">~</text>
<text text-anchor="middle" x="115.5" y="-57.78" font-family="Times,serif" font-size="14.00">Gamma</text>
</g>
<!-- alpha&#45;&gt;y -->
<g id="edge4" class="edge">
<title>alpha&#45;&gt;y</title>
<path fill="none" stroke="black" d="M218.32,-156.37C199.64,-142.04 177.26,-124.87 158.16,-110.21"/>
<polygon fill="black" stroke="black" points="160.26,-107.41 150.19,-104.1 156,-112.96 160.26,-107.41"/>
</g>
<!-- mu&#45;&gt;y -->
<g id="edge3" class="edge">
<title>mu&#45;&gt;y</title>
<path fill="none" stroke="black" d="M113.2,-160.89C113.5,-149.98 113.86,-136.89 114.21,-124.35"/>
<polygon fill="black" stroke="black" points="117.72,-124.09 114.49,-114 110.72,-123.9 117.72,-124.09"/>
</g>
</g>
</svg>
