<?xml version="1.0" encoding="UTF-8" standalone="no"?>
<!DOCTYPE svg PUBLIC "-//W3C//DTD SVG 1.1//EN"
 "http://www.w3.org/Graphics/SVG/1.1/DTD/svg11.dtd">
<!-- Generated by graphviz version 2.50.0 (0)
 -->
<!-- Pages: 1 -->
<svg width="756pt" height="485pt"
 viewBox="0.00 0.00 756.12 484.81" xmlns="http://www.w3.org/2000/svg" xmlns:xlink="http://www.w3.org/1999/xlink">
<g id="graph0" class="graph" transform="scale(1 1) rotate(0) translate(4 480.81)">
<polygon fill="white" stroke="transparent" points="-4,4 -4,-480.81 752.12,-480.81 752.12,4 -4,4"/>
<g id="clust1" class="cluster">
<title>clusterfloor_dim (2)</title>
<path fill="none" stroke="black" d="M52.12,-232.91C52.12,-232.91 142.12,-232.91 142.12,-232.91 148.12,-232.91 154.12,-238.91 154.12,-244.91 154.12,-244.91 154.12,-334.86 154.12,-334.86 154.12,-340.86 148.12,-346.86 142.12,-346.86 142.12,-346.86 52.12,-346.86 52.12,-346.86 46.12,-346.86 40.12,-340.86 40.12,-334.86 40.12,-334.86 40.12,-244.91 40.12,-244.91 40.12,-238.91 46.12,-232.91 52.12,-232.91"/>
<text text-anchor="middle" x="100.62" y="-240.71" font-family="Times,serif" font-size="14.00">floor_dim (2)</text>
</g>
<g id="clust2" class="cluster">
<title>clusterfloor__expr_dim (2)</title>
<path fill="none" stroke="black" d="M522.12,-354.86C522.12,-354.86 728.12,-354.86 728.12,-354.86 734.12,-354.86 740.12,-360.86 740.12,-366.86 740.12,-366.86 740.12,-456.81 740.12,-456.81 740.12,-462.81 734.12,-468.81 728.12,-468.81 728.12,-468.81 522.12,-468.81 522.12,-468.81 516.12,-468.81 510.12,-462.81 510.12,-456.81 510.12,-456.81 510.12,-366.86 510.12,-366.86 510.12,-360.86 516.12,-354.86 522.12,-354.86"/>
<text text-anchor="middle" x="664.12" y="-362.66" font-family="Times,serif" font-size="14.00">floor__expr_dim (2)</text>
</g>
<g id="clust3" class="cluster">
<title>clustercounty__factor_dim (85) x floor__expr_dim (2)</title>
<path fill="none" stroke="black" d="M174.12,-243.88C174.12,-243.88 490.12,-243.88 490.12,-243.88 496.12,-243.88 502.12,-249.88 502.12,-255.88 502.12,-255.88 502.12,-456.81 502.12,-456.81 502.12,-462.81 496.12,-468.81 490.12,-468.81 490.12,-468.81 174.12,-468.81 174.12,-468.81 168.12,-468.81 162.12,-462.81 162.12,-456.81 162.12,-456.81 162.12,-255.88 162.12,-255.88 162.12,-249.88 168.12,-243.88 174.12,-243.88"/>
<text text-anchor="middle" x="332.12" y="-251.68" font-family="Times,serif" font-size="14.00">county__factor_dim (85) x floor__expr_dim (2)</text>
</g>
<g id="clust4" class="cluster">
<title>cluster__obs__ (919)</title>
<path fill="none" stroke="black" d="M164.12,-8C164.12,-8 278.12,-8 278.12,-8 284.12,-8 290.12,-14 290.12,-20 290.12,-20 290.12,-209.93 290.12,-209.93 290.12,-215.93 284.12,-221.93 278.12,-221.93 278.12,-221.93 164.12,-221.93 164.12,-221.93 158.12,-221.93 152.12,-215.93 152.12,-209.93 152.12,-209.93 152.12,-20 152.12,-20 152.12,-14 158.12,-8 164.12,-8"/>
<text text-anchor="middle" x="235.12" y="-15.8" font-family="Times,serif" font-size="14.00">__obs__ (919)</text>
</g>
<!-- sigma -->
<g id="node1" class="node">
<title>sigma</title>
<ellipse fill="none" stroke="black" cx="72.12" cy="-187.43" rx="72.25" ry="37.45"/>
<text text-anchor="middle" x="72.12" y="-198.73" font-family="Times,serif" font-size="14.00">sigma</text>
<text text-anchor="middle" x="72.12" y="-183.73" font-family="Times,serif" font-size="14.00">~</text>
<text text-anchor="middle" x="72.12" y="-168.73" font-family="Times,serif" font-size="14.00">Exponential</text>
</g>
<!-- log_radon -->
<g id="node7" class="node">
<title>log_radon</title>
<ellipse fill="lightgrey" stroke="black" cx="221.12" cy="-76.48" rx="60.62" ry="37.45"/>
<text text-anchor="middle" x="221.12" y="-87.78" font-family="Times,serif" font-size="14.00">log_radon</text>
<text text-anchor="middle" x="221.12" y="-72.78" font-family="Times,serif" font-size="14.00">~</text>
<text text-anchor="middle" x="221.12" y="-57.78" font-family="Times,serif" font-size="14.00">Normal</text>
</g>
<!-- sigma&#45;&gt;log_radon -->
<g id="edge6" class="edge">
<title>sigma&#45;&gt;log_radon</title>
<path fill="none" stroke="black" d="M113.23,-156.37C132.23,-142.48 154.87,-125.92 174.5,-111.57"/>
<polygon fill="black" stroke="black" points="176.7,-114.3 182.71,-105.57 172.57,-108.65 176.7,-114.3"/>
</g>
<!-- floor -->
<g id="node2" class="node">
<title>floor</title>
<ellipse fill="none" stroke="black" cx="97.12" cy="-301.38" rx="49.49" ry="37.45"/>
<text text-anchor="middle" x="97.12" y="-312.68" font-family="Times,serif" font-size="14.00">floor</text>
<text text-anchor="middle" x="97.12" y="-297.68" font-family="Times,serif" font-size="14.00">~</text>
<text text-anchor="middle" x="97.12" y="-282.68" font-family="Times,serif" font-size="14.00">Normal</text>
</g>
<!-- mu -->
<g id="node6" class="node">
<title>mu</title>
<polygon fill="none" stroke="black" points="278.12,-213.93 164.12,-213.93 164.12,-160.93 278.12,-160.93 278.12,-213.93"/>
<text text-anchor="middle" x="221.12" y="-198.73" font-family="Times,serif" font-size="14.00">mu</text>
<text text-anchor="middle" x="221.12" y="-183.73" font-family="Times,serif" font-size="14.00">~</text>
<text text-anchor="middle" x="221.12" y="-168.73" font-family="Times,serif" font-size="14.00">Deterministic</text>
</g>
<!-- floor&#45;&gt;mu -->
<g id="edge3" class="edge">
<title>floor&#45;&gt;mu</title>
<path fill="none" stroke="black" d="M122.81,-269.13C133.22,-257.23 145.72,-243.91 158.12,-232.91 163.11,-228.49 168.53,-224.11 174.03,-219.92"/>
<polygon fill="black" stroke="black" points="176.16,-222.7 182.12,-213.94 172,-217.08 176.16,-222.7"/>
</g>
<!-- floor|county_sigma -->
<g id="node3" class="node">
<title>floor|county_sigma</title>
<ellipse fill="none" stroke="black" cx="625.12" cy="-423.34" rx="106.55" ry="37.45"/>
<text text-anchor="middle" x="625.12" y="-434.64" font-family="Times,serif" font-size="14.00">floor|county_sigma</text>
<text text-anchor="middle" x="625.12" y="-419.64" font-family="Times,serif" font-size="14.00">~</text>
<text text-anchor="middle" x="625.12" y="-404.64" font-family="Times,serif" font-size="14.00">Exponential</text>
</g>
<!-- floor|county -->
<g id="node5" class="node">
<title>floor|county</title>
<polygon fill="none" stroke="black" points="389.12,-327.88 275.12,-327.88 275.12,-274.88 389.12,-274.88 389.12,-327.88"/>
<text text-anchor="middle" x="332.12" y="-312.68" font-family="Times,serif" font-size="14.00">floor|county</text>
<text text-anchor="middle" x="332.12" y="-297.68" font-family="Times,serif" font-size="14.00">~</text>
<text text-anchor="middle" x="332.12" y="-282.68" font-family="Times,serif" font-size="14.00">Deterministic</text>
</g>
<!-- floor|county_sigma&#45;&gt;floor|county -->
<g id="edge2" class="edge">
<title>floor|county_sigma&#45;&gt;floor|county</title>
<path fill="none" stroke="black" d="M574.27,-390.19C553.65,-378.04 529.27,-364.76 506.12,-354.86 471.82,-340.18 432.07,-327.86 399.24,-318.86"/>
<polygon fill="black" stroke="black" points="399.85,-315.4 389.28,-316.17 398.03,-322.16 399.85,-315.4"/>
</g>
<!-- floor|county_offset -->
<g id="node4" class="node">
<title>floor|county_offset</title>
<ellipse fill="none" stroke="black" cx="332.12" cy="-423.34" rx="104.8" ry="37.45"/>
<text text-anchor="middle" x="332.12" y="-434.64" font-family="Times,serif" font-size="14.00">floor|county_offset</text>
<text text-anchor="middle" x="332.12" y="-419.64" font-family="Times,serif" font-size="14.00">~</text>
<text text-anchor="middle" x="332.12" y="-404.64" font-family="Times,serif" font-size="14.00">Normal</text>
</g>
<!-- floor|county_offset&#45;&gt;floor|county -->
<g id="edge1" class="edge">
<title>floor|county_offset&#45;&gt;floor|county</title>
<path fill="none" stroke="black" d="M332.12,-385.69C332.12,-370.73 332.12,-353.46 332.12,-338.54"/>
<polygon fill="black" stroke="black" points="335.62,-338.16 332.12,-328.16 328.62,-338.16 335.62,-338.16"/>
</g>
<!-- floor|county&#45;&gt;mu -->
<g id="edge4" class="edge">
<title>floor|county&#45;&gt;mu</title>
<path fill="none" stroke="black" d="M306.66,-274.7C291.01,-258.91 270.79,-238.53 253.95,-221.53"/>
<polygon fill="black" stroke="black" points="256,-218.63 246.47,-213.99 251.03,-223.56 256,-218.63"/>
</g>
<!-- mu&#45;&gt;log_radon -->
<g id="edge5" class="edge">
<title>mu&#45;&gt;log_radon</title>
<path fill="none" stroke="black" d="M221.12,-160.89C221.12,-149.98 221.12,-136.89 221.12,-124.35"/>
<polygon fill="black" stroke="black" points="224.62,-124 221.12,-114 217.62,-124 224.62,-124"/>
</g>
</g>
</svg>
