<?xml version="1.0" encoding="UTF-8" standalone="no"?>
<!DOCTYPE svg PUBLIC "-//W3C//DTD SVG 1.1//EN"
 "http://www.w3.org/Graphics/SVG/1.1/DTD/svg11.dtd">
<!-- Generated by graphviz version 2.50.0 (0)
 -->
<!-- Pages: 1 -->
<svg width="452pt" height="355pt"
 viewBox="0.00 0.00 452.00 354.86" xmlns="http://www.w3.org/2000/svg" xmlns:xlink="http://www.w3.org/1999/xlink">
<g id="graph0" class="graph" transform="scale(1 1) rotate(0) translate(4 350.86)">
<polygon fill="white" stroke="transparent" points="-4,4 -4,-350.86 448,-350.86 448,4 -4,4"/>
<g id="clust1" class="cluster">
<title>clusterfloor_dim (2)</title>
<path fill="none" stroke="black" d="M348,-129.95C348,-129.95 424,-129.95 424,-129.95 430,-129.95 436,-135.95 436,-141.95 436,-141.95 436,-231.91 436,-231.91 436,-237.91 430,-243.91 424,-243.91 424,-243.91 348,-243.91 348,-243.91 342,-243.91 336,-237.91 336,-231.91 336,-231.91 336,-141.95 336,-141.95 336,-135.95 342,-129.95 348,-129.95"/>
<text text-anchor="middle" x="390.5" y="-137.75" font-family="Times,serif" font-size="14.00">floor_dim (2)</text>
</g>
<g id="clust2" class="cluster">
<title>clustercounty__factor_dim (85)</title>
<path fill="none" stroke="black" d="M20,-129.95C20,-129.95 149,-129.95 149,-129.95 155,-129.95 161,-135.95 161,-141.95 161,-141.95 161,-231.91 161,-231.91 161,-237.91 155,-243.91 149,-243.91 149,-243.91 20,-243.91 20,-243.91 14,-243.91 8,-237.91 8,-231.91 8,-231.91 8,-141.95 8,-141.95 8,-135.95 14,-129.95 20,-129.95"/>
<text text-anchor="middle" x="84.5" y="-137.75" font-family="Times,serif" font-size="14.00">county__factor_dim (85)</text>
</g>
<g id="clust3" class="cluster">
<title>clusterlog_radon_obs (919)</title>
<path fill="none" stroke="black" d="M195,-8C195,-8 301,-8 301,-8 307,-8 313,-14 313,-20 313,-20 313,-109.95 313,-109.95 313,-115.95 307,-121.95 301,-121.95 301,-121.95 195,-121.95 195,-121.95 189,-121.95 183,-115.95 183,-109.95 183,-109.95 183,-20 183,-20 183,-14 189,-8 195,-8"/>
<text text-anchor="middle" x="248" y="-15.8" font-family="Times,serif" font-size="14.00">log_radon_obs (919)</text>
</g>
<!-- 1|county_sigma -->
<g id="node1" class="node">
<title>1|county_sigma</title>
<ellipse fill="none" stroke="black" cx="107" cy="-309.38" rx="72.66" ry="37.45"/>
<text text-anchor="middle" x="107" y="-320.68" font-family="Times,serif" font-size="14.00">1|county_sigma</text>
<text text-anchor="middle" x="107" y="-305.68" font-family="Times,serif" font-size="14.00">~</text>
<text text-anchor="middle" x="107" y="-290.68" font-family="Times,serif" font-size="14.00">Exponential</text>
</g>
<!-- 1|county -->
<g id="node4" class="node">
<title>1|county</title>
<ellipse fill="none" stroke="black" cx="107" cy="-198.43" rx="44.6" ry="37.45"/>
<text text-anchor="middle" x="107" y="-209.73" font-family="Times,serif" font-size="14.00">1|county</text>
<text text-anchor="middle" x="107" y="-194.73" font-family="Times,serif" font-size="14.00">~</text>
<text text-anchor="middle" x="107" y="-179.73" font-family="Times,serif" font-size="14.00">Normal</text>
</g>
<!-- 1|county_sigma&#45;&gt;1|county -->
<g id="edge1" class="edge">
<title>1|county_sigma&#45;&gt;1|county</title>
<path fill="none" stroke="black" d="M107,-271.8C107,-263.63 107,-254.85 107,-246.32"/>
<polygon fill="black" stroke="black" points="110.5,-246.1 107,-236.1 103.5,-246.1 110.5,-246.1"/>
</g>
<!-- log_radon_sigma -->
<g id="node2" class="node">
<title>log_radon_sigma</title>
<ellipse fill="none" stroke="black" cx="248" cy="-198.43" rx="78.48" ry="37.45"/>
<text text-anchor="middle" x="248" y="-209.73" font-family="Times,serif" font-size="14.00">log_radon_sigma</text>
<text text-anchor="middle" x="248" y="-194.73" font-family="Times,serif" font-size="14.00">~</text>
<text text-anchor="middle" x="248" y="-179.73" font-family="Times,serif" font-size="14.00">Exponential</text>
</g>
<!-- log_radon -->
<g id="node5" class="node">
<title>log_radon</title>
<ellipse fill="lightgrey" stroke="black" cx="248" cy="-76.48" rx="50.41" ry="37.45"/>
<text text-anchor="middle" x="248" y="-87.78" font-family="Times,serif" font-size="14.00">log_radon</text>
<text text-anchor="middle" x="248" y="-72.78" font-family="Times,serif" font-size="14.00">~</text>
<text text-anchor="middle" x="248" y="-57.78" font-family="Times,serif" font-size="14.00">Normal</text>
</g>
<!-- log_radon_sigma&#45;&gt;log_radon -->
<g id="edge4" class="edge">
<title>log_radon_sigma&#45;&gt;log_radon</title>
<path fill="none" stroke="black" d="M248,-160.79C248,-149.38 248,-136.65 248,-124.63"/>
<polygon fill="black" stroke="black" points="251.5,-124.31 248,-114.31 244.5,-124.31 251.5,-124.31"/>
</g>
<!-- floor -->
<g id="node3" class="node">
<title>floor</title>
<ellipse fill="none" stroke="black" cx="386" cy="-198.43" rx="41.94" ry="37.45"/>
<text text-anchor="middle" x="386" y="-209.73" font-family="Times,serif" font-size="14.00">floor</text>
<text text-anchor="middle" x="386" y="-194.73" font-family="Times,serif" font-size="14.00">~</text>
<text text-anchor="middle" x="386" y="-179.73" font-family="Times,serif" font-size="14.00">Normal</text>
</g>
<!-- floor&#45;&gt;log_radon -->
<g id="edge2" class="edge">
<title>floor&#45;&gt;log_radon</title>
<path fill="none" stroke="black" d="M365.66,-165.47C357.1,-153.48 346.46,-140.27 335,-129.95 323.92,-119.98 310.68,-110.87 297.91,-103.15"/>
<polygon fill="black" stroke="black" points="299.57,-100.06 289.17,-98.02 296.03,-106.1 299.57,-100.06"/>
</g>
<!-- 1|county&#45;&gt;log_radon -->
<g id="edge3" class="edge">
<title>1|county&#45;&gt;log_radon</title>
<path fill="none" stroke="black" d="M128.83,-165.53C137.93,-153.55 149.15,-140.33 161,-129.95 172.21,-120.13 185.5,-111.08 198.28,-103.35"/>
<polygon fill="black" stroke="black" points="200.15,-106.31 207,-98.22 196.61,-100.27 200.15,-106.31"/>
</g>
</g>
</svg>
