<?xml version="1.0" encoding="UTF-8" standalone="no"?>
<!DOCTYPE svg PUBLIC "-//W3C//DTD SVG 1.1//EN"
 "http://www.w3.org/Graphics/SVG/1.1/DTD/svg11.dtd">
<!-- Generated by graphviz version 2.50.0 (0)
 -->
<!-- Pages: 1 -->
<svg width="306pt" height="363pt"
 viewBox="0.00 0.00 306.12 362.86" xmlns="http://www.w3.org/2000/svg" xmlns:xlink="http://www.w3.org/1999/xlink">
<g id="graph0" class="graph" transform="scale(1 1) rotate(0) translate(4 358.86)">
<polygon fill="white" stroke="transparent" points="-4,4 -4,-358.86 302.12,-358.86 302.12,4 -4,4"/>
<g id="clust1" class="cluster">
<title>clusterfloor_dim (2)</title>
<path fill="none" stroke="black" d="M176.12,-232.91C176.12,-232.91 266.12,-232.91 266.12,-232.91 272.12,-232.91 278.12,-238.91 278.12,-244.91 278.12,-244.91 278.12,-334.86 278.12,-334.86 278.12,-340.86 272.12,-346.86 266.12,-346.86 266.12,-346.86 176.12,-346.86 176.12,-346.86 170.12,-346.86 164.12,-340.86 164.12,-334.86 164.12,-334.86 164.12,-244.91 164.12,-244.91 164.12,-238.91 170.12,-232.91 176.12,-232.91"/>
<text text-anchor="middle" x="224.62" y="-240.71" font-family="Times,serif" font-size="14.00">floor_dim (2)</text>
</g>
<g id="clust2" class="cluster">
<title>cluster__obs__ (919)</title>
<path fill="none" stroke="black" d="M164.12,-8C164.12,-8 278.12,-8 278.12,-8 284.12,-8 290.12,-14 290.12,-20 290.12,-20 290.12,-209.93 290.12,-209.93 290.12,-215.93 284.12,-221.93 278.12,-221.93 278.12,-221.93 164.12,-221.93 164.12,-221.93 158.12,-221.93 152.12,-215.93 152.12,-209.93 152.12,-209.93 152.12,-20 152.12,-20 152.12,-14 158.12,-8 164.12,-8"/>
<text text-anchor="middle" x="235.12" y="-15.8" font-family="Times,serif" font-size="14.00">__obs__ (919)</text>
</g>
<!-- sigma -->
<g id="node1" class="node">
<title>sigma</title>
<ellipse fill="none" stroke="black" cx="72.12" cy="-187.43" rx="72.25" ry="37.45"/>
<text text-anchor="middle" x="72.12" y="-198.73" font-family="Times,serif" font-size="14.00">sigma</text>
<text text-anchor="middle" x="72.12" y="-183.73" font-family="Times,serif" font-size="14.00">~</text>
<text text-anchor="middle" x="72.12" y="-168.73" font-family="Times,serif" font-size="14.00">Exponential</text>
</g>
<!-- log_radon -->
<g id="node4" class="node">
<title>log_radon</title>
<ellipse fill="lightgrey" stroke="black" cx="221.12" cy="-76.48" rx="60.62" ry="37.45"/>
<text text-anchor="middle" x="221.12" y="-87.78" font-family="Times,serif" font-size="14.00">log_radon</text>
<text text-anchor="middle" x="221.12" y="-72.78" font-family="Times,serif" font-size="14.00">~</text>
<text text-anchor="middle" x="221.12" y="-57.78" font-family="Times,serif" font-size="14.00">Normal</text>
</g>
<!-- sigma&#45;&gt;log_radon -->
<g id="edge3" class="edge">
<title>sigma&#45;&gt;log_radon</title>
<path fill="none" stroke="black" d="M113.23,-156.37C132.23,-142.48 154.87,-125.92 174.5,-111.57"/>
<polygon fill="black" stroke="black" points="176.7,-114.3 182.71,-105.57 172.57,-108.65 176.7,-114.3"/>
</g>
<!-- floor -->
<g id="node2" class="node">
<title>floor</title>
<ellipse fill="none" stroke="black" cx="221.12" cy="-301.38" rx="49.49" ry="37.45"/>
<text text-anchor="middle" x="221.12" y="-312.68" font-family="Times,serif" font-size="14.00">floor</text>
<text text-anchor="middle" x="221.12" y="-297.68" font-family="Times,serif" font-size="14.00">~</text>
<text text-anchor="middle" x="221.12" y="-282.68" font-family="Times,serif" font-size="14.00">Normal</text>
</g>
<!-- mu -->
<g id="node3" class="node">
<title>mu</title>
<polygon fill="none" stroke="black" points="278.12,-213.93 164.12,-213.93 164.12,-160.93 278.12,-160.93 278.12,-213.93"/>
<text text-anchor="middle" x="221.12" y="-198.73" font-family="Times,serif" font-size="14.00">mu</text>
<text text-anchor="middle" x="221.12" y="-183.73" font-family="Times,serif" font-size="14.00">~</text>
<text text-anchor="middle" x="221.12" y="-168.73" font-family="Times,serif" font-size="14.00">Deterministic</text>
</g>
<!-- floor&#45;&gt;mu -->
<g id="edge1" class="edge">
<title>floor&#45;&gt;mu</title>
<path fill="none" stroke="black" d="M221.12,-263.73C221.12,-251.07 221.12,-236.92 221.12,-224.32"/>
<polygon fill="black" stroke="black" points="224.62,-224.18 221.12,-214.18 217.62,-224.18 224.62,-224.18"/>
</g>
<!-- mu&#45;&gt;log_radon -->
<g id="edge2" class="edge">
<title>mu&#45;&gt;log_radon</title>
<path fill="none" stroke="black" d="M221.12,-160.89C221.12,-149.98 221.12,-136.89 221.12,-124.35"/>
<polygon fill="black" stroke="black" points="224.62,-124 221.12,-114 217.62,-124 224.62,-124"/>
</g>
</g>
</svg>
