<?xml version="1.0" encoding="UTF-8" standalone="no"?>
<!DOCTYPE svg PUBLIC "-//W3C//DTD SVG 1.1//EN"
 "http://www.w3.org/Graphics/SVG/1.1/DTD/svg11.dtd">
<!-- Generated by graphviz version 2.43.0 (0)
 -->
<!-- Title: %3 Pages: 1 -->
<svg width="426pt" height="458pt"
 viewBox="0.00 0.00 426.12 457.81" xmlns="http://www.w3.org/2000/svg" xmlns:xlink="http://www.w3.org/1999/xlink">
<g id="graph0" class="graph" transform="scale(1 1) rotate(0) translate(4 453.81)">
<title>%3</title>
<polygon fill="white" stroke="transparent" points="-4,4 -4,-453.81 422.12,-453.81 422.12,4 -4,4"/>
<g id="clust1" class="cluster">
<title>clustercounty__factor_dim (85)</title>
<path fill="none" stroke="black" d="M235.12,-232.91C235.12,-232.91 398.12,-232.91 398.12,-232.91 404.12,-232.91 410.12,-238.91 410.12,-244.91 410.12,-244.91 410.12,-334.86 410.12,-334.86 410.12,-340.86 404.12,-346.86 398.12,-346.86 398.12,-346.86 235.12,-346.86 235.12,-346.86 229.12,-346.86 223.12,-340.86 223.12,-334.86 223.12,-334.86 223.12,-244.91 223.12,-244.91 223.12,-238.91 229.12,-232.91 235.12,-232.91"/>
<text text-anchor="middle" x="316.62" y="-240.71" font-family="Times,serif" font-size="14.00">county__factor_dim (85)</text>
</g>
<g id="clust2" class="cluster">
<title>cluster__obs__ (919)</title>
<path fill="none" stroke="black" d="M164.12,-8C164.12,-8 278.12,-8 278.12,-8 284.12,-8 290.12,-14 290.12,-20 290.12,-20 290.12,-209.93 290.12,-209.93 290.12,-215.93 284.12,-221.93 278.12,-221.93 278.12,-221.93 164.12,-221.93 164.12,-221.93 158.12,-221.93 152.12,-215.93 152.12,-209.93 152.12,-209.93 152.12,-20 152.12,-20 152.12,-14 158.12,-8 164.12,-8"/>
<text text-anchor="middle" x="235.12" y="-15.8" font-family="Times,serif" font-size="14.00">__obs__ (919)</text>
</g>
<!-- sigma -->
<g id="node1" class="node">
<title>sigma</title>
<ellipse fill="none" stroke="black" cx="72.12" cy="-187.43" rx="72.25" ry="37.45"/>
<text text-anchor="middle" x="72.12" y="-198.73" font-family="Times,serif" font-size="14.00">sigma</text>
<text text-anchor="middle" x="72.12" y="-183.73" font-family="Times,serif" font-size="14.00">~</text>
<text text-anchor="middle" x="72.12" y="-168.73" font-family="Times,serif" font-size="14.00">Exponential</text>
</g>
<!-- log_radon -->
<g id="node5" class="node">
<title>log_radon</title>
<ellipse fill="lightgrey" stroke="black" cx="221.12" cy="-76.48" rx="60.62" ry="37.45"/>
<text text-anchor="middle" x="221.12" y="-87.78" font-family="Times,serif" font-size="14.00">log_radon</text>
<text text-anchor="middle" x="221.12" y="-72.78" font-family="Times,serif" font-size="14.00">~</text>
<text text-anchor="middle" x="221.12" y="-57.78" font-family="Times,serif" font-size="14.00">Normal</text>
</g>
<!-- sigma&#45;&gt;log_radon -->
<g id="edge4" class="edge">
<title>sigma&#45;&gt;log_radon</title>
<path fill="none" stroke="black" d="M113.23,-156.37C132.23,-142.48 154.87,-125.92 174.5,-111.57"/>
<polygon fill="black" stroke="black" points="176.7,-114.3 182.71,-105.57 172.57,-108.65 176.7,-114.3"/>
</g>
<!-- 1|county_sigma -->
<g id="node2" class="node">
<title>1|county_sigma</title>
<ellipse fill="none" stroke="black" cx="287.12" cy="-412.34" rx="90.52" ry="37.45"/>
<text text-anchor="middle" x="287.12" y="-423.64" font-family="Times,serif" font-size="14.00">1|county_sigma</text>
<text text-anchor="middle" x="287.12" y="-408.64" font-family="Times,serif" font-size="14.00">~</text>
<text text-anchor="middle" x="287.12" y="-393.64" font-family="Times,serif" font-size="14.00">Exponential</text>
</g>
<!-- 1|county -->
<g id="node4" class="node">
<title>1|county</title>
<ellipse fill="none" stroke="black" cx="287.12" cy="-301.38" rx="55.31" ry="37.45"/>
<text text-anchor="middle" x="287.12" y="-312.68" font-family="Times,serif" font-size="14.00">1|county</text>
<text text-anchor="middle" x="287.12" y="-297.68" font-family="Times,serif" font-size="14.00">~</text>
<text text-anchor="middle" x="287.12" y="-282.68" font-family="Times,serif" font-size="14.00">Normal</text>
</g>
<!-- 1|county_sigma&#45;&gt;1|county -->
<g id="edge1" class="edge">
<title>1|county_sigma&#45;&gt;1|county</title>
<path fill="none" stroke="black" d="M287.12,-374.75C287.12,-366.58 287.12,-357.8 287.12,-349.27"/>
<polygon fill="black" stroke="black" points="290.62,-349.06 287.12,-339.06 283.62,-349.06 290.62,-349.06"/>
</g>
<!-- Intercept -->
<g id="node3" class="node">
<title>Intercept</title>
<ellipse fill="none" stroke="black" cx="155.12" cy="-301.38" rx="58.88" ry="37.45"/>
<text text-anchor="middle" x="155.12" y="-312.68" font-family="Times,serif" font-size="14.00">Intercept</text>
<text text-anchor="middle" x="155.12" y="-297.68" font-family="Times,serif" font-size="14.00">~</text>
<text text-anchor="middle" x="155.12" y="-282.68" font-family="Times,serif" font-size="14.00">Normal</text>
</g>
<!-- mu -->
<g id="node6" class="node">
<title>mu</title>
<polygon fill="none" stroke="black" points="278.12,-213.93 164.12,-213.93 164.12,-160.93 278.12,-160.93 278.12,-213.93"/>
<text text-anchor="middle" x="221.12" y="-198.73" font-family="Times,serif" font-size="14.00">mu</text>
<text text-anchor="middle" x="221.12" y="-183.73" font-family="Times,serif" font-size="14.00">~</text>
<text text-anchor="middle" x="221.12" y="-168.73" font-family="Times,serif" font-size="14.00">Deterministic</text>
</g>
<!-- Intercept&#45;&gt;mu -->
<g id="edge3" class="edge">
<title>Intercept&#45;&gt;mu</title>
<path fill="none" stroke="black" d="M175.29,-266.19C183.37,-252.47 192.67,-236.69 200.78,-222.94"/>
<polygon fill="black" stroke="black" points="203.84,-224.64 205.91,-214.25 197.81,-221.08 203.84,-224.64"/>
</g>
<!-- 1|county&#45;&gt;mu -->
<g id="edge2" class="edge">
<title>1|county&#45;&gt;mu</title>
<path fill="none" stroke="black" d="M266.96,-266.19C258.88,-252.47 249.58,-236.69 241.47,-222.94"/>
<polygon fill="black" stroke="black" points="244.44,-221.08 236.34,-214.25 238.41,-224.64 244.44,-221.08"/>
</g>
<!-- mu&#45;&gt;log_radon -->
<g id="edge5" class="edge">
<title>mu&#45;&gt;log_radon</title>
<path fill="none" stroke="black" d="M221.12,-160.89C221.12,-149.98 221.12,-136.89 221.12,-124.35"/>
<polygon fill="black" stroke="black" points="224.62,-124 221.12,-114 217.62,-124 224.62,-124"/>
</g>
</g>
</svg>
