<?xml version="1.0" encoding="UTF-8" standalone="no"?>
<!DOCTYPE svg PUBLIC "-//W3C//DTD SVG 1.1//EN"
 "http://www.w3.org/Graphics/SVG/1.1/DTD/svg11.dtd">
<!-- Generated by graphviz version 2.50.0 (0)
 -->
<!-- Pages: 1 -->
<svg width="354pt" height="458pt"
 viewBox="0.00 0.00 353.81 457.81" xmlns="http://www.w3.org/2000/svg" xmlns:xlink="http://www.w3.org/1999/xlink">
<g id="graph0" class="graph" transform="scale(1 1) rotate(0) translate(4 453.81)">
<polygon fill="white" stroke="transparent" points="-4,4 -4,-453.81 349.81,-453.81 349.81,4 -4,4"/>
<g id="clust1" class="cluster">
<title>clustercounty__factor_dim (85)</title>
<path fill="none" stroke="black" d="M138.69,-232.91C138.69,-232.91 301.69,-232.91 301.69,-232.91 307.69,-232.91 313.69,-238.91 313.69,-244.91 313.69,-244.91 313.69,-334.86 313.69,-334.86 313.69,-340.86 307.69,-346.86 301.69,-346.86 301.69,-346.86 138.69,-346.86 138.69,-346.86 132.69,-346.86 126.69,-340.86 126.69,-334.86 126.69,-334.86 126.69,-244.91 126.69,-244.91 126.69,-238.91 132.69,-232.91 138.69,-232.91"/>
<text text-anchor="middle" x="220.19" y="-240.71" font-family="Times,serif" font-size="14.00">county__factor_dim (85)</text>
</g>
<g id="clust2" class="cluster">
<title>cluster__obs__ (919)</title>
<path fill="none" stroke="black" d="M67.69,-8C67.69,-8 181.69,-8 181.69,-8 187.69,-8 193.69,-14 193.69,-20 193.69,-20 193.69,-209.93 193.69,-209.93 193.69,-215.93 187.69,-221.93 181.69,-221.93 181.69,-221.93 67.69,-221.93 67.69,-221.93 61.69,-221.93 55.69,-215.93 55.69,-209.93 55.69,-209.93 55.69,-20 55.69,-20 55.69,-14 61.69,-8 67.69,-8"/>
<text text-anchor="middle" x="138.69" y="-15.8" font-family="Times,serif" font-size="14.00">__obs__ (919)</text>
</g>
<!-- Intercept -->
<g id="node1" class="node">
<title>Intercept</title>
<ellipse fill="none" stroke="black" cx="58.69" cy="-301.38" rx="58.88" ry="37.45"/>
<text text-anchor="middle" x="58.69" y="-312.68" font-family="Times,serif" font-size="14.00">Intercept</text>
<text text-anchor="middle" x="58.69" y="-297.68" font-family="Times,serif" font-size="14.00">~</text>
<text text-anchor="middle" x="58.69" y="-282.68" font-family="Times,serif" font-size="14.00">Normal</text>
</g>
<!-- mu -->
<g id="node5" class="node">
<title>mu</title>
<polygon fill="none" stroke="black" points="181.69,-213.93 67.69,-213.93 67.69,-160.93 181.69,-160.93 181.69,-213.93"/>
<text text-anchor="middle" x="124.69" y="-198.73" font-family="Times,serif" font-size="14.00">mu</text>
<text text-anchor="middle" x="124.69" y="-183.73" font-family="Times,serif" font-size="14.00">~</text>
<text text-anchor="middle" x="124.69" y="-168.73" font-family="Times,serif" font-size="14.00">Deterministic</text>
</g>
<!-- Intercept&#45;&gt;mu -->
<g id="edge3" class="edge">
<title>Intercept&#45;&gt;mu</title>
<path fill="none" stroke="black" d="M78.85,-266.19C86.94,-252.47 96.24,-236.69 104.34,-222.94"/>
<polygon fill="black" stroke="black" points="107.41,-224.64 109.47,-214.25 101.38,-221.08 107.41,-224.64"/>
</g>
<!-- 1|county_sigma -->
<g id="node2" class="node">
<title>1|county_sigma</title>
<ellipse fill="none" stroke="black" cx="190.69" cy="-412.34" rx="90.52" ry="37.45"/>
<text text-anchor="middle" x="190.69" y="-423.64" font-family="Times,serif" font-size="14.00">1|county_sigma</text>
<text text-anchor="middle" x="190.69" y="-408.64" font-family="Times,serif" font-size="14.00">~</text>
<text text-anchor="middle" x="190.69" y="-393.64" font-family="Times,serif" font-size="14.00">Exponential</text>
</g>
<!-- 1|county -->
<g id="node4" class="node">
<title>1|county</title>
<ellipse fill="none" stroke="black" cx="190.69" cy="-301.38" rx="55.31" ry="37.45"/>
<text text-anchor="middle" x="190.69" y="-312.68" font-family="Times,serif" font-size="14.00">1|county</text>
<text text-anchor="middle" x="190.69" y="-297.68" font-family="Times,serif" font-size="14.00">~</text>
<text text-anchor="middle" x="190.69" y="-282.68" font-family="Times,serif" font-size="14.00">Normal</text>
</g>
<!-- 1|county_sigma&#45;&gt;1|county -->
<g id="edge1" class="edge">
<title>1|county_sigma&#45;&gt;1|county</title>
<path fill="none" stroke="black" d="M190.69,-374.75C190.69,-366.58 190.69,-357.8 190.69,-349.27"/>
<polygon fill="black" stroke="black" points="194.19,-349.06 190.69,-339.06 187.19,-349.06 194.19,-349.06"/>
</g>
<!-- sigma -->
<g id="node3" class="node">
<title>sigma</title>
<ellipse fill="none" stroke="black" cx="273.69" cy="-187.43" rx="72.25" ry="37.45"/>
<text text-anchor="middle" x="273.69" y="-198.73" font-family="Times,serif" font-size="14.00">sigma</text>
<text text-anchor="middle" x="273.69" y="-183.73" font-family="Times,serif" font-size="14.00">~</text>
<text text-anchor="middle" x="273.69" y="-168.73" font-family="Times,serif" font-size="14.00">Exponential</text>
</g>
<!-- log_radon -->
<g id="node6" class="node">
<title>log_radon</title>
<ellipse fill="lightgrey" stroke="black" cx="124.69" cy="-76.48" rx="60.62" ry="37.45"/>
<text text-anchor="middle" x="124.69" y="-87.78" font-family="Times,serif" font-size="14.00">log_radon</text>
<text text-anchor="middle" x="124.69" y="-72.78" font-family="Times,serif" font-size="14.00">~</text>
<text text-anchor="middle" x="124.69" y="-57.78" font-family="Times,serif" font-size="14.00">Normal</text>
</g>
<!-- sigma&#45;&gt;log_radon -->
<g id="edge5" class="edge">
<title>sigma&#45;&gt;log_radon</title>
<path fill="none" stroke="black" d="M232.58,-156.37C213.59,-142.48 190.94,-125.92 171.31,-111.57"/>
<polygon fill="black" stroke="black" points="173.24,-108.65 163.11,-105.57 169.11,-114.3 173.24,-108.65"/>
</g>
<!-- 1|county&#45;&gt;mu -->
<g id="edge2" class="edge">
<title>1|county&#45;&gt;mu</title>
<path fill="none" stroke="black" d="M170.53,-266.19C162.44,-252.47 153.14,-236.69 145.04,-222.94"/>
<polygon fill="black" stroke="black" points="148,-221.08 139.91,-214.25 141.97,-224.64 148,-221.08"/>
</g>
<!-- mu&#45;&gt;log_radon -->
<g id="edge4" class="edge">
<title>mu&#45;&gt;log_radon</title>
<path fill="none" stroke="black" d="M124.69,-160.89C124.69,-149.98 124.69,-136.89 124.69,-124.35"/>
<polygon fill="black" stroke="black" points="128.19,-124 124.69,-114 121.19,-124 128.19,-124"/>
</g>
</g>
</svg>
