<?xml version="1.0" encoding="UTF-8" standalone="no"?>
<!DOCTYPE svg PUBLIC "-//W3C//DTD SVG 1.1//EN"
 "http://www.w3.org/Graphics/SVG/1.1/DTD/svg11.dtd">
<!-- Generated by graphviz version 2.43.0 (0)
 -->
<!-- Title: %3 Pages: 1 -->
<svg width="880pt" height="485pt"
 viewBox="0.00 0.00 880.12 484.81" xmlns="http://www.w3.org/2000/svg" xmlns:xlink="http://www.w3.org/1999/xlink">
<g id="graph0" class="graph" transform="scale(1 1) rotate(0) translate(4 480.81)">
<title>%3</title>
<polygon fill="white" stroke="transparent" points="-4,4 -4,-480.81 876.12,-480.81 876.12,4 -4,4"/>
<g id="clust1" class="cluster">
<title>clusterfloor_dim (2)</title>
<path fill="none" stroke="black" d="M176.12,-232.91C176.12,-232.91 266.12,-232.91 266.12,-232.91 272.12,-232.91 278.12,-238.91 278.12,-244.91 278.12,-244.91 278.12,-334.86 278.12,-334.86 278.12,-340.86 272.12,-346.86 266.12,-346.86 266.12,-346.86 176.12,-346.86 176.12,-346.86 170.12,-346.86 164.12,-340.86 164.12,-334.86 164.12,-334.86 164.12,-244.91 164.12,-244.91 164.12,-238.91 170.12,-232.91 176.12,-232.91"/>
<text text-anchor="middle" x="224.62" y="-240.71" font-family="Times,serif" font-size="14.00">floor_dim (2)</text>
</g>
<g id="clust2" class="cluster">
<title>clusterfloor__expr_dim (2)</title>
<path fill="none" stroke="black" d="M646.12,-354.86C646.12,-354.86 852.12,-354.86 852.12,-354.86 858.12,-354.86 864.12,-360.86 864.12,-366.86 864.12,-366.86 864.12,-456.81 864.12,-456.81 864.12,-462.81 858.12,-468.81 852.12,-468.81 852.12,-468.81 646.12,-468.81 646.12,-468.81 640.12,-468.81 634.12,-462.81 634.12,-456.81 634.12,-456.81 634.12,-366.86 634.12,-366.86 634.12,-360.86 640.12,-354.86 646.12,-354.86"/>
<text text-anchor="middle" x="788.12" y="-362.66" font-family="Times,serif" font-size="14.00">floor__expr_dim (2)</text>
</g>
<g id="clust3" class="cluster">
<title>clustercounty__factor_dim (85) x floor__expr_dim (2)</title>
<path fill="none" stroke="black" d="M298.12,-243.88C298.12,-243.88 614.12,-243.88 614.12,-243.88 620.12,-243.88 626.12,-249.88 626.12,-255.88 626.12,-255.88 626.12,-456.81 626.12,-456.81 626.12,-462.81 620.12,-468.81 614.12,-468.81 614.12,-468.81 298.12,-468.81 298.12,-468.81 292.12,-468.81 286.12,-462.81 286.12,-456.81 286.12,-456.81 286.12,-255.88 286.12,-255.88 286.12,-249.88 292.12,-243.88 298.12,-243.88"/>
<text text-anchor="middle" x="456.12" y="-251.68" font-family="Times,serif" font-size="14.00">county__factor_dim (85) x floor__expr_dim (2)</text>
</g>
<g id="clust4" class="cluster">
<title>cluster__obs__ (919)</title>
<path fill="none" stroke="black" d="M164.12,-8C164.12,-8 278.12,-8 278.12,-8 284.12,-8 290.12,-14 290.12,-20 290.12,-20 290.12,-209.93 290.12,-209.93 290.12,-215.93 284.12,-221.93 278.12,-221.93 278.12,-221.93 164.12,-221.93 164.12,-221.93 158.12,-221.93 152.12,-215.93 152.12,-209.93 152.12,-209.93 152.12,-20 152.12,-20 152.12,-14 158.12,-8 164.12,-8"/>
<text text-anchor="middle" x="235.12" y="-15.8" font-family="Times,serif" font-size="14.00">__obs__ (919)</text>
</g>
<!-- sigma -->
<g id="node1" class="node">
<title>sigma</title>
<ellipse fill="none" stroke="black" cx="72.12" cy="-187.43" rx="72.25" ry="37.45"/>
<text text-anchor="middle" x="72.12" y="-198.73" font-family="Times,serif" font-size="14.00">sigma</text>
<text text-anchor="middle" x="72.12" y="-183.73" font-family="Times,serif" font-size="14.00">~</text>
<text text-anchor="middle" x="72.12" y="-168.73" font-family="Times,serif" font-size="14.00">Exponential</text>
</g>
<!-- log_radon -->
<g id="node7" class="node">
<title>log_radon</title>
<ellipse fill="lightgrey" stroke="black" cx="221.12" cy="-76.48" rx="60.62" ry="37.45"/>
<text text-anchor="middle" x="221.12" y="-87.78" font-family="Times,serif" font-size="14.00">log_radon</text>
<text text-anchor="middle" x="221.12" y="-72.78" font-family="Times,serif" font-size="14.00">~</text>
<text text-anchor="middle" x="221.12" y="-57.78" font-family="Times,serif" font-size="14.00">Normal</text>
</g>
<!-- sigma&#45;&gt;log_radon -->
<g id="edge6" class="edge">
<title>sigma&#45;&gt;log_radon</title>
<path fill="none" stroke="black" d="M113.23,-156.37C132.23,-142.48 154.87,-125.92 174.5,-111.57"/>
<polygon fill="black" stroke="black" points="176.7,-114.3 182.71,-105.57 172.57,-108.65 176.7,-114.3"/>
</g>
<!-- log_u -->
<g id="node2" class="node">
<title>log_u</title>
<ellipse fill="none" stroke="black" cx="104.12" cy="-301.38" rx="49.49" ry="37.45"/>
<text text-anchor="middle" x="104.12" y="-312.68" font-family="Times,serif" font-size="14.00">log_u</text>
<text text-anchor="middle" x="104.12" y="-297.68" font-family="Times,serif" font-size="14.00">~</text>
<text text-anchor="middle" x="104.12" y="-282.68" font-family="Times,serif" font-size="14.00">Normal</text>
</g>
<!-- mu -->
<g id="node8" class="node">
<title>mu</title>
<polygon fill="none" stroke="black" points="278.12,-213.93 164.12,-213.93 164.12,-160.93 278.12,-160.93 278.12,-213.93"/>
<text text-anchor="middle" x="221.12" y="-198.73" font-family="Times,serif" font-size="14.00">mu</text>
<text text-anchor="middle" x="221.12" y="-183.73" font-family="Times,serif" font-size="14.00">~</text>
<text text-anchor="middle" x="221.12" y="-168.73" font-family="Times,serif" font-size="14.00">Deterministic</text>
</g>
<!-- log_u&#45;&gt;mu -->
<g id="edge4" class="edge">
<title>log_u&#45;&gt;mu</title>
<path fill="none" stroke="black" d="M127.98,-268.39C137.4,-256.66 148.7,-243.64 160.12,-232.91 164.7,-228.61 169.7,-224.36 174.81,-220.3"/>
<polygon fill="black" stroke="black" points="177.09,-222.96 182.87,-214.08 172.81,-217.41 177.09,-222.96"/>
</g>
<!-- floor -->
<g id="node3" class="node">
<title>floor</title>
<ellipse fill="none" stroke="black" cx="221.12" cy="-301.38" rx="49.49" ry="37.45"/>
<text text-anchor="middle" x="221.12" y="-312.68" font-family="Times,serif" font-size="14.00">floor</text>
<text text-anchor="middle" x="221.12" y="-297.68" font-family="Times,serif" font-size="14.00">~</text>
<text text-anchor="middle" x="221.12" y="-282.68" font-family="Times,serif" font-size="14.00">Normal</text>
</g>
<!-- floor&#45;&gt;mu -->
<g id="edge3" class="edge">
<title>floor&#45;&gt;mu</title>
<path fill="none" stroke="black" d="M221.12,-263.73C221.12,-251.07 221.12,-236.92 221.12,-224.32"/>
<polygon fill="black" stroke="black" points="224.62,-224.18 221.12,-214.18 217.62,-224.18 224.62,-224.18"/>
</g>
<!-- floor|county_sigma -->
<g id="node4" class="node">
<title>floor|county_sigma</title>
<ellipse fill="none" stroke="black" cx="749.12" cy="-423.34" rx="106.55" ry="37.45"/>
<text text-anchor="middle" x="749.12" y="-434.64" font-family="Times,serif" font-size="14.00">floor|county_sigma</text>
<text text-anchor="middle" x="749.12" y="-419.64" font-family="Times,serif" font-size="14.00">~</text>
<text text-anchor="middle" x="749.12" y="-404.64" font-family="Times,serif" font-size="14.00">Exponential</text>
</g>
<!-- floor|county -->
<g id="node6" class="node">
<title>floor|county</title>
<polygon fill="none" stroke="black" points="513.12,-327.88 399.12,-327.88 399.12,-274.88 513.12,-274.88 513.12,-327.88"/>
<text text-anchor="middle" x="456.12" y="-312.68" font-family="Times,serif" font-size="14.00">floor|county</text>
<text text-anchor="middle" x="456.12" y="-297.68" font-family="Times,serif" font-size="14.00">~</text>
<text text-anchor="middle" x="456.12" y="-282.68" font-family="Times,serif" font-size="14.00">Deterministic</text>
</g>
<!-- floor|county_sigma&#45;&gt;floor|county -->
<g id="edge1" class="edge">
<title>floor|county_sigma&#45;&gt;floor|county</title>
<path fill="none" stroke="black" d="M698.27,-390.19C677.65,-378.04 653.27,-364.76 630.12,-354.86 595.82,-340.18 556.07,-327.86 523.24,-318.86"/>
<polygon fill="black" stroke="black" points="523.85,-315.4 513.28,-316.17 522.03,-322.16 523.85,-315.4"/>
</g>
<!-- floor|county_offset -->
<g id="node5" class="node">
<title>floor|county_offset</title>
<ellipse fill="none" stroke="black" cx="456.12" cy="-423.34" rx="104.8" ry="37.45"/>
<text text-anchor="middle" x="456.12" y="-434.64" font-family="Times,serif" font-size="14.00">floor|county_offset</text>
<text text-anchor="middle" x="456.12" y="-419.64" font-family="Times,serif" font-size="14.00">~</text>
<text text-anchor="middle" x="456.12" y="-404.64" font-family="Times,serif" font-size="14.00">Normal</text>
</g>
<!-- floor|county_offset&#45;&gt;floor|county -->
<g id="edge2" class="edge">
<title>floor|county_offset&#45;&gt;floor|county</title>
<path fill="none" stroke="black" d="M456.12,-385.69C456.12,-370.73 456.12,-353.46 456.12,-338.54"/>
<polygon fill="black" stroke="black" points="459.62,-338.16 456.12,-328.16 452.62,-338.16 459.62,-338.16"/>
</g>
<!-- floor|county&#45;&gt;mu -->
<g id="edge5" class="edge">
<title>floor|county&#45;&gt;mu</title>
<path fill="none" stroke="black" d="M402.51,-274.84C367.29,-258.06 321.07,-236.04 284.11,-218.43"/>
<polygon fill="black" stroke="black" points="285.45,-215.2 274.92,-214.06 282.44,-221.52 285.45,-215.2"/>
</g>
<!-- mu&#45;&gt;log_radon -->
<g id="edge7" class="edge">
<title>mu&#45;&gt;log_radon</title>
<path fill="none" stroke="black" d="M221.12,-160.89C221.12,-149.98 221.12,-136.89 221.12,-124.35"/>
<polygon fill="black" stroke="black" points="224.62,-124 221.12,-114 217.62,-124 224.62,-124"/>
</g>
</g>
</svg>
