<?xml version="1.0" encoding="UTF-8" standalone="no"?>
<!DOCTYPE svg PUBLIC "-//W3C//DTD SVG 1.1//EN"
 "http://www.w3.org/Graphics/SVG/1.1/DTD/svg11.dtd">
<!-- Generated by graphviz version 2.43.0 (0)
 -->
<!-- Title: %3 Pages: 1 -->
<svg width="419pt" height="458pt"
 viewBox="0.00 0.00 419.12 457.81" xmlns="http://www.w3.org/2000/svg" xmlns:xlink="http://www.w3.org/1999/xlink">
<g id="graph0" class="graph" transform="scale(1 1) rotate(0) translate(4 453.81)">
<title>%3</title>
<polygon fill="white" stroke="transparent" points="-4,4 -4,-453.81 415.12,-453.81 415.12,4 -4,4"/>
<g id="clust1" class="cluster">
<title>clusterfloor_dim (2)</title>
<path fill="none" stroke="black" d="M106.12,-232.91C106.12,-232.91 196.12,-232.91 196.12,-232.91 202.12,-232.91 208.12,-238.91 208.12,-244.91 208.12,-244.91 208.12,-334.86 208.12,-334.86 208.12,-340.86 202.12,-346.86 196.12,-346.86 196.12,-346.86 106.12,-346.86 106.12,-346.86 100.12,-346.86 94.12,-340.86 94.12,-334.86 94.12,-334.86 94.12,-244.91 94.12,-244.91 94.12,-238.91 100.12,-232.91 106.12,-232.91"/>
<text text-anchor="middle" x="154.62" y="-240.71" font-family="Times,serif" font-size="14.00">floor_dim (2)</text>
</g>
<g id="clust2" class="cluster">
<title>clustercounty__factor_dim (85)</title>
<path fill="none" stroke="black" d="M228.12,-232.91C228.12,-232.91 391.12,-232.91 391.12,-232.91 397.12,-232.91 403.12,-238.91 403.12,-244.91 403.12,-244.91 403.12,-334.86 403.12,-334.86 403.12,-340.86 397.12,-346.86 391.12,-346.86 391.12,-346.86 228.12,-346.86 228.12,-346.86 222.12,-346.86 216.12,-340.86 216.12,-334.86 216.12,-334.86 216.12,-244.91 216.12,-244.91 216.12,-238.91 222.12,-232.91 228.12,-232.91"/>
<text text-anchor="middle" x="309.62" y="-240.71" font-family="Times,serif" font-size="14.00">county__factor_dim (85)</text>
</g>
<g id="clust3" class="cluster">
<title>cluster__obs__ (919)</title>
<path fill="none" stroke="black" d="M164.12,-8C164.12,-8 278.12,-8 278.12,-8 284.12,-8 290.12,-14 290.12,-20 290.12,-20 290.12,-209.93 290.12,-209.93 290.12,-215.93 284.12,-221.93 278.12,-221.93 278.12,-221.93 164.12,-221.93 164.12,-221.93 158.12,-221.93 152.12,-215.93 152.12,-209.93 152.12,-209.93 152.12,-20 152.12,-20 152.12,-14 158.12,-8 164.12,-8"/>
<text text-anchor="middle" x="235.12" y="-15.8" font-family="Times,serif" font-size="14.00">__obs__ (919)</text>
</g>
<!-- sigma -->
<g id="node1" class="node">
<title>sigma</title>
<ellipse fill="none" stroke="black" cx="72.12" cy="-187.43" rx="72.25" ry="37.45"/>
<text text-anchor="middle" x="72.12" y="-198.73" font-family="Times,serif" font-size="14.00">sigma</text>
<text text-anchor="middle" x="72.12" y="-183.73" font-family="Times,serif" font-size="14.00">~</text>
<text text-anchor="middle" x="72.12" y="-168.73" font-family="Times,serif" font-size="14.00">Exponential</text>
</g>
<!-- log_radon -->
<g id="node5" class="node">
<title>log_radon</title>
<ellipse fill="lightgrey" stroke="black" cx="221.12" cy="-76.48" rx="60.62" ry="37.45"/>
<text text-anchor="middle" x="221.12" y="-87.78" font-family="Times,serif" font-size="14.00">log_radon</text>
<text text-anchor="middle" x="221.12" y="-72.78" font-family="Times,serif" font-size="14.00">~</text>
<text text-anchor="middle" x="221.12" y="-57.78" font-family="Times,serif" font-size="14.00">Normal</text>
</g>
<!-- sigma&#45;&gt;log_radon -->
<g id="edge4" class="edge">
<title>sigma&#45;&gt;log_radon</title>
<path fill="none" stroke="black" d="M113.23,-156.37C132.23,-142.48 154.87,-125.92 174.5,-111.57"/>
<polygon fill="black" stroke="black" points="176.7,-114.3 182.71,-105.57 172.57,-108.65 176.7,-114.3"/>
</g>
<!-- 1|county_sigma -->
<g id="node2" class="node">
<title>1|county_sigma</title>
<ellipse fill="none" stroke="black" cx="279.12" cy="-412.34" rx="90.52" ry="37.45"/>
<text text-anchor="middle" x="279.12" y="-423.64" font-family="Times,serif" font-size="14.00">1|county_sigma</text>
<text text-anchor="middle" x="279.12" y="-408.64" font-family="Times,serif" font-size="14.00">~</text>
<text text-anchor="middle" x="279.12" y="-393.64" font-family="Times,serif" font-size="14.00">Exponential</text>
</g>
<!-- 1|county -->
<g id="node4" class="node">
<title>1|county</title>
<ellipse fill="none" stroke="black" cx="279.12" cy="-301.38" rx="55.31" ry="37.45"/>
<text text-anchor="middle" x="279.12" y="-312.68" font-family="Times,serif" font-size="14.00">1|county</text>
<text text-anchor="middle" x="279.12" y="-297.68" font-family="Times,serif" font-size="14.00">~</text>
<text text-anchor="middle" x="279.12" y="-282.68" font-family="Times,serif" font-size="14.00">Normal</text>
</g>
<!-- 1|county_sigma&#45;&gt;1|county -->
<g id="edge1" class="edge">
<title>1|county_sigma&#45;&gt;1|county</title>
<path fill="none" stroke="black" d="M279.12,-374.75C279.12,-366.58 279.12,-357.8 279.12,-349.27"/>
<polygon fill="black" stroke="black" points="282.62,-349.06 279.12,-339.06 275.62,-349.06 282.62,-349.06"/>
</g>
<!-- floor -->
<g id="node3" class="node">
<title>floor</title>
<ellipse fill="none" stroke="black" cx="151.12" cy="-301.38" rx="49.49" ry="37.45"/>
<text text-anchor="middle" x="151.12" y="-312.68" font-family="Times,serif" font-size="14.00">floor</text>
<text text-anchor="middle" x="151.12" y="-297.68" font-family="Times,serif" font-size="14.00">~</text>
<text text-anchor="middle" x="151.12" y="-282.68" font-family="Times,serif" font-size="14.00">Normal</text>
</g>
<!-- mu -->
<g id="node6" class="node">
<title>mu</title>
<polygon fill="none" stroke="black" points="278.12,-213.93 164.12,-213.93 164.12,-160.93 278.12,-160.93 278.12,-213.93"/>
<text text-anchor="middle" x="221.12" y="-198.73" font-family="Times,serif" font-size="14.00">mu</text>
<text text-anchor="middle" x="221.12" y="-183.73" font-family="Times,serif" font-size="14.00">~</text>
<text text-anchor="middle" x="221.12" y="-168.73" font-family="Times,serif" font-size="14.00">Deterministic</text>
</g>
<!-- floor&#45;&gt;mu -->
<g id="edge3" class="edge">
<title>floor&#45;&gt;mu</title>
<path fill="none" stroke="black" d="M171.94,-267.1C180.75,-253.01 191,-236.6 199.86,-222.44"/>
<polygon fill="black" stroke="black" points="202.84,-224.28 205.17,-213.94 196.9,-220.57 202.84,-224.28"/>
</g>
<!-- 1|county&#45;&gt;mu -->
<g id="edge2" class="edge">
<title>1|county&#45;&gt;mu</title>
<path fill="none" stroke="black" d="M261.25,-265.88C254.22,-252.31 246.16,-236.75 239.12,-223.16"/>
<polygon fill="black" stroke="black" points="242.14,-221.38 234.43,-214.11 235.92,-224.6 242.14,-221.38"/>
</g>
<!-- mu&#45;&gt;log_radon -->
<g id="edge5" class="edge">
<title>mu&#45;&gt;log_radon</title>
<path fill="none" stroke="black" d="M221.12,-160.89C221.12,-149.98 221.12,-136.89 221.12,-124.35"/>
<polygon fill="black" stroke="black" points="224.62,-124 221.12,-114 217.62,-124 224.62,-124"/>
</g>
</g>
</svg>
