<?xml version="1.0" encoding="UTF-8" standalone="no"?>
<!DOCTYPE svg PUBLIC "-//W3C//DTD SVG 1.1//EN"
 "http://www.w3.org/Graphics/SVG/1.1/DTD/svg11.dtd">
<!-- Generated by graphviz version 2.50.0 (0)
 -->
<!-- Pages: 1 -->
<svg width="419pt" height="458pt"
 viewBox="0.00 0.00 419.12 457.81" xmlns="http://www.w3.org/2000/svg" xmlns:xlink="http://www.w3.org/1999/xlink">
<g id="graph0" class="graph" transform="scale(1 1) rotate(0) translate(4 453.81)">
<polygon fill="white" stroke="transparent" points="-4,4 -4,-453.81 415.12,-453.81 415.12,4 -4,4"/>
<g id="clust1" class="cluster">
<title>clusterfloor_dim (2)</title>
<path fill="none" stroke="black" d="M215,-232.91C215,-232.91 305,-232.91 305,-232.91 311,-232.91 317,-238.91 317,-244.91 317,-244.91 317,-334.86 317,-334.86 317,-340.86 311,-346.86 305,-346.86 305,-346.86 215,-346.86 215,-346.86 209,-346.86 203,-340.86 203,-334.86 203,-334.86 203,-244.91 203,-244.91 203,-238.91 209,-232.91 215,-232.91"/>
<text text-anchor="middle" x="263.5" y="-240.71" font-family="Times,serif" font-size="14.00">floor_dim (2)</text>
</g>
<g id="clust2" class="cluster">
<title>clustercounty__factor_dim (85)</title>
<path fill="none" stroke="black" d="M20,-232.91C20,-232.91 183,-232.91 183,-232.91 189,-232.91 195,-238.91 195,-244.91 195,-244.91 195,-334.86 195,-334.86 195,-340.86 189,-346.86 183,-346.86 183,-346.86 20,-346.86 20,-346.86 14,-346.86 8,-340.86 8,-334.86 8,-334.86 8,-244.91 8,-244.91 8,-238.91 14,-232.91 20,-232.91"/>
<text text-anchor="middle" x="101.5" y="-240.71" font-family="Times,serif" font-size="14.00">county__factor_dim (85)</text>
</g>
<g id="clust3" class="cluster">
<title>cluster__obs__ (919)</title>
<path fill="none" stroke="black" d="M133,-8C133,-8 247,-8 247,-8 253,-8 259,-14 259,-20 259,-20 259,-209.93 259,-209.93 259,-215.93 253,-221.93 247,-221.93 247,-221.93 133,-221.93 133,-221.93 127,-221.93 121,-215.93 121,-209.93 121,-209.93 121,-20 121,-20 121,-14 127,-8 133,-8"/>
<text text-anchor="middle" x="204" y="-15.8" font-family="Times,serif" font-size="14.00">__obs__ (919)</text>
</g>
<!-- 1|county_sigma -->
<g id="node1" class="node">
<title>1|county_sigma</title>
<ellipse fill="none" stroke="black" cx="132" cy="-412.34" rx="90.52" ry="37.45"/>
<text text-anchor="middle" x="132" y="-423.64" font-family="Times,serif" font-size="14.00">1|county_sigma</text>
<text text-anchor="middle" x="132" y="-408.64" font-family="Times,serif" font-size="14.00">~</text>
<text text-anchor="middle" x="132" y="-393.64" font-family="Times,serif" font-size="14.00">Exponential</text>
</g>
<!-- 1|county -->
<g id="node4" class="node">
<title>1|county</title>
<ellipse fill="none" stroke="black" cx="132" cy="-301.38" rx="55.31" ry="37.45"/>
<text text-anchor="middle" x="132" y="-312.68" font-family="Times,serif" font-size="14.00">1|county</text>
<text text-anchor="middle" x="132" y="-297.68" font-family="Times,serif" font-size="14.00">~</text>
<text text-anchor="middle" x="132" y="-282.68" font-family="Times,serif" font-size="14.00">Normal</text>
</g>
<!-- 1|county_sigma&#45;&gt;1|county -->
<g id="edge1" class="edge">
<title>1|county_sigma&#45;&gt;1|county</title>
<path fill="none" stroke="black" d="M132,-374.75C132,-366.58 132,-357.8 132,-349.27"/>
<polygon fill="black" stroke="black" points="135.5,-349.06 132,-339.06 128.5,-349.06 135.5,-349.06"/>
</g>
<!-- sigma -->
<g id="node2" class="node">
<title>sigma</title>
<ellipse fill="none" stroke="black" cx="339" cy="-187.43" rx="72.25" ry="37.45"/>
<text text-anchor="middle" x="339" y="-198.73" font-family="Times,serif" font-size="14.00">sigma</text>
<text text-anchor="middle" x="339" y="-183.73" font-family="Times,serif" font-size="14.00">~</text>
<text text-anchor="middle" x="339" y="-168.73" font-family="Times,serif" font-size="14.00">Exponential</text>
</g>
<!-- log_radon -->
<g id="node6" class="node">
<title>log_radon</title>
<ellipse fill="lightgrey" stroke="black" cx="190" cy="-76.48" rx="60.62" ry="37.45"/>
<text text-anchor="middle" x="190" y="-87.78" font-family="Times,serif" font-size="14.00">log_radon</text>
<text text-anchor="middle" x="190" y="-72.78" font-family="Times,serif" font-size="14.00">~</text>
<text text-anchor="middle" x="190" y="-57.78" font-family="Times,serif" font-size="14.00">Normal</text>
</g>
<!-- sigma&#45;&gt;log_radon -->
<g id="edge5" class="edge">
<title>sigma&#45;&gt;log_radon</title>
<path fill="none" stroke="black" d="M297.89,-156.37C278.9,-142.48 256.25,-125.92 236.62,-111.57"/>
<polygon fill="black" stroke="black" points="238.55,-108.65 228.42,-105.57 234.42,-114.3 238.55,-108.65"/>
</g>
<!-- floor -->
<g id="node3" class="node">
<title>floor</title>
<ellipse fill="none" stroke="black" cx="260" cy="-301.38" rx="49.49" ry="37.45"/>
<text text-anchor="middle" x="260" y="-312.68" font-family="Times,serif" font-size="14.00">floor</text>
<text text-anchor="middle" x="260" y="-297.68" font-family="Times,serif" font-size="14.00">~</text>
<text text-anchor="middle" x="260" y="-282.68" font-family="Times,serif" font-size="14.00">Normal</text>
</g>
<!-- mu -->
<g id="node5" class="node">
<title>mu</title>
<polygon fill="none" stroke="black" points="247,-213.93 133,-213.93 133,-160.93 247,-160.93 247,-213.93"/>
<text text-anchor="middle" x="190" y="-198.73" font-family="Times,serif" font-size="14.00">mu</text>
<text text-anchor="middle" x="190" y="-183.73" font-family="Times,serif" font-size="14.00">~</text>
<text text-anchor="middle" x="190" y="-168.73" font-family="Times,serif" font-size="14.00">Deterministic</text>
</g>
<!-- floor&#45;&gt;mu -->
<g id="edge3" class="edge">
<title>floor&#45;&gt;mu</title>
<path fill="none" stroke="black" d="M239.19,-267.1C230.38,-253.01 220.12,-236.6 211.26,-222.44"/>
<polygon fill="black" stroke="black" points="214.22,-220.57 205.95,-213.94 208.29,-224.28 214.22,-220.57"/>
</g>
<!-- 1|county&#45;&gt;mu -->
<g id="edge2" class="edge">
<title>1|county&#45;&gt;mu</title>
<path fill="none" stroke="black" d="M149.88,-265.88C156.91,-252.31 164.97,-236.75 172.01,-223.16"/>
<polygon fill="black" stroke="black" points="175.2,-224.6 176.7,-214.11 168.99,-221.38 175.2,-224.6"/>
</g>
<!-- mu&#45;&gt;log_radon -->
<g id="edge4" class="edge">
<title>mu&#45;&gt;log_radon</title>
<path fill="none" stroke="black" d="M190,-160.89C190,-149.98 190,-136.89 190,-124.35"/>
<polygon fill="black" stroke="black" points="193.5,-124 190,-114 186.5,-124 193.5,-124"/>
</g>
</g>
</svg>
