<?xml version="1.0" encoding="UTF-8" standalone="no"?>
<!DOCTYPE svg PUBLIC "-//W3C//DTD SVG 1.1//EN"
 "http://www.w3.org/Graphics/SVG/1.1/DTD/svg11.dtd">
<!-- Generated by graphviz version 2.50.0 (0)
 -->
<!-- Pages: 1 -->
<svg width="825pt" height="485pt"
 viewBox="0.00 0.00 825.50 484.81" xmlns="http://www.w3.org/2000/svg" xmlns:xlink="http://www.w3.org/1999/xlink">
<g id="graph0" class="graph" transform="scale(1 1) rotate(0) translate(4 480.81)">
<polygon fill="white" stroke="transparent" points="-4,4 -4,-480.81 821.5,-480.81 821.5,4 -4,4"/>
<g id="clust1" class="cluster">
<title>clusterfloor_dim (2)</title>
<path fill="none" stroke="black" d="M121.5,-232.91C121.5,-232.91 211.5,-232.91 211.5,-232.91 217.5,-232.91 223.5,-238.91 223.5,-244.91 223.5,-244.91 223.5,-334.86 223.5,-334.86 223.5,-340.86 217.5,-346.86 211.5,-346.86 211.5,-346.86 121.5,-346.86 121.5,-346.86 115.5,-346.86 109.5,-340.86 109.5,-334.86 109.5,-334.86 109.5,-244.91 109.5,-244.91 109.5,-238.91 115.5,-232.91 121.5,-232.91"/>
<text text-anchor="middle" x="170" y="-240.71" font-family="Times,serif" font-size="14.00">floor_dim (2)</text>
</g>
<g id="clust2" class="cluster">
<title>clusterfloor__expr_dim (2)</title>
<path fill="none" stroke="black" d="M591.5,-354.86C591.5,-354.86 797.5,-354.86 797.5,-354.86 803.5,-354.86 809.5,-360.86 809.5,-366.86 809.5,-366.86 809.5,-456.81 809.5,-456.81 809.5,-462.81 803.5,-468.81 797.5,-468.81 797.5,-468.81 591.5,-468.81 591.5,-468.81 585.5,-468.81 579.5,-462.81 579.5,-456.81 579.5,-456.81 579.5,-366.86 579.5,-366.86 579.5,-360.86 585.5,-354.86 591.5,-354.86"/>
<text text-anchor="middle" x="733.5" y="-362.66" font-family="Times,serif" font-size="14.00">floor__expr_dim (2)</text>
</g>
<g id="clust3" class="cluster">
<title>clustercounty__factor_dim (85) x floor__expr_dim (2)</title>
<path fill="none" stroke="black" d="M243.5,-243.88C243.5,-243.88 559.5,-243.88 559.5,-243.88 565.5,-243.88 571.5,-249.88 571.5,-255.88 571.5,-255.88 571.5,-456.81 571.5,-456.81 571.5,-462.81 565.5,-468.81 559.5,-468.81 559.5,-468.81 243.5,-468.81 243.5,-468.81 237.5,-468.81 231.5,-462.81 231.5,-456.81 231.5,-456.81 231.5,-255.88 231.5,-255.88 231.5,-249.88 237.5,-243.88 243.5,-243.88"/>
<text text-anchor="middle" x="401.5" y="-251.68" font-family="Times,serif" font-size="14.00">county__factor_dim (85) x floor__expr_dim (2)</text>
</g>
<g id="clust4" class="cluster">
<title>cluster__obs__ (919)</title>
<path fill="none" stroke="black" d="M109.5,-8C109.5,-8 223.5,-8 223.5,-8 229.5,-8 235.5,-14 235.5,-20 235.5,-20 235.5,-209.93 235.5,-209.93 235.5,-215.93 229.5,-221.93 223.5,-221.93 223.5,-221.93 109.5,-221.93 109.5,-221.93 103.5,-221.93 97.5,-215.93 97.5,-209.93 97.5,-209.93 97.5,-20 97.5,-20 97.5,-14 103.5,-8 109.5,-8"/>
<text text-anchor="middle" x="180.5" y="-15.8" font-family="Times,serif" font-size="14.00">__obs__ (919)</text>
</g>
<!-- log_u -->
<g id="node1" class="node">
<title>log_u</title>
<ellipse fill="none" stroke="black" cx="49.5" cy="-301.38" rx="49.49" ry="37.45"/>
<text text-anchor="middle" x="49.5" y="-312.68" font-family="Times,serif" font-size="14.00">log_u</text>
<text text-anchor="middle" x="49.5" y="-297.68" font-family="Times,serif" font-size="14.00">~</text>
<text text-anchor="middle" x="49.5" y="-282.68" font-family="Times,serif" font-size="14.00">Normal</text>
</g>
<!-- mu -->
<g id="node7" class="node">
<title>mu</title>
<polygon fill="none" stroke="black" points="223.5,-213.93 109.5,-213.93 109.5,-160.93 223.5,-160.93 223.5,-213.93"/>
<text text-anchor="middle" x="166.5" y="-198.73" font-family="Times,serif" font-size="14.00">mu</text>
<text text-anchor="middle" x="166.5" y="-183.73" font-family="Times,serif" font-size="14.00">~</text>
<text text-anchor="middle" x="166.5" y="-168.73" font-family="Times,serif" font-size="14.00">Deterministic</text>
</g>
<!-- log_u&#45;&gt;mu -->
<g id="edge5" class="edge">
<title>log_u&#45;&gt;mu</title>
<path fill="none" stroke="black" d="M73.35,-268.39C82.77,-256.66 94.07,-243.64 105.5,-232.91 110.07,-228.61 115.07,-224.36 120.18,-220.3"/>
<polygon fill="black" stroke="black" points="122.46,-222.96 128.24,-214.08 118.18,-217.41 122.46,-222.96"/>
</g>
<!-- sigma -->
<g id="node2" class="node">
<title>sigma</title>
<ellipse fill="none" stroke="black" cx="315.5" cy="-187.43" rx="72.25" ry="37.45"/>
<text text-anchor="middle" x="315.5" y="-198.73" font-family="Times,serif" font-size="14.00">sigma</text>
<text text-anchor="middle" x="315.5" y="-183.73" font-family="Times,serif" font-size="14.00">~</text>
<text text-anchor="middle" x="315.5" y="-168.73" font-family="Times,serif" font-size="14.00">Exponential</text>
</g>
<!-- log_radon -->
<g id="node8" class="node">
<title>log_radon</title>
<ellipse fill="lightgrey" stroke="black" cx="166.5" cy="-76.48" rx="60.62" ry="37.45"/>
<text text-anchor="middle" x="166.5" y="-87.78" font-family="Times,serif" font-size="14.00">log_radon</text>
<text text-anchor="middle" x="166.5" y="-72.78" font-family="Times,serif" font-size="14.00">~</text>
<text text-anchor="middle" x="166.5" y="-57.78" font-family="Times,serif" font-size="14.00">Normal</text>
</g>
<!-- sigma&#45;&gt;log_radon -->
<g id="edge7" class="edge">
<title>sigma&#45;&gt;log_radon</title>
<path fill="none" stroke="black" d="M274.39,-156.37C255.39,-142.48 232.75,-125.92 213.12,-111.57"/>
<polygon fill="black" stroke="black" points="215.05,-108.65 204.91,-105.57 210.92,-114.3 215.05,-108.65"/>
</g>
<!-- floor -->
<g id="node3" class="node">
<title>floor</title>
<ellipse fill="none" stroke="black" cx="166.5" cy="-301.38" rx="49.49" ry="37.45"/>
<text text-anchor="middle" x="166.5" y="-312.68" font-family="Times,serif" font-size="14.00">floor</text>
<text text-anchor="middle" x="166.5" y="-297.68" font-family="Times,serif" font-size="14.00">~</text>
<text text-anchor="middle" x="166.5" y="-282.68" font-family="Times,serif" font-size="14.00">Normal</text>
</g>
<!-- floor&#45;&gt;mu -->
<g id="edge3" class="edge">
<title>floor&#45;&gt;mu</title>
<path fill="none" stroke="black" d="M166.5,-263.73C166.5,-251.07 166.5,-236.92 166.5,-224.32"/>
<polygon fill="black" stroke="black" points="170,-224.18 166.5,-214.18 163,-224.18 170,-224.18"/>
</g>
<!-- floor|county_sigma -->
<g id="node4" class="node">
<title>floor|county_sigma</title>
<ellipse fill="none" stroke="black" cx="694.5" cy="-423.34" rx="106.55" ry="37.45"/>
<text text-anchor="middle" x="694.5" y="-434.64" font-family="Times,serif" font-size="14.00">floor|county_sigma</text>
<text text-anchor="middle" x="694.5" y="-419.64" font-family="Times,serif" font-size="14.00">~</text>
<text text-anchor="middle" x="694.5" y="-404.64" font-family="Times,serif" font-size="14.00">Exponential</text>
</g>
<!-- floor|county -->
<g id="node6" class="node">
<title>floor|county</title>
<polygon fill="none" stroke="black" points="458.5,-327.88 344.5,-327.88 344.5,-274.88 458.5,-274.88 458.5,-327.88"/>
<text text-anchor="middle" x="401.5" y="-312.68" font-family="Times,serif" font-size="14.00">floor|county</text>
<text text-anchor="middle" x="401.5" y="-297.68" font-family="Times,serif" font-size="14.00">~</text>
<text text-anchor="middle" x="401.5" y="-282.68" font-family="Times,serif" font-size="14.00">Deterministic</text>
</g>
<!-- floor|county_sigma&#45;&gt;floor|county -->
<g id="edge2" class="edge">
<title>floor|county_sigma&#45;&gt;floor|county</title>
<path fill="none" stroke="black" d="M643.65,-390.19C623.02,-378.04 598.64,-364.76 575.5,-354.86 541.19,-340.18 501.45,-327.86 468.61,-318.86"/>
<polygon fill="black" stroke="black" points="469.22,-315.4 458.66,-316.17 467.4,-322.16 469.22,-315.4"/>
</g>
<!-- floor|county_offset -->
<g id="node5" class="node">
<title>floor|county_offset</title>
<ellipse fill="none" stroke="black" cx="401.5" cy="-423.34" rx="104.8" ry="37.45"/>
<text text-anchor="middle" x="401.5" y="-434.64" font-family="Times,serif" font-size="14.00">floor|county_offset</text>
<text text-anchor="middle" x="401.5" y="-419.64" font-family="Times,serif" font-size="14.00">~</text>
<text text-anchor="middle" x="401.5" y="-404.64" font-family="Times,serif" font-size="14.00">Normal</text>
</g>
<!-- floor|county_offset&#45;&gt;floor|county -->
<g id="edge1" class="edge">
<title>floor|county_offset&#45;&gt;floor|county</title>
<path fill="none" stroke="black" d="M401.5,-385.69C401.5,-370.73 401.5,-353.46 401.5,-338.54"/>
<polygon fill="black" stroke="black" points="405,-338.16 401.5,-328.16 398,-338.16 405,-338.16"/>
</g>
<!-- floor|county&#45;&gt;mu -->
<g id="edge4" class="edge">
<title>floor|county&#45;&gt;mu</title>
<path fill="none" stroke="black" d="M344.24,-275.65C311.79,-261.36 270.59,-242.72 234.5,-224.91 230.47,-222.92 226.33,-220.83 222.18,-218.69"/>
<polygon fill="black" stroke="black" points="223.59,-215.48 213.1,-213.97 220.36,-221.69 223.59,-215.48"/>
</g>
<!-- mu&#45;&gt;log_radon -->
<g id="edge6" class="edge">
<title>mu&#45;&gt;log_radon</title>
<path fill="none" stroke="black" d="M166.5,-160.89C166.5,-149.98 166.5,-136.89 166.5,-124.35"/>
<polygon fill="black" stroke="black" points="170,-124 166.5,-114 163,-124 170,-124"/>
</g>
</g>
</svg>
