<?xml version="1.0" encoding="UTF-8" standalone="no"?>
<!DOCTYPE svg PUBLIC "-//W3C//DTD SVG 1.1//EN"
 "http://www.w3.org/Graphics/SVG/1.1/DTD/svg11.dtd">
<!-- Generated by graphviz version 2.50.0 (0)
 -->
<!-- Pages: 1 -->
<svg width="628pt" height="474pt"
 viewBox="0.00 0.00 627.52 473.84" xmlns="http://www.w3.org/2000/svg" xmlns:xlink="http://www.w3.org/1999/xlink">
<g id="graph0" class="graph" transform="scale(1 1) rotate(0) translate(4 469.84)">
<polygon fill="white" stroke="transparent" points="-4,4 -4,-469.84 623.52,-469.84 623.52,4 -4,4"/>
<g id="clust1" class="cluster">
<title>clusterYear_dim (2)</title>
<path fill="none" stroke="black" d="M20,-121.95C20,-121.95 96,-121.95 96,-121.95 102,-121.95 108,-127.95 108,-133.95 108,-133.95 108,-223.91 108,-223.91 108,-229.91 102,-235.91 96,-235.91 96,-235.91 20,-235.91 20,-235.91 14,-235.91 8,-229.91 8,-223.91 8,-223.91 8,-133.95 8,-133.95 8,-127.95 14,-121.95 20,-121.95"/>
<text text-anchor="middle" x="63" y="-129.75" font-family="Times,serif" font-size="14.00">Year_dim (2)</text>
</g>
<g id="clust2" class="cluster">
<title>clusterX1:Year_dim (2)</title>
<path fill="none" stroke="black" d="M244,-121.95C244,-121.95 330,-121.95 330,-121.95 336,-121.95 342,-127.95 342,-133.95 342,-133.95 342,-223.91 342,-223.91 342,-229.91 336,-235.91 330,-235.91 330,-235.91 244,-235.91 244,-235.91 238,-235.91 232,-229.91 232,-223.91 232,-223.91 232,-133.95 232,-133.95 232,-127.95 238,-121.95 244,-121.95"/>
<text text-anchor="middle" x="287" y="-129.75" font-family="Times,serif" font-size="14.00">X1:Year_dim (2)</text>
</g>
<g id="clust3" class="cluster">
<title>clustergp_weights_dim (25) x gp_by (2)</title>
<path fill="none" stroke="black" d="M35,-243.91C35,-243.91 212,-243.91 212,-243.91 218,-243.91 224,-249.91 224,-255.91 224,-255.91 224,-445.84 224,-445.84 224,-451.84 218,-457.84 212,-457.84 212,-457.84 35,-457.84 35,-457.84 29,-457.84 23,-451.84 23,-445.84 23,-445.84 23,-255.91 23,-255.91 23,-249.91 29,-243.91 35,-243.91"/>
<text text-anchor="middle" x="123.5" y="-251.71" font-family="Times,serif" font-size="14.00">gp_weights_dim (25) x gp_by (2)</text>
</g>
<g id="clust4" class="cluster">
<title>clusterCount_obs (100)</title>
<path fill="none" stroke="black" d="M128,-8C128,-8 212,-8 212,-8 218,-8 224,-14 224,-20 224,-20 224,-212.93 224,-212.93 224,-218.93 218,-224.93 212,-224.93 212,-224.93 128,-224.93 128,-224.93 122,-224.93 116,-218.93 116,-212.93 116,-212.93 116,-20 116,-20 116,-14 122,-8 128,-8"/>
<text text-anchor="middle" x="170" y="-15.8" font-family="Times,serif" font-size="14.00">Count_obs (100)</text>
</g>
<g id="clust5" class="cluster">
<title>clusterSite__factor_dim (4)</title>
<path fill="none" stroke="black" d="M362,-132.93C362,-132.93 474,-132.93 474,-132.93 480,-132.93 486,-138.93 486,-144.93 486,-144.93 486,-334.88 486,-334.88 486,-340.88 480,-346.88 474,-346.88 474,-346.88 362,-346.88 362,-346.88 356,-346.88 350,-340.88 350,-334.88 350,-334.88 350,-144.93 350,-144.93 350,-138.93 356,-132.93 362,-132.93"/>
<text text-anchor="middle" x="420.5" y="-140.73" font-family="Times,serif" font-size="14.00">Site__factor_dim (4)</text>
</g>
<!-- Year -->
<g id="node1" class="node">
<title>Year</title>
<ellipse fill="none" stroke="black" cx="58" cy="-190.43" rx="41.94" ry="37.45"/>
<text text-anchor="middle" x="58" y="-201.73" font-family="Times,serif" font-size="14.00">Year</text>
<text text-anchor="middle" x="58" y="-186.73" font-family="Times,serif" font-size="14.00">~</text>
<text text-anchor="middle" x="58" y="-171.73" font-family="Times,serif" font-size="14.00">Normal</text>
</g>
<!-- Count -->
<g id="node8" class="node">
<title>Count</title>
<ellipse fill="lightgrey" stroke="black" cx="172" cy="-76.48" rx="41.94" ry="37.45"/>
<text text-anchor="middle" x="172" y="-87.78" font-family="Times,serif" font-size="14.00">Count</text>
<text text-anchor="middle" x="172" y="-72.78" font-family="Times,serif" font-size="14.00">~</text>
<text text-anchor="middle" x="172" y="-57.78" font-family="Times,serif" font-size="14.00">Poisson</text>
</g>
<!-- Year&#45;&gt;Count -->
<g id="edge8" class="edge">
<title>Year&#45;&gt;Count</title>
<path fill="none" stroke="black" d="M80.1,-158.45C89.32,-146.45 100.55,-132.99 112,-121.95 117.78,-116.39 124.27,-110.91 130.79,-105.81"/>
<polygon fill="black" stroke="black" points="133.16,-108.4 139.01,-99.57 128.93,-102.83 133.16,-108.4"/>
</g>
<!-- X1&amp;Year -->
<g id="node2" class="node">
<title>X1&amp;Year</title>
<ellipse fill="none" stroke="black" cx="284" cy="-190.43" rx="43.68" ry="37.45"/>
<text text-anchor="middle" x="284" y="-201.73" font-family="Times,serif" font-size="14.00">X1:Year</text>
<text text-anchor="middle" x="284" y="-186.73" font-family="Times,serif" font-size="14.00">~</text>
<text text-anchor="middle" x="284" y="-171.73" font-family="Times,serif" font-size="14.00">Normal</text>
</g>
<!-- X1&amp;Year&#45;&gt;Count -->
<g id="edge9" class="edge">
<title>X1&amp;Year&#45;&gt;Count</title>
<path fill="none" stroke="black" d="M260.46,-158.37C250.9,-146.49 239.42,-133.13 228,-121.95 222.99,-117.05 217.47,-112.15 211.91,-107.49"/>
<polygon fill="black" stroke="black" points="213.74,-104.46 203.78,-100.85 209.31,-109.89 213.74,-104.46"/>
</g>
<!-- 1|Site_sigma -->
<g id="node3" class="node">
<title>1|Site_sigma</title>
<ellipse fill="none" stroke="black" cx="558" cy="-301.41" rx="61.54" ry="37.45"/>
<text text-anchor="middle" x="558" y="-312.71" font-family="Times,serif" font-size="14.00">1|Site_sigma</text>
<text text-anchor="middle" x="558" y="-297.71" font-family="Times,serif" font-size="14.00">~</text>
<text text-anchor="middle" x="558" y="-282.71" font-family="Times,serif" font-size="14.00">HalfNormal</text>
</g>
<!-- 1|Site -->
<g id="node10" class="node">
<title>1|Site</title>
<polygon fill="none" stroke="black" points="463.5,-216.93 372.5,-216.93 372.5,-163.93 463.5,-163.93 463.5,-216.93"/>
<text text-anchor="middle" x="418" y="-201.73" font-family="Times,serif" font-size="14.00">1|Site</text>
<text text-anchor="middle" x="418" y="-186.73" font-family="Times,serif" font-size="14.00">~</text>
<text text-anchor="middle" x="418" y="-171.73" font-family="Times,serif" font-size="14.00">Deterministic</text>
</g>
<!-- 1|Site_sigma&#45;&gt;1|Site -->
<g id="edge5" class="edge">
<title>1|Site_sigma&#45;&gt;1|Site</title>
<path fill="none" stroke="black" d="M522.7,-270.36C512.28,-261.68 500.78,-252.3 490,-243.91 481.22,-237.07 471.68,-229.93 462.51,-223.19"/>
<polygon fill="black" stroke="black" points="464.36,-220.21 454.22,-217.15 460.24,-225.87 464.36,-220.21"/>
</g>
<!-- gp_ell -->
<g id="node4" class="node">
<title>gp_ell</title>
<ellipse fill="none" stroke="black" cx="288" cy="-412.36" rx="55.72" ry="37.45"/>
<text text-anchor="middle" x="288" y="-423.66" font-family="Times,serif" font-size="14.00">gp_ell</text>
<text text-anchor="middle" x="288" y="-408.66" font-family="Times,serif" font-size="14.00">~</text>
<text text-anchor="middle" x="288" y="-393.66" font-family="Times,serif" font-size="14.00">InvGamma</text>
</g>
<!-- gp_weights -->
<g id="node6" class="node">
<title>gp_weights</title>
<polygon fill="none" stroke="black" points="215.5,-327.91 124.5,-327.91 124.5,-274.91 215.5,-274.91 215.5,-327.91"/>
<text text-anchor="middle" x="170" y="-312.71" font-family="Times,serif" font-size="14.00">gp_weights</text>
<text text-anchor="middle" x="170" y="-297.71" font-family="Times,serif" font-size="14.00">~</text>
<text text-anchor="middle" x="170" y="-282.71" font-family="Times,serif" font-size="14.00">Deterministic</text>
</g>
<!-- gp_ell&#45;&gt;gp_weights -->
<g id="edge2" class="edge">
<title>gp_ell&#45;&gt;gp_weights</title>
<path fill="none" stroke="black" d="M255.76,-381.59C240.16,-367.19 221.39,-349.86 205.4,-335.09"/>
<polygon fill="black" stroke="black" points="207.52,-332.28 197.8,-328.07 202.77,-337.43 207.52,-332.28"/>
</g>
<!-- gp_sigma -->
<g id="node5" class="node">
<title>gp_sigma</title>
<ellipse fill="none" stroke="black" cx="420" cy="-412.36" rx="57.97" ry="37.45"/>
<text text-anchor="middle" x="420" y="-423.66" font-family="Times,serif" font-size="14.00">gp_sigma</text>
<text text-anchor="middle" x="420" y="-408.66" font-family="Times,serif" font-size="14.00">~</text>
<text text-anchor="middle" x="420" y="-393.66" font-family="Times,serif" font-size="14.00">Exponential</text>
</g>
<!-- gp_sigma&#45;&gt;gp_weights -->
<g id="edge3" class="edge">
<title>gp_sigma&#45;&gt;gp_weights</title>
<path fill="none" stroke="black" d="M377.15,-387.03C369.2,-382.81 360.92,-378.59 353,-374.88 310.95,-355.2 261.99,-336 225.3,-322.31"/>
<polygon fill="black" stroke="black" points="226.37,-318.97 215.77,-318.77 223.93,-325.53 226.37,-318.97"/>
</g>
<!-- gp -->
<g id="node9" class="node">
<title>gp</title>
<polygon fill="none" stroke="black" points="215.5,-216.93 124.5,-216.93 124.5,-163.93 215.5,-163.93 215.5,-216.93"/>
<text text-anchor="middle" x="170" y="-201.73" font-family="Times,serif" font-size="14.00">gp</text>
<text text-anchor="middle" x="170" y="-186.73" font-family="Times,serif" font-size="14.00">~</text>
<text text-anchor="middle" x="170" y="-171.73" font-family="Times,serif" font-size="14.00">Deterministic</text>
</g>
<!-- gp_weights&#45;&gt;gp -->
<g id="edge4" class="edge">
<title>gp_weights&#45;&gt;gp</title>
<path fill="none" stroke="black" d="M170,-274.86C170,-260.75 170,-243 170,-227.5"/>
<polygon fill="black" stroke="black" points="173.5,-227.2 170,-217.2 166.5,-227.2 173.5,-227.2"/>
</g>
<!-- gp_weights_raw -->
<g id="node7" class="node">
<title>gp_weights_raw</title>
<ellipse fill="none" stroke="black" cx="139" cy="-412.36" rx="74.91" ry="37.45"/>
<text text-anchor="middle" x="139" y="-423.66" font-family="Times,serif" font-size="14.00">gp_weights_raw</text>
<text text-anchor="middle" x="139" y="-408.66" font-family="Times,serif" font-size="14.00">~</text>
<text text-anchor="middle" x="139" y="-393.66" font-family="Times,serif" font-size="14.00">Normal</text>
</g>
<!-- gp_weights_raw&#45;&gt;gp_weights -->
<g id="edge1" class="edge">
<title>gp_weights_raw&#45;&gt;gp_weights</title>
<path fill="none" stroke="black" d="M149.32,-375.08C152.74,-363.09 156.53,-349.76 159.92,-337.83"/>
<polygon fill="black" stroke="black" points="163.29,-338.78 162.66,-328.2 156.56,-336.86 163.29,-338.78"/>
</g>
<!-- gp&#45;&gt;Count -->
<g id="edge7" class="edge">
<title>gp&#45;&gt;Count</title>
<path fill="none" stroke="black" d="M170.46,-163.75C170.67,-152.02 170.92,-137.75 171.16,-124.22"/>
<polygon fill="black" stroke="black" points="174.67,-124.13 171.35,-114.07 167.67,-124.01 174.67,-124.13"/>
</g>
<!-- 1|Site&#45;&gt;Count -->
<g id="edge10" class="edge">
<title>1|Site&#45;&gt;Count</title>
<path fill="none" stroke="black" d="M396.42,-163.6C383.23,-149.37 365.23,-132.5 346,-121.95 307.93,-101.08 259.79,-89.75 223.8,-83.76"/>
<polygon fill="black" stroke="black" points="223.95,-80.24 213.52,-82.14 222.86,-87.16 223.95,-80.24"/>
</g>
<!-- 1|Site_offset -->
<g id="node11" class="node">
<title>1|Site_offset</title>
<ellipse fill="none" stroke="black" cx="418" cy="-301.41" rx="60.21" ry="37.45"/>
<text text-anchor="middle" x="418" y="-312.71" font-family="Times,serif" font-size="14.00">1|Site_offset</text>
<text text-anchor="middle" x="418" y="-297.71" font-family="Times,serif" font-size="14.00">~</text>
<text text-anchor="middle" x="418" y="-282.71" font-family="Times,serif" font-size="14.00">Normal</text>
</g>
<!-- 1|Site_offset&#45;&gt;1|Site -->
<g id="edge6" class="edge">
<title>1|Site_offset&#45;&gt;1|Site</title>
<path fill="none" stroke="black" d="M418,-263.82C418,-252.08 418,-239.09 418,-227.39"/>
<polygon fill="black" stroke="black" points="421.5,-227.09 418,-217.09 414.5,-227.09 421.5,-227.09"/>
</g>
</g>
</svg>
