<?xml version="1.0" encoding="UTF-8" standalone="no"?>
<!DOCTYPE svg PUBLIC "-//W3C//DTD SVG 1.1//EN"
 "http://www.w3.org/Graphics/SVG/1.1/DTD/svg11.dtd">
<!-- Generated by graphviz version 2.50.0 (0)
 -->
<!-- Pages: 1 -->
<svg width="484pt" height="452pt"
 viewBox="0.00 0.00 483.84 451.86" xmlns="http://www.w3.org/2000/svg" xmlns:xlink="http://www.w3.org/1999/xlink">
<g id="graph0" class="graph" transform="scale(1 1) rotate(0) translate(4 447.86)">
<polygon fill="white" stroke="transparent" points="-4,4 -4,-447.86 479.84,-447.86 479.84,4 -4,4"/>
<g id="clust1" class="cluster">
<title>clusterhsgp_weights_dim (100) x hsgp_by (3)</title>
<path fill="none" stroke="black" d="M135.98,-232.91C135.98,-232.91 343.98,-232.91 343.98,-232.91 349.98,-232.91 355.98,-238.91 355.98,-244.91 355.98,-244.91 355.98,-423.86 355.98,-423.86 355.98,-429.86 349.98,-435.86 343.98,-435.86 343.98,-435.86 135.98,-435.86 135.98,-435.86 129.98,-435.86 123.98,-429.86 123.98,-423.86 123.98,-423.86 123.98,-244.91 123.98,-244.91 123.98,-238.91 129.98,-232.91 135.98,-232.91"/>
<text text-anchor="middle" x="239.98" y="-240.71" font-family="Times,serif" font-size="14.00">hsgp_weights_dim (100) x hsgp_by (3)</text>
</g>
<g id="clust2" class="cluster">
<title>clusteroutcome_obs (432)</title>
<path fill="none" stroke="black" d="M184.98,-8C184.98,-8 282.98,-8 282.98,-8 288.98,-8 294.98,-14 294.98,-20 294.98,-20 294.98,-209.93 294.98,-209.93 294.98,-215.93 288.98,-221.93 282.98,-221.93 282.98,-221.93 184.98,-221.93 184.98,-221.93 178.98,-221.93 172.98,-215.93 172.98,-209.93 172.98,-209.93 172.98,-20 172.98,-20 172.98,-14 178.98,-8 184.98,-8"/>
<text text-anchor="middle" x="233.98" y="-15.8" font-family="Times,serif" font-size="14.00">outcome_obs (432)</text>
</g>
<!-- hsgp_sigma -->
<g id="node1" class="node">
<title>hsgp_sigma</title>
<ellipse fill="none" stroke="black" cx="57.98" cy="-390.38" rx="57.97" ry="37.45"/>
<text text-anchor="middle" x="57.98" y="-401.68" font-family="Times,serif" font-size="14.00">hsgp_sigma</text>
<text text-anchor="middle" x="57.98" y="-386.68" font-family="Times,serif" font-size="14.00">~</text>
<text text-anchor="middle" x="57.98" y="-371.68" font-family="Times,serif" font-size="14.00">Exponential</text>
</g>
<!-- hsgp_weights -->
<g id="node4" class="node">
<title>hsgp_weights</title>
<polygon fill="none" stroke="black" points="285.48,-316.91 194.48,-316.91 194.48,-263.91 285.48,-263.91 285.48,-316.91"/>
<text text-anchor="middle" x="239.98" y="-301.71" font-family="Times,serif" font-size="14.00">hsgp_weights</text>
<text text-anchor="middle" x="239.98" y="-286.71" font-family="Times,serif" font-size="14.00">~</text>
<text text-anchor="middle" x="239.98" y="-271.71" font-family="Times,serif" font-size="14.00">Deterministic</text>
</g>
<!-- hsgp_sigma&#45;&gt;hsgp_weights -->
<g id="edge1" class="edge">
<title>hsgp_sigma&#45;&gt;hsgp_weights</title>
<path fill="none" stroke="black" d="M99.82,-364.33C106.52,-360.44 113.42,-356.52 119.98,-352.91 141.16,-341.26 164.77,-329.01 185.4,-318.53"/>
<polygon fill="black" stroke="black" points="187.01,-321.64 194.35,-314.01 183.85,-315.4 187.01,-321.64"/>
</g>
<!-- hsgp_ell -->
<g id="node2" class="node">
<title>hsgp_ell</title>
<ellipse fill="none" stroke="black" cx="419.98" cy="-390.38" rx="55.72" ry="37.45"/>
<text text-anchor="middle" x="419.98" y="-401.68" font-family="Times,serif" font-size="14.00">hsgp_ell</text>
<text text-anchor="middle" x="419.98" y="-386.68" font-family="Times,serif" font-size="14.00">~</text>
<text text-anchor="middle" x="419.98" y="-371.68" font-family="Times,serif" font-size="14.00">InvGamma</text>
</g>
<!-- hsgp_ell&#45;&gt;hsgp_weights -->
<g id="edge3" class="edge">
<title>hsgp_ell&#45;&gt;hsgp_weights</title>
<path fill="none" stroke="black" d="M379.55,-364.26C373.05,-360.38 366.37,-356.48 359.98,-352.91 338.89,-341.11 315.3,-328.83 294.65,-318.37"/>
<polygon fill="black" stroke="black" points="296.2,-315.23 285.7,-313.85 293.05,-321.48 296.2,-315.23"/>
</g>
<!-- outcome_sigma -->
<g id="node3" class="node">
<title>outcome_sigma</title>
<ellipse fill="none" stroke="black" cx="376.98" cy="-187.43" rx="73.58" ry="37.45"/>
<text text-anchor="middle" x="376.98" y="-198.73" font-family="Times,serif" font-size="14.00">outcome_sigma</text>
<text text-anchor="middle" x="376.98" y="-183.73" font-family="Times,serif" font-size="14.00">~</text>
<text text-anchor="middle" x="376.98" y="-168.73" font-family="Times,serif" font-size="14.00">HalfNormal</text>
</g>
<!-- outcome -->
<g id="node6" class="node">
<title>outcome</title>
<ellipse fill="lightgrey" stroke="black" cx="240.98" cy="-76.48" rx="45.01" ry="37.45"/>
<text text-anchor="middle" x="240.98" y="-87.78" font-family="Times,serif" font-size="14.00">outcome</text>
<text text-anchor="middle" x="240.98" y="-72.78" font-family="Times,serif" font-size="14.00">~</text>
<text text-anchor="middle" x="240.98" y="-57.78" font-family="Times,serif" font-size="14.00">Normal</text>
</g>
<!-- outcome_sigma&#45;&gt;outcome -->
<g id="edge5" class="edge">
<title>outcome_sigma&#45;&gt;outcome</title>
<path fill="none" stroke="black" d="M338.37,-155.5C320.53,-141.21 299.35,-124.23 281.3,-109.77"/>
<polygon fill="black" stroke="black" points="283.24,-106.85 273.25,-103.33 278.87,-112.31 283.24,-106.85"/>
</g>
<!-- hsgp -->
<g id="node7" class="node">
<title>hsgp</title>
<polygon fill="none" stroke="black" points="285.48,-213.93 194.48,-213.93 194.48,-160.93 285.48,-160.93 285.48,-213.93"/>
<text text-anchor="middle" x="239.98" y="-198.73" font-family="Times,serif" font-size="14.00">hsgp</text>
<text text-anchor="middle" x="239.98" y="-183.73" font-family="Times,serif" font-size="14.00">~</text>
<text text-anchor="middle" x="239.98" y="-168.73" font-family="Times,serif" font-size="14.00">Deterministic</text>
</g>
<!-- hsgp_weights&#45;&gt;hsgp -->
<g id="edge4" class="edge">
<title>hsgp_weights&#45;&gt;hsgp</title>
<path fill="none" stroke="black" d="M239.98,-263.66C239.98,-251.68 239.98,-237.22 239.98,-224.19"/>
<polygon fill="black" stroke="black" points="243.48,-224.12 239.98,-214.12 236.48,-224.12 243.48,-224.12"/>
</g>
<!-- hsgp_weights_raw -->
<g id="node5" class="node">
<title>hsgp_weights_raw</title>
<ellipse fill="none" stroke="black" cx="239.98" cy="-390.38" rx="83.38" ry="37.45"/>
<text text-anchor="middle" x="239.98" y="-401.68" font-family="Times,serif" font-size="14.00">hsgp_weights_raw</text>
<text text-anchor="middle" x="239.98" y="-386.68" font-family="Times,serif" font-size="14.00">~</text>
<text text-anchor="middle" x="239.98" y="-371.68" font-family="Times,serif" font-size="14.00">Normal</text>
</g>
<!-- hsgp_weights_raw&#45;&gt;hsgp_weights -->
<g id="edge2" class="edge">
<title>hsgp_weights_raw&#45;&gt;hsgp_weights</title>
<path fill="none" stroke="black" d="M239.98,-352.9C239.98,-344.48 239.98,-335.54 239.98,-327.16"/>
<polygon fill="black" stroke="black" points="243.48,-326.92 239.98,-316.92 236.48,-326.92 243.48,-326.92"/>
</g>
<!-- hsgp&#45;&gt;outcome -->
<g id="edge6" class="edge">
<title>hsgp&#45;&gt;outcome</title>
<path fill="none" stroke="black" d="M240.22,-160.89C240.32,-149.98 240.44,-136.89 240.55,-124.35"/>
<polygon fill="black" stroke="black" points="244.06,-124.03 240.65,-114 237.06,-123.97 244.06,-124.03"/>
</g>
</g>
</svg>
