<?xml version="1.0" encoding="UTF-8" standalone="no"?>
<!DOCTYPE svg PUBLIC "-//W3C//DTD SVG 1.1//EN"
 "http://www.w3.org/Graphics/SVG/1.1/DTD/svg11.dtd">
<!-- Generated by graphviz version 2.50.0 (0)
 -->
<!-- Pages: 1 -->
<svg width="336pt" height="233pt"
 viewBox="0.00 0.00 335.70 232.91" xmlns="http://www.w3.org/2000/svg" xmlns:xlink="http://www.w3.org/1999/xlink">
<g id="graph0" class="graph" transform="scale(1 1) rotate(0) translate(4 228.91)">
<polygon fill="white" stroke="transparent" points="-4,4 -4,-228.91 331.7,-228.91 331.7,4 -4,4"/>
<g id="clust1" class="cluster">
<title>cluster200</title>
<path fill="none" stroke="black" d="M140.98,-8C140.98,-8 218.98,-8 218.98,-8 224.98,-8 230.98,-14 230.98,-20 230.98,-20 230.98,-109.95 230.98,-109.95 230.98,-115.95 224.98,-121.95 218.98,-121.95 218.98,-121.95 140.98,-121.95 140.98,-121.95 134.98,-121.95 128.98,-115.95 128.98,-109.95 128.98,-109.95 128.98,-20 128.98,-20 128.98,-14 134.98,-8 140.98,-8"/>
<text text-anchor="middle" x="212.48" y="-15.8" font-family="Times,serif" font-size="14.00">200</text>
</g>
<!-- y_alpha -->
<g id="node1" class="node">
<title>y_alpha</title>
<ellipse fill="none" stroke="black" cx="57.98" cy="-187.43" rx="57.97" ry="37.45"/>
<text text-anchor="middle" x="57.98" y="-198.73" font-family="Times,serif" font-size="14.00">y_alpha</text>
<text text-anchor="middle" x="57.98" y="-183.73" font-family="Times,serif" font-size="14.00">~</text>
<text text-anchor="middle" x="57.98" y="-168.73" font-family="Times,serif" font-size="14.00">HalfCauchy</text>
</g>
<!-- y -->
<g id="node4" class="node">
<title>y</title>
<ellipse fill="lightgrey" stroke="black" cx="179.98" cy="-76.48" rx="43.27" ry="37.45"/>
<text text-anchor="middle" x="179.98" y="-87.78" font-family="Times,serif" font-size="14.00">y</text>
<text text-anchor="middle" x="179.98" y="-72.78" font-family="Times,serif" font-size="14.00">~</text>
<text text-anchor="middle" x="179.98" y="-57.78" font-family="Times,serif" font-size="14.00">Gamma</text>
</g>
<!-- y_alpha&#45;&gt;y -->
<g id="edge1" class="edge">
<title>y_alpha&#45;&gt;y</title>
<path fill="none" stroke="black" d="M91.32,-156.66C107.2,-142.47 126.26,-125.45 142.64,-110.83"/>
<polygon fill="black" stroke="black" points="145.3,-113.14 150.43,-103.87 140.64,-107.92 145.3,-113.14"/>
</g>
<!-- Intercept -->
<g id="node2" class="node">
<title>Intercept</title>
<ellipse fill="none" stroke="black" cx="179.98" cy="-187.43" rx="45.92" ry="37.45"/>
<text text-anchor="middle" x="179.98" y="-198.73" font-family="Times,serif" font-size="14.00">Intercept</text>
<text text-anchor="middle" x="179.98" y="-183.73" font-family="Times,serif" font-size="14.00">~</text>
<text text-anchor="middle" x="179.98" y="-168.73" font-family="Times,serif" font-size="14.00">Normal</text>
</g>
<!-- Intercept&#45;&gt;y -->
<g id="edge2" class="edge">
<title>Intercept&#45;&gt;y</title>
<path fill="none" stroke="black" d="M179.98,-149.85C179.98,-141.67 179.98,-132.89 179.98,-124.37"/>
<polygon fill="black" stroke="black" points="183.48,-124.15 179.98,-114.15 176.48,-124.15 183.48,-124.15"/>
</g>
<!-- x -->
<g id="node3" class="node">
<title>x</title>
<ellipse fill="none" stroke="black" cx="285.98" cy="-187.43" rx="41.94" ry="37.45"/>
<text text-anchor="middle" x="285.98" y="-198.73" font-family="Times,serif" font-size="14.00">x</text>
<text text-anchor="middle" x="285.98" y="-183.73" font-family="Times,serif" font-size="14.00">~</text>
<text text-anchor="middle" x="285.98" y="-168.73" font-family="Times,serif" font-size="14.00">Normal</text>
</g>
<!-- x&#45;&gt;y -->
<g id="edge3" class="edge">
<title>x&#45;&gt;y</title>
<path fill="none" stroke="black" d="M258.96,-158.65C245.48,-144.8 229.03,-127.89 214.64,-113.1"/>
<polygon fill="black" stroke="black" points="216.81,-110.31 207.32,-105.58 211.79,-115.19 216.81,-110.31"/>
</g>
</g>
</svg>
