<?xml version="1.0" encoding="UTF-8" standalone="no"?>
<!DOCTYPE svg PUBLIC "-//W3C//DTD SVG 1.1//EN"
 "http://www.w3.org/Graphics/SVG/1.1/DTD/svg11.dtd">
<!-- Generated by graphviz version 2.50.0 (0)
 -->
<!-- Pages: 1 -->
<svg width="371pt" height="344pt"
 viewBox="0.00 0.00 371.44 343.86" xmlns="http://www.w3.org/2000/svg" xmlns:xlink="http://www.w3.org/1999/xlink">
<g id="graph0" class="graph" transform="scale(1 1) rotate(0) translate(4 339.86)">
<polygon fill="white" stroke="transparent" points="-4,4 -4,-339.86 367.44,-339.86 367.44,4 -4,4"/>
<g id="clust1" class="cluster">
<title>clustery_obs (200)</title>
<path fill="none" stroke="black" d="M64.72,-8C64.72,-8 148.72,-8 148.72,-8 154.72,-8 160.72,-14 160.72,-20 160.72,-20 160.72,-209.93 160.72,-209.93 160.72,-215.93 154.72,-221.93 148.72,-221.93 148.72,-221.93 64.72,-221.93 64.72,-221.93 58.72,-221.93 52.72,-215.93 52.72,-209.93 52.72,-209.93 52.72,-20 52.72,-20 52.72,-14 58.72,-8 64.72,-8"/>
<text text-anchor="middle" x="119.72" y="-15.8" font-family="Times,serif" font-size="14.00">y_obs (200)</text>
</g>
<!-- alpha_x -->
<g id="node1" class="node">
<title>alpha_x</title>
<ellipse fill="none" stroke="black" cx="41.72" cy="-298.38" rx="41.94" ry="37.45"/>
<text text-anchor="middle" x="41.72" y="-309.68" font-family="Times,serif" font-size="14.00">alpha_x</text>
<text text-anchor="middle" x="41.72" y="-294.68" font-family="Times,serif" font-size="14.00">~</text>
<text text-anchor="middle" x="41.72" y="-279.68" font-family="Times,serif" font-size="14.00">Normal</text>
</g>
<!-- alpha -->
<g id="node5" class="node">
<title>alpha</title>
<polygon fill="none" stroke="black" points="152.22,-213.93 61.22,-213.93 61.22,-160.93 152.22,-160.93 152.22,-213.93"/>
<text text-anchor="middle" x="106.72" y="-198.73" font-family="Times,serif" font-size="14.00">alpha</text>
<text text-anchor="middle" x="106.72" y="-183.73" font-family="Times,serif" font-size="14.00">~</text>
<text text-anchor="middle" x="106.72" y="-168.73" font-family="Times,serif" font-size="14.00">Deterministic</text>
</g>
<!-- alpha_x&#45;&gt;alpha -->
<g id="edge1" class="edge">
<title>alpha_x&#45;&gt;alpha</title>
<path fill="none" stroke="black" d="M61.05,-264.99C68.95,-251.74 78.11,-236.39 86.14,-222.93"/>
<polygon fill="black" stroke="black" points="89.37,-224.34 91.49,-213.96 83.36,-220.75 89.37,-224.34"/>
</g>
<!-- Intercept -->
<g id="node2" class="node">
<title>Intercept</title>
<ellipse fill="none" stroke="black" cx="215.72" cy="-187.43" rx="45.92" ry="37.45"/>
<text text-anchor="middle" x="215.72" y="-198.73" font-family="Times,serif" font-size="14.00">Intercept</text>
<text text-anchor="middle" x="215.72" y="-183.73" font-family="Times,serif" font-size="14.00">~</text>
<text text-anchor="middle" x="215.72" y="-168.73" font-family="Times,serif" font-size="14.00">Normal</text>
</g>
<!-- y -->
<g id="node6" class="node">
<title>y</title>
<ellipse fill="lightgrey" stroke="black" cx="109.72" cy="-76.48" rx="43.27" ry="37.45"/>
<text text-anchor="middle" x="109.72" y="-87.78" font-family="Times,serif" font-size="14.00">y</text>
<text text-anchor="middle" x="109.72" y="-72.78" font-family="Times,serif" font-size="14.00">~</text>
<text text-anchor="middle" x="109.72" y="-57.78" font-family="Times,serif" font-size="14.00">Gamma</text>
</g>
<!-- Intercept&#45;&gt;y -->
<g id="edge4" class="edge">
<title>Intercept&#45;&gt;y</title>
<path fill="none" stroke="black" d="M187.59,-157.52C174.33,-143.88 158.37,-127.48 144.37,-113.09"/>
<polygon fill="black" stroke="black" points="146.73,-110.5 137.24,-105.77 141.71,-115.38 146.73,-110.5"/>
</g>
<!-- x -->
<g id="node3" class="node">
<title>x</title>
<ellipse fill="none" stroke="black" cx="321.72" cy="-187.43" rx="41.94" ry="37.45"/>
<text text-anchor="middle" x="321.72" y="-198.73" font-family="Times,serif" font-size="14.00">x</text>
<text text-anchor="middle" x="321.72" y="-183.73" font-family="Times,serif" font-size="14.00">~</text>
<text text-anchor="middle" x="321.72" y="-168.73" font-family="Times,serif" font-size="14.00">Normal</text>
</g>
<!-- x&#45;&gt;y -->
<g id="edge5" class="edge">
<title>x&#45;&gt;y</title>
<path fill="none" stroke="black" d="M290.26,-162.47C283.94,-158.07 277.23,-153.7 270.72,-149.95 234.32,-129.02 190.78,-109.74 158.16,-96.33"/>
<polygon fill="black" stroke="black" points="159.42,-93.07 148.84,-92.54 156.78,-99.55 159.42,-93.07"/>
</g>
<!-- alpha_Intercept -->
<g id="node4" class="node">
<title>alpha_Intercept</title>
<ellipse fill="none" stroke="black" cx="172.72" cy="-298.38" rx="71.34" ry="37.45"/>
<text text-anchor="middle" x="172.72" y="-309.68" font-family="Times,serif" font-size="14.00">alpha_Intercept</text>
<text text-anchor="middle" x="172.72" y="-294.68" font-family="Times,serif" font-size="14.00">~</text>
<text text-anchor="middle" x="172.72" y="-279.68" font-family="Times,serif" font-size="14.00">Normal</text>
</g>
<!-- alpha_Intercept&#45;&gt;alpha -->
<g id="edge2" class="edge">
<title>alpha_Intercept&#45;&gt;alpha</title>
<path fill="none" stroke="black" d="M151.47,-262.31C143.83,-249.7 135.22,-235.48 127.61,-222.92"/>
<polygon fill="black" stroke="black" points="130.45,-220.85 122.27,-214.11 124.46,-224.47 130.45,-220.85"/>
</g>
<!-- alpha&#45;&gt;y -->
<g id="edge3" class="edge">
<title>alpha&#45;&gt;y</title>
<path fill="none" stroke="black" d="M107.42,-160.89C107.72,-149.98 108.08,-136.89 108.43,-124.35"/>
<polygon fill="black" stroke="black" points="111.94,-124.09 108.71,-114 104.94,-123.9 111.94,-124.09"/>
</g>
</g>
</svg>
