<?xml version="1.0" encoding="UTF-8" standalone="no"?>
<!DOCTYPE svg PUBLIC "-//W3C//DTD SVG 1.1//EN"
 "http://www.w3.org/Graphics/SVG/1.1/DTD/svg11.dtd">
<!-- Generated by graphviz version 2.50.0 (0)
 -->
<!-- Pages: 1 -->
<svg width="372pt" height="344pt"
 viewBox="0.00 0.00 371.68 343.88" xmlns="http://www.w3.org/2000/svg" xmlns:xlink="http://www.w3.org/1999/xlink">
<g id="graph0" class="graph" transform="scale(1 1) rotate(0) translate(4 339.88)">
<polygon fill="white" stroke="transparent" points="-4,4 -4,-339.88 367.68,-339.88 367.68,4 -4,4"/>
<g id="clust1" class="cluster">
<title>clustery_obs (200)</title>
<path fill="none" stroke="black" d="M214.96,-129.95C214.96,-129.95 298.96,-129.95 298.96,-129.95 304.96,-129.95 310.96,-135.95 310.96,-141.95 310.96,-141.95 310.96,-209.95 310.96,-209.95 310.96,-215.95 304.96,-221.95 298.96,-221.95 298.96,-221.95 214.96,-221.95 214.96,-221.95 208.96,-221.95 202.96,-215.95 202.96,-209.95 202.96,-209.95 202.96,-141.95 202.96,-141.95 202.96,-135.95 208.96,-129.95 214.96,-129.95"/>
<text text-anchor="middle" x="269.96" y="-137.75" font-family="Times,serif" font-size="14.00">y_obs (200)</text>
</g>
<g id="clust2" class="cluster">
<title>cluster200</title>
<path fill="none" stroke="black" d="M112.96,-8C112.96,-8 190.96,-8 190.96,-8 196.96,-8 202.96,-14 202.96,-20 202.96,-20 202.96,-109.95 202.96,-109.95 202.96,-115.95 196.96,-121.95 190.96,-121.95 190.96,-121.95 112.96,-121.95 112.96,-121.95 106.96,-121.95 100.96,-115.95 100.96,-109.95 100.96,-109.95 100.96,-20 100.96,-20 100.96,-14 106.96,-8 112.96,-8"/>
<text text-anchor="middle" x="184.46" y="-15.8" font-family="Times,serif" font-size="14.00">200</text>
</g>
<!-- Intercept -->
<g id="node1" class="node">
<title>Intercept</title>
<ellipse fill="none" stroke="black" cx="45.96" cy="-187.45" rx="45.92" ry="37.45"/>
<text text-anchor="middle" x="45.96" y="-198.75" font-family="Times,serif" font-size="14.00">Intercept</text>
<text text-anchor="middle" x="45.96" y="-183.75" font-family="Times,serif" font-size="14.00">~</text>
<text text-anchor="middle" x="45.96" y="-168.75" font-family="Times,serif" font-size="14.00">Normal</text>
</g>
<!-- y -->
<g id="node6" class="node">
<title>y</title>
<ellipse fill="lightgrey" stroke="black" cx="151.96" cy="-76.48" rx="43.27" ry="37.45"/>
<text text-anchor="middle" x="151.96" y="-87.78" font-family="Times,serif" font-size="14.00">y</text>
<text text-anchor="middle" x="151.96" y="-72.78" font-family="Times,serif" font-size="14.00">~</text>
<text text-anchor="middle" x="151.96" y="-57.78" font-family="Times,serif" font-size="14.00">Gamma</text>
</g>
<!-- Intercept&#45;&gt;y -->
<g id="edge4" class="edge">
<title>Intercept&#45;&gt;y</title>
<path fill="none" stroke="black" d="M74.09,-157.54C87.36,-143.9 103.31,-127.49 117.32,-113.1"/>
<polygon fill="black" stroke="black" points="119.97,-115.38 124.44,-105.77 114.96,-110.5 119.97,-115.38"/>
</g>
<!-- alpha_Intercept -->
<g id="node2" class="node">
<title>alpha_Intercept</title>
<ellipse fill="none" stroke="black" cx="190.96" cy="-298.41" rx="71.34" ry="37.45"/>
<text text-anchor="middle" x="190.96" y="-309.71" font-family="Times,serif" font-size="14.00">alpha_Intercept</text>
<text text-anchor="middle" x="190.96" y="-294.71" font-family="Times,serif" font-size="14.00">~</text>
<text text-anchor="middle" x="190.96" y="-279.71" font-family="Times,serif" font-size="14.00">Normal</text>
</g>
<!-- y_alpha -->
<g id="node5" class="node">
<title>y_alpha</title>
<polygon fill="none" stroke="black" points="302.46,-213.95 211.46,-213.95 211.46,-160.95 302.46,-160.95 302.46,-213.95"/>
<text text-anchor="middle" x="256.96" y="-198.75" font-family="Times,serif" font-size="14.00">y_alpha</text>
<text text-anchor="middle" x="256.96" y="-183.75" font-family="Times,serif" font-size="14.00">~</text>
<text text-anchor="middle" x="256.96" y="-168.75" font-family="Times,serif" font-size="14.00">Deterministic</text>
</g>
<!-- alpha_Intercept&#45;&gt;y_alpha -->
<g id="edge1" class="edge">
<title>alpha_Intercept&#45;&gt;y_alpha</title>
<path fill="none" stroke="black" d="M212.21,-262.33C219.85,-249.72 228.46,-235.51 236.07,-222.94"/>
<polygon fill="black" stroke="black" points="239.22,-224.5 241.41,-214.13 233.23,-220.87 239.22,-224.5"/>
</g>
<!-- x -->
<g id="node3" class="node">
<title>x</title>
<ellipse fill="none" stroke="black" cx="151.96" cy="-187.45" rx="41.94" ry="37.45"/>
<text text-anchor="middle" x="151.96" y="-198.75" font-family="Times,serif" font-size="14.00">x</text>
<text text-anchor="middle" x="151.96" y="-183.75" font-family="Times,serif" font-size="14.00">~</text>
<text text-anchor="middle" x="151.96" y="-168.75" font-family="Times,serif" font-size="14.00">Normal</text>
</g>
<!-- x&#45;&gt;y -->
<g id="edge5" class="edge">
<title>x&#45;&gt;y</title>
<path fill="none" stroke="black" d="M151.96,-149.86C151.96,-141.69 151.96,-132.9 151.96,-124.38"/>
<polygon fill="black" stroke="black" points="155.46,-124.16 151.96,-114.16 148.46,-124.16 155.46,-124.16"/>
</g>
<!-- alpha_x -->
<g id="node4" class="node">
<title>alpha_x</title>
<ellipse fill="none" stroke="black" cx="321.96" cy="-298.41" rx="41.94" ry="37.45"/>
<text text-anchor="middle" x="321.96" y="-309.71" font-family="Times,serif" font-size="14.00">alpha_x</text>
<text text-anchor="middle" x="321.96" y="-294.71" font-family="Times,serif" font-size="14.00">~</text>
<text text-anchor="middle" x="321.96" y="-279.71" font-family="Times,serif" font-size="14.00">Normal</text>
</g>
<!-- alpha_x&#45;&gt;y_alpha -->
<g id="edge2" class="edge">
<title>alpha_x&#45;&gt;y_alpha</title>
<path fill="none" stroke="black" d="M302.64,-265.01C294.73,-251.76 285.57,-236.41 277.54,-222.95"/>
<polygon fill="black" stroke="black" points="280.32,-220.78 272.19,-213.98 274.31,-224.36 280.32,-220.78"/>
</g>
<!-- y_alpha&#45;&gt;y -->
<g id="edge3" class="edge">
<title>y_alpha&#45;&gt;y</title>
<path fill="none" stroke="black" d="M232.54,-160.82C223.3,-151.13 212.66,-140.02 202.96,-129.95 197.75,-124.54 192.22,-118.84 186.81,-113.25"/>
<polygon fill="black" stroke="black" points="189.01,-110.49 179.53,-105.76 183.99,-115.37 189.01,-110.49"/>
</g>
</g>
</svg>
