<?xml version="1.0" encoding="UTF-8" standalone="no"?>
<!DOCTYPE svg PUBLIC "-//W3C//DTD SVG 1.1//EN"
 "http://www.w3.org/Graphics/SVG/1.1/DTD/svg11.dtd">
<!-- Generated by graphviz version 13.1.2 (20250809.0930)
 -->
<!-- Pages: 1 -->
<svg width="510pt" height="584pt"
 viewBox="0.00 0.00 510.00 584.00" xmlns="http://www.w3.org/2000/svg" xmlns:xlink="http://www.w3.org/1999/xlink">
<g id="graph0" class="graph" transform="scale(1 1) rotate(0) translate(4 580.45)">
<polygon fill="white" stroke="none" points="-4,4 -4,-580.45 506,-580.45 506,4 -4,4"/>
<g id="clust1" class="cluster">
<title>clusterhsgp_var (2)</title>
<path fill="none" stroke="black" d="M384,-446.63C384,-446.63 482,-446.63 482,-446.63 488,-446.63 494,-452.63 494,-458.63 494,-458.63 494,-556.45 494,-556.45 494,-562.45 488,-568.45 482,-568.45 482,-568.45 384,-568.45 384,-568.45 378,-568.45 372,-562.45 372,-556.45 372,-556.45 372,-458.63 372,-458.63 372,-452.63 378,-446.63 384,-446.63"/>
<text xml:space="preserve" text-anchor="middle" x="451.5" y="-453.83" font-family="Times,serif" font-size="14.00">hsgp_var (2)</text>
</g>
<g id="clust2" class="cluster">
<title>clusterhsgp_weights_dim (100) x hsgp_by (3)</title>
<path fill="none" stroke="black" d="M20,-348.63C20,-348.63 227,-348.63 227,-348.63 233,-348.63 239,-354.63 239,-360.63 239,-360.63 239,-556.45 239,-556.45 239,-562.45 233,-568.45 227,-568.45 227,-568.45 20,-568.45 20,-568.45 14,-568.45 8,-562.45 8,-556.45 8,-556.45 8,-360.63 8,-360.63 8,-354.63 14,-348.63 20,-348.63"/>
<text xml:space="preserve" text-anchor="middle" x="123.38" y="-355.83" font-family="Times,serif" font-size="14.00">hsgp_weights_dim (100) x hsgp_by (3)</text>
</g>
<g id="clust3" class="cluster">
<title>cluster__obs__ (432)</title>
<path fill="none" stroke="black" d="M145,-8C145,-8 227,-8 227,-8 233,-8 239,-14 239,-20 239,-20 239,-328.63 239,-328.63 239,-334.63 233,-340.63 227,-340.63 227,-340.63 145,-340.63 145,-340.63 139,-340.63 133,-334.63 133,-328.63 133,-328.63 133,-20 133,-20 133,-14 139,-8 145,-8"/>
<text xml:space="preserve" text-anchor="middle" x="191.62" y="-15.2" font-family="Times,serif" font-size="14.00">__obs__ (432)</text>
</g>
<!-- sigma -->
<g id="node1" class="node">
<title>sigma</title>
<ellipse fill="none" stroke="black" cx="67" cy="-198.48" rx="55.86" ry="40.66"/>
<text xml:space="preserve" text-anchor="middle" x="67" y="-209.93" font-family="Times,serif" font-size="14.00">sigma</text>
<text xml:space="preserve" text-anchor="middle" x="67" y="-193.43" font-family="Times,serif" font-size="14.00">~</text>
<text xml:space="preserve" text-anchor="middle" x="67" y="-176.93" font-family="Times,serif" font-size="14.00">Halfnormal</text>
</g>
<!-- outcome -->
<g id="node6" class="node">
<title>outcome</title>
<ellipse fill="lightgrey" stroke="black" cx="186" cy="-81.16" rx="44.72" ry="40.66"/>
<text xml:space="preserve" text-anchor="middle" x="186" y="-92.61" font-family="Times,serif" font-size="14.00">outcome</text>
<text xml:space="preserve" text-anchor="middle" x="186" y="-76.11" font-family="Times,serif" font-size="14.00">~</text>
<text xml:space="preserve" text-anchor="middle" x="186" y="-59.61" font-family="Times,serif" font-size="14.00">Normal</text>
</g>
<!-- sigma&#45;&gt;outcome -->
<g id="edge6" class="edge">
<title>sigma&#45;&gt;outcome</title>
<path fill="none" stroke="black" d="M100.15,-165.35C114.89,-151.07 132.33,-134.17 147.63,-119.34"/>
<polygon fill="black" stroke="black" points="150.04,-121.87 154.79,-112.4 145.17,-116.85 150.04,-121.87"/>
</g>
<!-- hsgp_sigma -->
<g id="node2" class="node">
<title>hsgp_sigma</title>
<ellipse fill="none" stroke="black" cx="304" cy="-519.79" rx="57.45" ry="40.66"/>
<text xml:space="preserve" text-anchor="middle" x="304" y="-531.24" font-family="Times,serif" font-size="14.00">hsgp_sigma</text>
<text xml:space="preserve" text-anchor="middle" x="304" y="-514.74" font-family="Times,serif" font-size="14.00">~</text>
<text xml:space="preserve" text-anchor="middle" x="304" y="-498.24" font-family="Times,serif" font-size="14.00">Exponential</text>
</g>
<!-- hsgp_weights -->
<g id="node4" class="node">
<title>hsgp_weights</title>
<polygon fill="none" stroke="black" points="231.12,-438.63 140.88,-438.63 140.88,-381.13 231.12,-381.13 231.12,-438.63"/>
<text xml:space="preserve" text-anchor="middle" x="186" y="-421.33" font-family="Times,serif" font-size="14.00">hsgp_weights</text>
<text xml:space="preserve" text-anchor="middle" x="186" y="-404.83" font-family="Times,serif" font-size="14.00">~</text>
<text xml:space="preserve" text-anchor="middle" x="186" y="-388.33" font-family="Times,serif" font-size="14.00">Deterministic</text>
</g>
<!-- hsgp_sigma&#45;&gt;hsgp_weights -->
<g id="edge1" class="edge">
<title>hsgp_sigma&#45;&gt;hsgp_weights</title>
<path fill="none" stroke="black" d="M277.76,-483.41C267.65,-471.01 255.51,-457.49 243,-446.63 242.1,-445.85 241.17,-445.07 240.23,-444.3"/>
<polygon fill="black" stroke="black" points="242.69,-441.77 232.63,-438.46 238.43,-447.32 242.69,-441.77"/>
</g>
<!-- hsgp_ell -->
<g id="node3" class="node">
<title>hsgp_ell</title>
<ellipse fill="none" stroke="black" cx="433" cy="-519.79" rx="53.21" ry="40.66"/>
<text xml:space="preserve" text-anchor="middle" x="433" y="-531.24" font-family="Times,serif" font-size="14.00">hsgp_ell</text>
<text xml:space="preserve" text-anchor="middle" x="433" y="-514.74" font-family="Times,serif" font-size="14.00">~</text>
<text xml:space="preserve" text-anchor="middle" x="433" y="-498.24" font-family="Times,serif" font-size="14.00">Invgamma</text>
</g>
<!-- hsgp_ell&#45;&gt;hsgp_weights -->
<g id="edge3" class="edge">
<title>hsgp_ell&#45;&gt;hsgp_weights</title>
<path fill="none" stroke="black" d="M409.49,-482.94C398.96,-469.58 385.42,-455.51 370,-446.63 331.28,-424.34 281.17,-415.67 243.02,-412.43"/>
<polygon fill="black" stroke="black" points="243.33,-408.95 233.1,-411.7 242.82,-415.93 243.33,-408.95"/>
</g>
<!-- hsgp -->
<g id="node7" class="node">
<title>hsgp</title>
<polygon fill="none" stroke="black" points="231.12,-332.63 140.88,-332.63 140.88,-275.13 231.12,-275.13 231.12,-332.63"/>
<text xml:space="preserve" text-anchor="middle" x="186" y="-315.33" font-family="Times,serif" font-size="14.00">hsgp</text>
<text xml:space="preserve" text-anchor="middle" x="186" y="-298.83" font-family="Times,serif" font-size="14.00">~</text>
<text xml:space="preserve" text-anchor="middle" x="186" y="-282.33" font-family="Times,serif" font-size="14.00">Deterministic</text>
</g>
<!-- hsgp_weights&#45;&gt;hsgp -->
<g id="edge4" class="edge">
<title>hsgp_weights&#45;&gt;hsgp</title>
<path fill="none" stroke="black" d="M186,-380.74C186,-369.53 186,-356.42 186,-344.29"/>
<polygon fill="black" stroke="black" points="189.5,-344.56 186,-334.56 182.5,-344.56 189.5,-344.56"/>
</g>
<!-- hsgp_weights_raw -->
<g id="node5" class="node">
<title>hsgp_weights_raw</title>
<ellipse fill="none" stroke="black" cx="146" cy="-519.79" rx="82.91" ry="40.66"/>
<text xml:space="preserve" text-anchor="middle" x="146" y="-531.24" font-family="Times,serif" font-size="14.00">hsgp_weights_raw</text>
<text xml:space="preserve" text-anchor="middle" x="146" y="-514.74" font-family="Times,serif" font-size="14.00">~</text>
<text xml:space="preserve" text-anchor="middle" x="146" y="-498.24" font-family="Times,serif" font-size="14.00">Normal</text>
</g>
<!-- hsgp_weights_raw&#45;&gt;hsgp_weights -->
<g id="edge2" class="edge">
<title>hsgp_weights_raw&#45;&gt;hsgp_weights</title>
<path fill="none" stroke="black" d="M160.55,-479.53C164.16,-469.81 168.02,-459.4 171.61,-449.7"/>
<polygon fill="black" stroke="black" points="174.81,-451.14 175,-440.55 168.25,-448.71 174.81,-451.14"/>
</g>
<!-- mu -->
<g id="node8" class="node">
<title>mu</title>
<polygon fill="none" stroke="black" points="231.12,-227.23 140.88,-227.23 140.88,-169.73 231.12,-169.73 231.12,-227.23"/>
<text xml:space="preserve" text-anchor="middle" x="186" y="-209.93" font-family="Times,serif" font-size="14.00">mu</text>
<text xml:space="preserve" text-anchor="middle" x="186" y="-193.43" font-family="Times,serif" font-size="14.00">~</text>
<text xml:space="preserve" text-anchor="middle" x="186" y="-176.93" font-family="Times,serif" font-size="14.00">Deterministic</text>
</g>
<!-- hsgp&#45;&gt;mu -->
<g id="edge5" class="edge">
<title>hsgp&#45;&gt;mu</title>
<path fill="none" stroke="black" d="M186,-274.9C186,-263.75 186,-250.72 186,-238.66"/>
<polygon fill="black" stroke="black" points="189.5,-239 186,-229 182.5,-239 189.5,-239"/>
</g>
<!-- mu&#45;&gt;outcome -->
<g id="edge7" class="edge">
<title>mu&#45;&gt;outcome</title>
<path fill="none" stroke="black" d="M186,-169.27C186,-158.44 186,-145.73 186,-133.41"/>
<polygon fill="black" stroke="black" points="189.5,-133.78 186,-123.78 182.5,-133.78 189.5,-133.78"/>
</g>
</g>
</svg>
