<?xml version="1.0" encoding="UTF-8" standalone="no"?>
<!DOCTYPE svg PUBLIC "-//W3C//DTD SVG 1.1//EN"
 "http://www.w3.org/Graphics/SVG/1.1/DTD/svg11.dtd">
<!-- Generated by graphviz version 2.50.0 (0)
 -->
<!-- Pages: 1 -->
<svg width="740pt" height="563pt"
 viewBox="0.00 0.00 740.37 562.84" xmlns="http://www.w3.org/2000/svg" xmlns:xlink="http://www.w3.org/1999/xlink">
<g id="graph0" class="graph" transform="scale(1 1) rotate(0) translate(4 558.84)">
<polygon fill="white" stroke="transparent" points="-4,4 -4,-558.84 736.37,-558.84 736.37,4 -4,4"/>
<g id="clust1" class="cluster">
<title>clusterYear_dim (2)</title>
<path fill="none" stroke="black" d="M20,-210.95C20,-210.95 110,-210.95 110,-210.95 116,-210.95 122,-216.95 122,-222.95 122,-222.95 122,-312.91 122,-312.91 122,-318.91 116,-324.91 110,-324.91 110,-324.91 20,-324.91 20,-324.91 14,-324.91 8,-318.91 8,-312.91 8,-312.91 8,-222.95 8,-222.95 8,-216.95 14,-210.95 20,-210.95"/>
<text text-anchor="middle" x="69" y="-218.75" font-family="Times,serif" font-size="14.00">Year_dim (2)</text>
</g>
<g id="clust2" class="cluster">
<title>clusterX1:Year_dim (2)</title>
<path fill="none" stroke="black" d="M280,-210.95C280,-210.95 385,-210.95 385,-210.95 391,-210.95 397,-216.95 397,-222.95 397,-222.95 397,-312.91 397,-312.91 397,-318.91 391,-324.91 385,-324.91 385,-324.91 280,-324.91 280,-324.91 274,-324.91 268,-318.91 268,-312.91 268,-312.91 268,-222.95 268,-222.95 268,-216.95 274,-210.95 280,-210.95"/>
<text text-anchor="middle" x="332.5" y="-218.75" font-family="Times,serif" font-size="14.00">X1:Year_dim (2)</text>
</g>
<g id="clust3" class="cluster">
<title>clustergp_weights_dim (25) x gp_by (2)</title>
<path fill="none" stroke="black" d="M24,-332.91C24,-332.91 248,-332.91 248,-332.91 254,-332.91 260,-338.91 260,-344.91 260,-344.91 260,-534.84 260,-534.84 260,-540.84 254,-546.84 248,-546.84 248,-546.84 24,-546.84 24,-546.84 18,-546.84 12,-540.84 12,-534.84 12,-534.84 12,-344.91 12,-344.91 12,-338.91 18,-332.91 24,-332.91"/>
<text text-anchor="middle" x="136" y="-340.71" font-family="Times,serif" font-size="14.00">gp_weights_dim (25) x gp_by (2)</text>
</g>
<g id="clust4" class="cluster">
<title>cluster__obs__ (100)</title>
<path fill="none" stroke="black" d="M142,-8C142,-8 248,-8 248,-8 254,-8 260,-14 260,-20 260,-20 260,-301.93 260,-301.93 260,-307.93 254,-313.93 248,-313.93 248,-313.93 142,-313.93 142,-313.93 136,-313.93 130,-307.93 130,-301.93 130,-301.93 130,-20 130,-20 130,-14 136,-8 142,-8"/>
<text text-anchor="middle" x="205" y="-15.8" font-family="Times,serif" font-size="14.00">__obs__ (100)</text>
</g>
<g id="clust5" class="cluster">
<title>clusterSite__factor_dim (4)</title>
<path fill="none" stroke="black" d="M417,-221.93C417,-221.93 557,-221.93 557,-221.93 563,-221.93 569,-227.93 569,-233.93 569,-233.93 569,-423.88 569,-423.88 569,-429.88 563,-435.88 557,-435.88 557,-435.88 417,-435.88 417,-435.88 411,-435.88 405,-429.88 405,-423.88 405,-423.88 405,-233.93 405,-233.93 405,-227.93 411,-221.93 417,-221.93"/>
<text text-anchor="middle" x="490" y="-229.73" font-family="Times,serif" font-size="14.00">Site__factor_dim (4)</text>
</g>
<!-- Year -->
<g id="node1" class="node">
<title>Year</title>
<ellipse fill="none" stroke="black" cx="65" cy="-279.43" rx="49.49" ry="37.45"/>
<text text-anchor="middle" x="65" y="-290.73" font-family="Times,serif" font-size="14.00">Year</text>
<text text-anchor="middle" x="65" y="-275.73" font-family="Times,serif" font-size="14.00">~</text>
<text text-anchor="middle" x="65" y="-260.73" font-family="Times,serif" font-size="14.00">Normal</text>
</g>
<!-- mu -->
<g id="node10" class="node">
<title>mu</title>
<polygon fill="none" stroke="black" points="252,-202.95 138,-202.95 138,-149.95 252,-149.95 252,-202.95"/>
<text text-anchor="middle" x="195" y="-187.75" font-family="Times,serif" font-size="14.00">mu</text>
<text text-anchor="middle" x="195" y="-172.75" font-family="Times,serif" font-size="14.00">~</text>
<text text-anchor="middle" x="195" y="-157.75" font-family="Times,serif" font-size="14.00">Deterministic</text>
</g>
<!-- Year&#45;&gt;mu -->
<g id="edge8" class="edge">
<title>Year&#45;&gt;mu</title>
<path fill="none" stroke="black" d="M89.5,-246.43C99.85,-234.3 112.61,-221 126,-210.95 127.05,-210.17 128.12,-209.39 129.21,-208.63"/>
<polygon fill="black" stroke="black" points="131.38,-211.38 137.85,-202.99 127.56,-205.52 131.38,-211.38"/>
</g>
<!-- X1&amp;Year -->
<g id="node2" class="node">
<title>X1&amp;Year</title>
<ellipse fill="none" stroke="black" cx="326" cy="-279.43" rx="50.41" ry="37.45"/>
<text text-anchor="middle" x="326" y="-290.73" font-family="Times,serif" font-size="14.00">X1:Year</text>
<text text-anchor="middle" x="326" y="-275.73" font-family="Times,serif" font-size="14.00">~</text>
<text text-anchor="middle" x="326" y="-260.73" font-family="Times,serif" font-size="14.00">Normal</text>
</g>
<!-- X1&amp;Year&#45;&gt;mu -->
<g id="edge7" class="edge">
<title>X1&amp;Year&#45;&gt;mu</title>
<path fill="none" stroke="black" d="M301.32,-246.79C290.73,-234.57 277.66,-221.12 264,-210.95 262.95,-210.17 261.88,-209.4 260.79,-208.64"/>
<polygon fill="black" stroke="black" points="262.42,-205.53 252.12,-203.02 258.61,-211.4 262.42,-205.53"/>
</g>
<!-- 1|Site_sigma -->
<g id="node3" class="node">
<title>1|Site_sigma</title>
<ellipse fill="none" stroke="black" cx="656" cy="-390.41" rx="76.24" ry="37.45"/>
<text text-anchor="middle" x="656" y="-401.71" font-family="Times,serif" font-size="14.00">1|Site_sigma</text>
<text text-anchor="middle" x="656" y="-386.71" font-family="Times,serif" font-size="14.00">~</text>
<text text-anchor="middle" x="656" y="-371.71" font-family="Times,serif" font-size="14.00">HalfNormal</text>
</g>
<!-- 1|Site -->
<g id="node12" class="node">
<title>1|Site</title>
<polygon fill="none" stroke="black" points="544,-305.93 430,-305.93 430,-252.93 544,-252.93 544,-305.93"/>
<text text-anchor="middle" x="487" y="-290.73" font-family="Times,serif" font-size="14.00">1|Site</text>
<text text-anchor="middle" x="487" y="-275.73" font-family="Times,serif" font-size="14.00">~</text>
<text text-anchor="middle" x="487" y="-260.73" font-family="Times,serif" font-size="14.00">Deterministic</text>
</g>
<!-- 1|Site_sigma&#45;&gt;1|Site -->
<g id="edge5" class="edge">
<title>1|Site_sigma&#45;&gt;1|Site</title>
<path fill="none" stroke="black" d="M612.77,-359.38C600.04,-350.71 586.04,-341.31 573,-332.91 561.99,-325.81 550.06,-318.37 538.69,-311.4"/>
<polygon fill="black" stroke="black" points="540.49,-308.4 530.13,-306.17 536.84,-314.37 540.49,-308.4"/>
</g>
<!-- gp_sigma -->
<g id="node4" class="node">
<title>gp_sigma</title>
<ellipse fill="none" stroke="black" cx="340" cy="-501.36" rx="72.25" ry="37.45"/>
<text text-anchor="middle" x="340" y="-512.66" font-family="Times,serif" font-size="14.00">gp_sigma</text>
<text text-anchor="middle" x="340" y="-497.66" font-family="Times,serif" font-size="14.00">~</text>
<text text-anchor="middle" x="340" y="-482.66" font-family="Times,serif" font-size="14.00">Exponential</text>
</g>
<!-- gp_weights -->
<g id="node6" class="node">
<title>gp_weights</title>
<polygon fill="none" stroke="black" points="252,-416.91 138,-416.91 138,-363.91 252,-363.91 252,-416.91"/>
<text text-anchor="middle" x="195" y="-401.71" font-family="Times,serif" font-size="14.00">gp_weights</text>
<text text-anchor="middle" x="195" y="-386.71" font-family="Times,serif" font-size="14.00">~</text>
<text text-anchor="middle" x="195" y="-371.71" font-family="Times,serif" font-size="14.00">Deterministic</text>
</g>
<!-- gp_sigma&#45;&gt;gp_weights -->
<g id="edge1" class="edge">
<title>gp_sigma&#45;&gt;gp_weights</title>
<path fill="none" stroke="black" d="M299.61,-470.01C280.25,-455.47 257.07,-438.04 237.45,-423.3"/>
<polygon fill="black" stroke="black" points="239.38,-420.38 229.28,-417.17 235.17,-425.97 239.38,-420.38"/>
</g>
<!-- gp_ell -->
<g id="node5" class="node">
<title>gp_ell</title>
<ellipse fill="none" stroke="black" cx="497" cy="-501.36" rx="66.44" ry="37.45"/>
<text text-anchor="middle" x="497" y="-512.66" font-family="Times,serif" font-size="14.00">gp_ell</text>
<text text-anchor="middle" x="497" y="-497.66" font-family="Times,serif" font-size="14.00">~</text>
<text text-anchor="middle" x="497" y="-482.66" font-family="Times,serif" font-size="14.00">InvGamma</text>
</g>
<!-- gp_ell&#45;&gt;gp_weights -->
<g id="edge3" class="edge">
<title>gp_ell&#45;&gt;gp_weights</title>
<path fill="none" stroke="black" d="M447.97,-475.62C439.09,-471.49 429.84,-467.4 421,-463.88 368.57,-443.01 307.56,-423.73 262.15,-410.31"/>
<polygon fill="black" stroke="black" points="263,-406.91 252.42,-407.45 261.03,-413.63 263,-406.91"/>
</g>
<!-- gp -->
<g id="node9" class="node">
<title>gp</title>
<polygon fill="none" stroke="black" points="252,-305.93 138,-305.93 138,-252.93 252,-252.93 252,-305.93"/>
<text text-anchor="middle" x="195" y="-290.73" font-family="Times,serif" font-size="14.00">gp</text>
<text text-anchor="middle" x="195" y="-275.73" font-family="Times,serif" font-size="14.00">~</text>
<text text-anchor="middle" x="195" y="-260.73" font-family="Times,serif" font-size="14.00">Deterministic</text>
</g>
<!-- gp_weights&#45;&gt;gp -->
<g id="edge4" class="edge">
<title>gp_weights&#45;&gt;gp</title>
<path fill="none" stroke="black" d="M195,-363.86C195,-349.75 195,-332 195,-316.5"/>
<polygon fill="black" stroke="black" points="198.5,-316.2 195,-306.2 191.5,-316.2 198.5,-316.2"/>
</g>
<!-- gp_weights_raw -->
<g id="node7" class="node">
<title>gp_weights_raw</title>
<ellipse fill="none" stroke="black" cx="157" cy="-501.36" rx="92.76" ry="37.45"/>
<text text-anchor="middle" x="157" y="-512.66" font-family="Times,serif" font-size="14.00">gp_weights_raw</text>
<text text-anchor="middle" x="157" y="-497.66" font-family="Times,serif" font-size="14.00">~</text>
<text text-anchor="middle" x="157" y="-482.66" font-family="Times,serif" font-size="14.00">Normal</text>
</g>
<!-- gp_weights_raw&#45;&gt;gp_weights -->
<g id="edge2" class="edge">
<title>gp_weights_raw&#45;&gt;gp_weights</title>
<path fill="none" stroke="black" d="M169.65,-464.08C173.84,-452.09 178.48,-438.76 182.64,-426.83"/>
<polygon fill="black" stroke="black" points="186.02,-427.8 186,-417.2 179.41,-425.49 186.02,-427.8"/>
</g>
<!-- Count -->
<g id="node8" class="node">
<title>Count</title>
<ellipse fill="lightgrey" stroke="black" cx="195" cy="-76.48" rx="50.41" ry="37.45"/>
<text text-anchor="middle" x="195" y="-87.78" font-family="Times,serif" font-size="14.00">Count</text>
<text text-anchor="middle" x="195" y="-72.78" font-family="Times,serif" font-size="14.00">~</text>
<text text-anchor="middle" x="195" y="-57.78" font-family="Times,serif" font-size="14.00">Poisson</text>
</g>
<!-- gp&#45;&gt;mu -->
<g id="edge9" class="edge">
<title>gp&#45;&gt;mu</title>
<path fill="none" stroke="black" d="M195,-252.69C195,-240.7 195,-226.24 195,-213.21"/>
<polygon fill="black" stroke="black" points="198.5,-213.15 195,-203.15 191.5,-213.15 198.5,-213.15"/>
</g>
<!-- mu&#45;&gt;Count -->
<g id="edge11" class="edge">
<title>mu&#45;&gt;Count</title>
<path fill="none" stroke="black" d="M195,-149.71C195,-141.89 195,-133.03 195,-124.27"/>
<polygon fill="black" stroke="black" points="198.5,-124.1 195,-114.1 191.5,-124.1 198.5,-124.1"/>
</g>
<!-- 1|Site_offset -->
<g id="node11" class="node">
<title>1|Site_offset</title>
<ellipse fill="none" stroke="black" cx="487" cy="-390.41" rx="74.49" ry="37.45"/>
<text text-anchor="middle" x="487" y="-401.71" font-family="Times,serif" font-size="14.00">1|Site_offset</text>
<text text-anchor="middle" x="487" y="-386.71" font-family="Times,serif" font-size="14.00">~</text>
<text text-anchor="middle" x="487" y="-371.71" font-family="Times,serif" font-size="14.00">Normal</text>
</g>
<!-- 1|Site_offset&#45;&gt;1|Site -->
<g id="edge6" class="edge">
<title>1|Site_offset&#45;&gt;1|Site</title>
<path fill="none" stroke="black" d="M487,-352.82C487,-341.08 487,-328.09 487,-316.39"/>
<polygon fill="black" stroke="black" points="490.5,-316.09 487,-306.09 483.5,-316.09 490.5,-316.09"/>
</g>
<!-- 1|Site&#45;&gt;mu -->
<g id="edge10" class="edge">
<title>1|Site&#45;&gt;mu</title>
<path fill="none" stroke="black" d="M461.43,-252.68C445.42,-238.11 423.59,-220.86 401,-210.95 357.16,-191.73 303.71,-183.43 262.24,-179.89"/>
<polygon fill="black" stroke="black" points="262.48,-176.4 252.24,-179.11 261.94,-183.38 262.48,-176.4"/>
</g>
</g>
</svg>
