<?xml version="1.0" encoding="UTF-8" standalone="no"?>
<!DOCTYPE svg PUBLIC "-//W3C//DTD SVG 1.1//EN"
 "http://www.w3.org/Graphics/SVG/1.1/DTD/svg11.dtd">
<!-- Generated by graphviz version 13.1.2 (20250809.0930)
 -->
<!-- Pages: 1 -->
<svg width="485pt" height="580pt"
 viewBox="0.00 0.00 485.00 580.00" xmlns="http://www.w3.org/2000/svg" xmlns:xlink="http://www.w3.org/1999/xlink">
<g id="graph0" class="graph" transform="scale(1 1) rotate(0) translate(4 575.95)">
<polygon fill="white" stroke="none" points="-4,4 -4,-575.95 481.07,-575.95 481.07,4 -4,4"/>
<g id="clust1" class="cluster">
<title>clusterhsgp_weights_dim (100)</title>
<path fill="none" stroke="black" d="M57.86,-348.63C57.86,-348.63 215.86,-348.63 215.86,-348.63 221.86,-348.63 227.86,-354.63 227.86,-360.63 227.86,-360.63 227.86,-551.95 227.86,-551.95 227.86,-557.95 221.86,-563.95 215.86,-563.95 215.86,-563.95 57.86,-563.95 57.86,-563.95 51.86,-563.95 45.86,-557.95 45.86,-551.95 45.86,-551.95 45.86,-360.63 45.86,-360.63 45.86,-354.63 51.86,-348.63 57.86,-348.63"/>
<text xml:space="preserve" text-anchor="middle" x="151.99" y="-355.83" font-family="Times,serif" font-size="14.00">hsgp_weights_dim (100)</text>
</g>
<g id="clust2" class="cluster">
<title>cluster__obs__ (144)</title>
<path fill="none" stroke="black" d="M133.86,-8C133.86,-8 215.86,-8 215.86,-8 221.86,-8 227.86,-14 227.86,-20 227.86,-20 227.86,-328.63 227.86,-328.63 227.86,-334.63 221.86,-340.63 215.86,-340.63 215.86,-340.63 133.86,-340.63 133.86,-340.63 127.86,-340.63 121.86,-334.63 121.86,-328.63 121.86,-328.63 121.86,-20 121.86,-20 121.86,-14 127.86,-8 133.86,-8"/>
<text xml:space="preserve" text-anchor="middle" x="180.49" y="-15.2" font-family="Times,serif" font-size="14.00">__obs__ (144)</text>
</g>
<!-- sigma -->
<g id="node1" class="node">
<title>sigma</title>
<ellipse fill="none" stroke="black" cx="55.86" cy="-198.48" rx="55.86" ry="40.66"/>
<text xml:space="preserve" text-anchor="middle" x="55.86" y="-209.93" font-family="Times,serif" font-size="14.00">sigma</text>
<text xml:space="preserve" text-anchor="middle" x="55.86" y="-193.43" font-family="Times,serif" font-size="14.00">~</text>
<text xml:space="preserve" text-anchor="middle" x="55.86" y="-176.93" font-family="Times,serif" font-size="14.00">Halfnormal</text>
</g>
<!-- outcome -->
<g id="node6" class="node">
<title>outcome</title>
<ellipse fill="lightgrey" stroke="black" cx="174.86" cy="-81.16" rx="44.72" ry="40.66"/>
<text xml:space="preserve" text-anchor="middle" x="174.86" y="-92.61" font-family="Times,serif" font-size="14.00">outcome</text>
<text xml:space="preserve" text-anchor="middle" x="174.86" y="-76.11" font-family="Times,serif" font-size="14.00">~</text>
<text xml:space="preserve" text-anchor="middle" x="174.86" y="-59.61" font-family="Times,serif" font-size="14.00">Normal</text>
</g>
<!-- sigma&#45;&gt;outcome -->
<g id="edge6" class="edge">
<title>sigma&#45;&gt;outcome</title>
<path fill="none" stroke="black" d="M89.01,-165.35C103.75,-151.07 121.19,-134.17 136.49,-119.34"/>
<polygon fill="black" stroke="black" points="138.91,-121.87 143.65,-112.4 134.04,-116.85 138.91,-121.87"/>
</g>
<!-- hsgp_sigma -->
<g id="node2" class="node">
<title>hsgp_sigma</title>
<ellipse fill="none" stroke="black" cx="294.86" cy="-515.29" rx="57.45" ry="40.66"/>
<text xml:space="preserve" text-anchor="middle" x="294.86" y="-526.74" font-family="Times,serif" font-size="14.00">hsgp_sigma</text>
<text xml:space="preserve" text-anchor="middle" x="294.86" y="-510.24" font-family="Times,serif" font-size="14.00">~</text>
<text xml:space="preserve" text-anchor="middle" x="294.86" y="-493.74" font-family="Times,serif" font-size="14.00">Exponential</text>
</g>
<!-- hsgp_weights -->
<g id="node4" class="node">
<title>hsgp_weights</title>
<polygon fill="none" stroke="black" points="219.99,-438.63 129.74,-438.63 129.74,-381.13 219.99,-381.13 219.99,-438.63"/>
<text xml:space="preserve" text-anchor="middle" x="174.86" y="-421.33" font-family="Times,serif" font-size="14.00">hsgp_weights</text>
<text xml:space="preserve" text-anchor="middle" x="174.86" y="-404.83" font-family="Times,serif" font-size="14.00">~</text>
<text xml:space="preserve" text-anchor="middle" x="174.86" y="-388.33" font-family="Times,serif" font-size="14.00">Deterministic</text>
</g>
<!-- hsgp_sigma&#45;&gt;hsgp_weights -->
<g id="edge1" class="edge">
<title>hsgp_sigma&#45;&gt;hsgp_weights</title>
<path fill="none" stroke="black" d="M258.86,-483.27C245.37,-471.64 229.93,-458.34 216.01,-446.34"/>
<polygon fill="black" stroke="black" points="218.57,-443.93 208.71,-440.06 214,-449.24 218.57,-443.93"/>
</g>
<!-- hsgp_ell -->
<g id="node3" class="node">
<title>hsgp_ell</title>
<ellipse fill="none" stroke="black" cx="423.86" cy="-515.29" rx="53.21" ry="40.66"/>
<text xml:space="preserve" text-anchor="middle" x="423.86" y="-526.74" font-family="Times,serif" font-size="14.00">hsgp_ell</text>
<text xml:space="preserve" text-anchor="middle" x="423.86" y="-510.24" font-family="Times,serif" font-size="14.00">~</text>
<text xml:space="preserve" text-anchor="middle" x="423.86" y="-493.74" font-family="Times,serif" font-size="14.00">Invgamma</text>
</g>
<!-- hsgp_ell&#45;&gt;hsgp_weights -->
<g id="edge3" class="edge">
<title>hsgp_ell&#45;&gt;hsgp_weights</title>
<path fill="none" stroke="black" d="M384.32,-487.47C376.71,-482.87 368.67,-478.37 360.86,-474.63 318.82,-454.53 268.72,-437.74 231.11,-426.44"/>
<polygon fill="black" stroke="black" points="232.39,-423.17 221.81,-423.69 230.41,-429.89 232.39,-423.17"/>
</g>
<!-- hsgp -->
<g id="node7" class="node">
<title>hsgp</title>
<polygon fill="none" stroke="black" points="219.99,-332.63 129.74,-332.63 129.74,-275.13 219.99,-275.13 219.99,-332.63"/>
<text xml:space="preserve" text-anchor="middle" x="174.86" y="-315.33" font-family="Times,serif" font-size="14.00">hsgp</text>
<text xml:space="preserve" text-anchor="middle" x="174.86" y="-298.83" font-family="Times,serif" font-size="14.00">~</text>
<text xml:space="preserve" text-anchor="middle" x="174.86" y="-282.33" font-family="Times,serif" font-size="14.00">Deterministic</text>
</g>
<!-- hsgp_weights&#45;&gt;hsgp -->
<g id="edge4" class="edge">
<title>hsgp_weights&#45;&gt;hsgp</title>
<path fill="none" stroke="black" d="M174.86,-380.74C174.86,-369.53 174.86,-356.42 174.86,-344.29"/>
<polygon fill="black" stroke="black" points="178.36,-344.56 174.86,-334.56 171.36,-344.56 178.36,-344.56"/>
</g>
<!-- hsgp_weights_raw -->
<g id="node5" class="node">
<title>hsgp_weights_raw</title>
<ellipse fill="none" stroke="black" cx="136.86" cy="-515.29" rx="82.91" ry="40.66"/>
<text xml:space="preserve" text-anchor="middle" x="136.86" y="-526.74" font-family="Times,serif" font-size="14.00">hsgp_weights_raw</text>
<text xml:space="preserve" text-anchor="middle" x="136.86" y="-510.24" font-family="Times,serif" font-size="14.00">~</text>
<text xml:space="preserve" text-anchor="middle" x="136.86" y="-493.74" font-family="Times,serif" font-size="14.00">Normal</text>
</g>
<!-- hsgp_weights_raw&#45;&gt;hsgp_weights -->
<g id="edge2" class="edge">
<title>hsgp_weights_raw&#45;&gt;hsgp_weights</title>
<path fill="none" stroke="black" d="M151.34,-474.9C154.4,-466.57 157.63,-457.78 160.68,-449.48"/>
<polygon fill="black" stroke="black" points="163.87,-450.93 164.04,-440.34 157.3,-448.52 163.87,-450.93"/>
</g>
<!-- mu -->
<g id="node8" class="node">
<title>mu</title>
<polygon fill="none" stroke="black" points="219.99,-227.23 129.74,-227.23 129.74,-169.73 219.99,-169.73 219.99,-227.23"/>
<text xml:space="preserve" text-anchor="middle" x="174.86" y="-209.93" font-family="Times,serif" font-size="14.00">mu</text>
<text xml:space="preserve" text-anchor="middle" x="174.86" y="-193.43" font-family="Times,serif" font-size="14.00">~</text>
<text xml:space="preserve" text-anchor="middle" x="174.86" y="-176.93" font-family="Times,serif" font-size="14.00">Deterministic</text>
</g>
<!-- hsgp&#45;&gt;mu -->
<g id="edge5" class="edge">
<title>hsgp&#45;&gt;mu</title>
<path fill="none" stroke="black" d="M174.86,-274.9C174.86,-263.75 174.86,-250.72 174.86,-238.66"/>
<polygon fill="black" stroke="black" points="178.36,-239 174.86,-229 171.36,-239 178.36,-239"/>
</g>
<!-- mu&#45;&gt;outcome -->
<g id="edge7" class="edge">
<title>mu&#45;&gt;outcome</title>
<path fill="none" stroke="black" d="M174.86,-169.27C174.86,-158.44 174.86,-145.73 174.86,-133.41"/>
<polygon fill="black" stroke="black" points="178.36,-133.78 174.86,-123.78 171.36,-133.78 178.36,-133.78"/>
</g>
</g>
</svg>
