<?xml version="1.0" encoding="UTF-8" standalone="no"?>
<!DOCTYPE svg PUBLIC "-//W3C//DTD SVG 1.1//EN"
 "http://www.w3.org/Graphics/SVG/1.1/DTD/svg11.dtd">
<!-- Generated by graphviz version 2.50.0 (0)
 -->
<!-- Pages: 1 -->
<svg width="611pt" height="552pt"
 viewBox="0.00 0.00 610.71 551.86" xmlns="http://www.w3.org/2000/svg" xmlns:xlink="http://www.w3.org/1999/xlink">
<g id="graph0" class="graph" transform="scale(1 1) rotate(0) translate(4 547.86)">
<polygon fill="white" stroke="transparent" points="-4,4 -4,-547.86 606.71,-547.86 606.71,4 -4,4"/>
<g id="clust1" class="cluster">
<title>clusterhsgp_var (2)</title>
<path fill="none" stroke="black" d="M458.71,-421.91C458.71,-421.91 582.71,-421.91 582.71,-421.91 588.71,-421.91 594.71,-427.91 594.71,-433.91 594.71,-433.91 594.71,-523.86 594.71,-523.86 594.71,-529.86 588.71,-535.86 582.71,-535.86 582.71,-535.86 458.71,-535.86 458.71,-535.86 452.71,-535.86 446.71,-529.86 446.71,-523.86 446.71,-523.86 446.71,-433.91 446.71,-433.91 446.71,-427.91 452.71,-421.91 458.71,-421.91"/>
<text text-anchor="middle" x="542.21" y="-429.71" font-family="Times,serif" font-size="14.00">hsgp_var (2)</text>
</g>
<g id="clust2" class="cluster">
<title>clusterhsgp_weights_dim (100)</title>
<path fill="none" stroke="black" d="M67.71,-329.91C67.71,-329.91 269.71,-329.91 269.71,-329.91 275.71,-329.91 281.71,-335.91 281.71,-341.91 281.71,-341.91 281.71,-523.86 281.71,-523.86 281.71,-529.86 275.71,-535.86 269.71,-535.86 269.71,-535.86 67.71,-535.86 67.71,-535.86 61.71,-535.86 55.71,-529.86 55.71,-523.86 55.71,-523.86 55.71,-341.91 55.71,-341.91 55.71,-335.91 61.71,-329.91 67.71,-329.91"/>
<text text-anchor="middle" x="186.71" y="-337.71" font-family="Times,serif" font-size="14.00">hsgp_weights_dim (100)</text>
</g>
<g id="clust3" class="cluster">
<title>cluster__obs__ (144)</title>
<path fill="none" stroke="black" d="M163.71,-8C163.71,-8 269.71,-8 269.71,-8 275.71,-8 281.71,-14 281.71,-20 281.71,-20 281.71,-309.91 281.71,-309.91 281.71,-315.91 275.71,-321.91 269.71,-321.91 269.71,-321.91 163.71,-321.91 163.71,-321.91 157.71,-321.91 151.71,-315.91 151.71,-309.91 151.71,-309.91 151.71,-20 151.71,-20 151.71,-14 157.71,-8 163.71,-8"/>
<text text-anchor="middle" x="226.71" y="-15.8" font-family="Times,serif" font-size="14.00">__obs__ (144)</text>
</g>
<!-- sigma -->
<g id="node1" class="node">
<title>sigma</title>
<ellipse fill="none" stroke="black" cx="70.71" cy="-187.43" rx="70.92" ry="37.45"/>
<text text-anchor="middle" x="70.71" y="-198.73" font-family="Times,serif" font-size="14.00">sigma</text>
<text text-anchor="middle" x="70.71" y="-183.73" font-family="Times,serif" font-size="14.00">~</text>
<text text-anchor="middle" x="70.71" y="-168.73" font-family="Times,serif" font-size="14.00">HalfNormal</text>
</g>
<!-- outcome -->
<g id="node6" class="node">
<title>outcome</title>
<ellipse fill="lightgrey" stroke="black" cx="214.71" cy="-76.48" rx="54.39" ry="37.45"/>
<text text-anchor="middle" x="214.71" y="-87.78" font-family="Times,serif" font-size="14.00">outcome</text>
<text text-anchor="middle" x="214.71" y="-72.78" font-family="Times,serif" font-size="14.00">~</text>
<text text-anchor="middle" x="214.71" y="-57.78" font-family="Times,serif" font-size="14.00">Normal</text>
</g>
<!-- sigma&#45;&gt;outcome -->
<g id="edge6" class="edge">
<title>sigma&#45;&gt;outcome</title>
<path fill="none" stroke="black" d="M110.44,-156.37C129.09,-142.26 151.38,-125.4 170.55,-110.89"/>
<polygon fill="black" stroke="black" points="172.7,-113.65 178.56,-104.83 168.47,-108.07 172.7,-113.65"/>
</g>
<!-- hsgp_sigma -->
<g id="node2" class="node">
<title>hsgp_sigma</title>
<ellipse fill="none" stroke="black" cx="363.71" cy="-490.38" rx="72.25" ry="37.45"/>
<text text-anchor="middle" x="363.71" y="-501.68" font-family="Times,serif" font-size="14.00">hsgp_sigma</text>
<text text-anchor="middle" x="363.71" y="-486.68" font-family="Times,serif" font-size="14.00">~</text>
<text text-anchor="middle" x="363.71" y="-471.68" font-family="Times,serif" font-size="14.00">Exponential</text>
</g>
<!-- hsgp_weights -->
<g id="node4" class="node">
<title>hsgp_weights</title>
<polygon fill="none" stroke="black" points="273.71,-413.91 159.71,-413.91 159.71,-360.91 273.71,-360.91 273.71,-413.91"/>
<text text-anchor="middle" x="216.71" y="-398.71" font-family="Times,serif" font-size="14.00">hsgp_weights</text>
<text text-anchor="middle" x="216.71" y="-383.71" font-family="Times,serif" font-size="14.00">~</text>
<text text-anchor="middle" x="216.71" y="-368.71" font-family="Times,serif" font-size="14.00">Deterministic</text>
</g>
<!-- hsgp_sigma&#45;&gt;hsgp_weights -->
<g id="edge3" class="edge">
<title>hsgp_sigma&#45;&gt;hsgp_weights</title>
<path fill="none" stroke="black" d="M330.32,-457.1C317.05,-445.21 301.26,-432.15 285.71,-421.91 284.3,-420.97 282.85,-420.05 281.38,-419.14"/>
<polygon fill="black" stroke="black" points="283.16,-416.13 272.77,-414.06 279.6,-422.15 283.16,-416.13"/>
</g>
<!-- hsgp_ell -->
<g id="node3" class="node">
<title>hsgp_ell</title>
<ellipse fill="none" stroke="black" cx="520.71" cy="-490.38" rx="66.44" ry="37.45"/>
<text text-anchor="middle" x="520.71" y="-501.68" font-family="Times,serif" font-size="14.00">hsgp_ell</text>
<text text-anchor="middle" x="520.71" y="-486.68" font-family="Times,serif" font-size="14.00">~</text>
<text text-anchor="middle" x="520.71" y="-471.68" font-family="Times,serif" font-size="14.00">InvGamma</text>
</g>
<!-- hsgp_ell&#45;&gt;hsgp_weights -->
<g id="edge1" class="edge">
<title>hsgp_ell&#45;&gt;hsgp_weights</title>
<path fill="none" stroke="black" d="M491.91,-456.57C478.81,-443.71 462.3,-430.1 444.71,-421.91 394.2,-398.37 331.16,-390.53 284.18,-388.27"/>
<polygon fill="black" stroke="black" points="284.24,-384.77 274.11,-387.86 283.96,-391.77 284.24,-384.77"/>
</g>
<!-- hsgp -->
<g id="node7" class="node">
<title>hsgp</title>
<polygon fill="none" stroke="black" points="273.71,-313.91 159.71,-313.91 159.71,-260.91 273.71,-260.91 273.71,-313.91"/>
<text text-anchor="middle" x="216.71" y="-298.71" font-family="Times,serif" font-size="14.00">hsgp</text>
<text text-anchor="middle" x="216.71" y="-283.71" font-family="Times,serif" font-size="14.00">~</text>
<text text-anchor="middle" x="216.71" y="-268.71" font-family="Times,serif" font-size="14.00">Deterministic</text>
</g>
<!-- hsgp_weights&#45;&gt;hsgp -->
<g id="edge4" class="edge">
<title>hsgp_weights&#45;&gt;hsgp</title>
<path fill="none" stroke="black" d="M216.71,-360.66C216.71,-349.52 216.71,-336.29 216.71,-324.21"/>
<polygon fill="black" stroke="black" points="220.21,-323.98 216.71,-313.98 213.21,-323.98 220.21,-323.98"/>
</g>
<!-- hsgp_weights_raw -->
<g id="node5" class="node">
<title>hsgp_weights_raw</title>
<ellipse fill="none" stroke="black" cx="168.71" cy="-490.38" rx="104.8" ry="37.45"/>
<text text-anchor="middle" x="168.71" y="-501.68" font-family="Times,serif" font-size="14.00">hsgp_weights_raw</text>
<text text-anchor="middle" x="168.71" y="-486.68" font-family="Times,serif" font-size="14.00">~</text>
<text text-anchor="middle" x="168.71" y="-471.68" font-family="Times,serif" font-size="14.00">Normal</text>
</g>
<!-- hsgp_weights_raw&#45;&gt;hsgp_weights -->
<g id="edge2" class="edge">
<title>hsgp_weights_raw&#45;&gt;hsgp_weights</title>
<path fill="none" stroke="black" d="M185.9,-453.21C190.5,-443.54 195.47,-433.09 200.04,-423.48"/>
<polygon fill="black" stroke="black" points="203.32,-424.73 204.45,-414.2 197,-421.72 203.32,-424.73"/>
</g>
<!-- mu -->
<g id="node8" class="node">
<title>mu</title>
<polygon fill="none" stroke="black" points="273.71,-213.93 159.71,-213.93 159.71,-160.93 273.71,-160.93 273.71,-213.93"/>
<text text-anchor="middle" x="216.71" y="-198.73" font-family="Times,serif" font-size="14.00">mu</text>
<text text-anchor="middle" x="216.71" y="-183.73" font-family="Times,serif" font-size="14.00">~</text>
<text text-anchor="middle" x="216.71" y="-168.73" font-family="Times,serif" font-size="14.00">Deterministic</text>
</g>
<!-- hsgp&#45;&gt;mu -->
<g id="edge5" class="edge">
<title>hsgp&#45;&gt;mu</title>
<path fill="none" stroke="black" d="M216.71,-260.66C216.71,-249.53 216.71,-236.3 216.71,-224.23"/>
<polygon fill="black" stroke="black" points="220.21,-224 216.71,-214 213.21,-224 220.21,-224"/>
</g>
<!-- mu&#45;&gt;outcome -->
<g id="edge7" class="edge">
<title>mu&#45;&gt;outcome</title>
<path fill="none" stroke="black" d="M216.24,-160.89C216.04,-149.98 215.8,-136.89 215.57,-124.35"/>
<polygon fill="black" stroke="black" points="219.06,-123.94 215.38,-114 212.07,-124.06 219.06,-123.94"/>
</g>
</g>
</svg>
