<?xml version="1.0" encoding="UTF-8" standalone="no"?>
<!DOCTYPE svg PUBLIC "-//W3C//DTD SVG 1.1//EN"
 "http://www.w3.org/Graphics/SVG/1.1/DTD/svg11.dtd">
<!-- Generated by graphviz version 2.43.0 (0)
 -->
<!-- Title: %3 Pages: 1 -->
<svg width="588pt" height="549pt"
 viewBox="0.00 0.00 587.71 548.86" xmlns="http://www.w3.org/2000/svg" xmlns:xlink="http://www.w3.org/1999/xlink">
<g id="graph0" class="graph" transform="scale(1 1) rotate(0) translate(4 544.86)">
<title>%3</title>
<polygon fill="white" stroke="transparent" points="-4,4 -4,-544.86 583.71,-544.86 583.71,4 -4,4"/>
<g id="clust1" class="cluster">
<title>clusterhsgp_weights_dim (100)</title>
<path fill="none" stroke="black" d="M63.59,-329.91C63.59,-329.91 265.59,-329.91 265.59,-329.91 271.59,-329.91 277.59,-335.91 277.59,-341.91 277.59,-341.91 277.59,-520.86 277.59,-520.86 277.59,-526.86 271.59,-532.86 265.59,-532.86 265.59,-532.86 63.59,-532.86 63.59,-532.86 57.59,-532.86 51.59,-526.86 51.59,-520.86 51.59,-520.86 51.59,-341.91 51.59,-341.91 51.59,-335.91 57.59,-329.91 63.59,-329.91"/>
<text text-anchor="middle" x="182.59" y="-337.71" font-family="Times,serif" font-size="14.00">hsgp_weights_dim (100)</text>
</g>
<g id="clust2" class="cluster">
<title>cluster__obs__ (144)</title>
<path fill="none" stroke="black" d="M159.59,-8C159.59,-8 265.59,-8 265.59,-8 271.59,-8 277.59,-14 277.59,-20 277.59,-20 277.59,-309.91 277.59,-309.91 277.59,-315.91 271.59,-321.91 265.59,-321.91 265.59,-321.91 159.59,-321.91 159.59,-321.91 153.59,-321.91 147.59,-315.91 147.59,-309.91 147.59,-309.91 147.59,-20 147.59,-20 147.59,-14 153.59,-8 159.59,-8"/>
<text text-anchor="middle" x="222.59" y="-15.8" font-family="Times,serif" font-size="14.00">__obs__ (144)</text>
</g>
<!-- sigma -->
<g id="node1" class="node">
<title>sigma</title>
<ellipse fill="none" stroke="black" cx="68.59" cy="-187.43" rx="68.68" ry="37.45"/>
<text text-anchor="middle" x="68.59" y="-198.73" font-family="Times,serif" font-size="14.00">sigma</text>
<text text-anchor="middle" x="68.59" y="-183.73" font-family="Times,serif" font-size="14.00">~</text>
<text text-anchor="middle" x="68.59" y="-168.73" font-family="Times,serif" font-size="14.00">Halfnormal</text>
</g>
<!-- outcome -->
<g id="node8" class="node">
<title>outcome</title>
<ellipse fill="lightgrey" stroke="black" cx="210.59" cy="-76.48" rx="54.39" ry="37.45"/>
<text text-anchor="middle" x="210.59" y="-87.78" font-family="Times,serif" font-size="14.00">outcome</text>
<text text-anchor="middle" x="210.59" y="-72.78" font-family="Times,serif" font-size="14.00">~</text>
<text text-anchor="middle" x="210.59" y="-57.78" font-family="Times,serif" font-size="14.00">Normal</text>
</g>
<!-- sigma&#45;&gt;outcome -->
<g id="edge6" class="edge">
<title>sigma&#45;&gt;outcome</title>
<path fill="none" stroke="black" d="M107.77,-156.37C126.07,-142.32 147.94,-125.55 166.79,-111.08"/>
<polygon fill="black" stroke="black" points="169.14,-113.69 174.94,-104.83 164.88,-108.14 169.14,-113.69"/>
</g>
<!-- hsgp_ell -->
<g id="node2" class="node">
<title>hsgp_ell</title>
<ellipse fill="none" stroke="black" cx="352.59" cy="-487.38" rx="65.11" ry="37.45"/>
<text text-anchor="middle" x="352.59" y="-498.68" font-family="Times,serif" font-size="14.00">hsgp_ell</text>
<text text-anchor="middle" x="352.59" y="-483.68" font-family="Times,serif" font-size="14.00">~</text>
<text text-anchor="middle" x="352.59" y="-468.68" font-family="Times,serif" font-size="14.00">Invgamma</text>
</g>
<!-- hsgp_weights -->
<g id="node4" class="node">
<title>hsgp_weights</title>
<polygon fill="none" stroke="black" points="269.59,-413.91 155.59,-413.91 155.59,-360.91 269.59,-360.91 269.59,-413.91"/>
<text text-anchor="middle" x="212.59" y="-398.71" font-family="Times,serif" font-size="14.00">hsgp_weights</text>
<text text-anchor="middle" x="212.59" y="-383.71" font-family="Times,serif" font-size="14.00">~</text>
<text text-anchor="middle" x="212.59" y="-368.71" font-family="Times,serif" font-size="14.00">Deterministic</text>
</g>
<!-- hsgp_ell&#45;&gt;hsgp_weights -->
<g id="edge1" class="edge">
<title>hsgp_ell&#45;&gt;hsgp_weights</title>
<path fill="none" stroke="black" d="M312.1,-458.04C295.02,-446.1 275.08,-432.14 257.56,-419.88"/>
<polygon fill="black" stroke="black" points="259.37,-416.87 249.17,-414.01 255.36,-422.61 259.37,-416.87"/>
</g>
<!-- hsgp_sigma -->
<g id="node3" class="node">
<title>hsgp_sigma</title>
<ellipse fill="none" stroke="black" cx="507.59" cy="-487.38" rx="72.25" ry="37.45"/>
<text text-anchor="middle" x="507.59" y="-498.68" font-family="Times,serif" font-size="14.00">hsgp_sigma</text>
<text text-anchor="middle" x="507.59" y="-483.68" font-family="Times,serif" font-size="14.00">~</text>
<text text-anchor="middle" x="507.59" y="-468.68" font-family="Times,serif" font-size="14.00">Exponential</text>
</g>
<!-- hsgp_sigma&#45;&gt;hsgp_weights -->
<g id="edge2" class="edge">
<title>hsgp_sigma&#45;&gt;hsgp_weights</title>
<path fill="none" stroke="black" d="M455.32,-461.53C445.86,-457.41 436,-453.36 426.59,-449.91 378.1,-432.13 321.94,-416.16 279.32,-404.95"/>
<polygon fill="black" stroke="black" points="280.18,-401.55 269.62,-402.42 278.41,-408.33 280.18,-401.55"/>
</g>
<!-- hsgp -->
<g id="node6" class="node">
<title>hsgp</title>
<polygon fill="none" stroke="black" points="269.59,-313.91 155.59,-313.91 155.59,-260.91 269.59,-260.91 269.59,-313.91"/>
<text text-anchor="middle" x="212.59" y="-298.71" font-family="Times,serif" font-size="14.00">hsgp</text>
<text text-anchor="middle" x="212.59" y="-283.71" font-family="Times,serif" font-size="14.00">~</text>
<text text-anchor="middle" x="212.59" y="-268.71" font-family="Times,serif" font-size="14.00">Deterministic</text>
</g>
<!-- hsgp_weights&#45;&gt;hsgp -->
<g id="edge4" class="edge">
<title>hsgp_weights&#45;&gt;hsgp</title>
<path fill="none" stroke="black" d="M212.59,-360.66C212.59,-349.52 212.59,-336.29 212.59,-324.21"/>
<polygon fill="black" stroke="black" points="216.09,-323.98 212.59,-313.98 209.09,-323.98 216.09,-323.98"/>
</g>
<!-- hsgp_weights_raw -->
<g id="node5" class="node">
<title>hsgp_weights_raw</title>
<ellipse fill="none" stroke="black" cx="164.59" cy="-487.38" rx="104.8" ry="37.45"/>
<text text-anchor="middle" x="164.59" y="-498.68" font-family="Times,serif" font-size="14.00">hsgp_weights_raw</text>
<text text-anchor="middle" x="164.59" y="-483.68" font-family="Times,serif" font-size="14.00">~</text>
<text text-anchor="middle" x="164.59" y="-468.68" font-family="Times,serif" font-size="14.00">Normal</text>
</g>
<!-- hsgp_weights_raw&#45;&gt;hsgp_weights -->
<g id="edge3" class="edge">
<title>hsgp_weights_raw&#45;&gt;hsgp_weights</title>
<path fill="none" stroke="black" d="M182.33,-450.18C186.64,-441.37 191.25,-431.97 195.53,-423.23"/>
<polygon fill="black" stroke="black" points="198.76,-424.58 200.02,-414.06 192.48,-421.5 198.76,-424.58"/>
</g>
<!-- mu -->
<g id="node7" class="node">
<title>mu</title>
<polygon fill="none" stroke="black" points="269.59,-213.93 155.59,-213.93 155.59,-160.93 269.59,-160.93 269.59,-213.93"/>
<text text-anchor="middle" x="212.59" y="-198.73" font-family="Times,serif" font-size="14.00">mu</text>
<text text-anchor="middle" x="212.59" y="-183.73" font-family="Times,serif" font-size="14.00">~</text>
<text text-anchor="middle" x="212.59" y="-168.73" font-family="Times,serif" font-size="14.00">Deterministic</text>
</g>
<!-- hsgp&#45;&gt;mu -->
<g id="edge5" class="edge">
<title>hsgp&#45;&gt;mu</title>
<path fill="none" stroke="black" d="M212.59,-260.66C212.59,-249.53 212.59,-236.3 212.59,-224.23"/>
<polygon fill="black" stroke="black" points="216.09,-224 212.59,-214 209.09,-224 216.09,-224"/>
</g>
<!-- mu&#45;&gt;outcome -->
<g id="edge7" class="edge">
<title>mu&#45;&gt;outcome</title>
<path fill="none" stroke="black" d="M212.12,-160.89C211.92,-149.98 211.68,-136.89 211.45,-124.35"/>
<polygon fill="black" stroke="black" points="214.94,-123.94 211.26,-114 207.94,-124.06 214.94,-123.94"/>
</g>
</g>
</svg>
