<?xml version="1.0" encoding="UTF-8" standalone="no"?>
<!DOCTYPE svg PUBLIC "-//W3C//DTD SVG 1.1//EN"
 "http://www.w3.org/Graphics/SVG/1.1/DTD/svg11.dtd">
<!-- Generated by graphviz version 2.50.0 (0)
 -->
<!-- Pages: 1 -->
<svg width="460pt" height="455pt"
 viewBox="0.00 0.00 459.98 454.86" xmlns="http://www.w3.org/2000/svg" xmlns:xlink="http://www.w3.org/1999/xlink">
<g id="graph0" class="graph" transform="scale(1 1) rotate(0) translate(4 450.86)">
<polygon fill="white" stroke="transparent" points="-4,4 -4,-450.86 455.98,-450.86 455.98,4 -4,4"/>
<g id="clust1" class="cluster">
<title>clusterhsgp_var (2)</title>
<path fill="none" stroke="black" d="M327.98,-324.91C327.98,-324.91 431.98,-324.91 431.98,-324.91 437.98,-324.91 443.98,-330.91 443.98,-336.91 443.98,-336.91 443.98,-426.86 443.98,-426.86 443.98,-432.86 437.98,-438.86 431.98,-438.86 431.98,-438.86 327.98,-438.86 327.98,-438.86 321.98,-438.86 315.98,-432.86 315.98,-426.86 315.98,-426.86 315.98,-336.91 315.98,-336.91 315.98,-330.91 321.98,-324.91 327.98,-324.91"/>
<text text-anchor="middle" x="400.98" y="-332.71" font-family="Times,serif" font-size="14.00">hsgp_var (2)</text>
</g>
<g id="clust2" class="cluster">
<title>clusterhsgp_weights_dim (100)</title>
<path fill="none" stroke="black" d="M137.98,-232.91C137.98,-232.91 295.98,-232.91 295.98,-232.91 301.98,-232.91 307.98,-238.91 307.98,-244.91 307.98,-244.91 307.98,-426.86 307.98,-426.86 307.98,-432.86 301.98,-438.86 295.98,-438.86 295.98,-438.86 137.98,-438.86 137.98,-438.86 131.98,-438.86 125.98,-432.86 125.98,-426.86 125.98,-426.86 125.98,-244.91 125.98,-244.91 125.98,-238.91 131.98,-232.91 137.98,-232.91"/>
<text text-anchor="middle" x="231.98" y="-240.71" font-family="Times,serif" font-size="14.00">hsgp_weights_dim (100)</text>
</g>
<g id="clust3" class="cluster">
<title>clusteroutcome_obs (144)</title>
<path fill="none" stroke="black" d="M161.98,-8C161.98,-8 259.98,-8 259.98,-8 265.98,-8 271.98,-14 271.98,-20 271.98,-20 271.98,-209.93 271.98,-209.93 271.98,-215.93 265.98,-221.93 259.98,-221.93 259.98,-221.93 161.98,-221.93 161.98,-221.93 155.98,-221.93 149.98,-215.93 149.98,-209.93 149.98,-209.93 149.98,-20 149.98,-20 149.98,-14 155.98,-8 161.98,-8"/>
<text text-anchor="middle" x="210.98" y="-15.8" font-family="Times,serif" font-size="14.00">outcome_obs (144)</text>
</g>
<!-- hsgp_sigma -->
<g id="node1" class="node">
<title>hsgp_sigma</title>
<ellipse fill="none" stroke="black" cx="57.98" cy="-393.38" rx="57.97" ry="37.45"/>
<text text-anchor="middle" x="57.98" y="-404.68" font-family="Times,serif" font-size="14.00">hsgp_sigma</text>
<text text-anchor="middle" x="57.98" y="-389.68" font-family="Times,serif" font-size="14.00">~</text>
<text text-anchor="middle" x="57.98" y="-374.68" font-family="Times,serif" font-size="14.00">Exponential</text>
</g>
<!-- hsgp_weights -->
<g id="node4" class="node">
<title>hsgp_weights</title>
<polygon fill="none" stroke="black" points="262.48,-316.91 171.48,-316.91 171.48,-263.91 262.48,-263.91 262.48,-316.91"/>
<text text-anchor="middle" x="216.98" y="-301.71" font-family="Times,serif" font-size="14.00">hsgp_weights</text>
<text text-anchor="middle" x="216.98" y="-286.71" font-family="Times,serif" font-size="14.00">~</text>
<text text-anchor="middle" x="216.98" y="-271.71" font-family="Times,serif" font-size="14.00">Deterministic</text>
</g>
<!-- hsgp_sigma&#45;&gt;hsgp_weights -->
<g id="edge1" class="edge">
<title>hsgp_sigma&#45;&gt;hsgp_weights</title>
<path fill="none" stroke="black" d="M83.36,-359.63C94.18,-347.39 107.62,-334.22 121.98,-324.91 134.03,-317.1 148.11,-310.85 161.69,-305.97"/>
<polygon fill="black" stroke="black" points="163.11,-309.18 171.46,-302.65 160.86,-302.55 163.11,-309.18"/>
</g>
<!-- outcome_sigma -->
<g id="node2" class="node">
<title>outcome_sigma</title>
<ellipse fill="none" stroke="black" cx="353.98" cy="-187.43" rx="73.58" ry="37.45"/>
<text text-anchor="middle" x="353.98" y="-198.73" font-family="Times,serif" font-size="14.00">outcome_sigma</text>
<text text-anchor="middle" x="353.98" y="-183.73" font-family="Times,serif" font-size="14.00">~</text>
<text text-anchor="middle" x="353.98" y="-168.73" font-family="Times,serif" font-size="14.00">HalfNormal</text>
</g>
<!-- outcome -->
<g id="node6" class="node">
<title>outcome</title>
<ellipse fill="lightgrey" stroke="black" cx="217.98" cy="-76.48" rx="45.01" ry="37.45"/>
<text text-anchor="middle" x="217.98" y="-87.78" font-family="Times,serif" font-size="14.00">outcome</text>
<text text-anchor="middle" x="217.98" y="-72.78" font-family="Times,serif" font-size="14.00">~</text>
<text text-anchor="middle" x="217.98" y="-57.78" font-family="Times,serif" font-size="14.00">Normal</text>
</g>
<!-- outcome_sigma&#45;&gt;outcome -->
<g id="edge5" class="edge">
<title>outcome_sigma&#45;&gt;outcome</title>
<path fill="none" stroke="black" d="M315.37,-155.5C297.53,-141.21 276.35,-124.23 258.3,-109.77"/>
<polygon fill="black" stroke="black" points="260.24,-106.85 250.25,-103.33 255.87,-112.31 260.24,-106.85"/>
</g>
<!-- hsgp_ell -->
<g id="node3" class="node">
<title>hsgp_ell</title>
<ellipse fill="none" stroke="black" cx="379.98" cy="-393.38" rx="55.72" ry="37.45"/>
<text text-anchor="middle" x="379.98" y="-404.68" font-family="Times,serif" font-size="14.00">hsgp_ell</text>
<text text-anchor="middle" x="379.98" y="-389.68" font-family="Times,serif" font-size="14.00">~</text>
<text text-anchor="middle" x="379.98" y="-374.68" font-family="Times,serif" font-size="14.00">InvGamma</text>
</g>
<!-- hsgp_ell&#45;&gt;hsgp_weights -->
<g id="edge3" class="edge">
<title>hsgp_ell&#45;&gt;hsgp_weights</title>
<path fill="none" stroke="black" d="M353.34,-360.37C341.68,-347.95 327.2,-334.45 311.98,-324.91 299.94,-317.35 285.97,-311.22 272.51,-306.37"/>
<polygon fill="black" stroke="black" points="273.43,-302.98 262.83,-303.05 271.16,-309.6 273.43,-302.98"/>
</g>
<!-- hsgp -->
<g id="node7" class="node">
<title>hsgp</title>
<polygon fill="none" stroke="black" points="262.48,-213.93 171.48,-213.93 171.48,-160.93 262.48,-160.93 262.48,-213.93"/>
<text text-anchor="middle" x="216.98" y="-198.73" font-family="Times,serif" font-size="14.00">hsgp</text>
<text text-anchor="middle" x="216.98" y="-183.73" font-family="Times,serif" font-size="14.00">~</text>
<text text-anchor="middle" x="216.98" y="-168.73" font-family="Times,serif" font-size="14.00">Deterministic</text>
</g>
<!-- hsgp_weights&#45;&gt;hsgp -->
<g id="edge4" class="edge">
<title>hsgp_weights&#45;&gt;hsgp</title>
<path fill="none" stroke="black" d="M216.98,-263.66C216.98,-251.68 216.98,-237.22 216.98,-224.19"/>
<polygon fill="black" stroke="black" points="220.48,-224.12 216.98,-214.12 213.48,-224.12 220.48,-224.12"/>
</g>
<!-- hsgp_weights_raw -->
<g id="node5" class="node">
<title>hsgp_weights_raw</title>
<ellipse fill="none" stroke="black" cx="216.98" cy="-393.38" rx="83.38" ry="37.45"/>
<text text-anchor="middle" x="216.98" y="-404.68" font-family="Times,serif" font-size="14.00">hsgp_weights_raw</text>
<text text-anchor="middle" x="216.98" y="-389.68" font-family="Times,serif" font-size="14.00">~</text>
<text text-anchor="middle" x="216.98" y="-374.68" font-family="Times,serif" font-size="14.00">Normal</text>
</g>
<!-- hsgp_weights_raw&#45;&gt;hsgp_weights -->
<g id="edge2" class="edge">
<title>hsgp_weights_raw&#45;&gt;hsgp_weights</title>
<path fill="none" stroke="black" d="M216.98,-355.64C216.98,-346.38 216.98,-336.46 216.98,-327.24"/>
<polygon fill="black" stroke="black" points="220.48,-327.22 216.98,-317.22 213.48,-327.22 220.48,-327.22"/>
</g>
<!-- hsgp&#45;&gt;outcome -->
<g id="edge6" class="edge">
<title>hsgp&#45;&gt;outcome</title>
<path fill="none" stroke="black" d="M217.22,-160.89C217.32,-149.98 217.44,-136.89 217.55,-124.35"/>
<polygon fill="black" stroke="black" points="221.06,-124.03 217.65,-114 214.06,-123.97 221.06,-124.03"/>
</g>
</g>
</svg>
