<?xml version="1.0" encoding="UTF-8" standalone="no"?>
<!DOCTYPE svg PUBLIC "-//W3C//DTD SVG 1.1//EN"
 "http://www.w3.org/Graphics/SVG/1.1/DTD/svg11.dtd">
<!-- Generated by graphviz version 13.1.2 (20250809.0930)
 -->
<!-- Pages: 1 -->
<svg width="494pt" height="580pt"
 viewBox="0.00 0.00 494.00 580.00" xmlns="http://www.w3.org/2000/svg" xmlns:xlink="http://www.w3.org/1999/xlink">
<g id="graph0" class="graph" transform="scale(1 1) rotate(0) translate(4 575.95)">
<polygon fill="white" stroke="none" points="-4,4 -4,-575.95 490.21,-575.95 490.21,4 -4,4"/>
<g id="clust1" class="cluster">
<title>clusterhsgp_weights_dim (100) x hsgp_by (3)</title>
<path fill="none" stroke="black" d="M20,-348.63C20,-348.63 227,-348.63 227,-348.63 233,-348.63 239,-354.63 239,-360.63 239,-360.63 239,-551.95 239,-551.95 239,-557.95 233,-563.95 227,-563.95 227,-563.95 20,-563.95 20,-563.95 14,-563.95 8,-557.95 8,-551.95 8,-551.95 8,-360.63 8,-360.63 8,-354.63 14,-348.63 20,-348.63"/>
<text xml:space="preserve" text-anchor="middle" x="123.38" y="-355.83" font-family="Times,serif" font-size="14.00">hsgp_weights_dim (100) x hsgp_by (3)</text>
</g>
<g id="clust2" class="cluster">
<title>cluster__obs__ (432)</title>
<path fill="none" stroke="black" d="M145,-8C145,-8 227,-8 227,-8 233,-8 239,-14 239,-20 239,-20 239,-328.63 239,-328.63 239,-334.63 233,-340.63 227,-340.63 227,-340.63 145,-340.63 145,-340.63 139,-340.63 133,-334.63 133,-328.63 133,-328.63 133,-20 133,-20 133,-14 139,-8 145,-8"/>
<text xml:space="preserve" text-anchor="middle" x="191.62" y="-15.2" font-family="Times,serif" font-size="14.00">__obs__ (432)</text>
</g>
<!-- sigma -->
<g id="node1" class="node">
<title>sigma</title>
<ellipse fill="none" stroke="black" cx="67" cy="-198.48" rx="55.86" ry="40.66"/>
<text xml:space="preserve" text-anchor="middle" x="67" y="-209.93" font-family="Times,serif" font-size="14.00">sigma</text>
<text xml:space="preserve" text-anchor="middle" x="67" y="-193.43" font-family="Times,serif" font-size="14.00">~</text>
<text xml:space="preserve" text-anchor="middle" x="67" y="-176.93" font-family="Times,serif" font-size="14.00">Halfnormal</text>
</g>
<!-- outcome -->
<g id="node6" class="node">
<title>outcome</title>
<ellipse fill="lightgrey" stroke="black" cx="186" cy="-81.16" rx="44.72" ry="40.66"/>
<text xml:space="preserve" text-anchor="middle" x="186" y="-92.61" font-family="Times,serif" font-size="14.00">outcome</text>
<text xml:space="preserve" text-anchor="middle" x="186" y="-76.11" font-family="Times,serif" font-size="14.00">~</text>
<text xml:space="preserve" text-anchor="middle" x="186" y="-59.61" font-family="Times,serif" font-size="14.00">Normal</text>
</g>
<!-- sigma&#45;&gt;outcome -->
<g id="edge6" class="edge">
<title>sigma&#45;&gt;outcome</title>
<path fill="none" stroke="black" d="M100.15,-165.35C114.89,-151.07 132.33,-134.17 147.63,-119.34"/>
<polygon fill="black" stroke="black" points="150.04,-121.87 154.79,-112.4 145.17,-116.85 150.04,-121.87"/>
</g>
<!-- hsgp_sigma -->
<g id="node2" class="node">
<title>hsgp_sigma</title>
<ellipse fill="none" stroke="black" cx="304" cy="-515.29" rx="57.45" ry="40.66"/>
<text xml:space="preserve" text-anchor="middle" x="304" y="-526.74" font-family="Times,serif" font-size="14.00">hsgp_sigma</text>
<text xml:space="preserve" text-anchor="middle" x="304" y="-510.24" font-family="Times,serif" font-size="14.00">~</text>
<text xml:space="preserve" text-anchor="middle" x="304" y="-493.74" font-family="Times,serif" font-size="14.00">Exponential</text>
</g>
<!-- hsgp_weights -->
<g id="node4" class="node">
<title>hsgp_weights</title>
<polygon fill="none" stroke="black" points="231.12,-438.63 140.88,-438.63 140.88,-381.13 231.12,-381.13 231.12,-438.63"/>
<text xml:space="preserve" text-anchor="middle" x="186" y="-421.33" font-family="Times,serif" font-size="14.00">hsgp_weights</text>
<text xml:space="preserve" text-anchor="middle" x="186" y="-404.83" font-family="Times,serif" font-size="14.00">~</text>
<text xml:space="preserve" text-anchor="middle" x="186" y="-388.33" font-family="Times,serif" font-size="14.00">Deterministic</text>
</g>
<!-- hsgp_sigma&#45;&gt;hsgp_weights -->
<g id="edge1" class="edge">
<title>hsgp_sigma&#45;&gt;hsgp_weights</title>
<path fill="none" stroke="black" d="M268.28,-482.99C255.14,-471.48 240.18,-458.36 226.65,-446.5"/>
<polygon fill="black" stroke="black" points="228.96,-443.88 219.13,-439.92 224.35,-449.14 228.96,-443.88"/>
</g>
<!-- hsgp_ell -->
<g id="node3" class="node">
<title>hsgp_ell</title>
<ellipse fill="none" stroke="black" cx="433" cy="-515.29" rx="53.21" ry="40.66"/>
<text xml:space="preserve" text-anchor="middle" x="433" y="-526.74" font-family="Times,serif" font-size="14.00">hsgp_ell</text>
<text xml:space="preserve" text-anchor="middle" x="433" y="-510.24" font-family="Times,serif" font-size="14.00">~</text>
<text xml:space="preserve" text-anchor="middle" x="433" y="-493.74" font-family="Times,serif" font-size="14.00">Invgamma</text>
</g>
<!-- hsgp_ell&#45;&gt;hsgp_weights -->
<g id="edge3" class="edge">
<title>hsgp_ell&#45;&gt;hsgp_weights</title>
<path fill="none" stroke="black" d="M393.45,-487.49C385.84,-482.89 377.81,-478.38 370,-474.63 328.53,-454.72 279.16,-437.97 242.01,-426.64"/>
<polygon fill="black" stroke="black" points="243.42,-423.41 232.83,-423.88 241.4,-430.11 243.42,-423.41"/>
</g>
<!-- hsgp -->
<g id="node7" class="node">
<title>hsgp</title>
<polygon fill="none" stroke="black" points="231.12,-332.63 140.88,-332.63 140.88,-275.13 231.12,-275.13 231.12,-332.63"/>
<text xml:space="preserve" text-anchor="middle" x="186" y="-315.33" font-family="Times,serif" font-size="14.00">hsgp</text>
<text xml:space="preserve" text-anchor="middle" x="186" y="-298.83" font-family="Times,serif" font-size="14.00">~</text>
<text xml:space="preserve" text-anchor="middle" x="186" y="-282.33" font-family="Times,serif" font-size="14.00">Deterministic</text>
</g>
<!-- hsgp_weights&#45;&gt;hsgp -->
<g id="edge4" class="edge">
<title>hsgp_weights&#45;&gt;hsgp</title>
<path fill="none" stroke="black" d="M186,-380.74C186,-369.53 186,-356.42 186,-344.29"/>
<polygon fill="black" stroke="black" points="189.5,-344.56 186,-334.56 182.5,-344.56 189.5,-344.56"/>
</g>
<!-- hsgp_weights_raw -->
<g id="node5" class="node">
<title>hsgp_weights_raw</title>
<ellipse fill="none" stroke="black" cx="146" cy="-515.29" rx="82.91" ry="40.66"/>
<text xml:space="preserve" text-anchor="middle" x="146" y="-526.74" font-family="Times,serif" font-size="14.00">hsgp_weights_raw</text>
<text xml:space="preserve" text-anchor="middle" x="146" y="-510.24" font-family="Times,serif" font-size="14.00">~</text>
<text xml:space="preserve" text-anchor="middle" x="146" y="-493.74" font-family="Times,serif" font-size="14.00">Normal</text>
</g>
<!-- hsgp_weights_raw&#45;&gt;hsgp_weights -->
<g id="edge2" class="edge">
<title>hsgp_weights_raw&#45;&gt;hsgp_weights</title>
<path fill="none" stroke="black" d="M161.24,-474.9C164.46,-466.57 167.86,-457.78 171.07,-449.48"/>
<polygon fill="black" stroke="black" points="174.27,-450.92 174.61,-440.33 167.74,-448.39 174.27,-450.92"/>
</g>
<!-- mu -->
<g id="node8" class="node">
<title>mu</title>
<polygon fill="none" stroke="black" points="231.12,-227.23 140.88,-227.23 140.88,-169.73 231.12,-169.73 231.12,-227.23"/>
<text xml:space="preserve" text-anchor="middle" x="186" y="-209.93" font-family="Times,serif" font-size="14.00">mu</text>
<text xml:space="preserve" text-anchor="middle" x="186" y="-193.43" font-family="Times,serif" font-size="14.00">~</text>
<text xml:space="preserve" text-anchor="middle" x="186" y="-176.93" font-family="Times,serif" font-size="14.00">Deterministic</text>
</g>
<!-- hsgp&#45;&gt;mu -->
<g id="edge5" class="edge">
<title>hsgp&#45;&gt;mu</title>
<path fill="none" stroke="black" d="M186,-274.9C186,-263.75 186,-250.72 186,-238.66"/>
<polygon fill="black" stroke="black" points="189.5,-239 186,-229 182.5,-239 189.5,-239"/>
</g>
<!-- mu&#45;&gt;outcome -->
<g id="edge7" class="edge">
<title>mu&#45;&gt;outcome</title>
<path fill="none" stroke="black" d="M186,-169.27C186,-158.44 186,-145.73 186,-133.41"/>
<polygon fill="black" stroke="black" points="189.5,-133.78 186,-123.78 182.5,-133.78 189.5,-133.78"/>
</g>
</g>
</svg>
