<?xml version="1.0" encoding="UTF-8" standalone="no"?>
<!DOCTYPE svg PUBLIC "-//W3C//DTD SVG 1.1//EN"
 "http://www.w3.org/Graphics/SVG/1.1/DTD/svg11.dtd">
<!-- Generated by graphviz version 13.1.2 (20250809.0930)
 -->
<!-- Pages: 1 -->
<svg width="621pt" height="596pt"
 viewBox="0.00 0.00 621.00 596.00" xmlns="http://www.w3.org/2000/svg" xmlns:xlink="http://www.w3.org/1999/xlink">
<g id="graph0" class="graph" transform="scale(1 1) rotate(0) translate(4 592.36)">
<polygon fill="white" stroke="none" points="-4,4 -4,-592.36 617.16,-592.36 617.16,4 -4,4"/>
<g id="clust1" class="cluster">
<title>clusterYear_dim (2)</title>
<path fill="none" stroke="black" d="M20,-223.32C20,-223.32 94,-223.32 94,-223.32 100,-223.32 106,-229.32 106,-235.32 106,-235.32 106,-333.13 106,-333.13 106,-339.13 100,-345.13 94,-345.13 94,-345.13 20,-345.13 20,-345.13 14,-345.13 8,-339.13 8,-333.13 8,-333.13 8,-235.32 8,-235.32 8,-229.32 14,-223.32 20,-223.32"/>
<text xml:space="preserve" text-anchor="middle" x="61.25" y="-230.52" font-family="Times,serif" font-size="14.00">Year_dim (2)</text>
</g>
<g id="clust2" class="cluster">
<title>clusterX1:Year_dim (2)</title>
<path fill="none" stroke="black" d="M240,-223.32C240,-223.32 325,-223.32 325,-223.32 331,-223.32 337,-229.32 337,-235.32 337,-235.32 337,-333.13 337,-333.13 337,-339.13 331,-345.13 325,-345.13 325,-345.13 240,-345.13 240,-345.13 234,-345.13 228,-339.13 228,-333.13 228,-333.13 228,-235.32 228,-235.32 228,-229.32 234,-223.32 240,-223.32"/>
<text xml:space="preserve" text-anchor="middle" x="282.12" y="-230.52" font-family="Times,serif" font-size="14.00">X1:Year_dim (2)</text>
</g>
<g id="clust3" class="cluster">
<title>clustergp_weights_dim (25) x gp_by (2)</title>
<path fill="none" stroke="black" d="M32,-353.13C32,-353.13 208,-353.13 208,-353.13 214,-353.13 220,-359.13 220,-365.13 220,-365.13 220,-568.36 220,-568.36 220,-574.36 214,-580.36 208,-580.36 208,-580.36 32,-580.36 32,-580.36 26,-580.36 20,-574.36 20,-568.36 20,-568.36 20,-365.13 20,-365.13 20,-359.13 26,-353.13 32,-353.13"/>
<text xml:space="preserve" text-anchor="middle" x="119.75" y="-360.33" font-family="Times,serif" font-size="14.00">gp_weights_dim (25) x gp_by (2)</text>
</g>
<g id="clust4" class="cluster">
<title>cluster__obs__ (100)</title>
<path fill="none" stroke="black" d="M126,-8C126,-8 208,-8 208,-8 214,-8 220,-14 220,-20 220,-20 220,-321.23 220,-321.23 220,-327.23 214,-333.23 208,-333.23 208,-333.23 126,-333.23 126,-333.23 120,-333.23 114,-327.23 114,-321.23 114,-321.23 114,-20 114,-20 114,-14 120,-8 126,-8"/>
<text xml:space="preserve" text-anchor="middle" x="172.62" y="-15.2" font-family="Times,serif" font-size="14.00">__obs__ (100)</text>
</g>
<g id="clust5" class="cluster">
<title>clusterSite__factor_dim (4)</title>
<path fill="none" stroke="black" d="M357,-235.23C357,-235.23 469,-235.23 469,-235.23 475,-235.23 481,-241.23 481,-247.23 481,-247.23 481,-451.04 481,-451.04 481,-457.04 475,-463.04 469,-463.04 469,-463.04 357,-463.04 357,-463.04 351,-463.04 345,-457.04 345,-451.04 345,-451.04 345,-247.23 345,-247.23 345,-241.23 351,-235.23 357,-235.23"/>
<text xml:space="preserve" text-anchor="middle" x="416" y="-242.43" font-family="Times,serif" font-size="14.00">Site__factor_dim (4)</text>
</g>
<!-- Year -->
<g id="node1" class="node">
<title>Year</title>
<ellipse fill="none" stroke="black" cx="57" cy="-296.48" rx="41.01" ry="40.66"/>
<text xml:space="preserve" text-anchor="middle" x="57" y="-307.93" font-family="Times,serif" font-size="14.00">Year</text>
<text xml:space="preserve" text-anchor="middle" x="57" y="-291.43" font-family="Times,serif" font-size="14.00">~</text>
<text xml:space="preserve" text-anchor="middle" x="57" y="-274.93" font-family="Times,serif" font-size="14.00">Normal</text>
</g>
<!-- mu -->
<g id="node8" class="node">
<title>mu</title>
<polygon fill="none" stroke="black" points="212.12,-215.32 121.88,-215.32 121.88,-157.82 212.12,-157.82 212.12,-215.32"/>
<text xml:space="preserve" text-anchor="middle" x="167" y="-198.02" font-family="Times,serif" font-size="14.00">mu</text>
<text xml:space="preserve" text-anchor="middle" x="167" y="-181.52" font-family="Times,serif" font-size="14.00">~</text>
<text xml:space="preserve" text-anchor="middle" x="167" y="-165.02" font-family="Times,serif" font-size="14.00">Deterministic</text>
</g>
<!-- Year&#45;&gt;mu -->
<g id="edge8" class="edge">
<title>Year&#45;&gt;mu</title>
<path fill="none" stroke="black" d="M78.09,-261.37C86.98,-248.56 98.04,-234.43 110,-223.32 110.9,-222.48 111.82,-221.66 112.76,-220.84"/>
<polygon fill="black" stroke="black" points="114.82,-223.67 120.45,-214.69 110.45,-218.2 114.82,-223.67"/>
</g>
<!-- X1&amp;Year -->
<g id="node2" class="node">
<title>X1&amp;Year</title>
<ellipse fill="none" stroke="black" cx="280" cy="-296.48" rx="43.66" ry="40.66"/>
<text xml:space="preserve" text-anchor="middle" x="280" y="-307.93" font-family="Times,serif" font-size="14.00">X1:Year</text>
<text xml:space="preserve" text-anchor="middle" x="280" y="-291.43" font-family="Times,serif" font-size="14.00">~</text>
<text xml:space="preserve" text-anchor="middle" x="280" y="-274.93" font-family="Times,serif" font-size="14.00">Normal</text>
</g>
<!-- X1&amp;Year&#45;&gt;mu -->
<g id="edge9" class="edge">
<title>X1&amp;Year&#45;&gt;mu</title>
<path fill="none" stroke="black" d="M257.42,-261.44C247.99,-248.64 236.35,-234.49 224,-223.32 223.11,-222.51 222.2,-221.72 221.28,-220.93"/>
<polygon fill="black" stroke="black" points="223.78,-218.44 213.76,-215 219.44,-223.94 223.78,-218.44"/>
</g>
<!-- gp_ell -->
<g id="node3" class="node">
<title>gp_ell</title>
<ellipse fill="none" stroke="black" cx="281" cy="-531.7" rx="53.21" ry="40.66"/>
<text xml:space="preserve" text-anchor="middle" x="281" y="-543.15" font-family="Times,serif" font-size="14.00">gp_ell</text>
<text xml:space="preserve" text-anchor="middle" x="281" y="-526.65" font-family="Times,serif" font-size="14.00">~</text>
<text xml:space="preserve" text-anchor="middle" x="281" y="-510.15" font-family="Times,serif" font-size="14.00">Invgamma</text>
</g>
<!-- gp_weights -->
<g id="node6" class="node">
<title>gp_weights</title>
<polygon fill="none" stroke="black" points="212.12,-443.13 121.88,-443.13 121.88,-385.63 212.12,-385.63 212.12,-443.13"/>
<text xml:space="preserve" text-anchor="middle" x="167" y="-425.83" font-family="Times,serif" font-size="14.00">gp_weights</text>
<text xml:space="preserve" text-anchor="middle" x="167" y="-409.33" font-family="Times,serif" font-size="14.00">~</text>
<text xml:space="preserve" text-anchor="middle" x="167" y="-392.83" font-family="Times,serif" font-size="14.00">Deterministic</text>
</g>
<!-- gp_ell&#45;&gt;gp_weights -->
<g id="edge1" class="edge">
<title>gp_ell&#45;&gt;gp_weights</title>
<path fill="none" stroke="black" d="M249.24,-498.58C234.79,-483.96 217.63,-466.59 202.72,-451.52"/>
<polygon fill="black" stroke="black" points="205.29,-449.14 195.77,-444.49 200.32,-454.06 205.29,-449.14"/>
</g>
<!-- 1|Site_sigma -->
<g id="node4" class="node">
<title>1|Site_sigma</title>
<ellipse fill="none" stroke="black" cx="552" cy="-414.38" rx="61.16" ry="40.66"/>
<text xml:space="preserve" text-anchor="middle" x="552" y="-425.83" font-family="Times,serif" font-size="14.00">1|Site_sigma</text>
<text xml:space="preserve" text-anchor="middle" x="552" y="-409.33" font-family="Times,serif" font-size="14.00">~</text>
<text xml:space="preserve" text-anchor="middle" x="552" y="-392.83" font-family="Times,serif" font-size="14.00">Halfnormal</text>
</g>
<!-- 1|Site -->
<g id="node11" class="node">
<title>1|Site</title>
<polygon fill="none" stroke="black" points="458.12,-325.23 367.88,-325.23 367.88,-267.73 458.12,-267.73 458.12,-325.23"/>
<text xml:space="preserve" text-anchor="middle" x="413" y="-307.93" font-family="Times,serif" font-size="14.00">1|Site</text>
<text xml:space="preserve" text-anchor="middle" x="413" y="-291.43" font-family="Times,serif" font-size="14.00">~</text>
<text xml:space="preserve" text-anchor="middle" x="413" y="-274.93" font-family="Times,serif" font-size="14.00">Deterministic</text>
</g>
<!-- 1|Site_sigma&#45;&gt;1|Site -->
<g id="edge6" class="edge">
<title>1|Site_sigma&#45;&gt;1|Site</title>
<path fill="none" stroke="black" d="M516.62,-380.68C506.54,-371.6 495.45,-361.85 485,-353.13 476.81,-346.3 467.92,-339.2 459.29,-332.44"/>
<polygon fill="black" stroke="black" points="461.66,-329.85 451.61,-326.49 457.37,-335.38 461.66,-329.85"/>
</g>
<!-- gp_sigma -->
<g id="node5" class="node">
<title>gp_sigma</title>
<ellipse fill="none" stroke="black" cx="410" cy="-531.7" rx="57.45" ry="40.66"/>
<text xml:space="preserve" text-anchor="middle" x="410" y="-543.15" font-family="Times,serif" font-size="14.00">gp_sigma</text>
<text xml:space="preserve" text-anchor="middle" x="410" y="-526.65" font-family="Times,serif" font-size="14.00">~</text>
<text xml:space="preserve" text-anchor="middle" x="410" y="-510.15" font-family="Times,serif" font-size="14.00">Exponential</text>
</g>
<!-- gp_sigma&#45;&gt;gp_weights -->
<g id="edge2" class="edge">
<title>gp_sigma&#45;&gt;gp_weights</title>
<path fill="none" stroke="black" d="M367.21,-504.27C359.26,-499.68 350.95,-495.09 343,-491.04 303.77,-471.1 258.08,-451.57 223.08,-437.34"/>
<polygon fill="black" stroke="black" points="224.57,-434.17 213.99,-433.67 221.95,-440.66 224.57,-434.17"/>
</g>
<!-- gp -->
<g id="node10" class="node">
<title>gp</title>
<polygon fill="none" stroke="black" points="212.12,-325.23 121.88,-325.23 121.88,-267.73 212.12,-267.73 212.12,-325.23"/>
<text xml:space="preserve" text-anchor="middle" x="167" y="-307.93" font-family="Times,serif" font-size="14.00">gp</text>
<text xml:space="preserve" text-anchor="middle" x="167" y="-291.43" font-family="Times,serif" font-size="14.00">~</text>
<text xml:space="preserve" text-anchor="middle" x="167" y="-274.93" font-family="Times,serif" font-size="14.00">Deterministic</text>
</g>
<!-- gp_weights&#45;&gt;gp -->
<g id="edge4" class="edge">
<title>gp_weights&#45;&gt;gp</title>
<path fill="none" stroke="black" d="M167,-385.33C167,-370.77 167,-352.75 167,-336.82"/>
<polygon fill="black" stroke="black" points="170.5,-337.19 167,-327.19 163.5,-337.19 170.5,-337.19"/>
</g>
<!-- gp_weights_raw -->
<g id="node7" class="node">
<title>gp_weights_raw</title>
<ellipse fill="none" stroke="black" cx="135" cy="-531.7" rx="74.42" ry="40.66"/>
<text xml:space="preserve" text-anchor="middle" x="135" y="-543.15" font-family="Times,serif" font-size="14.00">gp_weights_raw</text>
<text xml:space="preserve" text-anchor="middle" x="135" y="-526.65" font-family="Times,serif" font-size="14.00">~</text>
<text xml:space="preserve" text-anchor="middle" x="135" y="-510.15" font-family="Times,serif" font-size="14.00">Normal</text>
</g>
<!-- gp_weights_raw&#45;&gt;gp_weights -->
<g id="edge3" class="edge">
<title>gp_weights_raw&#45;&gt;gp_weights</title>
<path fill="none" stroke="black" d="M146.01,-491.02C149.3,-479.17 152.9,-466.19 156.18,-454.39"/>
<polygon fill="black" stroke="black" points="159.49,-455.53 158.79,-444.96 152.75,-453.66 159.49,-455.53"/>
</g>
<!-- Count -->
<g id="node9" class="node">
<title>Count</title>
<ellipse fill="lightgrey" stroke="black" cx="167" cy="-81.16" rx="41.01" ry="40.66"/>
<text xml:space="preserve" text-anchor="middle" x="167" y="-92.61" font-family="Times,serif" font-size="14.00">Count</text>
<text xml:space="preserve" text-anchor="middle" x="167" y="-76.11" font-family="Times,serif" font-size="14.00">~</text>
<text xml:space="preserve" text-anchor="middle" x="167" y="-59.61" font-family="Times,serif" font-size="14.00">Poisson</text>
</g>
<!-- mu&#45;&gt;Count -->
<g id="edge11" class="edge">
<title>mu&#45;&gt;Count</title>
<path fill="none" stroke="black" d="M167,-157.58C167,-150.1 167,-141.77 167,-133.45"/>
<polygon fill="black" stroke="black" points="170.5,-133.71 167,-123.71 163.5,-133.71 170.5,-133.71"/>
</g>
<!-- gp&#45;&gt;mu -->
<g id="edge10" class="edge">
<title>gp&#45;&gt;mu</title>
<path fill="none" stroke="black" d="M167,-267.41C167,-255.04 167,-240.3 167,-226.87"/>
<polygon fill="black" stroke="black" points="170.5,-227.01 167,-217.01 163.5,-227.01 170.5,-227.01"/>
</g>
<!-- 1|Site&#45;&gt;mu -->
<g id="edge7" class="edge">
<title>1|Site&#45;&gt;mu</title>
<path fill="none" stroke="black" d="M391.95,-267.46C378.94,-252.11 360.94,-234.07 341,-223.32 304.75,-203.77 258.97,-194.89 223.47,-190.86"/>
<polygon fill="black" stroke="black" points="224.14,-187.41 213.83,-189.87 223.42,-194.38 224.14,-187.41"/>
</g>
<!-- 1|Site_offset -->
<g id="node12" class="node">
<title>1|Site_offset</title>
<ellipse fill="none" stroke="black" cx="413" cy="-414.38" rx="59.57" ry="40.66"/>
<text xml:space="preserve" text-anchor="middle" x="413" y="-425.83" font-family="Times,serif" font-size="14.00">1|Site_offset</text>
<text xml:space="preserve" text-anchor="middle" x="413" y="-409.33" font-family="Times,serif" font-size="14.00">~</text>
<text xml:space="preserve" text-anchor="middle" x="413" y="-392.83" font-family="Times,serif" font-size="14.00">Normal</text>
</g>
<!-- 1|Site_offset&#45;&gt;1|Site -->
<g id="edge5" class="edge">
<title>1|Site_offset&#45;&gt;1|Site</title>
<path fill="none" stroke="black" d="M413,-373.5C413,-361.61 413,-348.6 413,-336.75"/>
<polygon fill="black" stroke="black" points="416.5,-336.89 413,-326.89 409.5,-336.89 416.5,-336.89"/>
</g>
</g>
</svg>
