<?xml version="1.0" encoding="UTF-8" standalone="no"?>
<!DOCTYPE svg PUBLIC "-//W3C//DTD SVG 1.1//EN"
 "http://www.w3.org/Graphics/SVG/1.1/DTD/svg11.dtd">
<!-- Generated by graphviz version 2.50.0 (0)
 -->
<!-- Pages: 1 -->
<svg width="625pt" height="552pt"
 viewBox="0.00 0.00 625.00 551.86" xmlns="http://www.w3.org/2000/svg" xmlns:xlink="http://www.w3.org/1999/xlink">
<g id="graph0" class="graph" transform="scale(1 1) rotate(0) translate(4 547.86)">
<polygon fill="white" stroke="transparent" points="-4,4 -4,-547.86 621,-547.86 621,4 -4,4"/>
<g id="clust1" class="cluster">
<title>clusterhsgp_var (2)</title>
<path fill="none" stroke="black" d="M473,-421.91C473,-421.91 597,-421.91 597,-421.91 603,-421.91 609,-427.91 609,-433.91 609,-433.91 609,-523.86 609,-523.86 609,-529.86 603,-535.86 597,-535.86 597,-535.86 473,-535.86 473,-535.86 467,-535.86 461,-529.86 461,-523.86 461,-523.86 461,-433.91 461,-433.91 461,-427.91 467,-421.91 473,-421.91"/>
<text text-anchor="middle" x="556.5" y="-429.71" font-family="Times,serif" font-size="14.00">hsgp_var (2)</text>
</g>
<g id="clust2" class="cluster">
<title>clusterhsgp_weights_dim (100) x hsgp_by (3)</title>
<path fill="none" stroke="black" d="M20,-329.91C20,-329.91 286,-329.91 286,-329.91 292,-329.91 298,-335.91 298,-341.91 298,-341.91 298,-523.86 298,-523.86 298,-529.86 292,-535.86 286,-535.86 286,-535.86 20,-535.86 20,-535.86 14,-535.86 8,-529.86 8,-523.86 8,-523.86 8,-341.91 8,-341.91 8,-335.91 14,-329.91 20,-329.91"/>
<text text-anchor="middle" x="153" y="-337.71" font-family="Times,serif" font-size="14.00">hsgp_weights_dim (100) x hsgp_by (3)</text>
</g>
<g id="clust3" class="cluster">
<title>cluster__obs__ (432)</title>
<path fill="none" stroke="black" d="M180,-8C180,-8 286,-8 286,-8 292,-8 298,-14 298,-20 298,-20 298,-309.91 298,-309.91 298,-315.91 292,-321.91 286,-321.91 286,-321.91 180,-321.91 180,-321.91 174,-321.91 168,-315.91 168,-309.91 168,-309.91 168,-20 168,-20 168,-14 174,-8 180,-8"/>
<text text-anchor="middle" x="243" y="-15.8" font-family="Times,serif" font-size="14.00">__obs__ (432)</text>
</g>
<!-- sigma -->
<g id="node1" class="node">
<title>sigma</title>
<ellipse fill="none" stroke="black" cx="87" cy="-187.43" rx="70.92" ry="37.45"/>
<text text-anchor="middle" x="87" y="-198.73" font-family="Times,serif" font-size="14.00">sigma</text>
<text text-anchor="middle" x="87" y="-183.73" font-family="Times,serif" font-size="14.00">~</text>
<text text-anchor="middle" x="87" y="-168.73" font-family="Times,serif" font-size="14.00">HalfNormal</text>
</g>
<!-- outcome -->
<g id="node6" class="node">
<title>outcome</title>
<ellipse fill="lightgrey" stroke="black" cx="231" cy="-76.48" rx="54.39" ry="37.45"/>
<text text-anchor="middle" x="231" y="-87.78" font-family="Times,serif" font-size="14.00">outcome</text>
<text text-anchor="middle" x="231" y="-72.78" font-family="Times,serif" font-size="14.00">~</text>
<text text-anchor="middle" x="231" y="-57.78" font-family="Times,serif" font-size="14.00">Normal</text>
</g>
<!-- sigma&#45;&gt;outcome -->
<g id="edge6" class="edge">
<title>sigma&#45;&gt;outcome</title>
<path fill="none" stroke="black" d="M126.73,-156.37C145.38,-142.26 167.67,-125.4 186.84,-110.89"/>
<polygon fill="black" stroke="black" points="188.99,-113.65 194.85,-104.83 184.76,-108.07 188.99,-113.65"/>
</g>
<!-- hsgp_sigma -->
<g id="node2" class="node">
<title>hsgp_sigma</title>
<ellipse fill="none" stroke="black" cx="378" cy="-490.38" rx="72.25" ry="37.45"/>
<text text-anchor="middle" x="378" y="-501.68" font-family="Times,serif" font-size="14.00">hsgp_sigma</text>
<text text-anchor="middle" x="378" y="-486.68" font-family="Times,serif" font-size="14.00">~</text>
<text text-anchor="middle" x="378" y="-471.68" font-family="Times,serif" font-size="14.00">Exponential</text>
</g>
<!-- hsgp_weights -->
<g id="node4" class="node">
<title>hsgp_weights</title>
<polygon fill="none" stroke="black" points="290,-413.91 176,-413.91 176,-360.91 290,-360.91 290,-413.91"/>
<text text-anchor="middle" x="233" y="-398.71" font-family="Times,serif" font-size="14.00">hsgp_weights</text>
<text text-anchor="middle" x="233" y="-383.71" font-family="Times,serif" font-size="14.00">~</text>
<text text-anchor="middle" x="233" y="-368.71" font-family="Times,serif" font-size="14.00">Deterministic</text>
</g>
<!-- hsgp_sigma&#45;&gt;hsgp_weights -->
<g id="edge3" class="edge">
<title>hsgp_sigma&#45;&gt;hsgp_weights</title>
<path fill="none" stroke="black" d="M345.2,-456.71C332.37,-444.9 317.11,-432 302,-421.91 300.59,-420.97 299.15,-420.04 297.69,-419.12"/>
<polygon fill="black" stroke="black" points="299.48,-416.11 289.1,-414 295.9,-422.12 299.48,-416.11"/>
</g>
<!-- hsgp_ell -->
<g id="node3" class="node">
<title>hsgp_ell</title>
<ellipse fill="none" stroke="black" cx="535" cy="-490.38" rx="66.44" ry="37.45"/>
<text text-anchor="middle" x="535" y="-501.68" font-family="Times,serif" font-size="14.00">hsgp_ell</text>
<text text-anchor="middle" x="535" y="-486.68" font-family="Times,serif" font-size="14.00">~</text>
<text text-anchor="middle" x="535" y="-471.68" font-family="Times,serif" font-size="14.00">InvGamma</text>
</g>
<!-- hsgp_ell&#45;&gt;hsgp_weights -->
<g id="edge1" class="edge">
<title>hsgp_ell&#45;&gt;hsgp_weights</title>
<path fill="none" stroke="black" d="M506.2,-456.58C493.09,-443.73 476.59,-430.11 459,-421.91 409.21,-398.67 347.13,-390.77 300.64,-388.42"/>
<polygon fill="black" stroke="black" points="300.51,-384.91 290.37,-387.97 300.21,-391.9 300.51,-384.91"/>
</g>
<!-- hsgp -->
<g id="node7" class="node">
<title>hsgp</title>
<polygon fill="none" stroke="black" points="290,-313.91 176,-313.91 176,-260.91 290,-260.91 290,-313.91"/>
<text text-anchor="middle" x="233" y="-298.71" font-family="Times,serif" font-size="14.00">hsgp</text>
<text text-anchor="middle" x="233" y="-283.71" font-family="Times,serif" font-size="14.00">~</text>
<text text-anchor="middle" x="233" y="-268.71" font-family="Times,serif" font-size="14.00">Deterministic</text>
</g>
<!-- hsgp_weights&#45;&gt;hsgp -->
<g id="edge4" class="edge">
<title>hsgp_weights&#45;&gt;hsgp</title>
<path fill="none" stroke="black" d="M233,-360.66C233,-349.52 233,-336.29 233,-324.21"/>
<polygon fill="black" stroke="black" points="236.5,-323.98 233,-313.98 229.5,-323.98 236.5,-323.98"/>
</g>
<!-- hsgp_weights_raw -->
<g id="node5" class="node">
<title>hsgp_weights_raw</title>
<ellipse fill="none" stroke="black" cx="183" cy="-490.38" rx="104.8" ry="37.45"/>
<text text-anchor="middle" x="183" y="-501.68" font-family="Times,serif" font-size="14.00">hsgp_weights_raw</text>
<text text-anchor="middle" x="183" y="-486.68" font-family="Times,serif" font-size="14.00">~</text>
<text text-anchor="middle" x="183" y="-471.68" font-family="Times,serif" font-size="14.00">Normal</text>
</g>
<!-- hsgp_weights_raw&#45;&gt;hsgp_weights -->
<g id="edge2" class="edge">
<title>hsgp_weights_raw&#45;&gt;hsgp_weights</title>
<path fill="none" stroke="black" d="M200.91,-453.21C205.75,-443.44 210.98,-432.88 215.78,-423.18"/>
<polygon fill="black" stroke="black" points="218.93,-424.71 220.23,-414.2 212.66,-421.6 218.93,-424.71"/>
</g>
<!-- mu -->
<g id="node8" class="node">
<title>mu</title>
<polygon fill="none" stroke="black" points="290,-213.93 176,-213.93 176,-160.93 290,-160.93 290,-213.93"/>
<text text-anchor="middle" x="233" y="-198.73" font-family="Times,serif" font-size="14.00">mu</text>
<text text-anchor="middle" x="233" y="-183.73" font-family="Times,serif" font-size="14.00">~</text>
<text text-anchor="middle" x="233" y="-168.73" font-family="Times,serif" font-size="14.00">Deterministic</text>
</g>
<!-- hsgp&#45;&gt;mu -->
<g id="edge5" class="edge">
<title>hsgp&#45;&gt;mu</title>
<path fill="none" stroke="black" d="M233,-260.66C233,-249.53 233,-236.3 233,-224.23"/>
<polygon fill="black" stroke="black" points="236.5,-224 233,-214 229.5,-224 236.5,-224"/>
</g>
<!-- mu&#45;&gt;outcome -->
<g id="edge7" class="edge">
<title>mu&#45;&gt;outcome</title>
<path fill="none" stroke="black" d="M232.53,-160.89C232.33,-149.98 232.09,-136.89 231.86,-124.35"/>
<polygon fill="black" stroke="black" points="235.35,-123.94 231.67,-114 228.35,-124.06 235.35,-123.94"/>
</g>
</g>
</svg>
