<?xml version="1.0" encoding="UTF-8" standalone="no"?>
<!DOCTYPE svg PUBLIC "-//W3C//DTD SVG 1.1//EN"
 "http://www.w3.org/Graphics/SVG/1.1/DTD/svg11.dtd">
<!-- Generated by graphviz version 2.50.0 (0)
 -->
<!-- Pages: 1 -->
<svg width="595pt" height="549pt"
 viewBox="0.00 0.00 595.18 548.86" xmlns="http://www.w3.org/2000/svg" xmlns:xlink="http://www.w3.org/1999/xlink">
<g id="graph0" class="graph" transform="scale(1 1) rotate(0) translate(4 544.86)">
<polygon fill="white" stroke="transparent" points="-4,4 -4,-544.86 591.18,-544.86 591.18,4 -4,4"/>
<g id="clust1" class="cluster">
<title>clusterhsgp_weights_dim (100)</title>
<path fill="none" stroke="black" d="M67.71,-329.91C67.71,-329.91 269.71,-329.91 269.71,-329.91 275.71,-329.91 281.71,-335.91 281.71,-341.91 281.71,-341.91 281.71,-520.86 281.71,-520.86 281.71,-526.86 275.71,-532.86 269.71,-532.86 269.71,-532.86 67.71,-532.86 67.71,-532.86 61.71,-532.86 55.71,-526.86 55.71,-520.86 55.71,-520.86 55.71,-341.91 55.71,-341.91 55.71,-335.91 61.71,-329.91 67.71,-329.91"/>
<text text-anchor="middle" x="186.71" y="-337.71" font-family="Times,serif" font-size="14.00">hsgp_weights_dim (100)</text>
</g>
<g id="clust2" class="cluster">
<title>cluster__obs__ (144)</title>
<path fill="none" stroke="black" d="M163.71,-8C163.71,-8 269.71,-8 269.71,-8 275.71,-8 281.71,-14 281.71,-20 281.71,-20 281.71,-309.91 281.71,-309.91 281.71,-315.91 275.71,-321.91 269.71,-321.91 269.71,-321.91 163.71,-321.91 163.71,-321.91 157.71,-321.91 151.71,-315.91 151.71,-309.91 151.71,-309.91 151.71,-20 151.71,-20 151.71,-14 157.71,-8 163.71,-8"/>
<text text-anchor="middle" x="226.71" y="-15.8" font-family="Times,serif" font-size="14.00">__obs__ (144)</text>
</g>
<!-- sigma -->
<g id="node1" class="node">
<title>sigma</title>
<ellipse fill="none" stroke="black" cx="70.71" cy="-187.43" rx="70.92" ry="37.45"/>
<text text-anchor="middle" x="70.71" y="-198.73" font-family="Times,serif" font-size="14.00">sigma</text>
<text text-anchor="middle" x="70.71" y="-183.73" font-family="Times,serif" font-size="14.00">~</text>
<text text-anchor="middle" x="70.71" y="-168.73" font-family="Times,serif" font-size="14.00">HalfNormal</text>
</g>
<!-- outcome -->
<g id="node6" class="node">
<title>outcome</title>
<ellipse fill="lightgrey" stroke="black" cx="214.71" cy="-76.48" rx="54.39" ry="37.45"/>
<text text-anchor="middle" x="214.71" y="-87.78" font-family="Times,serif" font-size="14.00">outcome</text>
<text text-anchor="middle" x="214.71" y="-72.78" font-family="Times,serif" font-size="14.00">~</text>
<text text-anchor="middle" x="214.71" y="-57.78" font-family="Times,serif" font-size="14.00">Normal</text>
</g>
<!-- sigma&#45;&gt;outcome -->
<g id="edge6" class="edge">
<title>sigma&#45;&gt;outcome</title>
<path fill="none" stroke="black" d="M110.44,-156.37C129.09,-142.26 151.38,-125.4 170.55,-110.89"/>
<polygon fill="black" stroke="black" points="172.7,-113.65 178.56,-104.83 168.47,-108.07 172.7,-113.65"/>
</g>
<!-- hsgp_sigma -->
<g id="node2" class="node">
<title>hsgp_sigma</title>
<ellipse fill="none" stroke="black" cx="363.71" cy="-487.38" rx="72.25" ry="37.45"/>
<text text-anchor="middle" x="363.71" y="-498.68" font-family="Times,serif" font-size="14.00">hsgp_sigma</text>
<text text-anchor="middle" x="363.71" y="-483.68" font-family="Times,serif" font-size="14.00">~</text>
<text text-anchor="middle" x="363.71" y="-468.68" font-family="Times,serif" font-size="14.00">Exponential</text>
</g>
<!-- hsgp_weights -->
<g id="node4" class="node">
<title>hsgp_weights</title>
<polygon fill="none" stroke="black" points="273.71,-413.91 159.71,-413.91 159.71,-360.91 273.71,-360.91 273.71,-413.91"/>
<text text-anchor="middle" x="216.71" y="-398.71" font-family="Times,serif" font-size="14.00">hsgp_weights</text>
<text text-anchor="middle" x="216.71" y="-383.71" font-family="Times,serif" font-size="14.00">~</text>
<text text-anchor="middle" x="216.71" y="-368.71" font-family="Times,serif" font-size="14.00">Deterministic</text>
</g>
<!-- hsgp_sigma&#45;&gt;hsgp_weights -->
<g id="edge3" class="edge">
<title>hsgp_sigma&#45;&gt;hsgp_weights</title>
<path fill="none" stroke="black" d="M320,-457.25C302.26,-445.42 281.72,-431.74 263.66,-419.7"/>
<polygon fill="black" stroke="black" points="265.27,-416.57 255.01,-413.93 261.39,-422.39 265.27,-416.57"/>
</g>
<!-- hsgp_ell -->
<g id="node3" class="node">
<title>hsgp_ell</title>
<ellipse fill="none" stroke="black" cx="520.71" cy="-487.38" rx="66.44" ry="37.45"/>
<text text-anchor="middle" x="520.71" y="-498.68" font-family="Times,serif" font-size="14.00">hsgp_ell</text>
<text text-anchor="middle" x="520.71" y="-483.68" font-family="Times,serif" font-size="14.00">~</text>
<text text-anchor="middle" x="520.71" y="-468.68" font-family="Times,serif" font-size="14.00">InvGamma</text>
</g>
<!-- hsgp_ell&#45;&gt;hsgp_weights -->
<g id="edge1" class="edge">
<title>hsgp_ell&#45;&gt;hsgp_weights</title>
<path fill="none" stroke="black" d="M472.23,-461.49C463.2,-457.32 453.77,-453.27 444.71,-449.91 391.72,-430.23 329.67,-413.91 283.69,-403.04"/>
<polygon fill="black" stroke="black" points="284.37,-399.6 273.84,-400.73 282.78,-406.42 284.37,-399.6"/>
</g>
<!-- hsgp -->
<g id="node7" class="node">
<title>hsgp</title>
<polygon fill="none" stroke="black" points="273.71,-313.91 159.71,-313.91 159.71,-260.91 273.71,-260.91 273.71,-313.91"/>
<text text-anchor="middle" x="216.71" y="-298.71" font-family="Times,serif" font-size="14.00">hsgp</text>
<text text-anchor="middle" x="216.71" y="-283.71" font-family="Times,serif" font-size="14.00">~</text>
<text text-anchor="middle" x="216.71" y="-268.71" font-family="Times,serif" font-size="14.00">Deterministic</text>
</g>
<!-- hsgp_weights&#45;&gt;hsgp -->
<g id="edge4" class="edge">
<title>hsgp_weights&#45;&gt;hsgp</title>
<path fill="none" stroke="black" d="M216.71,-360.66C216.71,-349.52 216.71,-336.29 216.71,-324.21"/>
<polygon fill="black" stroke="black" points="220.21,-323.98 216.71,-313.98 213.21,-323.98 220.21,-323.98"/>
</g>
<!-- hsgp_weights_raw -->
<g id="node5" class="node">
<title>hsgp_weights_raw</title>
<ellipse fill="none" stroke="black" cx="168.71" cy="-487.38" rx="104.8" ry="37.45"/>
<text text-anchor="middle" x="168.71" y="-498.68" font-family="Times,serif" font-size="14.00">hsgp_weights_raw</text>
<text text-anchor="middle" x="168.71" y="-483.68" font-family="Times,serif" font-size="14.00">~</text>
<text text-anchor="middle" x="168.71" y="-468.68" font-family="Times,serif" font-size="14.00">Normal</text>
</g>
<!-- hsgp_weights_raw&#45;&gt;hsgp_weights -->
<g id="edge2" class="edge">
<title>hsgp_weights_raw&#45;&gt;hsgp_weights</title>
<path fill="none" stroke="black" d="M186.45,-450.18C190.76,-441.37 195.37,-431.97 199.65,-423.23"/>
<polygon fill="black" stroke="black" points="202.88,-424.58 204.14,-414.06 196.6,-421.5 202.88,-424.58"/>
</g>
<!-- mu -->
<g id="node8" class="node">
<title>mu</title>
<polygon fill="none" stroke="black" points="273.71,-213.93 159.71,-213.93 159.71,-160.93 273.71,-160.93 273.71,-213.93"/>
<text text-anchor="middle" x="216.71" y="-198.73" font-family="Times,serif" font-size="14.00">mu</text>
<text text-anchor="middle" x="216.71" y="-183.73" font-family="Times,serif" font-size="14.00">~</text>
<text text-anchor="middle" x="216.71" y="-168.73" font-family="Times,serif" font-size="14.00">Deterministic</text>
</g>
<!-- hsgp&#45;&gt;mu -->
<g id="edge5" class="edge">
<title>hsgp&#45;&gt;mu</title>
<path fill="none" stroke="black" d="M216.71,-260.66C216.71,-249.53 216.71,-236.3 216.71,-224.23"/>
<polygon fill="black" stroke="black" points="220.21,-224 216.71,-214 213.21,-224 220.21,-224"/>
</g>
<!-- mu&#45;&gt;outcome -->
<g id="edge7" class="edge">
<title>mu&#45;&gt;outcome</title>
<path fill="none" stroke="black" d="M216.24,-160.89C216.04,-149.98 215.8,-136.89 215.57,-124.35"/>
<polygon fill="black" stroke="black" points="219.06,-123.94 215.38,-114 212.07,-124.06 219.06,-123.94"/>
</g>
</g>
</svg>
