<?xml version="1.0" encoding="UTF-8" standalone="no"?>
<!DOCTYPE svg PUBLIC "-//W3C//DTD SVG 1.1//EN"
 "http://www.w3.org/Graphics/SVG/1.1/DTD/svg11.dtd">
<!-- Generated by graphviz version 2.50.0 (0)
 -->
<!-- Pages: 1 -->
<svg width="508pt" height="455pt"
 viewBox="0.00 0.00 507.98 454.86" xmlns="http://www.w3.org/2000/svg" xmlns:xlink="http://www.w3.org/1999/xlink">
<g id="graph0" class="graph" transform="scale(1 1) rotate(0) translate(4 450.86)">
<polygon fill="white" stroke="transparent" points="-4,4 -4,-450.86 503.98,-450.86 503.98,4 -4,4"/>
<g id="clust1" class="cluster">
<title>clusterhsgp_var (2)</title>
<path fill="none" stroke="black" d="M375.98,-324.91C375.98,-324.91 479.98,-324.91 479.98,-324.91 485.98,-324.91 491.98,-330.91 491.98,-336.91 491.98,-336.91 491.98,-426.86 491.98,-426.86 491.98,-432.86 485.98,-438.86 479.98,-438.86 479.98,-438.86 375.98,-438.86 375.98,-438.86 369.98,-438.86 363.98,-432.86 363.98,-426.86 363.98,-426.86 363.98,-336.91 363.98,-336.91 363.98,-330.91 369.98,-324.91 375.98,-324.91"/>
<text text-anchor="middle" x="448.98" y="-332.71" font-family="Times,serif" font-size="14.00">hsgp_var (2)</text>
</g>
<g id="clust2" class="cluster">
<title>clusterhsgp_weights_dim (100) x hsgp_by (3)</title>
<path fill="none" stroke="black" d="M135.98,-232.91C135.98,-232.91 343.98,-232.91 343.98,-232.91 349.98,-232.91 355.98,-238.91 355.98,-244.91 355.98,-244.91 355.98,-426.86 355.98,-426.86 355.98,-432.86 349.98,-438.86 343.98,-438.86 343.98,-438.86 135.98,-438.86 135.98,-438.86 129.98,-438.86 123.98,-432.86 123.98,-426.86 123.98,-426.86 123.98,-244.91 123.98,-244.91 123.98,-238.91 129.98,-232.91 135.98,-232.91"/>
<text text-anchor="middle" x="239.98" y="-240.71" font-family="Times,serif" font-size="14.00">hsgp_weights_dim (100) x hsgp_by (3)</text>
</g>
<g id="clust3" class="cluster">
<title>clusteroutcome_obs (432)</title>
<path fill="none" stroke="black" d="M185.98,-8C185.98,-8 283.98,-8 283.98,-8 289.98,-8 295.98,-14 295.98,-20 295.98,-20 295.98,-209.93 295.98,-209.93 295.98,-215.93 289.98,-221.93 283.98,-221.93 283.98,-221.93 185.98,-221.93 185.98,-221.93 179.98,-221.93 173.98,-215.93 173.98,-209.93 173.98,-209.93 173.98,-20 173.98,-20 173.98,-14 179.98,-8 185.98,-8"/>
<text text-anchor="middle" x="234.98" y="-15.8" font-family="Times,serif" font-size="14.00">outcome_obs (432)</text>
</g>
<!-- hsgp_sigma -->
<g id="node1" class="node">
<title>hsgp_sigma</title>
<ellipse fill="none" stroke="black" cx="57.98" cy="-393.38" rx="57.97" ry="37.45"/>
<text text-anchor="middle" x="57.98" y="-404.68" font-family="Times,serif" font-size="14.00">hsgp_sigma</text>
<text text-anchor="middle" x="57.98" y="-389.68" font-family="Times,serif" font-size="14.00">~</text>
<text text-anchor="middle" x="57.98" y="-374.68" font-family="Times,serif" font-size="14.00">Exponential</text>
</g>
<!-- hsgp_weights -->
<g id="node4" class="node">
<title>hsgp_weights</title>
<polygon fill="none" stroke="black" points="286.48,-316.91 195.48,-316.91 195.48,-263.91 286.48,-263.91 286.48,-316.91"/>
<text text-anchor="middle" x="240.98" y="-301.71" font-family="Times,serif" font-size="14.00">hsgp_weights</text>
<text text-anchor="middle" x="240.98" y="-286.71" font-family="Times,serif" font-size="14.00">~</text>
<text text-anchor="middle" x="240.98" y="-271.71" font-family="Times,serif" font-size="14.00">Deterministic</text>
</g>
<!-- hsgp_sigma&#45;&gt;hsgp_weights -->
<g id="edge1" class="edge">
<title>hsgp_sigma&#45;&gt;hsgp_weights</title>
<path fill="none" stroke="black" d="M82.08,-359.09C92.49,-346.79 105.6,-333.7 119.98,-324.91 139.73,-312.83 163.91,-305.01 185.45,-299.99"/>
<polygon fill="black" stroke="black" points="186.43,-303.36 195.46,-297.81 184.94,-296.52 186.43,-303.36"/>
</g>
<!-- outcome_sigma -->
<g id="node2" class="node">
<title>outcome_sigma</title>
<ellipse fill="none" stroke="black" cx="377.98" cy="-187.43" rx="73.58" ry="37.45"/>
<text text-anchor="middle" x="377.98" y="-198.73" font-family="Times,serif" font-size="14.00">outcome_sigma</text>
<text text-anchor="middle" x="377.98" y="-183.73" font-family="Times,serif" font-size="14.00">~</text>
<text text-anchor="middle" x="377.98" y="-168.73" font-family="Times,serif" font-size="14.00">HalfNormal</text>
</g>
<!-- outcome -->
<g id="node6" class="node">
<title>outcome</title>
<ellipse fill="lightgrey" stroke="black" cx="241.98" cy="-76.48" rx="45.01" ry="37.45"/>
<text text-anchor="middle" x="241.98" y="-87.78" font-family="Times,serif" font-size="14.00">outcome</text>
<text text-anchor="middle" x="241.98" y="-72.78" font-family="Times,serif" font-size="14.00">~</text>
<text text-anchor="middle" x="241.98" y="-57.78" font-family="Times,serif" font-size="14.00">Normal</text>
</g>
<!-- outcome_sigma&#45;&gt;outcome -->
<g id="edge5" class="edge">
<title>outcome_sigma&#45;&gt;outcome</title>
<path fill="none" stroke="black" d="M339.37,-155.5C321.53,-141.21 300.35,-124.23 282.3,-109.77"/>
<polygon fill="black" stroke="black" points="284.24,-106.85 274.25,-103.33 279.87,-112.31 284.24,-106.85"/>
</g>
<!-- hsgp_ell -->
<g id="node3" class="node">
<title>hsgp_ell</title>
<ellipse fill="none" stroke="black" cx="427.98" cy="-393.38" rx="55.72" ry="37.45"/>
<text text-anchor="middle" x="427.98" y="-404.68" font-family="Times,serif" font-size="14.00">hsgp_ell</text>
<text text-anchor="middle" x="427.98" y="-389.68" font-family="Times,serif" font-size="14.00">~</text>
<text text-anchor="middle" x="427.98" y="-374.68" font-family="Times,serif" font-size="14.00">InvGamma</text>
</g>
<!-- hsgp_ell&#45;&gt;hsgp_weights -->
<g id="edge3" class="edge">
<title>hsgp_ell&#45;&gt;hsgp_weights</title>
<path fill="none" stroke="black" d="M401.96,-360.22C390.29,-347.63 375.64,-334.04 359.98,-324.91 340.7,-313.66 317.45,-306.03 296.64,-300.92"/>
<polygon fill="black" stroke="black" points="297.17,-297.45 286.64,-298.61 295.6,-304.27 297.17,-297.45"/>
</g>
<!-- hsgp -->
<g id="node7" class="node">
<title>hsgp</title>
<polygon fill="none" stroke="black" points="286.48,-213.93 195.48,-213.93 195.48,-160.93 286.48,-160.93 286.48,-213.93"/>
<text text-anchor="middle" x="240.98" y="-198.73" font-family="Times,serif" font-size="14.00">hsgp</text>
<text text-anchor="middle" x="240.98" y="-183.73" font-family="Times,serif" font-size="14.00">~</text>
<text text-anchor="middle" x="240.98" y="-168.73" font-family="Times,serif" font-size="14.00">Deterministic</text>
</g>
<!-- hsgp_weights&#45;&gt;hsgp -->
<g id="edge4" class="edge">
<title>hsgp_weights&#45;&gt;hsgp</title>
<path fill="none" stroke="black" d="M240.98,-263.66C240.98,-251.68 240.98,-237.22 240.98,-224.19"/>
<polygon fill="black" stroke="black" points="244.48,-224.12 240.98,-214.12 237.48,-224.12 244.48,-224.12"/>
</g>
<!-- hsgp_weights_raw -->
<g id="node5" class="node">
<title>hsgp_weights_raw</title>
<ellipse fill="none" stroke="black" cx="240.98" cy="-393.38" rx="83.38" ry="37.45"/>
<text text-anchor="middle" x="240.98" y="-404.68" font-family="Times,serif" font-size="14.00">hsgp_weights_raw</text>
<text text-anchor="middle" x="240.98" y="-389.68" font-family="Times,serif" font-size="14.00">~</text>
<text text-anchor="middle" x="240.98" y="-374.68" font-family="Times,serif" font-size="14.00">Normal</text>
</g>
<!-- hsgp_weights_raw&#45;&gt;hsgp_weights -->
<g id="edge2" class="edge">
<title>hsgp_weights_raw&#45;&gt;hsgp_weights</title>
<path fill="none" stroke="black" d="M240.98,-355.64C240.98,-346.38 240.98,-336.46 240.98,-327.24"/>
<polygon fill="black" stroke="black" points="244.48,-327.22 240.98,-317.22 237.48,-327.22 244.48,-327.22"/>
</g>
<!-- hsgp&#45;&gt;outcome -->
<g id="edge6" class="edge">
<title>hsgp&#45;&gt;outcome</title>
<path fill="none" stroke="black" d="M241.22,-160.89C241.32,-149.98 241.44,-136.89 241.55,-124.35"/>
<polygon fill="black" stroke="black" points="245.06,-124.03 241.65,-114 238.06,-123.97 245.06,-124.03"/>
</g>
</g>
</svg>
