<?xml version="1.0" encoding="UTF-8" standalone="no"?>
<!DOCTYPE svg PUBLIC "-//W3C//DTD SVG 1.1//EN"
 "http://www.w3.org/Graphics/SVG/1.1/DTD/svg11.dtd">
<!-- Generated by graphviz version 2.42.3 (20191010.1750)
 -->
<!-- Title: %3 Pages: 1 -->
<svg width="326pt" height="260pt"
 viewBox="0.00 0.00 326.49 259.91" xmlns="http://www.w3.org/2000/svg" xmlns:xlink="http://www.w3.org/1999/xlink">
<g id="graph0" class="graph" transform="scale(1 1) rotate(0) translate(4 255.91)">
<title>%3</title>
<polygon fill="white" stroke="transparent" points="-4,4 -4,-255.91 322.49,-255.91 322.49,4 -4,4"/>
<g id="clust1" class="cluster">
<title>clustercounty:floor_dim (170)</title>
<path fill="none" stroke="black" d="M20,-129.95C20,-129.95 141,-129.95 141,-129.95 147,-129.95 153,-135.95 153,-141.95 153,-141.95 153,-231.91 153,-231.91 153,-237.91 147,-243.91 141,-243.91 141,-243.91 20,-243.91 20,-243.91 14,-243.91 8,-237.91 8,-231.91 8,-231.91 8,-141.95 8,-141.95 8,-135.95 14,-129.95 20,-129.95"/>
<text text-anchor="middle" x="80.5" y="-137.75" font-family="Times,serif" font-size="14.00">county:floor_dim (170)</text>
</g>
<g id="clust2" class="cluster">
<title>cluster919</title>
<path fill="none" stroke="black" d="M44,-8C44,-8 136,-8 136,-8 142,-8 148,-14 148,-20 148,-20 148,-109.95 148,-109.95 148,-115.95 142,-121.95 136,-121.95 136,-121.95 44,-121.95 44,-121.95 38,-121.95 32,-115.95 32,-109.95 32,-109.95 32,-20 32,-20 32,-14 38,-8 44,-8"/>
<text text-anchor="middle" x="129.5" y="-15.8" font-family="Times,serif" font-size="14.00">919</text>
</g>
<!-- county&amp;floor -->
<g id="node1" class="node">
<title>county&amp;floor</title>
<ellipse fill="none" stroke="black" cx="85" cy="-198.43" rx="58.88" ry="37.45"/>
<text text-anchor="middle" x="85" y="-209.73" font-family="Times,serif" font-size="14.00">county:floor</text>
<text text-anchor="middle" x="85" y="-194.73" font-family="Times,serif" font-size="14.00">~</text>
<text text-anchor="middle" x="85" y="-179.73" font-family="Times,serif" font-size="14.00">Normal</text>
</g>
<!-- log_radon -->
<g id="node3" class="node">
<title>log_radon</title>
<ellipse fill="lightgrey" stroke="black" cx="90" cy="-76.48" rx="50.41" ry="37.45"/>
<text text-anchor="middle" x="90" y="-87.78" font-family="Times,serif" font-size="14.00">log_radon</text>
<text text-anchor="middle" x="90" y="-72.78" font-family="Times,serif" font-size="14.00">~</text>
<text text-anchor="middle" x="90" y="-57.78" font-family="Times,serif" font-size="14.00">Normal</text>
</g>
<!-- county&amp;floor&#45;&gt;log_radon -->
<g id="edge1" class="edge">
<title>county&amp;floor&#45;&gt;log_radon</title>
<path fill="none" stroke="black" d="M86.53,-160.79C87,-149.38 87.53,-136.65 88.03,-124.63"/>
<polygon fill="black" stroke="black" points="91.55,-124.44 88.46,-114.31 84.55,-124.15 91.55,-124.44"/>
</g>
<!-- log_radon_sigma -->
<g id="node2" class="node">
<title>log_radon_sigma</title>
<ellipse fill="none" stroke="black" cx="240" cy="-198.43" rx="78.48" ry="37.45"/>
<text text-anchor="middle" x="240" y="-209.73" font-family="Times,serif" font-size="14.00">log_radon_sigma</text>
<text text-anchor="middle" x="240" y="-194.73" font-family="Times,serif" font-size="14.00">~</text>
<text text-anchor="middle" x="240" y="-179.73" font-family="Times,serif" font-size="14.00">Exponential</text>
</g>
<!-- log_radon_sigma&#45;&gt;log_radon -->
<g id="edge2" class="edge">
<title>log_radon_sigma&#45;&gt;log_radon</title>
<path fill="none" stroke="black" d="M201.27,-165.7C187.36,-154.37 171.52,-141.54 157,-129.95 149.03,-123.59 140.49,-116.85 132.27,-110.39"/>
<polygon fill="black" stroke="black" points="134.21,-107.47 124.18,-104.05 129.89,-112.98 134.21,-107.47"/>
</g>
</g>
</svg>
