<?xml version="1.0" encoding="UTF-8" standalone="no"?>
<!DOCTYPE svg PUBLIC "-//W3C//DTD SVG 1.1//EN"
 "http://www.w3.org/Graphics/SVG/1.1/DTD/svg11.dtd">
<!-- Generated by graphviz version 2.50.0 (0)
 -->
<!-- Pages: 1 -->
<svg width="765pt" height="382pt"
 viewBox="0.00 0.00 765.49 381.86" xmlns="http://www.w3.org/2000/svg" xmlns:xlink="http://www.w3.org/1999/xlink">
<g id="graph0" class="graph" transform="scale(1 1) rotate(0) translate(4 377.86)">
<polygon fill="white" stroke="transparent" points="-4,4 -4,-377.86 761.49,-377.86 761.49,4 -4,4"/>
<g id="clust1" class="cluster">
<title>clusterfloor_dim (2)</title>
<path fill="none" stroke="black" d="M178.49,-129.95C178.49,-129.95 254.49,-129.95 254.49,-129.95 260.49,-129.95 266.49,-135.95 266.49,-141.95 266.49,-141.95 266.49,-231.91 266.49,-231.91 266.49,-237.91 260.49,-243.91 254.49,-243.91 254.49,-243.91 178.49,-243.91 178.49,-243.91 172.49,-243.91 166.49,-237.91 166.49,-231.91 166.49,-231.91 166.49,-141.95 166.49,-141.95 166.49,-135.95 172.49,-129.95 178.49,-129.95"/>
<text text-anchor="middle" x="220.99" y="-137.75" font-family="Times,serif" font-size="14.00">floor_dim (2)</text>
</g>
<g id="clust2" class="cluster">
<title>clusterfloor__expr_dim (2)</title>
<path fill="none" stroke="black" d="M573.49,-251.91C573.49,-251.91 737.49,-251.91 737.49,-251.91 743.49,-251.91 749.49,-257.91 749.49,-263.91 749.49,-263.91 749.49,-353.86 749.49,-353.86 749.49,-359.86 743.49,-365.86 737.49,-365.86 737.49,-365.86 573.49,-365.86 573.49,-365.86 567.49,-365.86 561.49,-359.86 561.49,-353.86 561.49,-353.86 561.49,-263.91 561.49,-263.91 561.49,-257.91 567.49,-251.91 573.49,-251.91"/>
<text text-anchor="middle" x="685.49" y="-259.71" font-family="Times,serif" font-size="14.00">floor__expr_dim (2)</text>
</g>
<g id="clust3" class="cluster">
<title>clustercounty__factor_dim (85) x floor__expr_dim (2)</title>
<path fill="none" stroke="black" d="M286.49,-140.93C286.49,-140.93 541.49,-140.93 541.49,-140.93 547.49,-140.93 553.49,-146.93 553.49,-152.93 553.49,-152.93 553.49,-353.86 553.49,-353.86 553.49,-359.86 547.49,-365.86 541.49,-365.86 541.49,-365.86 286.49,-365.86 286.49,-365.86 280.49,-365.86 274.49,-359.86 274.49,-353.86 274.49,-353.86 274.49,-152.93 274.49,-152.93 274.49,-146.93 280.49,-140.93 286.49,-140.93"/>
<text text-anchor="middle" x="413.99" y="-148.73" font-family="Times,serif" font-size="14.00">county__factor_dim (85) x floor__expr_dim (2)</text>
</g>
<g id="clust4" class="cluster">
<title>clusterlog_radon_obs (919)</title>
<path fill="none" stroke="black" d="M163.49,-8C163.49,-8 269.49,-8 269.49,-8 275.49,-8 281.49,-14 281.49,-20 281.49,-20 281.49,-109.95 281.49,-109.95 281.49,-115.95 275.49,-121.95 269.49,-121.95 269.49,-121.95 163.49,-121.95 163.49,-121.95 157.49,-121.95 151.49,-115.95 151.49,-109.95 151.49,-109.95 151.49,-20 151.49,-20 151.49,-14 157.49,-8 163.49,-8"/>
<text text-anchor="middle" x="216.49" y="-15.8" font-family="Times,serif" font-size="14.00">log_radon_obs (919)</text>
</g>
<!-- log_radon_sigma -->
<g id="node1" class="node">
<title>log_radon_sigma</title>
<ellipse fill="none" stroke="black" cx="78.49" cy="-198.43" rx="78.48" ry="37.45"/>
<text text-anchor="middle" x="78.49" y="-209.73" font-family="Times,serif" font-size="14.00">log_radon_sigma</text>
<text text-anchor="middle" x="78.49" y="-194.73" font-family="Times,serif" font-size="14.00">~</text>
<text text-anchor="middle" x="78.49" y="-179.73" font-family="Times,serif" font-size="14.00">Exponential</text>
</g>
<!-- log_radon -->
<g id="node6" class="node">
<title>log_radon</title>
<ellipse fill="lightgrey" stroke="black" cx="216.49" cy="-76.48" rx="50.41" ry="37.45"/>
<text text-anchor="middle" x="216.49" y="-87.78" font-family="Times,serif" font-size="14.00">log_radon</text>
<text text-anchor="middle" x="216.49" y="-72.78" font-family="Times,serif" font-size="14.00">~</text>
<text text-anchor="middle" x="216.49" y="-57.78" font-family="Times,serif" font-size="14.00">Normal</text>
</g>
<!-- log_radon_sigma&#45;&gt;log_radon -->
<g id="edge5" class="edge">
<title>log_radon_sigma&#45;&gt;log_radon</title>
<path fill="none" stroke="black" d="M115.47,-165.28C134.28,-148.94 157.16,-129.05 176.39,-112.33"/>
<polygon fill="black" stroke="black" points="178.86,-114.83 184.11,-105.62 174.26,-109.54 178.86,-114.83"/>
</g>
<!-- floor -->
<g id="node2" class="node">
<title>floor</title>
<ellipse fill="none" stroke="black" cx="216.49" cy="-198.43" rx="41.94" ry="37.45"/>
<text text-anchor="middle" x="216.49" y="-209.73" font-family="Times,serif" font-size="14.00">floor</text>
<text text-anchor="middle" x="216.49" y="-194.73" font-family="Times,serif" font-size="14.00">~</text>
<text text-anchor="middle" x="216.49" y="-179.73" font-family="Times,serif" font-size="14.00">Normal</text>
</g>
<!-- floor&#45;&gt;log_radon -->
<g id="edge4" class="edge">
<title>floor&#45;&gt;log_radon</title>
<path fill="none" stroke="black" d="M216.49,-160.79C216.49,-149.38 216.49,-136.65 216.49,-124.63"/>
<polygon fill="black" stroke="black" points="219.99,-124.31 216.49,-114.31 212.99,-124.31 219.99,-124.31"/>
</g>
<!-- floor|county_sigma -->
<g id="node3" class="node">
<title>floor|county_sigma</title>
<ellipse fill="none" stroke="black" cx="655.49" cy="-320.38" rx="86.03" ry="37.45"/>
<text text-anchor="middle" x="655.49" y="-331.68" font-family="Times,serif" font-size="14.00">floor|county_sigma</text>
<text text-anchor="middle" x="655.49" y="-316.68" font-family="Times,serif" font-size="14.00">~</text>
<text text-anchor="middle" x="655.49" y="-301.68" font-family="Times,serif" font-size="14.00">Exponential</text>
</g>
<!-- floor|county -->
<g id="node4" class="node">
<title>floor|county</title>
<polygon fill="none" stroke="black" points="458.99,-224.93 367.99,-224.93 367.99,-171.93 458.99,-171.93 458.99,-224.93"/>
<text text-anchor="middle" x="413.49" y="-209.73" font-family="Times,serif" font-size="14.00">floor|county</text>
<text text-anchor="middle" x="413.49" y="-194.73" font-family="Times,serif" font-size="14.00">~</text>
<text text-anchor="middle" x="413.49" y="-179.73" font-family="Times,serif" font-size="14.00">Deterministic</text>
</g>
<!-- floor|county_sigma&#45;&gt;floor|county -->
<g id="edge1" class="edge">
<title>floor|county_sigma&#45;&gt;floor|county</title>
<path fill="none" stroke="black" d="M614.02,-287.37C597.1,-275.24 576.95,-261.94 557.49,-251.91 529.37,-237.4 496.31,-225.05 468.96,-215.98"/>
<polygon fill="black" stroke="black" points="469.76,-212.56 459.16,-212.79 467.59,-219.22 469.76,-212.56"/>
</g>
<!-- floor|county&#45;&gt;log_radon -->
<g id="edge3" class="edge">
<title>floor|county&#45;&gt;log_radon</title>
<path fill="none" stroke="black" d="M371.23,-171.7C339.71,-152.51 296.64,-126.28 263.94,-106.37"/>
<polygon fill="black" stroke="black" points="265.37,-103.14 255.01,-100.93 261.73,-109.12 265.37,-103.14"/>
</g>
<!-- floor|county_offset -->
<g id="node5" class="node">
<title>floor|county_offset</title>
<ellipse fill="none" stroke="black" cx="413.49" cy="-320.38" rx="84.71" ry="37.45"/>
<text text-anchor="middle" x="413.49" y="-331.68" font-family="Times,serif" font-size="14.00">floor|county_offset</text>
<text text-anchor="middle" x="413.49" y="-316.68" font-family="Times,serif" font-size="14.00">~</text>
<text text-anchor="middle" x="413.49" y="-301.68" font-family="Times,serif" font-size="14.00">Normal</text>
</g>
<!-- floor|county_offset&#45;&gt;floor|county -->
<g id="edge2" class="edge">
<title>floor|county_offset&#45;&gt;floor|county</title>
<path fill="none" stroke="black" d="M413.49,-282.74C413.49,-267.77 413.49,-250.51 413.49,-235.59"/>
<polygon fill="black" stroke="black" points="416.99,-235.2 413.49,-225.2 409.99,-235.2 416.99,-235.2"/>
</g>
</g>
</svg>
