<?xml version="1.0" encoding="UTF-8" standalone="no"?>
<!DOCTYPE svg PUBLIC "-//W3C//DTD SVG 1.1//EN"
 "http://www.w3.org/Graphics/SVG/1.1/DTD/svg11.dtd">
<!-- Generated by graphviz version 2.43.0 (0)
 -->
<!-- Title: %3 Pages: 1 -->
<svg width="1434pt" height="349pt"
 viewBox="0.00 0.00 1433.62 348.91" xmlns="http://www.w3.org/2000/svg" xmlns:xlink="http://www.w3.org/1999/xlink">
<g id="graph0" class="graph" transform="scale(1 1) rotate(0) translate(4 344.91)">
<title>%3</title>
<polygon fill="white" stroke="transparent" points="-4,4 -4,-344.91 1429.62,-344.91 1429.62,4 -4,4"/>
<g id="clust1" class="cluster">
<title>clusterlivebait_dim (1)</title>
<path fill="none" stroke="black" d="M839.62,-218.95C839.62,-218.95 943.62,-218.95 943.62,-218.95 949.62,-218.95 955.62,-224.95 955.62,-230.95 955.62,-230.95 955.62,-320.91 955.62,-320.91 955.62,-326.91 949.62,-332.91 943.62,-332.91 943.62,-332.91 839.62,-332.91 839.62,-332.91 833.62,-332.91 827.62,-326.91 827.62,-320.91 827.62,-320.91 827.62,-230.95 827.62,-230.95 827.62,-224.95 833.62,-218.95 839.62,-218.95"/>
<text text-anchor="middle" x="891.62" y="-226.75" font-family="Times,serif" font-size="14.00">livebait_dim (1)</text>
</g>
<g id="clust2" class="cluster">
<title>clustercamper_dim (1)</title>
<path fill="none" stroke="black" d="M975.62,-218.95C975.62,-218.95 1079.62,-218.95 1079.62,-218.95 1085.62,-218.95 1091.62,-224.95 1091.62,-230.95 1091.62,-230.95 1091.62,-320.91 1091.62,-320.91 1091.62,-326.91 1085.62,-332.91 1079.62,-332.91 1079.62,-332.91 975.62,-332.91 975.62,-332.91 969.62,-332.91 963.62,-326.91 963.62,-320.91 963.62,-320.91 963.62,-230.95 963.62,-230.95 963.62,-224.95 969.62,-218.95 975.62,-218.95"/>
<text text-anchor="middle" x="1027.62" y="-226.75" font-family="Times,serif" font-size="14.00">camper_dim (1)</text>
</g>
<g id="clust3" class="cluster">
<title>clusterpsi_livebait_dim (1)</title>
<path fill="none" stroke="black" d="M1111.62,-218.95C1111.62,-218.95 1242.62,-218.95 1242.62,-218.95 1248.62,-218.95 1254.62,-224.95 1254.62,-230.95 1254.62,-230.95 1254.62,-320.91 1254.62,-320.91 1254.62,-326.91 1248.62,-332.91 1242.62,-332.91 1242.62,-332.91 1111.62,-332.91 1111.62,-332.91 1105.62,-332.91 1099.62,-326.91 1099.62,-320.91 1099.62,-320.91 1099.62,-230.95 1099.62,-230.95 1099.62,-224.95 1105.62,-218.95 1111.62,-218.95"/>
<text text-anchor="middle" x="1177.12" y="-226.75" font-family="Times,serif" font-size="14.00">psi_livebait_dim (1)</text>
</g>
<g id="clust4" class="cluster">
<title>clusterpsi_camper_dim (1)</title>
<path fill="none" stroke="black" d="M1274.62,-218.95C1274.62,-218.95 1405.62,-218.95 1405.62,-218.95 1411.62,-218.95 1417.62,-224.95 1417.62,-230.95 1417.62,-230.95 1417.62,-320.91 1417.62,-320.91 1417.62,-326.91 1411.62,-332.91 1405.62,-332.91 1405.62,-332.91 1274.62,-332.91 1274.62,-332.91 1268.62,-332.91 1262.62,-326.91 1262.62,-320.91 1262.62,-320.91 1262.62,-230.95 1262.62,-230.95 1262.62,-224.95 1268.62,-218.95 1274.62,-218.95"/>
<text text-anchor="middle" x="1340.12" y="-226.75" font-family="Times,serif" font-size="14.00">psi_camper_dim (1)</text>
</g>
<g id="clust5" class="cluster">
<title>cluster__obs__ (248)</title>
<path fill="none" stroke="black" d="M480.62,-8C480.62,-8 718.62,-8 718.62,-8 724.62,-8 730.62,-14 730.62,-20 730.62,-20 730.62,-198.95 730.62,-198.95 730.62,-204.95 724.62,-210.95 718.62,-210.95 718.62,-210.95 480.62,-210.95 480.62,-210.95 474.62,-210.95 468.62,-204.95 468.62,-198.95 468.62,-198.95 468.62,-20 468.62,-20 468.62,-14 474.62,-8 480.62,-8"/>
<text text-anchor="middle" x="675.62" y="-15.8" font-family="Times,serif" font-size="14.00">__obs__ (248)</text>
</g>
<!-- child -->
<g id="node1" class="node">
<title>child</title>
<ellipse fill="none" stroke="black" cx="170.62" cy="-287.43" rx="49.49" ry="37.45"/>
<text text-anchor="middle" x="170.62" y="-298.73" font-family="Times,serif" font-size="14.00">child</text>
<text text-anchor="middle" x="170.62" y="-283.73" font-family="Times,serif" font-size="14.00">~</text>
<text text-anchor="middle" x="170.62" y="-268.73" font-family="Times,serif" font-size="14.00">Normal</text>
</g>
<!-- mu -->
<g id="node11" class="node">
<title>mu</title>
<polygon fill="none" stroke="black" points="590.62,-202.95 476.62,-202.95 476.62,-149.95 590.62,-149.95 590.62,-202.95"/>
<text text-anchor="middle" x="533.62" y="-187.75" font-family="Times,serif" font-size="14.00">mu</text>
<text text-anchor="middle" x="533.62" y="-172.75" font-family="Times,serif" font-size="14.00">~</text>
<text text-anchor="middle" x="533.62" y="-157.75" font-family="Times,serif" font-size="14.00">Deterministic</text>
</g>
<!-- child&#45;&gt;mu -->
<g id="edge2" class="edge">
<title>child&#45;&gt;mu</title>
<path fill="none" stroke="black" d="M191.4,-253.19C201.12,-240.42 213.83,-227 228.62,-218.95 268.44,-197.3 389.41,-186.12 466.5,-181.04"/>
<polygon fill="black" stroke="black" points="466.85,-184.53 476.6,-180.4 466.4,-177.54 466.85,-184.53"/>
</g>
<!-- psi_child -->
<g id="node2" class="node">
<title>psi_child</title>
<ellipse fill="none" stroke="black" cx="589.62" cy="-287.43" rx="55.72" ry="37.45"/>
<text text-anchor="middle" x="589.62" y="-298.73" font-family="Times,serif" font-size="14.00">psi_child</text>
<text text-anchor="middle" x="589.62" y="-283.73" font-family="Times,serif" font-size="14.00">~</text>
<text text-anchor="middle" x="589.62" y="-268.73" font-family="Times,serif" font-size="14.00">Normal</text>
</g>
<!-- psi -->
<g id="node12" class="node">
<title>psi</title>
<polygon fill="none" stroke="black" points="722.62,-202.95 608.62,-202.95 608.62,-149.95 722.62,-149.95 722.62,-202.95"/>
<text text-anchor="middle" x="665.62" y="-187.75" font-family="Times,serif" font-size="14.00">psi</text>
<text text-anchor="middle" x="665.62" y="-172.75" font-family="Times,serif" font-size="14.00">~</text>
<text text-anchor="middle" x="665.62" y="-157.75" font-family="Times,serif" font-size="14.00">Deterministic</text>
</g>
<!-- psi_child&#45;&gt;psi -->
<g id="edge7" class="edge">
<title>psi_child&#45;&gt;psi</title>
<path fill="none" stroke="black" d="M612.83,-253.14C622,-240 632.53,-224.9 641.76,-211.67"/>
<polygon fill="black" stroke="black" points="644.76,-213.48 647.61,-203.28 639.02,-209.48 644.76,-213.48"/>
</g>
<!-- Intercept -->
<g id="node3" class="node">
<title>Intercept</title>
<ellipse fill="none" stroke="black" cx="296.62" cy="-287.43" rx="58.88" ry="37.45"/>
<text text-anchor="middle" x="296.62" y="-298.73" font-family="Times,serif" font-size="14.00">Intercept</text>
<text text-anchor="middle" x="296.62" y="-283.73" font-family="Times,serif" font-size="14.00">~</text>
<text text-anchor="middle" x="296.62" y="-268.73" font-family="Times,serif" font-size="14.00">Normal</text>
</g>
<!-- Intercept&#45;&gt;mu -->
<g id="edge5" class="edge">
<title>Intercept&#45;&gt;mu</title>
<path fill="none" stroke="black" d="M322.81,-253.66C334.4,-241.12 348.95,-227.74 364.62,-218.95 395.65,-201.55 433.89,-191.38 466.14,-185.46"/>
<polygon fill="black" stroke="black" points="467.13,-188.84 476.39,-183.69 465.94,-181.95 467.13,-188.84"/>
</g>
<!-- persons -->
<g id="node4" class="node">
<title>persons</title>
<ellipse fill="none" stroke="black" cx="51.62" cy="-287.43" rx="51.74" ry="37.45"/>
<text text-anchor="middle" x="51.62" y="-298.73" font-family="Times,serif" font-size="14.00">persons</text>
<text text-anchor="middle" x="51.62" y="-283.73" font-family="Times,serif" font-size="14.00">~</text>
<text text-anchor="middle" x="51.62" y="-268.73" font-family="Times,serif" font-size="14.00">Normal</text>
</g>
<!-- persons&#45;&gt;mu -->
<g id="edge1" class="edge">
<title>persons&#45;&gt;mu</title>
<path fill="none" stroke="black" d="M73.37,-253.25C83.66,-240.33 97.11,-226.77 112.62,-218.95 172.85,-188.58 363.41,-180.43 466.25,-178.25"/>
<polygon fill="black" stroke="black" points="466.59,-181.74 476.52,-178.04 466.45,-174.74 466.59,-181.74"/>
</g>
<!-- psi_Intercept -->
<g id="node5" class="node">
<title>psi_Intercept</title>
<ellipse fill="none" stroke="black" cx="741.62" cy="-287.43" rx="77.56" ry="37.45"/>
<text text-anchor="middle" x="741.62" y="-298.73" font-family="Times,serif" font-size="14.00">psi_Intercept</text>
<text text-anchor="middle" x="741.62" y="-283.73" font-family="Times,serif" font-size="14.00">~</text>
<text text-anchor="middle" x="741.62" y="-268.73" font-family="Times,serif" font-size="14.00">Normal</text>
</g>
<!-- psi_Intercept&#45;&gt;psi -->
<g id="edge6" class="edge">
<title>psi_Intercept&#45;&gt;psi</title>
<path fill="none" stroke="black" d="M717.36,-251.65C708.47,-238.9 698.41,-224.48 689.55,-211.76"/>
<polygon fill="black" stroke="black" points="692.22,-209.48 683.63,-203.28 686.48,-213.48 692.22,-209.48"/>
</g>
<!-- psi_persons -->
<g id="node6" class="node">
<title>psi_persons</title>
<ellipse fill="none" stroke="black" cx="444.62" cy="-287.43" rx="71.34" ry="37.45"/>
<text text-anchor="middle" x="444.62" y="-298.73" font-family="Times,serif" font-size="14.00">psi_persons</text>
<text text-anchor="middle" x="444.62" y="-283.73" font-family="Times,serif" font-size="14.00">~</text>
<text text-anchor="middle" x="444.62" y="-268.73" font-family="Times,serif" font-size="14.00">Normal</text>
</g>
<!-- psi_persons&#45;&gt;psi -->
<g id="edge9" class="edge">
<title>psi_persons&#45;&gt;psi</title>
<path fill="none" stroke="black" d="M475.06,-253.28C488.88,-240.36 506.24,-226.8 524.62,-218.95 555.45,-205.79 567.48,-220.47 599.62,-210.95 603.39,-209.84 607.21,-208.51 611,-207.03"/>
<polygon fill="black" stroke="black" points="612.48,-210.2 620.35,-203.1 609.77,-203.75 612.48,-210.2"/>
</g>
<!-- livebait -->
<g id="node7" class="node">
<title>livebait</title>
<ellipse fill="none" stroke="black" cx="886.62" cy="-287.43" rx="49.49" ry="37.45"/>
<text text-anchor="middle" x="886.62" y="-298.73" font-family="Times,serif" font-size="14.00">livebait</text>
<text text-anchor="middle" x="886.62" y="-283.73" font-family="Times,serif" font-size="14.00">~</text>
<text text-anchor="middle" x="886.62" y="-268.73" font-family="Times,serif" font-size="14.00">Normal</text>
</g>
<!-- livebait&#45;&gt;mu -->
<g id="edge3" class="edge">
<title>livebait&#45;&gt;mu</title>
<path fill="none" stroke="black" d="M866.49,-252.8C856.8,-239.8 843.94,-226.31 828.62,-218.95 805.67,-207.93 624.27,-217.31 599.62,-210.95 595.49,-209.89 591.32,-208.54 587.19,-206.99"/>
<polygon fill="black" stroke="black" points="588.26,-203.64 577.68,-203.07 585.59,-210.12 588.26,-203.64"/>
</g>
<!-- camper -->
<g id="node8" class="node">
<title>camper</title>
<ellipse fill="none" stroke="black" cx="1020.62" cy="-287.43" rx="49.49" ry="37.45"/>
<text text-anchor="middle" x="1020.62" y="-298.73" font-family="Times,serif" font-size="14.00">camper</text>
<text text-anchor="middle" x="1020.62" y="-283.73" font-family="Times,serif" font-size="14.00">~</text>
<text text-anchor="middle" x="1020.62" y="-268.73" font-family="Times,serif" font-size="14.00">Normal</text>
</g>
<!-- camper&#45;&gt;mu -->
<g id="edge4" class="edge">
<title>camper&#45;&gt;mu</title>
<path fill="none" stroke="black" d="M999.7,-253.38C989.39,-240.15 975.7,-226.31 959.62,-218.95 923.23,-202.31 638.42,-220.69 599.62,-210.95 595.3,-209.87 590.93,-208.46 586.62,-206.84"/>
<polygon fill="black" stroke="black" points="587.87,-203.57 577.29,-202.99 585.2,-210.04 587.87,-203.57"/>
</g>
<!-- psi_livebait -->
<g id="node9" class="node">
<title>psi_livebait</title>
<ellipse fill="none" stroke="black" cx="1176.62" cy="-287.43" rx="69.09" ry="37.45"/>
<text text-anchor="middle" x="1176.62" y="-298.73" font-family="Times,serif" font-size="14.00">psi_livebait</text>
<text text-anchor="middle" x="1176.62" y="-283.73" font-family="Times,serif" font-size="14.00">~</text>
<text text-anchor="middle" x="1176.62" y="-268.73" font-family="Times,serif" font-size="14.00">Normal</text>
</g>
<!-- psi_livebait&#45;&gt;psi -->
<g id="edge10" class="edge">
<title>psi_livebait&#45;&gt;psi</title>
<path fill="none" stroke="black" d="M1146.14,-253.54C1132.09,-240.5 1114.37,-226.78 1095.62,-218.95 1031.82,-192.32 836.9,-182.53 732.8,-179.13"/>
<polygon fill="black" stroke="black" points="732.82,-175.63 722.72,-178.81 732.6,-182.62 732.82,-175.63"/>
</g>
<!-- psi_camper -->
<g id="node10" class="node">
<title>psi_camper</title>
<ellipse fill="none" stroke="black" cx="1339.62" cy="-287.43" rx="69.09" ry="37.45"/>
<text text-anchor="middle" x="1339.62" y="-298.73" font-family="Times,serif" font-size="14.00">psi_camper</text>
<text text-anchor="middle" x="1339.62" y="-283.73" font-family="Times,serif" font-size="14.00">~</text>
<text text-anchor="middle" x="1339.62" y="-268.73" font-family="Times,serif" font-size="14.00">Normal</text>
</g>
<!-- psi_camper&#45;&gt;psi -->
<g id="edge8" class="edge">
<title>psi_camper&#45;&gt;psi</title>
<path fill="none" stroke="black" d="M1309.24,-253.3C1295.2,-240.22 1277.47,-226.53 1258.62,-218.95 1164.83,-181.25 867.34,-176.95 732.82,-177.01"/>
<polygon fill="black" stroke="black" points="732.64,-173.51 722.65,-177.02 732.65,-180.51 732.64,-173.51"/>
</g>
<!-- count -->
<g id="node13" class="node">
<title>count</title>
<ellipse fill="lightgrey" stroke="black" cx="599.62" cy="-76.48" rx="51.74" ry="37.45"/>
<text text-anchor="middle" x="599.62" y="-87.78" font-family="Times,serif" font-size="14.00">count</text>
<text text-anchor="middle" x="599.62" y="-72.78" font-family="Times,serif" font-size="14.00">~</text>
<text text-anchor="middle" x="599.62" y="-57.78" font-family="Times,serif" font-size="14.00">_Hurdle</text>
</g>
<!-- mu&#45;&gt;count -->
<g id="edge11" class="edge">
<title>mu&#45;&gt;count</title>
<path fill="none" stroke="black" d="M550.96,-149.71C557.29,-140.32 564.61,-129.45 571.63,-119.03"/>
<polygon fill="black" stroke="black" points="574.73,-120.68 577.42,-110.43 568.93,-116.77 574.73,-120.68"/>
</g>
<!-- psi&#45;&gt;count -->
<g id="edge12" class="edge">
<title>psi&#45;&gt;count</title>
<path fill="none" stroke="black" d="M648.28,-149.71C641.95,-140.32 634.63,-129.45 627.61,-119.03"/>
<polygon fill="black" stroke="black" points="630.31,-116.77 621.82,-110.43 624.5,-120.68 630.31,-116.77"/>
</g>
</g>
</svg>
