<?xml version="1.0" encoding="UTF-8" standalone="no"?>
<!DOCTYPE svg PUBLIC "-//W3C//DTD SVG 1.1//EN"
 "http://www.w3.org/Graphics/SVG/1.1/DTD/svg11.dtd">
<!-- Generated by graphviz version 8.0.5 (0)
 -->
<!-- Pages: 1 -->
<svg width="831pt" height="397pt"
 viewBox="0.00 0.00 831.16 397.45" xmlns="http://www.w3.org/2000/svg" xmlns:xlink="http://www.w3.org/1999/xlink">
<g id="graph0" class="graph" transform="scale(1 1) rotate(0) translate(4 393.45)">
<polygon fill="white" stroke="none" points="-4,4 -4,-393.45 827.16,-393.45 827.16,4 -4,4"/>
<g id="clust1" class="cluster">
<title>clusterlivebait_dim (1)</title>
<path fill="none" stroke="black" d="M611.16,-129.82C611.16,-129.82 691.16,-129.82 691.16,-129.82 697.16,-129.82 703.16,-135.82 703.16,-141.82 703.16,-141.82 703.16,-239.63 703.16,-239.63 703.16,-245.63 697.16,-251.63 691.16,-251.63 691.16,-251.63 611.16,-251.63 611.16,-251.63 605.16,-251.63 599.16,-245.63 599.16,-239.63 599.16,-239.63 599.16,-141.82 599.16,-141.82 599.16,-135.82 605.16,-129.82 611.16,-129.82"/>
<text text-anchor="middle" x="650.91" y="-137.02" font-family="Times,serif" font-size="14.00">livebait_dim (1)</text>
</g>
<g id="clust2" class="cluster">
<title>clustercamper_dim (1)</title>
<path fill="none" stroke="black" d="M723.16,-129.82C723.16,-129.82 803.16,-129.82 803.16,-129.82 809.16,-129.82 815.16,-135.82 815.16,-141.82 815.16,-141.82 815.16,-239.63 815.16,-239.63 815.16,-245.63 809.16,-251.63 803.16,-251.63 803.16,-251.63 723.16,-251.63 723.16,-251.63 717.16,-251.63 711.16,-245.63 711.16,-239.63 711.16,-239.63 711.16,-141.82 711.16,-141.82 711.16,-135.82 717.16,-129.82 723.16,-129.82"/>
<text text-anchor="middle" x="762.91" y="-137.02" font-family="Times,serif" font-size="14.00">camper_dim (1)</text>
</g>
<g id="clust3" class="cluster">
<title>clusterpsi_livebait_dim (1)</title>
<path fill="none" stroke="black" d="M385.16,-259.63C385.16,-259.63 489.16,-259.63 489.16,-259.63 495.16,-259.63 501.16,-265.63 501.16,-271.63 501.16,-271.63 501.16,-369.45 501.16,-369.45 501.16,-375.45 495.16,-381.45 489.16,-381.45 489.16,-381.45 385.16,-381.45 385.16,-381.45 379.16,-381.45 373.16,-375.45 373.16,-369.45 373.16,-369.45 373.16,-271.63 373.16,-271.63 373.16,-265.63 379.16,-259.63 385.16,-259.63"/>
<text text-anchor="middle" x="437.66" y="-266.83" font-family="Times,serif" font-size="14.00">psi_livebait_dim (1)</text>
</g>
<g id="clust4" class="cluster">
<title>clusterpsi_camper_dim (1)</title>
<path fill="none" stroke="black" d="M521.16,-259.63C521.16,-259.63 625.16,-259.63 625.16,-259.63 631.16,-259.63 637.16,-265.63 637.16,-271.63 637.16,-271.63 637.16,-369.45 637.16,-369.45 637.16,-375.45 631.16,-381.45 625.16,-381.45 625.16,-381.45 521.16,-381.45 521.16,-381.45 515.16,-381.45 509.16,-375.45 509.16,-369.45 509.16,-369.45 509.16,-271.63 509.16,-271.63 509.16,-265.63 515.16,-259.63 521.16,-259.63"/>
<text text-anchor="middle" x="573.66" y="-266.83" font-family="Times,serif" font-size="14.00">psi_camper_dim (1)</text>
</g>
<g id="clust5" class="cluster">
<title>clustercount_obs (248)</title>
<path fill="none" stroke="black" d="M233.16,-8C233.16,-8 381.16,-8 381.16,-8 387.16,-8 393.16,-14 393.16,-20 393.16,-20 393.16,-227.73 393.16,-227.73 393.16,-233.73 387.16,-239.73 381.16,-239.73 381.16,-239.73 233.16,-239.73 233.16,-239.73 227.16,-239.73 221.16,-233.73 221.16,-227.73 221.16,-227.73 221.16,-20 221.16,-20 221.16,-14 227.16,-8 233.16,-8"/>
<text text-anchor="middle" x="340.91" y="-15.2" font-family="Times,serif" font-size="14.00">count_obs (248)</text>
</g>
<!-- persons -->
<g id="node1" class="node">
<title>persons</title>
<ellipse fill="none" stroke="black" cx="172.16" cy="-202.98" rx="41.01" ry="40.66"/>
<text text-anchor="middle" x="172.16" y="-214.43" font-family="Times,serif" font-size="14.00">persons</text>
<text text-anchor="middle" x="172.16" y="-197.93" font-family="Times,serif" font-size="14.00">~</text>
<text text-anchor="middle" x="172.16" y="-181.43" font-family="Times,serif" font-size="14.00">Normal</text>
</g>
<!-- count -->
<g id="node12" class="node">
<title>count</title>
<ellipse fill="lightgrey" stroke="black" cx="307.16" cy="-81.16" rx="78.14" ry="40.66"/>
<text text-anchor="middle" x="307.16" y="-92.61" font-family="Times,serif" font-size="14.00">count</text>
<text text-anchor="middle" x="307.16" y="-76.11" font-family="Times,serif" font-size="14.00">~</text>
<text text-anchor="middle" x="307.16" y="-59.61" font-family="Times,serif" font-size="14.00">MarginalMixture</text>
</g>
<!-- persons&#45;&gt;count -->
<g id="edge7" class="edge">
<title>persons&#45;&gt;count</title>
<path fill="none" stroke="black" d="M189.68,-165.83C196.95,-153.36 206.26,-139.98 217.16,-129.82 223.58,-123.84 230.89,-118.39 238.5,-113.49"/>
<polygon fill="black" stroke="black" points="239.82,-116.17 246.54,-107.98 236.18,-110.19 239.82,-116.17"/>
</g>
<!-- psi_Intercept -->
<g id="node2" class="node">
<title>psi_Intercept</title>
<ellipse fill="none" stroke="black" cx="61.16" cy="-332.79" rx="61.16" ry="40.66"/>
<text text-anchor="middle" x="61.16" y="-344.24" font-family="Times,serif" font-size="14.00">psi_Intercept</text>
<text text-anchor="middle" x="61.16" y="-327.74" font-family="Times,serif" font-size="14.00">~</text>
<text text-anchor="middle" x="61.16" y="-311.24" font-family="Times,serif" font-size="14.00">Normal</text>
</g>
<!-- psi -->
<g id="node11" class="node">
<title>psi</title>
<polygon fill="none" stroke="black" points="352.29,-231.73 262.04,-231.73 262.04,-174.23 352.29,-174.23 352.29,-231.73"/>
<text text-anchor="middle" x="307.16" y="-214.43" font-family="Times,serif" font-size="14.00">psi</text>
<text text-anchor="middle" x="307.16" y="-197.93" font-family="Times,serif" font-size="14.00">~</text>
<text text-anchor="middle" x="307.16" y="-181.43" font-family="Times,serif" font-size="14.00">Deterministic</text>
</g>
<!-- psi_Intercept&#45;&gt;psi -->
<g id="edge3" class="edge">
<title>psi_Intercept&#45;&gt;psi</title>
<path fill="none" stroke="black" d="M86.91,-295.83C98.75,-282.1 113.99,-267.81 131.16,-259.63 167.83,-242.19 183.37,-263.61 222.16,-251.63 233.43,-248.16 244.86,-243.04 255.53,-237.44"/>
<polygon fill="black" stroke="black" points="257,-240.07 264.08,-232.19 253.63,-233.94 257,-240.07"/>
</g>
<!-- Intercept -->
<g id="node3" class="node">
<title>Intercept</title>
<ellipse fill="none" stroke="black" cx="446.16" cy="-202.98" rx="45.25" ry="40.66"/>
<text text-anchor="middle" x="446.16" y="-214.43" font-family="Times,serif" font-size="14.00">Intercept</text>
<text text-anchor="middle" x="446.16" y="-197.93" font-family="Times,serif" font-size="14.00">~</text>
<text text-anchor="middle" x="446.16" y="-181.43" font-family="Times,serif" font-size="14.00">Normal</text>
</g>
<!-- Intercept&#45;&gt;count -->
<g id="edge8" class="edge">
<title>Intercept&#45;&gt;count</title>
<path fill="none" stroke="black" d="M426.55,-165.88C418.59,-153.41 408.56,-140.02 397.16,-129.82 390.54,-123.88 383.04,-118.44 375.27,-113.52"/>
<polygon fill="black" stroke="black" points="377.44,-110.14 367.06,-108 373.84,-116.14 377.44,-110.14"/>
</g>
<!-- psi_child -->
<g id="node4" class="node">
<title>psi_child</title>
<ellipse fill="none" stroke="black" cx="186.16" cy="-332.79" rx="46.32" ry="40.66"/>
<text text-anchor="middle" x="186.16" y="-344.24" font-family="Times,serif" font-size="14.00">psi_child</text>
<text text-anchor="middle" x="186.16" y="-327.74" font-family="Times,serif" font-size="14.00">~</text>
<text text-anchor="middle" x="186.16" y="-311.24" font-family="Times,serif" font-size="14.00">Normal</text>
</g>
<!-- psi_child&#45;&gt;psi -->
<g id="edge2" class="edge">
<title>psi_child&#45;&gt;psi</title>
<path fill="none" stroke="black" d="M210.19,-297.95C219.63,-285.45 230.9,-271.46 242.16,-259.63 248.79,-252.68 256.21,-245.7 263.6,-239.13"/>
<polygon fill="black" stroke="black" points="265.33,-241.4 270.58,-232.2 260.74,-236.12 265.33,-241.4"/>
</g>
<!-- child -->
<g id="node5" class="node">
<title>child</title>
<ellipse fill="none" stroke="black" cx="550.16" cy="-202.98" rx="41.01" ry="40.66"/>
<text text-anchor="middle" x="550.16" y="-214.43" font-family="Times,serif" font-size="14.00">child</text>
<text text-anchor="middle" x="550.16" y="-197.93" font-family="Times,serif" font-size="14.00">~</text>
<text text-anchor="middle" x="550.16" y="-181.43" font-family="Times,serif" font-size="14.00">Normal</text>
</g>
<!-- child&#45;&gt;count -->
<g id="edge9" class="edge">
<title>child&#45;&gt;count</title>
<path fill="none" stroke="black" d="M532.48,-166.13C524.33,-152.93 513.47,-138.99 500.16,-129.82 469.39,-108.61 430.11,-96.81 395.04,-90.26"/>
<polygon fill="black" stroke="black" points="395.75,-86.66 385.3,-88.39 394.55,-93.56 395.75,-86.66"/>
</g>
<!-- psi_persons -->
<g id="node6" class="node">
<title>psi_persons</title>
<ellipse fill="none" stroke="black" cx="307.16" cy="-332.79" rx="56.39" ry="40.66"/>
<text text-anchor="middle" x="307.16" y="-344.24" font-family="Times,serif" font-size="14.00">psi_persons</text>
<text text-anchor="middle" x="307.16" y="-327.74" font-family="Times,serif" font-size="14.00">~</text>
<text text-anchor="middle" x="307.16" y="-311.24" font-family="Times,serif" font-size="14.00">Normal</text>
</g>
<!-- psi_persons&#45;&gt;psi -->
<g id="edge4" class="edge">
<title>psi_persons&#45;&gt;psi</title>
<path fill="none" stroke="black" d="M307.16,-291.7C307.16,-276.15 307.16,-258.4 307.16,-242.95"/>
<polygon fill="black" stroke="black" points="310.66,-243.18 307.16,-233.18 303.66,-243.18 310.66,-243.18"/>
</g>
<!-- livebait -->
<g id="node7" class="node">
<title>livebait</title>
<ellipse fill="none" stroke="black" cx="650.16" cy="-202.98" rx="41.01" ry="40.66"/>
<text text-anchor="middle" x="650.16" y="-214.43" font-family="Times,serif" font-size="14.00">livebait</text>
<text text-anchor="middle" x="650.16" y="-197.93" font-family="Times,serif" font-size="14.00">~</text>
<text text-anchor="middle" x="650.16" y="-181.43" font-family="Times,serif" font-size="14.00">Normal</text>
</g>
<!-- livebait&#45;&gt;count -->
<g id="edge6" class="edge">
<title>livebait&#45;&gt;count</title>
<path fill="none" stroke="black" d="M632.85,-165.57C624.75,-152.29 613.83,-138.44 600.16,-129.82 566.83,-108.78 468.71,-95.86 395.13,-88.88"/>
<polygon fill="black" stroke="black" points="395.75,-85.33 385.47,-87.89 395.1,-92.3 395.75,-85.33"/>
</g>
<!-- camper -->
<g id="node8" class="node">
<title>camper</title>
<ellipse fill="none" stroke="black" cx="760.16" cy="-202.98" rx="41.01" ry="40.66"/>
<text text-anchor="middle" x="760.16" y="-214.43" font-family="Times,serif" font-size="14.00">camper</text>
<text text-anchor="middle" x="760.16" y="-197.93" font-family="Times,serif" font-size="14.00">~</text>
<text text-anchor="middle" x="760.16" y="-181.43" font-family="Times,serif" font-size="14.00">Normal</text>
</g>
<!-- camper&#45;&gt;count -->
<g id="edge11" class="edge">
<title>camper&#45;&gt;count</title>
<path fill="none" stroke="black" d="M742.04,-165.99C733.36,-152.44 721.67,-138.27 707.16,-129.82 656.02,-99.99 497.53,-88.77 396.08,-84.59"/>
<polygon fill="black" stroke="black" points="396.35,-81.06 386.22,-84.16 396.07,-88.05 396.35,-81.06"/>
</g>
<!-- psi_livebait -->
<g id="node9" class="node">
<title>psi_livebait</title>
<ellipse fill="none" stroke="black" cx="437.16" cy="-332.79" rx="55.86" ry="40.66"/>
<text text-anchor="middle" x="437.16" y="-344.24" font-family="Times,serif" font-size="14.00">psi_livebait</text>
<text text-anchor="middle" x="437.16" y="-327.74" font-family="Times,serif" font-size="14.00">~</text>
<text text-anchor="middle" x="437.16" y="-311.24" font-family="Times,serif" font-size="14.00">Normal</text>
</g>
<!-- psi_livebait&#45;&gt;psi -->
<g id="edge5" class="edge">
<title>psi_livebait&#45;&gt;psi</title>
<path fill="none" stroke="black" d="M408.27,-297.91C397.3,-285.54 384.48,-271.64 372.16,-259.63 365.13,-252.78 357.4,-245.75 349.8,-239.1"/>
<polygon fill="black" stroke="black" points="352.49,-235.94 342.64,-232.06 347.92,-241.24 352.49,-235.94"/>
</g>
<!-- psi_camper -->
<g id="node10" class="node">
<title>psi_camper</title>
<ellipse fill="none" stroke="black" cx="573.16" cy="-332.79" rx="55.86" ry="40.66"/>
<text text-anchor="middle" x="573.16" y="-344.24" font-family="Times,serif" font-size="14.00">psi_camper</text>
<text text-anchor="middle" x="573.16" y="-327.74" font-family="Times,serif" font-size="14.00">~</text>
<text text-anchor="middle" x="573.16" y="-311.24" font-family="Times,serif" font-size="14.00">Normal</text>
</g>
<!-- psi_camper&#45;&gt;psi -->
<g id="edge1" class="edge">
<title>psi_camper&#45;&gt;psi</title>
<path fill="none" stroke="black" d="M548.73,-296.07C537.23,-282.21 522.27,-267.75 505.16,-259.63 482.42,-248.85 416.28,-258.85 392.16,-251.63 380.63,-248.18 368.94,-242.97 358.08,-237.24"/>
<polygon fill="black" stroke="black" points="360.21,-233.86 349.76,-232.1 356.83,-239.99 360.21,-233.86"/>
</g>
<!-- psi&#45;&gt;count -->
<g id="edge10" class="edge">
<title>psi&#45;&gt;count</title>
<path fill="none" stroke="black" d="M307.16,-173.88C307.16,-161.54 307.16,-146.65 307.16,-132.5"/>
<polygon fill="black" stroke="black" points="310.66,-132.87 307.16,-122.87 303.66,-132.87 310.66,-132.87"/>
</g>
</g>
</svg>
