<?xml version="1.0" encoding="UTF-8" standalone="no"?>
<!DOCTYPE svg PUBLIC "-//W3C//DTD SVG 1.1//EN"
 "http://www.w3.org/Graphics/SVG/1.1/DTD/svg11.dtd">
<!-- Generated by graphviz version 2.50.0 (0)
 -->
<!-- Pages: 1 -->
<svg width="1433pt" height="349pt"
 viewBox="0.00 0.00 1432.86 348.91" xmlns="http://www.w3.org/2000/svg" xmlns:xlink="http://www.w3.org/1999/xlink">
<g id="graph0" class="graph" transform="scale(1 1) rotate(0) translate(4 344.91)">
<polygon fill="white" stroke="transparent" points="-4,4 -4,-344.91 1428.86,-344.91 1428.86,4 -4,4"/>
<g id="clust1" class="cluster">
<title>clusterlivebait_dim (1)</title>
<path fill="none" stroke="black" d="M838.86,-218.95C838.86,-218.95 942.86,-218.95 942.86,-218.95 948.86,-218.95 954.86,-224.95 954.86,-230.95 954.86,-230.95 954.86,-320.91 954.86,-320.91 954.86,-326.91 948.86,-332.91 942.86,-332.91 942.86,-332.91 838.86,-332.91 838.86,-332.91 832.86,-332.91 826.86,-326.91 826.86,-320.91 826.86,-320.91 826.86,-230.95 826.86,-230.95 826.86,-224.95 832.86,-218.95 838.86,-218.95"/>
<text text-anchor="middle" x="890.86" y="-226.75" font-family="Times,serif" font-size="14.00">livebait_dim (1)</text>
</g>
<g id="clust2" class="cluster">
<title>clustercamper_dim (1)</title>
<path fill="none" stroke="black" d="M974.86,-218.95C974.86,-218.95 1078.86,-218.95 1078.86,-218.95 1084.86,-218.95 1090.86,-224.95 1090.86,-230.95 1090.86,-230.95 1090.86,-320.91 1090.86,-320.91 1090.86,-326.91 1084.86,-332.91 1078.86,-332.91 1078.86,-332.91 974.86,-332.91 974.86,-332.91 968.86,-332.91 962.86,-326.91 962.86,-320.91 962.86,-320.91 962.86,-230.95 962.86,-230.95 962.86,-224.95 968.86,-218.95 974.86,-218.95"/>
<text text-anchor="middle" x="1026.86" y="-226.75" font-family="Times,serif" font-size="14.00">camper_dim (1)</text>
</g>
<g id="clust3" class="cluster">
<title>clusterpsi_livebait_dim (1)</title>
<path fill="none" stroke="black" d="M1110.86,-218.95C1110.86,-218.95 1241.86,-218.95 1241.86,-218.95 1247.86,-218.95 1253.86,-224.95 1253.86,-230.95 1253.86,-230.95 1253.86,-320.91 1253.86,-320.91 1253.86,-326.91 1247.86,-332.91 1241.86,-332.91 1241.86,-332.91 1110.86,-332.91 1110.86,-332.91 1104.86,-332.91 1098.86,-326.91 1098.86,-320.91 1098.86,-320.91 1098.86,-230.95 1098.86,-230.95 1098.86,-224.95 1104.86,-218.95 1110.86,-218.95"/>
<text text-anchor="middle" x="1176.36" y="-226.75" font-family="Times,serif" font-size="14.00">psi_livebait_dim (1)</text>
</g>
<g id="clust4" class="cluster">
<title>clusterpsi_camper_dim (1)</title>
<path fill="none" stroke="black" d="M1273.86,-218.95C1273.86,-218.95 1404.86,-218.95 1404.86,-218.95 1410.86,-218.95 1416.86,-224.95 1416.86,-230.95 1416.86,-230.95 1416.86,-320.91 1416.86,-320.91 1416.86,-326.91 1410.86,-332.91 1404.86,-332.91 1404.86,-332.91 1273.86,-332.91 1273.86,-332.91 1267.86,-332.91 1261.86,-326.91 1261.86,-320.91 1261.86,-320.91 1261.86,-230.95 1261.86,-230.95 1261.86,-224.95 1267.86,-218.95 1273.86,-218.95"/>
<text text-anchor="middle" x="1339.36" y="-226.75" font-family="Times,serif" font-size="14.00">psi_camper_dim (1)</text>
</g>
<g id="clust5" class="cluster">
<title>cluster__obs__ (248)</title>
<path fill="none" stroke="black" d="M517.86,-8C517.86,-8 755.86,-8 755.86,-8 761.86,-8 767.86,-14 767.86,-20 767.86,-20 767.86,-198.95 767.86,-198.95 767.86,-204.95 761.86,-210.95 755.86,-210.95 755.86,-210.95 517.86,-210.95 517.86,-210.95 511.86,-210.95 505.86,-204.95 505.86,-198.95 505.86,-198.95 505.86,-20 505.86,-20 505.86,-14 511.86,-8 517.86,-8"/>
<text text-anchor="middle" x="712.86" y="-15.8" font-family="Times,serif" font-size="14.00">__obs__ (248)</text>
</g>
<!-- psi_persons -->
<g id="node1" class="node">
<title>psi_persons</title>
<ellipse fill="none" stroke="black" cx="200.86" cy="-287.43" rx="71.34" ry="37.45"/>
<text text-anchor="middle" x="200.86" y="-298.73" font-family="Times,serif" font-size="14.00">psi_persons</text>
<text text-anchor="middle" x="200.86" y="-283.73" font-family="Times,serif" font-size="14.00">~</text>
<text text-anchor="middle" x="200.86" y="-268.73" font-family="Times,serif" font-size="14.00">Normal</text>
</g>
<!-- psi -->
<g id="node13" class="node">
<title>psi</title>
<polygon fill="none" stroke="black" points="627.86,-202.95 513.86,-202.95 513.86,-149.95 627.86,-149.95 627.86,-202.95"/>
<text text-anchor="middle" x="570.86" y="-187.75" font-family="Times,serif" font-size="14.00">psi</text>
<text text-anchor="middle" x="570.86" y="-172.75" font-family="Times,serif" font-size="14.00">~</text>
<text text-anchor="middle" x="570.86" y="-157.75" font-family="Times,serif" font-size="14.00">Deterministic</text>
</g>
<!-- psi_persons&#45;&gt;psi -->
<g id="edge8" class="edge">
<title>psi_persons&#45;&gt;psi</title>
<path fill="none" stroke="black" d="M231.83,-253.25C245.6,-240.49 262.79,-227.05 280.86,-218.95 319.54,-201.62 430.76,-189.26 503.69,-182.75"/>
<polygon fill="black" stroke="black" points="504.06,-186.24 513.71,-181.87 503.44,-179.26 504.06,-186.24"/>
</g>
<!-- Intercept -->
<g id="node2" class="node">
<title>Intercept</title>
<ellipse fill="none" stroke="black" cx="638.86" cy="-287.43" rx="58.88" ry="37.45"/>
<text text-anchor="middle" x="638.86" y="-298.73" font-family="Times,serif" font-size="14.00">Intercept</text>
<text text-anchor="middle" x="638.86" y="-283.73" font-family="Times,serif" font-size="14.00">~</text>
<text text-anchor="middle" x="638.86" y="-268.73" font-family="Times,serif" font-size="14.00">Normal</text>
</g>
<!-- mu -->
<g id="node11" class="node">
<title>mu</title>
<polygon fill="none" stroke="black" points="759.86,-202.95 645.86,-202.95 645.86,-149.95 759.86,-149.95 759.86,-202.95"/>
<text text-anchor="middle" x="702.86" y="-187.75" font-family="Times,serif" font-size="14.00">mu</text>
<text text-anchor="middle" x="702.86" y="-172.75" font-family="Times,serif" font-size="14.00">~</text>
<text text-anchor="middle" x="702.86" y="-157.75" font-family="Times,serif" font-size="14.00">Deterministic</text>
</g>
<!-- Intercept&#45;&gt;mu -->
<g id="edge1" class="edge">
<title>Intercept&#45;&gt;mu</title>
<path fill="none" stroke="black" d="M659.11,-251.95C666.6,-239.2 675.08,-224.76 682.57,-212.01"/>
<polygon fill="black" stroke="black" points="685.77,-213.47 687.82,-203.07 679.73,-209.92 685.77,-213.47"/>
</g>
<!-- persons -->
<g id="node3" class="node">
<title>persons</title>
<ellipse fill="none" stroke="black" cx="766.86" cy="-287.43" rx="51.74" ry="37.45"/>
<text text-anchor="middle" x="766.86" y="-298.73" font-family="Times,serif" font-size="14.00">persons</text>
<text text-anchor="middle" x="766.86" y="-283.73" font-family="Times,serif" font-size="14.00">~</text>
<text text-anchor="middle" x="766.86" y="-268.73" font-family="Times,serif" font-size="14.00">Normal</text>
</g>
<!-- persons&#45;&gt;mu -->
<g id="edge3" class="edge">
<title>persons&#45;&gt;mu</title>
<path fill="none" stroke="black" d="M746.96,-252.55C739.33,-239.55 730.62,-224.72 722.97,-211.69"/>
<polygon fill="black" stroke="black" points="725.95,-209.85 717.87,-203 719.91,-213.4 725.95,-209.85"/>
</g>
<!-- psi_Intercept -->
<g id="node4" class="node">
<title>psi_Intercept</title>
<ellipse fill="none" stroke="black" cx="367.86" cy="-287.43" rx="77.56" ry="37.45"/>
<text text-anchor="middle" x="367.86" y="-298.73" font-family="Times,serif" font-size="14.00">psi_Intercept</text>
<text text-anchor="middle" x="367.86" y="-283.73" font-family="Times,serif" font-size="14.00">~</text>
<text text-anchor="middle" x="367.86" y="-268.73" font-family="Times,serif" font-size="14.00">Normal</text>
</g>
<!-- psi_Intercept&#45;&gt;psi -->
<g id="edge10" class="edge">
<title>psi_Intercept&#45;&gt;psi</title>
<path fill="none" stroke="black" d="M404.17,-254.11C419.13,-241.94 437.1,-228.7 454.86,-218.95 470.22,-210.53 487.63,-203.24 504.21,-197.24"/>
<polygon fill="black" stroke="black" points="505.57,-200.47 513.85,-193.85 503.25,-193.86 505.57,-200.47"/>
</g>
<!-- psi_child -->
<g id="node5" class="node">
<title>psi_child</title>
<ellipse fill="none" stroke="black" cx="55.86" cy="-287.43" rx="55.72" ry="37.45"/>
<text text-anchor="middle" x="55.86" y="-298.73" font-family="Times,serif" font-size="14.00">psi_child</text>
<text text-anchor="middle" x="55.86" y="-283.73" font-family="Times,serif" font-size="14.00">~</text>
<text text-anchor="middle" x="55.86" y="-268.73" font-family="Times,serif" font-size="14.00">Normal</text>
</g>
<!-- psi_child&#45;&gt;psi -->
<g id="edge7" class="edge">
<title>psi_child&#45;&gt;psi</title>
<path fill="none" stroke="black" d="M79.44,-253.18C90.47,-240.25 104.73,-226.7 120.86,-218.95 186.71,-187.3 394.92,-179.74 503.5,-177.97"/>
<polygon fill="black" stroke="black" points="503.74,-181.47 513.69,-177.81 503.64,-174.47 503.74,-181.47"/>
</g>
<!-- child -->
<g id="node6" class="node">
<title>child</title>
<ellipse fill="none" stroke="black" cx="512.86" cy="-287.43" rx="49.49" ry="37.45"/>
<text text-anchor="middle" x="512.86" y="-298.73" font-family="Times,serif" font-size="14.00">child</text>
<text text-anchor="middle" x="512.86" y="-283.73" font-family="Times,serif" font-size="14.00">~</text>
<text text-anchor="middle" x="512.86" y="-268.73" font-family="Times,serif" font-size="14.00">Normal</text>
</g>
<!-- child&#45;&gt;mu -->
<g id="edge2" class="edge">
<title>child&#45;&gt;mu</title>
<path fill="none" stroke="black" d="M533.58,-253.08C543.29,-240.3 556.01,-226.89 570.86,-218.95 596.92,-205.03 608.59,-219.55 636.86,-210.95 640.63,-209.81 644.44,-208.46 648.22,-206.97"/>
<polygon fill="black" stroke="black" points="649.72,-210.14 657.56,-203.01 646.99,-203.69 649.72,-210.14"/>
</g>
<!-- livebait -->
<g id="node7" class="node">
<title>livebait</title>
<ellipse fill="none" stroke="black" cx="885.86" cy="-287.43" rx="49.49" ry="37.45"/>
<text text-anchor="middle" x="885.86" y="-298.73" font-family="Times,serif" font-size="14.00">livebait</text>
<text text-anchor="middle" x="885.86" y="-283.73" font-family="Times,serif" font-size="14.00">~</text>
<text text-anchor="middle" x="885.86" y="-268.73" font-family="Times,serif" font-size="14.00">Normal</text>
</g>
<!-- livebait&#45;&gt;mu -->
<g id="edge5" class="edge">
<title>livebait&#45;&gt;mu</title>
<path fill="none" stroke="black" d="M863.74,-253.82C853.97,-241.46 841.59,-228.16 827.86,-218.95 810.4,-207.24 789.35,-198.59 769.55,-192.31"/>
<polygon fill="black" stroke="black" points="770.54,-188.95 759.95,-189.42 768.52,-195.65 770.54,-188.95"/>
</g>
<!-- camper -->
<g id="node8" class="node">
<title>camper</title>
<ellipse fill="none" stroke="black" cx="1019.86" cy="-287.43" rx="49.49" ry="37.45"/>
<text text-anchor="middle" x="1019.86" y="-298.73" font-family="Times,serif" font-size="14.00">camper</text>
<text text-anchor="middle" x="1019.86" y="-283.73" font-family="Times,serif" font-size="14.00">~</text>
<text text-anchor="middle" x="1019.86" y="-268.73" font-family="Times,serif" font-size="14.00">Normal</text>
</g>
<!-- camper&#45;&gt;mu -->
<g id="edge4" class="edge">
<title>camper&#45;&gt;mu</title>
<path fill="none" stroke="black" d="M997.86,-253.72C987.53,-240.88 974.12,-227.25 958.86,-218.95 927.14,-201.7 834.65,-189.77 770.01,-183.27"/>
<polygon fill="black" stroke="black" points="770.18,-179.77 759.89,-182.28 769.49,-186.74 770.18,-179.77"/>
</g>
<!-- psi_livebait -->
<g id="node9" class="node">
<title>psi_livebait</title>
<ellipse fill="none" stroke="black" cx="1175.86" cy="-287.43" rx="69.09" ry="37.45"/>
<text text-anchor="middle" x="1175.86" y="-298.73" font-family="Times,serif" font-size="14.00">psi_livebait</text>
<text text-anchor="middle" x="1175.86" y="-283.73" font-family="Times,serif" font-size="14.00">~</text>
<text text-anchor="middle" x="1175.86" y="-268.73" font-family="Times,serif" font-size="14.00">Normal</text>
</g>
<!-- psi_livebait&#45;&gt;psi -->
<g id="edge9" class="edge">
<title>psi_livebait&#45;&gt;psi</title>
<path fill="none" stroke="black" d="M1146.05,-253.18C1131.98,-239.91 1114.07,-226.1 1094.86,-218.95 1047.16,-201.21 686.26,-223.23 636.86,-210.95 632.54,-209.88 628.17,-208.48 623.86,-206.86"/>
<polygon fill="black" stroke="black" points="625.11,-203.59 614.53,-203.03 622.44,-210.07 625.11,-203.59"/>
</g>
<!-- psi_camper -->
<g id="node10" class="node">
<title>psi_camper</title>
<ellipse fill="none" stroke="black" cx="1338.86" cy="-287.43" rx="69.09" ry="37.45"/>
<text text-anchor="middle" x="1338.86" y="-298.73" font-family="Times,serif" font-size="14.00">psi_camper</text>
<text text-anchor="middle" x="1338.86" y="-283.73" font-family="Times,serif" font-size="14.00">~</text>
<text text-anchor="middle" x="1338.86" y="-268.73" font-family="Times,serif" font-size="14.00">Normal</text>
</g>
<!-- psi_camper&#45;&gt;psi -->
<g id="edge6" class="edge">
<title>psi_camper&#45;&gt;psi</title>
<path fill="none" stroke="black" d="M1309.44,-253.49C1295.32,-240.1 1277.26,-226.12 1257.86,-218.95 1225.49,-207 670.36,-219.2 636.86,-210.95 632.53,-209.89 628.17,-208.5 623.85,-206.89"/>
<polygon fill="black" stroke="black" points="625.1,-203.62 614.52,-203.06 622.44,-210.09 625.1,-203.62"/>
</g>
<!-- count -->
<g id="node12" class="node">
<title>count</title>
<ellipse fill="lightgrey" stroke="black" cx="636.86" cy="-76.48" rx="97.66" ry="37.45"/>
<text text-anchor="middle" x="636.86" y="-87.78" font-family="Times,serif" font-size="14.00">count</text>
<text text-anchor="middle" x="636.86" y="-72.78" font-family="Times,serif" font-size="14.00">~</text>
<text text-anchor="middle" x="636.86" y="-57.78" font-family="Times,serif" font-size="14.00">MarginalMixture</text>
</g>
<!-- mu&#45;&gt;count -->
<g id="edge11" class="edge">
<title>mu&#45;&gt;count</title>
<path fill="none" stroke="black" d="M685.52,-149.71C679.67,-141.03 672.97,-131.08 666.45,-121.39"/>
<polygon fill="black" stroke="black" points="669.27,-119.33 660.79,-112.99 663.47,-123.24 669.27,-119.33"/>
</g>
<!-- psi&#45;&gt;count -->
<g id="edge12" class="edge">
<title>psi&#45;&gt;count</title>
<path fill="none" stroke="black" d="M588.2,-149.71C594.05,-141.03 600.75,-131.08 607.28,-121.39"/>
<polygon fill="black" stroke="black" points="610.25,-123.24 612.94,-112.99 604.45,-119.33 610.25,-123.24"/>
</g>
</g>
</svg>
