<?xml version="1.0" encoding="UTF-8" standalone="no"?>
<!DOCTYPE svg PUBLIC "-//W3C//DTD SVG 1.1//EN"
 "http://www.w3.org/Graphics/SVG/1.1/DTD/svg11.dtd">
<!-- Generated by graphviz version 2.50.0 (0)
 -->
<!-- Pages: 1 -->
<svg width="282pt" height="260pt"
 viewBox="0.00 0.00 282.49 259.91" xmlns="http://www.w3.org/2000/svg" xmlns:xlink="http://www.w3.org/1999/xlink">
<g id="graph0" class="graph" transform="scale(1 1) rotate(0) translate(4 255.91)">
<polygon fill="white" stroke="transparent" points="-4,4 -4,-255.91 278.49,-255.91 278.49,4 -4,4"/>
<g id="clust1" class="cluster">
<title>clusterfloor_dim (2)</title>
<path fill="none" stroke="black" d="M178.49,-129.95C178.49,-129.95 254.49,-129.95 254.49,-129.95 260.49,-129.95 266.49,-135.95 266.49,-141.95 266.49,-141.95 266.49,-231.91 266.49,-231.91 266.49,-237.91 260.49,-243.91 254.49,-243.91 254.49,-243.91 178.49,-243.91 178.49,-243.91 172.49,-243.91 166.49,-237.91 166.49,-231.91 166.49,-231.91 166.49,-141.95 166.49,-141.95 166.49,-135.95 172.49,-129.95 178.49,-129.95"/>
<text text-anchor="middle" x="220.99" y="-137.75" font-family="Times,serif" font-size="14.00">floor_dim (2)</text>
</g>
<g id="clust2" class="cluster">
<title>clusterlog_radon_obs (919)</title>
<path fill="none" stroke="black" d="M93.49,-8C93.49,-8 199.49,-8 199.49,-8 205.49,-8 211.49,-14 211.49,-20 211.49,-20 211.49,-109.95 211.49,-109.95 211.49,-115.95 205.49,-121.95 199.49,-121.95 199.49,-121.95 93.49,-121.95 93.49,-121.95 87.49,-121.95 81.49,-115.95 81.49,-109.95 81.49,-109.95 81.49,-20 81.49,-20 81.49,-14 87.49,-8 93.49,-8"/>
<text text-anchor="middle" x="146.49" y="-15.8" font-family="Times,serif" font-size="14.00">log_radon_obs (919)</text>
</g>
<!-- log_radon_sigma -->
<g id="node1" class="node">
<title>log_radon_sigma</title>
<ellipse fill="none" stroke="black" cx="78.49" cy="-198.43" rx="78.48" ry="37.45"/>
<text text-anchor="middle" x="78.49" y="-209.73" font-family="Times,serif" font-size="14.00">log_radon_sigma</text>
<text text-anchor="middle" x="78.49" y="-194.73" font-family="Times,serif" font-size="14.00">~</text>
<text text-anchor="middle" x="78.49" y="-179.73" font-family="Times,serif" font-size="14.00">Exponential</text>
</g>
<!-- log_radon -->
<g id="node3" class="node">
<title>log_radon</title>
<ellipse fill="lightgrey" stroke="black" cx="144.49" cy="-76.48" rx="50.41" ry="37.45"/>
<text text-anchor="middle" x="144.49" y="-87.78" font-family="Times,serif" font-size="14.00">log_radon</text>
<text text-anchor="middle" x="144.49" y="-72.78" font-family="Times,serif" font-size="14.00">~</text>
<text text-anchor="middle" x="144.49" y="-57.78" font-family="Times,serif" font-size="14.00">Normal</text>
</g>
<!-- log_radon_sigma&#45;&gt;log_radon -->
<g id="edge2" class="edge">
<title>log_radon_sigma&#45;&gt;log_radon</title>
<path fill="none" stroke="black" d="M97.93,-162.09C105.17,-148.94 113.46,-133.87 121.02,-120.13"/>
<polygon fill="black" stroke="black" points="124.11,-121.78 125.86,-111.33 117.98,-118.4 124.11,-121.78"/>
</g>
<!-- floor -->
<g id="node2" class="node">
<title>floor</title>
<ellipse fill="none" stroke="black" cx="216.49" cy="-198.43" rx="41.94" ry="37.45"/>
<text text-anchor="middle" x="216.49" y="-209.73" font-family="Times,serif" font-size="14.00">floor</text>
<text text-anchor="middle" x="216.49" y="-194.73" font-family="Times,serif" font-size="14.00">~</text>
<text text-anchor="middle" x="216.49" y="-179.73" font-family="Times,serif" font-size="14.00">Normal</text>
</g>
<!-- floor&#45;&gt;log_radon -->
<g id="edge1" class="edge">
<title>floor&#45;&gt;log_radon</title>
<path fill="none" stroke="black" d="M197,-164.97C188.73,-151.18 178.96,-134.91 170.11,-120.17"/>
<polygon fill="black" stroke="black" points="172.89,-117.99 164.74,-111.22 166.89,-121.59 172.89,-117.99"/>
</g>
</g>
</svg>
