<?xml version="1.0" encoding="UTF-8" standalone="no"?>
<!DOCTYPE svg PUBLIC "-//W3C//DTD SVG 1.1//EN"
 "http://www.w3.org/Graphics/SVG/1.1/DTD/svg11.dtd">
<!-- Generated by graphviz version 2.50.0 (0)
 -->
<!-- Pages: 1 -->
<svg width="894pt" height="360pt"
 viewBox="0.00 0.00 894.20 359.88" xmlns="http://www.w3.org/2000/svg" xmlns:xlink="http://www.w3.org/1999/xlink">
<g id="graph0" class="graph" transform="scale(1 1) rotate(0) translate(4 355.88)">
<polygon fill="white" stroke="transparent" points="-4,4 -4,-355.88 890.2,-355.88 890.2,4 -4,4"/>
<g id="clust1" class="cluster">
<title>clusterSubject__factor_dim (18)</title>
<path fill="none" stroke="black" d="M172.66,-129.95C172.66,-129.95 506.66,-129.95 506.66,-129.95 512.66,-129.95 518.66,-135.95 518.66,-141.95 518.66,-141.95 518.66,-331.88 518.66,-331.88 518.66,-337.88 512.66,-343.88 506.66,-343.88 506.66,-343.88 172.66,-343.88 172.66,-343.88 166.66,-343.88 160.66,-337.88 160.66,-331.88 160.66,-331.88 160.66,-141.95 160.66,-141.95 160.66,-135.95 166.66,-129.95 172.66,-129.95"/>
<text text-anchor="middle" x="440.16" y="-137.75" font-family="Times,serif" font-size="14.00">Subject__factor_dim (18)</text>
</g>
<g id="clust2" class="cluster">
<title>clusterReaction_obs (180)</title>
<path fill="none" stroke="black" d="M519.66,-8C519.66,-8 618.66,-8 618.66,-8 624.66,-8 630.66,-14 630.66,-20 630.66,-20 630.66,-109.95 630.66,-109.95 630.66,-115.95 624.66,-121.95 618.66,-121.95 618.66,-121.95 519.66,-121.95 519.66,-121.95 513.66,-121.95 507.66,-115.95 507.66,-109.95 507.66,-109.95 507.66,-20 507.66,-20 507.66,-14 513.66,-8 519.66,-8"/>
<text text-anchor="middle" x="569.16" y="-15.8" font-family="Times,serif" font-size="14.00">Reaction_obs (180)</text>
</g>
<!-- 1|Subject_sigma -->
<g id="node1" class="node">
<title>1|Subject_sigma</title>
<ellipse fill="none" stroke="black" cx="75.66" cy="-298.41" rx="75.82" ry="37.45"/>
<text text-anchor="middle" x="75.66" y="-309.71" font-family="Times,serif" font-size="14.00">1|Subject_sigma</text>
<text text-anchor="middle" x="75.66" y="-294.71" font-family="Times,serif" font-size="14.00">~</text>
<text text-anchor="middle" x="75.66" y="-279.71" font-family="Times,serif" font-size="14.00">HalfNormal</text>
</g>
<!-- 1|Subject -->
<g id="node9" class="node">
<title>1|Subject</title>
<polygon fill="none" stroke="black" points="288.16,-213.95 197.16,-213.95 197.16,-160.95 288.16,-160.95 288.16,-213.95"/>
<text text-anchor="middle" x="242.66" y="-198.75" font-family="Times,serif" font-size="14.00">1|Subject</text>
<text text-anchor="middle" x="242.66" y="-183.75" font-family="Times,serif" font-size="14.00">~</text>
<text text-anchor="middle" x="242.66" y="-168.75" font-family="Times,serif" font-size="14.00">Deterministic</text>
</g>
<!-- 1|Subject_sigma&#45;&gt;1|Subject -->
<g id="edge2" class="edge">
<title>1|Subject_sigma&#45;&gt;1|Subject</title>
<path fill="none" stroke="black" d="M120.85,-267.92C143.72,-253 171.49,-234.89 194.73,-219.72"/>
<polygon fill="black" stroke="black" points="196.93,-222.47 203.4,-214.07 193.11,-216.6 196.93,-222.47"/>
</g>
<!-- Days -->
<g id="node2" class="node">
<title>Days</title>
<ellipse fill="none" stroke="black" cx="568.66" cy="-187.45" rx="41.94" ry="37.45"/>
<text text-anchor="middle" x="568.66" y="-198.75" font-family="Times,serif" font-size="14.00">Days</text>
<text text-anchor="middle" x="568.66" y="-183.75" font-family="Times,serif" font-size="14.00">~</text>
<text text-anchor="middle" x="568.66" y="-168.75" font-family="Times,serif" font-size="14.00">Normal</text>
</g>
<!-- Reaction -->
<g id="node10" class="node">
<title>Reaction</title>
<ellipse fill="lightgrey" stroke="black" cx="568.66" cy="-76.48" rx="45.92" ry="37.45"/>
<text text-anchor="middle" x="568.66" y="-87.78" font-family="Times,serif" font-size="14.00">Reaction</text>
<text text-anchor="middle" x="568.66" y="-72.78" font-family="Times,serif" font-size="14.00">~</text>
<text text-anchor="middle" x="568.66" y="-57.78" font-family="Times,serif" font-size="14.00">Normal</text>
</g>
<!-- Days&#45;&gt;Reaction -->
<g id="edge9" class="edge">
<title>Days&#45;&gt;Reaction</title>
<path fill="none" stroke="black" d="M568.66,-149.86C568.66,-141.69 568.66,-132.9 568.66,-124.38"/>
<polygon fill="black" stroke="black" points="572.16,-124.16 568.66,-114.16 565.16,-124.16 572.16,-124.16"/>
</g>
<!-- Intercept -->
<g id="node3" class="node">
<title>Intercept</title>
<ellipse fill="none" stroke="black" cx="674.66" cy="-187.45" rx="45.92" ry="37.45"/>
<text text-anchor="middle" x="674.66" y="-198.75" font-family="Times,serif" font-size="14.00">Intercept</text>
<text text-anchor="middle" x="674.66" y="-183.75" font-family="Times,serif" font-size="14.00">~</text>
<text text-anchor="middle" x="674.66" y="-168.75" font-family="Times,serif" font-size="14.00">Normal</text>
</g>
<!-- Intercept&#45;&gt;Reaction -->
<g id="edge6" class="edge">
<title>Intercept&#45;&gt;Reaction</title>
<path fill="none" stroke="black" d="M646.53,-157.54C633.48,-144.11 617.81,-128.01 603.97,-113.78"/>
<polygon fill="black" stroke="black" points="606.4,-111.26 596.92,-106.53 601.38,-116.14 606.4,-111.26"/>
</g>
<!-- Reaction_sigma -->
<g id="node4" class="node">
<title>Reaction_sigma</title>
<ellipse fill="none" stroke="black" cx="812.66" cy="-187.45" rx="73.58" ry="37.45"/>
<text text-anchor="middle" x="812.66" y="-198.75" font-family="Times,serif" font-size="14.00">Reaction_sigma</text>
<text text-anchor="middle" x="812.66" y="-183.75" font-family="Times,serif" font-size="14.00">~</text>
<text text-anchor="middle" x="812.66" y="-168.75" font-family="Times,serif" font-size="14.00">HalfStudentT</text>
</g>
<!-- Reaction_sigma&#45;&gt;Reaction -->
<g id="edge5" class="edge">
<title>Reaction_sigma&#45;&gt;Reaction</title>
<path fill="none" stroke="black" d="M772.68,-155.89C759.47,-146.71 744.37,-137.17 729.66,-129.95 695.49,-113.18 654.7,-99.95 622.72,-90.97"/>
<polygon fill="black" stroke="black" points="623.24,-87.48 612.67,-88.2 621.38,-94.23 623.24,-87.48"/>
</g>
<!-- Days|Subject_sigma -->
<g id="node5" class="node">
<title>Days|Subject_sigma</title>
<ellipse fill="none" stroke="black" cx="619.66" cy="-298.41" rx="90.52" ry="37.45"/>
<text text-anchor="middle" x="619.66" y="-309.71" font-family="Times,serif" font-size="14.00">Days|Subject_sigma</text>
<text text-anchor="middle" x="619.66" y="-294.71" font-family="Times,serif" font-size="14.00">~</text>
<text text-anchor="middle" x="619.66" y="-279.71" font-family="Times,serif" font-size="14.00">HalfNormal</text>
</g>
<!-- Days|Subject -->
<g id="node8" class="node">
<title>Days|Subject</title>
<polygon fill="none" stroke="black" points="509.16,-213.95 418.16,-213.95 418.16,-160.95 509.16,-160.95 509.16,-213.95"/>
<text text-anchor="middle" x="463.66" y="-198.75" font-family="Times,serif" font-size="14.00">Days|Subject</text>
<text text-anchor="middle" x="463.66" y="-183.75" font-family="Times,serif" font-size="14.00">~</text>
<text text-anchor="middle" x="463.66" y="-168.75" font-family="Times,serif" font-size="14.00">Deterministic</text>
</g>
<!-- Days|Subject_sigma&#45;&gt;Days|Subject -->
<g id="edge4" class="edge">
<title>Days|Subject_sigma&#45;&gt;Days|Subject</title>
<path fill="none" stroke="black" d="M574.54,-265.89C553.82,-251.42 529.31,-234.3 508.61,-219.84"/>
<polygon fill="black" stroke="black" points="510.49,-216.89 500.29,-214.03 506.48,-222.63 510.49,-216.89"/>
</g>
<!-- Days|Subject_offset -->
<g id="node6" class="node">
<title>Days|Subject_offset</title>
<ellipse fill="none" stroke="black" cx="422.66" cy="-298.41" rx="88.28" ry="37.45"/>
<text text-anchor="middle" x="422.66" y="-309.71" font-family="Times,serif" font-size="14.00">Days|Subject_offset</text>
<text text-anchor="middle" x="422.66" y="-294.71" font-family="Times,serif" font-size="14.00">~</text>
<text text-anchor="middle" x="422.66" y="-279.71" font-family="Times,serif" font-size="14.00">Normal</text>
</g>
<!-- Days|Subject_offset&#45;&gt;Days|Subject -->
<g id="edge3" class="edge">
<title>Days|Subject_offset&#45;&gt;Days|Subject</title>
<path fill="none" stroke="black" d="M436.31,-261.13C440.83,-249.13 445.84,-235.81 450.33,-223.88"/>
<polygon fill="black" stroke="black" points="453.71,-224.84 453.95,-214.25 447.16,-222.37 453.71,-224.84"/>
</g>
<!-- 1|Subject_offset -->
<g id="node7" class="node">
<title>1|Subject_offset</title>
<ellipse fill="none" stroke="black" cx="242.66" cy="-298.41" rx="73.58" ry="37.45"/>
<text text-anchor="middle" x="242.66" y="-309.71" font-family="Times,serif" font-size="14.00">1|Subject_offset</text>
<text text-anchor="middle" x="242.66" y="-294.71" font-family="Times,serif" font-size="14.00">~</text>
<text text-anchor="middle" x="242.66" y="-279.71" font-family="Times,serif" font-size="14.00">Normal</text>
</g>
<!-- 1|Subject_offset&#45;&gt;1|Subject -->
<g id="edge1" class="edge">
<title>1|Subject_offset&#45;&gt;1|Subject</title>
<path fill="none" stroke="black" d="M242.66,-260.82C242.66,-249.09 242.66,-236.1 242.66,-224.41"/>
<polygon fill="black" stroke="black" points="246.16,-224.11 242.66,-214.11 239.16,-224.11 246.16,-224.11"/>
</g>
<!-- Days|Subject&#45;&gt;Reaction -->
<g id="edge7" class="edge">
<title>Days|Subject&#45;&gt;Reaction</title>
<path fill="none" stroke="black" d="M488.08,-160.82C497.33,-151.13 507.96,-140.02 517.66,-129.95 522.75,-124.67 528.14,-119.1 533.44,-113.64"/>
<polygon fill="black" stroke="black" points="536.1,-115.92 540.56,-106.31 531.08,-111.04 536.1,-115.92"/>
</g>
<!-- 1|Subject&#45;&gt;Reaction -->
<g id="edge8" class="edge">
<title>1|Subject&#45;&gt;Reaction</title>
<path fill="none" stroke="black" d="M288.35,-170.89C321.9,-159.49 368.58,-143.68 409.66,-129.95 445.36,-118.02 485.62,-104.74 516.7,-94.52"/>
<polygon fill="black" stroke="black" points="518.04,-97.76 526.45,-91.31 515.86,-91.11 518.04,-97.76"/>
</g>
</g>
</svg>
