<?xml version="1.0" encoding="UTF-8" standalone="no"?>
<!DOCTYPE svg PUBLIC "-//W3C//DTD SVG 1.1//EN"
 "http://www.w3.org/Graphics/SVG/1.1/DTD/svg11.dtd">
<!-- Generated by graphviz version 2.50.0 (0)
 -->
<!-- Pages: 1 -->
<svg width="310pt" height="344pt"
 viewBox="0.00 0.00 309.68 343.86" xmlns="http://www.w3.org/2000/svg" xmlns:xlink="http://www.w3.org/1999/xlink">
<g id="graph0" class="graph" transform="scale(1 1) rotate(0) translate(4 339.86)">
<polygon fill="white" stroke="transparent" points="-4,4 -4,-339.86 305.68,-339.86 305.68,4 -4,4"/>
<g id="clust1" class="cluster">
<title>clustery_obs (200)</title>
<path fill="none" stroke="black" d="M112.96,-8C112.96,-8 196.96,-8 196.96,-8 202.96,-8 208.96,-14 208.96,-20 208.96,-20 208.96,-209.93 208.96,-209.93 208.96,-215.93 202.96,-221.93 196.96,-221.93 196.96,-221.93 112.96,-221.93 112.96,-221.93 106.96,-221.93 100.96,-215.93 100.96,-209.93 100.96,-209.93 100.96,-20 100.96,-20 100.96,-14 106.96,-8 112.96,-8"/>
<text text-anchor="middle" x="167.96" y="-15.8" font-family="Times,serif" font-size="14.00">y_obs (200)</text>
</g>
<!-- Intercept -->
<g id="node1" class="node">
<title>Intercept</title>
<ellipse fill="none" stroke="black" cx="45.96" cy="-187.43" rx="45.92" ry="37.45"/>
<text text-anchor="middle" x="45.96" y="-198.73" font-family="Times,serif" font-size="14.00">Intercept</text>
<text text-anchor="middle" x="45.96" y="-183.73" font-family="Times,serif" font-size="14.00">~</text>
<text text-anchor="middle" x="45.96" y="-168.73" font-family="Times,serif" font-size="14.00">Normal</text>
</g>
<!-- y -->
<g id="node6" class="node">
<title>y</title>
<ellipse fill="lightgrey" stroke="black" cx="154.96" cy="-76.48" rx="43.27" ry="37.45"/>
<text text-anchor="middle" x="154.96" y="-87.78" font-family="Times,serif" font-size="14.00">y</text>
<text text-anchor="middle" x="154.96" y="-72.78" font-family="Times,serif" font-size="14.00">~</text>
<text text-anchor="middle" x="154.96" y="-57.78" font-family="Times,serif" font-size="14.00">Gamma</text>
</g>
<!-- Intercept&#45;&gt;y -->
<g id="edge4" class="edge">
<title>Intercept&#45;&gt;y</title>
<path fill="none" stroke="black" d="M74.6,-157.8C88.35,-144.06 104.96,-127.46 119.5,-112.92"/>
<polygon fill="black" stroke="black" points="122.29,-115.08 126.89,-105.53 117.34,-110.13 122.29,-115.08"/>
</g>
<!-- alpha_Intercept -->
<g id="node2" class="node">
<title>alpha_Intercept</title>
<ellipse fill="none" stroke="black" cx="89.96" cy="-298.38" rx="71.34" ry="37.45"/>
<text text-anchor="middle" x="89.96" y="-309.68" font-family="Times,serif" font-size="14.00">alpha_Intercept</text>
<text text-anchor="middle" x="89.96" y="-294.68" font-family="Times,serif" font-size="14.00">~</text>
<text text-anchor="middle" x="89.96" y="-279.68" font-family="Times,serif" font-size="14.00">Normal</text>
</g>
<!-- y_alpha -->
<g id="node5" class="node">
<title>y_alpha</title>
<polygon fill="none" stroke="black" points="200.46,-213.93 109.46,-213.93 109.46,-160.93 200.46,-160.93 200.46,-213.93"/>
<text text-anchor="middle" x="154.96" y="-198.73" font-family="Times,serif" font-size="14.00">y_alpha</text>
<text text-anchor="middle" x="154.96" y="-183.73" font-family="Times,serif" font-size="14.00">~</text>
<text text-anchor="middle" x="154.96" y="-168.73" font-family="Times,serif" font-size="14.00">Deterministic</text>
</g>
<!-- alpha_Intercept&#45;&gt;y_alpha -->
<g id="edge2" class="edge">
<title>alpha_Intercept&#45;&gt;y_alpha</title>
<path fill="none" stroke="black" d="M110.89,-262.31C118.41,-249.7 126.89,-235.48 134.39,-222.92"/>
<polygon fill="black" stroke="black" points="137.53,-224.49 139.64,-214.11 131.51,-220.9 137.53,-224.49"/>
</g>
<!-- x -->
<g id="node3" class="node">
<title>x</title>
<ellipse fill="none" stroke="black" cx="259.96" cy="-187.43" rx="41.94" ry="37.45"/>
<text text-anchor="middle" x="259.96" y="-198.73" font-family="Times,serif" font-size="14.00">x</text>
<text text-anchor="middle" x="259.96" y="-183.73" font-family="Times,serif" font-size="14.00">~</text>
<text text-anchor="middle" x="259.96" y="-168.73" font-family="Times,serif" font-size="14.00">Normal</text>
</g>
<!-- x&#45;&gt;y -->
<g id="edge5" class="edge">
<title>x&#45;&gt;y</title>
<path fill="none" stroke="black" d="M233.19,-158.65C219.95,-144.91 203.8,-128.15 189.62,-113.44"/>
<polygon fill="black" stroke="black" points="191.87,-110.73 182.41,-105.96 186.83,-115.59 191.87,-110.73"/>
</g>
<!-- alpha_x -->
<g id="node4" class="node">
<title>alpha_x</title>
<ellipse fill="none" stroke="black" cx="220.96" cy="-298.38" rx="41.94" ry="37.45"/>
<text text-anchor="middle" x="220.96" y="-309.68" font-family="Times,serif" font-size="14.00">alpha_x</text>
<text text-anchor="middle" x="220.96" y="-294.68" font-family="Times,serif" font-size="14.00">~</text>
<text text-anchor="middle" x="220.96" y="-279.68" font-family="Times,serif" font-size="14.00">Normal</text>
</g>
<!-- alpha_x&#45;&gt;y_alpha -->
<g id="edge1" class="edge">
<title>alpha_x&#45;&gt;y_alpha</title>
<path fill="none" stroke="black" d="M201.34,-264.99C193.23,-251.61 183.83,-236.09 175.62,-222.54"/>
<polygon fill="black" stroke="black" points="178.6,-220.7 170.43,-213.96 172.61,-224.33 178.6,-220.7"/>
</g>
<!-- y_alpha&#45;&gt;y -->
<g id="edge3" class="edge">
<title>y_alpha&#45;&gt;y</title>
<path fill="none" stroke="black" d="M154.96,-160.89C154.96,-149.98 154.96,-136.89 154.96,-124.35"/>
<polygon fill="black" stroke="black" points="158.46,-124 154.96,-114 151.46,-124 158.46,-124"/>
</g>
</g>
</svg>
