<?xml version="1.0" encoding="UTF-8" standalone="no"?>
<!DOCTYPE svg PUBLIC "-//W3C//DTD SVG 1.1//EN"
 "http://www.w3.org/Graphics/SVG/1.1/DTD/svg11.dtd">
<!-- Generated by graphviz version 2.42.3 (20191010.1750)
 -->
<!-- Title: %3 Pages: 1 -->
<svg width="444pt" height="355pt"
 viewBox="0.00 0.00 444.49 354.86" xmlns="http://www.w3.org/2000/svg" xmlns:xlink="http://www.w3.org/1999/xlink">
<g id="graph0" class="graph" transform="scale(1 1) rotate(0) translate(4 350.86)">
<title>%3</title>
<polygon fill="white" stroke="transparent" points="-4,4 -4,-350.86 440.49,-350.86 440.49,4 -4,4"/>
<g id="clust1" class="cluster">
<title>clustercounty__factor_dim (85)</title>
<path fill="none" stroke="black" d="M20,-129.95C20,-129.95 149,-129.95 149,-129.95 155,-129.95 161,-135.95 161,-141.95 161,-141.95 161,-231.91 161,-231.91 161,-237.91 155,-243.91 149,-243.91 149,-243.91 20,-243.91 20,-243.91 14,-243.91 8,-237.91 8,-231.91 8,-231.91 8,-141.95 8,-141.95 8,-135.95 14,-129.95 20,-129.95"/>
<text text-anchor="middle" x="84.5" y="-137.75" font-family="Times,serif" font-size="14.00">county__factor_dim (85)</text>
</g>
<g id="clust2" class="cluster">
<title>cluster919</title>
<path fill="none" stroke="black" d="M170,-8C170,-8 262,-8 262,-8 268,-8 274,-14 274,-20 274,-20 274,-109.95 274,-109.95 274,-115.95 268,-121.95 262,-121.95 262,-121.95 170,-121.95 170,-121.95 164,-121.95 158,-115.95 158,-109.95 158,-109.95 158,-20 158,-20 158,-14 164,-8 170,-8"/>
<text text-anchor="middle" x="255.5" y="-15.8" font-family="Times,serif" font-size="14.00">919</text>
</g>
<!-- 1|county_sigma -->
<g id="node1" class="node">
<title>1|county_sigma</title>
<ellipse fill="none" stroke="black" cx="107" cy="-309.38" rx="72.66" ry="37.45"/>
<text text-anchor="middle" x="107" y="-320.68" font-family="Times,serif" font-size="14.00">1|county_sigma</text>
<text text-anchor="middle" x="107" y="-305.68" font-family="Times,serif" font-size="14.00">~</text>
<text text-anchor="middle" x="107" y="-290.68" font-family="Times,serif" font-size="14.00">Exponential</text>
</g>
<!-- 1|county -->
<g id="node4" class="node">
<title>1|county</title>
<ellipse fill="none" stroke="black" cx="107" cy="-198.43" rx="44.6" ry="37.45"/>
<text text-anchor="middle" x="107" y="-209.73" font-family="Times,serif" font-size="14.00">1|county</text>
<text text-anchor="middle" x="107" y="-194.73" font-family="Times,serif" font-size="14.00">~</text>
<text text-anchor="middle" x="107" y="-179.73" font-family="Times,serif" font-size="14.00">Normal</text>
</g>
<!-- 1|county_sigma&#45;&gt;1|county -->
<g id="edge1" class="edge">
<title>1|county_sigma&#45;&gt;1|county</title>
<path fill="none" stroke="black" d="M107,-271.8C107,-263.63 107,-254.85 107,-246.32"/>
<polygon fill="black" stroke="black" points="110.5,-246.1 107,-236.1 103.5,-246.1 110.5,-246.1"/>
</g>
<!-- Intercept -->
<g id="node2" class="node">
<title>Intercept</title>
<ellipse fill="none" stroke="black" cx="216" cy="-198.43" rx="45.92" ry="37.45"/>
<text text-anchor="middle" x="216" y="-209.73" font-family="Times,serif" font-size="14.00">Intercept</text>
<text text-anchor="middle" x="216" y="-194.73" font-family="Times,serif" font-size="14.00">~</text>
<text text-anchor="middle" x="216" y="-179.73" font-family="Times,serif" font-size="14.00">Normal</text>
</g>
<!-- log_radon -->
<g id="node5" class="node">
<title>log_radon</title>
<ellipse fill="lightgrey" stroke="black" cx="216" cy="-76.48" rx="50.41" ry="37.45"/>
<text text-anchor="middle" x="216" y="-87.78" font-family="Times,serif" font-size="14.00">log_radon</text>
<text text-anchor="middle" x="216" y="-72.78" font-family="Times,serif" font-size="14.00">~</text>
<text text-anchor="middle" x="216" y="-57.78" font-family="Times,serif" font-size="14.00">Normal</text>
</g>
<!-- Intercept&#45;&gt;log_radon -->
<g id="edge3" class="edge">
<title>Intercept&#45;&gt;log_radon</title>
<path fill="none" stroke="black" d="M216,-160.79C216,-149.38 216,-136.65 216,-124.63"/>
<polygon fill="black" stroke="black" points="219.5,-124.31 216,-114.31 212.5,-124.31 219.5,-124.31"/>
</g>
<!-- log_radon_sigma -->
<g id="node3" class="node">
<title>log_radon_sigma</title>
<ellipse fill="none" stroke="black" cx="358" cy="-198.43" rx="78.48" ry="37.45"/>
<text text-anchor="middle" x="358" y="-209.73" font-family="Times,serif" font-size="14.00">log_radon_sigma</text>
<text text-anchor="middle" x="358" y="-194.73" font-family="Times,serif" font-size="14.00">~</text>
<text text-anchor="middle" x="358" y="-179.73" font-family="Times,serif" font-size="14.00">Exponential</text>
</g>
<!-- log_radon_sigma&#45;&gt;log_radon -->
<g id="edge4" class="edge">
<title>log_radon_sigma&#45;&gt;log_radon</title>
<path fill="none" stroke="black" d="M319.95,-165.28C300.36,-148.74 276.49,-128.57 256.56,-111.74"/>
<polygon fill="black" stroke="black" points="258.75,-109 248.85,-105.22 254.23,-114.35 258.75,-109"/>
</g>
<!-- 1|county&#45;&gt;log_radon -->
<g id="edge2" class="edge">
<title>1|county&#45;&gt;log_radon</title>
<path fill="none" stroke="black" d="M130.35,-166.48C139.57,-154.75 150.46,-141.46 161,-129.95 166.09,-124.4 171.64,-118.72 177.2,-113.24"/>
<polygon fill="black" stroke="black" points="180,-115.4 184.74,-105.92 175.12,-110.37 180,-115.4"/>
</g>
</g>
</svg>
