<?xml version="1.0" encoding="UTF-8" standalone="no"?>
<!DOCTYPE svg PUBLIC "-//W3C//DTD SVG 1.1//EN"
 "http://www.w3.org/Graphics/SVG/1.1/DTD/svg11.dtd">
<!-- Generated by graphviz version 2.50.0 (0)
 -->
<!-- Pages: 1 -->
<svg width="867pt" height="382pt"
 viewBox="0.00 0.00 866.72 381.86" xmlns="http://www.w3.org/2000/svg" xmlns:xlink="http://www.w3.org/1999/xlink">
<g id="graph0" class="graph" transform="scale(1 1) rotate(0) translate(4 377.86)">
<polygon fill="white" stroke="transparent" points="-4,4 -4,-377.86 862.72,-377.86 862.72,4 -4,4"/>
<g id="clust1" class="cluster">
<title>clusterfloor_dim (2)</title>
<path fill="none" stroke="black" d="M279.72,-129.95C279.72,-129.95 355.72,-129.95 355.72,-129.95 361.72,-129.95 367.72,-135.95 367.72,-141.95 367.72,-141.95 367.72,-231.91 367.72,-231.91 367.72,-237.91 361.72,-243.91 355.72,-243.91 355.72,-243.91 279.72,-243.91 279.72,-243.91 273.72,-243.91 267.72,-237.91 267.72,-231.91 267.72,-231.91 267.72,-141.95 267.72,-141.95 267.72,-135.95 273.72,-129.95 279.72,-129.95"/>
<text text-anchor="middle" x="322.22" y="-137.75" font-family="Times,serif" font-size="14.00">floor_dim (2)</text>
</g>
<g id="clust2" class="cluster">
<title>clusterfloor__expr_dim (2)</title>
<path fill="none" stroke="black" d="M674.72,-251.91C674.72,-251.91 838.72,-251.91 838.72,-251.91 844.72,-251.91 850.72,-257.91 850.72,-263.91 850.72,-263.91 850.72,-353.86 850.72,-353.86 850.72,-359.86 844.72,-365.86 838.72,-365.86 838.72,-365.86 674.72,-365.86 674.72,-365.86 668.72,-365.86 662.72,-359.86 662.72,-353.86 662.72,-353.86 662.72,-263.91 662.72,-263.91 662.72,-257.91 668.72,-251.91 674.72,-251.91"/>
<text text-anchor="middle" x="786.72" y="-259.71" font-family="Times,serif" font-size="14.00">floor__expr_dim (2)</text>
</g>
<g id="clust3" class="cluster">
<title>clustercounty__factor_dim (85) x floor__expr_dim (2)</title>
<path fill="none" stroke="black" d="M387.72,-140.93C387.72,-140.93 642.72,-140.93 642.72,-140.93 648.72,-140.93 654.72,-146.93 654.72,-152.93 654.72,-152.93 654.72,-353.86 654.72,-353.86 654.72,-359.86 648.72,-365.86 642.72,-365.86 642.72,-365.86 387.72,-365.86 387.72,-365.86 381.72,-365.86 375.72,-359.86 375.72,-353.86 375.72,-353.86 375.72,-152.93 375.72,-152.93 375.72,-146.93 381.72,-140.93 387.72,-140.93"/>
<text text-anchor="middle" x="515.22" y="-148.73" font-family="Times,serif" font-size="14.00">county__factor_dim (85) x floor__expr_dim (2)</text>
</g>
<g id="clust4" class="cluster">
<title>clusterlog_radon_obs (919)</title>
<path fill="none" stroke="black" d="M195.72,-8C195.72,-8 301.72,-8 301.72,-8 307.72,-8 313.72,-14 313.72,-20 313.72,-20 313.72,-109.95 313.72,-109.95 313.72,-115.95 307.72,-121.95 301.72,-121.95 301.72,-121.95 195.72,-121.95 195.72,-121.95 189.72,-121.95 183.72,-115.95 183.72,-109.95 183.72,-109.95 183.72,-20 183.72,-20 183.72,-14 189.72,-8 195.72,-8"/>
<text text-anchor="middle" x="248.72" y="-15.8" font-family="Times,serif" font-size="14.00">log_radon_obs (919)</text>
</g>
<!-- log_u -->
<g id="node1" class="node">
<title>log_u</title>
<ellipse fill="none" stroke="black" cx="41.72" cy="-198.43" rx="41.94" ry="37.45"/>
<text text-anchor="middle" x="41.72" y="-209.73" font-family="Times,serif" font-size="14.00">log_u</text>
<text text-anchor="middle" x="41.72" y="-194.73" font-family="Times,serif" font-size="14.00">~</text>
<text text-anchor="middle" x="41.72" y="-179.73" font-family="Times,serif" font-size="14.00">Normal</text>
</g>
<!-- log_radon -->
<g id="node7" class="node">
<title>log_radon</title>
<ellipse fill="lightgrey" stroke="black" cx="248.72" cy="-76.48" rx="50.41" ry="37.45"/>
<text text-anchor="middle" x="248.72" y="-87.78" font-family="Times,serif" font-size="14.00">log_radon</text>
<text text-anchor="middle" x="248.72" y="-72.78" font-family="Times,serif" font-size="14.00">~</text>
<text text-anchor="middle" x="248.72" y="-57.78" font-family="Times,serif" font-size="14.00">Normal</text>
</g>
<!-- log_u&#45;&gt;log_radon -->
<g id="edge5" class="edge">
<title>log_u&#45;&gt;log_radon</title>
<path fill="none" stroke="black" d="M60.48,-164.79C68.97,-152.43 79.97,-139.13 92.72,-129.95 121.49,-109.24 159.02,-96.28 190.05,-88.42"/>
<polygon fill="black" stroke="black" points="190.98,-91.79 199.88,-86.04 189.34,-84.99 190.98,-91.79"/>
</g>
<!-- log_radon_sigma -->
<g id="node2" class="node">
<title>log_radon_sigma</title>
<ellipse fill="none" stroke="black" cx="179.72" cy="-198.43" rx="78.48" ry="37.45"/>
<text text-anchor="middle" x="179.72" y="-209.73" font-family="Times,serif" font-size="14.00">log_radon_sigma</text>
<text text-anchor="middle" x="179.72" y="-194.73" font-family="Times,serif" font-size="14.00">~</text>
<text text-anchor="middle" x="179.72" y="-179.73" font-family="Times,serif" font-size="14.00">Exponential</text>
</g>
<!-- log_radon_sigma&#45;&gt;log_radon -->
<g id="edge6" class="edge">
<title>log_radon_sigma&#45;&gt;log_radon</title>
<path fill="none" stroke="black" d="M200.05,-162.09C207.61,-148.94 216.28,-133.87 224.18,-120.13"/>
<polygon fill="black" stroke="black" points="227.29,-121.74 229.25,-111.33 221.23,-118.25 227.29,-121.74"/>
</g>
<!-- floor -->
<g id="node3" class="node">
<title>floor</title>
<ellipse fill="none" stroke="black" cx="317.72" cy="-198.43" rx="41.94" ry="37.45"/>
<text text-anchor="middle" x="317.72" y="-209.73" font-family="Times,serif" font-size="14.00">floor</text>
<text text-anchor="middle" x="317.72" y="-194.73" font-family="Times,serif" font-size="14.00">~</text>
<text text-anchor="middle" x="317.72" y="-179.73" font-family="Times,serif" font-size="14.00">Normal</text>
</g>
<!-- floor&#45;&gt;log_radon -->
<g id="edge4" class="edge">
<title>floor&#45;&gt;log_radon</title>
<path fill="none" stroke="black" d="M298.86,-164.65C291,-150.98 281.76,-134.92 273.37,-120.33"/>
<polygon fill="black" stroke="black" points="276.29,-118.39 268.27,-111.47 270.23,-121.88 276.29,-118.39"/>
</g>
<!-- floor|county_sigma -->
<g id="node4" class="node">
<title>floor|county_sigma</title>
<ellipse fill="none" stroke="black" cx="756.72" cy="-320.38" rx="86.03" ry="37.45"/>
<text text-anchor="middle" x="756.72" y="-331.68" font-family="Times,serif" font-size="14.00">floor|county_sigma</text>
<text text-anchor="middle" x="756.72" y="-316.68" font-family="Times,serif" font-size="14.00">~</text>
<text text-anchor="middle" x="756.72" y="-301.68" font-family="Times,serif" font-size="14.00">Exponential</text>
</g>
<!-- floor|county -->
<g id="node5" class="node">
<title>floor|county</title>
<polygon fill="none" stroke="black" points="560.22,-224.93 469.22,-224.93 469.22,-171.93 560.22,-171.93 560.22,-224.93"/>
<text text-anchor="middle" x="514.72" y="-209.73" font-family="Times,serif" font-size="14.00">floor|county</text>
<text text-anchor="middle" x="514.72" y="-194.73" font-family="Times,serif" font-size="14.00">~</text>
<text text-anchor="middle" x="514.72" y="-179.73" font-family="Times,serif" font-size="14.00">Deterministic</text>
</g>
<!-- floor|county_sigma&#45;&gt;floor|county -->
<g id="edge1" class="edge">
<title>floor|county_sigma&#45;&gt;floor|county</title>
<path fill="none" stroke="black" d="M715.25,-287.37C698.33,-275.24 678.18,-261.94 658.72,-251.91 630.6,-237.4 597.54,-225.05 570.19,-215.98"/>
<polygon fill="black" stroke="black" points="570.99,-212.56 560.4,-212.79 568.82,-219.22 570.99,-212.56"/>
</g>
<!-- floor|county&#45;&gt;log_radon -->
<g id="edge3" class="edge">
<title>floor|county&#45;&gt;log_radon</title>
<path fill="none" stroke="black" d="M469.2,-175.41C441.2,-162.01 404.52,-144.69 371.72,-129.95 348.84,-119.68 323.37,-108.73 301.57,-99.51"/>
<polygon fill="black" stroke="black" points="302.73,-96.2 292.15,-95.54 300.01,-102.65 302.73,-96.2"/>
</g>
<!-- floor|county_offset -->
<g id="node6" class="node">
<title>floor|county_offset</title>
<ellipse fill="none" stroke="black" cx="514.72" cy="-320.38" rx="84.71" ry="37.45"/>
<text text-anchor="middle" x="514.72" y="-331.68" font-family="Times,serif" font-size="14.00">floor|county_offset</text>
<text text-anchor="middle" x="514.72" y="-316.68" font-family="Times,serif" font-size="14.00">~</text>
<text text-anchor="middle" x="514.72" y="-301.68" font-family="Times,serif" font-size="14.00">Normal</text>
</g>
<!-- floor|county_offset&#45;&gt;floor|county -->
<g id="edge2" class="edge">
<title>floor|county_offset&#45;&gt;floor|county</title>
<path fill="none" stroke="black" d="M514.72,-282.74C514.72,-267.77 514.72,-250.51 514.72,-235.59"/>
<polygon fill="black" stroke="black" points="518.22,-235.2 514.72,-225.2 511.22,-235.2 518.22,-235.2"/>
</g>
</g>
</svg>
