<?xml version="1.0" encoding="UTF-8" standalone="no"?>
<!DOCTYPE svg PUBLIC "-//W3C//DTD SVG 1.1//EN"
 "http://www.w3.org/Graphics/SVG/1.1/DTD/svg11.dtd">
<!-- Generated by graphviz version 2.50.0 (0)
 -->
<!-- Pages: 1 -->
<svg width="594pt" height="455pt"
 viewBox="0.00 0.00 593.54 454.86" xmlns="http://www.w3.org/2000/svg" xmlns:xlink="http://www.w3.org/1999/xlink">
<g id="graph0" class="graph" transform="scale(1 1) rotate(0) translate(4 450.86)">
<polygon fill="white" stroke="transparent" points="-4,4 -4,-450.86 589.54,-450.86 589.54,4 -4,4"/>
<g id="clust1" class="cluster">
<title>clusterhsgp_by (3)</title>
<path fill="none" stroke="black" d="M284.54,-324.91C284.54,-324.91 392.54,-324.91 392.54,-324.91 398.54,-324.91 404.54,-330.91 404.54,-336.91 404.54,-336.91 404.54,-426.86 404.54,-426.86 404.54,-432.86 398.54,-438.86 392.54,-438.86 392.54,-438.86 284.54,-438.86 284.54,-438.86 278.54,-438.86 272.54,-432.86 272.54,-426.86 272.54,-426.86 272.54,-336.91 272.54,-336.91 272.54,-330.91 278.54,-324.91 284.54,-324.91"/>
<text text-anchor="middle" x="363.54" y="-332.71" font-family="Times,serif" font-size="14.00">hsgp_by (3)</text>
</g>
<g id="clust2" class="cluster">
<title>clusterhsgp_var (2) x hsgp_by (3)</title>
<path fill="none" stroke="black" d="M424.54,-324.91C424.54,-324.91 565.54,-324.91 565.54,-324.91 571.54,-324.91 577.54,-330.91 577.54,-336.91 577.54,-336.91 577.54,-426.86 577.54,-426.86 577.54,-432.86 571.54,-438.86 565.54,-438.86 565.54,-438.86 424.54,-438.86 424.54,-438.86 418.54,-438.86 412.54,-432.86 412.54,-426.86 412.54,-426.86 412.54,-336.91 412.54,-336.91 412.54,-330.91 418.54,-324.91 424.54,-324.91"/>
<text text-anchor="middle" x="495.04" y="-332.71" font-family="Times,serif" font-size="14.00">hsgp_var (2) x hsgp_by (3)</text>
</g>
<g id="clust3" class="cluster">
<title>clusterhsgp_weights_dim (100) x hsgp_by (3)</title>
<path fill="none" stroke="black" d="M44.54,-232.91C44.54,-232.91 252.54,-232.91 252.54,-232.91 258.54,-232.91 264.54,-238.91 264.54,-244.91 264.54,-244.91 264.54,-426.86 264.54,-426.86 264.54,-432.86 258.54,-438.86 252.54,-438.86 252.54,-438.86 44.54,-438.86 44.54,-438.86 38.54,-438.86 32.54,-432.86 32.54,-426.86 32.54,-426.86 32.54,-244.91 32.54,-244.91 32.54,-238.91 38.54,-232.91 44.54,-232.91"/>
<text text-anchor="middle" x="148.54" y="-240.71" font-family="Times,serif" font-size="14.00">hsgp_weights_dim (100) x hsgp_by (3)</text>
</g>
<g id="clust4" class="cluster">
<title>clusteroutcome_obs (432)</title>
<path fill="none" stroke="black" d="M167.54,-8C167.54,-8 265.54,-8 265.54,-8 271.54,-8 277.54,-14 277.54,-20 277.54,-20 277.54,-209.93 277.54,-209.93 277.54,-215.93 271.54,-221.93 265.54,-221.93 265.54,-221.93 167.54,-221.93 167.54,-221.93 161.54,-221.93 155.54,-215.93 155.54,-209.93 155.54,-209.93 155.54,-20 155.54,-20 155.54,-14 161.54,-8 167.54,-8"/>
<text text-anchor="middle" x="216.54" y="-15.8" font-family="Times,serif" font-size="14.00">outcome_obs (432)</text>
</g>
<!-- outcome_sigma -->
<g id="node1" class="node">
<title>outcome_sigma</title>
<ellipse fill="none" stroke="black" cx="73.54" cy="-187.43" rx="73.58" ry="37.45"/>
<text text-anchor="middle" x="73.54" y="-198.73" font-family="Times,serif" font-size="14.00">outcome_sigma</text>
<text text-anchor="middle" x="73.54" y="-183.73" font-family="Times,serif" font-size="14.00">~</text>
<text text-anchor="middle" x="73.54" y="-168.73" font-family="Times,serif" font-size="14.00">HalfNormal</text>
</g>
<!-- outcome -->
<g id="node6" class="node">
<title>outcome</title>
<ellipse fill="lightgrey" stroke="black" cx="209.54" cy="-76.48" rx="45.01" ry="37.45"/>
<text text-anchor="middle" x="209.54" y="-87.78" font-family="Times,serif" font-size="14.00">outcome</text>
<text text-anchor="middle" x="209.54" y="-72.78" font-family="Times,serif" font-size="14.00">~</text>
<text text-anchor="middle" x="209.54" y="-57.78" font-family="Times,serif" font-size="14.00">Normal</text>
</g>
<!-- outcome_sigma&#45;&gt;outcome -->
<g id="edge5" class="edge">
<title>outcome_sigma&#45;&gt;outcome</title>
<path fill="none" stroke="black" d="M112.15,-155.5C129.99,-141.21 151.18,-124.23 169.22,-109.77"/>
<polygon fill="black" stroke="black" points="171.66,-112.31 177.27,-103.33 167.28,-106.85 171.66,-112.31"/>
</g>
<!-- hsgp_sigma -->
<g id="node2" class="node">
<title>hsgp_sigma</title>
<ellipse fill="none" stroke="black" cx="338.54" cy="-393.38" rx="57.97" ry="37.45"/>
<text text-anchor="middle" x="338.54" y="-404.68" font-family="Times,serif" font-size="14.00">hsgp_sigma</text>
<text text-anchor="middle" x="338.54" y="-389.68" font-family="Times,serif" font-size="14.00">~</text>
<text text-anchor="middle" x="338.54" y="-374.68" font-family="Times,serif" font-size="14.00">Exponential</text>
</g>
<!-- hsgp_weights -->
<g id="node4" class="node">
<title>hsgp_weights</title>
<polygon fill="none" stroke="black" points="256.04,-316.91 165.04,-316.91 165.04,-263.91 256.04,-263.91 256.04,-316.91"/>
<text text-anchor="middle" x="210.54" y="-301.71" font-family="Times,serif" font-size="14.00">hsgp_weights</text>
<text text-anchor="middle" x="210.54" y="-286.71" font-family="Times,serif" font-size="14.00">~</text>
<text text-anchor="middle" x="210.54" y="-271.71" font-family="Times,serif" font-size="14.00">Deterministic</text>
</g>
<!-- hsgp_sigma&#45;&gt;hsgp_weights -->
<g id="edge1" class="edge">
<title>hsgp_sigma&#45;&gt;hsgp_weights</title>
<path fill="none" stroke="black" d="M308.99,-360.78C297.02,-348.84 282.7,-335.57 268.54,-324.91 267.32,-323.99 266.07,-323.08 264.81,-322.17"/>
<polygon fill="black" stroke="black" points="266.43,-319.05 256.19,-316.34 262.51,-324.84 266.43,-319.05"/>
</g>
<!-- hsgp_ell -->
<g id="node3" class="node">
<title>hsgp_ell</title>
<ellipse fill="none" stroke="black" cx="476.54" cy="-393.38" rx="55.72" ry="37.45"/>
<text text-anchor="middle" x="476.54" y="-404.68" font-family="Times,serif" font-size="14.00">hsgp_ell</text>
<text text-anchor="middle" x="476.54" y="-389.68" font-family="Times,serif" font-size="14.00">~</text>
<text text-anchor="middle" x="476.54" y="-374.68" font-family="Times,serif" font-size="14.00">InvGamma</text>
</g>
<!-- hsgp_ell&#45;&gt;hsgp_weights -->
<g id="edge3" class="edge">
<title>hsgp_ell&#45;&gt;hsgp_weights</title>
<path fill="none" stroke="black" d="M451.29,-359.73C439.66,-346.9 424.81,-333.27 408.54,-324.91 364.23,-302.14 307.7,-294.35 266.39,-291.92"/>
<polygon fill="black" stroke="black" points="266.4,-288.41 256.23,-291.4 266.05,-295.4 266.4,-288.41"/>
</g>
<!-- hsgp -->
<g id="node7" class="node">
<title>hsgp</title>
<polygon fill="none" stroke="black" points="256.04,-213.93 165.04,-213.93 165.04,-160.93 256.04,-160.93 256.04,-213.93"/>
<text text-anchor="middle" x="210.54" y="-198.73" font-family="Times,serif" font-size="14.00">hsgp</text>
<text text-anchor="middle" x="210.54" y="-183.73" font-family="Times,serif" font-size="14.00">~</text>
<text text-anchor="middle" x="210.54" y="-168.73" font-family="Times,serif" font-size="14.00">Deterministic</text>
</g>
<!-- hsgp_weights&#45;&gt;hsgp -->
<g id="edge4" class="edge">
<title>hsgp_weights&#45;&gt;hsgp</title>
<path fill="none" stroke="black" d="M210.54,-263.66C210.54,-251.68 210.54,-237.22 210.54,-224.19"/>
<polygon fill="black" stroke="black" points="214.04,-224.12 210.54,-214.12 207.04,-224.12 214.04,-224.12"/>
</g>
<!-- hsgp_weights_raw -->
<g id="node5" class="node">
<title>hsgp_weights_raw</title>
<ellipse fill="none" stroke="black" cx="173.54" cy="-393.38" rx="83.38" ry="37.45"/>
<text text-anchor="middle" x="173.54" y="-404.68" font-family="Times,serif" font-size="14.00">hsgp_weights_raw</text>
<text text-anchor="middle" x="173.54" y="-389.68" font-family="Times,serif" font-size="14.00">~</text>
<text text-anchor="middle" x="173.54" y="-374.68" font-family="Times,serif" font-size="14.00">Normal</text>
</g>
<!-- hsgp_weights_raw&#45;&gt;hsgp_weights -->
<g id="edge2" class="edge">
<title>hsgp_weights_raw&#45;&gt;hsgp_weights</title>
<path fill="none" stroke="black" d="M186.79,-356.21C190.3,-346.64 194.08,-336.31 197.58,-326.78"/>
<polygon fill="black" stroke="black" points="200.94,-327.79 201.09,-317.2 194.36,-325.38 200.94,-327.79"/>
</g>
<!-- hsgp&#45;&gt;outcome -->
<g id="edge6" class="edge">
<title>hsgp&#45;&gt;outcome</title>
<path fill="none" stroke="black" d="M210.3,-160.89C210.2,-149.98 210.08,-136.89 209.97,-124.35"/>
<polygon fill="black" stroke="black" points="213.47,-123.97 209.87,-114 206.47,-124.03 213.47,-123.97"/>
</g>
</g>
</svg>
