<?xml version="1.0" encoding="UTF-8" standalone="no"?>
<!DOCTYPE svg PUBLIC "-//W3C//DTD SVG 1.1//EN"
 "http://www.w3.org/Graphics/SVG/1.1/DTD/svg11.dtd">
<!-- Generated by graphviz version 2.50.0 (0)
 -->
<!-- Pages: 1 -->
<svg width="326pt" height="260pt"
 viewBox="0.00 0.00 326.49 259.91" xmlns="http://www.w3.org/2000/svg" xmlns:xlink="http://www.w3.org/1999/xlink">
<g id="graph0" class="graph" transform="scale(1 1) rotate(0) translate(4 255.91)">
<polygon fill="white" stroke="transparent" points="-4,4 -4,-255.91 322.49,-255.91 322.49,4 -4,4"/>
<g id="clust1" class="cluster">
<title>clustercounty:floor_dim (170)</title>
<path fill="none" stroke="black" d="M177.49,-129.95C177.49,-129.95 298.49,-129.95 298.49,-129.95 304.49,-129.95 310.49,-135.95 310.49,-141.95 310.49,-141.95 310.49,-231.91 310.49,-231.91 310.49,-237.91 304.49,-243.91 298.49,-243.91 298.49,-243.91 177.49,-243.91 177.49,-243.91 171.49,-243.91 165.49,-237.91 165.49,-231.91 165.49,-231.91 165.49,-141.95 165.49,-141.95 165.49,-135.95 171.49,-129.95 177.49,-129.95"/>
<text text-anchor="middle" x="237.99" y="-137.75" font-family="Times,serif" font-size="14.00">county:floor_dim (170)</text>
</g>
<g id="clust2" class="cluster">
<title>clusterlog_radon_obs (919)</title>
<path fill="none" stroke="black" d="M101.49,-8C101.49,-8 207.49,-8 207.49,-8 213.49,-8 219.49,-14 219.49,-20 219.49,-20 219.49,-109.95 219.49,-109.95 219.49,-115.95 213.49,-121.95 207.49,-121.95 207.49,-121.95 101.49,-121.95 101.49,-121.95 95.49,-121.95 89.49,-115.95 89.49,-109.95 89.49,-109.95 89.49,-20 89.49,-20 89.49,-14 95.49,-8 101.49,-8"/>
<text text-anchor="middle" x="154.49" y="-15.8" font-family="Times,serif" font-size="14.00">log_radon_obs (919)</text>
</g>
<!-- log_radon_sigma -->
<g id="node1" class="node">
<title>log_radon_sigma</title>
<ellipse fill="none" stroke="black" cx="78.49" cy="-198.43" rx="78.48" ry="37.45"/>
<text text-anchor="middle" x="78.49" y="-209.73" font-family="Times,serif" font-size="14.00">log_radon_sigma</text>
<text text-anchor="middle" x="78.49" y="-194.73" font-family="Times,serif" font-size="14.00">~</text>
<text text-anchor="middle" x="78.49" y="-179.73" font-family="Times,serif" font-size="14.00">Exponential</text>
</g>
<!-- log_radon -->
<g id="node3" class="node">
<title>log_radon</title>
<ellipse fill="lightgrey" stroke="black" cx="154.49" cy="-76.48" rx="50.41" ry="37.45"/>
<text text-anchor="middle" x="154.49" y="-87.78" font-family="Times,serif" font-size="14.00">log_radon</text>
<text text-anchor="middle" x="154.49" y="-72.78" font-family="Times,serif" font-size="14.00">~</text>
<text text-anchor="middle" x="154.49" y="-57.78" font-family="Times,serif" font-size="14.00">Normal</text>
</g>
<!-- log_radon_sigma&#45;&gt;log_radon -->
<g id="edge2" class="edge">
<title>log_radon_sigma&#45;&gt;log_radon</title>
<path fill="none" stroke="black" d="M100.68,-162.41C109.24,-148.9 119.1,-133.32 128.03,-119.23"/>
<polygon fill="black" stroke="black" points="131.05,-121 133.45,-110.68 125.14,-117.26 131.05,-121"/>
</g>
<!-- county&amp;floor -->
<g id="node2" class="node">
<title>county&amp;floor</title>
<ellipse fill="none" stroke="black" cx="233.49" cy="-198.43" rx="58.88" ry="37.45"/>
<text text-anchor="middle" x="233.49" y="-209.73" font-family="Times,serif" font-size="14.00">county:floor</text>
<text text-anchor="middle" x="233.49" y="-194.73" font-family="Times,serif" font-size="14.00">~</text>
<text text-anchor="middle" x="233.49" y="-179.73" font-family="Times,serif" font-size="14.00">Normal</text>
</g>
<!-- county&amp;floor&#45;&gt;log_radon -->
<g id="edge1" class="edge">
<title>county&amp;floor&#45;&gt;log_radon</title>
<path fill="none" stroke="black" d="M211.27,-163.7C202.12,-149.79 191.42,-133.55 181.79,-118.93"/>
<polygon fill="black" stroke="black" points="184.69,-116.97 176.27,-110.54 178.84,-120.82 184.69,-116.97"/>
</g>
</g>
</svg>
