<?xml version="1.0" encoding="UTF-8" standalone="no"?>
<!DOCTYPE svg PUBLIC "-//W3C//DTD SVG 1.1//EN"
 "http://www.w3.org/Graphics/SVG/1.1/DTD/svg11.dtd">
<!-- Generated by graphviz version 2.50.0 (0)
 -->
<!-- Pages: 1 -->
<svg width="336pt" height="233pt"
 viewBox="0.00 0.00 335.68 232.91" xmlns="http://www.w3.org/2000/svg" xmlns:xlink="http://www.w3.org/1999/xlink">
<g id="graph0" class="graph" transform="scale(1 1) rotate(0) translate(4 228.91)">
<polygon fill="white" stroke="transparent" points="-4,4 -4,-228.91 331.68,-228.91 331.68,4 -4,4"/>
<g id="clust1" class="cluster">
<title>clustery_obs (200)</title>
<path fill="none" stroke="black" d="M128.96,-8C128.96,-8 206.96,-8 206.96,-8 212.96,-8 218.96,-14 218.96,-20 218.96,-20 218.96,-109.95 218.96,-109.95 218.96,-115.95 212.96,-121.95 206.96,-121.95 206.96,-121.95 128.96,-121.95 128.96,-121.95 122.96,-121.95 116.96,-115.95 116.96,-109.95 116.96,-109.95 116.96,-20 116.96,-20 116.96,-14 122.96,-8 128.96,-8"/>
<text text-anchor="middle" x="177.96" y="-15.8" font-family="Times,serif" font-size="14.00">y_obs (200)</text>
</g>
<!-- Intercept -->
<g id="node1" class="node">
<title>Intercept</title>
<ellipse fill="none" stroke="black" cx="45.96" cy="-187.43" rx="45.92" ry="37.45"/>
<text text-anchor="middle" x="45.96" y="-198.73" font-family="Times,serif" font-size="14.00">Intercept</text>
<text text-anchor="middle" x="45.96" y="-183.73" font-family="Times,serif" font-size="14.00">~</text>
<text text-anchor="middle" x="45.96" y="-168.73" font-family="Times,serif" font-size="14.00">Normal</text>
</g>
<!-- y -->
<g id="node4" class="node">
<title>y</title>
<ellipse fill="lightgrey" stroke="black" cx="167.96" cy="-76.48" rx="43.27" ry="37.45"/>
<text text-anchor="middle" x="167.96" y="-87.78" font-family="Times,serif" font-size="14.00">y</text>
<text text-anchor="middle" x="167.96" y="-72.78" font-family="Times,serif" font-size="14.00">~</text>
<text text-anchor="middle" x="167.96" y="-57.78" font-family="Times,serif" font-size="14.00">Gamma</text>
</g>
<!-- Intercept&#45;&gt;y -->
<g id="edge1" class="edge">
<title>Intercept&#45;&gt;y</title>
<path fill="none" stroke="black" d="M76.43,-159.22C92.84,-144.57 113.21,-126.38 130.56,-110.88"/>
<polygon fill="black" stroke="black" points="133.17,-113.24 138.3,-103.97 128.51,-108.02 133.17,-113.24"/>
</g>
<!-- y_alpha -->
<g id="node2" class="node">
<title>y_alpha</title>
<ellipse fill="none" stroke="black" cx="167.96" cy="-187.43" rx="57.97" ry="37.45"/>
<text text-anchor="middle" x="167.96" y="-198.73" font-family="Times,serif" font-size="14.00">y_alpha</text>
<text text-anchor="middle" x="167.96" y="-183.73" font-family="Times,serif" font-size="14.00">~</text>
<text text-anchor="middle" x="167.96" y="-168.73" font-family="Times,serif" font-size="14.00">HalfCauchy</text>
</g>
<!-- y_alpha&#45;&gt;y -->
<g id="edge2" class="edge">
<title>y_alpha&#45;&gt;y</title>
<path fill="none" stroke="black" d="M167.96,-149.85C167.96,-141.67 167.96,-132.89 167.96,-124.37"/>
<polygon fill="black" stroke="black" points="171.46,-124.15 167.96,-114.15 164.46,-124.15 171.46,-124.15"/>
</g>
<!-- x -->
<g id="node3" class="node">
<title>x</title>
<ellipse fill="none" stroke="black" cx="285.96" cy="-187.43" rx="41.94" ry="37.45"/>
<text text-anchor="middle" x="285.96" y="-198.73" font-family="Times,serif" font-size="14.00">x</text>
<text text-anchor="middle" x="285.96" y="-183.73" font-family="Times,serif" font-size="14.00">~</text>
<text text-anchor="middle" x="285.96" y="-168.73" font-family="Times,serif" font-size="14.00">Normal</text>
</g>
<!-- x&#45;&gt;y -->
<g id="edge3" class="edge">
<title>x&#45;&gt;y</title>
<path fill="none" stroke="black" d="M257.4,-160.06C241.55,-145.42 221.66,-127.06 204.66,-111.36"/>
<polygon fill="black" stroke="black" points="206.8,-108.58 197.08,-104.37 202.06,-113.72 206.8,-108.58"/>
</g>
</g>
</svg>
