<?xml version="1.0" encoding="UTF-8" standalone="no"?>
<!DOCTYPE svg PUBLIC "-//W3C//DTD SVG 1.1//EN"
 "http://www.w3.org/Graphics/SVG/1.1/DTD/svg11.dtd">
<!-- Generated by graphviz version 12.2.1 (0)
 -->
<!-- Pages: 1 -->
<svg width="2139pt" height="475pt"
 viewBox="0.00 0.00 2139.44 474.54" xmlns="http://www.w3.org/2000/svg" xmlns:xlink="http://www.w3.org/1999/xlink">
<g id="graph0" class="graph" transform="scale(1 1) rotate(0) translate(4 470.54)">
<polygon fill="white" stroke="none" points="-4,4 -4,-470.54 2135.44,-470.54 2135.44,4 -4,4"/>
<g id="clust1" class="cluster">
<title>clusterstate__factor_dim (46)</title>
<path fill="none" stroke="black" d="M310.01,-231.32C310.01,-231.32 426.01,-231.32 426.01,-231.32 432.01,-231.32 438.01,-237.32 438.01,-243.32 438.01,-243.32 438.01,-446.54 438.01,-446.54 438.01,-452.54 432.01,-458.54 426.01,-458.54 426.01,-458.54 310.01,-458.54 310.01,-458.54 304.01,-458.54 298.01,-452.54 298.01,-446.54 298.01,-446.54 298.01,-243.32 298.01,-243.32 298.01,-237.32 304.01,-231.32 310.01,-231.32"/>
<text text-anchor="middle" x="367.76" y="-238.52" font-family="Times,serif" font-size="14.00">state__factor_dim (46)</text>
</g>
<g id="clust2" class="cluster">
<title>clustereth__factor_dim (4)</title>
<path fill="none" stroke="black" d="M598.01,-231.32C598.01,-231.32 702.01,-231.32 702.01,-231.32 708.01,-231.32 714.01,-237.32 714.01,-243.32 714.01,-243.32 714.01,-446.54 714.01,-446.54 714.01,-452.54 708.01,-458.54 702.01,-458.54 702.01,-458.54 598.01,-458.54 598.01,-458.54 592.01,-458.54 586.01,-452.54 586.01,-446.54 586.01,-446.54 586.01,-243.32 586.01,-243.32 586.01,-237.32 592.01,-231.32 598.01,-231.32"/>
<text text-anchor="middle" x="651.26" y="-238.52" font-family="Times,serif" font-size="14.00">eth__factor_dim (4)</text>
</g>
<g id="clust3" class="cluster">
<title>clusteredu__factor_dim (5)</title>
<path fill="none" stroke="black" d="M861.01,-231.32C861.01,-231.32 971.01,-231.32 971.01,-231.32 977.01,-231.32 983.01,-237.32 983.01,-243.32 983.01,-243.32 983.01,-446.54 983.01,-446.54 983.01,-452.54 977.01,-458.54 971.01,-458.54 971.01,-458.54 861.01,-458.54 861.01,-458.54 855.01,-458.54 849.01,-452.54 849.01,-446.54 849.01,-446.54 849.01,-243.32 849.01,-243.32 849.01,-237.32 855.01,-231.32 861.01,-231.32"/>
<text text-anchor="middle" x="918.76" y="-238.52" font-family="Times,serif" font-size="14.00">edu__factor_dim (5)</text>
</g>
<g id="clust4" class="cluster">
<title>clustermale:eth__factor_dim (8)</title>
<path fill="none" stroke="black" d="M1135.01,-231.32C1135.01,-231.32 1283.01,-231.32 1283.01,-231.32 1289.01,-231.32 1295.01,-237.32 1295.01,-243.32 1295.01,-243.32 1295.01,-446.54 1295.01,-446.54 1295.01,-452.54 1289.01,-458.54 1283.01,-458.54 1283.01,-458.54 1135.01,-458.54 1135.01,-458.54 1129.01,-458.54 1123.01,-452.54 1123.01,-446.54 1123.01,-446.54 1123.01,-243.32 1123.01,-243.32 1123.01,-237.32 1129.01,-231.32 1135.01,-231.32"/>
<text text-anchor="middle" x="1216.89" y="-238.52" font-family="Times,serif" font-size="14.00">male:eth__factor_dim (8)</text>
</g>
<g id="clust5" class="cluster">
<title>clusteredu:age__factor_dim (30)</title>
<path fill="none" stroke="black" d="M1487.01,-231.32C1487.01,-231.32 1627.01,-231.32 1627.01,-231.32 1633.01,-231.32 1639.01,-237.32 1639.01,-243.32 1639.01,-243.32 1639.01,-446.54 1639.01,-446.54 1639.01,-452.54 1633.01,-458.54 1627.01,-458.54 1627.01,-458.54 1487.01,-458.54 1487.01,-458.54 1481.01,-458.54 1475.01,-452.54 1475.01,-446.54 1475.01,-446.54 1475.01,-243.32 1475.01,-243.32 1475.01,-237.32 1481.01,-231.32 1487.01,-231.32"/>
<text text-anchor="middle" x="1560.14" y="-238.52" font-family="Times,serif" font-size="14.00">edu:age__factor_dim (30)</text>
</g>
<g id="clust6" class="cluster">
<title>clusteredu:eth__factor_dim (20)</title>
<path fill="none" stroke="black" d="M1823.01,-231.32C1823.01,-231.32 1961.01,-231.32 1961.01,-231.32 1967.01,-231.32 1973.01,-237.32 1973.01,-243.32 1973.01,-243.32 1973.01,-446.54 1973.01,-446.54 1973.01,-452.54 1967.01,-458.54 1961.01,-458.54 1961.01,-458.54 1823.01,-458.54 1823.01,-458.54 1817.01,-458.54 1811.01,-452.54 1811.01,-446.54 1811.01,-446.54 1811.01,-243.32 1811.01,-243.32 1811.01,-237.32 1817.01,-231.32 1823.01,-231.32"/>
<text text-anchor="middle" x="1895.26" y="-238.52" font-family="Times,serif" font-size="14.00">edu:eth__factor_dim (20)</text>
</g>
<g id="clust7" class="cluster">
<title>cluster__obs__ (11040)</title>
<path fill="none" stroke="black" d="M595.01,-8C595.01,-8 715.01,-8 715.01,-8 721.01,-8 727.01,-14 727.01,-20 727.01,-20 727.01,-211.32 727.01,-211.32 727.01,-217.32 721.01,-223.32 715.01,-223.32 715.01,-223.32 595.01,-223.32 595.01,-223.32 589.01,-223.32 583.01,-217.32 583.01,-211.32 583.01,-211.32 583.01,-20 583.01,-20 583.01,-14 589.01,-8 595.01,-8"/>
<text text-anchor="middle" x="672.89" y="-15.2" font-family="Times,serif" font-size="14.00">__obs__ (11040)</text>
</g>
<!-- male -->
<g id="node1" class="node">
<title>male</title>
<ellipse fill="none" stroke="black" cx="41.01" cy="-292.57" rx="41.01" ry="40.66"/>
<text text-anchor="middle" x="41.01" y="-304.02" font-family="Times,serif" font-size="14.00">male</text>
<text text-anchor="middle" x="41.01" y="-287.52" font-family="Times,serif" font-size="14.00">~</text>
<text text-anchor="middle" x="41.01" y="-271.02" font-family="Times,serif" font-size="14.00">Normal</text>
</g>
<!-- p -->
<g id="node22" class="node">
<title>p</title>
<polygon fill="none" stroke="black" points="700.14,-215.32 609.89,-215.32 609.89,-157.82 700.14,-157.82 700.14,-215.32"/>
<text text-anchor="middle" x="655.01" y="-198.02" font-family="Times,serif" font-size="14.00">p</text>
<text text-anchor="middle" x="655.01" y="-181.52" font-family="Times,serif" font-size="14.00">~</text>
<text text-anchor="middle" x="655.01" y="-165.02" font-family="Times,serif" font-size="14.00">Deterministic</text>
</g>
<!-- male&#45;&gt;p -->
<g id="edge15" class="edge">
<title>male&#45;&gt;p</title>
<path fill="none" stroke="black" d="M61.86,-257.1C69.7,-247.08 79.54,-237.25 91.01,-231.32 135.29,-208.39 464.24,-194.31 598.35,-189.46"/>
<polygon fill="black" stroke="black" points="598.19,-192.97 608.06,-189.12 597.94,-185.98 598.19,-192.97"/>
</g>
<!-- 1|state_sigma -->
<g id="node2" class="node">
<title>1|state_sigma</title>
<ellipse fill="none" stroke="black" cx="512.01" cy="-409.88" rx="63.82" ry="40.66"/>
<text text-anchor="middle" x="512.01" y="-421.33" font-family="Times,serif" font-size="14.00">1|state_sigma</text>
<text text-anchor="middle" x="512.01" y="-404.83" font-family="Times,serif" font-size="14.00">~</text>
<text text-anchor="middle" x="512.01" y="-388.33" font-family="Times,serif" font-size="14.00">HalfNormal</text>
</g>
<!-- 1|state -->
<g id="node10" class="node">
<title>1|state</title>
<polygon fill="none" stroke="black" points="430.14,-321.32 339.89,-321.32 339.89,-263.82 430.14,-263.82 430.14,-321.32"/>
<text text-anchor="middle" x="385.01" y="-304.02" font-family="Times,serif" font-size="14.00">1|state</text>
<text text-anchor="middle" x="385.01" y="-287.52" font-family="Times,serif" font-size="14.00">~</text>
<text text-anchor="middle" x="385.01" y="-271.02" font-family="Times,serif" font-size="14.00">Deterministic</text>
</g>
<!-- 1|state_sigma&#45;&gt;1|state -->
<g id="edge2" class="edge">
<title>1|state_sigma&#45;&gt;1|state</title>
<path fill="none" stroke="black" d="M475.96,-376.15C459.85,-361.52 440.82,-344.24 424.34,-329.28"/>
<polygon fill="black" stroke="black" points="426.86,-326.84 417.1,-322.71 422.15,-332.02 426.86,-326.84"/>
</g>
<!-- 1|male&amp;eth_sigma -->
<g id="node3" class="node">
<title>1|male&amp;eth_sigma</title>
<ellipse fill="none" stroke="black" cx="1385.01" cy="-409.88" rx="79.73" ry="40.66"/>
<text text-anchor="middle" x="1385.01" y="-421.33" font-family="Times,serif" font-size="14.00">1|male:eth_sigma</text>
<text text-anchor="middle" x="1385.01" y="-404.83" font-family="Times,serif" font-size="14.00">~</text>
<text text-anchor="middle" x="1385.01" y="-388.33" font-family="Times,serif" font-size="14.00">HalfNormal</text>
</g>
<!-- 1|male&amp;eth -->
<g id="node17" class="node">
<title>1|male&amp;eth</title>
<polygon fill="none" stroke="black" points="1254.14,-321.32 1163.89,-321.32 1163.89,-263.82 1254.14,-263.82 1254.14,-321.32"/>
<text text-anchor="middle" x="1209.01" y="-304.02" font-family="Times,serif" font-size="14.00">1|male:eth</text>
<text text-anchor="middle" x="1209.01" y="-287.52" font-family="Times,serif" font-size="14.00">~</text>
<text text-anchor="middle" x="1209.01" y="-271.02" font-family="Times,serif" font-size="14.00">Deterministic</text>
</g>
<!-- 1|male&amp;eth_sigma&#45;&gt;1|male&amp;eth -->
<g id="edge7" class="edge">
<title>1|male&amp;eth_sigma&#45;&gt;1|male&amp;eth</title>
<path fill="none" stroke="black" d="M1336.92,-377.37C1313.57,-362.08 1285.47,-343.66 1261.56,-328"/>
<polygon fill="black" stroke="black" points="1263.49,-325.08 1253.21,-322.52 1259.65,-330.93 1263.49,-325.08"/>
</g>
<!-- 1|edu_sigma -->
<g id="node4" class="node">
<title>1|edu_sigma</title>
<ellipse fill="none" stroke="black" cx="1053.01" cy="-409.88" rx="60.1" ry="40.66"/>
<text text-anchor="middle" x="1053.01" y="-421.33" font-family="Times,serif" font-size="14.00">1|edu_sigma</text>
<text text-anchor="middle" x="1053.01" y="-404.83" font-family="Times,serif" font-size="14.00">~</text>
<text text-anchor="middle" x="1053.01" y="-388.33" font-family="Times,serif" font-size="14.00">HalfNormal</text>
</g>
<!-- 1|edu -->
<g id="node14" class="node">
<title>1|edu</title>
<polygon fill="none" stroke="black" points="961.14,-321.32 870.89,-321.32 870.89,-263.82 961.14,-263.82 961.14,-321.32"/>
<text text-anchor="middle" x="916.01" y="-304.02" font-family="Times,serif" font-size="14.00">1|edu</text>
<text text-anchor="middle" x="916.01" y="-287.52" font-family="Times,serif" font-size="14.00">~</text>
<text text-anchor="middle" x="916.01" y="-271.02" font-family="Times,serif" font-size="14.00">Deterministic</text>
</g>
<!-- 1|edu_sigma&#45;&gt;1|edu -->
<g id="edge5" class="edge">
<title>1|edu_sigma&#45;&gt;1|edu</title>
<path fill="none" stroke="black" d="M1015.94,-377.68C998.1,-362.66 976.62,-344.58 958.16,-329.04"/>
<polygon fill="black" stroke="black" points="960.43,-326.38 950.53,-322.62 955.92,-331.74 960.43,-326.38"/>
</g>
<!-- repvote -->
<g id="node5" class="node">
<title>repvote</title>
<ellipse fill="none" stroke="black" cx="141.01" cy="-292.57" rx="41.01" ry="40.66"/>
<text text-anchor="middle" x="141.01" y="-304.02" font-family="Times,serif" font-size="14.00">repvote</text>
<text text-anchor="middle" x="141.01" y="-287.52" font-family="Times,serif" font-size="14.00">~</text>
<text text-anchor="middle" x="141.01" y="-271.02" font-family="Times,serif" font-size="14.00">Normal</text>
</g>
<!-- repvote&#45;&gt;p -->
<g id="edge20" class="edge">
<title>repvote&#45;&gt;p</title>
<path fill="none" stroke="black" d="M161.92,-257.21C169.77,-247.2 179.59,-237.35 191.01,-231.32 260.3,-194.71 490.36,-188.45 598.25,-187.58"/>
<polygon fill="black" stroke="black" points="598.05,-191.08 608.02,-187.51 598,-184.08 598.05,-191.08"/>
</g>
<!-- 1|edu&amp;eth_sigma -->
<g id="node6" class="node">
<title>1|edu&amp;eth_sigma</title>
<ellipse fill="none" stroke="black" cx="2057.01" cy="-409.88" rx="74.42" ry="40.66"/>
<text text-anchor="middle" x="2057.01" y="-421.33" font-family="Times,serif" font-size="14.00">1|edu:eth_sigma</text>
<text text-anchor="middle" x="2057.01" y="-404.83" font-family="Times,serif" font-size="14.00">~</text>
<text text-anchor="middle" x="2057.01" y="-388.33" font-family="Times,serif" font-size="14.00">HalfNormal</text>
</g>
<!-- 1|edu&amp;eth -->
<g id="node20" class="node">
<title>1|edu&amp;eth</title>
<polygon fill="none" stroke="black" points="1937.14,-321.32 1846.89,-321.32 1846.89,-263.82 1937.14,-263.82 1937.14,-321.32"/>
<text text-anchor="middle" x="1892.01" y="-304.02" font-family="Times,serif" font-size="14.00">1|edu:eth</text>
<text text-anchor="middle" x="1892.01" y="-287.52" font-family="Times,serif" font-size="14.00">~</text>
<text text-anchor="middle" x="1892.01" y="-271.02" font-family="Times,serif" font-size="14.00">Deterministic</text>
</g>
<!-- 1|edu&amp;eth_sigma&#45;&gt;1|edu&amp;eth -->
<g id="edge11" class="edge">
<title>1|edu&amp;eth_sigma&#45;&gt;1|edu&amp;eth</title>
<path fill="none" stroke="black" d="M2011.93,-377.37C1990.13,-362.14 1963.93,-343.83 1941.58,-328.21"/>
<polygon fill="black" stroke="black" points="1943.7,-325.42 1933.5,-322.56 1939.69,-331.16 1943.7,-325.42"/>
</g>
<!-- 1|eth_sigma -->
<g id="node7" class="node">
<title>1|eth_sigma</title>
<ellipse fill="none" stroke="black" cx="782.01" cy="-409.88" rx="57.98" ry="40.66"/>
<text text-anchor="middle" x="782.01" y="-421.33" font-family="Times,serif" font-size="14.00">1|eth_sigma</text>
<text text-anchor="middle" x="782.01" y="-404.83" font-family="Times,serif" font-size="14.00">~</text>
<text text-anchor="middle" x="782.01" y="-388.33" font-family="Times,serif" font-size="14.00">HalfNormal</text>
</g>
<!-- 1|eth -->
<g id="node12" class="node">
<title>1|eth</title>
<polygon fill="none" stroke="black" points="700.14,-321.32 609.89,-321.32 609.89,-263.82 700.14,-263.82 700.14,-321.32"/>
<text text-anchor="middle" x="655.01" y="-304.02" font-family="Times,serif" font-size="14.00">1|eth</text>
<text text-anchor="middle" x="655.01" y="-287.52" font-family="Times,serif" font-size="14.00">~</text>
<text text-anchor="middle" x="655.01" y="-271.02" font-family="Times,serif" font-size="14.00">Deterministic</text>
</g>
<!-- 1|eth_sigma&#45;&gt;1|eth -->
<g id="edge4" class="edge">
<title>1|eth_sigma&#45;&gt;1|eth</title>
<path fill="none" stroke="black" d="M746.97,-377.07C730.72,-362.31 711.32,-344.7 694.55,-329.46"/>
<polygon fill="black" stroke="black" points="696.92,-326.89 687.16,-322.76 692.21,-332.07 696.92,-326.89"/>
</g>
<!-- Intercept -->
<g id="node8" class="node">
<title>Intercept</title>
<ellipse fill="none" stroke="black" cx="245.01" cy="-292.57" rx="45.25" ry="40.66"/>
<text text-anchor="middle" x="245.01" y="-304.02" font-family="Times,serif" font-size="14.00">Intercept</text>
<text text-anchor="middle" x="245.01" y="-287.52" font-family="Times,serif" font-size="14.00">~</text>
<text text-anchor="middle" x="245.01" y="-271.02" font-family="Times,serif" font-size="14.00">Normal</text>
</g>
<!-- Intercept&#45;&gt;p -->
<g id="edge21" class="edge">
<title>Intercept&#45;&gt;p</title>
<path fill="none" stroke="black" d="M266.2,-256.45C273.77,-246.78 283.15,-237.31 294.01,-231.32 344.99,-203.18 509.94,-192.88 598.15,-189.32"/>
<polygon fill="black" stroke="black" points="598.18,-192.82 608.03,-188.93 597.91,-185.82 598.18,-192.82"/>
</g>
<!-- 1|edu&amp;age_sigma -->
<g id="node9" class="node">
<title>1|edu&amp;age_sigma</title>
<ellipse fill="none" stroke="black" cx="1725.01" cy="-409.88" rx="76.01" ry="40.66"/>
<text text-anchor="middle" x="1725.01" y="-421.33" font-family="Times,serif" font-size="14.00">1|edu:age_sigma</text>
<text text-anchor="middle" x="1725.01" y="-404.83" font-family="Times,serif" font-size="14.00">~</text>
<text text-anchor="middle" x="1725.01" y="-388.33" font-family="Times,serif" font-size="14.00">HalfNormal</text>
</g>
<!-- 1|edu&amp;age -->
<g id="node18" class="node">
<title>1|edu&amp;age</title>
<polygon fill="none" stroke="black" points="1602.14,-321.32 1511.89,-321.32 1511.89,-263.82 1602.14,-263.82 1602.14,-321.32"/>
<text text-anchor="middle" x="1557.01" y="-304.02" font-family="Times,serif" font-size="14.00">1|edu:age</text>
<text text-anchor="middle" x="1557.01" y="-287.52" font-family="Times,serif" font-size="14.00">~</text>
<text text-anchor="middle" x="1557.01" y="-271.02" font-family="Times,serif" font-size="14.00">Deterministic</text>
</g>
<!-- 1|edu&amp;age_sigma&#45;&gt;1|edu&amp;age -->
<g id="edge10" class="edge">
<title>1|edu&amp;age_sigma&#45;&gt;1|edu&amp;age</title>
<path fill="none" stroke="black" d="M1679.11,-377.37C1656.92,-362.14 1630.23,-343.83 1607.48,-328.21"/>
<polygon fill="black" stroke="black" points="1609.46,-325.32 1599.24,-322.55 1605.5,-331.1 1609.46,-325.32"/>
</g>
<!-- 1|state&#45;&gt;p -->
<g id="edge16" class="edge">
<title>1|state&#45;&gt;p</title>
<path fill="none" stroke="black" d="M430.51,-274.04C476.99,-256.14 549.25,-228.31 599.17,-209.08"/>
<polygon fill="black" stroke="black" points="600.29,-212.39 608.37,-205.53 597.78,-205.86 600.29,-212.39"/>
</g>
<!-- 1|state_offset -->
<g id="node11" class="node">
<title>1|state_offset</title>
<ellipse fill="none" stroke="black" cx="368.01" cy="-409.88" rx="62.23" ry="40.66"/>
<text text-anchor="middle" x="368.01" y="-421.33" font-family="Times,serif" font-size="14.00">1|state_offset</text>
<text text-anchor="middle" x="368.01" y="-404.83" font-family="Times,serif" font-size="14.00">~</text>
<text text-anchor="middle" x="368.01" y="-388.33" font-family="Times,serif" font-size="14.00">Normal</text>
</g>
<!-- 1|state_offset&#45;&gt;1|state -->
<g id="edge1" class="edge">
<title>1|state_offset&#45;&gt;1|state</title>
<path fill="none" stroke="black" d="M373.86,-369.2C375.59,-357.47 377.48,-344.64 379.21,-332.94"/>
<polygon fill="black" stroke="black" points="382.65,-333.59 380.65,-323.18 375.73,-332.56 382.65,-333.59"/>
</g>
<!-- 1|eth&#45;&gt;p -->
<g id="edge13" class="edge">
<title>1|eth&#45;&gt;p</title>
<path fill="none" stroke="black" d="M655.01,-263.42C655.01,-252.21 655.01,-239.1 655.01,-226.97"/>
<polygon fill="black" stroke="black" points="658.51,-227.25 655.01,-217.25 651.51,-227.25 658.51,-227.25"/>
</g>
<!-- 1|eth_offset -->
<g id="node13" class="node">
<title>1|eth_offset</title>
<ellipse fill="none" stroke="black" cx="650.01" cy="-409.88" rx="56.39" ry="40.66"/>
<text text-anchor="middle" x="650.01" y="-421.33" font-family="Times,serif" font-size="14.00">1|eth_offset</text>
<text text-anchor="middle" x="650.01" y="-404.83" font-family="Times,serif" font-size="14.00">~</text>
<text text-anchor="middle" x="650.01" y="-388.33" font-family="Times,serif" font-size="14.00">Normal</text>
</g>
<!-- 1|eth_offset&#45;&gt;1|eth -->
<g id="edge3" class="edge">
<title>1|eth_offset&#45;&gt;1|eth</title>
<path fill="none" stroke="black" d="M651.75,-368.88C652.25,-357.17 652.81,-344.38 653.31,-332.73"/>
<polygon fill="black" stroke="black" points="656.8,-333.18 653.73,-323.04 649.8,-332.88 656.8,-333.18"/>
</g>
<!-- 1|edu&#45;&gt;p -->
<g id="edge19" class="edge">
<title>1|edu&#45;&gt;p</title>
<path fill="none" stroke="black" d="M870.55,-273.45C826.15,-255.76 758.49,-228.8 710.84,-209.81"/>
<polygon fill="black" stroke="black" points="712.38,-206.66 701.8,-206.21 709.79,-213.16 712.38,-206.66"/>
</g>
<!-- 1|edu_offset -->
<g id="node15" class="node">
<title>1|edu_offset</title>
<ellipse fill="none" stroke="black" cx="916.01" cy="-409.88" rx="58.51" ry="40.66"/>
<text text-anchor="middle" x="916.01" y="-421.33" font-family="Times,serif" font-size="14.00">1|edu_offset</text>
<text text-anchor="middle" x="916.01" y="-404.83" font-family="Times,serif" font-size="14.00">~</text>
<text text-anchor="middle" x="916.01" y="-388.33" font-family="Times,serif" font-size="14.00">Normal</text>
</g>
<!-- 1|edu_offset&#45;&gt;1|edu -->
<g id="edge6" class="edge">
<title>1|edu_offset&#45;&gt;1|edu</title>
<path fill="none" stroke="black" d="M916.01,-368.88C916.01,-357.17 916.01,-344.38 916.01,-332.73"/>
<polygon fill="black" stroke="black" points="919.51,-333.04 916.01,-323.04 912.51,-333.04 919.51,-333.04"/>
</g>
<!-- 1|male&amp;eth_offset -->
<g id="node16" class="node">
<title>1|male&amp;eth_offset</title>
<ellipse fill="none" stroke="black" cx="1209.01" cy="-409.88" rx="78.14" ry="40.66"/>
<text text-anchor="middle" x="1209.01" y="-421.33" font-family="Times,serif" font-size="14.00">1|male:eth_offset</text>
<text text-anchor="middle" x="1209.01" y="-404.83" font-family="Times,serif" font-size="14.00">~</text>
<text text-anchor="middle" x="1209.01" y="-388.33" font-family="Times,serif" font-size="14.00">Normal</text>
</g>
<!-- 1|male&amp;eth_offset&#45;&gt;1|male&amp;eth -->
<g id="edge8" class="edge">
<title>1|male&amp;eth_offset&#45;&gt;1|male&amp;eth</title>
<path fill="none" stroke="black" d="M1209.01,-368.88C1209.01,-357.17 1209.01,-344.38 1209.01,-332.73"/>
<polygon fill="black" stroke="black" points="1212.51,-333.04 1209.01,-323.04 1205.51,-333.04 1212.51,-333.04"/>
</g>
<!-- 1|male&amp;eth&#45;&gt;p -->
<g id="edge17" class="edge">
<title>1|male&amp;eth&#45;&gt;p</title>
<path fill="none" stroke="black" d="M1163.52,-277.3C1118.94,-263.77 1048.88,-243.73 987.01,-231.32 891.3,-212.11 778.31,-199.28 711.88,-192.72"/>
<polygon fill="black" stroke="black" points="712.23,-189.24 701.94,-191.75 711.56,-196.21 712.23,-189.24"/>
</g>
<!-- 1|edu&amp;age&#45;&gt;p -->
<g id="edge18" class="edge">
<title>1|edu&amp;age&#45;&gt;p</title>
<path fill="none" stroke="black" d="M1511.77,-278.66C1460.59,-264.6 1374.53,-242.62 1299.01,-231.32 1083.86,-199.1 824.69,-190.59 711.98,-188.35"/>
<polygon fill="black" stroke="black" points="712.15,-184.86 702.08,-188.17 712.02,-191.86 712.15,-184.86"/>
</g>
<!-- 1|edu&amp;age_offset -->
<g id="node19" class="node">
<title>1|edu&amp;age_offset</title>
<ellipse fill="none" stroke="black" cx="1557.01" cy="-409.88" rx="74.42" ry="40.66"/>
<text text-anchor="middle" x="1557.01" y="-421.33" font-family="Times,serif" font-size="14.00">1|edu:age_offset</text>
<text text-anchor="middle" x="1557.01" y="-404.83" font-family="Times,serif" font-size="14.00">~</text>
<text text-anchor="middle" x="1557.01" y="-388.33" font-family="Times,serif" font-size="14.00">Normal</text>
</g>
<!-- 1|edu&amp;age_offset&#45;&gt;1|edu&amp;age -->
<g id="edge9" class="edge">
<title>1|edu&amp;age_offset&#45;&gt;1|edu&amp;age</title>
<path fill="none" stroke="black" d="M1557.01,-368.88C1557.01,-357.17 1557.01,-344.38 1557.01,-332.73"/>
<polygon fill="black" stroke="black" points="1560.51,-333.04 1557.01,-323.04 1553.51,-333.04 1560.51,-333.04"/>
</g>
<!-- 1|edu&amp;eth&#45;&gt;p -->
<g id="edge14" class="edge">
<title>1|edu&amp;eth&#45;&gt;p</title>
<path fill="none" stroke="black" d="M1846.63,-277.78C1797.11,-263.4 1715.23,-241.56 1643.01,-231.32 1461.28,-205.55 893.95,-192.31 711.87,-188.64"/>
<polygon fill="black" stroke="black" points="712.03,-185.14 701.96,-188.44 711.89,-192.14 712.03,-185.14"/>
</g>
<!-- 1|edu&amp;eth_offset -->
<g id="node21" class="node">
<title>1|edu&amp;eth_offset</title>
<ellipse fill="none" stroke="black" cx="1892.01" cy="-409.88" rx="72.83" ry="40.66"/>
<text text-anchor="middle" x="1892.01" y="-421.33" font-family="Times,serif" font-size="14.00">1|edu:eth_offset</text>
<text text-anchor="middle" x="1892.01" y="-404.83" font-family="Times,serif" font-size="14.00">~</text>
<text text-anchor="middle" x="1892.01" y="-388.33" font-family="Times,serif" font-size="14.00">Normal</text>
</g>
<!-- 1|edu&amp;eth_offset&#45;&gt;1|edu&amp;eth -->
<g id="edge12" class="edge">
<title>1|edu&amp;eth_offset&#45;&gt;1|edu&amp;eth</title>
<path fill="none" stroke="black" d="M1892.01,-368.88C1892.01,-357.17 1892.01,-344.38 1892.01,-332.73"/>
<polygon fill="black" stroke="black" points="1895.51,-333.04 1892.01,-323.04 1888.51,-333.04 1895.51,-333.04"/>
</g>
<!-- p(abortion, n) -->
<g id="node23" class="node">
<title>p(abortion, n)</title>
<ellipse fill="lightgrey" stroke="black" cx="655.01" cy="-81.16" rx="64.35" ry="40.66"/>
<text text-anchor="middle" x="655.01" y="-92.61" font-family="Times,serif" font-size="14.00">p(abortion, n)</text>
<text text-anchor="middle" x="655.01" y="-76.11" font-family="Times,serif" font-size="14.00">~</text>
<text text-anchor="middle" x="655.01" y="-59.61" font-family="Times,serif" font-size="14.00">Binomial</text>
</g>
<!-- p&#45;&gt;p(abortion, n) -->
<g id="edge22" class="edge">
<title>p&#45;&gt;p(abortion, n)</title>
<path fill="none" stroke="black" d="M655.01,-157.58C655.01,-150.1 655.01,-141.77 655.01,-133.45"/>
<polygon fill="black" stroke="black" points="658.51,-133.71 655.01,-123.71 651.51,-133.71 658.51,-133.71"/>
</g>
</g>
</svg>
