<?xml version="1.0" encoding="UTF-8" standalone="no"?>
<!DOCTYPE svg PUBLIC "-//W3C//DTD SVG 1.1//EN"
 "http://www.w3.org/Graphics/SVG/1.1/DTD/svg11.dtd">
<!-- Generated by graphviz version 13.1.2 (20250809.0930)
 -->
<!-- Pages: 1 -->
<svg width="2137pt" height="475pt"
 viewBox="0.00 0.00 2137.00 475.00" xmlns="http://www.w3.org/2000/svg" xmlns:xlink="http://www.w3.org/1999/xlink">
<g id="graph0" class="graph" transform="scale(1 1) rotate(0) translate(4 470.54)">
<polygon fill="white" stroke="none" points="-4,4 -4,-470.54 2133.44,-470.54 2133.44,4 -4,4"/>
<g id="clust1" class="cluster">
<title>clusterstate__factor_dim (46)</title>
<path fill="none" stroke="black" d="M644.01,-231.32C644.01,-231.32 760.01,-231.32 760.01,-231.32 766.01,-231.32 772.01,-237.32 772.01,-243.32 772.01,-243.32 772.01,-446.54 772.01,-446.54 772.01,-452.54 766.01,-458.54 760.01,-458.54 760.01,-458.54 644.01,-458.54 644.01,-458.54 638.01,-458.54 632.01,-452.54 632.01,-446.54 632.01,-446.54 632.01,-243.32 632.01,-243.32 632.01,-237.32 638.01,-231.32 644.01,-231.32"/>
<text xml:space="preserve" text-anchor="middle" x="701.76" y="-238.52" font-family="Times,serif" font-size="14.00">state__factor_dim (46)</text>
</g>
<g id="clust2" class="cluster">
<title>clustereth__factor_dim (4)</title>
<path fill="none" stroke="black" d="M932.01,-231.32C932.01,-231.32 1036.01,-231.32 1036.01,-231.32 1042.01,-231.32 1048.01,-237.32 1048.01,-243.32 1048.01,-243.32 1048.01,-446.54 1048.01,-446.54 1048.01,-452.54 1042.01,-458.54 1036.01,-458.54 1036.01,-458.54 932.01,-458.54 932.01,-458.54 926.01,-458.54 920.01,-452.54 920.01,-446.54 920.01,-446.54 920.01,-243.32 920.01,-243.32 920.01,-237.32 926.01,-231.32 932.01,-231.32"/>
<text xml:space="preserve" text-anchor="middle" x="985.26" y="-238.52" font-family="Times,serif" font-size="14.00">eth__factor_dim (4)</text>
</g>
<g id="clust3" class="cluster">
<title>clusteredu__factor_dim (5)</title>
<path fill="none" stroke="black" d="M1195.01,-231.32C1195.01,-231.32 1305.01,-231.32 1305.01,-231.32 1311.01,-231.32 1317.01,-237.32 1317.01,-243.32 1317.01,-243.32 1317.01,-446.54 1317.01,-446.54 1317.01,-452.54 1311.01,-458.54 1305.01,-458.54 1305.01,-458.54 1195.01,-458.54 1195.01,-458.54 1189.01,-458.54 1183.01,-452.54 1183.01,-446.54 1183.01,-446.54 1183.01,-243.32 1183.01,-243.32 1183.01,-237.32 1189.01,-231.32 1195.01,-231.32"/>
<text xml:space="preserve" text-anchor="middle" x="1252.76" y="-238.52" font-family="Times,serif" font-size="14.00">edu__factor_dim (5)</text>
</g>
<g id="clust4" class="cluster">
<title>clustermale:eth__factor_dim (8)</title>
<path fill="none" stroke="black" d="M1469.01,-231.32C1469.01,-231.32 1617.01,-231.32 1617.01,-231.32 1623.01,-231.32 1629.01,-237.32 1629.01,-243.32 1629.01,-243.32 1629.01,-446.54 1629.01,-446.54 1629.01,-452.54 1623.01,-458.54 1617.01,-458.54 1617.01,-458.54 1469.01,-458.54 1469.01,-458.54 1463.01,-458.54 1457.01,-452.54 1457.01,-446.54 1457.01,-446.54 1457.01,-243.32 1457.01,-243.32 1457.01,-237.32 1463.01,-231.32 1469.01,-231.32"/>
<text xml:space="preserve" text-anchor="middle" x="1550.89" y="-238.52" font-family="Times,serif" font-size="14.00">male:eth__factor_dim (8)</text>
</g>
<g id="clust5" class="cluster">
<title>clusteredu:age__factor_dim (30)</title>
<path fill="none" stroke="black" d="M174.01,-231.32C174.01,-231.32 314.01,-231.32 314.01,-231.32 320.01,-231.32 326.01,-237.32 326.01,-243.32 326.01,-243.32 326.01,-446.54 326.01,-446.54 326.01,-452.54 320.01,-458.54 314.01,-458.54 314.01,-458.54 174.01,-458.54 174.01,-458.54 168.01,-458.54 162.01,-452.54 162.01,-446.54 162.01,-446.54 162.01,-243.32 162.01,-243.32 162.01,-237.32 168.01,-231.32 174.01,-231.32"/>
<text xml:space="preserve" text-anchor="middle" x="247.14" y="-238.52" font-family="Times,serif" font-size="14.00">edu:age__factor_dim (30)</text>
</g>
<g id="clust6" class="cluster">
<title>clusteredu:eth__factor_dim (20)</title>
<path fill="none" stroke="black" d="M1821.01,-231.32C1821.01,-231.32 1959.01,-231.32 1959.01,-231.32 1965.01,-231.32 1971.01,-237.32 1971.01,-243.32 1971.01,-243.32 1971.01,-446.54 1971.01,-446.54 1971.01,-452.54 1965.01,-458.54 1959.01,-458.54 1959.01,-458.54 1821.01,-458.54 1821.01,-458.54 1815.01,-458.54 1809.01,-452.54 1809.01,-446.54 1809.01,-446.54 1809.01,-243.32 1809.01,-243.32 1809.01,-237.32 1815.01,-231.32 1821.01,-231.32"/>
<text xml:space="preserve" text-anchor="middle" x="1893.26" y="-238.52" font-family="Times,serif" font-size="14.00">edu:eth__factor_dim (20)</text>
</g>
<g id="clust7" class="cluster">
<title>cluster__obs__ (11040)</title>
<path fill="none" stroke="black" d="M650.01,-8C650.01,-8 770.01,-8 770.01,-8 776.01,-8 782.01,-14 782.01,-20 782.01,-20 782.01,-211.32 782.01,-211.32 782.01,-217.32 776.01,-223.32 770.01,-223.32 770.01,-223.32 650.01,-223.32 650.01,-223.32 644.01,-223.32 638.01,-217.32 638.01,-211.32 638.01,-211.32 638.01,-20 638.01,-20 638.01,-14 644.01,-8 650.01,-8"/>
<text xml:space="preserve" text-anchor="middle" x="727.89" y="-15.2" font-family="Times,serif" font-size="14.00">__obs__ (11040)</text>
</g>
<!-- 1|edu&amp;age_sigma -->
<g id="node1" class="node">
<title>1|edu&amp;age_sigma</title>
<ellipse fill="none" stroke="black" cx="76.01" cy="-409.88" rx="76.01" ry="40.66"/>
<text xml:space="preserve" text-anchor="middle" x="76.01" y="-421.33" font-family="Times,serif" font-size="14.00">1|edu:age_sigma</text>
<text xml:space="preserve" text-anchor="middle" x="76.01" y="-404.83" font-family="Times,serif" font-size="14.00">~</text>
<text xml:space="preserve" text-anchor="middle" x="76.01" y="-388.33" font-family="Times,serif" font-size="14.00">Halfnormal</text>
</g>
<!-- 1|edu&amp;age -->
<g id="node18" class="node">
<title>1|edu&amp;age</title>
<polygon fill="none" stroke="black" points="289.14,-321.32 198.89,-321.32 198.89,-263.82 289.14,-263.82 289.14,-321.32"/>
<text xml:space="preserve" text-anchor="middle" x="244.01" y="-304.02" font-family="Times,serif" font-size="14.00">1|edu:age</text>
<text xml:space="preserve" text-anchor="middle" x="244.01" y="-287.52" font-family="Times,serif" font-size="14.00">~</text>
<text xml:space="preserve" text-anchor="middle" x="244.01" y="-271.02" font-family="Times,serif" font-size="14.00">Deterministic</text>
</g>
<!-- 1|edu&amp;age_sigma&#45;&gt;1|edu&amp;age -->
<g id="edge9" class="edge">
<title>1|edu&amp;age_sigma&#45;&gt;1|edu&amp;age</title>
<path fill="none" stroke="black" d="M121.92,-377.37C144.11,-362.14 170.79,-343.83 193.55,-328.21"/>
<polygon fill="black" stroke="black" points="195.53,-331.1 201.79,-322.55 191.56,-325.32 195.53,-331.1"/>
</g>
<!-- 1|male&amp;eth_sigma -->
<g id="node2" class="node">
<title>1|male&amp;eth_sigma</title>
<ellipse fill="none" stroke="black" cx="1719.01" cy="-409.88" rx="79.73" ry="40.66"/>
<text xml:space="preserve" text-anchor="middle" x="1719.01" y="-421.33" font-family="Times,serif" font-size="14.00">1|male:eth_sigma</text>
<text xml:space="preserve" text-anchor="middle" x="1719.01" y="-404.83" font-family="Times,serif" font-size="14.00">~</text>
<text xml:space="preserve" text-anchor="middle" x="1719.01" y="-388.33" font-family="Times,serif" font-size="14.00">Halfnormal</text>
</g>
<!-- 1|male&amp;eth -->
<g id="node16" class="node">
<title>1|male&amp;eth</title>
<polygon fill="none" stroke="black" points="1588.14,-321.32 1497.89,-321.32 1497.89,-263.82 1588.14,-263.82 1588.14,-321.32"/>
<text xml:space="preserve" text-anchor="middle" x="1543.01" y="-304.02" font-family="Times,serif" font-size="14.00">1|male:eth</text>
<text xml:space="preserve" text-anchor="middle" x="1543.01" y="-287.52" font-family="Times,serif" font-size="14.00">~</text>
<text xml:space="preserve" text-anchor="middle" x="1543.01" y="-271.02" font-family="Times,serif" font-size="14.00">Deterministic</text>
</g>
<!-- 1|male&amp;eth_sigma&#45;&gt;1|male&amp;eth -->
<g id="edge7" class="edge">
<title>1|male&amp;eth_sigma&#45;&gt;1|male&amp;eth</title>
<path fill="none" stroke="black" d="M1670.92,-377.37C1647.57,-362.08 1619.47,-343.66 1595.56,-328"/>
<polygon fill="black" stroke="black" points="1597.49,-325.08 1587.21,-322.52 1593.65,-330.93 1597.49,-325.08"/>
</g>
<!-- male -->
<g id="node3" class="node">
<title>male</title>
<ellipse fill="none" stroke="black" cx="375.01" cy="-292.57" rx="41.01" ry="40.66"/>
<text xml:space="preserve" text-anchor="middle" x="375.01" y="-304.02" font-family="Times,serif" font-size="14.00">male</text>
<text xml:space="preserve" text-anchor="middle" x="375.01" y="-287.52" font-family="Times,serif" font-size="14.00">~</text>
<text xml:space="preserve" text-anchor="middle" x="375.01" y="-271.02" font-family="Times,serif" font-size="14.00">Normal</text>
</g>
<!-- p -->
<g id="node22" class="node">
<title>p</title>
<polygon fill="none" stroke="black" points="755.14,-215.32 664.89,-215.32 664.89,-157.82 755.14,-157.82 755.14,-215.32"/>
<text xml:space="preserve" text-anchor="middle" x="710.01" y="-198.02" font-family="Times,serif" font-size="14.00">p</text>
<text xml:space="preserve" text-anchor="middle" x="710.01" y="-181.52" font-family="Times,serif" font-size="14.00">~</text>
<text xml:space="preserve" text-anchor="middle" x="710.01" y="-165.02" font-family="Times,serif" font-size="14.00">Deterministic</text>
</g>
<!-- male&#45;&gt;p -->
<g id="edge16" class="edge">
<title>male&#45;&gt;p</title>
<path fill="none" stroke="black" d="M396.38,-257.28C404.2,-247.41 413.9,-237.61 425.01,-231.32 463.05,-209.78 581.85,-197.26 653.5,-191.49"/>
<polygon fill="black" stroke="black" points="653.37,-195.01 663.06,-190.74 652.82,-188.03 653.37,-195.01"/>
</g>
<!-- 1|edu_sigma -->
<g id="node4" class="node">
<title>1|edu_sigma</title>
<ellipse fill="none" stroke="black" cx="1387.01" cy="-409.88" rx="60.1" ry="40.66"/>
<text xml:space="preserve" text-anchor="middle" x="1387.01" y="-421.33" font-family="Times,serif" font-size="14.00">1|edu_sigma</text>
<text xml:space="preserve" text-anchor="middle" x="1387.01" y="-404.83" font-family="Times,serif" font-size="14.00">~</text>
<text xml:space="preserve" text-anchor="middle" x="1387.01" y="-388.33" font-family="Times,serif" font-size="14.00">Halfnormal</text>
</g>
<!-- 1|edu -->
<g id="node14" class="node">
<title>1|edu</title>
<polygon fill="none" stroke="black" points="1295.14,-321.32 1204.89,-321.32 1204.89,-263.82 1295.14,-263.82 1295.14,-321.32"/>
<text xml:space="preserve" text-anchor="middle" x="1250.01" y="-304.02" font-family="Times,serif" font-size="14.00">1|edu</text>
<text xml:space="preserve" text-anchor="middle" x="1250.01" y="-287.52" font-family="Times,serif" font-size="14.00">~</text>
<text xml:space="preserve" text-anchor="middle" x="1250.01" y="-271.02" font-family="Times,serif" font-size="14.00">Deterministic</text>
</g>
<!-- 1|edu_sigma&#45;&gt;1|edu -->
<g id="edge5" class="edge">
<title>1|edu_sigma&#45;&gt;1|edu</title>
<path fill="none" stroke="black" d="M1349.94,-377.68C1332.1,-362.66 1310.62,-344.58 1292.16,-329.04"/>
<polygon fill="black" stroke="black" points="1294.43,-326.38 1284.53,-322.62 1289.93,-331.74 1294.43,-326.38"/>
</g>
<!-- 1|edu&amp;eth_sigma -->
<g id="node5" class="node">
<title>1|edu&amp;eth_sigma</title>
<ellipse fill="none" stroke="black" cx="2055.01" cy="-409.88" rx="74.42" ry="40.66"/>
<text xml:space="preserve" text-anchor="middle" x="2055.01" y="-421.33" font-family="Times,serif" font-size="14.00">1|edu:eth_sigma</text>
<text xml:space="preserve" text-anchor="middle" x="2055.01" y="-404.83" font-family="Times,serif" font-size="14.00">~</text>
<text xml:space="preserve" text-anchor="middle" x="2055.01" y="-388.33" font-family="Times,serif" font-size="14.00">Halfnormal</text>
</g>
<!-- 1|edu&amp;eth -->
<g id="node20" class="node">
<title>1|edu&amp;eth</title>
<polygon fill="none" stroke="black" points="1935.14,-321.32 1844.89,-321.32 1844.89,-263.82 1935.14,-263.82 1935.14,-321.32"/>
<text xml:space="preserve" text-anchor="middle" x="1890.01" y="-304.02" font-family="Times,serif" font-size="14.00">1|edu:eth</text>
<text xml:space="preserve" text-anchor="middle" x="1890.01" y="-287.52" font-family="Times,serif" font-size="14.00">~</text>
<text xml:space="preserve" text-anchor="middle" x="1890.01" y="-271.02" font-family="Times,serif" font-size="14.00">Deterministic</text>
</g>
<!-- 1|edu&amp;eth_sigma&#45;&gt;1|edu&amp;eth -->
<g id="edge12" class="edge">
<title>1|edu&amp;eth_sigma&#45;&gt;1|edu&amp;eth</title>
<path fill="none" stroke="black" d="M2009.93,-377.37C1988.14,-362.14 1961.93,-343.83 1939.58,-328.21"/>
<polygon fill="black" stroke="black" points="1941.7,-325.42 1931.5,-322.56 1937.69,-331.16 1941.7,-325.42"/>
</g>
<!-- 1|eth_sigma -->
<g id="node6" class="node">
<title>1|eth_sigma</title>
<ellipse fill="none" stroke="black" cx="1116.01" cy="-409.88" rx="57.98" ry="40.66"/>
<text xml:space="preserve" text-anchor="middle" x="1116.01" y="-421.33" font-family="Times,serif" font-size="14.00">1|eth_sigma</text>
<text xml:space="preserve" text-anchor="middle" x="1116.01" y="-404.83" font-family="Times,serif" font-size="14.00">~</text>
<text xml:space="preserve" text-anchor="middle" x="1116.01" y="-388.33" font-family="Times,serif" font-size="14.00">Halfnormal</text>
</g>
<!-- 1|eth -->
<g id="node13" class="node">
<title>1|eth</title>
<polygon fill="none" stroke="black" points="1029.14,-321.32 938.89,-321.32 938.89,-263.82 1029.14,-263.82 1029.14,-321.32"/>
<text xml:space="preserve" text-anchor="middle" x="984.01" y="-304.02" font-family="Times,serif" font-size="14.00">1|eth</text>
<text xml:space="preserve" text-anchor="middle" x="984.01" y="-287.52" font-family="Times,serif" font-size="14.00">~</text>
<text xml:space="preserve" text-anchor="middle" x="984.01" y="-271.02" font-family="Times,serif" font-size="14.00">Deterministic</text>
</g>
<!-- 1|eth_sigma&#45;&gt;1|eth -->
<g id="edge3" class="edge">
<title>1|eth_sigma&#45;&gt;1|eth</title>
<path fill="none" stroke="black" d="M1080.29,-377.68C1063.1,-362.66 1042.41,-344.58 1024.62,-329.04"/>
<polygon fill="black" stroke="black" points="1027.13,-326.58 1017.29,-322.64 1022.52,-331.86 1027.13,-326.58"/>
</g>
<!-- Intercept -->
<g id="node7" class="node">
<title>Intercept</title>
<ellipse fill="none" stroke="black" cx="479.01" cy="-292.57" rx="45.25" ry="40.66"/>
<text xml:space="preserve" text-anchor="middle" x="479.01" y="-304.02" font-family="Times,serif" font-size="14.00">Intercept</text>
<text xml:space="preserve" text-anchor="middle" x="479.01" y="-287.52" font-family="Times,serif" font-size="14.00">~</text>
<text xml:space="preserve" text-anchor="middle" x="479.01" y="-271.02" font-family="Times,serif" font-size="14.00">Normal</text>
</g>
<!-- Intercept&#45;&gt;p -->
<g id="edge20" class="edge">
<title>Intercept&#45;&gt;p</title>
<path fill="none" stroke="black" d="M502.92,-257.89C511.41,-248.05 521.7,-238.12 533.01,-231.32 569.77,-209.22 617.2,-198.26 653.71,-192.84"/>
<polygon fill="black" stroke="black" points="653.73,-196.37 663.16,-191.53 652.78,-189.43 653.73,-196.37"/>
</g>
<!-- repvote -->
<g id="node8" class="node">
<title>repvote</title>
<ellipse fill="none" stroke="black" cx="583.01" cy="-292.57" rx="41.01" ry="40.66"/>
<text xml:space="preserve" text-anchor="middle" x="583.01" y="-304.02" font-family="Times,serif" font-size="14.00">repvote</text>
<text xml:space="preserve" text-anchor="middle" x="583.01" y="-287.52" font-family="Times,serif" font-size="14.00">~</text>
<text xml:space="preserve" text-anchor="middle" x="583.01" y="-271.02" font-family="Times,serif" font-size="14.00">Normal</text>
</g>
<!-- repvote&#45;&gt;p -->
<g id="edge21" class="edge">
<title>repvote&#45;&gt;p</title>
<path fill="none" stroke="black" d="M604.46,-257.45C611.26,-248.26 619.3,-238.8 628.01,-231.32 636.1,-224.37 645.47,-218.1 654.93,-212.61"/>
<polygon fill="black" stroke="black" points="656.37,-215.81 663.44,-207.92 652.99,-209.68 656.37,-215.81"/>
</g>
<!-- 1|state_sigma -->
<g id="node9" class="node">
<title>1|state_sigma</title>
<ellipse fill="none" stroke="black" cx="846.01" cy="-409.88" rx="63.82" ry="40.66"/>
<text xml:space="preserve" text-anchor="middle" x="846.01" y="-421.33" font-family="Times,serif" font-size="14.00">1|state_sigma</text>
<text xml:space="preserve" text-anchor="middle" x="846.01" y="-404.83" font-family="Times,serif" font-size="14.00">~</text>
<text xml:space="preserve" text-anchor="middle" x="846.01" y="-388.33" font-family="Times,serif" font-size="14.00">Halfnormal</text>
</g>
<!-- 1|state -->
<g id="node11" class="node">
<title>1|state</title>
<polygon fill="none" stroke="black" points="755.14,-321.32 664.89,-321.32 664.89,-263.82 755.14,-263.82 755.14,-321.32"/>
<text xml:space="preserve" text-anchor="middle" x="710.01" y="-304.02" font-family="Times,serif" font-size="14.00">1|state</text>
<text xml:space="preserve" text-anchor="middle" x="710.01" y="-287.52" font-family="Times,serif" font-size="14.00">~</text>
<text xml:space="preserve" text-anchor="middle" x="710.01" y="-271.02" font-family="Times,serif" font-size="14.00">Deterministic</text>
</g>
<!-- 1|state_sigma&#45;&gt;1|state -->
<g id="edge2" class="edge">
<title>1|state_sigma&#45;&gt;1|state</title>
<path fill="none" stroke="black" d="M808.13,-376.76C790.57,-361.87 769.65,-344.13 751.65,-328.87"/>
<polygon fill="black" stroke="black" points="754.12,-326.37 744.23,-322.58 749.59,-331.71 754.12,-326.37"/>
</g>
<!-- 1|state_offset -->
<g id="node10" class="node">
<title>1|state_offset</title>
<ellipse fill="none" stroke="black" cx="702.01" cy="-409.88" rx="62.23" ry="40.66"/>
<text xml:space="preserve" text-anchor="middle" x="702.01" y="-421.33" font-family="Times,serif" font-size="14.00">1|state_offset</text>
<text xml:space="preserve" text-anchor="middle" x="702.01" y="-404.83" font-family="Times,serif" font-size="14.00">~</text>
<text xml:space="preserve" text-anchor="middle" x="702.01" y="-388.33" font-family="Times,serif" font-size="14.00">Normal</text>
</g>
<!-- 1|state_offset&#45;&gt;1|state -->
<g id="edge1" class="edge">
<title>1|state_offset&#45;&gt;1|state</title>
<path fill="none" stroke="black" d="M704.79,-368.88C705.6,-357.17 706.49,-344.38 707.3,-332.73"/>
<polygon fill="black" stroke="black" points="710.77,-333.26 707.97,-323.04 703.79,-332.77 710.77,-333.26"/>
</g>
<!-- 1|state&#45;&gt;p -->
<g id="edge14" class="edge">
<title>1|state&#45;&gt;p</title>
<path fill="none" stroke="black" d="M710.01,-263.42C710.01,-252.21 710.01,-239.1 710.01,-226.97"/>
<polygon fill="black" stroke="black" points="713.51,-227.25 710.01,-217.25 706.51,-227.25 713.51,-227.25"/>
</g>
<!-- 1|eth_offset -->
<g id="node12" class="node">
<title>1|eth_offset</title>
<ellipse fill="none" stroke="black" cx="984.01" cy="-409.88" rx="56.39" ry="40.66"/>
<text xml:space="preserve" text-anchor="middle" x="984.01" y="-421.33" font-family="Times,serif" font-size="14.00">1|eth_offset</text>
<text xml:space="preserve" text-anchor="middle" x="984.01" y="-404.83" font-family="Times,serif" font-size="14.00">~</text>
<text xml:space="preserve" text-anchor="middle" x="984.01" y="-388.33" font-family="Times,serif" font-size="14.00">Normal</text>
</g>
<!-- 1|eth_offset&#45;&gt;1|eth -->
<g id="edge4" class="edge">
<title>1|eth_offset&#45;&gt;1|eth</title>
<path fill="none" stroke="black" d="M984.01,-368.88C984.01,-357.17 984.01,-344.38 984.01,-332.73"/>
<polygon fill="black" stroke="black" points="987.51,-333.04 984.01,-323.04 980.51,-333.04 987.51,-333.04"/>
</g>
<!-- 1|eth&#45;&gt;p -->
<g id="edge15" class="edge">
<title>1|eth&#45;&gt;p</title>
<path fill="none" stroke="black" d="M938.46,-274.28C891.01,-256.27 816.62,-228.03 765.71,-208.71"/>
<polygon fill="black" stroke="black" points="767.23,-205.54 756.63,-205.26 764.74,-212.08 767.23,-205.54"/>
</g>
<!-- 1|edu&#45;&gt;p -->
<g id="edge18" class="edge">
<title>1|edu&#45;&gt;p</title>
<path fill="none" stroke="black" d="M1204.58,-275.35C1164.81,-261.74 1105.24,-242.73 1052.01,-231.32 952.84,-210.04 835.12,-197.76 766.85,-191.89"/>
<polygon fill="black" stroke="black" points="767.28,-188.42 757.02,-191.07 766.69,-195.39 767.28,-188.42"/>
</g>
<!-- 1|edu_offset -->
<g id="node15" class="node">
<title>1|edu_offset</title>
<ellipse fill="none" stroke="black" cx="1250.01" cy="-409.88" rx="58.51" ry="40.66"/>
<text xml:space="preserve" text-anchor="middle" x="1250.01" y="-421.33" font-family="Times,serif" font-size="14.00">1|edu_offset</text>
<text xml:space="preserve" text-anchor="middle" x="1250.01" y="-404.83" font-family="Times,serif" font-size="14.00">~</text>
<text xml:space="preserve" text-anchor="middle" x="1250.01" y="-388.33" font-family="Times,serif" font-size="14.00">Normal</text>
</g>
<!-- 1|edu_offset&#45;&gt;1|edu -->
<g id="edge6" class="edge">
<title>1|edu_offset&#45;&gt;1|edu</title>
<path fill="none" stroke="black" d="M1250.01,-368.88C1250.01,-357.17 1250.01,-344.38 1250.01,-332.73"/>
<polygon fill="black" stroke="black" points="1253.51,-333.04 1250.01,-323.04 1246.51,-333.04 1253.51,-333.04"/>
</g>
<!-- 1|male&amp;eth&#45;&gt;p -->
<g id="edge19" class="edge">
<title>1|male&amp;eth&#45;&gt;p</title>
<path fill="none" stroke="black" d="M1497.67,-276.48C1453.21,-262.36 1383.22,-241.88 1321.01,-231.32 1119.2,-197.04 875.44,-189.57 766.91,-187.98"/>
<polygon fill="black" stroke="black" points="767.16,-184.48 757.11,-187.85 767.06,-191.48 767.16,-184.48"/>
</g>
<!-- 1|male&amp;eth_offset -->
<g id="node17" class="node">
<title>1|male&amp;eth_offset</title>
<ellipse fill="none" stroke="black" cx="1543.01" cy="-409.88" rx="78.14" ry="40.66"/>
<text xml:space="preserve" text-anchor="middle" x="1543.01" y="-421.33" font-family="Times,serif" font-size="14.00">1|male:eth_offset</text>
<text xml:space="preserve" text-anchor="middle" x="1543.01" y="-404.83" font-family="Times,serif" font-size="14.00">~</text>
<text xml:space="preserve" text-anchor="middle" x="1543.01" y="-388.33" font-family="Times,serif" font-size="14.00">Normal</text>
</g>
<!-- 1|male&amp;eth_offset&#45;&gt;1|male&amp;eth -->
<g id="edge8" class="edge">
<title>1|male&amp;eth_offset&#45;&gt;1|male&amp;eth</title>
<path fill="none" stroke="black" d="M1543.01,-368.88C1543.01,-357.17 1543.01,-344.38 1543.01,-332.73"/>
<polygon fill="black" stroke="black" points="1546.51,-333.04 1543.01,-323.04 1539.51,-333.04 1546.51,-333.04"/>
</g>
<!-- 1|edu&amp;age&#45;&gt;p -->
<g id="edge13" class="edge">
<title>1|edu&amp;age&#45;&gt;p</title>
<path fill="none" stroke="black" d="M273.6,-263.61C288.02,-251.64 306.27,-238.72 325.01,-231.32 383.36,-208.26 561.07,-195.58 653.23,-190.39"/>
<polygon fill="black" stroke="black" points="653.26,-193.89 663.05,-189.85 652.88,-186.9 653.26,-193.89"/>
</g>
<!-- 1|edu&amp;age_offset -->
<g id="node19" class="node">
<title>1|edu&amp;age_offset</title>
<ellipse fill="none" stroke="black" cx="244.01" cy="-409.88" rx="74.42" ry="40.66"/>
<text xml:space="preserve" text-anchor="middle" x="244.01" y="-421.33" font-family="Times,serif" font-size="14.00">1|edu:age_offset</text>
<text xml:space="preserve" text-anchor="middle" x="244.01" y="-404.83" font-family="Times,serif" font-size="14.00">~</text>
<text xml:space="preserve" text-anchor="middle" x="244.01" y="-388.33" font-family="Times,serif" font-size="14.00">Normal</text>
</g>
<!-- 1|edu&amp;age_offset&#45;&gt;1|edu&amp;age -->
<g id="edge10" class="edge">
<title>1|edu&amp;age_offset&#45;&gt;1|edu&amp;age</title>
<path fill="none" stroke="black" d="M244.01,-368.88C244.01,-357.17 244.01,-344.38 244.01,-332.73"/>
<polygon fill="black" stroke="black" points="247.51,-333.04 244.01,-323.04 240.51,-333.04 247.51,-333.04"/>
</g>
<!-- 1|edu&amp;eth&#45;&gt;p -->
<g id="edge17" class="edge">
<title>1|edu&amp;eth&#45;&gt;p</title>
<path fill="none" stroke="black" d="M1844.53,-278.24C1793.53,-263.92 1708.13,-241.81 1633.01,-231.32 1464.4,-207.76 940.91,-193.19 766.9,-188.9"/>
<polygon fill="black" stroke="black" points="767.07,-185.4 756.98,-188.66 766.9,-192.4 767.07,-185.4"/>
</g>
<!-- 1|edu&amp;eth_offset -->
<g id="node21" class="node">
<title>1|edu&amp;eth_offset</title>
<ellipse fill="none" stroke="black" cx="1890.01" cy="-409.88" rx="72.83" ry="40.66"/>
<text xml:space="preserve" text-anchor="middle" x="1890.01" y="-421.33" font-family="Times,serif" font-size="14.00">1|edu:eth_offset</text>
<text xml:space="preserve" text-anchor="middle" x="1890.01" y="-404.83" font-family="Times,serif" font-size="14.00">~</text>
<text xml:space="preserve" text-anchor="middle" x="1890.01" y="-388.33" font-family="Times,serif" font-size="14.00">Normal</text>
</g>
<!-- 1|edu&amp;eth_offset&#45;&gt;1|edu&amp;eth -->
<g id="edge11" class="edge">
<title>1|edu&amp;eth_offset&#45;&gt;1|edu&amp;eth</title>
<path fill="none" stroke="black" d="M1890.01,-368.88C1890.01,-357.17 1890.01,-344.38 1890.01,-332.73"/>
<polygon fill="black" stroke="black" points="1893.51,-333.04 1890.01,-323.04 1886.51,-333.04 1893.51,-333.04"/>
</g>
<!-- p(abortion, n) -->
<g id="node23" class="node">
<title>p(abortion, n)</title>
<ellipse fill="lightgrey" stroke="black" cx="710.01" cy="-81.16" rx="64.35" ry="40.66"/>
<text xml:space="preserve" text-anchor="middle" x="710.01" y="-92.61" font-family="Times,serif" font-size="14.00">p(abortion, n)</text>
<text xml:space="preserve" text-anchor="middle" x="710.01" y="-76.11" font-family="Times,serif" font-size="14.00">~</text>
<text xml:space="preserve" text-anchor="middle" x="710.01" y="-59.61" font-family="Times,serif" font-size="14.00">Binomial</text>
</g>
<!-- p&#45;&gt;p(abortion, n) -->
<g id="edge22" class="edge">
<title>p&#45;&gt;p(abortion, n)</title>
<path fill="none" stroke="black" d="M710.01,-157.58C710.01,-150.1 710.01,-141.77 710.01,-133.45"/>
<polygon fill="black" stroke="black" points="713.51,-133.71 710.01,-123.71 706.51,-133.71 713.51,-133.71"/>
</g>
</g>
</svg>
