<?xml version="1.0" encoding="UTF-8" standalone="no"?>
<!DOCTYPE svg PUBLIC "-//W3C//DTD SVG 1.1//EN"
 "http://www.w3.org/Graphics/SVG/1.1/DTD/svg11.dtd">
<!-- Generated by graphviz version 2.50.0 (0)
 -->
<!-- Pages: 1 -->
<svg width="2633pt" height="449pt"
 viewBox="0.00 0.00 2632.92 448.88" xmlns="http://www.w3.org/2000/svg" xmlns:xlink="http://www.w3.org/1999/xlink">
<g id="graph0" class="graph" transform="scale(1 1) rotate(0) translate(4 444.88)">
<polygon fill="white" stroke="transparent" points="-4,4 -4,-444.88 2628.92,-444.88 2628.92,4 -4,4"/>
<g id="clust1" class="cluster">
<title>clusterstate__factor_dim (46)</title>
<path fill="none" stroke="black" d="M781.75,-218.95C781.75,-218.95 933.75,-218.95 933.75,-218.95 939.75,-218.95 945.75,-224.95 945.75,-230.95 945.75,-230.95 945.75,-420.88 945.75,-420.88 945.75,-426.88 939.75,-432.88 933.75,-432.88 933.75,-432.88 781.75,-432.88 781.75,-432.88 775.75,-432.88 769.75,-426.88 769.75,-420.88 769.75,-420.88 769.75,-230.95 769.75,-230.95 769.75,-224.95 775.75,-218.95 781.75,-218.95"/>
<text text-anchor="middle" x="858.25" y="-226.75" font-family="Times,serif" font-size="14.00">state__factor_dim (46)</text>
</g>
<g id="clust2" class="cluster">
<title>clustereth__factor_dim (4)</title>
<path fill="none" stroke="black" d="M1141.75,-218.95C1141.75,-218.95 1275.75,-218.95 1275.75,-218.95 1281.75,-218.95 1287.75,-224.95 1287.75,-230.95 1287.75,-230.95 1287.75,-420.88 1287.75,-420.88 1287.75,-426.88 1281.75,-432.88 1275.75,-432.88 1275.75,-432.88 1141.75,-432.88 1141.75,-432.88 1135.75,-432.88 1129.75,-426.88 1129.75,-420.88 1129.75,-420.88 1129.75,-230.95 1129.75,-230.95 1129.75,-224.95 1135.75,-218.95 1141.75,-218.95"/>
<text text-anchor="middle" x="1211.25" y="-226.75" font-family="Times,serif" font-size="14.00">eth__factor_dim (4)</text>
</g>
<g id="clust3" class="cluster">
<title>clusteredu__factor_dim (5)</title>
<path fill="none" stroke="black" d="M1465.75,-218.95C1465.75,-218.95 1603.75,-218.95 1603.75,-218.95 1609.75,-218.95 1615.75,-224.95 1615.75,-230.95 1615.75,-230.95 1615.75,-420.88 1615.75,-420.88 1615.75,-426.88 1609.75,-432.88 1603.75,-432.88 1603.75,-432.88 1465.75,-432.88 1465.75,-432.88 1459.75,-432.88 1453.75,-426.88 1453.75,-420.88 1453.75,-420.88 1453.75,-230.95 1453.75,-230.95 1453.75,-224.95 1459.75,-218.95 1465.75,-218.95"/>
<text text-anchor="middle" x="1537.75" y="-226.75" font-family="Times,serif" font-size="14.00">edu__factor_dim (5)</text>
</g>
<g id="clust4" class="cluster">
<title>clustermale:eth__factor_dim (8)</title>
<path fill="none" stroke="black" d="M1797.75,-218.95C1797.75,-218.95 1985.75,-218.95 1985.75,-218.95 1991.75,-218.95 1997.75,-224.95 1997.75,-230.95 1997.75,-230.95 1997.75,-420.88 1997.75,-420.88 1997.75,-426.88 1991.75,-432.88 1985.75,-432.88 1985.75,-432.88 1797.75,-432.88 1797.75,-432.88 1791.75,-432.88 1785.75,-426.88 1785.75,-420.88 1785.75,-420.88 1785.75,-230.95 1785.75,-230.95 1785.75,-224.95 1791.75,-218.95 1797.75,-218.95"/>
<text text-anchor="middle" x="1901.75" y="-226.75" font-family="Times,serif" font-size="14.00">male:eth__factor_dim (8)</text>
</g>
<g id="clust5" class="cluster">
<title>clusteredu:age__factor_dim (30)</title>
<path fill="none" stroke="black" d="M2230.75,-218.95C2230.75,-218.95 2410.75,-218.95 2410.75,-218.95 2416.75,-218.95 2422.75,-224.95 2422.75,-230.95 2422.75,-230.95 2422.75,-420.88 2422.75,-420.88 2422.75,-426.88 2416.75,-432.88 2410.75,-432.88 2410.75,-432.88 2230.75,-432.88 2230.75,-432.88 2224.75,-432.88 2218.75,-426.88 2218.75,-420.88 2218.75,-420.88 2218.75,-230.95 2218.75,-230.95 2218.75,-224.95 2224.75,-218.95 2230.75,-218.95"/>
<text text-anchor="middle" x="2325.25" y="-226.75" font-family="Times,serif" font-size="14.00">edu:age__factor_dim (30)</text>
</g>
<g id="clust6" class="cluster">
<title>clusteredu:eth__factor_dim (20)</title>
<path fill="none" stroke="black" d="M210.75,-218.95C210.75,-218.95 388.75,-218.95 388.75,-218.95 394.75,-218.95 400.75,-224.95 400.75,-230.95 400.75,-230.95 400.75,-420.88 400.75,-420.88 400.75,-426.88 394.75,-432.88 388.75,-432.88 388.75,-432.88 210.75,-432.88 210.75,-432.88 204.75,-432.88 198.75,-426.88 198.75,-420.88 198.75,-420.88 198.75,-230.95 198.75,-230.95 198.75,-224.95 204.75,-218.95 210.75,-218.95"/>
<text text-anchor="middle" x="304.25" y="-226.75" font-family="Times,serif" font-size="14.00">edu:eth__factor_dim (20)</text>
</g>
<g id="clust7" class="cluster">
<title>cluster__obs__ (11040)</title>
<path fill="none" stroke="black" d="M791.75,-8C791.75,-8 945.75,-8 945.75,-8 951.75,-8 957.75,-14 957.75,-20 957.75,-20 957.75,-198.95 957.75,-198.95 957.75,-204.95 951.75,-210.95 945.75,-210.95 945.75,-210.95 791.75,-210.95 791.75,-210.95 785.75,-210.95 779.75,-204.95 779.75,-198.95 779.75,-198.95 779.75,-20 779.75,-20 779.75,-14 785.75,-8 791.75,-8"/>
<text text-anchor="middle" x="893.75" y="-15.8" font-family="Times,serif" font-size="14.00">__obs__ (11040)</text>
</g>
<!-- 1|edu&amp;eth_sigma -->
<g id="node1" class="node">
<title>1|edu&amp;eth_sigma</title>
<ellipse fill="none" stroke="black" cx="94.75" cy="-387.41" rx="94.51" ry="37.45"/>
<text text-anchor="middle" x="94.75" y="-398.71" font-family="Times,serif" font-size="14.00">1|edu:eth_sigma</text>
<text text-anchor="middle" x="94.75" y="-383.71" font-family="Times,serif" font-size="14.00">~</text>
<text text-anchor="middle" x="94.75" y="-368.71" font-family="Times,serif" font-size="14.00">HalfNormal</text>
</g>
<!-- 1|edu&amp;eth -->
<g id="node20" class="node">
<title>1|edu&amp;eth</title>
<polygon fill="none" stroke="black" points="356.75,-302.95 242.75,-302.95 242.75,-249.95 356.75,-249.95 356.75,-302.95"/>
<text text-anchor="middle" x="299.75" y="-287.75" font-family="Times,serif" font-size="14.00">1|edu:eth</text>
<text text-anchor="middle" x="299.75" y="-272.75" font-family="Times,serif" font-size="14.00">~</text>
<text text-anchor="middle" x="299.75" y="-257.75" font-family="Times,serif" font-size="14.00">Deterministic</text>
</g>
<!-- 1|edu&amp;eth_sigma&#45;&gt;1|edu&amp;eth -->
<g id="edge11" class="edge">
<title>1|edu&amp;eth_sigma&#45;&gt;1|edu&amp;eth</title>
<path fill="none" stroke="black" d="M150.23,-356.92C178.8,-341.74 213.59,-323.25 242.42,-307.93"/>
<polygon fill="black" stroke="black" points="244.37,-310.85 251.55,-303.07 241.08,-304.67 244.37,-310.85"/>
</g>
<!-- 1|male&amp;eth_sigma -->
<g id="node2" class="node">
<title>1|male&amp;eth_sigma</title>
<ellipse fill="none" stroke="black" cx="2108.75" cy="-387.41" rx="100.32" ry="37.45"/>
<text text-anchor="middle" x="2108.75" y="-398.71" font-family="Times,serif" font-size="14.00">1|male:eth_sigma</text>
<text text-anchor="middle" x="2108.75" y="-383.71" font-family="Times,serif" font-size="14.00">~</text>
<text text-anchor="middle" x="2108.75" y="-368.71" font-family="Times,serif" font-size="14.00">HalfNormal</text>
</g>
<!-- 1|male&amp;eth -->
<g id="node16" class="node">
<title>1|male&amp;eth</title>
<polygon fill="none" stroke="black" points="1948.75,-302.95 1834.75,-302.95 1834.75,-249.95 1948.75,-249.95 1948.75,-302.95"/>
<text text-anchor="middle" x="1891.75" y="-287.75" font-family="Times,serif" font-size="14.00">1|male:eth</text>
<text text-anchor="middle" x="1891.75" y="-272.75" font-family="Times,serif" font-size="14.00">~</text>
<text text-anchor="middle" x="1891.75" y="-257.75" font-family="Times,serif" font-size="14.00">Deterministic</text>
</g>
<!-- 1|male&amp;eth_sigma&#45;&gt;1|male&amp;eth -->
<g id="edge7" class="edge">
<title>1|male&amp;eth_sigma&#45;&gt;1|male&amp;eth</title>
<path fill="none" stroke="black" d="M2050.03,-356.92C2019.66,-341.67 1982.64,-323.09 1952.05,-307.73"/>
<polygon fill="black" stroke="black" points="1953.28,-304.43 1942.77,-303.07 1950.14,-310.68 1953.28,-304.43"/>
</g>
<!-- 1|edu&amp;age_sigma -->
<g id="node3" class="node">
<title>1|edu&amp;age_sigma</title>
<ellipse fill="none" stroke="black" cx="2528.75" cy="-387.41" rx="96.33" ry="37.45"/>
<text text-anchor="middle" x="2528.75" y="-398.71" font-family="Times,serif" font-size="14.00">1|edu:age_sigma</text>
<text text-anchor="middle" x="2528.75" y="-383.71" font-family="Times,serif" font-size="14.00">~</text>
<text text-anchor="middle" x="2528.75" y="-368.71" font-family="Times,serif" font-size="14.00">HalfNormal</text>
</g>
<!-- 1|edu&amp;age -->
<g id="node18" class="node">
<title>1|edu&amp;age</title>
<polygon fill="none" stroke="black" points="2377.75,-302.95 2263.75,-302.95 2263.75,-249.95 2377.75,-249.95 2377.75,-302.95"/>
<text text-anchor="middle" x="2320.75" y="-287.75" font-family="Times,serif" font-size="14.00">1|edu:age</text>
<text text-anchor="middle" x="2320.75" y="-272.75" font-family="Times,serif" font-size="14.00">~</text>
<text text-anchor="middle" x="2320.75" y="-257.75" font-family="Times,serif" font-size="14.00">Deterministic</text>
</g>
<!-- 1|edu&amp;age_sigma&#45;&gt;1|edu&amp;age -->
<g id="edge10" class="edge">
<title>1|edu&amp;age_sigma&#45;&gt;1|edu&amp;age</title>
<path fill="none" stroke="black" d="M2472.46,-356.92C2443.35,-341.67 2407.87,-323.09 2378.55,-307.73"/>
<polygon fill="black" stroke="black" points="2380.14,-304.61 2369.66,-303.07 2376.89,-310.81 2380.14,-304.61"/>
</g>
<!-- Intercept -->
<g id="node4" class="node">
<title>Intercept</title>
<ellipse fill="none" stroke="black" cx="467.75" cy="-276.45" rx="58.88" ry="37.45"/>
<text text-anchor="middle" x="467.75" y="-287.75" font-family="Times,serif" font-size="14.00">Intercept</text>
<text text-anchor="middle" x="467.75" y="-272.75" font-family="Times,serif" font-size="14.00">~</text>
<text text-anchor="middle" x="467.75" y="-257.75" font-family="Times,serif" font-size="14.00">Normal</text>
</g>
<!-- p -->
<g id="node22" class="node">
<title>p</title>
<polygon fill="none" stroke="black" points="925.75,-202.95 811.75,-202.95 811.75,-149.95 925.75,-149.95 925.75,-202.95"/>
<text text-anchor="middle" x="868.75" y="-187.75" font-family="Times,serif" font-size="14.00">p</text>
<text text-anchor="middle" x="868.75" y="-172.75" font-family="Times,serif" font-size="14.00">~</text>
<text text-anchor="middle" x="868.75" y="-157.75" font-family="Times,serif" font-size="14.00">Deterministic</text>
</g>
<!-- Intercept&#45;&gt;p -->
<g id="edge14" class="edge">
<title>Intercept&#45;&gt;p</title>
<path fill="none" stroke="black" d="M498.05,-243.99C509.02,-234.41 522.09,-224.87 535.75,-218.95 582.07,-198.9 718.24,-186.98 801.41,-181.37"/>
<polygon fill="black" stroke="black" points="801.79,-184.85 811.53,-180.7 801.33,-177.87 801.79,-184.85"/>
</g>
<!-- repvote -->
<g id="node5" class="node">
<title>repvote</title>
<ellipse fill="none" stroke="black" cx="594.75" cy="-276.45" rx="50.41" ry="37.45"/>
<text text-anchor="middle" x="594.75" y="-287.75" font-family="Times,serif" font-size="14.00">repvote</text>
<text text-anchor="middle" x="594.75" y="-272.75" font-family="Times,serif" font-size="14.00">~</text>
<text text-anchor="middle" x="594.75" y="-257.75" font-family="Times,serif" font-size="14.00">Normal</text>
</g>
<!-- repvote&#45;&gt;p -->
<g id="edge15" class="edge">
<title>repvote&#45;&gt;p</title>
<path fill="none" stroke="black" d="M621.14,-244.46C630.79,-234.93 642.4,-225.28 654.75,-218.95 700.37,-195.58 757.63,-185.32 801.43,-180.85"/>
<polygon fill="black" stroke="black" points="801.79,-184.33 811.41,-179.9 801.13,-177.36 801.79,-184.33"/>
</g>
<!-- 1|eth_sigma -->
<g id="node6" class="node">
<title>1|eth_sigma</title>
<ellipse fill="none" stroke="black" cx="1370.75" cy="-387.41" rx="72.66" ry="37.45"/>
<text text-anchor="middle" x="1370.75" y="-398.71" font-family="Times,serif" font-size="14.00">1|eth_sigma</text>
<text text-anchor="middle" x="1370.75" y="-383.71" font-family="Times,serif" font-size="14.00">~</text>
<text text-anchor="middle" x="1370.75" y="-368.71" font-family="Times,serif" font-size="14.00">HalfNormal</text>
</g>
<!-- 1|eth -->
<g id="node13" class="node">
<title>1|eth</title>
<polygon fill="none" stroke="black" points="1265.75,-302.95 1151.75,-302.95 1151.75,-249.95 1265.75,-249.95 1265.75,-302.95"/>
<text text-anchor="middle" x="1208.75" y="-287.75" font-family="Times,serif" font-size="14.00">1|eth</text>
<text text-anchor="middle" x="1208.75" y="-272.75" font-family="Times,serif" font-size="14.00">~</text>
<text text-anchor="middle" x="1208.75" y="-257.75" font-family="Times,serif" font-size="14.00">Deterministic</text>
</g>
<!-- 1|eth_sigma&#45;&gt;1|eth -->
<g id="edge4" class="edge">
<title>1|eth_sigma&#45;&gt;1|eth</title>
<path fill="none" stroke="black" d="M1327.34,-357.21C1305.07,-342.23 1277.92,-323.97 1255.23,-308.71"/>
<polygon fill="black" stroke="black" points="1257.02,-305.7 1246.77,-303.02 1253.11,-311.5 1257.02,-305.7"/>
</g>
<!-- male -->
<g id="node7" class="node">
<title>male</title>
<ellipse fill="none" stroke="black" cx="712.75" cy="-276.45" rx="49.49" ry="37.45"/>
<text text-anchor="middle" x="712.75" y="-287.75" font-family="Times,serif" font-size="14.00">male</text>
<text text-anchor="middle" x="712.75" y="-272.75" font-family="Times,serif" font-size="14.00">~</text>
<text text-anchor="middle" x="712.75" y="-257.75" font-family="Times,serif" font-size="14.00">Normal</text>
</g>
<!-- male&#45;&gt;p -->
<g id="edge20" class="edge">
<title>male&#45;&gt;p</title>
<path fill="none" stroke="black" d="M737.84,-243.91C746.04,-235 755.65,-225.87 765.75,-218.95 776.85,-211.36 789.54,-204.83 802.13,-199.34"/>
<polygon fill="black" stroke="black" points="803.83,-202.42 811.72,-195.34 801.14,-195.96 803.83,-202.42"/>
</g>
<!-- 1|state_sigma -->
<g id="node8" class="node">
<title>1|state_sigma</title>
<ellipse fill="none" stroke="black" cx="1037.75" cy="-387.41" rx="82.05" ry="37.45"/>
<text text-anchor="middle" x="1037.75" y="-398.71" font-family="Times,serif" font-size="14.00">1|state_sigma</text>
<text text-anchor="middle" x="1037.75" y="-383.71" font-family="Times,serif" font-size="14.00">~</text>
<text text-anchor="middle" x="1037.75" y="-368.71" font-family="Times,serif" font-size="14.00">HalfNormal</text>
</g>
<!-- 1|state -->
<g id="node11" class="node">
<title>1|state</title>
<polygon fill="none" stroke="black" points="925.75,-302.95 811.75,-302.95 811.75,-249.95 925.75,-249.95 925.75,-302.95"/>
<text text-anchor="middle" x="868.75" y="-287.75" font-family="Times,serif" font-size="14.00">1|state</text>
<text text-anchor="middle" x="868.75" y="-272.75" font-family="Times,serif" font-size="14.00">~</text>
<text text-anchor="middle" x="868.75" y="-257.75" font-family="Times,serif" font-size="14.00">Deterministic</text>
</g>
<!-- 1|state_sigma&#45;&gt;1|state -->
<g id="edge1" class="edge">
<title>1|state_sigma&#45;&gt;1|state</title>
<path fill="none" stroke="black" d="M991.12,-356.35C968.08,-341.49 940.3,-323.58 917.03,-308.58"/>
<polygon fill="black" stroke="black" points="918.66,-305.46 908.36,-302.99 914.87,-311.35 918.66,-305.46"/>
</g>
<!-- 1|edu_sigma -->
<g id="node9" class="node">
<title>1|edu_sigma</title>
<ellipse fill="none" stroke="black" cx="1700.75" cy="-387.41" rx="74.91" ry="37.45"/>
<text text-anchor="middle" x="1700.75" y="-398.71" font-family="Times,serif" font-size="14.00">1|edu_sigma</text>
<text text-anchor="middle" x="1700.75" y="-383.71" font-family="Times,serif" font-size="14.00">~</text>
<text text-anchor="middle" x="1700.75" y="-368.71" font-family="Times,serif" font-size="14.00">HalfNormal</text>
</g>
<!-- 1|edu -->
<g id="node15" class="node">
<title>1|edu</title>
<polygon fill="none" stroke="black" points="1591.75,-302.95 1477.75,-302.95 1477.75,-249.95 1591.75,-249.95 1591.75,-302.95"/>
<text text-anchor="middle" x="1534.75" y="-287.75" font-family="Times,serif" font-size="14.00">1|edu</text>
<text text-anchor="middle" x="1534.75" y="-272.75" font-family="Times,serif" font-size="14.00">~</text>
<text text-anchor="middle" x="1534.75" y="-257.75" font-family="Times,serif" font-size="14.00">Deterministic</text>
</g>
<!-- 1|edu_sigma&#45;&gt;1|edu -->
<g id="edge6" class="edge">
<title>1|edu_sigma&#45;&gt;1|edu</title>
<path fill="none" stroke="black" d="M1656.27,-357.21C1633.34,-342.16 1605.39,-323.81 1582.07,-308.51"/>
<polygon fill="black" stroke="black" points="1583.99,-305.58 1573.7,-303.02 1580.14,-311.43 1583.99,-305.58"/>
</g>
<!-- 1|state_offset -->
<g id="node10" class="node">
<title>1|state_offset</title>
<ellipse fill="none" stroke="black" cx="857.75" cy="-387.41" rx="79.81" ry="37.45"/>
<text text-anchor="middle" x="857.75" y="-398.71" font-family="Times,serif" font-size="14.00">1|state_offset</text>
<text text-anchor="middle" x="857.75" y="-383.71" font-family="Times,serif" font-size="14.00">~</text>
<text text-anchor="middle" x="857.75" y="-368.71" font-family="Times,serif" font-size="14.00">Normal</text>
</g>
<!-- 1|state_offset&#45;&gt;1|state -->
<g id="edge2" class="edge">
<title>1|state_offset&#45;&gt;1|state</title>
<path fill="none" stroke="black" d="M861.45,-349.82C862.63,-338.09 863.94,-325.1 865.12,-313.41"/>
<polygon fill="black" stroke="black" points="868.64,-313.41 866.16,-303.11 861.68,-312.7 868.64,-313.41"/>
</g>
<!-- 1|state&#45;&gt;p -->
<g id="edge17" class="edge">
<title>1|state&#45;&gt;p</title>
<path fill="none" stroke="black" d="M868.75,-249.7C868.75,-238.56 868.75,-225.34 868.75,-213.26"/>
<polygon fill="black" stroke="black" points="872.25,-213.03 868.75,-203.03 865.25,-213.03 872.25,-213.03"/>
</g>
<!-- 1|eth_offset -->
<g id="node12" class="node">
<title>1|eth_offset</title>
<ellipse fill="none" stroke="black" cx="1208.75" cy="-387.41" rx="70.92" ry="37.45"/>
<text text-anchor="middle" x="1208.75" y="-398.71" font-family="Times,serif" font-size="14.00">1|eth_offset</text>
<text text-anchor="middle" x="1208.75" y="-383.71" font-family="Times,serif" font-size="14.00">~</text>
<text text-anchor="middle" x="1208.75" y="-368.71" font-family="Times,serif" font-size="14.00">Normal</text>
</g>
<!-- 1|eth_offset&#45;&gt;1|eth -->
<g id="edge3" class="edge">
<title>1|eth_offset&#45;&gt;1|eth</title>
<path fill="none" stroke="black" d="M1208.75,-349.82C1208.75,-338.09 1208.75,-325.1 1208.75,-313.41"/>
<polygon fill="black" stroke="black" points="1212.25,-313.11 1208.75,-303.11 1205.25,-313.11 1212.25,-313.11"/>
</g>
<!-- 1|eth&#45;&gt;p -->
<g id="edge21" class="edge">
<title>1|eth&#45;&gt;p</title>
<path fill="none" stroke="black" d="M1151.46,-258.94C1091.91,-241.77 998.77,-214.93 935.83,-196.79"/>
<polygon fill="black" stroke="black" points="936.57,-193.36 926,-193.95 934.63,-200.09 936.57,-193.36"/>
</g>
<!-- 1|edu_offset -->
<g id="node14" class="node">
<title>1|edu_offset</title>
<ellipse fill="none" stroke="black" cx="1534.75" cy="-387.41" rx="72.66" ry="37.45"/>
<text text-anchor="middle" x="1534.75" y="-398.71" font-family="Times,serif" font-size="14.00">1|edu_offset</text>
<text text-anchor="middle" x="1534.75" y="-383.71" font-family="Times,serif" font-size="14.00">~</text>
<text text-anchor="middle" x="1534.75" y="-368.71" font-family="Times,serif" font-size="14.00">Normal</text>
</g>
<!-- 1|edu_offset&#45;&gt;1|edu -->
<g id="edge5" class="edge">
<title>1|edu_offset&#45;&gt;1|edu</title>
<path fill="none" stroke="black" d="M1534.75,-349.82C1534.75,-338.09 1534.75,-325.1 1534.75,-313.41"/>
<polygon fill="black" stroke="black" points="1538.25,-313.11 1534.75,-303.11 1531.25,-313.11 1538.25,-313.11"/>
</g>
<!-- 1|edu&#45;&gt;p -->
<g id="edge13" class="edge">
<title>1|edu&#45;&gt;p</title>
<path fill="none" stroke="black" d="M1477.73,-259.97C1428.75,-247.21 1356.07,-229.54 1291.75,-218.95 1166.99,-198.42 1019.73,-186.78 935.99,-181.33"/>
<polygon fill="black" stroke="black" points="936.05,-177.83 925.85,-180.68 935.6,-184.81 936.05,-177.83"/>
</g>
<!-- 1|male&amp;eth&#45;&gt;p -->
<g id="edge16" class="edge">
<title>1|male&amp;eth&#45;&gt;p</title>
<path fill="none" stroke="black" d="M1834.6,-260.98C1779.86,-247.74 1694.72,-228.75 1619.75,-218.95 1369.2,-186.2 1068.32,-179.25 936.36,-177.81"/>
<polygon fill="black" stroke="black" points="936.06,-174.31 926.02,-177.7 935.98,-181.31 936.06,-174.31"/>
</g>
<!-- 1|male&amp;eth_offset -->
<g id="node17" class="node">
<title>1|male&amp;eth_offset</title>
<ellipse fill="none" stroke="black" cx="1891.75" cy="-387.41" rx="98.08" ry="37.45"/>
<text text-anchor="middle" x="1891.75" y="-398.71" font-family="Times,serif" font-size="14.00">1|male:eth_offset</text>
<text text-anchor="middle" x="1891.75" y="-383.71" font-family="Times,serif" font-size="14.00">~</text>
<text text-anchor="middle" x="1891.75" y="-368.71" font-family="Times,serif" font-size="14.00">Normal</text>
</g>
<!-- 1|male&amp;eth_offset&#45;&gt;1|male&amp;eth -->
<g id="edge8" class="edge">
<title>1|male&amp;eth_offset&#45;&gt;1|male&amp;eth</title>
<path fill="none" stroke="black" d="M1891.75,-349.82C1891.75,-338.09 1891.75,-325.1 1891.75,-313.41"/>
<polygon fill="black" stroke="black" points="1895.25,-313.11 1891.75,-303.11 1888.25,-313.11 1895.25,-313.11"/>
</g>
<!-- 1|edu&amp;age&#45;&gt;p -->
<g id="edge19" class="edge">
<title>1|edu&amp;age&#45;&gt;p</title>
<path fill="none" stroke="black" d="M2263.47,-262.83C2199.88,-249.4 2094.03,-228.77 2001.75,-218.95 1793.27,-196.78 1147.2,-182.77 936.18,-178.69"/>
<polygon fill="black" stroke="black" points="935.94,-175.19 925.87,-178.5 935.8,-182.19 935.94,-175.19"/>
</g>
<!-- 1|edu&amp;age_offset -->
<g id="node19" class="node">
<title>1|edu&amp;age_offset</title>
<ellipse fill="none" stroke="black" cx="2320.75" cy="-387.41" rx="94.09" ry="37.45"/>
<text text-anchor="middle" x="2320.75" y="-398.71" font-family="Times,serif" font-size="14.00">1|edu:age_offset</text>
<text text-anchor="middle" x="2320.75" y="-383.71" font-family="Times,serif" font-size="14.00">~</text>
<text text-anchor="middle" x="2320.75" y="-368.71" font-family="Times,serif" font-size="14.00">Normal</text>
</g>
<!-- 1|edu&amp;age_offset&#45;&gt;1|edu&amp;age -->
<g id="edge9" class="edge">
<title>1|edu&amp;age_offset&#45;&gt;1|edu&amp;age</title>
<path fill="none" stroke="black" d="M2320.75,-349.82C2320.75,-338.09 2320.75,-325.1 2320.75,-313.41"/>
<polygon fill="black" stroke="black" points="2324.25,-313.11 2320.75,-303.11 2317.25,-313.11 2324.25,-313.11"/>
</g>
<!-- 1|edu&amp;eth&#45;&gt;p -->
<g id="edge18" class="edge">
<title>1|edu&amp;eth&#45;&gt;p</title>
<path fill="none" stroke="black" d="M336.48,-249.69C354.67,-238.27 377.47,-225.88 399.75,-218.95 472.89,-196.23 690.27,-184.53 801.52,-179.9"/>
<polygon fill="black" stroke="black" points="801.78,-183.39 811.63,-179.49 801.49,-176.4 801.78,-183.39"/>
</g>
<!-- 1|edu&amp;eth_offset -->
<g id="node21" class="node">
<title>1|edu&amp;eth_offset</title>
<ellipse fill="none" stroke="black" cx="299.75" cy="-387.41" rx="92.76" ry="37.45"/>
<text text-anchor="middle" x="299.75" y="-398.71" font-family="Times,serif" font-size="14.00">1|edu:eth_offset</text>
<text text-anchor="middle" x="299.75" y="-383.71" font-family="Times,serif" font-size="14.00">~</text>
<text text-anchor="middle" x="299.75" y="-368.71" font-family="Times,serif" font-size="14.00">Normal</text>
</g>
<!-- 1|edu&amp;eth_offset&#45;&gt;1|edu&amp;eth -->
<g id="edge12" class="edge">
<title>1|edu&amp;eth_offset&#45;&gt;1|edu&amp;eth</title>
<path fill="none" stroke="black" d="M299.75,-349.82C299.75,-338.09 299.75,-325.1 299.75,-313.41"/>
<polygon fill="black" stroke="black" points="303.25,-313.11 299.75,-303.11 296.25,-313.11 303.25,-313.11"/>
</g>
<!-- p(abortion, n) -->
<g id="node23" class="node">
<title>p(abortion, n)</title>
<ellipse fill="lightgrey" stroke="black" cx="868.75" cy="-76.48" rx="80.72" ry="37.45"/>
<text text-anchor="middle" x="868.75" y="-87.78" font-family="Times,serif" font-size="14.00">p(abortion, n)</text>
<text text-anchor="middle" x="868.75" y="-72.78" font-family="Times,serif" font-size="14.00">~</text>
<text text-anchor="middle" x="868.75" y="-57.78" font-family="Times,serif" font-size="14.00">Binomial</text>
</g>
<!-- p&#45;&gt;p(abortion, n) -->
<g id="edge22" class="edge">
<title>p&#45;&gt;p(abortion, n)</title>
<path fill="none" stroke="black" d="M868.75,-149.71C868.75,-141.89 868.75,-133.03 868.75,-124.27"/>
<polygon fill="black" stroke="black" points="872.25,-124.1 868.75,-114.1 865.25,-124.1 872.25,-124.1"/>
</g>
</g>
</svg>
