<?xml version="1.0" encoding="UTF-8" standalone="no"?>
<!DOCTYPE svg PUBLIC "-//W3C//DTD SVG 1.1//EN"
 "http://www.w3.org/Graphics/SVG/1.1/DTD/svg11.dtd">
<!-- Generated by graphviz version 8.1.0 (0)
 -->
<!-- Pages: 1 -->
<svg width="2140pt" height="381pt"
 viewBox="0.00 0.00 2139.68 381.04" xmlns="http://www.w3.org/2000/svg" xmlns:xlink="http://www.w3.org/1999/xlink">
<g id="graph0" class="graph" transform="scale(1 1) rotate(0) translate(4 377.04)">
<polygon fill="white" stroke="none" points="-4,4 -4,-377.04 2135.68,-377.04 2135.68,4 -4,4"/>
<g id="clust1" class="cluster">
<title>clusterstate__factor_dim (46)</title>
<path fill="none" stroke="black" d="M310.25,-137.82C310.25,-137.82 426.25,-137.82 426.25,-137.82 432.25,-137.82 438.25,-143.82 438.25,-149.82 438.25,-149.82 438.25,-353.04 438.25,-353.04 438.25,-359.04 432.25,-365.04 426.25,-365.04 426.25,-365.04 310.25,-365.04 310.25,-365.04 304.25,-365.04 298.25,-359.04 298.25,-353.04 298.25,-353.04 298.25,-149.82 298.25,-149.82 298.25,-143.82 304.25,-137.82 310.25,-137.82"/>
<text text-anchor="middle" x="368" y="-145.02" font-family="Times,serif" font-size="14.00">state__factor_dim (46)</text>
</g>
<g id="clust2" class="cluster">
<title>clustereth__factor_dim (4)</title>
<path fill="none" stroke="black" d="M598.25,-137.82C598.25,-137.82 702.25,-137.82 702.25,-137.82 708.25,-137.82 714.25,-143.82 714.25,-149.82 714.25,-149.82 714.25,-353.04 714.25,-353.04 714.25,-359.04 708.25,-365.04 702.25,-365.04 702.25,-365.04 598.25,-365.04 598.25,-365.04 592.25,-365.04 586.25,-359.04 586.25,-353.04 586.25,-353.04 586.25,-149.82 586.25,-149.82 586.25,-143.82 592.25,-137.82 598.25,-137.82"/>
<text text-anchor="middle" x="651.5" y="-145.02" font-family="Times,serif" font-size="14.00">eth__factor_dim (4)</text>
</g>
<g id="clust3" class="cluster">
<title>clusteredu__factor_dim (5)</title>
<path fill="none" stroke="black" d="M861.25,-137.82C861.25,-137.82 971.25,-137.82 971.25,-137.82 977.25,-137.82 983.25,-143.82 983.25,-149.82 983.25,-149.82 983.25,-353.04 983.25,-353.04 983.25,-359.04 977.25,-365.04 971.25,-365.04 971.25,-365.04 861.25,-365.04 861.25,-365.04 855.25,-365.04 849.25,-359.04 849.25,-353.04 849.25,-353.04 849.25,-149.82 849.25,-149.82 849.25,-143.82 855.25,-137.82 861.25,-137.82"/>
<text text-anchor="middle" x="919" y="-145.02" font-family="Times,serif" font-size="14.00">edu__factor_dim (5)</text>
</g>
<g id="clust4" class="cluster">
<title>clustermale:eth__factor_dim (8)</title>
<path fill="none" stroke="black" d="M1135.25,-137.82C1135.25,-137.82 1283.25,-137.82 1283.25,-137.82 1289.25,-137.82 1295.25,-143.82 1295.25,-149.82 1295.25,-149.82 1295.25,-353.04 1295.25,-353.04 1295.25,-359.04 1289.25,-365.04 1283.25,-365.04 1283.25,-365.04 1135.25,-365.04 1135.25,-365.04 1129.25,-365.04 1123.25,-359.04 1123.25,-353.04 1123.25,-353.04 1123.25,-149.82 1123.25,-149.82 1123.25,-143.82 1129.25,-137.82 1135.25,-137.82"/>
<text text-anchor="middle" x="1217.13" y="-145.02" font-family="Times,serif" font-size="14.00">male:eth__factor_dim (8)</text>
</g>
<g id="clust5" class="cluster">
<title>clusteredu:age__factor_dim (30)</title>
<path fill="none" stroke="black" d="M1487.25,-137.82C1487.25,-137.82 1627.25,-137.82 1627.25,-137.82 1633.25,-137.82 1639.25,-143.82 1639.25,-149.82 1639.25,-149.82 1639.25,-353.04 1639.25,-353.04 1639.25,-359.04 1633.25,-365.04 1627.25,-365.04 1627.25,-365.04 1487.25,-365.04 1487.25,-365.04 1481.25,-365.04 1475.25,-359.04 1475.25,-353.04 1475.25,-353.04 1475.25,-149.82 1475.25,-149.82 1475.25,-143.82 1481.25,-137.82 1487.25,-137.82"/>
<text text-anchor="middle" x="1560.38" y="-145.02" font-family="Times,serif" font-size="14.00">edu:age__factor_dim (30)</text>
</g>
<g id="clust6" class="cluster">
<title>clusteredu:eth__factor_dim (20)</title>
<path fill="none" stroke="black" d="M1823.25,-137.82C1823.25,-137.82 1961.25,-137.82 1961.25,-137.82 1967.25,-137.82 1973.25,-143.82 1973.25,-149.82 1973.25,-149.82 1973.25,-353.04 1973.25,-353.04 1973.25,-359.04 1967.25,-365.04 1961.25,-365.04 1961.25,-365.04 1823.25,-365.04 1823.25,-365.04 1817.25,-365.04 1811.25,-359.04 1811.25,-353.04 1811.25,-353.04 1811.25,-149.82 1811.25,-149.82 1811.25,-143.82 1817.25,-137.82 1823.25,-137.82"/>
<text text-anchor="middle" x="1895.5" y="-145.02" font-family="Times,serif" font-size="14.00">edu:eth__factor_dim (20)</text>
</g>
<g id="clust7" class="cluster">
<title>clusterp(abortion, n)_obs (11040)</title>
<path fill="none" stroke="black" d="M586.25,-8C586.25,-8 725.25,-8 725.25,-8 731.25,-8 737.25,-14 737.25,-20 737.25,-20 737.25,-117.82 737.25,-117.82 737.25,-123.82 731.25,-129.82 725.25,-129.82 725.25,-129.82 586.25,-129.82 586.25,-129.82 580.25,-129.82 574.25,-123.82 574.25,-117.82 574.25,-117.82 574.25,-20 574.25,-20 574.25,-14 580.25,-8 586.25,-8"/>
<text text-anchor="middle" x="655.75" y="-15.2" font-family="Times,serif" font-size="14.00">p(abortion, n)_obs (11040)</text>
</g>
<!-- Intercept -->
<g id="node1" class="node">
<title>Intercept</title>
<ellipse fill="none" stroke="black" cx="45.25" cy="-199.07" rx="45.25" ry="40.66"/>
<text text-anchor="middle" x="45.25" y="-210.52" font-family="Times,serif" font-size="14.00">Intercept</text>
<text text-anchor="middle" x="45.25" y="-194.02" font-family="Times,serif" font-size="14.00">~</text>
<text text-anchor="middle" x="45.25" y="-177.52" font-family="Times,serif" font-size="14.00">Normal</text>
</g>
<!-- p(abortion, n) -->
<g id="node22" class="node">
<title>p(abortion, n)</title>
<ellipse fill="lightgrey" stroke="black" cx="655.25" cy="-81.16" rx="64.35" ry="40.66"/>
<text text-anchor="middle" x="655.25" y="-92.61" font-family="Times,serif" font-size="14.00">p(abortion, n)</text>
<text text-anchor="middle" x="655.25" y="-76.11" font-family="Times,serif" font-size="14.00">~</text>
<text text-anchor="middle" x="655.25" y="-59.61" font-family="Times,serif" font-size="14.00">Binomial</text>
</g>
<!-- Intercept&#45;&gt;p(abortion, n) -->
<g id="edge13" class="edge">
<title>Intercept&#45;&gt;p(abortion, n)</title>
<path fill="none" stroke="black" d="M68.35,-163.72C76.85,-153.71 87.36,-143.86 99.25,-137.82 181.49,-96.05 448.33,-85.62 580.15,-83.02"/>
<polygon fill="black" stroke="black" points="580.01,-86.51 589.94,-82.82 579.88,-79.51 580.01,-86.51"/>
</g>
<!-- repvote -->
<g id="node2" class="node">
<title>repvote</title>
<ellipse fill="none" stroke="black" cx="149.25" cy="-199.07" rx="41.01" ry="40.66"/>
<text text-anchor="middle" x="149.25" y="-210.52" font-family="Times,serif" font-size="14.00">repvote</text>
<text text-anchor="middle" x="149.25" y="-194.02" font-family="Times,serif" font-size="14.00">~</text>
<text text-anchor="middle" x="149.25" y="-177.52" font-family="Times,serif" font-size="14.00">Normal</text>
</g>
<!-- repvote&#45;&gt;p(abortion, n) -->
<g id="edge14" class="edge">
<title>repvote&#45;&gt;p(abortion, n)</title>
<path fill="none" stroke="black" d="M170.26,-163.89C178.11,-153.9 187.92,-144.01 199.25,-137.82 263.1,-102.96 467.51,-89.52 579.73,-84.67"/>
<polygon fill="black" stroke="black" points="579.78,-88.13 589.63,-84.21 579.49,-81.13 579.78,-88.13"/>
</g>
<!-- 1|eth_sigma -->
<g id="node3" class="node">
<title>1|eth_sigma</title>
<ellipse fill="none" stroke="black" cx="782.25" cy="-316.38" rx="57.98" ry="40.66"/>
<text text-anchor="middle" x="782.25" y="-327.83" font-family="Times,serif" font-size="14.00">1|eth_sigma</text>
<text text-anchor="middle" x="782.25" y="-311.33" font-family="Times,serif" font-size="14.00">~</text>
<text text-anchor="middle" x="782.25" y="-294.83" font-family="Times,serif" font-size="14.00">HalfNormal</text>
</g>
<!-- 1|eth -->
<g id="node12" class="node">
<title>1|eth</title>
<polygon fill="none" stroke="black" points="700.38,-227.82 610.13,-227.82 610.13,-170.32 700.38,-170.32 700.38,-227.82"/>
<text text-anchor="middle" x="655.25" y="-210.52" font-family="Times,serif" font-size="14.00">1|eth</text>
<text text-anchor="middle" x="655.25" y="-194.02" font-family="Times,serif" font-size="14.00">~</text>
<text text-anchor="middle" x="655.25" y="-177.52" font-family="Times,serif" font-size="14.00">Deterministic</text>
</g>
<!-- 1|eth_sigma&#45;&gt;1|eth -->
<g id="edge3" class="edge">
<title>1|eth_sigma&#45;&gt;1|eth</title>
<path fill="none" stroke="black" d="M747.22,-283.57C730.81,-268.67 711.21,-250.88 694.33,-235.55"/>
<polygon fill="black" stroke="black" points="697.04,-233.37 687.28,-229.24 692.34,-238.56 697.04,-233.37"/>
</g>
<!-- 1|male&amp;eth_sigma -->
<g id="node4" class="node">
<title>1|male&amp;eth_sigma</title>
<ellipse fill="none" stroke="black" cx="1385.25" cy="-316.38" rx="79.73" ry="40.66"/>
<text text-anchor="middle" x="1385.25" y="-327.83" font-family="Times,serif" font-size="14.00">1|male:eth_sigma</text>
<text text-anchor="middle" x="1385.25" y="-311.33" font-family="Times,serif" font-size="14.00">~</text>
<text text-anchor="middle" x="1385.25" y="-294.83" font-family="Times,serif" font-size="14.00">HalfNormal</text>
</g>
<!-- 1|male&amp;eth -->
<g id="node16" class="node">
<title>1|male&amp;eth</title>
<polygon fill="none" stroke="black" points="1254.38,-227.82 1164.13,-227.82 1164.13,-170.32 1254.38,-170.32 1254.38,-227.82"/>
<text text-anchor="middle" x="1209.25" y="-210.52" font-family="Times,serif" font-size="14.00">1|male:eth</text>
<text text-anchor="middle" x="1209.25" y="-194.02" font-family="Times,serif" font-size="14.00">~</text>
<text text-anchor="middle" x="1209.25" y="-177.52" font-family="Times,serif" font-size="14.00">Deterministic</text>
</g>
<!-- 1|male&amp;eth_sigma&#45;&gt;1|male&amp;eth -->
<g id="edge8" class="edge">
<title>1|male&amp;eth_sigma&#45;&gt;1|male&amp;eth</title>
<path fill="none" stroke="black" d="M1337.16,-283.87C1313.61,-268.44 1285.21,-249.84 1261.17,-234.08"/>
<polygon fill="black" stroke="black" points="1263.47,-230.75 1253.18,-228.19 1259.63,-236.6 1263.47,-230.75"/>
</g>
<!-- 1|edu&amp;age_sigma -->
<g id="node5" class="node">
<title>1|edu&amp;age_sigma</title>
<ellipse fill="none" stroke="black" cx="1725.25" cy="-316.38" rx="76.01" ry="40.66"/>
<text text-anchor="middle" x="1725.25" y="-327.83" font-family="Times,serif" font-size="14.00">1|edu:age_sigma</text>
<text text-anchor="middle" x="1725.25" y="-311.33" font-family="Times,serif" font-size="14.00">~</text>
<text text-anchor="middle" x="1725.25" y="-294.83" font-family="Times,serif" font-size="14.00">HalfNormal</text>
</g>
<!-- 1|edu&amp;age -->
<g id="node19" class="node">
<title>1|edu&amp;age</title>
<polygon fill="none" stroke="black" points="1602.38,-227.82 1512.13,-227.82 1512.13,-170.32 1602.38,-170.32 1602.38,-227.82"/>
<text text-anchor="middle" x="1557.25" y="-210.52" font-family="Times,serif" font-size="14.00">1|edu:age</text>
<text text-anchor="middle" x="1557.25" y="-194.02" font-family="Times,serif" font-size="14.00">~</text>
<text text-anchor="middle" x="1557.25" y="-177.52" font-family="Times,serif" font-size="14.00">Deterministic</text>
</g>
<!-- 1|edu&amp;age_sigma&#45;&gt;1|edu&amp;age -->
<g id="edge10" class="edge">
<title>1|edu&amp;age_sigma&#45;&gt;1|edu&amp;age</title>
<path fill="none" stroke="black" d="M1679.35,-283.87C1656.96,-268.51 1630,-250 1607.11,-234.29"/>
<polygon fill="black" stroke="black" points="1609.46,-230.97 1599.23,-228.19 1605.5,-236.74 1609.46,-230.97"/>
</g>
<!-- 1|edu&amp;eth_sigma -->
<g id="node6" class="node">
<title>1|edu&amp;eth_sigma</title>
<ellipse fill="none" stroke="black" cx="2057.25" cy="-316.38" rx="74.42" ry="40.66"/>
<text text-anchor="middle" x="2057.25" y="-327.83" font-family="Times,serif" font-size="14.00">1|edu:eth_sigma</text>
<text text-anchor="middle" x="2057.25" y="-311.33" font-family="Times,serif" font-size="14.00">~</text>
<text text-anchor="middle" x="2057.25" y="-294.83" font-family="Times,serif" font-size="14.00">HalfNormal</text>
</g>
<!-- 1|edu&amp;eth -->
<g id="node21" class="node">
<title>1|edu&amp;eth</title>
<polygon fill="none" stroke="black" points="1937.38,-227.82 1847.13,-227.82 1847.13,-170.32 1937.38,-170.32 1937.38,-227.82"/>
<text text-anchor="middle" x="1892.25" y="-210.52" font-family="Times,serif" font-size="14.00">1|edu:eth</text>
<text text-anchor="middle" x="1892.25" y="-194.02" font-family="Times,serif" font-size="14.00">~</text>
<text text-anchor="middle" x="1892.25" y="-177.52" font-family="Times,serif" font-size="14.00">Deterministic</text>
</g>
<!-- 1|edu&amp;eth_sigma&#45;&gt;1|edu&amp;eth -->
<g id="edge12" class="edge">
<title>1|edu&amp;eth_sigma&#45;&gt;1|edu&amp;eth</title>
<path fill="none" stroke="black" d="M2012.17,-283.87C1990.18,-268.51 1963.7,-250 1941.22,-234.29"/>
<polygon fill="black" stroke="black" points="1943.7,-231.05 1933.5,-228.19 1939.69,-236.79 1943.7,-231.05"/>
</g>
<!-- male -->
<g id="node7" class="node">
<title>male</title>
<ellipse fill="none" stroke="black" cx="249.25" cy="-199.07" rx="41.01" ry="40.66"/>
<text text-anchor="middle" x="249.25" y="-210.52" font-family="Times,serif" font-size="14.00">male</text>
<text text-anchor="middle" x="249.25" y="-194.02" font-family="Times,serif" font-size="14.00">~</text>
<text text-anchor="middle" x="249.25" y="-177.52" font-family="Times,serif" font-size="14.00">Normal</text>
</g>
<!-- male&#45;&gt;p(abortion, n) -->
<g id="edge17" class="edge">
<title>male&#45;&gt;p(abortion, n)</title>
<path fill="none" stroke="black" d="M268.55,-162.87C275.44,-153.32 284.07,-143.94 294.25,-137.82 341.2,-109.61 489.14,-94.13 580.42,-87.04"/>
<polygon fill="black" stroke="black" points="580.55,-90.46 590.26,-86.22 580.02,-83.48 580.55,-90.46"/>
</g>
<!-- 1|edu_sigma -->
<g id="node8" class="node">
<title>1|edu_sigma</title>
<ellipse fill="none" stroke="black" cx="1053.25" cy="-316.38" rx="60.1" ry="40.66"/>
<text text-anchor="middle" x="1053.25" y="-327.83" font-family="Times,serif" font-size="14.00">1|edu_sigma</text>
<text text-anchor="middle" x="1053.25" y="-311.33" font-family="Times,serif" font-size="14.00">~</text>
<text text-anchor="middle" x="1053.25" y="-294.83" font-family="Times,serif" font-size="14.00">HalfNormal</text>
</g>
<!-- 1|edu -->
<g id="node15" class="node">
<title>1|edu</title>
<polygon fill="none" stroke="black" points="961.38,-227.82 871.13,-227.82 871.13,-170.32 961.38,-170.32 961.38,-227.82"/>
<text text-anchor="middle" x="916.25" y="-210.52" font-family="Times,serif" font-size="14.00">1|edu</text>
<text text-anchor="middle" x="916.25" y="-194.02" font-family="Times,serif" font-size="14.00">~</text>
<text text-anchor="middle" x="916.25" y="-177.52" font-family="Times,serif" font-size="14.00">Deterministic</text>
</g>
<!-- 1|edu_sigma&#45;&gt;1|edu -->
<g id="edge6" class="edge">
<title>1|edu_sigma&#45;&gt;1|edu</title>
<path fill="none" stroke="black" d="M1016.18,-284.18C998.18,-269.02 976.47,-250.76 957.9,-235.12"/>
<polygon fill="black" stroke="black" points="960.52,-231.91 950.61,-228.14 956.01,-237.26 960.52,-231.91"/>
</g>
<!-- 1|state_sigma -->
<g id="node9" class="node">
<title>1|state_sigma</title>
<ellipse fill="none" stroke="black" cx="512.25" cy="-316.38" rx="63.82" ry="40.66"/>
<text text-anchor="middle" x="512.25" y="-327.83" font-family="Times,serif" font-size="14.00">1|state_sigma</text>
<text text-anchor="middle" x="512.25" y="-311.33" font-family="Times,serif" font-size="14.00">~</text>
<text text-anchor="middle" x="512.25" y="-294.83" font-family="Times,serif" font-size="14.00">HalfNormal</text>
</g>
<!-- 1|state -->
<g id="node11" class="node">
<title>1|state</title>
<polygon fill="none" stroke="black" points="430.38,-227.82 340.13,-227.82 340.13,-170.32 430.38,-170.32 430.38,-227.82"/>
<text text-anchor="middle" x="385.25" y="-210.52" font-family="Times,serif" font-size="14.00">1|state</text>
<text text-anchor="middle" x="385.25" y="-194.02" font-family="Times,serif" font-size="14.00">~</text>
<text text-anchor="middle" x="385.25" y="-177.52" font-family="Times,serif" font-size="14.00">Deterministic</text>
</g>
<!-- 1|state_sigma&#45;&gt;1|state -->
<g id="edge2" class="edge">
<title>1|state_sigma&#45;&gt;1|state</title>
<path fill="none" stroke="black" d="M476.2,-282.65C459.94,-267.88 440.71,-250.42 424.13,-235.36"/>
<polygon fill="black" stroke="black" points="426.98,-233.32 417.23,-229.19 422.28,-238.5 426.98,-233.32"/>
</g>
<!-- 1|state_offset -->
<g id="node10" class="node">
<title>1|state_offset</title>
<ellipse fill="none" stroke="black" cx="368.25" cy="-316.38" rx="62.23" ry="40.66"/>
<text text-anchor="middle" x="368.25" y="-327.83" font-family="Times,serif" font-size="14.00">1|state_offset</text>
<text text-anchor="middle" x="368.25" y="-311.33" font-family="Times,serif" font-size="14.00">~</text>
<text text-anchor="middle" x="368.25" y="-294.83" font-family="Times,serif" font-size="14.00">Normal</text>
</g>
<!-- 1|state_offset&#45;&gt;1|state -->
<g id="edge1" class="edge">
<title>1|state_offset&#45;&gt;1|state</title>
<path fill="none" stroke="black" d="M374.11,-275.7C375.87,-263.73 377.8,-250.61 379.56,-238.71"/>
<polygon fill="black" stroke="black" points="383.11,-239.59 381.11,-229.18 376.19,-238.57 383.11,-239.59"/>
</g>
<!-- 1|state&#45;&gt;p(abortion, n) -->
<g id="edge18" class="edge">
<title>1|state&#45;&gt;p(abortion, n)</title>
<path fill="none" stroke="black" d="M430.75,-178.54C475.18,-159.46 543.15,-130.28 592.67,-109.03"/>
<polygon fill="black" stroke="black" points="593.81,-111.91 601.62,-104.75 591.05,-105.48 593.81,-111.91"/>
</g>
<!-- 1|eth&#45;&gt;p(abortion, n) -->
<g id="edge19" class="edge">
<title>1|eth&#45;&gt;p(abortion, n)</title>
<path fill="none" stroke="black" d="M655.25,-170.01C655.25,-158.92 655.25,-145.82 655.25,-133.17"/>
<polygon fill="black" stroke="black" points="658.75,-133.23 655.25,-123.23 651.75,-133.23 658.75,-133.23"/>
</g>
<!-- 1|eth_offset -->
<g id="node13" class="node">
<title>1|eth_offset</title>
<ellipse fill="none" stroke="black" cx="650.25" cy="-316.38" rx="56.39" ry="40.66"/>
<text text-anchor="middle" x="650.25" y="-327.83" font-family="Times,serif" font-size="14.00">1|eth_offset</text>
<text text-anchor="middle" x="650.25" y="-311.33" font-family="Times,serif" font-size="14.00">~</text>
<text text-anchor="middle" x="650.25" y="-294.83" font-family="Times,serif" font-size="14.00">Normal</text>
</g>
<!-- 1|eth_offset&#45;&gt;1|eth -->
<g id="edge4" class="edge">
<title>1|eth_offset&#45;&gt;1|eth</title>
<path fill="none" stroke="black" d="M651.99,-275.38C652.5,-263.54 653.06,-250.62 653.57,-238.86"/>
<polygon fill="black" stroke="black" points="657.11,-239.17 654.04,-229.03 650.11,-238.87 657.11,-239.17"/>
</g>
<!-- 1|edu_offset -->
<g id="node14" class="node">
<title>1|edu_offset</title>
<ellipse fill="none" stroke="black" cx="916.25" cy="-316.38" rx="58.51" ry="40.66"/>
<text text-anchor="middle" x="916.25" y="-327.83" font-family="Times,serif" font-size="14.00">1|edu_offset</text>
<text text-anchor="middle" x="916.25" y="-311.33" font-family="Times,serif" font-size="14.00">~</text>
<text text-anchor="middle" x="916.25" y="-294.83" font-family="Times,serif" font-size="14.00">Normal</text>
</g>
<!-- 1|edu_offset&#45;&gt;1|edu -->
<g id="edge5" class="edge">
<title>1|edu_offset&#45;&gt;1|edu</title>
<path fill="none" stroke="black" d="M916.25,-275.38C916.25,-263.54 916.25,-250.62 916.25,-238.86"/>
<polygon fill="black" stroke="black" points="919.75,-239.03 916.25,-229.03 912.75,-239.03 919.75,-239.03"/>
</g>
<!-- 1|edu&#45;&gt;p(abortion, n) -->
<g id="edge15" class="edge">
<title>1|edu&#45;&gt;p(abortion, n)</title>
<path fill="none" stroke="black" d="M870.79,-177.88C828.25,-158.98 764.35,-130.61 717.17,-109.65"/>
<polygon fill="black" stroke="black" points="718.93,-106.16 708.37,-105.3 716.09,-112.56 718.93,-106.16"/>
</g>
<!-- 1|male&amp;eth&#45;&gt;p(abortion, n) -->
<g id="edge20" class="edge">
<title>1|male&amp;eth&#45;&gt;p(abortion, n)</title>
<path fill="none" stroke="black" d="M1163.66,-184.27C1119.01,-171.1 1048.89,-151.31 987.25,-137.82 898.92,-118.48 796.09,-102.18 728.55,-92.32"/>
<polygon fill="black" stroke="black" points="729.42,-88.76 719.02,-90.79 728.42,-95.69 729.42,-88.76"/>
</g>
<!-- 1|male&amp;eth_offset -->
<g id="node17" class="node">
<title>1|male&amp;eth_offset</title>
<ellipse fill="none" stroke="black" cx="1209.25" cy="-316.38" rx="78.14" ry="40.66"/>
<text text-anchor="middle" x="1209.25" y="-327.83" font-family="Times,serif" font-size="14.00">1|male:eth_offset</text>
<text text-anchor="middle" x="1209.25" y="-311.33" font-family="Times,serif" font-size="14.00">~</text>
<text text-anchor="middle" x="1209.25" y="-294.83" font-family="Times,serif" font-size="14.00">Normal</text>
</g>
<!-- 1|male&amp;eth_offset&#45;&gt;1|male&amp;eth -->
<g id="edge7" class="edge">
<title>1|male&amp;eth_offset&#45;&gt;1|male&amp;eth</title>
<path fill="none" stroke="black" d="M1209.25,-275.38C1209.25,-263.54 1209.25,-250.62 1209.25,-238.86"/>
<polygon fill="black" stroke="black" points="1212.75,-239.03 1209.25,-229.03 1205.75,-239.03 1212.75,-239.03"/>
</g>
<!-- 1|edu&amp;age_offset -->
<g id="node18" class="node">
<title>1|edu&amp;age_offset</title>
<ellipse fill="none" stroke="black" cx="1557.25" cy="-316.38" rx="74.42" ry="40.66"/>
<text text-anchor="middle" x="1557.25" y="-327.83" font-family="Times,serif" font-size="14.00">1|edu:age_offset</text>
<text text-anchor="middle" x="1557.25" y="-311.33" font-family="Times,serif" font-size="14.00">~</text>
<text text-anchor="middle" x="1557.25" y="-294.83" font-family="Times,serif" font-size="14.00">Normal</text>
</g>
<!-- 1|edu&amp;age_offset&#45;&gt;1|edu&amp;age -->
<g id="edge9" class="edge">
<title>1|edu&amp;age_offset&#45;&gt;1|edu&amp;age</title>
<path fill="none" stroke="black" d="M1557.25,-275.38C1557.25,-263.54 1557.25,-250.62 1557.25,-238.86"/>
<polygon fill="black" stroke="black" points="1560.75,-239.03 1557.25,-229.03 1553.75,-239.03 1560.75,-239.03"/>
</g>
<!-- 1|edu&amp;age&#45;&gt;p(abortion, n) -->
<g id="edge16" class="edge">
<title>1|edu&amp;age&#45;&gt;p(abortion, n)</title>
<path fill="none" stroke="black" d="M1511.97,-185.41C1460.76,-171.59 1374.66,-149.82 1299.25,-137.82 1095.06,-105.32 851.2,-90.77 730.54,-85.17"/>
<polygon fill="black" stroke="black" points="730.76,-81.63 720.61,-84.67 730.44,-88.62 730.76,-81.63"/>
</g>
<!-- 1|edu&amp;eth_offset -->
<g id="node20" class="node">
<title>1|edu&amp;eth_offset</title>
<ellipse fill="none" stroke="black" cx="1892.25" cy="-316.38" rx="72.83" ry="40.66"/>
<text text-anchor="middle" x="1892.25" y="-327.83" font-family="Times,serif" font-size="14.00">1|edu:eth_offset</text>
<text text-anchor="middle" x="1892.25" y="-311.33" font-family="Times,serif" font-size="14.00">~</text>
<text text-anchor="middle" x="1892.25" y="-294.83" font-family="Times,serif" font-size="14.00">Normal</text>
</g>
<!-- 1|edu&amp;eth_offset&#45;&gt;1|edu&amp;eth -->
<g id="edge11" class="edge">
<title>1|edu&amp;eth_offset&#45;&gt;1|edu&amp;eth</title>
<path fill="none" stroke="black" d="M1892.25,-275.38C1892.25,-263.54 1892.25,-250.62 1892.25,-238.86"/>
<polygon fill="black" stroke="black" points="1895.75,-239.03 1892.25,-229.03 1888.75,-239.03 1895.75,-239.03"/>
</g>
<!-- 1|edu&amp;eth&#45;&gt;p(abortion, n) -->
<g id="edge21" class="edge">
<title>1|edu&amp;eth&#45;&gt;p(abortion, n)</title>
<path fill="none" stroke="black" d="M1846.85,-184.45C1797.31,-170.21 1715.41,-148.49 1643.25,-137.82 1305.25,-87.82 896.12,-81.92 730.38,-81.77"/>
<polygon fill="black" stroke="black" points="730.82,-78.27 720.82,-81.77 730.81,-85.27 730.82,-78.27"/>
</g>
</g>
</svg>
