<?xml version="1.0" encoding="UTF-8" standalone="no"?>
<!DOCTYPE svg PUBLIC "-//W3C//DTD SVG 1.1//EN"
 "http://www.w3.org/Graphics/SVG/1.1/DTD/svg11.dtd">
<!-- Generated by graphviz version 2.42.3 (20191010.1750)
 -->
<!-- Title: %3 Pages: 1 -->
<svg width="796pt" height="382pt"
 viewBox="0.00 0.00 796.00 381.86" xmlns="http://www.w3.org/2000/svg" xmlns:xlink="http://www.w3.org/1999/xlink">
<g id="graph0" class="graph" transform="scale(1 1) rotate(0) translate(4 377.86)">
<title>%3</title>
<polygon fill="white" stroke="transparent" points="-4,4 -4,-377.86 792,-377.86 792,4 -4,4"/>
<g id="clust1" class="cluster">
<title>clusterfloor_coord (2)</title>
<path fill="none" stroke="black" d="M20,-129.95C20,-129.95 96,-129.95 96,-129.95 102,-129.95 108,-135.95 108,-141.95 108,-141.95 108,-231.91 108,-231.91 108,-237.91 102,-243.91 96,-243.91 96,-243.91 20,-243.91 20,-243.91 14,-243.91 8,-237.91 8,-231.91 8,-231.91 8,-141.95 8,-141.95 8,-135.95 14,-129.95 20,-129.95"/>
<text text-anchor="middle" x="58" y="-137.75" font-family="Times,serif" font-size="14.00">floor_coord (2)</text>
</g>
<g id="clust2" class="cluster">
<title>cluster1</title>
<path fill="none" stroke="black" d="M128,-129.95C128,-129.95 204,-129.95 204,-129.95 210,-129.95 216,-135.95 216,-141.95 216,-141.95 216,-231.91 216,-231.91 216,-237.91 210,-243.91 204,-243.91 204,-243.91 128,-243.91 128,-243.91 122,-243.91 116,-237.91 116,-231.91 116,-231.91 116,-141.95 116,-141.95 116,-135.95 122,-129.95 128,-129.95"/>
<text text-anchor="middle" x="204.5" y="-137.75" font-family="Times,serif" font-size="14.00">1</text>
</g>
<g id="clust3" class="cluster">
<title>clusterfloor_coord_group_expr (2)</title>
<path fill="none" stroke="black" d="M604,-251.91C604,-251.91 768,-251.91 768,-251.91 774,-251.91 780,-257.91 780,-263.91 780,-263.91 780,-353.86 780,-353.86 780,-359.86 774,-365.86 768,-365.86 768,-365.86 604,-365.86 604,-365.86 598,-365.86 592,-359.86 592,-353.86 592,-353.86 592,-263.91 592,-263.91 592,-257.91 598,-251.91 604,-251.91"/>
<text text-anchor="middle" x="695.5" y="-259.71" font-family="Times,serif" font-size="14.00">floor_coord_group_expr (2)</text>
</g>
<g id="clust4" class="cluster">
<title>clustercounty_coord_group_factor (85) x floor_coord_group_expr (2)</title>
<path fill="none" stroke="black" d="M236,-140.93C236,-140.93 572,-140.93 572,-140.93 578,-140.93 584,-146.93 584,-152.93 584,-152.93 584,-353.86 584,-353.86 584,-359.86 578,-365.86 572,-365.86 572,-365.86 236,-365.86 236,-365.86 230,-365.86 224,-359.86 224,-353.86 224,-353.86 224,-152.93 224,-152.93 224,-146.93 230,-140.93 236,-140.93"/>
<text text-anchor="middle" x="404" y="-148.73" font-family="Times,serif" font-size="14.00">county_coord_group_factor (85) x floor_coord_group_expr (2)</text>
</g>
<g id="clust5" class="cluster">
<title>cluster919</title>
<path fill="none" stroke="black" d="M239,-8C239,-8 349,-8 349,-8 355,-8 361,-14 361,-20 361,-20 361,-109.95 361,-109.95 361,-115.95 355,-121.95 349,-121.95 349,-121.95 239,-121.95 239,-121.95 233,-121.95 227,-115.95 227,-109.95 227,-109.95 227,-20 227,-20 227,-14 233,-8 239,-8"/>
<text text-anchor="middle" x="342.5" y="-15.8" font-family="Times,serif" font-size="14.00">919</text>
</g>
<!-- floor -->
<g id="node1" class="node">
<title>floor</title>
<ellipse fill="none" stroke="black" cx="58" cy="-198.43" rx="41.94" ry="37.45"/>
<text text-anchor="middle" x="58" y="-209.73" font-family="Times,serif" font-size="14.00">floor</text>
<text text-anchor="middle" x="58" y="-194.73" font-family="Times,serif" font-size="14.00">~</text>
<text text-anchor="middle" x="58" y="-179.73" font-family="Times,serif" font-size="14.00">Normal</text>
</g>
<!-- log_radon -->
<g id="node7" class="node">
<title>log_radon</title>
<ellipse fill="lightgrey" stroke="black" cx="285" cy="-76.48" rx="50.41" ry="37.45"/>
<text text-anchor="middle" x="285" y="-87.78" font-family="Times,serif" font-size="14.00">log_radon</text>
<text text-anchor="middle" x="285" y="-72.78" font-family="Times,serif" font-size="14.00">~</text>
<text text-anchor="middle" x="285" y="-57.78" font-family="Times,serif" font-size="14.00">Normal</text>
</g>
<!-- floor&#45;&gt;log_radon -->
<g id="edge6" class="edge">
<title>floor&#45;&gt;log_radon</title>
<path fill="none" stroke="black" d="M77.57,-165.31C86.66,-152.72 98.46,-139.12 112,-129.95 145.94,-106.97 190.28,-93.78 225.57,-86.37"/>
<polygon fill="black" stroke="black" points="226.62,-89.73 235.74,-84.34 225.25,-82.87 226.62,-89.73"/>
</g>
<!-- log_u -->
<g id="node2" class="node">
<title>log_u</title>
<ellipse fill="none" stroke="black" cx="166" cy="-198.43" rx="41.94" ry="37.45"/>
<text text-anchor="middle" x="166" y="-209.73" font-family="Times,serif" font-size="14.00">log_u</text>
<text text-anchor="middle" x="166" y="-194.73" font-family="Times,serif" font-size="14.00">~</text>
<text text-anchor="middle" x="166" y="-179.73" font-family="Times,serif" font-size="14.00">Normal</text>
</g>
<!-- log_u&#45;&gt;log_radon -->
<g id="edge4" class="edge">
<title>log_u&#45;&gt;log_radon</title>
<path fill="none" stroke="black" d="M188.33,-166.69C197.59,-154.73 208.78,-141.22 220,-129.95 226.69,-123.24 234.2,-116.53 241.67,-110.26"/>
<polygon fill="black" stroke="black" points="244.22,-112.7 249.73,-103.66 239.78,-107.29 244.22,-112.7"/>
</g>
<!-- floor|county_sigma -->
<g id="node3" class="node">
<title>floor|county_sigma</title>
<ellipse fill="none" stroke="black" cx="686" cy="-320.38" rx="86.03" ry="37.45"/>
<text text-anchor="middle" x="686" y="-331.68" font-family="Times,serif" font-size="14.00">floor|county_sigma</text>
<text text-anchor="middle" x="686" y="-316.68" font-family="Times,serif" font-size="14.00">~</text>
<text text-anchor="middle" x="686" y="-301.68" font-family="Times,serif" font-size="14.00">Exponential</text>
</g>
<!-- floor|county -->
<g id="node4" class="node">
<title>floor|county</title>
<polygon fill="none" stroke="black" points="449.5,-224.93 358.5,-224.93 358.5,-171.93 449.5,-171.93 449.5,-224.93"/>
<text text-anchor="middle" x="404" y="-209.73" font-family="Times,serif" font-size="14.00">floor|county</text>
<text text-anchor="middle" x="404" y="-194.73" font-family="Times,serif" font-size="14.00">~</text>
<text text-anchor="middle" x="404" y="-179.73" font-family="Times,serif" font-size="14.00">Deterministic</text>
</g>
<!-- floor|county_sigma&#45;&gt;floor|county -->
<g id="edge1" class="edge">
<title>floor|county_sigma&#45;&gt;floor|county</title>
<path fill="none" stroke="black" d="M645.37,-286.99C628.39,-274.66 607.99,-261.33 588,-251.91 546.94,-232.56 497.28,-218.91 459.91,-210.39"/>
<polygon fill="black" stroke="black" points="460.24,-206.88 449.71,-208.13 458.72,-213.71 460.24,-206.88"/>
</g>
<!-- floor|county&#45;&gt;log_radon -->
<g id="edge5" class="edge">
<title>floor|county&#45;&gt;log_radon</title>
<path fill="none" stroke="black" d="M378.47,-171.7C361.83,-154.92 339.86,-132.78 321.4,-114.17"/>
<polygon fill="black" stroke="black" points="323.78,-111.6 314.26,-106.97 318.81,-116.53 323.78,-111.6"/>
</g>
<!-- floor|county_offset -->
<g id="node5" class="node">
<title>floor|county_offset</title>
<ellipse fill="none" stroke="black" cx="404" cy="-320.38" rx="84.71" ry="37.45"/>
<text text-anchor="middle" x="404" y="-331.68" font-family="Times,serif" font-size="14.00">floor|county_offset</text>
<text text-anchor="middle" x="404" y="-316.68" font-family="Times,serif" font-size="14.00">~</text>
<text text-anchor="middle" x="404" y="-301.68" font-family="Times,serif" font-size="14.00">Normal</text>
</g>
<!-- floor|county_offset&#45;&gt;floor|county -->
<g id="edge2" class="edge">
<title>floor|county_offset&#45;&gt;floor|county</title>
<path fill="none" stroke="black" d="M404,-282.74C404,-267.77 404,-250.51 404,-235.59"/>
<polygon fill="black" stroke="black" points="407.5,-235.2 404,-225.2 400.5,-235.2 407.5,-235.2"/>
</g>
<!-- log_radon_sigma -->
<g id="node6" class="node">
<title>log_radon_sigma</title>
<ellipse fill="none" stroke="black" cx="670" cy="-198.43" rx="78.48" ry="37.45"/>
<text text-anchor="middle" x="670" y="-209.73" font-family="Times,serif" font-size="14.00">log_radon_sigma</text>
<text text-anchor="middle" x="670" y="-194.73" font-family="Times,serif" font-size="14.00">~</text>
<text text-anchor="middle" x="670" y="-179.73" font-family="Times,serif" font-size="14.00">Exponential</text>
</g>
<!-- log_radon_sigma&#45;&gt;log_radon -->
<g id="edge3" class="edge">
<title>log_radon_sigma&#45;&gt;log_radon</title>
<path fill="none" stroke="black" d="M637.62,-164.17C623.52,-151.56 606.1,-138.25 588,-129.95 509.28,-93.85 408.66,-82.43 345.5,-78.91"/>
<polygon fill="black" stroke="black" points="345.48,-75.4 335.31,-78.39 345.12,-82.39 345.48,-75.4"/>
</g>
<!-- log_radon&#45;&gt;log_radon -->
<g id="edge7" class="edge">
<title>log_radon&#45;&gt;log_radon</title>
<path fill="none" stroke="black" d="M325.27,-98.91C340.56,-99.77 353.2,-92.3 353.2,-76.48 353.2,-64.36 345.79,-57.14 335.46,-54.81"/>
<polygon fill="black" stroke="black" points="335.51,-51.3 325.27,-54.04 334.98,-58.28 335.51,-51.3"/>
</g>
</g>
</svg>
