<?xml version="1.0" encoding="UTF-8" standalone="no"?>
<!DOCTYPE svg PUBLIC "-//W3C//DTD SVG 1.1//EN"
 "http://www.w3.org/Graphics/SVG/1.1/DTD/svg11.dtd">
<!-- Generated by graphviz version 2.42.3 (20191010.1750)
 -->
<!-- Title: %3 Pages: 1 -->
<svg width="485pt" height="355pt"
 viewBox="0.00 0.00 484.96 354.86" xmlns="http://www.w3.org/2000/svg" xmlns:xlink="http://www.w3.org/1999/xlink">
<g id="graph0" class="graph" transform="scale(1 1) rotate(0) translate(4 350.86)">
<title>%3</title>
<polygon fill="white" stroke="transparent" points="-4,4 -4,-350.86 480.96,-350.86 480.96,4 -4,4"/>
<g id="clust1" class="cluster">
<title>clustercounty_coord_group_factor (85)</title>
<path fill="none" stroke="black" d="M286.96,-129.95C286.96,-129.95 456.96,-129.95 456.96,-129.95 462.96,-129.95 468.96,-135.95 468.96,-141.95 468.96,-141.95 468.96,-231.91 468.96,-231.91 468.96,-237.91 462.96,-243.91 456.96,-243.91 456.96,-243.91 286.96,-243.91 286.96,-243.91 280.96,-243.91 274.96,-237.91 274.96,-231.91 274.96,-231.91 274.96,-141.95 274.96,-141.95 274.96,-135.95 280.96,-129.95 286.96,-129.95"/>
<text text-anchor="middle" x="371.96" y="-137.75" font-family="Times,serif" font-size="14.00">county_coord_group_factor (85)</text>
</g>
<g id="clust2" class="cluster">
<title>cluster919</title>
<path fill="none" stroke="black" d="M141.96,-8C141.96,-8 251.96,-8 251.96,-8 257.96,-8 263.96,-14 263.96,-20 263.96,-20 263.96,-109.95 263.96,-109.95 263.96,-115.95 257.96,-121.95 251.96,-121.95 251.96,-121.95 141.96,-121.95 141.96,-121.95 135.96,-121.95 129.96,-115.95 129.96,-109.95 129.96,-109.95 129.96,-20 129.96,-20 129.96,-14 135.96,-8 141.96,-8"/>
<text text-anchor="middle" x="245.46" y="-15.8" font-family="Times,serif" font-size="14.00">919</text>
</g>
<!-- Intercept -->
<g id="node1" class="node">
<title>Intercept</title>
<ellipse fill="none" stroke="black" cx="45.96" cy="-198.43" rx="45.92" ry="37.45"/>
<text text-anchor="middle" x="45.96" y="-209.73" font-family="Times,serif" font-size="14.00">Intercept</text>
<text text-anchor="middle" x="45.96" y="-194.73" font-family="Times,serif" font-size="14.00">~</text>
<text text-anchor="middle" x="45.96" y="-179.73" font-family="Times,serif" font-size="14.00">Normal</text>
</g>
<!-- log_radon -->
<g id="node5" class="node">
<title>log_radon</title>
<ellipse fill="lightgrey" stroke="black" cx="187.96" cy="-76.48" rx="50.41" ry="37.45"/>
<text text-anchor="middle" x="187.96" y="-87.78" font-family="Times,serif" font-size="14.00">log_radon</text>
<text text-anchor="middle" x="187.96" y="-72.78" font-family="Times,serif" font-size="14.00">~</text>
<text text-anchor="middle" x="187.96" y="-57.78" font-family="Times,serif" font-size="14.00">Normal</text>
</g>
<!-- Intercept&#45;&gt;log_radon -->
<g id="edge5" class="edge">
<title>Intercept&#45;&gt;log_radon</title>
<path fill="none" stroke="black" d="M68.29,-165.55C77.57,-153.58 88.98,-140.36 100.96,-129.95 112.22,-120.18 125.52,-111.15 138.3,-103.42"/>
<polygon fill="black" stroke="black" points="140.18,-106.38 147.02,-98.29 136.63,-100.34 140.18,-106.38"/>
</g>
<!-- log_radon_sigma -->
<g id="node2" class="node">
<title>log_radon_sigma</title>
<ellipse fill="none" stroke="black" cx="187.96" cy="-198.43" rx="78.48" ry="37.45"/>
<text text-anchor="middle" x="187.96" y="-209.73" font-family="Times,serif" font-size="14.00">log_radon_sigma</text>
<text text-anchor="middle" x="187.96" y="-194.73" font-family="Times,serif" font-size="14.00">~</text>
<text text-anchor="middle" x="187.96" y="-179.73" font-family="Times,serif" font-size="14.00">Exponential</text>
</g>
<!-- log_radon_sigma&#45;&gt;log_radon -->
<g id="edge4" class="edge">
<title>log_radon_sigma&#45;&gt;log_radon</title>
<path fill="none" stroke="black" d="M187.96,-160.79C187.96,-149.38 187.96,-136.65 187.96,-124.63"/>
<polygon fill="black" stroke="black" points="191.46,-124.31 187.96,-114.31 184.46,-124.31 191.46,-124.31"/>
</g>
<!-- 1|county_sigma -->
<g id="node3" class="node">
<title>1|county_sigma</title>
<ellipse fill="none" stroke="black" cx="328.96" cy="-309.38" rx="72.66" ry="37.45"/>
<text text-anchor="middle" x="328.96" y="-320.68" font-family="Times,serif" font-size="14.00">1|county_sigma</text>
<text text-anchor="middle" x="328.96" y="-305.68" font-family="Times,serif" font-size="14.00">~</text>
<text text-anchor="middle" x="328.96" y="-290.68" font-family="Times,serif" font-size="14.00">Exponential</text>
</g>
<!-- 1|county -->
<g id="node4" class="node">
<title>1|county</title>
<ellipse fill="none" stroke="black" cx="328.96" cy="-198.43" rx="44.6" ry="37.45"/>
<text text-anchor="middle" x="328.96" y="-209.73" font-family="Times,serif" font-size="14.00">1|county</text>
<text text-anchor="middle" x="328.96" y="-194.73" font-family="Times,serif" font-size="14.00">~</text>
<text text-anchor="middle" x="328.96" y="-179.73" font-family="Times,serif" font-size="14.00">Normal</text>
</g>
<!-- 1|county_sigma&#45;&gt;1|county -->
<g id="edge1" class="edge">
<title>1|county_sigma&#45;&gt;1|county</title>
<path fill="none" stroke="black" d="M328.96,-271.8C328.96,-263.63 328.96,-254.85 328.96,-246.32"/>
<polygon fill="black" stroke="black" points="332.46,-246.1 328.96,-236.1 325.46,-246.1 332.46,-246.1"/>
</g>
<!-- 1|county&#45;&gt;log_radon -->
<g id="edge2" class="edge">
<title>1|county&#45;&gt;log_radon</title>
<path fill="none" stroke="black" d="M307.13,-165.53C298.03,-153.55 286.81,-140.33 274.96,-129.95 263.75,-120.13 250.46,-111.08 237.69,-103.35"/>
<polygon fill="black" stroke="black" points="239.35,-100.27 228.96,-98.22 235.81,-106.31 239.35,-100.27"/>
</g>
<!-- log_radon&#45;&gt;log_radon -->
<g id="edge3" class="edge">
<title>log_radon&#45;&gt;log_radon</title>
<path fill="none" stroke="black" d="M228.23,-98.91C243.52,-99.77 256.17,-92.3 256.17,-76.48 256.17,-64.36 248.75,-57.14 238.42,-54.81"/>
<polygon fill="black" stroke="black" points="238.47,-51.3 228.23,-54.04 237.94,-58.28 238.47,-51.3"/>
</g>
</g>
</svg>
