<?xml version="1.0" encoding="UTF-8" standalone="no"?>
<!DOCTYPE svg PUBLIC "-//W3C//DTD SVG 1.1//EN"
 "http://www.w3.org/Graphics/SVG/1.1/DTD/svg11.dtd">
<!-- Generated by graphviz version 2.42.3 (20191010.1750)
 -->
<!-- Title: %3 Pages: 1 -->
<svg width="715pt" height="382pt"
 viewBox="0.00 0.00 715.00 381.86" xmlns="http://www.w3.org/2000/svg" xmlns:xlink="http://www.w3.org/1999/xlink">
<g id="graph0" class="graph" transform="scale(1 1) rotate(0) translate(4 377.86)">
<title>%3</title>
<polygon fill="white" stroke="transparent" points="-4,4 -4,-377.86 711,-377.86 711,4 -4,4"/>
<g id="clust1" class="cluster">
<title>clusterfloor_dim (2)</title>
<path fill="none" stroke="black" d="M20,-129.95C20,-129.95 96,-129.95 96,-129.95 102,-129.95 108,-135.95 108,-141.95 108,-141.95 108,-231.91 108,-231.91 108,-237.91 102,-243.91 96,-243.91 96,-243.91 20,-243.91 20,-243.91 14,-243.91 8,-237.91 8,-231.91 8,-231.91 8,-141.95 8,-141.95 8,-135.95 14,-129.95 20,-129.95"/>
<text text-anchor="middle" x="62.5" y="-137.75" font-family="Times,serif" font-size="14.00">floor_dim (2)</text>
</g>
<g id="clust2" class="cluster">
<title>cluster1</title>
<path fill="none" stroke="black" d="M128,-129.95C128,-129.95 204,-129.95 204,-129.95 210,-129.95 216,-135.95 216,-141.95 216,-141.95 216,-231.91 216,-231.91 216,-237.91 210,-243.91 204,-243.91 204,-243.91 128,-243.91 128,-243.91 122,-243.91 116,-237.91 116,-231.91 116,-231.91 116,-141.95 116,-141.95 116,-135.95 122,-129.95 128,-129.95"/>
<text text-anchor="middle" x="204.5" y="-137.75" font-family="Times,serif" font-size="14.00">1</text>
</g>
<g id="clust3" class="cluster">
<title>clusterfloor__expr_dim (2)</title>
<path fill="none" stroke="black" d="M523,-251.91C523,-251.91 687,-251.91 687,-251.91 693,-251.91 699,-257.91 699,-263.91 699,-263.91 699,-353.86 699,-353.86 699,-359.86 693,-365.86 687,-365.86 687,-365.86 523,-365.86 523,-365.86 517,-365.86 511,-359.86 511,-353.86 511,-353.86 511,-263.91 511,-263.91 511,-257.91 517,-251.91 523,-251.91"/>
<text text-anchor="middle" x="635" y="-259.71" font-family="Times,serif" font-size="14.00">floor__expr_dim (2)</text>
</g>
<g id="clust4" class="cluster">
<title>clustercounty__factor_dim (85) x floor__expr_dim (2)</title>
<path fill="none" stroke="black" d="M236,-140.93C236,-140.93 491,-140.93 491,-140.93 497,-140.93 503,-146.93 503,-152.93 503,-152.93 503,-353.86 503,-353.86 503,-359.86 497,-365.86 491,-365.86 491,-365.86 236,-365.86 236,-365.86 230,-365.86 224,-359.86 224,-353.86 224,-353.86 224,-152.93 224,-152.93 224,-146.93 230,-140.93 236,-140.93"/>
<text text-anchor="middle" x="363.5" y="-148.73" font-family="Times,serif" font-size="14.00">county__factor_dim (85) x floor__expr_dim (2)</text>
</g>
<g id="clust5" class="cluster">
<title>cluster919</title>
<path fill="none" stroke="black" d="M218,-8C218,-8 310,-8 310,-8 316,-8 322,-14 322,-20 322,-20 322,-109.95 322,-109.95 322,-115.95 316,-121.95 310,-121.95 310,-121.95 218,-121.95 218,-121.95 212,-121.95 206,-115.95 206,-109.95 206,-109.95 206,-20 206,-20 206,-14 212,-8 218,-8"/>
<text text-anchor="middle" x="303.5" y="-15.8" font-family="Times,serif" font-size="14.00">919</text>
</g>
<!-- floor -->
<g id="node1" class="node">
<title>floor</title>
<ellipse fill="none" stroke="black" cx="58" cy="-198.43" rx="41.94" ry="37.45"/>
<text text-anchor="middle" x="58" y="-209.73" font-family="Times,serif" font-size="14.00">floor</text>
<text text-anchor="middle" x="58" y="-194.73" font-family="Times,serif" font-size="14.00">~</text>
<text text-anchor="middle" x="58" y="-179.73" font-family="Times,serif" font-size="14.00">Normal</text>
</g>
<!-- log_radon -->
<g id="node7" class="node">
<title>log_radon</title>
<ellipse fill="lightgrey" stroke="black" cx="264" cy="-76.48" rx="50.41" ry="37.45"/>
<text text-anchor="middle" x="264" y="-87.78" font-family="Times,serif" font-size="14.00">log_radon</text>
<text text-anchor="middle" x="264" y="-72.78" font-family="Times,serif" font-size="14.00">~</text>
<text text-anchor="middle" x="264" y="-57.78" font-family="Times,serif" font-size="14.00">Normal</text>
</g>
<!-- floor&#45;&gt;log_radon -->
<g id="edge5" class="edge">
<title>floor&#45;&gt;log_radon</title>
<path fill="none" stroke="black" d="M78,-165.21C87.08,-152.76 98.76,-139.29 112,-129.95 139.88,-110.3 175.77,-97.45 205.68,-89.39"/>
<polygon fill="black" stroke="black" points="206.76,-92.72 215.57,-86.84 205.01,-85.95 206.76,-92.72"/>
</g>
<!-- log_u -->
<g id="node2" class="node">
<title>log_u</title>
<ellipse fill="none" stroke="black" cx="166" cy="-198.43" rx="41.94" ry="37.45"/>
<text text-anchor="middle" x="166" y="-209.73" font-family="Times,serif" font-size="14.00">log_u</text>
<text text-anchor="middle" x="166" y="-194.73" font-family="Times,serif" font-size="14.00">~</text>
<text text-anchor="middle" x="166" y="-179.73" font-family="Times,serif" font-size="14.00">Normal</text>
</g>
<!-- log_u&#45;&gt;log_radon -->
<g id="edge4" class="edge">
<title>log_u&#45;&gt;log_radon</title>
<path fill="none" stroke="black" d="M189.78,-167.42C199.14,-155.68 210.02,-142.14 220,-129.95 223.67,-125.48 227.53,-120.8 231.39,-116.17"/>
<polygon fill="black" stroke="black" points="234.1,-118.38 237.82,-108.46 228.73,-113.89 234.1,-118.38"/>
</g>
<!-- floor|county_sigma -->
<g id="node3" class="node">
<title>floor|county_sigma</title>
<ellipse fill="none" stroke="black" cx="605" cy="-320.38" rx="86.03" ry="37.45"/>
<text text-anchor="middle" x="605" y="-331.68" font-family="Times,serif" font-size="14.00">floor|county_sigma</text>
<text text-anchor="middle" x="605" y="-316.68" font-family="Times,serif" font-size="14.00">~</text>
<text text-anchor="middle" x="605" y="-301.68" font-family="Times,serif" font-size="14.00">Exponential</text>
</g>
<!-- floor|county -->
<g id="node4" class="node">
<title>floor|county</title>
<polygon fill="none" stroke="black" points="408.5,-224.93 317.5,-224.93 317.5,-171.93 408.5,-171.93 408.5,-224.93"/>
<text text-anchor="middle" x="363" y="-209.73" font-family="Times,serif" font-size="14.00">floor|county</text>
<text text-anchor="middle" x="363" y="-194.73" font-family="Times,serif" font-size="14.00">~</text>
<text text-anchor="middle" x="363" y="-179.73" font-family="Times,serif" font-size="14.00">Deterministic</text>
</g>
<!-- floor|county_sigma&#45;&gt;floor|county -->
<g id="edge1" class="edge">
<title>floor|county_sigma&#45;&gt;floor|county</title>
<path fill="none" stroke="black" d="M563.53,-287.37C546.61,-275.24 526.46,-261.94 507,-251.91 478.88,-237.4 445.82,-225.05 418.47,-215.98"/>
<polygon fill="black" stroke="black" points="419.27,-212.56 408.68,-212.79 417.1,-219.22 419.27,-212.56"/>
</g>
<!-- floor|county&#45;&gt;log_radon -->
<g id="edge3" class="edge">
<title>floor|county&#45;&gt;log_radon</title>
<path fill="none" stroke="black" d="M341.76,-171.7C328.56,-155.7 311.32,-134.81 296.43,-116.77"/>
<polygon fill="black" stroke="black" points="298.84,-114.19 289.77,-108.71 293.44,-118.65 298.84,-114.19"/>
</g>
<!-- floor|county_offset -->
<g id="node5" class="node">
<title>floor|county_offset</title>
<ellipse fill="none" stroke="black" cx="363" cy="-320.38" rx="84.71" ry="37.45"/>
<text text-anchor="middle" x="363" y="-331.68" font-family="Times,serif" font-size="14.00">floor|county_offset</text>
<text text-anchor="middle" x="363" y="-316.68" font-family="Times,serif" font-size="14.00">~</text>
<text text-anchor="middle" x="363" y="-301.68" font-family="Times,serif" font-size="14.00">Normal</text>
</g>
<!-- floor|county_offset&#45;&gt;floor|county -->
<g id="edge2" class="edge">
<title>floor|county_offset&#45;&gt;floor|county</title>
<path fill="none" stroke="black" d="M363,-282.74C363,-267.77 363,-250.51 363,-235.59"/>
<polygon fill="black" stroke="black" points="366.5,-235.2 363,-225.2 359.5,-235.2 366.5,-235.2"/>
</g>
<!-- log_radon_sigma -->
<g id="node6" class="node">
<title>log_radon_sigma</title>
<ellipse fill="none" stroke="black" cx="589" cy="-198.43" rx="78.48" ry="37.45"/>
<text text-anchor="middle" x="589" y="-209.73" font-family="Times,serif" font-size="14.00">log_radon_sigma</text>
<text text-anchor="middle" x="589" y="-194.73" font-family="Times,serif" font-size="14.00">~</text>
<text text-anchor="middle" x="589" y="-179.73" font-family="Times,serif" font-size="14.00">Exponential</text>
</g>
<!-- log_radon_sigma&#45;&gt;log_radon -->
<g id="edge6" class="edge">
<title>log_radon_sigma&#45;&gt;log_radon</title>
<path fill="none" stroke="black" d="M556.05,-164.19C542,-151.74 524.76,-138.54 507,-129.95 448.66,-101.73 375.16,-88.56 324.35,-82.5"/>
<polygon fill="black" stroke="black" points="324.52,-78.99 314.19,-81.34 323.73,-85.95 324.52,-78.99"/>
</g>
</g>
</svg>
