<?xml version="1.0" encoding="UTF-8" standalone="no"?>
<!DOCTYPE svg PUBLIC "-//W3C//DTD SVG 1.1//EN"
 "http://www.w3.org/Graphics/SVG/1.1/DTD/svg11.dtd">
<!-- Generated by graphviz version 2.47.0 (20210327.0129)
 -->
<!-- Pages: 1 -->
<svg width="336pt" height="260pt"
 viewBox="0.00 0.00 336.29 259.91" xmlns="http://www.w3.org/2000/svg" xmlns:xlink="http://www.w3.org/1999/xlink">
<g id="graph0" class="graph" transform="scale(1 1) rotate(0) translate(4 255.91)">
<polygon fill="white" stroke="transparent" points="-4,4 -4,-255.91 332.29,-255.91 332.29,4 -4,4"/>
<g id="clust1" class="cluster">
<title>cluster2</title>
<path fill="none" stroke="black" d="M20,-129.95C20,-129.95 110,-129.95 110,-129.95 116,-129.95 122,-135.95 122,-141.95 122,-141.95 122,-231.91 122,-231.91 122,-237.91 116,-243.91 110,-243.91 110,-243.91 20,-243.91 20,-243.91 14,-243.91 8,-237.91 8,-231.91 8,-231.91 8,-141.95 8,-141.95 8,-135.95 14,-129.95 20,-129.95"/>
<text text-anchor="middle" x="109" y="-137.75" font-family="Times-Roman" font-size="14.00">2</text>
</g>
<g id="clust2" class="cluster">
<title>cluster919</title>
<path fill="none" stroke="black" d="M52,-8C52,-8 168,-8 168,-8 174,-8 180,-14 180,-20 180,-20 180,-109.95 180,-109.95 180,-115.95 174,-121.95 168,-121.95 168,-121.95 52,-121.95 52,-121.95 46,-121.95 40,-115.95 40,-109.95 40,-109.95 40,-20 40,-20 40,-14 46,-8 52,-8"/>
<text text-anchor="middle" x="158" y="-15.8" font-family="Times-Roman" font-size="14.00">919</text>
</g>
<!-- floor -->
<g id="node1" class="node">
<title>floor</title>
<ellipse fill="none" stroke="black" cx="65" cy="-198.43" rx="48.58" ry="37.45"/>
<text text-anchor="middle" x="65" y="-209.73" font-family="Times-Roman" font-size="14.00">floor</text>
<text text-anchor="middle" x="65" y="-194.73" font-family="Times-Roman" font-size="14.00">~</text>
<text text-anchor="middle" x="65" y="-179.73" font-family="Times-Roman" font-size="14.00">Normal</text>
</g>
<!-- log_radon -->
<g id="node3" class="node">
<title>log_radon</title>
<ellipse fill="lightgrey" stroke="black" cx="110" cy="-76.48" rx="62.45" ry="37.45"/>
<text text-anchor="middle" x="110" y="-87.78" font-family="Times-Roman" font-size="14.00">log_radon</text>
<text text-anchor="middle" x="110" y="-72.78" font-family="Times-Roman" font-size="14.00">~</text>
<text text-anchor="middle" x="110" y="-57.78" font-family="Times-Roman" font-size="14.00">Normal</text>
</g>
<!-- floor&#45;&gt;log_radon -->
<g id="edge1" class="edge">
<title>floor&#45;&gt;log_radon</title>
<path fill="none" stroke="black" d="M78.26,-162.09C82.84,-149.86 88.05,-135.98 92.9,-123.05"/>
<polygon fill="black" stroke="black" points="96.29,-123.99 96.53,-113.4 89.74,-121.53 96.29,-123.99"/>
</g>
<!-- log_radon_sigma -->
<g id="node2" class="node">
<title>log_radon_sigma</title>
<ellipse fill="none" stroke="black" cx="230" cy="-198.43" rx="98.08" ry="37.45"/>
<text text-anchor="middle" x="230" y="-209.73" font-family="Times-Roman" font-size="14.00">log_radon_sigma</text>
<text text-anchor="middle" x="230" y="-194.73" font-family="Times-Roman" font-size="14.00">~</text>
<text text-anchor="middle" x="230" y="-179.73" font-family="Times-Roman" font-size="14.00">Exponential</text>
</g>
<!-- log_radon_sigma&#45;&gt;log_radon -->
<g id="edge2" class="edge">
<title>log_radon_sigma&#45;&gt;log_radon</title>
<path fill="none" stroke="black" d="M195.61,-163.06C180.97,-148.42 163.82,-131.28 148.74,-116.2"/>
<polygon fill="black" stroke="black" points="151.06,-113.58 141.52,-108.98 146.12,-118.53 151.06,-113.58"/>
</g>
</g>
</svg>
