<?xml version="1.0" encoding="UTF-8" standalone="no"?>
<!DOCTYPE svg PUBLIC "-//W3C//DTD SVG 1.1//EN"
 "http://www.w3.org/Graphics/SVG/1.1/DTD/svg11.dtd">
<!-- Generated by graphviz version 2.42.3 (20191010.1750)
 -->
<!-- Title: %3 Pages: 1 -->
<svg width="282pt" height="260pt"
 viewBox="0.00 0.00 282.49 259.91" xmlns="http://www.w3.org/2000/svg" xmlns:xlink="http://www.w3.org/1999/xlink">
<g id="graph0" class="graph" transform="scale(1 1) rotate(0) translate(4 255.91)">
<title>%3</title>
<polygon fill="white" stroke="transparent" points="-4,4 -4,-255.91 278.49,-255.91 278.49,4 -4,4"/>
<g id="clust1" class="cluster">
<title>clusterfloor_coord (2)</title>
<path fill="none" stroke="black" d="M20,-129.95C20,-129.95 96,-129.95 96,-129.95 102,-129.95 108,-135.95 108,-141.95 108,-141.95 108,-231.91 108,-231.91 108,-237.91 102,-243.91 96,-243.91 96,-243.91 20,-243.91 20,-243.91 14,-243.91 8,-237.91 8,-231.91 8,-231.91 8,-141.95 8,-141.95 8,-135.95 14,-129.95 20,-129.95"/>
<text text-anchor="middle" x="58" y="-137.75" font-family="Times,serif" font-size="14.00">floor_coord (2)</text>
</g>
<g id="clust2" class="cluster">
<title>cluster919</title>
<path fill="none" stroke="black" d="M49,-8C49,-8 159,-8 159,-8 165,-8 171,-14 171,-20 171,-20 171,-109.95 171,-109.95 171,-115.95 165,-121.95 159,-121.95 159,-121.95 49,-121.95 49,-121.95 43,-121.95 37,-115.95 37,-109.95 37,-109.95 37,-20 37,-20 37,-14 43,-8 49,-8"/>
<text text-anchor="middle" x="152.5" y="-15.8" font-family="Times,serif" font-size="14.00">919</text>
</g>
<!-- floor -->
<g id="node1" class="node">
<title>floor</title>
<ellipse fill="none" stroke="black" cx="58" cy="-198.43" rx="41.94" ry="37.45"/>
<text text-anchor="middle" x="58" y="-209.73" font-family="Times,serif" font-size="14.00">floor</text>
<text text-anchor="middle" x="58" y="-194.73" font-family="Times,serif" font-size="14.00">~</text>
<text text-anchor="middle" x="58" y="-179.73" font-family="Times,serif" font-size="14.00">Normal</text>
</g>
<!-- log_radon -->
<g id="node3" class="node">
<title>log_radon</title>
<ellipse fill="lightgrey" stroke="black" cx="95" cy="-76.48" rx="50.41" ry="37.45"/>
<text text-anchor="middle" x="95" y="-87.78" font-family="Times,serif" font-size="14.00">log_radon</text>
<text text-anchor="middle" x="95" y="-72.78" font-family="Times,serif" font-size="14.00">~</text>
<text text-anchor="middle" x="95" y="-57.78" font-family="Times,serif" font-size="14.00">Normal</text>
</g>
<!-- floor&#45;&gt;log_radon -->
<g id="edge1" class="edge">
<title>floor&#45;&gt;log_radon</title>
<path fill="none" stroke="black" d="M68.9,-162.09C72.67,-149.86 76.95,-135.98 80.94,-123.05"/>
<polygon fill="black" stroke="black" points="84.32,-123.98 83.92,-113.4 77.63,-121.92 84.32,-123.98"/>
</g>
<!-- log_radon_sigma -->
<g id="node2" class="node">
<title>log_radon_sigma</title>
<ellipse fill="none" stroke="black" cx="196" cy="-198.43" rx="78.48" ry="37.45"/>
<text text-anchor="middle" x="196" y="-209.73" font-family="Times,serif" font-size="14.00">log_radon_sigma</text>
<text text-anchor="middle" x="196" y="-194.73" font-family="Times,serif" font-size="14.00">~</text>
<text text-anchor="middle" x="196" y="-179.73" font-family="Times,serif" font-size="14.00">Exponential</text>
</g>
<!-- log_radon_sigma&#45;&gt;log_radon -->
<g id="edge2" class="edge">
<title>log_radon_sigma&#45;&gt;log_radon</title>
<path fill="none" stroke="black" d="M167.33,-163.38C155.01,-148.75 140.55,-131.57 127.81,-116.44"/>
<polygon fill="black" stroke="black" points="130.44,-114.13 121.32,-108.74 125.09,-118.64 130.44,-114.13"/>
</g>
<!-- log_radon&#45;&gt;log_radon -->
<g id="edge3" class="edge">
<title>log_radon&#45;&gt;log_radon</title>
<path fill="none" stroke="black" d="M135.27,-98.91C150.56,-99.77 163.2,-92.3 163.2,-76.48 163.2,-64.36 155.79,-57.14 145.46,-54.81"/>
<polygon fill="black" stroke="black" points="145.51,-51.3 135.27,-54.04 144.98,-58.28 145.51,-51.3"/>
</g>
</g>
</svg>
