<?xml version="1.0" encoding="UTF-8" standalone="no"?>
<!DOCTYPE svg PUBLIC "-//W3C//DTD SVG 1.1//EN"
 "http://www.w3.org/Graphics/SVG/1.1/DTD/svg11.dtd">
<!-- Generated by graphviz version 2.43.0 (0)
 -->
<!-- Title: %3 Pages: 1 -->
<svg width="790pt" height="371pt"
 viewBox="0.00 0.00 789.77 370.86" xmlns="http://www.w3.org/2000/svg" xmlns:xlink="http://www.w3.org/1999/xlink">
<g id="graph0" class="graph" transform="scale(1 1) rotate(0) translate(4 366.86)">
<title>%3</title>
<polygon fill="white" stroke="transparent" points="-4,4 -4,-366.86 785.77,-366.86 785.77,4 -4,4"/>
<g id="clust1" class="cluster">
<title>cluster2</title>
<path fill="none" stroke="black" d="M20,-129.95C20,-129.95 110,-129.95 110,-129.95 116,-129.95 122,-135.95 122,-141.95 122,-141.95 122,-231.91 122,-231.91 122,-237.91 116,-243.91 110,-243.91 110,-243.91 20,-243.91 20,-243.91 14,-243.91 8,-237.91 8,-231.91 8,-231.91 8,-141.95 8,-141.95 8,-135.95 14,-129.95 20,-129.95"/>
<text text-anchor="middle" x="109" y="-137.75" font-family="Times,serif" font-size="14.00">2</text>
</g>
<g id="clust2" class="cluster">
<title>cluster85 x 2</title>
<path fill="none" stroke="black" d="M345,-140.93C345,-140.93 547,-140.93 547,-140.93 553,-140.93 559,-146.93 559,-152.93 559,-152.93 559,-342.86 559,-342.86 559,-348.86 553,-354.86 547,-354.86 547,-354.86 345,-354.86 345,-354.86 339,-354.86 333,-348.86 333,-342.86 333,-342.86 333,-152.93 333,-152.93 333,-146.93 339,-140.93 345,-140.93"/>
<text text-anchor="middle" x="528.5" y="-148.73" font-family="Times,serif" font-size="14.00">85 x 2</text>
</g>
<g id="clust3" class="cluster">
<title>cluster919</title>
<path fill="none" stroke="black" d="M172,-8C172,-8 286,-8 286,-8 292,-8 298,-14 298,-20 298,-20 298,-109.95 298,-109.95 298,-115.95 292,-121.95 286,-121.95 286,-121.95 172,-121.95 172,-121.95 166,-121.95 160,-115.95 160,-109.95 160,-109.95 160,-20 160,-20 160,-14 166,-8 172,-8"/>
<text text-anchor="middle" x="276" y="-15.8" font-family="Times,serif" font-size="14.00">919</text>
</g>
<!-- floor -->
<g id="node1" class="node">
<title>floor</title>
<ellipse fill="none" stroke="black" cx="65" cy="-198.43" rx="49.49" ry="37.45"/>
<text text-anchor="middle" x="65" y="-209.73" font-family="Times,serif" font-size="14.00">floor</text>
<text text-anchor="middle" x="65" y="-194.73" font-family="Times,serif" font-size="14.00">~</text>
<text text-anchor="middle" x="65" y="-179.73" font-family="Times,serif" font-size="14.00">Normal</text>
</g>
<!-- log_radon -->
<g id="node6" class="node">
<title>log_radon</title>
<ellipse fill="lightgrey" stroke="black" cx="229" cy="-76.48" rx="60.62" ry="37.45"/>
<text text-anchor="middle" x="229" y="-87.78" font-family="Times,serif" font-size="14.00">log_radon</text>
<text text-anchor="middle" x="229" y="-72.78" font-family="Times,serif" font-size="14.00">~</text>
<text text-anchor="middle" x="229" y="-57.78" font-family="Times,serif" font-size="14.00">Normal</text>
</g>
<!-- floor&#45;&gt;log_radon -->
<g id="edge3" class="edge">
<title>floor&#45;&gt;log_radon</title>
<path fill="none" stroke="black" d="M88.59,-165.47C98.59,-153.34 110.95,-140.04 124,-129.95 137.82,-119.28 154.15,-109.87 169.76,-102.07"/>
<polygon fill="black" stroke="black" points="171.37,-105.18 178.85,-97.68 168.32,-98.88 171.37,-105.18"/>
</g>
<!-- log_radon_sigma -->
<g id="node2" class="node">
<title>log_radon_sigma</title>
<ellipse fill="none" stroke="black" cx="229" cy="-198.43" rx="96.33" ry="37.45"/>
<text text-anchor="middle" x="229" y="-209.73" font-family="Times,serif" font-size="14.00">log_radon_sigma</text>
<text text-anchor="middle" x="229" y="-194.73" font-family="Times,serif" font-size="14.00">~</text>
<text text-anchor="middle" x="229" y="-179.73" font-family="Times,serif" font-size="14.00">Exponential</text>
</g>
<!-- log_radon_sigma&#45;&gt;log_radon -->
<g id="edge5" class="edge">
<title>log_radon_sigma&#45;&gt;log_radon</title>
<path fill="none" stroke="black" d="M229,-160.79C229,-149.38 229,-136.65 229,-124.63"/>
<polygon fill="black" stroke="black" points="232.5,-124.31 229,-114.31 225.5,-124.31 232.5,-124.31"/>
</g>
<!-- floor|county_sigma -->
<g id="node3" class="node">
<title>floor|county_sigma</title>
<ellipse fill="none" stroke="black" cx="675" cy="-309.38" rx="106.55" ry="37.45"/>
<text text-anchor="middle" x="675" y="-320.68" font-family="Times,serif" font-size="14.00">floor|county_sigma</text>
<text text-anchor="middle" x="675" y="-305.68" font-family="Times,serif" font-size="14.00">~</text>
<text text-anchor="middle" x="675" y="-290.68" font-family="Times,serif" font-size="14.00">Exponential</text>
</g>
<!-- floor|county -->
<g id="node4" class="node">
<title>floor|county</title>
<polygon fill="none" stroke="black" points="503,-224.93 389,-224.93 389,-171.93 503,-171.93 503,-224.93"/>
<text text-anchor="middle" x="446" y="-209.73" font-family="Times,serif" font-size="14.00">floor|county</text>
<text text-anchor="middle" x="446" y="-194.73" font-family="Times,serif" font-size="14.00">~</text>
<text text-anchor="middle" x="446" y="-179.73" font-family="Times,serif" font-size="14.00">Deterministic</text>
</g>
<!-- floor|county_sigma&#45;&gt;floor|county -->
<g id="edge1" class="edge">
<title>floor|county_sigma&#45;&gt;floor|county</title>
<path fill="none" stroke="black" d="M612.73,-278.76C580.54,-263.44 541.35,-244.8 509.05,-229.43"/>
<polygon fill="black" stroke="black" points="510.24,-226.12 499.7,-224.98 507.23,-232.44 510.24,-226.12"/>
</g>
<!-- floor|county&#45;&gt;log_radon -->
<g id="edge4" class="edge">
<title>floor|county&#45;&gt;log_radon</title>
<path fill="none" stroke="black" d="M405.23,-171.81C384.19,-158.86 357.97,-143.14 334,-129.95 318.48,-121.42 301.39,-112.62 285.59,-104.74"/>
<polygon fill="black" stroke="black" points="286.97,-101.51 276.45,-100.21 283.85,-107.79 286.97,-101.51"/>
</g>
<!-- floor|county_offset -->
<g id="node5" class="node">
<title>floor|county_offset</title>
<ellipse fill="none" stroke="black" cx="446" cy="-309.38" rx="104.8" ry="37.45"/>
<text text-anchor="middle" x="446" y="-320.68" font-family="Times,serif" font-size="14.00">floor|county_offset</text>
<text text-anchor="middle" x="446" y="-305.68" font-family="Times,serif" font-size="14.00">~</text>
<text text-anchor="middle" x="446" y="-290.68" font-family="Times,serif" font-size="14.00">Normal</text>
</g>
<!-- floor|county_offset&#45;&gt;floor|county -->
<g id="edge2" class="edge">
<title>floor|county_offset&#45;&gt;floor|county</title>
<path fill="none" stroke="black" d="M446,-271.8C446,-260.06 446,-247.08 446,-235.38"/>
<polygon fill="black" stroke="black" points="449.5,-235.08 446,-225.08 442.5,-235.08 449.5,-235.08"/>
</g>
</g>
</svg>
