<?xml version="1.0" encoding="UTF-8" standalone="no"?>
<!DOCTYPE svg PUBLIC "-//W3C//DTD SVG 1.1//EN"
 "http://www.w3.org/Graphics/SVG/1.1/DTD/svg11.dtd">
<!-- Generated by graphviz version 2.42.3 (20191010.1750)
 -->
<!-- Title: %3 Pages: 1 -->
<svg width="688pt" height="382pt"
 viewBox="0.00 0.00 688.00 381.86" xmlns="http://www.w3.org/2000/svg" xmlns:xlink="http://www.w3.org/1999/xlink">
<g id="graph0" class="graph" transform="scale(1 1) rotate(0) translate(4 377.86)">
<title>%3</title>
<polygon fill="white" stroke="transparent" points="-4,4 -4,-377.86 684,-377.86 684,4 -4,4"/>
<g id="clust1" class="cluster">
<title>clusterfloor_coord (2)</title>
<path fill="none" stroke="black" d="M20,-129.95C20,-129.95 96,-129.95 96,-129.95 102,-129.95 108,-135.95 108,-141.95 108,-141.95 108,-231.91 108,-231.91 108,-237.91 102,-243.91 96,-243.91 96,-243.91 20,-243.91 20,-243.91 14,-243.91 8,-237.91 8,-231.91 8,-231.91 8,-141.95 8,-141.95 8,-135.95 14,-129.95 20,-129.95"/>
<text text-anchor="middle" x="58" y="-137.75" font-family="Times,serif" font-size="14.00">floor_coord (2)</text>
</g>
<g id="clust2" class="cluster">
<title>clusterfloor_coord_group_expr (2)</title>
<path fill="none" stroke="black" d="M496,-251.91C496,-251.91 660,-251.91 660,-251.91 666,-251.91 672,-257.91 672,-263.91 672,-263.91 672,-353.86 672,-353.86 672,-359.86 666,-365.86 660,-365.86 660,-365.86 496,-365.86 496,-365.86 490,-365.86 484,-359.86 484,-353.86 484,-353.86 484,-263.91 484,-263.91 484,-257.91 490,-251.91 496,-251.91"/>
<text text-anchor="middle" x="587.5" y="-259.71" font-family="Times,serif" font-size="14.00">floor_coord_group_expr (2)</text>
</g>
<g id="clust3" class="cluster">
<title>clustercounty_coord_group_factor (85) x floor_coord_group_expr (2)</title>
<path fill="none" stroke="black" d="M128,-140.93C128,-140.93 464,-140.93 464,-140.93 470,-140.93 476,-146.93 476,-152.93 476,-152.93 476,-353.86 476,-353.86 476,-359.86 470,-365.86 464,-365.86 464,-365.86 128,-365.86 128,-365.86 122,-365.86 116,-359.86 116,-353.86 116,-353.86 116,-152.93 116,-152.93 116,-146.93 122,-140.93 128,-140.93"/>
<text text-anchor="middle" x="296" y="-148.73" font-family="Times,serif" font-size="14.00">county_coord_group_factor (85) x floor_coord_group_expr (2)</text>
</g>
<g id="clust4" class="cluster">
<title>cluster919</title>
<path fill="none" stroke="black" d="M355,-8C355,-8 465,-8 465,-8 471,-8 477,-14 477,-20 477,-20 477,-109.95 477,-109.95 477,-115.95 471,-121.95 465,-121.95 465,-121.95 355,-121.95 355,-121.95 349,-121.95 343,-115.95 343,-109.95 343,-109.95 343,-20 343,-20 343,-14 349,-8 355,-8"/>
<text text-anchor="middle" x="458.5" y="-15.8" font-family="Times,serif" font-size="14.00">919</text>
</g>
<!-- floor -->
<g id="node1" class="node">
<title>floor</title>
<ellipse fill="none" stroke="black" cx="58" cy="-198.43" rx="41.94" ry="37.45"/>
<text text-anchor="middle" x="58" y="-209.73" font-family="Times,serif" font-size="14.00">floor</text>
<text text-anchor="middle" x="58" y="-194.73" font-family="Times,serif" font-size="14.00">~</text>
<text text-anchor="middle" x="58" y="-179.73" font-family="Times,serif" font-size="14.00">Normal</text>
</g>
<!-- log_radon -->
<g id="node6" class="node">
<title>log_radon</title>
<ellipse fill="lightgrey" stroke="black" cx="401" cy="-76.48" rx="50.41" ry="37.45"/>
<text text-anchor="middle" x="401" y="-87.78" font-family="Times,serif" font-size="14.00">log_radon</text>
<text text-anchor="middle" x="401" y="-72.78" font-family="Times,serif" font-size="14.00">~</text>
<text text-anchor="middle" x="401" y="-57.78" font-family="Times,serif" font-size="14.00">Normal</text>
</g>
<!-- floor&#45;&gt;log_radon -->
<g id="edge4" class="edge">
<title>floor&#45;&gt;log_radon</title>
<path fill="none" stroke="black" d="M76.83,-164.87C85.86,-152.05 97.82,-138.41 112,-129.95 149.86,-107.38 268.37,-91.36 341.34,-83.34"/>
<polygon fill="black" stroke="black" points="341.76,-86.82 351.32,-82.26 341.01,-79.86 341.76,-86.82"/>
</g>
<!-- floor|county_sigma -->
<g id="node2" class="node">
<title>floor|county_sigma</title>
<ellipse fill="none" stroke="black" cx="578" cy="-320.38" rx="86.03" ry="37.45"/>
<text text-anchor="middle" x="578" y="-331.68" font-family="Times,serif" font-size="14.00">floor|county_sigma</text>
<text text-anchor="middle" x="578" y="-316.68" font-family="Times,serif" font-size="14.00">~</text>
<text text-anchor="middle" x="578" y="-301.68" font-family="Times,serif" font-size="14.00">Exponential</text>
</g>
<!-- floor|county -->
<g id="node3" class="node">
<title>floor|county</title>
<polygon fill="none" stroke="black" points="446.5,-224.93 355.5,-224.93 355.5,-171.93 446.5,-171.93 446.5,-224.93"/>
<text text-anchor="middle" x="401" y="-209.73" font-family="Times,serif" font-size="14.00">floor|county</text>
<text text-anchor="middle" x="401" y="-194.73" font-family="Times,serif" font-size="14.00">~</text>
<text text-anchor="middle" x="401" y="-179.73" font-family="Times,serif" font-size="14.00">Deterministic</text>
</g>
<!-- floor|county_sigma&#45;&gt;floor|county -->
<g id="edge1" class="edge">
<title>floor|county_sigma&#45;&gt;floor|county</title>
<path fill="none" stroke="black" d="M533.22,-288.32C516.56,-276.82 497.45,-263.71 480,-251.91 469.88,-245.06 458.98,-237.77 448.62,-230.88"/>
<polygon fill="black" stroke="black" points="450.33,-227.81 440.06,-225.19 446.46,-233.64 450.33,-227.81"/>
</g>
<!-- floor|county&#45;&gt;log_radon -->
<g id="edge3" class="edge">
<title>floor|county&#45;&gt;log_radon</title>
<path fill="none" stroke="black" d="M401,-171.7C401,-157.92 401,-140.51 401,-124.42"/>
<polygon fill="black" stroke="black" points="404.5,-124.09 401,-114.09 397.5,-124.09 404.5,-124.09"/>
</g>
<!-- floor|county_offset -->
<g id="node4" class="node">
<title>floor|county_offset</title>
<ellipse fill="none" stroke="black" cx="383" cy="-320.38" rx="84.71" ry="37.45"/>
<text text-anchor="middle" x="383" y="-331.68" font-family="Times,serif" font-size="14.00">floor|county_offset</text>
<text text-anchor="middle" x="383" y="-316.68" font-family="Times,serif" font-size="14.00">~</text>
<text text-anchor="middle" x="383" y="-301.68" font-family="Times,serif" font-size="14.00">Normal</text>
</g>
<!-- floor|county_offset&#45;&gt;floor|county -->
<g id="edge2" class="edge">
<title>floor|county_offset&#45;&gt;floor|county</title>
<path fill="none" stroke="black" d="M388.5,-282.74C390.77,-267.63 393.39,-250.17 395.64,-235.15"/>
<polygon fill="black" stroke="black" points="399.11,-235.61 397.13,-225.2 392.19,-234.57 399.11,-235.61"/>
</g>
<!-- log_radon_sigma -->
<g id="node5" class="node">
<title>log_radon_sigma</title>
<ellipse fill="none" stroke="black" cx="562" cy="-198.43" rx="78.48" ry="37.45"/>
<text text-anchor="middle" x="562" y="-209.73" font-family="Times,serif" font-size="14.00">log_radon_sigma</text>
<text text-anchor="middle" x="562" y="-194.73" font-family="Times,serif" font-size="14.00">~</text>
<text text-anchor="middle" x="562" y="-179.73" font-family="Times,serif" font-size="14.00">Exponential</text>
</g>
<!-- log_radon_sigma&#45;&gt;log_radon -->
<g id="edge5" class="edge">
<title>log_radon_sigma&#45;&gt;log_radon</title>
<path fill="none" stroke="black" d="M524.68,-165.36C510.88,-153.88 494.96,-141.04 480,-129.95 469.66,-122.3 458.28,-114.43 447.45,-107.19"/>
<polygon fill="black" stroke="black" points="449.18,-104.14 438.91,-101.53 445.32,-109.97 449.18,-104.14"/>
</g>
<!-- log_radon&#45;&gt;log_radon -->
<g id="edge6" class="edge">
<title>log_radon&#45;&gt;log_radon</title>
<path fill="none" stroke="black" d="M441.27,-98.91C456.56,-99.77 469.2,-92.3 469.2,-76.48 469.2,-64.36 461.79,-57.14 451.46,-54.81"/>
<polygon fill="black" stroke="black" points="451.51,-51.3 441.27,-54.04 450.98,-58.28 451.51,-51.3"/>
</g>
</g>
</svg>
