<?xml version="1.0" encoding="UTF-8" standalone="no"?>
<!DOCTYPE svg PUBLIC "-//W3C//DTD SVG 1.1//EN"
 "http://www.w3.org/Graphics/SVG/1.1/DTD/svg11.dtd">
<!-- Generated by graphviz version 2.42.3 (20191010.1750)
 -->
<!-- Title: %3 Pages: 1 -->
<svg width="493pt" height="355pt"
 viewBox="0.00 0.00 493.00 354.86" xmlns="http://www.w3.org/2000/svg" xmlns:xlink="http://www.w3.org/1999/xlink">
<g id="graph0" class="graph" transform="scale(1 1) rotate(0) translate(4 350.86)">
<title>%3</title>
<polygon fill="white" stroke="transparent" points="-4,4 -4,-350.86 489,-350.86 489,4 -4,4"/>
<g id="clust1" class="cluster">
<title>clusterfloor_coord (2)</title>
<path fill="none" stroke="black" d="M20,-129.95C20,-129.95 96,-129.95 96,-129.95 102,-129.95 108,-135.95 108,-141.95 108,-141.95 108,-231.91 108,-231.91 108,-237.91 102,-243.91 96,-243.91 96,-243.91 20,-243.91 20,-243.91 14,-243.91 8,-237.91 8,-231.91 8,-231.91 8,-141.95 8,-141.95 8,-135.95 14,-129.95 20,-129.95"/>
<text text-anchor="middle" x="58" y="-137.75" font-family="Times,serif" font-size="14.00">floor_coord (2)</text>
</g>
<g id="clust2" class="cluster">
<title>clustercounty_coord_group_factor (85)</title>
<path fill="none" stroke="black" d="M295,-129.95C295,-129.95 465,-129.95 465,-129.95 471,-129.95 477,-135.95 477,-141.95 477,-141.95 477,-231.91 477,-231.91 477,-237.91 471,-243.91 465,-243.91 465,-243.91 295,-243.91 295,-243.91 289,-243.91 283,-237.91 283,-231.91 283,-231.91 283,-141.95 283,-141.95 283,-135.95 289,-129.95 295,-129.95"/>
<text text-anchor="middle" x="380" y="-137.75" font-family="Times,serif" font-size="14.00">county_coord_group_factor (85)</text>
</g>
<g id="clust3" class="cluster">
<title>cluster919</title>
<path fill="none" stroke="black" d="M150,-8C150,-8 260,-8 260,-8 266,-8 272,-14 272,-20 272,-20 272,-109.95 272,-109.95 272,-115.95 266,-121.95 260,-121.95 260,-121.95 150,-121.95 150,-121.95 144,-121.95 138,-115.95 138,-109.95 138,-109.95 138,-20 138,-20 138,-14 144,-8 150,-8"/>
<text text-anchor="middle" x="253.5" y="-15.8" font-family="Times,serif" font-size="14.00">919</text>
</g>
<!-- floor -->
<g id="node1" class="node">
<title>floor</title>
<ellipse fill="none" stroke="black" cx="58" cy="-198.43" rx="41.94" ry="37.45"/>
<text text-anchor="middle" x="58" y="-209.73" font-family="Times,serif" font-size="14.00">floor</text>
<text text-anchor="middle" x="58" y="-194.73" font-family="Times,serif" font-size="14.00">~</text>
<text text-anchor="middle" x="58" y="-179.73" font-family="Times,serif" font-size="14.00">Normal</text>
</g>
<!-- log_radon -->
<g id="node5" class="node">
<title>log_radon</title>
<ellipse fill="lightgrey" stroke="black" cx="196" cy="-76.48" rx="50.41" ry="37.45"/>
<text text-anchor="middle" x="196" y="-87.78" font-family="Times,serif" font-size="14.00">log_radon</text>
<text text-anchor="middle" x="196" y="-72.78" font-family="Times,serif" font-size="14.00">~</text>
<text text-anchor="middle" x="196" y="-57.78" font-family="Times,serif" font-size="14.00">Normal</text>
</g>
<!-- floor&#45;&gt;log_radon -->
<g id="edge3" class="edge">
<title>floor&#45;&gt;log_radon</title>
<path fill="none" stroke="black" d="M78.34,-165.47C86.9,-153.48 97.54,-140.27 109,-129.95 120.08,-119.98 133.32,-110.87 146.09,-103.15"/>
<polygon fill="black" stroke="black" points="147.97,-106.1 154.83,-98.02 144.43,-100.06 147.97,-106.1"/>
</g>
<!-- log_radon_sigma -->
<g id="node2" class="node">
<title>log_radon_sigma</title>
<ellipse fill="none" stroke="black" cx="196" cy="-198.43" rx="78.48" ry="37.45"/>
<text text-anchor="middle" x="196" y="-209.73" font-family="Times,serif" font-size="14.00">log_radon_sigma</text>
<text text-anchor="middle" x="196" y="-194.73" font-family="Times,serif" font-size="14.00">~</text>
<text text-anchor="middle" x="196" y="-179.73" font-family="Times,serif" font-size="14.00">Exponential</text>
</g>
<!-- log_radon_sigma&#45;&gt;log_radon -->
<g id="edge4" class="edge">
<title>log_radon_sigma&#45;&gt;log_radon</title>
<path fill="none" stroke="black" d="M196,-160.79C196,-149.38 196,-136.65 196,-124.63"/>
<polygon fill="black" stroke="black" points="199.5,-124.31 196,-114.31 192.5,-124.31 199.5,-124.31"/>
</g>
<!-- 1|county_sigma -->
<g id="node3" class="node">
<title>1|county_sigma</title>
<ellipse fill="none" stroke="black" cx="337" cy="-309.38" rx="72.66" ry="37.45"/>
<text text-anchor="middle" x="337" y="-320.68" font-family="Times,serif" font-size="14.00">1|county_sigma</text>
<text text-anchor="middle" x="337" y="-305.68" font-family="Times,serif" font-size="14.00">~</text>
<text text-anchor="middle" x="337" y="-290.68" font-family="Times,serif" font-size="14.00">Exponential</text>
</g>
<!-- 1|county -->
<g id="node4" class="node">
<title>1|county</title>
<ellipse fill="none" stroke="black" cx="337" cy="-198.43" rx="44.6" ry="37.45"/>
<text text-anchor="middle" x="337" y="-209.73" font-family="Times,serif" font-size="14.00">1|county</text>
<text text-anchor="middle" x="337" y="-194.73" font-family="Times,serif" font-size="14.00">~</text>
<text text-anchor="middle" x="337" y="-179.73" font-family="Times,serif" font-size="14.00">Normal</text>
</g>
<!-- 1|county_sigma&#45;&gt;1|county -->
<g id="edge1" class="edge">
<title>1|county_sigma&#45;&gt;1|county</title>
<path fill="none" stroke="black" d="M337,-271.8C337,-263.63 337,-254.85 337,-246.32"/>
<polygon fill="black" stroke="black" points="340.5,-246.1 337,-236.1 333.5,-246.1 340.5,-246.1"/>
</g>
<!-- 1|county&#45;&gt;log_radon -->
<g id="edge2" class="edge">
<title>1|county&#45;&gt;log_radon</title>
<path fill="none" stroke="black" d="M315.17,-165.53C306.07,-153.55 294.85,-140.33 283,-129.95 271.79,-120.13 258.5,-111.08 245.72,-103.35"/>
<polygon fill="black" stroke="black" points="247.39,-100.27 237,-98.22 243.85,-106.31 247.39,-100.27"/>
</g>
<!-- log_radon&#45;&gt;log_radon -->
<g id="edge5" class="edge">
<title>log_radon&#45;&gt;log_radon</title>
<path fill="none" stroke="black" d="M236.27,-98.91C251.56,-99.77 264.2,-92.3 264.2,-76.48 264.2,-64.36 256.79,-57.14 246.46,-54.81"/>
<polygon fill="black" stroke="black" points="246.51,-51.3 236.27,-54.04 245.98,-58.28 246.51,-51.3"/>
</g>
</g>
</svg>
