<?xml version="1.0" encoding="UTF-8" standalone="no"?>
<!DOCTYPE svg PUBLIC "-//W3C//DTD SVG 1.1//EN"
 "http://www.w3.org/Graphics/SVG/1.1/DTD/svg11.dtd">
<!-- Generated by graphviz version 2.47.0 (20210327.0129)
 -->
<!-- Pages: 1 -->
<svg width="502pt" height="355pt"
 viewBox="0.00 0.00 501.50 354.86" xmlns="http://www.w3.org/2000/svg" xmlns:xlink="http://www.w3.org/1999/xlink">
<g id="graph0" class="graph" transform="scale(1 1) rotate(0) translate(4 350.86)">
<polygon fill="white" stroke="transparent" points="-4,4 -4,-350.86 497.5,-350.86 497.5,4 -4,4"/>
<g id="clust1" class="cluster">
<title>cluster85</title>
<path fill="none" stroke="black" d="M351.29,-129.95C351.29,-129.95 453.29,-129.95 453.29,-129.95 459.29,-129.95 465.29,-135.95 465.29,-141.95 465.29,-141.95 465.29,-231.91 465.29,-231.91 465.29,-237.91 459.29,-243.91 453.29,-243.91 453.29,-243.91 351.29,-243.91 351.29,-243.91 345.29,-243.91 339.29,-237.91 339.29,-231.91 339.29,-231.91 339.29,-141.95 339.29,-141.95 339.29,-135.95 345.29,-129.95 351.29,-129.95"/>
<text text-anchor="middle" x="447.79" y="-137.75" font-family="Times-Roman" font-size="14.00">85</text>
</g>
<g id="clust2" class="cluster">
<title>cluster919</title>
<path fill="none" stroke="black" d="M214.29,-8C214.29,-8 330.29,-8 330.29,-8 336.29,-8 342.29,-14 342.29,-20 342.29,-20 342.29,-109.95 342.29,-109.95 342.29,-115.95 336.29,-121.95 330.29,-121.95 330.29,-121.95 214.29,-121.95 214.29,-121.95 208.29,-121.95 202.29,-115.95 202.29,-109.95 202.29,-109.95 202.29,-20 202.29,-20 202.29,-14 208.29,-8 214.29,-8"/>
<text text-anchor="middle" x="320.29" y="-15.8" font-family="Times-Roman" font-size="14.00">919</text>
</g>
<!-- log_radon_sigma -->
<g id="node1" class="node">
<title>log_radon_sigma</title>
<ellipse fill="none" stroke="black" cx="98.29" cy="-198.43" rx="98.08" ry="37.45"/>
<text text-anchor="middle" x="98.29" y="-209.73" font-family="Times-Roman" font-size="14.00">log_radon_sigma</text>
<text text-anchor="middle" x="98.29" y="-194.73" font-family="Times-Roman" font-size="14.00">~</text>
<text text-anchor="middle" x="98.29" y="-179.73" font-family="Times-Roman" font-size="14.00">Exponential</text>
</g>
<!-- log_radon -->
<g id="node5" class="node">
<title>log_radon</title>
<ellipse fill="lightgrey" stroke="black" cx="272.29" cy="-76.48" rx="62.45" ry="37.45"/>
<text text-anchor="middle" x="272.29" y="-87.78" font-family="Times-Roman" font-size="14.00">log_radon</text>
<text text-anchor="middle" x="272.29" y="-72.78" font-family="Times-Roman" font-size="14.00">~</text>
<text text-anchor="middle" x="272.29" y="-57.78" font-family="Times-Roman" font-size="14.00">Normal</text>
</g>
<!-- log_radon_sigma&#45;&gt;log_radon -->
<g id="edge2" class="edge">
<title>log_radon_sigma&#45;&gt;log_radon</title>
<path fill="none" stroke="black" d="M144.92,-165.28C169.23,-148.52 198.95,-128.04 223.56,-111.07"/>
<polygon fill="black" stroke="black" points="225.79,-113.78 232.04,-105.22 221.82,-108.02 225.79,-113.78"/>
</g>
<!-- 1|county_sigma -->
<g id="node2" class="node">
<title>1|county_sigma</title>
<ellipse fill="none" stroke="black" cx="402.29" cy="-309.38" rx="91.43" ry="37.45"/>
<text text-anchor="middle" x="402.29" y="-320.68" font-family="Times-Roman" font-size="14.00">1|county_sigma</text>
<text text-anchor="middle" x="402.29" y="-305.68" font-family="Times-Roman" font-size="14.00">~</text>
<text text-anchor="middle" x="402.29" y="-290.68" font-family="Times-Roman" font-size="14.00">Exponential</text>
</g>
<!-- 1|county -->
<g id="node4" class="node">
<title>1|county</title>
<ellipse fill="none" stroke="black" cx="402.29" cy="-198.43" rx="55.31" ry="37.45"/>
<text text-anchor="middle" x="402.29" y="-209.73" font-family="Times-Roman" font-size="14.00">1|county</text>
<text text-anchor="middle" x="402.29" y="-194.73" font-family="Times-Roman" font-size="14.00">~</text>
<text text-anchor="middle" x="402.29" y="-179.73" font-family="Times-Roman" font-size="14.00">Normal</text>
</g>
<!-- 1|county_sigma&#45;&gt;1|county -->
<g id="edge1" class="edge">
<title>1|county_sigma&#45;&gt;1|county</title>
<path fill="none" stroke="black" d="M402.29,-271.8C402.29,-263.63 402.29,-254.85 402.29,-246.32"/>
<polygon fill="black" stroke="black" points="405.79,-246.1 402.29,-236.1 398.79,-246.1 405.79,-246.1"/>
</g>
<!-- Intercept -->
<g id="node3" class="node">
<title>Intercept</title>
<ellipse fill="none" stroke="black" cx="272.29" cy="-198.43" rx="57.05" ry="37.45"/>
<text text-anchor="middle" x="272.29" y="-209.73" font-family="Times-Roman" font-size="14.00">Intercept</text>
<text text-anchor="middle" x="272.29" y="-194.73" font-family="Times-Roman" font-size="14.00">~</text>
<text text-anchor="middle" x="272.29" y="-179.73" font-family="Times-Roman" font-size="14.00">Normal</text>
</g>
<!-- Intercept&#45;&gt;log_radon -->
<g id="edge4" class="edge">
<title>Intercept&#45;&gt;log_radon</title>
<path fill="none" stroke="black" d="M272.29,-160.79C272.29,-149.38 272.29,-136.65 272.29,-124.63"/>
<polygon fill="black" stroke="black" points="275.79,-124.31 272.29,-114.31 268.79,-124.31 275.79,-124.31"/>
</g>
<!-- 1|county&#45;&gt;log_radon -->
<g id="edge3" class="edge">
<title>1|county&#45;&gt;log_radon</title>
<path fill="none" stroke="black" d="M374.17,-165.97C363.3,-154.31 350.55,-141.19 338.29,-129.95 332,-124.2 325.17,-118.34 318.35,-112.74"/>
<polygon fill="black" stroke="black" points="320.36,-109.86 310.39,-106.29 315.96,-115.3 320.36,-109.86"/>
</g>
</g>
</svg>
