<?xml version="1.0" encoding="UTF-8" standalone="no"?>
<!DOCTYPE svg PUBLIC "-//W3C//DTD SVG 1.1//EN"
 "http://www.w3.org/Graphics/SVG/1.1/DTD/svg11.dtd">
<!-- Generated by graphviz version 2.42.3 (20191010.1750)
 -->
<!-- Title: %3 Pages: 1 -->
<svg width="335pt" height="260pt"
 viewBox="0.00 0.00 335.49 259.91" xmlns="http://www.w3.org/2000/svg" xmlns:xlink="http://www.w3.org/1999/xlink">
<g id="graph0" class="graph" transform="scale(1 1) rotate(0) translate(4 255.91)">
<title>%3</title>
<polygon fill="white" stroke="transparent" points="-4,4 -4,-255.91 331.49,-255.91 331.49,4 -4,4"/>
<g id="clust1" class="cluster">
<title>clustercounty:floor_coord (170)</title>
<path fill="none" stroke="black" d="M20,-129.95C20,-129.95 150,-129.95 150,-129.95 156,-129.95 162,-135.95 162,-141.95 162,-141.95 162,-231.91 162,-231.91 162,-237.91 156,-243.91 150,-243.91 150,-243.91 20,-243.91 20,-243.91 14,-243.91 8,-237.91 8,-231.91 8,-231.91 8,-141.95 8,-141.95 8,-135.95 14,-129.95 20,-129.95"/>
<text text-anchor="middle" x="85" y="-137.75" font-family="Times,serif" font-size="14.00">county:floor_coord (170)</text>
</g>
<g id="clust2" class="cluster">
<title>cluster919</title>
<path fill="none" stroke="black" d="M125,-8C125,-8 235,-8 235,-8 241,-8 247,-14 247,-20 247,-20 247,-109.95 247,-109.95 247,-115.95 241,-121.95 235,-121.95 235,-121.95 125,-121.95 125,-121.95 119,-121.95 113,-115.95 113,-109.95 113,-109.95 113,-20 113,-20 113,-14 119,-8 125,-8"/>
<text text-anchor="middle" x="228.5" y="-15.8" font-family="Times,serif" font-size="14.00">919</text>
</g>
<!-- county&amp;floor -->
<g id="node1" class="node">
<title>county&amp;floor</title>
<ellipse fill="none" stroke="black" cx="94" cy="-198.43" rx="58.88" ry="37.45"/>
<text text-anchor="middle" x="94" y="-209.73" font-family="Times,serif" font-size="14.00">county:floor</text>
<text text-anchor="middle" x="94" y="-194.73" font-family="Times,serif" font-size="14.00">~</text>
<text text-anchor="middle" x="94" y="-179.73" font-family="Times,serif" font-size="14.00">Normal</text>
</g>
<!-- log_radon -->
<g id="node3" class="node">
<title>log_radon</title>
<ellipse fill="lightgrey" stroke="black" cx="171" cy="-76.48" rx="50.41" ry="37.45"/>
<text text-anchor="middle" x="171" y="-87.78" font-family="Times,serif" font-size="14.00">log_radon</text>
<text text-anchor="middle" x="171" y="-72.78" font-family="Times,serif" font-size="14.00">~</text>
<text text-anchor="middle" x="171" y="-57.78" font-family="Times,serif" font-size="14.00">Normal</text>
</g>
<!-- county&amp;floor&#45;&gt;log_radon -->
<g id="edge1" class="edge">
<title>county&amp;floor&#45;&gt;log_radon</title>
<path fill="none" stroke="black" d="M115.86,-163.38C124.62,-149.73 134.81,-133.85 144.03,-119.5"/>
<polygon fill="black" stroke="black" points="147.16,-121.09 149.62,-110.79 141.27,-117.31 147.16,-121.09"/>
</g>
<!-- log_radon_sigma -->
<g id="node2" class="node">
<title>log_radon_sigma</title>
<ellipse fill="none" stroke="black" cx="249" cy="-198.43" rx="78.48" ry="37.45"/>
<text text-anchor="middle" x="249" y="-209.73" font-family="Times,serif" font-size="14.00">log_radon_sigma</text>
<text text-anchor="middle" x="249" y="-194.73" font-family="Times,serif" font-size="14.00">~</text>
<text text-anchor="middle" x="249" y="-179.73" font-family="Times,serif" font-size="14.00">Exponential</text>
</g>
<!-- log_radon_sigma&#45;&gt;log_radon -->
<g id="edge2" class="edge">
<title>log_radon_sigma&#45;&gt;log_radon</title>
<path fill="none" stroke="black" d="M226.23,-162.41C217.44,-148.9 207.32,-133.32 198.15,-119.23"/>
<polygon fill="black" stroke="black" points="200.98,-117.16 192.59,-110.68 195.11,-120.98 200.98,-117.16"/>
</g>
<!-- log_radon&#45;&gt;log_radon -->
<g id="edge3" class="edge">
<title>log_radon&#45;&gt;log_radon</title>
<path fill="none" stroke="black" d="M211.27,-98.91C226.56,-99.77 239.2,-92.3 239.2,-76.48 239.2,-64.36 231.79,-57.14 221.46,-54.81"/>
<polygon fill="black" stroke="black" points="221.51,-51.3 211.27,-54.04 220.98,-58.28 221.51,-51.3"/>
</g>
</g>
</svg>
