<?xml version="1.0" encoding="UTF-8" standalone="no"?>
<!DOCTYPE svg PUBLIC "-//W3C//DTD SVG 1.1//EN"
 "http://www.w3.org/Graphics/SVG/1.1/DTD/svg11.dtd">
<!-- Generated by graphviz version 2.47.0 (20210327.0129)
 -->
<!-- Pages: 1 -->
<svg width="500pt" height="355pt"
 viewBox="0.00 0.00 500.22 354.86" xmlns="http://www.w3.org/2000/svg" xmlns:xlink="http://www.w3.org/1999/xlink">
<g id="graph0" class="graph" transform="scale(1 1) rotate(0) translate(4 350.86)">
<polygon fill="white" stroke="transparent" points="-4,4 -4,-350.86 496.22,-350.86 496.22,4 -4,4"/>
<g id="clust1" class="cluster">
<title>cluster2</title>
<path fill="none" stroke="black" d="M20,-129.95C20,-129.95 110,-129.95 110,-129.95 116,-129.95 122,-135.95 122,-141.95 122,-141.95 122,-231.91 122,-231.91 122,-237.91 116,-243.91 110,-243.91 110,-243.91 20,-243.91 20,-243.91 14,-243.91 8,-237.91 8,-231.91 8,-231.91 8,-141.95 8,-141.95 8,-135.95 14,-129.95 20,-129.95"/>
<text text-anchor="middle" x="109" y="-137.75" font-family="Times-Roman" font-size="14.00">2</text>
</g>
<g id="clust2" class="cluster">
<title>cluster85</title>
<path fill="none" stroke="black" d="M350,-129.95C350,-129.95 452,-129.95 452,-129.95 458,-129.95 464,-135.95 464,-141.95 464,-141.95 464,-231.91 464,-231.91 464,-237.91 458,-243.91 452,-243.91 452,-243.91 350,-243.91 350,-243.91 344,-243.91 338,-237.91 338,-231.91 338,-231.91 338,-141.95 338,-141.95 338,-135.95 344,-129.95 350,-129.95"/>
<text text-anchor="middle" x="446.5" y="-137.75" font-family="Times-Roman" font-size="14.00">85</text>
</g>
<g id="clust3" class="cluster">
<title>cluster919</title>
<path fill="none" stroke="black" d="M172,-8C172,-8 288,-8 288,-8 294,-8 300,-14 300,-20 300,-20 300,-109.95 300,-109.95 300,-115.95 294,-121.95 288,-121.95 288,-121.95 172,-121.95 172,-121.95 166,-121.95 160,-115.95 160,-109.95 160,-109.95 160,-20 160,-20 160,-14 166,-8 172,-8"/>
<text text-anchor="middle" x="278" y="-15.8" font-family="Times-Roman" font-size="14.00">919</text>
</g>
<!-- floor -->
<g id="node1" class="node">
<title>floor</title>
<ellipse fill="none" stroke="black" cx="65" cy="-198.43" rx="48.58" ry="37.45"/>
<text text-anchor="middle" x="65" y="-209.73" font-family="Times-Roman" font-size="14.00">floor</text>
<text text-anchor="middle" x="65" y="-194.73" font-family="Times-Roman" font-size="14.00">~</text>
<text text-anchor="middle" x="65" y="-179.73" font-family="Times-Roman" font-size="14.00">Normal</text>
</g>
<!-- log_radon -->
<g id="node5" class="node">
<title>log_radon</title>
<ellipse fill="lightgrey" stroke="black" cx="230" cy="-76.48" rx="62.45" ry="37.45"/>
<text text-anchor="middle" x="230" y="-87.78" font-family="Times-Roman" font-size="14.00">log_radon</text>
<text text-anchor="middle" x="230" y="-72.78" font-family="Times-Roman" font-size="14.00">~</text>
<text text-anchor="middle" x="230" y="-57.78" font-family="Times-Roman" font-size="14.00">Normal</text>
</g>
<!-- floor&#45;&gt;log_radon -->
<g id="edge2" class="edge">
<title>floor&#45;&gt;log_radon</title>
<path fill="none" stroke="black" d="M88.06,-165.4C97.88,-153.26 110.05,-139.97 123,-129.95 136.95,-119.16 153.48,-109.73 169.32,-101.96"/>
<polygon fill="black" stroke="black" points="171.02,-105.03 178.55,-97.58 168.01,-98.71 171.02,-105.03"/>
</g>
<!-- log_radon_sigma -->
<g id="node2" class="node">
<title>log_radon_sigma</title>
<ellipse fill="none" stroke="black" cx="230" cy="-198.43" rx="98.08" ry="37.45"/>
<text text-anchor="middle" x="230" y="-209.73" font-family="Times-Roman" font-size="14.00">log_radon_sigma</text>
<text text-anchor="middle" x="230" y="-194.73" font-family="Times-Roman" font-size="14.00">~</text>
<text text-anchor="middle" x="230" y="-179.73" font-family="Times-Roman" font-size="14.00">Exponential</text>
</g>
<!-- log_radon_sigma&#45;&gt;log_radon -->
<g id="edge3" class="edge">
<title>log_radon_sigma&#45;&gt;log_radon</title>
<path fill="none" stroke="black" d="M230,-160.79C230,-149.38 230,-136.65 230,-124.63"/>
<polygon fill="black" stroke="black" points="233.5,-124.31 230,-114.31 226.5,-124.31 233.5,-124.31"/>
</g>
<!-- 1|county_sigma -->
<g id="node3" class="node">
<title>1|county_sigma</title>
<ellipse fill="none" stroke="black" cx="401" cy="-309.38" rx="91.43" ry="37.45"/>
<text text-anchor="middle" x="401" y="-320.68" font-family="Times-Roman" font-size="14.00">1|county_sigma</text>
<text text-anchor="middle" x="401" y="-305.68" font-family="Times-Roman" font-size="14.00">~</text>
<text text-anchor="middle" x="401" y="-290.68" font-family="Times-Roman" font-size="14.00">Exponential</text>
</g>
<!-- 1|county -->
<g id="node4" class="node">
<title>1|county</title>
<ellipse fill="none" stroke="black" cx="401" cy="-198.43" rx="55.31" ry="37.45"/>
<text text-anchor="middle" x="401" y="-209.73" font-family="Times-Roman" font-size="14.00">1|county</text>
<text text-anchor="middle" x="401" y="-194.73" font-family="Times-Roman" font-size="14.00">~</text>
<text text-anchor="middle" x="401" y="-179.73" font-family="Times-Roman" font-size="14.00">Normal</text>
</g>
<!-- 1|county_sigma&#45;&gt;1|county -->
<g id="edge1" class="edge">
<title>1|county_sigma&#45;&gt;1|county</title>
<path fill="none" stroke="black" d="M401,-271.8C401,-263.63 401,-254.85 401,-246.32"/>
<polygon fill="black" stroke="black" points="404.5,-246.1 401,-236.1 397.5,-246.1 404.5,-246.1"/>
</g>
<!-- 1|county&#45;&gt;log_radon -->
<g id="edge4" class="edge">
<title>1|county&#45;&gt;log_radon</title>
<path fill="none" stroke="black" d="M374.72,-165.18C363.88,-153.15 350.66,-139.99 337,-129.95 322.79,-119.5 306.17,-110.19 290.33,-102.42"/>
<polygon fill="black" stroke="black" points="291.65,-99.18 281.12,-98.03 288.64,-105.49 291.65,-99.18"/>
</g>
</g>
</svg>
