<?xml version="1.0" encoding="UTF-8" standalone="no"?>
<!DOCTYPE svg PUBLIC "-//W3C//DTD SVG 1.1//EN"
 "http://www.w3.org/Graphics/SVG/1.1/DTD/svg11.dtd">
<!-- Generated by graphviz version 13.1.2 (20250809.0930)
 -->
<!-- Pages: 1 -->
<svg width="342pt" height="341pt"
 viewBox="0.00 0.00 342.00 341.00" xmlns="http://www.w3.org/2000/svg" xmlns:xlink="http://www.w3.org/1999/xlink">
<g id="graph0" class="graph" transform="scale(1 1) rotate(0) translate(4 336.63)">
<polygon fill="white" stroke="none" points="-4,4 -4,-336.63 338,-336.63 338,4 -4,4"/>
<g id="clust1" class="cluster">
<title>cluster__obs__ (22356)</title>
<path fill="none" stroke="black" d="M20,-8C20,-8 314,-8 314,-8 320,-8 326,-14 326,-20 326,-20 326,-211.32 326,-211.32 326,-217.32 320,-223.32 314,-223.32 314,-223.32 20,-223.32 20,-223.32 14,-223.32 8,-217.32 8,-211.32 8,-211.32 8,-20 8,-20 8,-14 14,-8 20,-8"/>
<text xml:space="preserve" text-anchor="middle" x="271.88" y="-15.2" font-family="Times,serif" font-size="14.00">__obs__ (22356)</text>
</g>
<!-- Intercept -->
<g id="node1" class="node">
<title>Intercept</title>
<ellipse fill="none" stroke="black" cx="167" cy="-291.98" rx="45.25" ry="40.66"/>
<text xml:space="preserve" text-anchor="middle" x="167" y="-303.43" font-family="Times,serif" font-size="14.00">Intercept</text>
<text xml:space="preserve" text-anchor="middle" x="167" y="-286.93" font-family="Times,serif" font-size="14.00">~</text>
<text xml:space="preserve" text-anchor="middle" x="167" y="-270.43" font-family="Times,serif" font-size="14.00">Normal</text>
</g>
<!-- mu -->
<g id="node3" class="node">
<title>mu</title>
<polygon fill="none" stroke="black" points="212.12,-215.32 121.88,-215.32 121.88,-157.82 212.12,-157.82 212.12,-215.32"/>
<text xml:space="preserve" text-anchor="middle" x="167" y="-198.02" font-family="Times,serif" font-size="14.00">mu</text>
<text xml:space="preserve" text-anchor="middle" x="167" y="-181.52" font-family="Times,serif" font-size="14.00">~</text>
<text xml:space="preserve" text-anchor="middle" x="167" y="-165.02" font-family="Times,serif" font-size="14.00">Deterministic</text>
</g>
<!-- Intercept&#45;&gt;mu -->
<g id="edge1" class="edge">
<title>Intercept&#45;&gt;mu</title>
<path fill="none" stroke="black" d="M167,-251C167,-243.15 167,-234.91 167,-227.08"/>
<polygon fill="black" stroke="black" points="170.5,-227.11 167,-217.11 163.5,-227.11 170.5,-227.11"/>
</g>
<!-- censored(days_to_event / 31, adopt) -->
<g id="node2" class="node">
<title>censored(days_to_event / 31, adopt)</title>
<ellipse fill="lightgrey" stroke="black" cx="167" cy="-81.16" rx="150.79" ry="40.66"/>
<text xml:space="preserve" text-anchor="middle" x="167" y="-92.61" font-family="Times,serif" font-size="14.00">censored(days_to_event / 31, adopt)</text>
<text xml:space="preserve" text-anchor="middle" x="167" y="-76.11" font-family="Times,serif" font-size="14.00">~</text>
<text xml:space="preserve" text-anchor="middle" x="167" y="-59.61" font-family="Times,serif" font-size="14.00">Censored</text>
</g>
<!-- mu&#45;&gt;censored(days_to_event / 31, adopt) -->
<g id="edge2" class="edge">
<title>mu&#45;&gt;censored(days_to_event / 31, adopt)</title>
<path fill="none" stroke="black" d="M167,-157.58C167,-150.1 167,-141.77 167,-133.45"/>
<polygon fill="black" stroke="black" points="170.5,-133.71 167,-123.71 163.5,-133.71 170.5,-133.71"/>
</g>
</g>
</svg>
