<?xml version="1.0" encoding="UTF-8" standalone="no"?>
<!DOCTYPE svg PUBLIC "-//W3C//DTD SVG 1.1//EN"
 "http://www.w3.org/Graphics/SVG/1.1/DTD/svg11.dtd">
<!-- Generated by graphviz version 8.0.5 (0)
 -->
<!-- Pages: 1 -->
<svg width="342pt" height="276pt"
 viewBox="0.00 0.00 342.00 275.63" xmlns="http://www.w3.org/2000/svg" xmlns:xlink="http://www.w3.org/1999/xlink">
<g id="graph0" class="graph" transform="scale(1 1) rotate(0) translate(4 271.63)">
<polygon fill="white" stroke="none" points="-4,4 -4,-271.63 338,-271.63 338,4 -4,4"/>
<g id="clust1" class="cluster">
<title>clustercolor_id_dim (2)</title>
<path fill="none" stroke="black" d="M125,-137.82C125,-137.82 210,-137.82 210,-137.82 216,-137.82 222,-143.82 222,-149.82 222,-149.82 222,-247.63 222,-247.63 222,-253.63 216,-259.63 210,-259.63 210,-259.63 125,-259.63 125,-259.63 119,-259.63 113,-253.63 113,-247.63 113,-247.63 113,-149.82 113,-149.82 113,-143.82 119,-137.82 125,-137.82"/>
<text text-anchor="middle" x="167.5" y="-145.02" font-family="Times,serif" font-size="14.00">color_id_dim (2)</text>
</g>
<g id="clust2" class="cluster">
<title>clustercensored(days_to_event / 31, adopt)_obs (22356)</title>
<path fill="none" stroke="black" d="M20,-8C20,-8 314,-8 314,-8 320,-8 326,-14 326,-20 326,-20 326,-117.82 326,-117.82 326,-123.82 320,-129.82 314,-129.82 314,-129.82 20,-129.82 20,-129.82 14,-129.82 8,-123.82 8,-117.82 8,-117.82 8,-20 8,-20 8,-14 14,-8 20,-8"/>
<text text-anchor="middle" x="183.38" y="-15.2" font-family="Times,serif" font-size="14.00">censored(days_to_event / 31, adopt)_obs (22356)</text>
</g>
<!-- color_id -->
<g id="node1" class="node">
<title>color_id</title>
<ellipse fill="none" stroke="black" cx="167" cy="-210.98" rx="43.13" ry="40.66"/>
<text text-anchor="middle" x="167" y="-222.43" font-family="Times,serif" font-size="14.00">color_id</text>
<text text-anchor="middle" x="167" y="-205.93" font-family="Times,serif" font-size="14.00">~</text>
<text text-anchor="middle" x="167" y="-189.43" font-family="Times,serif" font-size="14.00">Normal</text>
</g>
<!-- censored(days_to_event / 31, adopt) -->
<g id="node2" class="node">
<title>censored(days_to_event / 31, adopt)</title>
<ellipse fill="lightgrey" stroke="black" cx="167" cy="-81.16" rx="150.79" ry="40.66"/>
<text text-anchor="middle" x="167" y="-92.61" font-family="Times,serif" font-size="14.00">censored(days_to_event / 31, adopt)</text>
<text text-anchor="middle" x="167" y="-76.11" font-family="Times,serif" font-size="14.00">~</text>
<text text-anchor="middle" x="167" y="-59.61" font-family="Times,serif" font-size="14.00">Censored</text>
</g>
<!-- color_id&#45;&gt;censored(days_to_event / 31, adopt) -->
<g id="edge1" class="edge">
<title>color_id&#45;&gt;censored(days_to_event / 31, adopt)</title>
<path fill="none" stroke="black" d="M167,-169.88C167,-158.23 167,-145.33 167,-133.1"/>
<polygon fill="black" stroke="black" points="170.5,-133.11 167,-123.11 163.5,-133.11 170.5,-133.11"/>
</g>
</g>
</svg>
