<?xml version="1.0" encoding="UTF-8" standalone="no"?>
<!DOCTYPE svg PUBLIC "-//W3C//DTD SVG 1.1//EN"
 "http://www.w3.org/Graphics/SVG/1.1/DTD/svg11.dtd">
<!-- Generated by graphviz version 13.1.2 (20250809.0930)
 -->
<!-- Pages: 1 -->
<svg width="342pt" height="369pt"
 viewBox="0.00 0.00 342.00 369.00" xmlns="http://www.w3.org/2000/svg" xmlns:xlink="http://www.w3.org/1999/xlink">
<g id="graph0" class="graph" transform="scale(1 1) rotate(0) translate(4 365.13)">
<polygon fill="white" stroke="none" points="-4,4 -4,-365.13 338,-365.13 338,4 -4,4"/>
<g id="clust1" class="cluster">
<title>clustercolor_id_dim (2)</title>
<path fill="none" stroke="black" d="M125,-231.32C125,-231.32 210,-231.32 210,-231.32 216,-231.32 222,-237.32 222,-243.32 222,-243.32 222,-341.13 222,-341.13 222,-347.13 216,-353.13 210,-353.13 210,-353.13 125,-353.13 125,-353.13 119,-353.13 113,-347.13 113,-341.13 113,-341.13 113,-243.32 113,-243.32 113,-237.32 119,-231.32 125,-231.32"/>
<text xml:space="preserve" text-anchor="middle" x="167.5" y="-238.52" font-family="Times,serif" font-size="14.00">color_id_dim (2)</text>
</g>
<g id="clust2" class="cluster">
<title>cluster__obs__ (22356)</title>
<path fill="none" stroke="black" d="M20,-8C20,-8 314,-8 314,-8 320,-8 326,-14 326,-20 326,-20 326,-211.32 326,-211.32 326,-217.32 320,-223.32 314,-223.32 314,-223.32 20,-223.32 20,-223.32 14,-223.32 8,-217.32 8,-211.32 8,-211.32 8,-20 8,-20 8,-14 14,-8 20,-8"/>
<text xml:space="preserve" text-anchor="middle" x="271.88" y="-15.2" font-family="Times,serif" font-size="14.00">__obs__ (22356)</text>
</g>
<!-- color_id -->
<g id="node1" class="node">
<title>color_id</title>
<ellipse fill="none" stroke="black" cx="167" cy="-304.48" rx="43.13" ry="40.66"/>
<text xml:space="preserve" text-anchor="middle" x="167" y="-315.93" font-family="Times,serif" font-size="14.00">color_id</text>
<text xml:space="preserve" text-anchor="middle" x="167" y="-299.43" font-family="Times,serif" font-size="14.00">~</text>
<text xml:space="preserve" text-anchor="middle" x="167" y="-282.93" font-family="Times,serif" font-size="14.00">Normal</text>
</g>
<!-- mu -->
<g id="node3" class="node">
<title>mu</title>
<polygon fill="none" stroke="black" points="212.12,-215.32 121.88,-215.32 121.88,-157.82 212.12,-157.82 212.12,-215.32"/>
<text xml:space="preserve" text-anchor="middle" x="167" y="-198.02" font-family="Times,serif" font-size="14.00">mu</text>
<text xml:space="preserve" text-anchor="middle" x="167" y="-181.52" font-family="Times,serif" font-size="14.00">~</text>
<text xml:space="preserve" text-anchor="middle" x="167" y="-165.02" font-family="Times,serif" font-size="14.00">Deterministic</text>
</g>
<!-- color_id&#45;&gt;mu -->
<g id="edge1" class="edge">
<title>color_id&#45;&gt;mu</title>
<path fill="none" stroke="black" d="M167,-263.59C167,-251.7 167,-238.69 167,-226.84"/>
<polygon fill="black" stroke="black" points="170.5,-226.98 167,-216.98 163.5,-226.98 170.5,-226.98"/>
</g>
<!-- censored(days_to_event / 31, adopt) -->
<g id="node2" class="node">
<title>censored(days_to_event / 31, adopt)</title>
<ellipse fill="lightgrey" stroke="black" cx="167" cy="-81.16" rx="150.79" ry="40.66"/>
<text xml:space="preserve" text-anchor="middle" x="167" y="-92.61" font-family="Times,serif" font-size="14.00">censored(days_to_event / 31, adopt)</text>
<text xml:space="preserve" text-anchor="middle" x="167" y="-76.11" font-family="Times,serif" font-size="14.00">~</text>
<text xml:space="preserve" text-anchor="middle" x="167" y="-59.61" font-family="Times,serif" font-size="14.00">Censored</text>
</g>
<!-- mu&#45;&gt;censored(days_to_event / 31, adopt) -->
<g id="edge2" class="edge">
<title>mu&#45;&gt;censored(days_to_event / 31, adopt)</title>
<path fill="none" stroke="black" d="M167,-157.58C167,-150.1 167,-141.77 167,-133.45"/>
<polygon fill="black" stroke="black" points="170.5,-133.71 167,-123.71 163.5,-133.71 170.5,-133.71"/>
</g>
</g>
</svg>
