<?xml version="1.0" encoding="UTF-8" standalone="no"?>
<!DOCTYPE svg PUBLIC "-//W3C//DTD SVG 1.1//EN"
 "http://www.w3.org/Graphics/SVG/1.1/DTD/svg11.dtd">
<!-- Generated by graphviz version 2.50.0 (0)
 -->
<!-- Pages: 1 -->
<svg width="426pt" height="349pt"
 viewBox="0.00 0.00 426.00 348.91" xmlns="http://www.w3.org/2000/svg" xmlns:xlink="http://www.w3.org/1999/xlink">
<g id="graph0" class="graph" transform="scale(1 1) rotate(0) translate(4 344.91)">
<polygon fill="white" stroke="transparent" points="-4,4 -4,-344.91 422,-344.91 422,4 -4,4"/>
<g id="clust1" class="cluster">
<title>clustercolor_id_dim (2)</title>
<path fill="none" stroke="black" d="M156,-218.95C156,-218.95 262,-218.95 262,-218.95 268,-218.95 274,-224.95 274,-230.95 274,-230.95 274,-320.91 274,-320.91 274,-326.91 268,-332.91 262,-332.91 262,-332.91 156,-332.91 156,-332.91 150,-332.91 144,-326.91 144,-320.91 144,-320.91 144,-230.95 144,-230.95 144,-224.95 150,-218.95 156,-218.95"/>
<text text-anchor="middle" x="209" y="-226.75" font-family="Times,serif" font-size="14.00">color_id_dim (2)</text>
</g>
<g id="clust2" class="cluster">
<title>cluster__obs__ (22356)</title>
<path fill="none" stroke="black" d="M20,-8C20,-8 398,-8 398,-8 404,-8 410,-14 410,-20 410,-20 410,-198.95 410,-198.95 410,-204.95 404,-210.95 398,-210.95 398,-210.95 20,-210.95 20,-210.95 14,-210.95 8,-204.95 8,-198.95 8,-198.95 8,-20 8,-20 8,-14 14,-8 20,-8"/>
<text text-anchor="middle" x="346" y="-15.8" font-family="Times,serif" font-size="14.00">__obs__ (22356)</text>
</g>
<!-- color_id -->
<g id="node1" class="node">
<title>color_id</title>
<ellipse fill="none" stroke="black" cx="209" cy="-287.43" rx="50.82" ry="37.45"/>
<text text-anchor="middle" x="209" y="-298.73" font-family="Times,serif" font-size="14.00">color_id</text>
<text text-anchor="middle" x="209" y="-283.73" font-family="Times,serif" font-size="14.00">~</text>
<text text-anchor="middle" x="209" y="-268.73" font-family="Times,serif" font-size="14.00">Normal</text>
</g>
<!-- mu -->
<g id="node3" class="node">
<title>mu</title>
<polygon fill="none" stroke="black" points="266,-202.95 152,-202.95 152,-149.95 266,-149.95 266,-202.95"/>
<text text-anchor="middle" x="209" y="-187.75" font-family="Times,serif" font-size="14.00">mu</text>
<text text-anchor="middle" x="209" y="-172.75" font-family="Times,serif" font-size="14.00">~</text>
<text text-anchor="middle" x="209" y="-157.75" font-family="Times,serif" font-size="14.00">Deterministic</text>
</g>
<!-- color_id&#45;&gt;mu -->
<g id="edge1" class="edge">
<title>color_id&#45;&gt;mu</title>
<path fill="none" stroke="black" d="M209,-249.84C209,-238.1 209,-225.11 209,-213.42"/>
<polygon fill="black" stroke="black" points="212.5,-213.11 209,-203.11 205.5,-213.11 212.5,-213.11"/>
</g>
<!-- censored(days_to_event / 31, adopt) -->
<g id="node2" class="node">
<title>censored(days_to_event / 31, adopt)</title>
<ellipse fill="lightgrey" stroke="black" cx="209" cy="-76.48" rx="193.08" ry="37.45"/>
<text text-anchor="middle" x="209" y="-87.78" font-family="Times,serif" font-size="14.00">censored(days_to_event / 31, adopt)</text>
<text text-anchor="middle" x="209" y="-72.78" font-family="Times,serif" font-size="14.00">~</text>
<text text-anchor="middle" x="209" y="-57.78" font-family="Times,serif" font-size="14.00">Censored</text>
</g>
<!-- mu&#45;&gt;censored(days_to_event / 31, adopt) -->
<g id="edge2" class="edge">
<title>mu&#45;&gt;censored(days_to_event / 31, adopt)</title>
<path fill="none" stroke="black" d="M209,-149.71C209,-141.89 209,-133.03 209,-124.27"/>
<polygon fill="black" stroke="black" points="212.5,-124.1 209,-114.1 205.5,-124.1 212.5,-124.1"/>
</g>
</g>
</svg>
