<?xml version="1.0" encoding="UTF-8" standalone="no"?>
<!DOCTYPE svg PUBLIC "-//W3C//DTD SVG 1.1//EN"
 "http://www.w3.org/Graphics/SVG/1.1/DTD/svg11.dtd">
<!-- Generated by graphviz version 8.0.5 (0)
 -->
<!-- Pages: 1 -->
<svg width="342pt" height="247pt"
 viewBox="0.00 0.00 342.00 247.13" xmlns="http://www.w3.org/2000/svg" xmlns:xlink="http://www.w3.org/1999/xlink">
<g id="graph0" class="graph" transform="scale(1 1) rotate(0) translate(4 243.13)">
<polygon fill="white" stroke="none" points="-4,4 -4,-243.13 338,-243.13 338,4 -4,4"/>
<g id="clust1" class="cluster">
<title>clustercensored(days_to_event / 31, adopt)_obs (22356)</title>
<path fill="none" stroke="black" d="M20,-8C20,-8 314,-8 314,-8 320,-8 326,-14 326,-20 326,-20 326,-117.82 326,-117.82 326,-123.82 320,-129.82 314,-129.82 314,-129.82 20,-129.82 20,-129.82 14,-129.82 8,-123.82 8,-117.82 8,-117.82 8,-20 8,-20 8,-14 14,-8 20,-8"/>
<text text-anchor="middle" x="183.38" y="-15.2" font-family="Times,serif" font-size="14.00">censored(days_to_event / 31, adopt)_obs (22356)</text>
</g>
<!-- Intercept -->
<g id="node1" class="node">
<title>Intercept</title>
<ellipse fill="none" stroke="black" cx="167" cy="-198.48" rx="45.25" ry="40.66"/>
<text text-anchor="middle" x="167" y="-209.93" font-family="Times,serif" font-size="14.00">Intercept</text>
<text text-anchor="middle" x="167" y="-193.43" font-family="Times,serif" font-size="14.00">~</text>
<text text-anchor="middle" x="167" y="-176.93" font-family="Times,serif" font-size="14.00">Normal</text>
</g>
<!-- censored(days_to_event / 31, adopt) -->
<g id="node2" class="node">
<title>censored(days_to_event / 31, adopt)</title>
<ellipse fill="lightgrey" stroke="black" cx="167" cy="-81.16" rx="150.79" ry="40.66"/>
<text text-anchor="middle" x="167" y="-92.61" font-family="Times,serif" font-size="14.00">censored(days_to_event / 31, adopt)</text>
<text text-anchor="middle" x="167" y="-76.11" font-family="Times,serif" font-size="14.00">~</text>
<text text-anchor="middle" x="167" y="-59.61" font-family="Times,serif" font-size="14.00">Censored</text>
</g>
<!-- Intercept&#45;&gt;censored(days_to_event / 31, adopt) -->
<g id="edge1" class="edge">
<title>Intercept&#45;&gt;censored(days_to_event / 31, adopt)</title>
<path fill="none" stroke="black" d="M167,-157.47C167,-149.6 167,-141.24 167,-133.07"/>
<polygon fill="black" stroke="black" points="170.5,-133.1 167,-123.1 163.5,-133.1 170.5,-133.1"/>
</g>
</g>
</svg>
